<?xml version="1.0" encoding="utf-8" standalone="no"?>
<!DOCTYPE svg PUBLIC "-//W3C//DTD SVG 1.1//EN"
  "http://www.w3.org/Graphics/SVG/1.1/DTD/svg11.dtd">
<svg xmlns:xlink="http://www.w3.org/1999/xlink" width="936pt" height="720pt" viewBox="0 0 936 720" xmlns="http://www.w3.org/2000/svg" version="1.1">
 <metadata>
  <rdf:RDF xmlns:dc="http://purl.org/dc/elements/1.1/" xmlns:cc="http://creativecommons.org/ns#" xmlns:rdf="http://www.w3.org/1999/02/22-rdf-syntax-ns#">
   <cc:Work>
    <dc:type rdf:resource="http://purl.org/dc/dcmitype/StillImage"/>
    <dc:date>2024-12-09T03:44:21.855873</dc:date>
    <dc:format>image/svg+xml</dc:format>
    <dc:creator>
     <cc:Agent>
      <dc:title>Matplotlib v3.8.0, https://matplotlib.org/</dc:title>
     </cc:Agent>
    </dc:creator>
   </cc:Work>
  </rdf:RDF>
 </metadata>
 <defs>
  <style type="text/css">*{stroke-linejoin: round; stroke-linecap: butt}</style>
 </defs>
 <g id="figure_1">
  <g id="patch_1">
   <path d="M 0 720 
L 936 720 
L 936 0 
L 0 0 
z
" style="fill: #ffffff"/>
  </g>
  <g id="axes_1">
   <g id="patch_2">
    <path d="M 81.11 309.04 
L 925.2 309.04 
L 925.2 30.48 
L 81.11 30.48 
z
" style="fill: #ffffff"/>
   </g>
   <g id="patch_3">
    <path d="M 81.11 309.04 
L 81.11 30.48 
L 398.275554 30.48 
L 398.275554 309.04 
z
" clip-path="url(#pe5684f2978)" style="fill: #808080; opacity: 0.15"/>
   </g>
   <g id="matplotlib.axis_1">
    <g id="xtick_1">
     <g id="line2d_1">
      <defs>
       <path id="m9d0af9ebd9" d="M 0 0 
L 0 3.5 
" style="stroke: #000000; stroke-width: 0.8"/>
      </defs>
      <g>
       <use xlink:href="#m9d0af9ebd9" x="81.11" y="309.04" style="stroke: #000000; stroke-width: 0.8"/>
      </g>
     </g>
     <g id="text_1">
      <!-- 0 -->
      <g transform="translate(75.6128 329.1701) scale(0.1728 -0.1728)">
       <defs>
        <path id="DejaVuSans-30" d="M 2034 4250 
Q 1547 4250 1301 3770 
Q 1056 3291 1056 2328 
Q 1056 1369 1301 889 
Q 1547 409 2034 409 
Q 2525 409 2770 889 
Q 3016 1369 3016 2328 
Q 3016 3291 2770 3770 
Q 2525 4250 2034 4250 
z
M 2034 4750 
Q 2819 4750 3233 4129 
Q 3647 3509 3647 2328 
Q 3647 1150 3233 529 
Q 2819 -91 2034 -91 
Q 1250 -91 836 529 
Q 422 1150 422 2328 
Q 422 3509 836 4129 
Q 1250 4750 2034 4750 
z
" transform="scale(0.015625)"/>
       </defs>
       <use xlink:href="#DejaVuSans-30"/>
      </g>
     </g>
    </g>
    <g id="xtick_2">
     <g id="line2d_2">
      <g>
       <use xlink:href="#m9d0af9ebd9" x="207.470778" y="309.04" style="stroke: #000000; stroke-width: 0.8"/>
      </g>
     </g>
     <g id="text_2">
      <!-- 1 -->
      <g transform="translate(201.973578 329.1701) scale(0.1728 -0.1728)">
       <defs>
        <path id="DejaVuSans-31" d="M 794 531 
L 1825 531 
L 1825 4091 
L 703 3866 
L 703 4441 
L 1819 4666 
L 2450 4666 
L 2450 531 
L 3481 531 
L 3481 0 
L 794 0 
L 794 531 
z
" transform="scale(0.015625)"/>
       </defs>
       <use xlink:href="#DejaVuSans-31"/>
      </g>
     </g>
    </g>
    <g id="xtick_3">
     <g id="line2d_3">
      <g>
       <use xlink:href="#m9d0af9ebd9" x="333.831557" y="309.04" style="stroke: #000000; stroke-width: 0.8"/>
      </g>
     </g>
     <g id="text_3">
      <!-- 2 -->
      <g transform="translate(328.334357 329.1701) scale(0.1728 -0.1728)">
       <defs>
        <path id="DejaVuSans-32" d="M 1228 531 
L 3431 531 
L 3431 0 
L 469 0 
L 469 531 
Q 828 903 1448 1529 
Q 2069 2156 2228 2338 
Q 2531 2678 2651 2914 
Q 2772 3150 2772 3378 
Q 2772 3750 2511 3984 
Q 2250 4219 1831 4219 
Q 1534 4219 1204 4116 
Q 875 4013 500 3803 
L 500 4441 
Q 881 4594 1212 4672 
Q 1544 4750 1819 4750 
Q 2544 4750 2975 4387 
Q 3406 4025 3406 3419 
Q 3406 3131 3298 2873 
Q 3191 2616 2906 2266 
Q 2828 2175 2409 1742 
Q 1991 1309 1228 531 
z
" transform="scale(0.015625)"/>
       </defs>
       <use xlink:href="#DejaVuSans-32"/>
      </g>
     </g>
    </g>
    <g id="xtick_4">
     <g id="line2d_4">
      <g>
       <use xlink:href="#m9d0af9ebd9" x="460.192335" y="309.04" style="stroke: #000000; stroke-width: 0.8"/>
      </g>
     </g>
     <g id="text_4">
      <!-- 3 -->
      <g transform="translate(454.695135 329.1701) scale(0.1728 -0.1728)">
       <defs>
        <path id="DejaVuSans-33" d="M 2597 2516 
Q 3050 2419 3304 2112 
Q 3559 1806 3559 1356 
Q 3559 666 3084 287 
Q 2609 -91 1734 -91 
Q 1441 -91 1130 -33 
Q 819 25 488 141 
L 488 750 
Q 750 597 1062 519 
Q 1375 441 1716 441 
Q 2309 441 2620 675 
Q 2931 909 2931 1356 
Q 2931 1769 2642 2001 
Q 2353 2234 1838 2234 
L 1294 2234 
L 1294 2753 
L 1863 2753 
Q 2328 2753 2575 2939 
Q 2822 3125 2822 3475 
Q 2822 3834 2567 4026 
Q 2313 4219 1838 4219 
Q 1578 4219 1281 4162 
Q 984 4106 628 3988 
L 628 4550 
Q 988 4650 1302 4700 
Q 1616 4750 1894 4750 
Q 2613 4750 3031 4423 
Q 3450 4097 3450 3541 
Q 3450 3153 3228 2886 
Q 3006 2619 2597 2516 
z
" transform="scale(0.015625)"/>
       </defs>
       <use xlink:href="#DejaVuSans-33"/>
      </g>
     </g>
    </g>
    <g id="xtick_5">
     <g id="line2d_5">
      <g>
       <use xlink:href="#m9d0af9ebd9" x="586.553114" y="309.04" style="stroke: #000000; stroke-width: 0.8"/>
      </g>
     </g>
     <g id="text_5">
      <!-- 4 -->
      <g transform="translate(581.055914 329.1701) scale(0.1728 -0.1728)">
       <defs>
        <path id="DejaVuSans-34" d="M 2419 4116 
L 825 1625 
L 2419 1625 
L 2419 4116 
z
M 2253 4666 
L 3047 4666 
L 3047 1625 
L 3713 1625 
L 3713 1100 
L 3047 1100 
L 3047 0 
L 2419 0 
L 2419 1100 
L 313 1100 
L 313 1709 
L 2253 4666 
z
" transform="scale(0.015625)"/>
       </defs>
       <use xlink:href="#DejaVuSans-34"/>
      </g>
     </g>
    </g>
    <g id="xtick_6">
     <g id="line2d_6">
      <g>
       <use xlink:href="#m9d0af9ebd9" x="712.913892" y="309.04" style="stroke: #000000; stroke-width: 0.8"/>
      </g>
     </g>
     <g id="text_6">
      <!-- 5 -->
      <g transform="translate(707.416692 329.1701) scale(0.1728 -0.1728)">
       <defs>
        <path id="DejaVuSans-35" d="M 691 4666 
L 3169 4666 
L 3169 4134 
L 1269 4134 
L 1269 2991 
Q 1406 3038 1543 3061 
Q 1681 3084 1819 3084 
Q 2600 3084 3056 2656 
Q 3513 2228 3513 1497 
Q 3513 744 3044 326 
Q 2575 -91 1722 -91 
Q 1428 -91 1123 -41 
Q 819 9 494 109 
L 494 744 
Q 775 591 1075 516 
Q 1375 441 1709 441 
Q 2250 441 2565 725 
Q 2881 1009 2881 1497 
Q 2881 1984 2565 2268 
Q 2250 2553 1709 2553 
Q 1456 2553 1204 2497 
Q 953 2441 691 2322 
L 691 4666 
z
" transform="scale(0.015625)"/>
       </defs>
       <use xlink:href="#DejaVuSans-35"/>
      </g>
     </g>
    </g>
    <g id="xtick_7">
     <g id="line2d_7">
      <g>
       <use xlink:href="#m9d0af9ebd9" x="839.274671" y="309.04" style="stroke: #000000; stroke-width: 0.8"/>
      </g>
     </g>
     <g id="text_7">
      <!-- 6 -->
      <g transform="translate(833.777471 329.1701) scale(0.1728 -0.1728)">
       <defs>
        <path id="DejaVuSans-36" d="M 2113 2584 
Q 1688 2584 1439 2293 
Q 1191 2003 1191 1497 
Q 1191 994 1439 701 
Q 1688 409 2113 409 
Q 2538 409 2786 701 
Q 3034 994 3034 1497 
Q 3034 2003 2786 2293 
Q 2538 2584 2113 2584 
z
M 3366 4563 
L 3366 3988 
Q 3128 4100 2886 4159 
Q 2644 4219 2406 4219 
Q 1781 4219 1451 3797 
Q 1122 3375 1075 2522 
Q 1259 2794 1537 2939 
Q 1816 3084 2150 3084 
Q 2853 3084 3261 2657 
Q 3669 2231 3669 1497 
Q 3669 778 3244 343 
Q 2819 -91 2113 -91 
Q 1303 -91 875 529 
Q 447 1150 447 2328 
Q 447 3434 972 4092 
Q 1497 4750 2381 4750 
Q 2619 4750 2861 4703 
Q 3103 4656 3366 4563 
z
" transform="scale(0.015625)"/>
       </defs>
       <use xlink:href="#DejaVuSans-36"/>
      </g>
     </g>
    </g>
    <g id="text_8">
     <!-- time in a.u. -->
     <g transform="translate(454.00555 349.8939) scale(0.1728 -0.1728)">
      <defs>
       <path id="DejaVuSans-74" d="M 1172 4494 
L 1172 3500 
L 2356 3500 
L 2356 3053 
L 1172 3053 
L 1172 1153 
Q 1172 725 1289 603 
Q 1406 481 1766 481 
L 2356 481 
L 2356 0 
L 1766 0 
Q 1100 0 847 248 
Q 594 497 594 1153 
L 594 3053 
L 172 3053 
L 172 3500 
L 594 3500 
L 594 4494 
L 1172 4494 
z
" transform="scale(0.015625)"/>
       <path id="DejaVuSans-69" d="M 603 3500 
L 1178 3500 
L 1178 0 
L 603 0 
L 603 3500 
z
M 603 4863 
L 1178 4863 
L 1178 4134 
L 603 4134 
L 603 4863 
z
" transform="scale(0.015625)"/>
       <path id="DejaVuSans-6d" d="M 3328 2828 
Q 3544 3216 3844 3400 
Q 4144 3584 4550 3584 
Q 5097 3584 5394 3201 
Q 5691 2819 5691 2113 
L 5691 0 
L 5113 0 
L 5113 2094 
Q 5113 2597 4934 2840 
Q 4756 3084 4391 3084 
Q 3944 3084 3684 2787 
Q 3425 2491 3425 1978 
L 3425 0 
L 2847 0 
L 2847 2094 
Q 2847 2600 2669 2842 
Q 2491 3084 2119 3084 
Q 1678 3084 1418 2786 
Q 1159 2488 1159 1978 
L 1159 0 
L 581 0 
L 581 3500 
L 1159 3500 
L 1159 2956 
Q 1356 3278 1631 3431 
Q 1906 3584 2284 3584 
Q 2666 3584 2933 3390 
Q 3200 3197 3328 2828 
z
" transform="scale(0.015625)"/>
       <path id="DejaVuSans-65" d="M 3597 1894 
L 3597 1613 
L 953 1613 
Q 991 1019 1311 708 
Q 1631 397 2203 397 
Q 2534 397 2845 478 
Q 3156 559 3463 722 
L 3463 178 
Q 3153 47 2828 -22 
Q 2503 -91 2169 -91 
Q 1331 -91 842 396 
Q 353 884 353 1716 
Q 353 2575 817 3079 
Q 1281 3584 2069 3584 
Q 2775 3584 3186 3129 
Q 3597 2675 3597 1894 
z
M 3022 2063 
Q 3016 2534 2758 2815 
Q 2500 3097 2075 3097 
Q 1594 3097 1305 2825 
Q 1016 2553 972 2059 
L 3022 2063 
z
" transform="scale(0.015625)"/>
       <path id="DejaVuSans-20" transform="scale(0.015625)"/>
       <path id="DejaVuSans-6e" d="M 3513 2113 
L 3513 0 
L 2938 0 
L 2938 2094 
Q 2938 2591 2744 2837 
Q 2550 3084 2163 3084 
Q 1697 3084 1428 2787 
Q 1159 2491 1159 1978 
L 1159 0 
L 581 0 
L 581 3500 
L 1159 3500 
L 1159 2956 
Q 1366 3272 1645 3428 
Q 1925 3584 2291 3584 
Q 2894 3584 3203 3211 
Q 3513 2838 3513 2113 
z
" transform="scale(0.015625)"/>
       <path id="DejaVuSans-61" d="M 2194 1759 
Q 1497 1759 1228 1600 
Q 959 1441 959 1056 
Q 959 750 1161 570 
Q 1363 391 1709 391 
Q 2188 391 2477 730 
Q 2766 1069 2766 1631 
L 2766 1759 
L 2194 1759 
z
M 3341 1997 
L 3341 0 
L 2766 0 
L 2766 531 
Q 2569 213 2275 61 
Q 1981 -91 1556 -91 
Q 1019 -91 701 211 
Q 384 513 384 1019 
Q 384 1609 779 1909 
Q 1175 2209 1959 2209 
L 2766 2209 
L 2766 2266 
Q 2766 2663 2505 2880 
Q 2244 3097 1772 3097 
Q 1472 3097 1187 3025 
Q 903 2953 641 2809 
L 641 3341 
Q 956 3463 1253 3523 
Q 1550 3584 1831 3584 
Q 2591 3584 2966 3190 
Q 3341 2797 3341 1997 
z
" transform="scale(0.015625)"/>
       <path id="DejaVuSans-2e" d="M 684 794 
L 1344 794 
L 1344 0 
L 684 0 
L 684 794 
z
" transform="scale(0.015625)"/>
       <path id="DejaVuSans-75" d="M 544 1381 
L 544 3500 
L 1119 3500 
L 1119 1403 
Q 1119 906 1312 657 
Q 1506 409 1894 409 
Q 2359 409 2629 706 
Q 2900 1003 2900 1516 
L 2900 3500 
L 3475 3500 
L 3475 0 
L 2900 0 
L 2900 538 
Q 2691 219 2414 64 
Q 2138 -91 1772 -91 
Q 1169 -91 856 284 
Q 544 659 544 1381 
z
M 1991 3584 
L 1991 3584 
z
" transform="scale(0.015625)"/>
      </defs>
      <use xlink:href="#DejaVuSans-74"/>
      <use xlink:href="#DejaVuSans-69" x="39.208984"/>
      <use xlink:href="#DejaVuSans-6d" x="66.992188"/>
      <use xlink:href="#DejaVuSans-65" x="164.404297"/>
      <use xlink:href="#DejaVuSans-20" x="225.927734"/>
      <use xlink:href="#DejaVuSans-69" x="257.714844"/>
      <use xlink:href="#DejaVuSans-6e" x="285.498047"/>
      <use xlink:href="#DejaVuSans-20" x="348.876953"/>
      <use xlink:href="#DejaVuSans-61" x="380.664062"/>
      <use xlink:href="#DejaVuSans-2e" x="441.943359"/>
      <use xlink:href="#DejaVuSans-75" x="473.730469"/>
      <use xlink:href="#DejaVuSans-2e" x="537.109375"/>
     </g>
    </g>
   </g>
   <g id="matplotlib.axis_2">
    <g id="ytick_1">
     <g id="line2d_8">
      <defs>
       <path id="m55b19e05f1" d="M 0 0 
L -3.5 0 
" style="stroke: #000000; stroke-width: 0.8"/>
      </defs>
      <g>
       <use xlink:href="#m55b19e05f1" x="81.11" y="302.104999" style="stroke: #000000; stroke-width: 0.8"/>
      </g>
     </g>
     <g id="text_9">
      <!-- −20 -->
      <g transform="translate(37.6411 308.670049) scale(0.1728 -0.1728)">
       <defs>
        <path id="DejaVuSans-2212" d="M 678 2272 
L 4684 2272 
L 4684 1741 
L 678 1741 
L 678 2272 
z
" transform="scale(0.015625)"/>
       </defs>
       <use xlink:href="#DejaVuSans-2212"/>
       <use xlink:href="#DejaVuSans-32" x="83.789062"/>
       <use xlink:href="#DejaVuSans-30" x="147.412109"/>
      </g>
     </g>
    </g>
    <g id="ytick_2">
     <g id="line2d_9">
      <g>
       <use xlink:href="#m55b19e05f1" x="81.11" y="251.821789" style="stroke: #000000; stroke-width: 0.8"/>
      </g>
     </g>
     <g id="text_10">
      <!-- 0 -->
      <g transform="translate(63.1156 258.386839) scale(0.1728 -0.1728)">
       <use xlink:href="#DejaVuSans-30"/>
      </g>
     </g>
    </g>
    <g id="ytick_3">
     <g id="line2d_10">
      <g>
       <use xlink:href="#m55b19e05f1" x="81.11" y="201.538579" style="stroke: #000000; stroke-width: 0.8"/>
      </g>
     </g>
     <g id="text_11">
      <!-- 20 -->
      <g transform="translate(52.1212 208.103629) scale(0.1728 -0.1728)">
       <use xlink:href="#DejaVuSans-32"/>
       <use xlink:href="#DejaVuSans-30" x="63.623047"/>
      </g>
     </g>
    </g>
    <g id="ytick_4">
     <g id="line2d_11">
      <g>
       <use xlink:href="#m55b19e05f1" x="81.11" y="151.255369" style="stroke: #000000; stroke-width: 0.8"/>
      </g>
     </g>
     <g id="text_12">
      <!-- 40 -->
      <g transform="translate(52.1212 157.820419) scale(0.1728 -0.1728)">
       <use xlink:href="#DejaVuSans-34"/>
       <use xlink:href="#DejaVuSans-30" x="63.623047"/>
      </g>
     </g>
    </g>
    <g id="ytick_5">
     <g id="line2d_12">
      <g>
       <use xlink:href="#m55b19e05f1" x="81.11" y="100.972159" style="stroke: #000000; stroke-width: 0.8"/>
      </g>
     </g>
     <g id="text_13">
      <!-- 60 -->
      <g transform="translate(52.1212 107.537209) scale(0.1728 -0.1728)">
       <use xlink:href="#DejaVuSans-36"/>
       <use xlink:href="#DejaVuSans-30" x="63.623047"/>
      </g>
     </g>
    </g>
    <g id="ytick_6">
     <g id="line2d_13">
      <g>
       <use xlink:href="#m55b19e05f1" x="81.11" y="50.688948" style="stroke: #000000; stroke-width: 0.8"/>
      </g>
     </g>
     <g id="text_14">
      <!-- 80 -->
      <g transform="translate(52.1212 57.253998) scale(0.1728 -0.1728)">
       <defs>
        <path id="DejaVuSans-38" d="M 2034 2216 
Q 1584 2216 1326 1975 
Q 1069 1734 1069 1313 
Q 1069 891 1326 650 
Q 1584 409 2034 409 
Q 2484 409 2743 651 
Q 3003 894 3003 1313 
Q 3003 1734 2745 1975 
Q 2488 2216 2034 2216 
z
M 1403 2484 
Q 997 2584 770 2862 
Q 544 3141 544 3541 
Q 544 4100 942 4425 
Q 1341 4750 2034 4750 
Q 2731 4750 3128 4425 
Q 3525 4100 3525 3541 
Q 3525 3141 3298 2862 
Q 3072 2584 2669 2484 
Q 3125 2378 3379 2068 
Q 3634 1759 3634 1313 
Q 3634 634 3220 271 
Q 2806 -91 2034 -91 
Q 1263 -91 848 271 
Q 434 634 434 1313 
Q 434 1759 690 2068 
Q 947 2378 1403 2484 
z
M 1172 3481 
Q 1172 3119 1398 2916 
Q 1625 2713 2034 2713 
Q 2441 2713 2670 2916 
Q 2900 3119 2900 3481 
Q 2900 3844 2670 4047 
Q 2441 4250 2034 4250 
Q 1625 4250 1398 4047 
Q 1172 3844 1172 3481 
z
" transform="scale(0.015625)"/>
       </defs>
       <use xlink:href="#DejaVuSans-38"/>
       <use xlink:href="#DejaVuSans-30" x="63.623047"/>
      </g>
     </g>
    </g>
    <g id="text_15">
     <!-- energy in a.u. -->
     <g transform="translate(30.0474 229.4975) rotate(-90) scale(0.1728 -0.1728)">
      <defs>
       <path id="DejaVuSans-72" d="M 2631 2963 
Q 2534 3019 2420 3045 
Q 2306 3072 2169 3072 
Q 1681 3072 1420 2755 
Q 1159 2438 1159 1844 
L 1159 0 
L 581 0 
L 581 3500 
L 1159 3500 
L 1159 2956 
Q 1341 3275 1631 3429 
Q 1922 3584 2338 3584 
Q 2397 3584 2469 3576 
Q 2541 3569 2628 3553 
L 2631 2963 
z
" transform="scale(0.015625)"/>
       <path id="DejaVuSans-67" d="M 2906 1791 
Q 2906 2416 2648 2759 
Q 2391 3103 1925 3103 
Q 1463 3103 1205 2759 
Q 947 2416 947 1791 
Q 947 1169 1205 825 
Q 1463 481 1925 481 
Q 2391 481 2648 825 
Q 2906 1169 2906 1791 
z
M 3481 434 
Q 3481 -459 3084 -895 
Q 2688 -1331 1869 -1331 
Q 1566 -1331 1297 -1286 
Q 1028 -1241 775 -1147 
L 775 -588 
Q 1028 -725 1275 -790 
Q 1522 -856 1778 -856 
Q 2344 -856 2625 -561 
Q 2906 -266 2906 331 
L 2906 616 
Q 2728 306 2450 153 
Q 2172 0 1784 0 
Q 1141 0 747 490 
Q 353 981 353 1791 
Q 353 2603 747 3093 
Q 1141 3584 1784 3584 
Q 2172 3584 2450 3431 
Q 2728 3278 2906 2969 
L 2906 3500 
L 3481 3500 
L 3481 434 
z
" transform="scale(0.015625)"/>
       <path id="DejaVuSans-79" d="M 2059 -325 
Q 1816 -950 1584 -1140 
Q 1353 -1331 966 -1331 
L 506 -1331 
L 506 -850 
L 844 -850 
Q 1081 -850 1212 -737 
Q 1344 -625 1503 -206 
L 1606 56 
L 191 3500 
L 800 3500 
L 1894 763 
L 2988 3500 
L 3597 3500 
L 2059 -325 
z
" transform="scale(0.015625)"/>
      </defs>
      <use xlink:href="#DejaVuSans-65"/>
      <use xlink:href="#DejaVuSans-6e" x="61.523438"/>
      <use xlink:href="#DejaVuSans-65" x="124.902344"/>
      <use xlink:href="#DejaVuSans-72" x="186.425781"/>
      <use xlink:href="#DejaVuSans-67" x="225.789062"/>
      <use xlink:href="#DejaVuSans-79" x="289.265625"/>
      <use xlink:href="#DejaVuSans-20" x="348.445312"/>
      <use xlink:href="#DejaVuSans-69" x="380.232422"/>
      <use xlink:href="#DejaVuSans-6e" x="408.015625"/>
      <use xlink:href="#DejaVuSans-20" x="471.394531"/>
      <use xlink:href="#DejaVuSans-61" x="503.181641"/>
      <use xlink:href="#DejaVuSans-2e" x="564.460938"/>
      <use xlink:href="#DejaVuSans-75" x="596.248047"/>
      <use xlink:href="#DejaVuSans-2e" x="659.626953"/>
     </g>
    </g>
   </g>
   <g id="line2d_14">
    <path d="M 81.11 285.826667 
L 82.373608 53.693333 
L 83.637216 54.591041 
L 84.900823 56.602772 
L 86.164431 59.786502 
L 87.428039 64.309461 
L 88.691647 70.352542 
L 91.218862 86.02118 
L 92.48247 91.237283 
L 93.746078 94.319847 
L 95.009686 104.135449 
L 96.273293 111.391709 
L 98.800509 124.131417 
L 100.064117 116.340453 
L 101.327725 117.190395 
L 102.591332 133.768756 
L 105.118548 153.712549 
L 106.382156 154.764938 
L 107.645763 159.973358 
L 108.909371 162.602076 
L 110.172979 155.342007 
L 111.436587 143.29448 
L 112.700195 141.451841 
L 113.963802 147.010309 
L 115.22741 151.753674 
L 116.491018 158.942901 
L 117.754626 163.038701 
L 119.018234 158.882358 
L 120.281841 141.507062 
L 121.545449 134.290948 
L 122.809057 144.416891 
L 124.072665 138.790778 
L 125.336272 140.735807 
L 126.59988 152.628693 
L 127.863488 157.321064 
L 129.127096 154.070147 
L 130.390704 153.831966 
L 131.654311 159.214246 
L 132.917919 159.739508 
L 134.181527 158.368763 
L 135.445135 162.93122 
L 136.708743 169.185537 
L 137.97235 172.838062 
L 139.235958 172.608453 
L 141.763174 176.34764 
L 143.026781 175.278512 
L 144.290389 175.455919 
L 145.553997 186.492086 
L 146.817605 181.316603 
L 148.081213 176.707324 
L 149.34482 183.013477 
L 150.608428 184.379286 
L 151.872036 183.79632 
L 153.135644 178.976142 
L 154.399251 184.761032 
L 155.662859 187.403454 
L 156.926467 185.95355 
L 158.190075 184.897445 
L 159.453683 182.638292 
L 160.71729 181.962144 
L 161.980898 178.630096 
L 163.244506 179.346462 
L 164.508114 180.671722 
L 165.771722 177.498953 
L 167.035329 177.217009 
L 168.298937 174.405662 
L 169.562545 169.358793 
L 170.826153 171.949383 
L 172.08976 185.905045 
L 173.353368 183.016273 
L 174.616976 172.644826 
L 177.144192 192.883976 
L 178.407799 188.995774 
L 179.671407 170.359024 
L 180.935015 162.705363 
L 182.198623 177.75744 
L 183.462231 187.208737 
L 184.725838 185.168073 
L 185.989446 180.556709 
L 187.253054 178.811879 
L 188.516662 179.817981 
L 189.780269 176.830943 
L 191.043877 162.264616 
L 192.307485 160.068326 
L 193.571093 175.990021 
L 194.834701 180.267607 
L 196.098308 172.000147 
L 197.361916 171.417811 
L 198.625524 174.493387 
L 199.889132 181.376907 
L 201.15274 178.406912 
L 202.416347 173.327326 
L 203.679955 172.037792 
L 206.207171 176.950984 
L 207.470778 166.538629 
L 208.734386 170.318234 
L 209.997994 181.554368 
L 211.261602 185.916698 
L 212.52521 186.678074 
L 213.788817 183.294813 
L 215.052425 175.294383 
L 216.316033 160.94064 
L 217.579641 170.839557 
L 218.843249 170.994875 
L 220.106856 168.438221 
L 221.370464 177.655671 
L 222.634072 176.230656 
L 223.89768 178.157418 
L 225.161287 177.122747 
L 226.424895 169.069691 
L 227.688503 167.322938 
L 228.952111 178.030424 
L 230.215719 185.87868 
L 231.479326 186.563073 
L 232.742934 181.122534 
L 234.006542 168.730426 
L 235.27015 172.512388 
L 236.533757 183.732356 
L 237.797365 181.799015 
L 239.060973 184.554538 
L 240.324581 182.685992 
L 241.588189 178.76725 
L 242.851796 177.849969 
L 244.115404 172.727887 
L 245.379012 184.372936 
L 246.64262 187.869507 
L 247.906228 187.923121 
L 249.169835 190.346779 
L 250.433443 189.555354 
L 251.697051 175.505203 
L 252.960659 177.055442 
L 254.224266 192.651993 
L 255.487874 197.018127 
L 256.751482 191.495944 
L 258.01509 187.641263 
L 259.278698 187.779196 
L 260.542305 191.155637 
L 261.805913 190.249604 
L 263.069521 186.17366 
L 264.333129 181.106657 
L 265.596737 178.830714 
L 266.860344 185.262646 
L 268.123952 187.391833 
L 269.38756 186.203603 
L 270.651168 197.099536 
L 271.914775 198.420115 
L 273.178383 190.502609 
L 274.441991 187.181755 
L 275.705599 185.534708 
L 276.969207 181.688839 
L 278.232814 186.074821 
L 279.496422 197.874623 
L 280.76003 200.042689 
L 282.023638 201.027986 
L 283.287246 200.889891 
L 284.550853 198.732366 
L 285.814461 200.943027 
L 287.078069 205.057722 
L 288.341677 202.846971 
L 289.605284 199.287938 
L 290.868892 196.993933 
L 292.1325 199.363809 
L 293.396108 201.998513 
L 294.659716 197.144227 
L 295.923323 202.440724 
L 297.186931 209.424637 
L 298.450539 204.668689 
L 299.714147 200.498763 
L 300.977754 203.507564 
L 302.241362 209.887205 
L 303.50497 213.702024 
L 304.768578 210.942956 
L 307.295793 198.783553 
L 308.559401 195.272311 
L 309.823009 190.479365 
L 311.086617 193.518349 
L 312.350225 203.517179 
L 313.613832 199.781922 
L 314.87744 200.283344 
L 316.141048 200.418345 
L 317.404656 193.991431 
L 318.668263 184.969004 
L 319.931871 190.149544 
L 321.195479 201.20029 
L 322.459087 196.974113 
L 323.722695 187.364002 
L 324.986302 201.525652 
L 326.24991 207.905082 
L 327.513518 204.690572 
L 328.777126 202.01771 
L 330.040734 199.935066 
L 331.304341 195.360886 
L 332.567949 195.768456 
L 333.831557 199.747721 
L 335.095165 196.819997 
L 336.358772 185.151121 
L 338.885988 192.537186 
L 340.149596 194.313767 
L 341.413204 185.186876 
L 342.676811 192.23773 
L 343.940419 196.500685 
L 345.204027 199.55602 
L 346.467635 201.125624 
L 347.731243 194.567714 
L 348.99485 194.501329 
L 350.258458 194.255878 
L 351.522066 195.155243 
L 352.785674 187.593723 
L 354.049281 186.972733 
L 355.312889 196.237987 
L 356.576497 199.254365 
L 357.840105 204.199868 
L 359.103713 205.44717 
L 360.36732 197.96835 
L 361.630928 198.489647 
L 362.894536 208.566709 
L 364.158144 203.992974 
L 365.421751 200.537295 
L 366.685359 195.414248 
L 367.948967 200.873088 
L 369.212575 201.477771 
L 370.476183 201.10303 
L 371.73979 205.692262 
L 373.003398 213.462479 
L 374.267006 212.684395 
L 375.530614 200.77521 
L 376.794222 198.518832 
L 378.057829 211.585834 
L 379.321437 204.762597 
L 380.585045 202.476364 
L 381.848653 202.573118 
L 383.11226 203.140959 
L 384.375868 205.665945 
L 386.903084 201.887751 
L 388.166692 198.688038 
L 389.430299 196.810493 
L 390.693907 191.998458 
L 391.957515 186.014765 
L 393.221123 194.815068 
L 394.484731 200.785872 
L 395.748338 204.425202 
L 397.011946 205.511178 
L 398.275554 200.407184 
L 399.539162 199.90937 
L 400.802769 194.820507 
L 402.066377 195.688234 
L 403.329985 202.453761 
L 404.593593 208.401848 
L 405.857201 206.847711 
L 407.120808 207.903032 
L 408.384416 202.845434 
L 409.648024 196.710605 
L 410.911632 193.814517 
L 412.17524 195.450542 
L 413.438847 204.31546 
L 414.702455 209.275333 
L 415.966063 203.493852 
L 417.229671 188.846755 
L 418.493278 185.676603 
L 419.756886 185.744612 
L 421.020494 188.754993 
L 422.284102 195.613502 
L 423.54771 197.062245 
L 424.811317 200.296359 
L 426.074925 200.088508 
L 427.338533 198.81229 
L 428.602141 204.657766 
L 429.865749 213.489229 
L 431.129356 212.3928 
L 432.392964 207.319348 
L 433.656572 211.368244 
L 434.92018 211.650845 
L 436.183787 207.965312 
L 438.711003 218.07739 
L 439.974611 222.178408 
L 441.238219 222.428153 
L 443.765434 213.736954 
L 445.029042 215.896893 
L 446.29265 216.935203 
L 447.556257 218.182998 
L 448.819865 215.375677 
L 450.083473 219.743241 
L 451.347081 211.555742 
L 452.610689 207.389793 
L 453.874296 216.585073 
L 455.137904 221.622639 
L 456.401512 222.538776 
L 457.66512 216.791483 
L 458.928728 212.465626 
L 460.192335 209.704642 
L 462.719551 202.31126 
L 463.983159 201.211333 
L 465.246766 208.351061 
L 466.510374 214.158812 
L 467.773982 212.760819 
L 469.03759 208.369824 
L 470.301198 207.641184 
L 471.564805 209.444957 
L 472.828413 206.445882 
L 474.092021 199.209514 
L 475.355629 207.730682 
L 476.619237 210.880854 
L 477.882844 212.376951 
L 479.146452 206.658866 
L 480.41006 207.957297 
L 481.673668 201.473326 
L 482.937275 202.67994 
L 485.464491 210.696776 
L 486.728099 218.772259 
L 487.991707 218.574162 
L 489.255314 212.230345 
L 490.518922 192.066916 
L 491.78253 186.877556 
L 493.046138 206.291871 
L 494.309746 209.184958 
L 495.573353 209.035686 
L 496.836961 207.485931 
L 498.100569 207.302308 
L 499.364177 205.100531 
L 500.627784 204.776206 
L 501.891392 202.02475 
L 503.155 201.716731 
L 504.418608 200.052621 
L 505.682216 191.641028 
L 506.945823 186.326261 
L 508.209431 190.429182 
L 509.473039 185.232466 
L 510.736647 189.142287 
L 512.000254 193.595579 
L 513.263862 195.85769 
L 514.52747 192.668679 
L 515.791078 186.519538 
L 517.054686 182.208061 
L 518.318293 186.953543 
L 519.581901 193.92279 
L 520.845509 198.642679 
L 522.109117 199.576963 
L 523.372725 194.239003 
L 524.636332 191.191895 
L 525.89994 192.281863 
L 527.163548 185.638512 
L 528.427156 194.94894 
L 529.690763 192.149487 
L 530.954371 192.997153 
L 532.217979 195.87767 
L 533.481587 196.199163 
L 534.745195 187.446956 
L 536.008802 189.037472 
L 537.27241 189.838722 
L 538.536018 191.893507 
L 539.799626 195.680218 
L 541.063234 201.534799 
L 542.326841 202.957628 
L 543.590449 190.848509 
L 544.854057 189.30902 
L 546.117665 193.260954 
L 547.381272 198.431239 
L 548.64488 195.736429 
L 549.908488 188.122581 
L 552.435704 198.621066 
L 553.699311 196.497245 
L 554.962919 198.20363 
L 556.226527 192.990016 
L 557.490135 188.418876 
L 558.753743 201.761742 
L 560.01735 202.353652 
L 561.280958 194.866503 
L 562.544566 185.701431 
L 563.808174 187.661899 
L 566.335389 192.913508 
L 567.598997 196.417334 
L 568.862605 198.033962 
L 570.126213 195.197782 
L 572.653428 204.729797 
L 573.917036 202.795706 
L 575.180644 202.250348 
L 576.444251 202.881609 
L 577.707859 199.048572 
L 578.971467 195.823773 
L 580.235075 204.489315 
L 581.498683 209.511484 
L 582.76229 200.415777 
L 584.025898 185.594575 
L 585.289506 183.388079 
L 586.553114 193.325526 
L 587.816722 202.082077 
L 589.080329 203.127785 
L 590.343937 197.945243 
L 591.607545 194.437346 
L 592.871153 200.180721 
L 594.13476 201.65409 
L 595.398368 193.891684 
L 596.661976 190.202722 
L 597.925584 195.497668 
L 599.189192 207.997141 
L 600.452799 216.198773 
L 601.716407 210.845975 
L 602.980015 212.46127 
L 604.243623 217.072537 
L 605.507231 208.753394 
L 606.770838 202.419098 
L 608.034446 206.508662 
L 610.561662 203.68444 
L 611.825269 210.782797 
L 613.088877 212.895993 
L 614.352485 212.755651 
L 615.616093 217.114318 
L 616.879701 219.968058 
L 618.143308 203.268923 
L 619.406916 199.292811 
L 620.670524 207.76778 
L 621.934132 204.916698 
L 623.19774 209.269138 
L 624.461347 213.07105 
L 625.724955 219.08027 
L 628.252171 202.131689 
L 630.779386 210.556081 
L 632.042994 216.875691 
L 633.306602 212.651092 
L 634.57021 207.742549 
L 635.833817 219.114019 
L 637.097425 212.845036 
L 638.361033 214.150621 
L 639.624641 227.504779 
L 640.888249 223.3572 
L 642.151856 210.513464 
L 643.415464 211.855664 
L 644.679072 218.413491 
L 645.94268 218.654291 
L 647.206287 217.52592 
L 648.469895 218.551278 
L 649.733503 215.848133 
L 650.997111 219.725389 
L 652.260719 222.106643 
L 653.524326 212.477214 
L 654.787934 212.098291 
L 656.051542 210.627358 
L 657.31515 204.583443 
L 658.578757 217.842827 
L 659.842365 219.459575 
L 661.105973 219.872293 
L 662.369581 216.605457 
L 664.896796 228.136546 
L 667.424012 220.636564 
L 668.68762 214.598545 
L 669.951228 204.737482 
L 671.214835 211.026805 
L 672.478443 211.037436 
L 673.742051 210.502292 
L 675.005659 218.685034 
L 676.269266 212.839217 
L 677.532874 206.14426 
L 678.796482 205.840043 
L 680.06009 204.474631 
L 682.587305 213.270819 
L 683.850913 201.347315 
L 685.114521 203.016906 
L 686.378129 216.677429 
L 687.641737 214.318727 
L 688.905344 215.652053 
L 690.168952 215.850351 
L 691.43256 212.113756 
L 692.696168 207.42216 
L 695.223383 195.590049 
L 696.486991 204.836705 
L 697.750599 216.328936 
L 699.014207 217.471678 
L 700.277814 213.408295 
L 701.541422 194.937578 
L 702.80503 194.986194 
L 704.068638 216.409324 
L 705.332246 225.776295 
L 706.595853 217.867362 
L 707.859461 208.842408 
L 709.123069 197.364392 
L 710.386677 205.592267 
L 711.650284 216.528953 
L 712.913892 214.566781 
L 714.1775 217.378956 
L 715.441108 221.037329 
L 716.704716 216.434719 
L 717.968323 204.996944 
L 719.231931 191.908794 
L 720.495539 187.465785 
L 721.759147 196.425928 
L 723.022754 201.88535 
L 724.286362 205.838215 
L 725.54997 209.008024 
L 726.813578 205.734198 
L 728.077186 195.979979 
L 729.340793 184.703589 
L 730.604401 186.088843 
L 731.868009 198.707942 
L 733.131617 203.61158 
L 734.395225 199.187842 
L 735.658832 198.777982 
L 736.92244 200.620199 
L 738.186048 204.460699 
L 739.449656 201.952847 
L 740.713263 198.142539 
L 741.976871 191.255698 
L 743.240479 190.187082 
L 744.504087 190.501629 
L 745.767695 196.205695 
L 747.031302 198.31653 
L 748.29491 202.660534 
L 749.558518 206.141415 
L 750.822126 202.303037 
L 752.085734 196.031163 
L 753.349341 202.258018 
L 754.612949 207.632619 
L 755.876557 214.805541 
L 757.140165 218.579712 
L 758.403772 220.249845 
L 759.66738 223.70069 
L 760.930988 214.074456 
L 762.194596 191.482107 
L 764.721811 197.738035 
L 767.249027 217.790229 
L 768.512635 210.701062 
L 769.776243 208.414141 
L 771.03985 212.725701 
L 772.303458 208.693088 
L 773.567066 213.797758 
L 774.830674 215.199876 
L 776.094281 214.510489 
L 777.357889 212.238814 
L 778.621497 210.913127 
L 779.885105 211.225315 
L 781.148713 214.288172 
L 782.41232 215.090754 
L 783.675928 209.434707 
L 784.939536 202.081172 
L 786.203144 204.796028 
L 787.466751 203.532245 
L 788.730359 204.185379 
L 789.993967 205.981412 
L 791.257575 213.572594 
L 792.521183 213.015423 
L 793.78479 211.675128 
L 795.048398 210.008585 
L 796.312006 208.803483 
L 798.839222 202.868566 
L 800.102829 201.177705 
L 801.366437 204.886682 
L 802.630045 213.47434 
L 803.893653 218.358306 
L 806.420868 213.273742 
L 807.684476 219.173846 
L 808.948084 220.986791 
L 810.211692 211.399213 
L 811.475299 205.9913 
L 812.738907 204.884002 
L 814.002515 209.351852 
L 815.266123 207.643014 
L 816.529731 206.970129 
L 819.056946 230.396449 
L 820.320554 229.642287 
L 821.584162 231.330742 
L 822.847769 215.296881 
L 824.111377 192.977682 
L 825.374985 198.06094 
L 827.902201 206.857381 
L 829.165808 221.953114 
L 830.429416 207.524096 
L 831.693024 208.320926 
L 832.956632 213.93752 
L 834.22024 216.861869 
L 835.483847 214.975171 
L 836.747455 204.220047 
L 838.011063 210.324615 
L 839.274671 213.62959 
L 840.538278 209.582947 
L 841.801886 215.800651 
L 843.065494 212.257007 
L 844.329102 206.323339 
L 845.59271 195.133071 
L 846.856317 197.683289 
L 849.383533 215.566593 
L 850.647141 204.211362 
L 851.910749 203.451304 
L 853.174356 215.33062 
L 854.437964 209.451206 
L 855.701572 193.178229 
L 858.228787 217.610958 
L 859.492395 208.943608 
L 860.756003 207.89296 
L 862.019611 205.151211 
L 863.283219 194.840431 
L 864.546826 195.473441 
L 865.810434 198.373526 
L 867.074042 193.793066 
L 868.33765 186.28032 
L 870.864865 205.486173 
L 872.128473 210.496049 
L 873.392081 203.576463 
L 874.655689 194.840972 
L 875.919296 192.69687 
L 877.182904 191.242966 
L 878.446512 199.197997 
L 879.71012 198.737974 
L 880.973728 185.684832 
L 882.237335 194.591981 
L 883.500943 188.709131 
L 884.764551 205.298921 
L 886.028159 205.010603 
L 887.291766 203.292237 
L 888.555374 213.244836 
L 889.818982 212.656039 
L 891.08259 200.866337 
L 892.346198 201.764515 
L 893.609805 205.007604 
L 894.873413 206.45301 
L 896.137021 206.944847 
L 898.664237 198.294223 
L 899.927844 207.832132 
L 901.191452 218.516234 
L 902.45506 217.521449 
L 903.718668 213.035327 
L 907.509491 192.569997 
L 908.773099 196.411179 
L 910.036707 205.328528 
L 911.300314 206.49283 
L 912.563922 198.644477 
L 913.82753 196.747715 
L 915.091138 207.959838 
L 916.354746 205.003563 
L 917.618353 196.165118 
L 918.881961 204.13667 
L 920.145569 208.729471 
L 921.409177 206.671975 
L 922.672784 213.879711 
L 923.936392 218.948123 
L 923.936392 218.948123 
" clip-path="url(#pe5684f2978)" style="fill: none; stroke: #1f77b4; stroke-width: 1.5; stroke-linecap: square"/>
   </g>
   <g id="line2d_15">
    <path d="M 398.275554 309.04 
L 398.275554 30.48 
" clip-path="url(#pe5684f2978)" style="fill: none; stroke-dasharray: 5.55,2.4; stroke-dashoffset: 0; stroke: #808080; stroke-width: 1.5"/>
   </g>
   <g id="line2d_16">
    <path d="M 81.11 205.411322 
L 925.2 205.411322 
" clip-path="url(#pe5684f2978)" style="fill: none; stroke: #ff0000; stroke-opacity: 0.3; stroke-width: 1.5; stroke-linecap: square"/>
   </g>
   <g id="patch_4">
    <path d="M 81.11 309.04 
L 81.11 30.48 
" style="fill: none; stroke: #000000; stroke-width: 0.8; stroke-linejoin: miter; stroke-linecap: square"/>
   </g>
   <g id="patch_5">
    <path d="M 925.2 309.04 
L 925.2 30.48 
" style="fill: none; stroke: #000000; stroke-width: 0.8; stroke-linejoin: miter; stroke-linecap: square"/>
   </g>
   <g id="patch_6">
    <path d="M 81.11 309.04 
L 925.2 309.04 
" style="fill: none; stroke: #000000; stroke-width: 0.8; stroke-linejoin: miter; stroke-linecap: square"/>
   </g>
   <g id="patch_7">
    <path d="M 81.11 30.48 
L 925.2 30.48 
" style="fill: none; stroke: #000000; stroke-width: 0.8; stroke-linejoin: miter; stroke-linecap: square"/>
   </g>
   <g id="text_16">
    <!-- Energy -->
    <g transform="translate(472.9042 24.48) scale(0.1728 -0.1728)">
     <defs>
      <path id="DejaVuSans-45" d="M 628 4666 
L 3578 4666 
L 3578 4134 
L 1259 4134 
L 1259 2753 
L 3481 2753 
L 3481 2222 
L 1259 2222 
L 1259 531 
L 3634 531 
L 3634 0 
L 628 0 
L 628 4666 
z
" transform="scale(0.015625)"/>
     </defs>
     <use xlink:href="#DejaVuSans-45"/>
     <use xlink:href="#DejaVuSans-6e" x="63.183594"/>
     <use xlink:href="#DejaVuSans-65" x="126.5625"/>
     <use xlink:href="#DejaVuSans-72" x="188.085938"/>
     <use xlink:href="#DejaVuSans-67" x="227.449219"/>
     <use xlink:href="#DejaVuSans-79" x="290.925781"/>
    </g>
   </g>
  </g>
  <g id="axes_2">
   <g id="patch_8">
    <path d="M 81.11 663.64 
L 469.845 663.64 
L 469.845 385.08 
L 81.11 385.08 
z
" style="fill: #ffffff"/>
   </g>
   <g id="patch_9">
    <path d="M 81.11 663.64 
L 81.11 385.08 
L 227.176594 385.08 
L 227.176594 663.64 
z
" clip-path="url(#pb1669e6f9e)" style="fill: #808080; opacity: 0.15"/>
   </g>
   <g id="matplotlib.axis_3">
    <g id="xtick_8">
     <g id="line2d_17">
      <g>
       <use xlink:href="#m9d0af9ebd9" x="81.11" y="663.64" style="stroke: #000000; stroke-width: 0.8"/>
      </g>
     </g>
     <g id="text_17">
      <!-- 0 -->
      <g transform="translate(75.6128 683.7701) scale(0.1728 -0.1728)">
       <use xlink:href="#DejaVuSans-30"/>
      </g>
     </g>
    </g>
    <g id="xtick_9">
     <g id="line2d_18">
      <g>
       <use xlink:href="#m9d0af9ebd9" x="139.303862" y="663.64" style="stroke: #000000; stroke-width: 0.8"/>
      </g>
     </g>
     <g id="text_18">
      <!-- 1 -->
      <g transform="translate(133.806662 683.7701) scale(0.1728 -0.1728)">
       <use xlink:href="#DejaVuSans-31"/>
      </g>
     </g>
    </g>
    <g id="xtick_10">
     <g id="line2d_19">
      <g>
       <use xlink:href="#m9d0af9ebd9" x="197.497725" y="663.64" style="stroke: #000000; stroke-width: 0.8"/>
      </g>
     </g>
     <g id="text_19">
      <!-- 2 -->
      <g transform="translate(192.000525 683.7701) scale(0.1728 -0.1728)">
       <use xlink:href="#DejaVuSans-32"/>
      </g>
     </g>
    </g>
    <g id="xtick_11">
     <g id="line2d_20">
      <g>
       <use xlink:href="#m9d0af9ebd9" x="255.691587" y="663.64" style="stroke: #000000; stroke-width: 0.8"/>
      </g>
     </g>
     <g id="text_20">
      <!-- 3 -->
      <g transform="translate(250.194387 683.7701) scale(0.1728 -0.1728)">
       <use xlink:href="#DejaVuSans-33"/>
      </g>
     </g>
    </g>
    <g id="xtick_12">
     <g id="line2d_21">
      <g>
       <use xlink:href="#m9d0af9ebd9" x="313.885449" y="663.64" style="stroke: #000000; stroke-width: 0.8"/>
      </g>
     </g>
     <g id="text_21">
      <!-- 4 -->
      <g transform="translate(308.388249 683.7701) scale(0.1728 -0.1728)">
       <use xlink:href="#DejaVuSans-34"/>
      </g>
     </g>
    </g>
    <g id="xtick_13">
     <g id="line2d_22">
      <g>
       <use xlink:href="#m9d0af9ebd9" x="372.079311" y="663.64" style="stroke: #000000; stroke-width: 0.8"/>
      </g>
     </g>
     <g id="text_22">
      <!-- 5 -->
      <g transform="translate(366.582111 683.7701) scale(0.1728 -0.1728)">
       <use xlink:href="#DejaVuSans-35"/>
      </g>
     </g>
    </g>
    <g id="xtick_14">
     <g id="line2d_23">
      <g>
       <use xlink:href="#m9d0af9ebd9" x="430.273174" y="663.64" style="stroke: #000000; stroke-width: 0.8"/>
      </g>
     </g>
     <g id="text_23">
      <!-- 6 -->
      <g transform="translate(424.775974 683.7701) scale(0.1728 -0.1728)">
       <use xlink:href="#DejaVuSans-36"/>
      </g>
     </g>
    </g>
    <g id="text_24">
     <!-- time in a.u. -->
     <g transform="translate(226.32805 704.4939) scale(0.1728 -0.1728)">
      <use xlink:href="#DejaVuSans-74"/>
      <use xlink:href="#DejaVuSans-69" x="39.208984"/>
      <use xlink:href="#DejaVuSans-6d" x="66.992188"/>
      <use xlink:href="#DejaVuSans-65" x="164.404297"/>
      <use xlink:href="#DejaVuSans-20" x="225.927734"/>
      <use xlink:href="#DejaVuSans-69" x="257.714844"/>
      <use xlink:href="#DejaVuSans-6e" x="285.498047"/>
      <use xlink:href="#DejaVuSans-20" x="348.876953"/>
      <use xlink:href="#DejaVuSans-61" x="380.664062"/>
      <use xlink:href="#DejaVuSans-2e" x="441.943359"/>
      <use xlink:href="#DejaVuSans-75" x="473.730469"/>
      <use xlink:href="#DejaVuSans-2e" x="537.109375"/>
     </g>
    </g>
   </g>
   <g id="matplotlib.axis_4">
    <g id="ytick_7">
     <g id="line2d_24">
      <g>
       <use xlink:href="#m55b19e05f1" x="81.11" y="635.998354" style="stroke: #000000; stroke-width: 0.8"/>
      </g>
     </g>
     <g id="text_25">
      <!-- −0.2 -->
      <g transform="translate(32.1493 642.563404) scale(0.1728 -0.1728)">
       <use xlink:href="#DejaVuSans-2212"/>
       <use xlink:href="#DejaVuSans-30" x="83.789062"/>
       <use xlink:href="#DejaVuSans-2e" x="147.412109"/>
       <use xlink:href="#DejaVuSans-32" x="179.199219"/>
      </g>
     </g>
    </g>
    <g id="ytick_8">
     <g id="line2d_25">
      <g>
       <use xlink:href="#m55b19e05f1" x="81.11" y="567.452464" style="stroke: #000000; stroke-width: 0.8"/>
      </g>
     </g>
     <g id="text_26">
      <!-- 0.0 -->
      <g transform="translate(46.6294 574.017514) scale(0.1728 -0.1728)">
       <use xlink:href="#DejaVuSans-30"/>
       <use xlink:href="#DejaVuSans-2e" x="63.623047"/>
       <use xlink:href="#DejaVuSans-30" x="95.410156"/>
      </g>
     </g>
    </g>
    <g id="ytick_9">
     <g id="line2d_26">
      <g>
       <use xlink:href="#m55b19e05f1" x="81.11" y="498.906573" style="stroke: #000000; stroke-width: 0.8"/>
      </g>
     </g>
     <g id="text_27">
      <!-- 0.2 -->
      <g transform="translate(46.6294 505.471623) scale(0.1728 -0.1728)">
       <use xlink:href="#DejaVuSans-30"/>
       <use xlink:href="#DejaVuSans-2e" x="63.623047"/>
       <use xlink:href="#DejaVuSans-32" x="95.410156"/>
      </g>
     </g>
    </g>
    <g id="ytick_10">
     <g id="line2d_27">
      <g>
       <use xlink:href="#m55b19e05f1" x="81.11" y="430.360683" style="stroke: #000000; stroke-width: 0.8"/>
      </g>
     </g>
     <g id="text_28">
      <!-- 0.4 -->
      <g transform="translate(46.6294 436.925733) scale(0.1728 -0.1728)">
       <use xlink:href="#DejaVuSans-30"/>
       <use xlink:href="#DejaVuSans-2e" x="63.623047"/>
       <use xlink:href="#DejaVuSans-34" x="95.410156"/>
      </g>
     </g>
    </g>
    <g id="text_29">
     <!-- pressure in a.u. -->
     <g transform="translate(24.5556 591.29975) rotate(-90) scale(0.1728 -0.1728)">
      <defs>
       <path id="DejaVuSans-70" d="M 1159 525 
L 1159 -1331 
L 581 -1331 
L 581 3500 
L 1159 3500 
L 1159 2969 
Q 1341 3281 1617 3432 
Q 1894 3584 2278 3584 
Q 2916 3584 3314 3078 
Q 3713 2572 3713 1747 
Q 3713 922 3314 415 
Q 2916 -91 2278 -91 
Q 1894 -91 1617 61 
Q 1341 213 1159 525 
z
M 3116 1747 
Q 3116 2381 2855 2742 
Q 2594 3103 2138 3103 
Q 1681 3103 1420 2742 
Q 1159 2381 1159 1747 
Q 1159 1113 1420 752 
Q 1681 391 2138 391 
Q 2594 391 2855 752 
Q 3116 1113 3116 1747 
z
" transform="scale(0.015625)"/>
       <path id="DejaVuSans-73" d="M 2834 3397 
L 2834 2853 
Q 2591 2978 2328 3040 
Q 2066 3103 1784 3103 
Q 1356 3103 1142 2972 
Q 928 2841 928 2578 
Q 928 2378 1081 2264 
Q 1234 2150 1697 2047 
L 1894 2003 
Q 2506 1872 2764 1633 
Q 3022 1394 3022 966 
Q 3022 478 2636 193 
Q 2250 -91 1575 -91 
Q 1294 -91 989 -36 
Q 684 19 347 128 
L 347 722 
Q 666 556 975 473 
Q 1284 391 1588 391 
Q 1994 391 2212 530 
Q 2431 669 2431 922 
Q 2431 1156 2273 1281 
Q 2116 1406 1581 1522 
L 1381 1569 
Q 847 1681 609 1914 
Q 372 2147 372 2553 
Q 372 3047 722 3315 
Q 1072 3584 1716 3584 
Q 2034 3584 2315 3537 
Q 2597 3491 2834 3397 
z
" transform="scale(0.015625)"/>
      </defs>
      <use xlink:href="#DejaVuSans-70"/>
      <use xlink:href="#DejaVuSans-72" x="63.476562"/>
      <use xlink:href="#DejaVuSans-65" x="102.339844"/>
      <use xlink:href="#DejaVuSans-73" x="163.863281"/>
      <use xlink:href="#DejaVuSans-73" x="215.962891"/>
      <use xlink:href="#DejaVuSans-75" x="268.0625"/>
      <use xlink:href="#DejaVuSans-72" x="331.441406"/>
      <use xlink:href="#DejaVuSans-65" x="370.304688"/>
      <use xlink:href="#DejaVuSans-20" x="431.828125"/>
      <use xlink:href="#DejaVuSans-69" x="463.615234"/>
      <use xlink:href="#DejaVuSans-6e" x="491.398438"/>
      <use xlink:href="#DejaVuSans-20" x="554.777344"/>
      <use xlink:href="#DejaVuSans-61" x="586.564453"/>
      <use xlink:href="#DejaVuSans-2e" x="647.84375"/>
      <use xlink:href="#DejaVuSans-75" x="679.630859"/>
      <use xlink:href="#DejaVuSans-2e" x="743.009766"/>
     </g>
    </g>
   </g>
   <g id="line2d_28">
    <path d="M 81.11 640.426667 
L 81.691939 594.87059 
L 82.273877 597.563991 
L 82.855816 600.953529 
L 84.019693 610.470398 
L 84.601632 615.17897 
L 85.18357 615.257861 
L 85.765509 600.327127 
L 86.347448 573.288111 
L 86.929386 564.65047 
L 87.511325 548.550994 
L 88.675202 501.562067 
L 89.257141 439.663671 
L 89.839079 413.142451 
L 91.002957 485.279705 
L 91.584895 517.206023 
L 92.166834 521.010225 
L 92.748772 533.068721 
L 93.330711 534.716143 
L 93.91265 502.035651 
L 94.494588 452.827473 
L 95.076527 440.902423 
L 95.658466 462.622077 
L 96.240404 489.310711 
L 96.822343 525.337283 
L 97.404281 547.051107 
L 97.98622 533.537809 
L 98.568159 472.437362 
L 99.150097 443.325618 
L 99.732036 479.856158 
L 100.313975 478.44387 
L 100.895913 500.612008 
L 101.477852 556.128476 
L 102.05979 585.989465 
L 103.223668 576.131439 
L 103.805606 583.882532 
L 104.387545 572.455749 
L 104.969484 549.162936 
L 105.551422 541.671611 
L 106.133361 540.055387 
L 106.715299 528.950604 
L 107.297238 502.422536 
L 109.043054 441.920313 
L 109.624993 428.484713 
L 110.206931 454.37126 
L 111.370808 420.786969 
L 111.952747 445.075593 
L 112.534686 461.65 
L 113.116624 474.440247 
L 113.698563 472.839545 
L 114.280501 501.726287 
L 114.86244 520.128828 
L 115.444379 520.056635 
L 116.026317 516.090455 
L 116.608256 504.986497 
L 117.190195 497.673186 
L 117.772133 483.284513 
L 118.354072 481.042205 
L 118.93601 482.120336 
L 119.517949 469.272238 
L 120.099888 464.301807 
L 120.681826 453.901044 
L 121.263765 438.935987 
L 121.845704 447.86768 
L 122.427642 493.281598 
L 123.009581 486.981682 
L 123.591519 451.799241 
L 124.755397 516.483693 
L 125.337335 503.919008 
L 125.919274 440.663123 
L 126.501213 412.001039 
L 127.66509 508.357871 
L 128.247028 510.380715 
L 128.828967 496.282487 
L 129.410906 489.353444 
L 129.992844 492.358472 
L 130.574783 486.478444 
L 131.156722 445.50509 
L 131.73866 441.267261 
L 132.320599 497.059498 
L 132.902537 517.676096 
L 133.484476 493.13271 
L 134.066415 490.122227 
L 134.648353 502.936601 
L 135.230292 529.769825 
L 135.812231 526.967297 
L 136.394169 515.474997 
L 136.976108 516.095084 
L 138.139985 545.947127 
L 138.721924 524.03684 
L 139.303862 546.260522 
L 139.885801 593.541958 
L 140.46774 615.246414 
L 141.049678 613.983903 
L 141.631617 588.653445 
L 142.213555 543.156056 
L 142.795494 476.415756 
L 143.377433 490.4416 
L 143.959371 488.628175 
L 144.54131 478.409059 
L 145.123249 505.362842 
L 145.705187 502.913709 
L 146.287126 507.924236 
L 146.869064 505.338711 
L 147.451003 482.936178 
L 148.032942 481.876318 
L 149.196819 559.031484 
L 149.778757 564.464306 
L 150.360696 541.9821 
L 150.942635 491.524671 
L 151.524573 488.670722 
L 152.106512 516.982157 
L 152.688451 507.517163 
L 153.270389 509.387877 
L 153.852328 497.874107 
L 154.434266 477.858518 
L 155.016205 468.624631 
L 155.598144 449.893915 
L 156.180082 485.919029 
L 156.762021 502.303807 
L 157.34396 505.127998 
L 157.925898 513.952535 
L 158.507837 516.105439 
L 159.089775 478.530494 
L 159.671714 487.953673 
L 160.253653 546.896548 
L 160.835591 571.134916 
L 161.999469 544.015373 
L 162.581407 545.07549 
L 163.163346 558.987027 
L 163.745284 559.48082 
L 164.327223 548.101043 
L 164.909162 533.664552 
L 165.4911 529.498294 
L 166.073039 553.111431 
L 166.654978 563.655845 
L 167.236916 558.725233 
L 167.818855 585.289423 
L 168.400793 577.903585 
L 168.982732 533.421397 
L 169.564671 500.499573 
L 170.728548 458.725406 
L 171.310487 474.668424 
L 171.892425 523.003466 
L 172.474364 543.403768 
L 173.056302 553.68661 
L 173.638241 555.250437 
L 174.22018 546.021131 
L 174.802118 546.300081 
L 175.384057 549.928607 
L 175.965996 530.894306 
L 176.547934 505.678742 
L 177.129873 487.076247 
L 177.711811 487.412516 
L 178.29375 493.602821 
L 178.875689 478.569386 
L 179.457627 494.710784 
L 180.039566 519.286421 
L 181.203443 498.67014 
L 181.785382 513.613769 
L 182.36732 541.056726 
L 182.949259 558.769884 
L 183.531198 552.670994 
L 184.695075 513.627491 
L 185.858952 497.56823 
L 186.440891 513.520711 
L 187.022829 549.55713 
L 187.604768 539.511668 
L 188.186707 535.2874 
L 188.768645 528.635683 
L 189.350584 501.072628 
L 189.932522 465.955666 
L 190.514461 478.754328 
L 191.0964 515.217883 
L 191.678338 507.198932 
L 192.260277 480.328761 
L 192.842216 532.460162 
L 193.424154 565.501486 
L 194.006093 561.288676 
L 195.16997 540.894156 
L 195.751909 524.501933 
L 196.333847 524.565771 
L 196.915786 536.275105 
L 197.497725 527.837145 
L 198.079663 491.54404 
L 198.661602 505.122721 
L 199.825479 539.259719 
L 200.407418 521.372585 
L 200.989356 552.676119 
L 201.571295 575.867111 
L 202.153234 588.520138 
L 202.735172 590.481586 
L 203.317111 562.679339 
L 204.480988 539.7643 
L 205.062927 532.608918 
L 205.644865 503.527516 
L 206.226804 499.129505 
L 206.808743 532.537391 
L 207.97262 571.74029 
L 208.554558 578.031818 
L 209.136497 554.397154 
L 209.718436 551.383739 
L 210.300374 577.934033 
L 210.882313 555.617698 
L 211.464251 528.321048 
L 212.04619 493.211085 
L 212.628129 492.345725 
L 213.792006 473.646086 
L 214.373945 484.464367 
L 214.955883 509.886883 
L 215.537822 510.774245 
L 216.11976 477.050471 
L 216.701699 473.001131 
L 217.283638 522.260953 
L 217.865576 515.285534 
L 218.447515 519.716069 
L 219.029454 533.604675 
L 219.611392 550.897747 
L 220.193331 572.248645 
L 220.775269 576.024602 
L 221.357208 573.714468 
L 221.939147 561.138821 
L 222.521085 545.486586 
L 223.684963 485.631011 
L 224.84884 528.663655 
L 225.430778 540.769685 
L 226.012717 540.62367 
L 226.594656 516.56101 
L 227.176594 502.891642 
L 227.758533 475.907057 
L 228.340472 471.765139 
L 228.92241 496.950982 
L 229.504349 529.12533 
L 230.086287 538.750293 
L 230.668226 551.784832 
L 231.250165 540.967245 
L 231.832103 520.311034 
L 232.414042 510.793907 
L 232.995981 519.840291 
L 233.577919 553.520168 
L 234.159858 571.675007 
L 234.741796 548.068752 
L 235.323735 489.823033 
L 235.905674 468.65087 
L 236.487612 469.634505 
L 237.069551 485.789904 
L 237.65149 514.510542 
L 238.815367 534.378821 
L 239.397305 530.30468 
L 239.979244 519.13366 
L 240.561183 529.092541 
L 241.143121 550.211905 
L 241.72506 539.629071 
L 242.306999 511.66467 
L 242.888937 510.708698 
L 243.470876 501.015819 
L 244.052814 479.561243 
L 244.634753 489.065618 
L 245.79863 516.802397 
L 246.380569 516.699114 
L 247.544446 482.414528 
L 248.126385 485.143572 
L 248.708323 486.586688 
L 249.290262 490.117308 
L 249.872201 480.994444 
L 250.454139 496.64821 
L 251.036078 481.635884 
L 251.618016 482.177341 
L 252.199955 527.756352 
L 252.781894 560.970635 
L 253.363832 573.666488 
L 253.945771 558.438249 
L 255.109648 523.688314 
L 256.273525 490.382823 
L 256.855464 488.24368 
L 258.019341 539.027673 
L 258.60128 536.782657 
L 259.183219 519.728183 
L 259.765157 512.327056 
L 260.347096 514.418859 
L 260.929034 503.515095 
L 261.510973 479.717059 
L 262.092912 508.795144 
L 262.67485 527.448118 
L 263.256789 538.873001 
L 263.838728 524.623223 
L 264.420666 529.235821 
L 265.002605 510.545615 
L 265.584543 515.256319 
L 266.748421 551.6242 
L 267.330359 575.166036 
L 267.912298 563.078102 
L 268.494237 522.746718 
L 269.076175 440.266423 
L 269.658114 411.485978 
L 270.240052 477.871029 
L 270.821991 506.918728 
L 271.40393 522.420885 
L 272.567807 538.439106 
L 273.149746 538.829717 
L 273.731684 542.087251 
L 274.313623 537.095191 
L 274.895561 538.908876 
L 275.4775 535.675198 
L 276.059439 513.765046 
L 276.641377 500.485322 
L 277.223316 519.169286 
L 277.805254 510.826327 
L 279.55107 558.121463 
L 280.133009 550.770482 
L 280.714948 534.367861 
L 281.296886 527.134375 
L 281.878825 553.373585 
L 282.460763 589.454289 
L 283.042702 613.669439 
L 283.624641 616.671443 
L 284.788518 562.310233 
L 285.370457 544.620207 
L 285.952395 506.282791 
L 286.534334 521.663297 
L 287.116272 505.883995 
L 287.698211 497.931286 
L 288.28015 495.238906 
L 288.862088 489.810331 
L 289.444027 461.810291 
L 290.025966 470.579696 
L 290.607904 485.316351 
L 291.189843 506.962225 
L 292.35372 569.63264 
L 292.935659 586.342817 
L 293.517597 554.97314 
L 294.099536 551.173126 
L 295.263413 578.041774 
L 295.845352 561.958401 
L 296.42729 526.002014 
L 297.009229 532.455476 
L 297.591168 545.769967 
L 298.173106 536.509991 
L 298.755045 535.252931 
L 299.918922 493.140552 
L 300.500861 531.331463 
L 301.082799 534.080984 
L 301.664738 506.31207 
L 302.246677 471.504601 
L 302.828615 473.859939 
L 303.992493 496.559069 
L 304.574431 508.603987 
L 305.15637 512.06488 
L 305.738308 499.650798 
L 306.320247 510.522778 
L 306.902186 524.710571 
L 307.484124 518.055792 
L 308.066063 515.242688 
L 308.648001 519.210358 
L 309.22994 513.81 
L 309.811879 512.957336 
L 310.393817 553.443954 
L 310.975756 584.425917 
L 311.557695 565.075499 
L 312.139633 521.963939 
L 312.721572 519.016597 
L 313.885449 593.858183 
L 314.467388 598.211276 
L 315.631265 551.980396 
L 316.213204 554.777136 
L 316.795142 543.477865 
L 317.377081 501.143857 
L 317.959019 473.685897 
L 318.540958 484.204837 
L 319.122897 526.453397 
L 319.704835 556.016295 
L 320.286774 538.92933 
L 320.868713 539.930655 
L 321.450651 551.743971 
L 322.614528 499.698936 
L 323.196467 512.30645 
L 323.778406 511.951337 
L 324.360344 507.510677 
L 324.942283 525.4818 
L 325.524222 526.777069 
L 326.10616 515.667998 
L 326.688099 513.613508 
L 327.270037 505.998876 
L 327.851976 437.460643 
L 328.433915 408.293333 
L 329.015853 431.410433 
L 329.597792 429.474057 
L 331.343608 488.97279 
L 332.507485 434.184957 
L 333.671362 454.665162 
L 334.253301 471.391354 
L 335.417178 443.572129 
L 335.999117 482.479069 
L 336.581055 473.014384 
L 337.162994 485.079249 
L 337.744933 537.438194 
L 338.326871 536.931742 
L 338.90881 501.511922 
L 339.490749 507.976803 
L 340.072687 533.724639 
L 340.654626 538.618998 
L 341.236564 533.897587 
L 341.818503 534.585644 
L 342.400442 523.989398 
L 342.98238 530.770812 
L 343.564319 530.953523 
L 344.146257 490.378051 
L 344.728196 476.096549 
L 345.310135 466.323484 
L 345.892073 448.281847 
L 346.474012 496.458431 
L 347.055951 515.228914 
L 347.637889 528.843364 
L 348.219828 532.407829 
L 349.383705 590.73476 
L 349.965644 581.376615 
L 350.547582 562.663523 
L 351.129521 531.541728 
L 351.71146 487.175949 
L 352.293398 500.532975 
L 352.875337 507.113836 
L 353.457275 511.832368 
L 354.039214 541.573439 
L 354.621153 527.287433 
L 355.203091 503.913791 
L 356.366969 495.716401 
L 357.530846 526.561165 
L 358.112784 490.228667 
L 358.694723 494.352882 
L 359.276662 543.159162 
L 359.8586 544.799804 
L 360.440539 551.220209 
L 361.022478 550.939772 
L 361.604416 533.016564 
L 362.768293 476.145342 
L 363.350232 448.02902 
L 363.932171 475.817629 
L 364.514109 519.267576 
L 365.096048 527.454527 
L 365.677987 511.562857 
L 366.259925 450.201367 
L 366.841864 449.901253 
L 367.423802 528.362339 
L 368.005741 574.702959 
L 368.58768 559.127661 
L 369.169618 532.135112 
L 369.751557 498.147156 
L 370.333496 529.62804 
L 370.915434 577.28417 
L 371.497373 583.005432 
L 372.079311 595.195058 
L 372.66125 603.785783 
L 373.243189 578.977364 
L 374.407066 473.60699 
L 374.989004 453.332561 
L 376.152882 513.198316 
L 376.73482 535.062008 
L 377.316759 552.444109 
L 377.898698 545.821022 
L 379.062575 479.662538 
L 379.644513 487.660904 
L 380.226452 536.5627 
L 380.808391 563.328929 
L 381.390329 554.886375 
L 381.972268 554.6051 
L 382.554207 559.653122 
L 383.136145 567.830025 
L 383.718084 553.139959 
L 384.300022 530.417764 
L 384.881961 498.243675 
L 385.4639 488.181965 
L 386.045838 488.527883 
L 386.627777 510.851321 
L 387.209716 524.183663 
L 387.791654 541.912658 
L 388.373593 554.623507 
L 388.955531 543.309211 
L 389.53747 522.708583 
L 390.701347 566.053869 
L 391.283286 592.213731 
L 391.865225 602.767842 
L 392.447163 596.498597 
L 393.029102 584.67737 
L 393.61104 526.364579 
L 394.192979 423.830928 
L 394.774918 410.154802 
L 395.356856 419.468954 
L 396.520734 509.698974 
L 397.102672 503.751224 
L 397.684611 507.372159 
L 398.266549 533.243803 
L 398.848488 532.780015 
L 399.430427 556.408217 
L 400.012365 567.480503 
L 400.594304 566.879842 
L 401.758181 550.202811 
L 402.34012 547.656682 
L 402.922058 553.690506 
L 403.503997 552.671595 
L 404.085936 531.361837 
L 404.667874 505.537239 
L 405.249813 516.284795 
L 405.831751 520.925757 
L 406.995629 542.794873 
L 407.577567 569.839874 
L 408.159506 568.901916 
L 408.741445 560.950244 
L 409.905322 540.085544 
L 411.069199 507.063353 
L 411.651138 495.904382 
L 412.233076 505.807292 
L 412.815015 536.176117 
L 413.396954 556.075334 
L 413.978892 548.633337 
L 414.560831 536.711584 
L 415.142769 547.092488 
L 415.724708 542.265497 
L 416.306647 496.793784 
L 416.888585 461.617413 
L 417.470524 445.328128 
L 418.052463 452.947795 
L 418.634401 448.029944 
L 419.21634 453.45802 
L 420.380217 561.05444 
L 420.962156 568.345736 
L 421.544094 566.6271 
L 422.126033 501.874741 
L 422.707972 413.073559 
L 423.28991 413.706766 
L 423.871849 431.303555 
L 424.453787 452.401287 
L 425.035726 507.837743 
L 425.617665 472.944883 
L 426.199603 476.398791 
L 426.781542 495.471317 
L 427.363481 503.56451 
L 427.945419 496.516305 
L 428.527358 464.142 
L 429.691235 507.622047 
L 430.273174 500.262649 
L 430.855112 521.414613 
L 431.437051 512.175485 
L 432.01899 492.341989 
L 432.600928 455.531529 
L 433.182867 464.911852 
L 434.346744 540.682596 
L 434.928683 516.344285 
L 435.510621 518.398848 
L 436.09256 559.132246 
L 436.674499 544.887081 
L 437.256437 493.430811 
L 438.420314 579.339925 
L 439.002253 555.331279 
L 439.584192 544.74143 
L 440.16613 528.032499 
L 440.748069 486.470112 
L 441.330007 477.880188 
L 441.911946 480.943492 
L 442.493885 465.797732 
L 443.075823 445.099748 
L 443.657762 484.665981 
L 444.239701 532.157552 
L 444.821639 561.532203 
L 445.403578 546.546831 
L 445.985516 518.35857 
L 446.567455 509.608832 
L 447.149394 505.33303 
L 447.731332 530.03078 
L 448.313271 529.607485 
L 448.89521 482.450766 
L 449.477148 501.554864 
L 450.059087 479.948889 
L 450.641025 526.231951 
L 451.222964 525.875175 
L 451.804903 516.407685 
L 452.386841 544.675902 
L 452.96878 543.492265 
L 453.550719 504.075965 
L 454.132657 501.26716 
L 454.714596 507.557509 
L 455.296534 506.011071 
L 455.878473 499.129153 
L 456.460412 481.464518 
L 457.04235 472.676568 
L 457.624289 518.047468 
L 458.206228 573.753663 
L 458.788166 587.295765 
L 459.370105 578.977896 
L 461.115921 510.701635 
L 461.697859 525.864482 
L 462.279798 560.78646 
L 462.861737 569.939471 
L 463.443675 546.155501 
L 464.025614 537.151581 
L 464.607552 569.78544 
L 465.189491 557.437582 
L 465.77143 517.707146 
L 466.353368 528.187212 
L 466.935307 532.37662 
L 467.517246 515.492584 
L 468.099184 528.910137 
L 468.681123 538.544563 
L 469.263061 525.1755 
L 469.263061 525.1755 
" clip-path="url(#pb1669e6f9e)" style="fill: none; stroke: #1f77b4; stroke-width: 1.5; stroke-linecap: square"/>
   </g>
   <g id="line2d_29">
    <path d="M 227.176594 663.64 
L 227.176594 385.08 
" clip-path="url(#pb1669e6f9e)" style="fill: none; stroke-dasharray: 5.55,2.4; stroke-dashoffset: 0; stroke: #808080; stroke-width: 1.5"/>
   </g>
   <g id="line2d_30">
    <path d="M 81.11 518.745524 
L 469.845 518.745524 
" clip-path="url(#pb1669e6f9e)" style="fill: none; stroke: #ff0000; stroke-opacity: 0.3; stroke-width: 1.5; stroke-linecap: square"/>
   </g>
   <g id="patch_10">
    <path d="M 81.11 663.64 
L 81.11 385.08 
" style="fill: none; stroke: #000000; stroke-width: 0.8; stroke-linejoin: miter; stroke-linecap: square"/>
   </g>
   <g id="patch_11">
    <path d="M 469.845 663.64 
L 469.845 385.08 
" style="fill: none; stroke: #000000; stroke-width: 0.8; stroke-linejoin: miter; stroke-linecap: square"/>
   </g>
   <g id="patch_12">
    <path d="M 81.11 663.64 
L 469.845 663.64 
" style="fill: none; stroke: #000000; stroke-width: 0.8; stroke-linejoin: miter; stroke-linecap: square"/>
   </g>
   <g id="patch_13">
    <path d="M 81.11 385.08 
L 469.845 385.08 
" style="fill: none; stroke: #000000; stroke-width: 0.8; stroke-linejoin: miter; stroke-linecap: square"/>
   </g>
   <g id="text_30">
    <!-- Pressure -->
    <g transform="translate(238.59415 379.08) scale(0.1728 -0.1728)">
     <defs>
      <path id="DejaVuSans-50" d="M 1259 4147 
L 1259 2394 
L 2053 2394 
Q 2494 2394 2734 2622 
Q 2975 2850 2975 3272 
Q 2975 3691 2734 3919 
Q 2494 4147 2053 4147 
L 1259 4147 
z
M 628 4666 
L 2053 4666 
Q 2838 4666 3239 4311 
Q 3641 3956 3641 3272 
Q 3641 2581 3239 2228 
Q 2838 1875 2053 1875 
L 1259 1875 
L 1259 0 
L 628 0 
L 628 4666 
z
" transform="scale(0.015625)"/>
     </defs>
     <use xlink:href="#DejaVuSans-50"/>
     <use xlink:href="#DejaVuSans-72" x="58.552734"/>
     <use xlink:href="#DejaVuSans-65" x="97.416016"/>
     <use xlink:href="#DejaVuSans-73" x="158.939453"/>
     <use xlink:href="#DejaVuSans-73" x="211.039062"/>
     <use xlink:href="#DejaVuSans-75" x="263.138672"/>
     <use xlink:href="#DejaVuSans-72" x="326.517578"/>
     <use xlink:href="#DejaVuSans-65" x="365.380859"/>
    </g>
   </g>
  </g>
  <g id="axes_3">
   <g id="patch_14">
    <path d="M 536.465 663.64 
L 925.2 663.64 
L 925.2 385.08 
L 536.465 385.08 
z
" style="fill: #ffffff"/>
   </g>
   <g id="patch_15">
    <path d="M 536.465 663.64 
L 536.465 385.08 
L 682.531594 385.08 
L 682.531594 663.64 
z
" clip-path="url(#p3f89d054a7)" style="fill: #808080; opacity: 0.15"/>
   </g>
   <g id="matplotlib.axis_5">
    <g id="xtick_15">
     <g id="line2d_31">
      <g>
       <use xlink:href="#m9d0af9ebd9" x="536.465" y="663.64" style="stroke: #000000; stroke-width: 0.8"/>
      </g>
     </g>
     <g id="text_31">
      <!-- 0 -->
      <g transform="translate(530.9678 683.7701) scale(0.1728 -0.1728)">
       <use xlink:href="#DejaVuSans-30"/>
      </g>
     </g>
    </g>
    <g id="xtick_16">
     <g id="line2d_32">
      <g>
       <use xlink:href="#m9d0af9ebd9" x="594.658862" y="663.64" style="stroke: #000000; stroke-width: 0.8"/>
      </g>
     </g>
     <g id="text_32">
      <!-- 1 -->
      <g transform="translate(589.161662 683.7701) scale(0.1728 -0.1728)">
       <use xlink:href="#DejaVuSans-31"/>
      </g>
     </g>
    </g>
    <g id="xtick_17">
     <g id="line2d_33">
      <g>
       <use xlink:href="#m9d0af9ebd9" x="652.852725" y="663.64" style="stroke: #000000; stroke-width: 0.8"/>
      </g>
     </g>
     <g id="text_33">
      <!-- 2 -->
      <g transform="translate(647.355525 683.7701) scale(0.1728 -0.1728)">
       <use xlink:href="#DejaVuSans-32"/>
      </g>
     </g>
    </g>
    <g id="xtick_18">
     <g id="line2d_34">
      <g>
       <use xlink:href="#m9d0af9ebd9" x="711.046587" y="663.64" style="stroke: #000000; stroke-width: 0.8"/>
      </g>
     </g>
     <g id="text_34">
      <!-- 3 -->
      <g transform="translate(705.549387 683.7701) scale(0.1728 -0.1728)">
       <use xlink:href="#DejaVuSans-33"/>
      </g>
     </g>
    </g>
    <g id="xtick_19">
     <g id="line2d_35">
      <g>
       <use xlink:href="#m9d0af9ebd9" x="769.240449" y="663.64" style="stroke: #000000; stroke-width: 0.8"/>
      </g>
     </g>
     <g id="text_35">
      <!-- 4 -->
      <g transform="translate(763.743249 683.7701) scale(0.1728 -0.1728)">
       <use xlink:href="#DejaVuSans-34"/>
      </g>
     </g>
    </g>
    <g id="xtick_20">
     <g id="line2d_36">
      <g>
       <use xlink:href="#m9d0af9ebd9" x="827.434311" y="663.64" style="stroke: #000000; stroke-width: 0.8"/>
      </g>
     </g>
     <g id="text_36">
      <!-- 5 -->
      <g transform="translate(821.937111 683.7701) scale(0.1728 -0.1728)">
       <use xlink:href="#DejaVuSans-35"/>
      </g>
     </g>
    </g>
    <g id="xtick_21">
     <g id="line2d_37">
      <g>
       <use xlink:href="#m9d0af9ebd9" x="885.628174" y="663.64" style="stroke: #000000; stroke-width: 0.8"/>
      </g>
     </g>
     <g id="text_37">
      <!-- 6 -->
      <g transform="translate(880.130974 683.7701) scale(0.1728 -0.1728)">
       <use xlink:href="#DejaVuSans-36"/>
      </g>
     </g>
    </g>
    <g id="text_38">
     <!-- time in a.u. -->
     <g transform="translate(681.68305 704.4939) scale(0.1728 -0.1728)">
      <use xlink:href="#DejaVuSans-74"/>
      <use xlink:href="#DejaVuSans-69" x="39.208984"/>
      <use xlink:href="#DejaVuSans-6d" x="66.992188"/>
      <use xlink:href="#DejaVuSans-65" x="164.404297"/>
      <use xlink:href="#DejaVuSans-20" x="225.927734"/>
      <use xlink:href="#DejaVuSans-69" x="257.714844"/>
      <use xlink:href="#DejaVuSans-6e" x="285.498047"/>
      <use xlink:href="#DejaVuSans-20" x="348.876953"/>
      <use xlink:href="#DejaVuSans-61" x="380.664062"/>
      <use xlink:href="#DejaVuSans-2e" x="441.943359"/>
      <use xlink:href="#DejaVuSans-75" x="473.730469"/>
      <use xlink:href="#DejaVuSans-2e" x="537.109375"/>
     </g>
    </g>
   </g>
   <g id="matplotlib.axis_6">
    <g id="ytick_11">
     <g id="line2d_38">
      <g>
       <use xlink:href="#m55b19e05f1" x="536.465" y="658.070002" style="stroke: #000000; stroke-width: 0.8"/>
      </g>
     </g>
     <g id="text_39">
      <!-- 0.0 -->
      <g transform="translate(501.9844 664.635052) scale(0.1728 -0.1728)">
       <use xlink:href="#DejaVuSans-30"/>
       <use xlink:href="#DejaVuSans-2e" x="63.623047"/>
       <use xlink:href="#DejaVuSans-30" x="95.410156"/>
      </g>
     </g>
    </g>
    <g id="ytick_12">
     <g id="line2d_39">
      <g>
       <use xlink:href="#m55b19e05f1" x="536.465" y="612.033854" style="stroke: #000000; stroke-width: 0.8"/>
      </g>
     </g>
     <g id="text_40">
      <!-- 0.2 -->
      <g transform="translate(501.9844 618.598904) scale(0.1728 -0.1728)">
       <use xlink:href="#DejaVuSans-30"/>
       <use xlink:href="#DejaVuSans-2e" x="63.623047"/>
       <use xlink:href="#DejaVuSans-32" x="95.410156"/>
      </g>
     </g>
    </g>
    <g id="ytick_13">
     <g id="line2d_40">
      <g>
       <use xlink:href="#m55b19e05f1" x="536.465" y="565.997707" style="stroke: #000000; stroke-width: 0.8"/>
      </g>
     </g>
     <g id="text_41">
      <!-- 0.4 -->
      <g transform="translate(501.9844 572.562757) scale(0.1728 -0.1728)">
       <use xlink:href="#DejaVuSans-30"/>
       <use xlink:href="#DejaVuSans-2e" x="63.623047"/>
       <use xlink:href="#DejaVuSans-34" x="95.410156"/>
      </g>
     </g>
    </g>
    <g id="ytick_14">
     <g id="line2d_41">
      <g>
       <use xlink:href="#m55b19e05f1" x="536.465" y="519.96156" style="stroke: #000000; stroke-width: 0.8"/>
      </g>
     </g>
     <g id="text_42">
      <!-- 0.6 -->
      <g transform="translate(501.9844 526.52661) scale(0.1728 -0.1728)">
       <use xlink:href="#DejaVuSans-30"/>
       <use xlink:href="#DejaVuSans-2e" x="63.623047"/>
       <use xlink:href="#DejaVuSans-36" x="95.410156"/>
      </g>
     </g>
    </g>
    <g id="ytick_15">
     <g id="line2d_42">
      <g>
       <use xlink:href="#m55b19e05f1" x="536.465" y="473.925413" style="stroke: #000000; stroke-width: 0.8"/>
      </g>
     </g>
     <g id="text_43">
      <!-- 0.8 -->
      <g transform="translate(501.9844 480.490463) scale(0.1728 -0.1728)">
       <use xlink:href="#DejaVuSans-30"/>
       <use xlink:href="#DejaVuSans-2e" x="63.623047"/>
       <use xlink:href="#DejaVuSans-38" x="95.410156"/>
      </g>
     </g>
    </g>
    <g id="ytick_16">
     <g id="line2d_43">
      <g>
       <use xlink:href="#m55b19e05f1" x="536.465" y="427.889266" style="stroke: #000000; stroke-width: 0.8"/>
      </g>
     </g>
     <g id="text_44">
      <!-- 1.0 -->
      <g transform="translate(501.9844 434.454316) scale(0.1728 -0.1728)">
       <use xlink:href="#DejaVuSans-31"/>
       <use xlink:href="#DejaVuSans-2e" x="63.623047"/>
       <use xlink:href="#DejaVuSans-30" x="95.410156"/>
      </g>
     </g>
    </g>
    <g id="text_45">
     <!-- temperature in a.u. -->
     <g transform="translate(494.3907 608.29355) rotate(-90) scale(0.1728 -0.1728)">
      <use xlink:href="#DejaVuSans-74"/>
      <use xlink:href="#DejaVuSans-65" x="39.208984"/>
      <use xlink:href="#DejaVuSans-6d" x="100.732422"/>
      <use xlink:href="#DejaVuSans-70" x="198.144531"/>
      <use xlink:href="#DejaVuSans-65" x="261.621094"/>
      <use xlink:href="#DejaVuSans-72" x="323.144531"/>
      <use xlink:href="#DejaVuSans-61" x="364.257812"/>
      <use xlink:href="#DejaVuSans-74" x="425.537109"/>
      <use xlink:href="#DejaVuSans-75" x="464.746094"/>
      <use xlink:href="#DejaVuSans-72" x="528.125"/>
      <use xlink:href="#DejaVuSans-65" x="566.988281"/>
      <use xlink:href="#DejaVuSans-20" x="628.511719"/>
      <use xlink:href="#DejaVuSans-69" x="660.298828"/>
      <use xlink:href="#DejaVuSans-6e" x="688.082031"/>
      <use xlink:href="#DejaVuSans-20" x="751.460938"/>
      <use xlink:href="#DejaVuSans-61" x="783.248047"/>
      <use xlink:href="#DejaVuSans-2e" x="844.527344"/>
      <use xlink:href="#DejaVuSans-75" x="876.314453"/>
      <use xlink:href="#DejaVuSans-2e" x="939.693359"/>
     </g>
    </g>
   </g>
   <g id="line2d_44">
    <path d="M 536.465 640.426667 
L 537.046939 427.066251 
L 538.210816 424.972749 
L 539.374693 422.362843 
L 539.956632 420.99147 
L 540.53857 420.505135 
L 541.702448 425.179508 
L 542.284386 418.887972 
L 542.866325 421.208842 
L 543.448263 422.502615 
L 544.030202 421.680872 
L 544.612141 434.932976 
L 545.194079 427.330106 
L 545.776018 412.573601 
L 546.357957 418.54588 
L 546.939895 418.949416 
L 547.521834 427.003083 
L 548.103772 423.160048 
L 548.685711 425.485516 
L 549.26765 434.421156 
L 549.849588 438.96431 
L 550.431527 429.619123 
L 551.013466 422.748097 
L 551.595404 423.58156 
L 552.177343 421.312742 
L 552.759281 424.233314 
L 553.34122 431.584488 
L 553.923159 443.688676 
L 554.505097 434.821915 
L 555.087036 418.372948 
L 555.668975 433.014348 
L 556.250913 426.196649 
L 556.832852 416.975026 
L 557.996729 430.842383 
L 558.578668 428.202426 
L 559.160606 422.965128 
L 559.742545 427.342614 
L 560.324484 429.191078 
L 560.906422 423.741744 
L 561.488361 422.182939 
L 562.070299 424.513192 
L 562.652238 428.142884 
L 563.234177 426.150588 
L 563.816115 426.285818 
L 564.398054 428.67255 
L 564.979993 428.041211 
L 565.561931 417.610216 
L 566.14387 432.530134 
L 566.725808 432.297157 
L 567.307747 421.99534 
L 567.889686 426.690858 
L 568.471624 428.25429 
L 569.053563 432.454216 
L 569.635501 422.580502 
L 570.21744 425.436322 
L 570.799379 429.238509 
L 571.381317 428.816685 
L 571.963256 430.032851 
L 572.545195 428.438352 
L 573.127133 430.978652 
L 573.709072 427.28698 
L 574.29101 426.579296 
L 574.872949 430.880491 
L 575.454888 428.190406 
L 576.618765 432.400312 
L 577.200704 425.793556 
L 577.782642 415.033087 
L 578.364581 430.262842 
L 578.946519 437.605566 
L 579.528458 418.266617 
L 580.110397 419.067462 
L 581.274274 444.870665 
L 581.856213 435.105771 
L 582.438151 414.126282 
L 583.02009 419.115718 
L 583.602028 429.768169 
L 584.183967 432.114657 
L 585.347844 427.181812 
L 585.929783 430.314686 
L 586.511722 441.243201 
L 587.09366 430.169251 
L 587.675599 413.200959 
L 588.839476 435.502827 
L 589.421415 428.34813 
L 590.585292 421.531163 
L 591.167231 430.557099 
L 591.749169 432.537814 
L 592.913046 425.84193 
L 593.494985 425.443968 
L 594.076924 437.517471 
L 594.658862 424.334075 
L 595.240801 417.578127 
L 595.82274 423.904839 
L 596.404678 427.188322 
L 597.568555 434.838595 
L 598.150494 441.471645 
L 598.732433 418.725013 
L 599.314371 427.586317 
L 599.89631 430.495624 
L 600.478249 419.270285 
L 601.060187 429.285635 
L 601.642126 426.163631 
L 602.224064 428.75142 
L 602.806003 435.172255 
L 603.387942 429.58822 
L 603.96988 418.113573 
L 604.551819 420.650134 
L 605.133757 427.417266 
L 605.715696 432.668547 
L 606.297635 439.200559 
L 606.879573 424.67462 
L 607.461512 417.365328 
L 608.043451 429.777161 
L 608.625389 425.37568 
L 609.207328 429.507531 
L 609.789266 431.670235 
L 610.371205 428.447439 
L 610.953144 432.851759 
L 611.535082 417.125326 
L 612.117021 424.659777 
L 612.69896 427.844186 
L 613.280898 425.884891 
L 613.862837 428.333061 
L 614.444775 440.699805 
L 615.608653 413.558947 
L 616.77253 432.953823 
L 617.354469 431.402061 
L 618.518346 424.792927 
L 619.100284 428.71336 
L 619.682223 431.6323 
L 620.264162 432.470653 
L 620.8461 430.073287 
L 621.428039 422.00826 
L 622.591916 429.215855 
L 623.173855 417.879486 
L 624.337732 435.199775 
L 624.919671 430.976189 
L 625.501609 429.335822 
L 626.083548 431.360586 
L 627.247425 416.995913 
L 627.829364 425.898805 
L 628.993241 427.962992 
L 629.57518 429.885878 
L 630.157118 425.959121 
L 630.739057 424.063106 
L 631.320996 429.926922 
L 631.902934 431.12821 
L 632.484873 429.999915 
L 633.066811 425.803954 
L 633.64875 425.341706 
L 634.230689 432.404854 
L 634.812627 423.091259 
L 635.394566 421.438557 
L 635.976504 432.205312 
L 636.558443 431.671146 
L 637.140382 425.179202 
L 637.72232 422.067057 
L 638.304259 424.38325 
L 638.886198 430.409933 
L 639.468136 433.416045 
L 640.050075 433.512801 
L 640.632013 431.03817 
L 641.213952 432.250434 
L 642.377829 418.560471 
L 642.959768 431.381225 
L 643.541707 427.480127 
L 644.123645 427.758097 
L 644.705584 433.645913 
L 645.287522 436.252749 
L 645.869461 423.237471 
L 646.4514 417.766634 
L 647.033338 431.422765 
L 647.615277 437.049151 
L 648.197216 414.809065 
L 648.779154 421.992114 
L 649.361093 430.829176 
L 649.943031 430.397992 
L 650.52497 429.743374 
L 651.106909 432.092444 
L 651.688847 427.564308 
L 652.270786 424.349809 
L 652.852725 430.28465 
L 653.434663 438.774334 
L 654.016602 424.330848 
L 654.59854 424.787171 
L 655.180479 425.980457 
L 655.762418 436.456705 
L 656.344356 421.34493 
L 656.926295 424.005122 
L 658.090172 426.300655 
L 658.672111 433.999552 
L 659.254049 427.89225 
L 659.835988 428.235698 
L 660.417927 427.047407 
L 660.999865 434.752806 
L 661.581804 428.500397 
L 662.163743 419.307032 
L 662.745681 425.171924 
L 663.32762 423.413356 
L 663.909558 426.717497 
L 664.491497 434.666159 
L 665.073436 427.61973 
L 665.655374 418.488899 
L 666.237313 432.196515 
L 666.819251 430.905981 
L 667.40119 432.770275 
L 667.983129 422.774475 
L 668.565067 427.312774 
L 669.147006 428.215064 
L 669.728945 423.773382 
L 670.310883 420.809216 
L 670.892822 428.513924 
L 671.47476 438.671439 
L 672.056699 430.280863 
L 672.638638 415.712622 
L 673.220576 434.215779 
L 673.802515 429.899859 
L 674.384454 427.820452 
L 674.966392 427.378933 
L 675.548331 425.543964 
L 676.130269 429.602159 
L 676.712208 429.622016 
L 677.294147 430.957851 
L 677.876085 429.505842 
L 678.458024 432.233158 
L 679.039963 433.607639 
L 679.621901 419.667691 
L 680.20384 422.434928 
L 681.367717 426.768909 
L 681.949656 432.71604 
L 682.531594 428.185223 
L 683.113533 432.59378 
L 684.27741 421.767024 
L 684.859349 422.302343 
L 685.441287 429.438941 
L 686.023226 426.860704 
L 686.605165 432.520408 
L 687.187103 433.493653 
L 687.769042 430.456846 
L 688.350981 426.480394 
L 688.932919 419.798373 
L 689.514858 423.387862 
L 690.678735 441.405795 
L 691.260674 430.846374 
L 693.00649 421.481776 
L 693.588428 426.574886 
L 694.170367 424.90847 
L 694.752305 428.021229 
L 695.334244 429.086746 
L 695.916183 422.646382 
L 696.498121 419.756721 
L 697.08006 428.759989 
L 697.661999 432.681068 
L 698.243937 424.18336 
L 699.407814 431.369525 
L 699.989753 423.061035 
L 700.571692 423.445594 
L 701.15363 424.115249 
L 702.317507 431.867351 
L 702.899446 431.892674 
L 703.481385 425.85327 
L 704.063323 427.071862 
L 704.645262 426.587351 
L 705.227201 430.679317 
L 705.809139 423.743315 
L 706.391078 435.315147 
L 706.973016 431.818896 
L 707.554955 419.411731 
L 708.718832 427.023353 
L 709.300771 433.137733 
L 710.464648 430.428919 
L 711.046587 431.138468 
L 711.628525 431.311482 
L 712.210464 428.975343 
L 712.792403 421.358454 
L 713.374341 422.552103 
L 713.95628 429.108039 
L 714.538219 431.922119 
L 715.120157 428.60861 
L 715.702096 426.29319 
L 716.865973 434.748081 
L 717.447912 419.973507 
L 718.02985 425.107331 
L 718.611789 426.370815 
L 719.193728 433.351636 
L 719.775666 426.536659 
L 720.357605 433.883318 
L 720.939543 426.805423 
L 721.521482 424.239831 
L 722.103421 424.17205 
L 722.685359 420.457873 
L 723.267298 428.233924 
L 723.849237 433.489139 
L 724.431175 446.211273 
L 725.013114 433.04247 
L 725.595052 409.879965 
L 726.176991 425.253028 
L 726.75893 427.992075 
L 727.340868 429.354238 
L 727.922807 427.990905 
L 728.504746 429.988669 
L 729.086684 428.088779 
L 729.668623 430.478873 
L 730.250561 428.115952 
L 730.8325 429.402755 
L 731.414439 435.464807 
L 731.996377 432.983265 
L 732.578316 423.923092 
L 733.160254 432.757169 
L 733.742193 424.266411 
L 734.324132 423.863817 
L 734.90607 425.802165 
L 735.488009 430.81568 
L 736.069948 433.42422 
L 736.651886 431.87734 
L 737.233825 423.554751 
L 737.815763 421.501884 
L 738.397702 423.588587 
L 738.979641 427.005551 
L 739.561579 432.744694 
L 740.143518 430.84811 
L 740.725457 426.652495 
L 741.307395 434.31129 
L 741.889334 419.174713 
L 742.471272 430.549209 
L 743.053211 426.990369 
L 743.63515 425.463238 
L 744.217088 427.318322 
L 744.799027 436.094972 
L 745.380966 426.363389 
L 745.962904 427.131633 
L 746.544843 425.970737 
L 747.70872 422.642565 
L 748.290659 426.360102 
L 748.872597 439.078972 
L 749.454536 429.279435 
L 750.036475 424.371897 
L 750.618413 423.12452 
L 751.200352 430.178203 
L 751.78229 434.99948 
L 752.364229 423.026094 
L 752.946168 423.07298 
L 753.528106 429.958115 
L 754.110045 426.350883 
L 754.691984 432.398075 
L 755.273922 432.411883 
L 755.855861 415.577993 
L 756.437799 427.357979 
L 757.019738 434.673099 
L 757.601677 436.349403 
L 758.183615 426.049655 
L 758.765554 425.476329 
L 759.347493 425.4728 
L 759.929431 424.739779 
L 760.51137 426.282679 
L 761.093308 430.574552 
L 761.675247 423.602306 
L 762.257186 423.424272 
L 762.839124 429.665379 
L 764.003001 427.298521 
L 764.58494 431.262369 
L 765.166879 430.984815 
L 765.748817 420.004007 
L 766.330756 423.242916 
L 766.912695 436.077254 
L 767.494633 441.49337 
L 768.65851 418.807423 
L 769.240449 419.864474 
L 769.822388 426.894418 
L 770.404326 432.557795 
L 770.986265 431.231785 
L 771.568204 422.671197 
L 772.150142 426.470875 
L 772.732081 434.981033 
L 773.314019 431.234151 
L 774.477897 416.500605 
L 775.059835 420.387006 
L 775.641774 432.845257 
L 776.223713 426.358751 
L 776.805651 423.585898 
L 777.38759 435.421754 
L 777.969528 433.824976 
L 778.551467 424.120827 
L 779.133406 429.11506 
L 779.715344 429.259704 
L 780.297283 421.368394 
L 780.879222 425.920504 
L 781.46116 428.051172 
L 782.043099 424.106748 
L 782.625037 425.097629 
L 783.206976 443.187323 
L 784.370853 419.942854 
L 784.952792 430.602316 
L 785.534731 423.793927 
L 786.116669 424.608625 
L 786.698608 422.296492 
L 787.280546 435.848302 
L 787.862485 435.48923 
L 788.444424 423.795671 
L 789.026362 424.265275 
L 789.608301 422.077489 
L 790.19024 431.5382 
L 790.772178 432.721623 
L 791.354117 417.45147 
L 791.936055 433.57701 
L 792.517994 426.678895 
L 793.099933 415.642927 
L 793.681871 431.479711 
L 794.26381 439.756084 
L 794.845749 426.707782 
L 795.427687 421.861117 
L 796.009626 427.628726 
L 796.591564 429.005356 
L 797.173503 426.848159 
L 797.755442 430.475578 
L 798.33738 424.455673 
L 798.919319 425.496166 
L 799.501257 436.818192 
L 800.083196 428.369795 
L 800.665135 428.88117 
L 801.247073 433.777063 
L 801.829012 415.547474 
L 802.410951 426.484644 
L 802.992889 427.356818 
L 803.574828 430.962388 
L 804.156766 422.468929 
L 804.738705 422.718295 
L 805.320644 431.444122 
L 805.902582 431.33039 
L 806.484521 433.191437 
L 807.06646 437.221703 
L 807.648398 422.030587 
L 808.230337 427.720513 
L 808.812275 428.636562 
L 809.394214 420.274071 
L 809.976153 433.165348 
L 810.558091 434.082704 
L 811.14003 428.104823 
L 811.721969 429.153711 
L 812.303907 424.12424 
L 812.885846 423.58997 
L 813.467784 438.806276 
L 814.631662 415.163722 
L 815.2136 430.122823 
L 815.795539 426.669112 
L 816.377478 427.704559 
L 816.959416 431.324041 
L 818.123293 432.980772 
L 818.705232 433.579934 
L 819.287171 419.548864 
L 819.869109 417.235984 
L 820.451048 426.975824 
L 821.032987 431.375615 
L 821.614925 444.770743 
L 822.778802 408.293333 
L 823.360741 419.205629 
L 823.94268 435.200205 
L 824.524618 435.927907 
L 825.106557 438.630374 
L 825.688496 420.380076 
L 826.270434 417.695456 
L 826.852373 429.736154 
L 827.434311 425.375094 
L 828.01625 424.519724 
L 828.598189 432.159409 
L 829.180127 438.30103 
L 829.762066 439.744412 
L 830.344004 432.210259 
L 830.925943 419.566528 
L 831.507882 422.852417 
L 832.08982 424.32804 
L 832.671759 424.971634 
L 833.835636 436.730408 
L 834.417575 438.19679 
L 835.581452 416.378206 
L 836.163391 423.244879 
L 836.745329 432.130692 
L 837.327268 428.161059 
L 838.491145 424.338045 
L 839.073084 430.245214 
L 839.655022 431.293488 
L 840.236961 434.293008 
L 840.8189 428.786551 
L 841.400838 427.735377 
L 841.982777 422.543658 
L 842.564716 425.970781 
L 843.146654 423.93526 
L 843.728593 424.721017 
L 844.310531 431.225842 
L 844.89247 433.79509 
L 845.474409 422.097351 
L 846.056347 423.025387 
L 846.638286 421.315147 
L 847.220225 424.387887 
L 847.802163 426.495076 
L 848.384102 424.835032 
L 849.547979 448.973263 
L 850.129918 424.900299 
L 850.711856 425.012264 
L 851.293795 418.601443 
L 851.875734 418.810579 
L 852.457672 434.31925 
L 853.039611 430.121588 
L 853.621549 423.710565 
L 854.203488 431.731777 
L 854.785427 423.151123 
L 855.367365 426.615127 
L 855.949304 428.512834 
L 856.531243 429.993259 
L 857.113181 429.065982 
L 857.69512 427.646547 
L 858.277058 425.110752 
L 858.858997 427.17788 
L 859.440936 432.924567 
L 860.022874 434.801333 
L 860.604813 425.288762 
L 861.186751 429.130959 
L 861.76869 427.171726 
L 862.350629 426.403834 
L 862.932567 420.807323 
L 863.514506 428.438469 
L 864.096445 429.093664 
L 864.678383 429.42647 
L 865.260322 428.997362 
L 865.84226 430.513825 
L 866.424199 430.655688 
L 867.006138 429.433356 
L 868.170015 420.060927 
L 868.751954 423.36319 
L 869.333892 430.1903 
L 869.915831 430.263864 
L 870.497769 422.599299 
L 871.079708 426.077808 
L 871.661647 436.759142 
L 872.825524 429.002529 
L 873.407463 423.736873 
L 873.989401 429.37647 
L 874.57134 428.539302 
L 875.153278 417.245722 
L 875.735217 417.016845 
L 876.317156 428.804895 
L 876.899094 426.388237 
L 877.481033 442.337753 
L 878.062972 448.449701 
L 878.64491 423.404613 
L 879.226849 423.408568 
L 879.808787 424.380371 
L 880.390726 413.661386 
L 880.972665 441.214147 
L 881.554603 427.185734 
L 882.136542 422.743127 
L 882.718481 425.313561 
L 883.300419 429.377907 
L 883.882358 437.913112 
L 884.464296 422.31865 
L 885.046235 424.637683 
L 885.628174 431.825866 
L 886.210112 422.083292 
L 886.792051 431.282288 
L 887.37399 433.093782 
L 887.955928 438.353672 
L 888.537867 425.39641 
L 889.119805 419.980086 
L 889.701744 419.450619 
L 890.283683 438.223907 
L 890.865621 428.745054 
L 891.44756 417.00354 
L 892.029499 432.966369 
L 892.611437 443.138395 
L 893.193376 416.704058 
L 893.775314 416.497169 
L 894.357253 435.956374 
L 894.939192 428.836558 
L 895.52113 430.240865 
L 896.103069 437.42799 
L 896.685007 427.364974 
L 897.266946 425.271663 
L 897.848885 431.840754 
L 898.430823 434.95775 
L 899.012762 419.139196 
L 899.594701 419.077803 
L 900.176639 423.289244 
L 900.758578 434.141225 
L 901.340516 435.95022 
L 901.922455 429.74313 
L 902.504394 429.377437 
L 903.086332 420.713888 
L 903.668271 427.924525 
L 904.25021 440.408777 
L 904.832148 419.080887 
L 905.414087 433.878114 
L 905.996025 412.436726 
L 906.577964 428.006814 
L 907.159903 429.688936 
L 907.741841 418.761777 
L 908.905719 438.857403 
L 909.487657 426.980647 
L 910.069596 424.910954 
L 910.651534 426.582768 
L 911.233473 427.426239 
L 911.815412 431.706327 
L 912.39735 431.990959 
L 912.979289 419.219843 
L 913.561228 418.018834 
L 914.143166 428.870656 
L 914.725105 431.922462 
L 915.307043 434.012335 
L 915.888982 434.362183 
L 916.470921 433.965451 
L 917.052859 424.473541 
L 917.634798 419.729805 
L 918.798675 434.927954 
L 919.380614 429.814321 
L 919.962552 417.589883 
L 920.544491 430.372245 
L 921.12643 436.236514 
L 921.708368 420.568374 
L 922.290307 423.568783 
L 922.872246 429.873691 
L 923.454184 421.28558 
L 924.036123 423.172879 
L 924.618061 428.51665 
L 924.618061 428.51665 
" clip-path="url(#p3f89d054a7)" style="fill: none; stroke: #1f77b4; stroke-width: 1.5; stroke-linecap: square"/>
   </g>
   <g id="line2d_45">
    <path d="M 682.531594 663.64 
L 682.531594 385.08 
" clip-path="url(#p3f89d054a7)" style="fill: none; stroke-dasharray: 5.55,2.4; stroke-dashoffset: 0; stroke: #808080; stroke-width: 1.5"/>
   </g>
   <g id="line2d_46">
    <path d="M 536.465 427.849876 
L 925.2 427.849876 
" clip-path="url(#p3f89d054a7)" style="fill: none; stroke: #ff0000; stroke-opacity: 0.3; stroke-width: 1.5; stroke-linecap: square"/>
   </g>
   <g id="patch_16">
    <path d="M 536.465 663.64 
L 536.465 385.08 
" style="fill: none; stroke: #000000; stroke-width: 0.8; stroke-linejoin: miter; stroke-linecap: square"/>
   </g>
   <g id="patch_17">
    <path d="M 925.2 663.64 
L 925.2 385.08 
" style="fill: none; stroke: #000000; stroke-width: 0.8; stroke-linejoin: miter; stroke-linecap: square"/>
   </g>
   <g id="patch_18">
    <path d="M 536.465 663.64 
L 925.2 663.64 
" style="fill: none; stroke: #000000; stroke-width: 0.8; stroke-linejoin: miter; stroke-linecap: square"/>
   </g>
   <g id="patch_19">
    <path d="M 536.465 385.08 
L 925.2 385.08 
" style="fill: none; stroke: #000000; stroke-width: 0.8; stroke-linejoin: miter; stroke-linecap: square"/>
   </g>
   <g id="text_46">
    <!-- Temperature -->
    <g transform="translate(676.10755 379.08) scale(0.1728 -0.1728)">
     <defs>
      <path id="DejaVuSans-54" d="M -19 4666 
L 3928 4666 
L 3928 4134 
L 2272 4134 
L 2272 0 
L 1638 0 
L 1638 4134 
L -19 4134 
L -19 4666 
z
" transform="scale(0.015625)"/>
     </defs>
     <use xlink:href="#DejaVuSans-54"/>
     <use xlink:href="#DejaVuSans-65" x="44.083984"/>
     <use xlink:href="#DejaVuSans-6d" x="105.607422"/>
     <use xlink:href="#DejaVuSans-70" x="203.019531"/>
     <use xlink:href="#DejaVuSans-65" x="266.496094"/>
     <use xlink:href="#DejaVuSans-72" x="328.019531"/>
     <use xlink:href="#DejaVuSans-61" x="369.132812"/>
     <use xlink:href="#DejaVuSans-74" x="430.412109"/>
     <use xlink:href="#DejaVuSans-75" x="469.621094"/>
     <use xlink:href="#DejaVuSans-72" x="533"/>
     <use xlink:href="#DejaVuSans-65" x="571.863281"/>
    </g>
   </g>
  </g>
 </g>
 <defs>
  <clipPath id="pe5684f2978">
   <rect x="81.11" y="30.48" width="844.09" height="278.56"/>
  </clipPath>
  <clipPath id="pb1669e6f9e">
   <rect x="81.11" y="385.08" width="388.735" height="278.56"/>
  </clipPath>
  <clipPath id="p3f89d054a7">
   <rect x="536.465" y="385.08" width="388.735" height="278.56"/>
  </clipPath>
 </defs>
</svg>
