<?xml version="1.0" encoding="utf-8" standalone="no"?>
<!DOCTYPE svg PUBLIC "-//W3C//DTD SVG 1.1//EN"
  "http://www.w3.org/Graphics/SVG/1.1/DTD/svg11.dtd">
<svg xmlns:xlink="http://www.w3.org/1999/xlink" width="936pt" height="720pt" viewBox="0 0 936 720" xmlns="http://www.w3.org/2000/svg" version="1.1">
 <metadata>
  <rdf:RDF xmlns:dc="http://purl.org/dc/elements/1.1/" xmlns:cc="http://creativecommons.org/ns#" xmlns:rdf="http://www.w3.org/1999/02/22-rdf-syntax-ns#">
   <cc:Work>
    <dc:type rdf:resource="http://purl.org/dc/dcmitype/StillImage"/>
    <dc:date>2024-12-09T03:46:05.915197</dc:date>
    <dc:format>image/svg+xml</dc:format>
    <dc:creator>
     <cc:Agent>
      <dc:title>Matplotlib v3.8.0, https://matplotlib.org/</dc:title>
     </cc:Agent>
    </dc:creator>
   </cc:Work>
  </rdf:RDF>
 </metadata>
 <defs>
  <style type="text/css">*{stroke-linejoin: round; stroke-linecap: butt}</style>
 </defs>
 <g id="figure_1">
  <g id="patch_1">
   <path d="M 0 720 
L 936 720 
L 936 0 
L 0 0 
z
" style="fill: #ffffff"/>
  </g>
  <g id="axes_1">
   <g id="patch_2">
    <path d="M 92.09 309.04 
L 925.2 309.04 
L 925.2 30.48 
L 92.09 30.48 
z
" style="fill: #ffffff"/>
   </g>
   <g id="patch_3">
    <path d="M 92.09 309.04 
L 92.09 30.48 
L 381.433593 30.48 
L 381.433593 309.04 
z
" clip-path="url(#pf0e58ee58c)" style="fill: #808080; opacity: 0.15"/>
   </g>
   <g id="matplotlib.axis_1">
    <g id="xtick_1">
     <g id="line2d_1">
      <defs>
       <path id="m134459723a" d="M 0 0 
L 0 3.5 
" style="stroke: #000000; stroke-width: 0.8"/>
      </defs>
      <g>
       <use xlink:href="#m134459723a" x="92.09" y="309.04" style="stroke: #000000; stroke-width: 0.8"/>
      </g>
     </g>
     <g id="text_1">
      <!-- 0.0 -->
      <g transform="translate(78.3497 329.1701) scale(0.1728 -0.1728)">
       <defs>
        <path id="DejaVuSans-30" d="M 2034 4250 
Q 1547 4250 1301 3770 
Q 1056 3291 1056 2328 
Q 1056 1369 1301 889 
Q 1547 409 2034 409 
Q 2525 409 2770 889 
Q 3016 1369 3016 2328 
Q 3016 3291 2770 3770 
Q 2525 4250 2034 4250 
z
M 2034 4750 
Q 2819 4750 3233 4129 
Q 3647 3509 3647 2328 
Q 3647 1150 3233 529 
Q 2819 -91 2034 -91 
Q 1250 -91 836 529 
Q 422 1150 422 2328 
Q 422 3509 836 4129 
Q 1250 4750 2034 4750 
z
" transform="scale(0.015625)"/>
        <path id="DejaVuSans-2e" d="M 684 794 
L 1344 794 
L 1344 0 
L 684 0 
L 684 794 
z
" transform="scale(0.015625)"/>
       </defs>
       <use xlink:href="#DejaVuSans-30"/>
       <use xlink:href="#DejaVuSans-2e" x="63.623047"/>
       <use xlink:href="#DejaVuSans-30" x="95.410156"/>
      </g>
     </g>
    </g>
    <g id="xtick_2">
     <g id="line2d_2">
      <g>
       <use xlink:href="#m134459723a" x="216.807066" y="309.04" style="stroke: #000000; stroke-width: 0.8"/>
      </g>
     </g>
     <g id="text_2">
      <!-- 0.5 -->
      <g transform="translate(203.066766 329.1701) scale(0.1728 -0.1728)">
       <defs>
        <path id="DejaVuSans-35" d="M 691 4666 
L 3169 4666 
L 3169 4134 
L 1269 4134 
L 1269 2991 
Q 1406 3038 1543 3061 
Q 1681 3084 1819 3084 
Q 2600 3084 3056 2656 
Q 3513 2228 3513 1497 
Q 3513 744 3044 326 
Q 2575 -91 1722 -91 
Q 1428 -91 1123 -41 
Q 819 9 494 109 
L 494 744 
Q 775 591 1075 516 
Q 1375 441 1709 441 
Q 2250 441 2565 725 
Q 2881 1009 2881 1497 
Q 2881 1984 2565 2268 
Q 2250 2553 1709 2553 
Q 1456 2553 1204 2497 
Q 953 2441 691 2322 
L 691 4666 
z
" transform="scale(0.015625)"/>
       </defs>
       <use xlink:href="#DejaVuSans-30"/>
       <use xlink:href="#DejaVuSans-2e" x="63.623047"/>
       <use xlink:href="#DejaVuSans-35" x="95.410156"/>
      </g>
     </g>
    </g>
    <g id="xtick_3">
     <g id="line2d_3">
      <g>
       <use xlink:href="#m134459723a" x="341.524132" y="309.04" style="stroke: #000000; stroke-width: 0.8"/>
      </g>
     </g>
     <g id="text_3">
      <!-- 1.0 -->
      <g transform="translate(327.783832 329.1701) scale(0.1728 -0.1728)">
       <defs>
        <path id="DejaVuSans-31" d="M 794 531 
L 1825 531 
L 1825 4091 
L 703 3866 
L 703 4441 
L 1819 4666 
L 2450 4666 
L 2450 531 
L 3481 531 
L 3481 0 
L 794 0 
L 794 531 
z
" transform="scale(0.015625)"/>
       </defs>
       <use xlink:href="#DejaVuSans-31"/>
       <use xlink:href="#DejaVuSans-2e" x="63.623047"/>
       <use xlink:href="#DejaVuSans-30" x="95.410156"/>
      </g>
     </g>
    </g>
    <g id="xtick_4">
     <g id="line2d_4">
      <g>
       <use xlink:href="#m134459723a" x="466.241198" y="309.04" style="stroke: #000000; stroke-width: 0.8"/>
      </g>
     </g>
     <g id="text_4">
      <!-- 1.5 -->
      <g transform="translate(452.500898 329.1701) scale(0.1728 -0.1728)">
       <use xlink:href="#DejaVuSans-31"/>
       <use xlink:href="#DejaVuSans-2e" x="63.623047"/>
       <use xlink:href="#DejaVuSans-35" x="95.410156"/>
      </g>
     </g>
    </g>
    <g id="xtick_5">
     <g id="line2d_5">
      <g>
       <use xlink:href="#m134459723a" x="590.958263" y="309.04" style="stroke: #000000; stroke-width: 0.8"/>
      </g>
     </g>
     <g id="text_5">
      <!-- 2.0 -->
      <g transform="translate(577.217963 329.1701) scale(0.1728 -0.1728)">
       <defs>
        <path id="DejaVuSans-32" d="M 1228 531 
L 3431 531 
L 3431 0 
L 469 0 
L 469 531 
Q 828 903 1448 1529 
Q 2069 2156 2228 2338 
Q 2531 2678 2651 2914 
Q 2772 3150 2772 3378 
Q 2772 3750 2511 3984 
Q 2250 4219 1831 4219 
Q 1534 4219 1204 4116 
Q 875 4013 500 3803 
L 500 4441 
Q 881 4594 1212 4672 
Q 1544 4750 1819 4750 
Q 2544 4750 2975 4387 
Q 3406 4025 3406 3419 
Q 3406 3131 3298 2873 
Q 3191 2616 2906 2266 
Q 2828 2175 2409 1742 
Q 1991 1309 1228 531 
z
" transform="scale(0.015625)"/>
       </defs>
       <use xlink:href="#DejaVuSans-32"/>
       <use xlink:href="#DejaVuSans-2e" x="63.623047"/>
       <use xlink:href="#DejaVuSans-30" x="95.410156"/>
      </g>
     </g>
    </g>
    <g id="xtick_6">
     <g id="line2d_6">
      <g>
       <use xlink:href="#m134459723a" x="715.675329" y="309.04" style="stroke: #000000; stroke-width: 0.8"/>
      </g>
     </g>
     <g id="text_6">
      <!-- 2.5 -->
      <g transform="translate(701.935029 329.1701) scale(0.1728 -0.1728)">
       <use xlink:href="#DejaVuSans-32"/>
       <use xlink:href="#DejaVuSans-2e" x="63.623047"/>
       <use xlink:href="#DejaVuSans-35" x="95.410156"/>
      </g>
     </g>
    </g>
    <g id="xtick_7">
     <g id="line2d_7">
      <g>
       <use xlink:href="#m134459723a" x="840.392395" y="309.04" style="stroke: #000000; stroke-width: 0.8"/>
      </g>
     </g>
     <g id="text_7">
      <!-- 3.0 -->
      <g transform="translate(826.652095 329.1701) scale(0.1728 -0.1728)">
       <defs>
        <path id="DejaVuSans-33" d="M 2597 2516 
Q 3050 2419 3304 2112 
Q 3559 1806 3559 1356 
Q 3559 666 3084 287 
Q 2609 -91 1734 -91 
Q 1441 -91 1130 -33 
Q 819 25 488 141 
L 488 750 
Q 750 597 1062 519 
Q 1375 441 1716 441 
Q 2309 441 2620 675 
Q 2931 909 2931 1356 
Q 2931 1769 2642 2001 
Q 2353 2234 1838 2234 
L 1294 2234 
L 1294 2753 
L 1863 2753 
Q 2328 2753 2575 2939 
Q 2822 3125 2822 3475 
Q 2822 3834 2567 4026 
Q 2313 4219 1838 4219 
Q 1578 4219 1281 4162 
Q 984 4106 628 3988 
L 628 4550 
Q 988 4650 1302 4700 
Q 1616 4750 1894 4750 
Q 2613 4750 3031 4423 
Q 3450 4097 3450 3541 
Q 3450 3153 3228 2886 
Q 3006 2619 2597 2516 
z
" transform="scale(0.015625)"/>
       </defs>
       <use xlink:href="#DejaVuSans-33"/>
       <use xlink:href="#DejaVuSans-2e" x="63.623047"/>
       <use xlink:href="#DejaVuSans-30" x="95.410156"/>
      </g>
     </g>
    </g>
    <g id="text_8">
     <!-- time in a.u. -->
     <g transform="translate(459.49555 349.8939) scale(0.1728 -0.1728)">
      <defs>
       <path id="DejaVuSans-74" d="M 1172 4494 
L 1172 3500 
L 2356 3500 
L 2356 3053 
L 1172 3053 
L 1172 1153 
Q 1172 725 1289 603 
Q 1406 481 1766 481 
L 2356 481 
L 2356 0 
L 1766 0 
Q 1100 0 847 248 
Q 594 497 594 1153 
L 594 3053 
L 172 3053 
L 172 3500 
L 594 3500 
L 594 4494 
L 1172 4494 
z
" transform="scale(0.015625)"/>
       <path id="DejaVuSans-69" d="M 603 3500 
L 1178 3500 
L 1178 0 
L 603 0 
L 603 3500 
z
M 603 4863 
L 1178 4863 
L 1178 4134 
L 603 4134 
L 603 4863 
z
" transform="scale(0.015625)"/>
       <path id="DejaVuSans-6d" d="M 3328 2828 
Q 3544 3216 3844 3400 
Q 4144 3584 4550 3584 
Q 5097 3584 5394 3201 
Q 5691 2819 5691 2113 
L 5691 0 
L 5113 0 
L 5113 2094 
Q 5113 2597 4934 2840 
Q 4756 3084 4391 3084 
Q 3944 3084 3684 2787 
Q 3425 2491 3425 1978 
L 3425 0 
L 2847 0 
L 2847 2094 
Q 2847 2600 2669 2842 
Q 2491 3084 2119 3084 
Q 1678 3084 1418 2786 
Q 1159 2488 1159 1978 
L 1159 0 
L 581 0 
L 581 3500 
L 1159 3500 
L 1159 2956 
Q 1356 3278 1631 3431 
Q 1906 3584 2284 3584 
Q 2666 3584 2933 3390 
Q 3200 3197 3328 2828 
z
" transform="scale(0.015625)"/>
       <path id="DejaVuSans-65" d="M 3597 1894 
L 3597 1613 
L 953 1613 
Q 991 1019 1311 708 
Q 1631 397 2203 397 
Q 2534 397 2845 478 
Q 3156 559 3463 722 
L 3463 178 
Q 3153 47 2828 -22 
Q 2503 -91 2169 -91 
Q 1331 -91 842 396 
Q 353 884 353 1716 
Q 353 2575 817 3079 
Q 1281 3584 2069 3584 
Q 2775 3584 3186 3129 
Q 3597 2675 3597 1894 
z
M 3022 2063 
Q 3016 2534 2758 2815 
Q 2500 3097 2075 3097 
Q 1594 3097 1305 2825 
Q 1016 2553 972 2059 
L 3022 2063 
z
" transform="scale(0.015625)"/>
       <path id="DejaVuSans-20" transform="scale(0.015625)"/>
       <path id="DejaVuSans-6e" d="M 3513 2113 
L 3513 0 
L 2938 0 
L 2938 2094 
Q 2938 2591 2744 2837 
Q 2550 3084 2163 3084 
Q 1697 3084 1428 2787 
Q 1159 2491 1159 1978 
L 1159 0 
L 581 0 
L 581 3500 
L 1159 3500 
L 1159 2956 
Q 1366 3272 1645 3428 
Q 1925 3584 2291 3584 
Q 2894 3584 3203 3211 
Q 3513 2838 3513 2113 
z
" transform="scale(0.015625)"/>
       <path id="DejaVuSans-61" d="M 2194 1759 
Q 1497 1759 1228 1600 
Q 959 1441 959 1056 
Q 959 750 1161 570 
Q 1363 391 1709 391 
Q 2188 391 2477 730 
Q 2766 1069 2766 1631 
L 2766 1759 
L 2194 1759 
z
M 3341 1997 
L 3341 0 
L 2766 0 
L 2766 531 
Q 2569 213 2275 61 
Q 1981 -91 1556 -91 
Q 1019 -91 701 211 
Q 384 513 384 1019 
Q 384 1609 779 1909 
Q 1175 2209 1959 2209 
L 2766 2209 
L 2766 2266 
Q 2766 2663 2505 2880 
Q 2244 3097 1772 3097 
Q 1472 3097 1187 3025 
Q 903 2953 641 2809 
L 641 3341 
Q 956 3463 1253 3523 
Q 1550 3584 1831 3584 
Q 2591 3584 2966 3190 
Q 3341 2797 3341 1997 
z
" transform="scale(0.015625)"/>
       <path id="DejaVuSans-75" d="M 544 1381 
L 544 3500 
L 1119 3500 
L 1119 1403 
Q 1119 906 1312 657 
Q 1506 409 1894 409 
Q 2359 409 2629 706 
Q 2900 1003 2900 1516 
L 2900 3500 
L 3475 3500 
L 3475 0 
L 2900 0 
L 2900 538 
Q 2691 219 2414 64 
Q 2138 -91 1772 -91 
Q 1169 -91 856 284 
Q 544 659 544 1381 
z
M 1991 3584 
L 1991 3584 
z
" transform="scale(0.015625)"/>
      </defs>
      <use xlink:href="#DejaVuSans-74"/>
      <use xlink:href="#DejaVuSans-69" x="39.208984"/>
      <use xlink:href="#DejaVuSans-6d" x="66.992188"/>
      <use xlink:href="#DejaVuSans-65" x="164.404297"/>
      <use xlink:href="#DejaVuSans-20" x="225.927734"/>
      <use xlink:href="#DejaVuSans-69" x="257.714844"/>
      <use xlink:href="#DejaVuSans-6e" x="285.498047"/>
      <use xlink:href="#DejaVuSans-20" x="348.876953"/>
      <use xlink:href="#DejaVuSans-61" x="380.664062"/>
      <use xlink:href="#DejaVuSans-2e" x="441.943359"/>
      <use xlink:href="#DejaVuSans-75" x="473.730469"/>
      <use xlink:href="#DejaVuSans-2e" x="537.109375"/>
     </g>
    </g>
   </g>
   <g id="matplotlib.axis_2">
    <g id="ytick_1">
     <g id="line2d_8">
      <defs>
       <path id="mba45f8ea38" d="M 0 0 
L -3.5 0 
" style="stroke: #000000; stroke-width: 0.8"/>
      </defs>
      <g>
       <use xlink:href="#mba45f8ea38" x="92.09" y="269.501986" style="stroke: #000000; stroke-width: 0.8"/>
      </g>
     </g>
     <g id="text_9">
      <!-- 0 -->
      <g transform="translate(74.0956 276.067036) scale(0.1728 -0.1728)">
       <use xlink:href="#DejaVuSans-30"/>
      </g>
     </g>
    </g>
    <g id="ytick_2">
     <g id="line2d_9">
      <g>
       <use xlink:href="#mba45f8ea38" x="92.09" y="209.153487" style="stroke: #000000; stroke-width: 0.8"/>
      </g>
     </g>
     <g id="text_10">
      <!-- 50 -->
      <g transform="translate(63.1012 215.718537) scale(0.1728 -0.1728)">
       <use xlink:href="#DejaVuSans-35"/>
       <use xlink:href="#DejaVuSans-30" x="63.623047"/>
      </g>
     </g>
    </g>
    <g id="ytick_3">
     <g id="line2d_10">
      <g>
       <use xlink:href="#mba45f8ea38" x="92.09" y="148.804988" style="stroke: #000000; stroke-width: 0.8"/>
      </g>
     </g>
     <g id="text_11">
      <!-- 100 -->
      <g transform="translate(52.1068 155.370038) scale(0.1728 -0.1728)">
       <use xlink:href="#DejaVuSans-31"/>
       <use xlink:href="#DejaVuSans-30" x="63.623047"/>
       <use xlink:href="#DejaVuSans-30" x="127.246094"/>
      </g>
     </g>
    </g>
    <g id="ytick_4">
     <g id="line2d_11">
      <g>
       <use xlink:href="#mba45f8ea38" x="92.09" y="88.456489" style="stroke: #000000; stroke-width: 0.8"/>
      </g>
     </g>
     <g id="text_12">
      <!-- 150 -->
      <g transform="translate(52.1068 95.021539) scale(0.1728 -0.1728)">
       <use xlink:href="#DejaVuSans-31"/>
       <use xlink:href="#DejaVuSans-35" x="63.623047"/>
       <use xlink:href="#DejaVuSans-30" x="127.246094"/>
      </g>
     </g>
    </g>
    <g id="text_13">
     <!-- (avg. M=4) energy in a.u. -->
     <g transform="translate(44.5131 280.5626) rotate(-90) scale(0.1728 -0.1728)">
      <defs>
       <path id="DejaVuSans-28" d="M 1984 4856 
Q 1566 4138 1362 3434 
Q 1159 2731 1159 2009 
Q 1159 1288 1364 580 
Q 1569 -128 1984 -844 
L 1484 -844 
Q 1016 -109 783 600 
Q 550 1309 550 2009 
Q 550 2706 781 3412 
Q 1013 4119 1484 4856 
L 1984 4856 
z
" transform="scale(0.015625)"/>
       <path id="DejaVuSans-76" d="M 191 3500 
L 800 3500 
L 1894 563 
L 2988 3500 
L 3597 3500 
L 2284 0 
L 1503 0 
L 191 3500 
z
" transform="scale(0.015625)"/>
       <path id="DejaVuSans-67" d="M 2906 1791 
Q 2906 2416 2648 2759 
Q 2391 3103 1925 3103 
Q 1463 3103 1205 2759 
Q 947 2416 947 1791 
Q 947 1169 1205 825 
Q 1463 481 1925 481 
Q 2391 481 2648 825 
Q 2906 1169 2906 1791 
z
M 3481 434 
Q 3481 -459 3084 -895 
Q 2688 -1331 1869 -1331 
Q 1566 -1331 1297 -1286 
Q 1028 -1241 775 -1147 
L 775 -588 
Q 1028 -725 1275 -790 
Q 1522 -856 1778 -856 
Q 2344 -856 2625 -561 
Q 2906 -266 2906 331 
L 2906 616 
Q 2728 306 2450 153 
Q 2172 0 1784 0 
Q 1141 0 747 490 
Q 353 981 353 1791 
Q 353 2603 747 3093 
Q 1141 3584 1784 3584 
Q 2172 3584 2450 3431 
Q 2728 3278 2906 2969 
L 2906 3500 
L 3481 3500 
L 3481 434 
z
" transform="scale(0.015625)"/>
       <path id="DejaVuSans-4d" d="M 628 4666 
L 1569 4666 
L 2759 1491 
L 3956 4666 
L 4897 4666 
L 4897 0 
L 4281 0 
L 4281 4097 
L 3078 897 
L 2444 897 
L 1241 4097 
L 1241 0 
L 628 0 
L 628 4666 
z
" transform="scale(0.015625)"/>
       <path id="DejaVuSans-3d" d="M 678 2906 
L 4684 2906 
L 4684 2381 
L 678 2381 
L 678 2906 
z
M 678 1631 
L 4684 1631 
L 4684 1100 
L 678 1100 
L 678 1631 
z
" transform="scale(0.015625)"/>
       <path id="DejaVuSans-34" d="M 2419 4116 
L 825 1625 
L 2419 1625 
L 2419 4116 
z
M 2253 4666 
L 3047 4666 
L 3047 1625 
L 3713 1625 
L 3713 1100 
L 3047 1100 
L 3047 0 
L 2419 0 
L 2419 1100 
L 313 1100 
L 313 1709 
L 2253 4666 
z
" transform="scale(0.015625)"/>
       <path id="DejaVuSans-29" d="M 513 4856 
L 1013 4856 
Q 1481 4119 1714 3412 
Q 1947 2706 1947 2009 
Q 1947 1309 1714 600 
Q 1481 -109 1013 -844 
L 513 -844 
Q 928 -128 1133 580 
Q 1338 1288 1338 2009 
Q 1338 2731 1133 3434 
Q 928 4138 513 4856 
z
" transform="scale(0.015625)"/>
       <path id="DejaVuSans-72" d="M 2631 2963 
Q 2534 3019 2420 3045 
Q 2306 3072 2169 3072 
Q 1681 3072 1420 2755 
Q 1159 2438 1159 1844 
L 1159 0 
L 581 0 
L 581 3500 
L 1159 3500 
L 1159 2956 
Q 1341 3275 1631 3429 
Q 1922 3584 2338 3584 
Q 2397 3584 2469 3576 
Q 2541 3569 2628 3553 
L 2631 2963 
z
" transform="scale(0.015625)"/>
       <path id="DejaVuSans-79" d="M 2059 -325 
Q 1816 -950 1584 -1140 
Q 1353 -1331 966 -1331 
L 506 -1331 
L 506 -850 
L 844 -850 
Q 1081 -850 1212 -737 
Q 1344 -625 1503 -206 
L 1606 56 
L 191 3500 
L 800 3500 
L 1894 763 
L 2988 3500 
L 3597 3500 
L 2059 -325 
z
" transform="scale(0.015625)"/>
      </defs>
      <use xlink:href="#DejaVuSans-28"/>
      <use xlink:href="#DejaVuSans-61" x="39.013672"/>
      <use xlink:href="#DejaVuSans-76" x="100.292969"/>
      <use xlink:href="#DejaVuSans-67" x="159.472656"/>
      <use xlink:href="#DejaVuSans-2e" x="222.949219"/>
      <use xlink:href="#DejaVuSans-20" x="254.736328"/>
      <use xlink:href="#DejaVuSans-4d" x="286.523438"/>
      <use xlink:href="#DejaVuSans-3d" x="372.802734"/>
      <use xlink:href="#DejaVuSans-34" x="456.591797"/>
      <use xlink:href="#DejaVuSans-29" x="520.214844"/>
      <use xlink:href="#DejaVuSans-20" x="559.228516"/>
      <use xlink:href="#DejaVuSans-65" x="591.015625"/>
      <use xlink:href="#DejaVuSans-6e" x="652.539062"/>
      <use xlink:href="#DejaVuSans-65" x="715.917969"/>
      <use xlink:href="#DejaVuSans-72" x="777.441406"/>
      <use xlink:href="#DejaVuSans-67" x="816.804688"/>
      <use xlink:href="#DejaVuSans-79" x="880.28125"/>
      <use xlink:href="#DejaVuSans-20" x="939.460938"/>
      <use xlink:href="#DejaVuSans-69" x="971.248047"/>
      <use xlink:href="#DejaVuSans-6e" x="999.03125"/>
      <use xlink:href="#DejaVuSans-20" x="1062.410156"/>
      <use xlink:href="#DejaVuSans-61" x="1094.197266"/>
      <use xlink:href="#DejaVuSans-2e" x="1155.476562"/>
      <use xlink:href="#DejaVuSans-75" x="1187.263672"/>
      <use xlink:href="#DejaVuSans-2e" x="1250.642578"/>
     </g>
    </g>
   </g>
   <g id="line2d_12">
    <path d="M 102.067365 89.306937 
L 104.561707 62.553833 
L 109.550389 68.7384 
L 112.044731 71.360229 
L 114.539072 73.156708 
L 117.033413 75.221421 
L 119.527754 77.969345 
L 122.022096 81.131159 
L 124.516437 84.72084 
L 127.010778 86.33895 
L 129.50512 86.539661 
L 131.999461 88.793759 
L 134.493802 92.075137 
L 136.988144 93.752203 
L 139.482485 93.260024 
L 141.976826 91.237608 
L 144.471168 87.149632 
L 146.965509 86.722381 
L 149.45985 88.97134 
L 151.954192 89.215307 
L 154.448533 88.779261 
L 156.942874 89.596496 
L 164.425898 95.488768 
L 166.92024 95.995786 
L 169.414581 95.237259 
L 171.908922 94.943891 
L 176.897605 96.431681 
L 179.391946 97.262396 
L 181.886287 98.37433 
L 184.380629 100.811019 
L 186.87497 102.004147 
L 189.369311 102.156845 
L 194.357994 102.80935 
L 196.852335 102.648231 
L 199.346677 101.515371 
L 201.841018 101.16864 
L 204.335359 102.050503 
L 206.829701 103.264912 
L 209.324042 103.47991 
L 211.818383 103.854005 
L 214.312725 103.581659 
L 216.807066 103.052143 
L 219.301407 104.065903 
L 221.795749 105.276814 
L 224.29009 104.566004 
L 226.784431 101.708804 
L 229.278772 101.46829 
L 231.773114 100.252448 
L 234.267455 98.889329 
L 236.761796 98.378702 
L 241.750479 93.048829 
L 244.24482 91.477288 
L 246.739162 93.288552 
L 249.233503 94.80847 
L 251.727844 96.128353 
L 254.222186 96.217211 
L 256.716527 96.778903 
L 259.210868 98.078293 
L 261.70521 97.643471 
L 264.199551 98.197083 
L 266.693892 99.538655 
L 271.682575 100.523723 
L 274.176916 101.505783 
L 276.671257 100.891229 
L 279.165599 100.893644 
L 281.65994 102.226593 
L 284.154281 102.894511 
L 289.142964 98.518398 
L 291.637305 97.736041 
L 294.131647 98.210917 
L 296.625988 99.203214 
L 299.120329 98.093227 
L 301.614671 98.634054 
L 304.109012 98.780665 
L 306.603353 99.951978 
L 309.097695 99.773383 
L 311.592036 100.035929 
L 314.086377 100.84457 
L 316.580719 102.171031 
L 319.07506 105.239001 
L 321.569401 106.17977 
L 324.063743 106.608896 
L 326.558084 107.363745 
L 329.052425 109.808238 
L 331.546766 108.839441 
L 334.041108 106.462072 
L 336.535449 104.602242 
L 339.02979 103.834031 
L 341.524132 104.620819 
L 344.018473 105.705157 
L 346.512814 104.465506 
L 349.007156 101.662405 
L 351.501497 101.884743 
L 353.995838 103.747874 
L 356.49018 105.404546 
L 358.984521 105.338085 
L 361.478862 104.810366 
L 363.973204 103.786677 
L 366.467545 104.22161 
L 368.961886 107.402007 
L 371.456228 109.045493 
L 373.950569 108.570375 
L 376.44491 106.969959 
L 378.939251 107.087233 
L 381.433593 106.775303 
L 383.927934 105.865231 
L 388.916617 104.827593 
L 391.410958 104.732196 
L 393.905299 104.925823 
L 396.399641 104.93239 
L 398.893982 103.00082 
L 401.388323 102.104636 
L 403.882665 101.930377 
L 408.871347 97.363199 
L 411.365689 96.094915 
L 413.86003 94.614255 
L 416.354371 92.834041 
L 418.848713 91.879601 
L 421.343054 90.231041 
L 423.837395 89.117082 
L 426.331737 90.103667 
L 431.320419 90.162327 
L 433.81476 90.781928 
L 436.309102 92.015247 
L 438.803443 92.163145 
L 441.297784 90.861372 
L 443.792126 90.732662 
L 446.286467 91.717673 
L 448.780808 93.0634 
L 451.27515 93.654269 
L 453.769491 94.701653 
L 456.263832 94.69393 
L 458.758174 95.355072 
L 461.252515 95.697161 
L 463.746856 97.121857 
L 466.241198 97.303836 
L 468.735539 97.883591 
L 471.22988 98.633917 
L 473.724222 98.365497 
L 478.712904 99.656643 
L 481.207246 101.857682 
L 486.195928 103.464497 
L 488.690269 103.583746 
L 491.184611 103.389729 
L 493.678952 103.791459 
L 496.173293 103.131801 
L 498.667635 101.31226 
L 501.161976 102.51433 
L 503.656317 103.257427 
L 506.150659 103.413079 
L 508.645 103.222568 
L 511.139341 101.744592 
L 513.633683 101.794749 
L 516.128024 102.763408 
L 518.622365 105.235641 
L 521.116707 103.744848 
L 523.611048 102.883772 
L 526.105389 103.352524 
L 528.599731 102.316514 
L 531.094072 99.941144 
L 533.588413 98.033385 
L 536.082754 99.016886 
L 538.577096 98.979557 
L 541.071437 99.575482 
L 543.565778 99.785194 
L 546.06012 99.006115 
L 548.554461 99.668577 
L 551.048802 102.232799 
L 553.543144 103.717723 
L 556.037485 102.876904 
L 558.531826 103.479909 
L 561.026168 104.453627 
L 563.520509 104.35554 
L 566.01485 105.006979 
L 568.509192 106.490229 
L 571.003533 108.106169 
L 573.497874 108.726769 
L 575.992216 109.764561 
L 578.486557 109.337276 
L 580.980898 108.660368 
L 583.47524 107.805066 
L 585.969581 106.710202 
L 588.463922 106.220437 
L 593.452605 107.971704 
L 595.946946 107.348326 
L 598.441287 107.796329 
L 603.42997 109.935945 
L 605.924311 110.856104 
L 608.418653 109.811607 
L 610.912994 109.27641 
L 613.407335 109.310415 
L 618.396018 109.707961 
L 620.890359 109.360536 
L 623.384701 108.807945 
L 625.879042 109.563186 
L 628.373383 110.679143 
L 630.867725 110.035302 
L 633.362066 108.071065 
L 635.856407 107.083114 
L 638.350749 107.128527 
L 640.84509 106.998968 
L 643.339431 108.050406 
L 645.833772 106.662461 
L 648.328114 104.750016 
L 650.822455 103.516636 
L 653.316796 103.547654 
L 655.811138 104.52464 
L 660.79982 102.524275 
L 663.294162 101.791293 
L 665.788503 102.694978 
L 668.282844 104.511607 
L 670.777186 105.325208 
L 673.271527 106.25664 
L 675.765868 105.728441 
L 680.754551 107.723276 
L 683.248892 107.909836 
L 685.743234 107.113433 
L 688.237575 107.379407 
L 690.731916 108.600849 
L 695.720599 109.982659 
L 698.21494 109.497938 
L 700.709281 107.340268 
L 703.203623 105.809529 
L 708.192305 104.260295 
L 710.686647 104.405101 
L 713.180988 104.358619 
L 715.675329 104.179624 
L 720.664012 105.173835 
L 723.158353 104.645344 
L 725.652695 105.064019 
L 728.147036 103.204361 
L 730.641377 102.237284 
L 733.135719 100.856221 
L 735.63006 99.886676 
L 738.124401 98.68721 
L 740.618743 99.295642 
L 743.113084 101.131572 
L 745.607425 100.90787 
L 748.101766 101.037907 
L 750.596108 99.720304 
L 753.090449 100.317054 
L 755.58479 100.762163 
L 760.573473 102.351512 
L 763.067814 102.836968 
L 768.056497 105.818771 
L 770.550838 106.25672 
L 773.04518 105.419123 
L 775.539521 102.971812 
L 778.033862 101.345509 
L 780.528204 99.447413 
L 783.022545 99.169575 
L 785.516886 99.223272 
L 788.011228 98.80206 
L 792.99991 96.76957 
L 795.494251 98.272295 
L 797.988593 99.121379 
L 800.482934 100.409532 
L 802.977275 100.175307 
L 805.471617 99.267975 
L 807.965958 98.940329 
L 812.954641 101.158282 
L 815.448982 101.843292 
L 817.943323 101.416397 
L 820.437665 101.251912 
L 822.932006 100.970678 
L 825.426347 99.747705 
L 827.920689 99.282548 
L 830.41503 99.188807 
L 832.909371 98.01309 
L 835.403713 97.034241 
L 840.392395 98.278795 
L 842.886737 99.666948 
L 845.381078 101.656554 
L 847.875419 102.661045 
L 850.36976 102.870702 
L 852.864102 103.872036 
L 855.358443 104.148234 
L 857.852784 105.163685 
L 860.347126 106.012892 
L 862.841467 105.644861 
L 865.335808 104.564909 
L 867.83015 104.341718 
L 870.324491 104.305144 
L 872.818832 104.45607 
L 875.313174 105.792993 
L 877.807515 106.07901 
L 880.301856 105.686279 
L 882.796198 104.592308 
L 885.290539 104.593563 
L 887.78488 104.763507 
L 890.279222 105.275487 
L 892.773563 105.270505 
L 895.267904 104.119849 
L 897.762246 102.196287 
L 900.256587 102.108512 
L 902.750928 102.851899 
L 905.245269 103.42866 
L 907.739611 103.889403 
L 910.233952 105.187169 
L 912.728293 106.61118 
L 912.728293 106.61118 
" clip-path="url(#pf0e58ee58c)" style="fill: none; stroke: #1f77b4; stroke-width: 1.5; stroke-linecap: square"/>
   </g>
   <g id="line2d_13">
    <path d="M 381.433593 309.04 
L 381.433593 30.48 
" clip-path="url(#pf0e58ee58c)" style="fill: none; stroke-dasharray: 5.55,2.4; stroke-dashoffset: 0; stroke: #808080; stroke-width: 1.5"/>
   </g>
   <g id="line2d_14">
    <path d="M 92.09 102.641955 
L 925.2 102.641955 
" clip-path="url(#pf0e58ee58c)" style="fill: none; stroke: #ff0000; stroke-opacity: 0.3; stroke-width: 1.5; stroke-linecap: square"/>
   </g>
   <g id="patch_4">
    <path d="M 92.09 309.04 
L 92.09 30.48 
" style="fill: none; stroke: #000000; stroke-width: 0.8; stroke-linejoin: miter; stroke-linecap: square"/>
   </g>
   <g id="patch_5">
    <path d="M 925.2 309.04 
L 925.2 30.48 
" style="fill: none; stroke: #000000; stroke-width: 0.8; stroke-linejoin: miter; stroke-linecap: square"/>
   </g>
   <g id="patch_6">
    <path d="M 92.09 309.04 
L 925.2 309.04 
" style="fill: none; stroke: #000000; stroke-width: 0.8; stroke-linejoin: miter; stroke-linecap: square"/>
   </g>
   <g id="patch_7">
    <path d="M 92.09 30.48 
L 925.2 30.48 
" style="fill: none; stroke: #000000; stroke-width: 0.8; stroke-linejoin: miter; stroke-linecap: square"/>
   </g>
   <g id="text_14">
    <!-- Energy -->
    <g transform="translate(478.3942 24.48) scale(0.1728 -0.1728)">
     <defs>
      <path id="DejaVuSans-45" d="M 628 4666 
L 3578 4666 
L 3578 4134 
L 1259 4134 
L 1259 2753 
L 3481 2753 
L 3481 2222 
L 1259 2222 
L 1259 531 
L 3634 531 
L 3634 0 
L 628 0 
L 628 4666 
z
" transform="scale(0.015625)"/>
     </defs>
     <use xlink:href="#DejaVuSans-45"/>
     <use xlink:href="#DejaVuSans-6e" x="63.183594"/>
     <use xlink:href="#DejaVuSans-65" x="126.5625"/>
     <use xlink:href="#DejaVuSans-72" x="188.085938"/>
     <use xlink:href="#DejaVuSans-67" x="227.449219"/>
     <use xlink:href="#DejaVuSans-79" x="290.925781"/>
    </g>
   </g>
  </g>
  <g id="axes_2">
   <g id="patch_8">
    <path d="M 92.09 663.64 
L 475.335 663.64 
L 475.335 385.08 
L 92.09 385.08 
z
" style="fill: #ffffff"/>
   </g>
   <g id="patch_9">
    <path d="M 92.09 663.64 
L 92.09 385.08 
L 225.193054 385.08 
L 225.193054 663.64 
z
" clip-path="url(#pf36c5b376b)" style="fill: #808080; opacity: 0.15"/>
   </g>
   <g id="matplotlib.axis_3">
    <g id="xtick_8">
     <g id="line2d_15">
      <g>
       <use xlink:href="#m134459723a" x="92.09" y="663.64" style="stroke: #000000; stroke-width: 0.8"/>
      </g>
     </g>
     <g id="text_15">
      <!-- 0.0 -->
      <g transform="translate(78.3497 683.7701) scale(0.1728 -0.1728)">
       <use xlink:href="#DejaVuSans-30"/>
       <use xlink:href="#DejaVuSans-2e" x="63.623047"/>
       <use xlink:href="#DejaVuSans-30" x="95.410156"/>
      </g>
     </g>
    </g>
    <g id="xtick_9">
     <g id="line2d_16">
      <g>
       <use xlink:href="#m134459723a" x="149.462006" y="663.64" style="stroke: #000000; stroke-width: 0.8"/>
      </g>
     </g>
     <g id="text_16">
      <!-- 0.5 -->
      <g transform="translate(135.721706 683.7701) scale(0.1728 -0.1728)">
       <use xlink:href="#DejaVuSans-30"/>
       <use xlink:href="#DejaVuSans-2e" x="63.623047"/>
       <use xlink:href="#DejaVuSans-35" x="95.410156"/>
      </g>
     </g>
    </g>
    <g id="xtick_10">
     <g id="line2d_17">
      <g>
       <use xlink:href="#m134459723a" x="206.834012" y="663.64" style="stroke: #000000; stroke-width: 0.8"/>
      </g>
     </g>
     <g id="text_17">
      <!-- 1.0 -->
      <g transform="translate(193.093712 683.7701) scale(0.1728 -0.1728)">
       <use xlink:href="#DejaVuSans-31"/>
       <use xlink:href="#DejaVuSans-2e" x="63.623047"/>
       <use xlink:href="#DejaVuSans-30" x="95.410156"/>
      </g>
     </g>
    </g>
    <g id="xtick_11">
     <g id="line2d_18">
      <g>
       <use xlink:href="#m134459723a" x="264.206018" y="663.64" style="stroke: #000000; stroke-width: 0.8"/>
      </g>
     </g>
     <g id="text_18">
      <!-- 1.5 -->
      <g transform="translate(250.465718 683.7701) scale(0.1728 -0.1728)">
       <use xlink:href="#DejaVuSans-31"/>
       <use xlink:href="#DejaVuSans-2e" x="63.623047"/>
       <use xlink:href="#DejaVuSans-35" x="95.410156"/>
      </g>
     </g>
    </g>
    <g id="xtick_12">
     <g id="line2d_19">
      <g>
       <use xlink:href="#m134459723a" x="321.578024" y="663.64" style="stroke: #000000; stroke-width: 0.8"/>
      </g>
     </g>
     <g id="text_19">
      <!-- 2.0 -->
      <g transform="translate(307.837724 683.7701) scale(0.1728 -0.1728)">
       <use xlink:href="#DejaVuSans-32"/>
       <use xlink:href="#DejaVuSans-2e" x="63.623047"/>
       <use xlink:href="#DejaVuSans-30" x="95.410156"/>
      </g>
     </g>
    </g>
    <g id="xtick_13">
     <g id="line2d_20">
      <g>
       <use xlink:href="#m134459723a" x="378.95003" y="663.64" style="stroke: #000000; stroke-width: 0.8"/>
      </g>
     </g>
     <g id="text_20">
      <!-- 2.5 -->
      <g transform="translate(365.20973 683.7701) scale(0.1728 -0.1728)">
       <use xlink:href="#DejaVuSans-32"/>
       <use xlink:href="#DejaVuSans-2e" x="63.623047"/>
       <use xlink:href="#DejaVuSans-35" x="95.410156"/>
      </g>
     </g>
    </g>
    <g id="xtick_14">
     <g id="line2d_21">
      <g>
       <use xlink:href="#m134459723a" x="436.322036" y="663.64" style="stroke: #000000; stroke-width: 0.8"/>
      </g>
     </g>
     <g id="text_21">
      <!-- 3.0 -->
      <g transform="translate(422.581736 683.7701) scale(0.1728 -0.1728)">
       <use xlink:href="#DejaVuSans-33"/>
       <use xlink:href="#DejaVuSans-2e" x="63.623047"/>
       <use xlink:href="#DejaVuSans-30" x="95.410156"/>
      </g>
     </g>
    </g>
    <g id="text_22">
     <!-- time in a.u. -->
     <g transform="translate(234.56305 704.4939) scale(0.1728 -0.1728)">
      <use xlink:href="#DejaVuSans-74"/>
      <use xlink:href="#DejaVuSans-69" x="39.208984"/>
      <use xlink:href="#DejaVuSans-6d" x="66.992188"/>
      <use xlink:href="#DejaVuSans-65" x="164.404297"/>
      <use xlink:href="#DejaVuSans-20" x="225.927734"/>
      <use xlink:href="#DejaVuSans-69" x="257.714844"/>
      <use xlink:href="#DejaVuSans-6e" x="285.498047"/>
      <use xlink:href="#DejaVuSans-20" x="348.876953"/>
      <use xlink:href="#DejaVuSans-61" x="380.664062"/>
      <use xlink:href="#DejaVuSans-2e" x="441.943359"/>
      <use xlink:href="#DejaVuSans-75" x="473.730469"/>
      <use xlink:href="#DejaVuSans-2e" x="537.109375"/>
     </g>
    </g>
   </g>
   <g id="matplotlib.axis_4">
    <g id="ytick_5">
     <g id="line2d_22">
      <g>
       <use xlink:href="#mba45f8ea38" x="92.09" y="646.85336" style="stroke: #000000; stroke-width: 0.8"/>
      </g>
     </g>
     <g id="text_23">
      <!-- −0.25 -->
      <g transform="translate(32.1349 653.41841) scale(0.1728 -0.1728)">
       <defs>
        <path id="DejaVuSans-2212" d="M 678 2272 
L 4684 2272 
L 4684 1741 
L 678 1741 
L 678 2272 
z
" transform="scale(0.015625)"/>
       </defs>
       <use xlink:href="#DejaVuSans-2212"/>
       <use xlink:href="#DejaVuSans-30" x="83.789062"/>
       <use xlink:href="#DejaVuSans-2e" x="147.412109"/>
       <use xlink:href="#DejaVuSans-32" x="179.199219"/>
       <use xlink:href="#DejaVuSans-35" x="242.822266"/>
      </g>
     </g>
    </g>
    <g id="ytick_6">
     <g id="line2d_23">
      <g>
       <use xlink:href="#mba45f8ea38" x="92.09" y="603.522596" style="stroke: #000000; stroke-width: 0.8"/>
      </g>
     </g>
     <g id="text_24">
      <!-- 0.00 -->
      <g transform="translate(46.615 610.087646) scale(0.1728 -0.1728)">
       <use xlink:href="#DejaVuSans-30"/>
       <use xlink:href="#DejaVuSans-2e" x="63.623047"/>
       <use xlink:href="#DejaVuSans-30" x="95.410156"/>
       <use xlink:href="#DejaVuSans-30" x="159.033203"/>
      </g>
     </g>
    </g>
    <g id="ytick_7">
     <g id="line2d_24">
      <g>
       <use xlink:href="#mba45f8ea38" x="92.09" y="560.191832" style="stroke: #000000; stroke-width: 0.8"/>
      </g>
     </g>
     <g id="text_25">
      <!-- 0.25 -->
      <g transform="translate(46.615 566.756882) scale(0.1728 -0.1728)">
       <use xlink:href="#DejaVuSans-30"/>
       <use xlink:href="#DejaVuSans-2e" x="63.623047"/>
       <use xlink:href="#DejaVuSans-32" x="95.410156"/>
       <use xlink:href="#DejaVuSans-35" x="159.033203"/>
      </g>
     </g>
    </g>
    <g id="ytick_8">
     <g id="line2d_25">
      <g>
       <use xlink:href="#mba45f8ea38" x="92.09" y="516.861069" style="stroke: #000000; stroke-width: 0.8"/>
      </g>
     </g>
     <g id="text_26">
      <!-- 0.50 -->
      <g transform="translate(46.615 523.426119) scale(0.1728 -0.1728)">
       <use xlink:href="#DejaVuSans-30"/>
       <use xlink:href="#DejaVuSans-2e" x="63.623047"/>
       <use xlink:href="#DejaVuSans-35" x="95.410156"/>
       <use xlink:href="#DejaVuSans-30" x="159.033203"/>
      </g>
     </g>
    </g>
    <g id="ytick_9">
     <g id="line2d_26">
      <g>
       <use xlink:href="#mba45f8ea38" x="92.09" y="473.530305" style="stroke: #000000; stroke-width: 0.8"/>
      </g>
     </g>
     <g id="text_27">
      <!-- 0.75 -->
      <g transform="translate(46.615 480.095355) scale(0.1728 -0.1728)">
       <defs>
        <path id="DejaVuSans-37" d="M 525 4666 
L 3525 4666 
L 3525 4397 
L 1831 0 
L 1172 0 
L 2766 4134 
L 525 4134 
L 525 4666 
z
" transform="scale(0.015625)"/>
       </defs>
       <use xlink:href="#DejaVuSans-30"/>
       <use xlink:href="#DejaVuSans-2e" x="63.623047"/>
       <use xlink:href="#DejaVuSans-37" x="95.410156"/>
       <use xlink:href="#DejaVuSans-35" x="159.033203"/>
      </g>
     </g>
    </g>
    <g id="ytick_10">
     <g id="line2d_27">
      <g>
       <use xlink:href="#mba45f8ea38" x="92.09" y="430.199541" style="stroke: #000000; stroke-width: 0.8"/>
      </g>
     </g>
     <g id="text_28">
      <!-- 1.00 -->
      <g transform="translate(46.615 436.764591) scale(0.1728 -0.1728)">
       <use xlink:href="#DejaVuSans-31"/>
       <use xlink:href="#DejaVuSans-2e" x="63.623047"/>
       <use xlink:href="#DejaVuSans-30" x="95.410156"/>
       <use xlink:href="#DejaVuSans-30" x="159.033203"/>
      </g>
     </g>
    </g>
    <g id="ytick_11">
     <g id="line2d_28">
      <g>
       <use xlink:href="#mba45f8ea38" x="92.09" y="386.868777" style="stroke: #000000; stroke-width: 0.8"/>
      </g>
     </g>
     <g id="text_29">
      <!-- 1.25 -->
      <g transform="translate(46.615 393.433827) scale(0.1728 -0.1728)">
       <use xlink:href="#DejaVuSans-31"/>
       <use xlink:href="#DejaVuSans-2e" x="63.623047"/>
       <use xlink:href="#DejaVuSans-32" x="95.410156"/>
       <use xlink:href="#DejaVuSans-35" x="159.033203"/>
      </g>
     </g>
    </g>
    <g id="text_30">
     <!-- (avg. M=4) pressure in a.u. -->
     <g transform="translate(24.5412 642.36485) rotate(-90) scale(0.1728 -0.1728)">
      <defs>
       <path id="DejaVuSans-70" d="M 1159 525 
L 1159 -1331 
L 581 -1331 
L 581 3500 
L 1159 3500 
L 1159 2969 
Q 1341 3281 1617 3432 
Q 1894 3584 2278 3584 
Q 2916 3584 3314 3078 
Q 3713 2572 3713 1747 
Q 3713 922 3314 415 
Q 2916 -91 2278 -91 
Q 1894 -91 1617 61 
Q 1341 213 1159 525 
z
M 3116 1747 
Q 3116 2381 2855 2742 
Q 2594 3103 2138 3103 
Q 1681 3103 1420 2742 
Q 1159 2381 1159 1747 
Q 1159 1113 1420 752 
Q 1681 391 2138 391 
Q 2594 391 2855 752 
Q 3116 1113 3116 1747 
z
" transform="scale(0.015625)"/>
       <path id="DejaVuSans-73" d="M 2834 3397 
L 2834 2853 
Q 2591 2978 2328 3040 
Q 2066 3103 1784 3103 
Q 1356 3103 1142 2972 
Q 928 2841 928 2578 
Q 928 2378 1081 2264 
Q 1234 2150 1697 2047 
L 1894 2003 
Q 2506 1872 2764 1633 
Q 3022 1394 3022 966 
Q 3022 478 2636 193 
Q 2250 -91 1575 -91 
Q 1294 -91 989 -36 
Q 684 19 347 128 
L 347 722 
Q 666 556 975 473 
Q 1284 391 1588 391 
Q 1994 391 2212 530 
Q 2431 669 2431 922 
Q 2431 1156 2273 1281 
Q 2116 1406 1581 1522 
L 1381 1569 
Q 847 1681 609 1914 
Q 372 2147 372 2553 
Q 372 3047 722 3315 
Q 1072 3584 1716 3584 
Q 2034 3584 2315 3537 
Q 2597 3491 2834 3397 
z
" transform="scale(0.015625)"/>
      </defs>
      <use xlink:href="#DejaVuSans-28"/>
      <use xlink:href="#DejaVuSans-61" x="39.013672"/>
      <use xlink:href="#DejaVuSans-76" x="100.292969"/>
      <use xlink:href="#DejaVuSans-67" x="159.472656"/>
      <use xlink:href="#DejaVuSans-2e" x="222.949219"/>
      <use xlink:href="#DejaVuSans-20" x="254.736328"/>
      <use xlink:href="#DejaVuSans-4d" x="286.523438"/>
      <use xlink:href="#DejaVuSans-3d" x="372.802734"/>
      <use xlink:href="#DejaVuSans-34" x="456.591797"/>
      <use xlink:href="#DejaVuSans-29" x="520.214844"/>
      <use xlink:href="#DejaVuSans-20" x="559.228516"/>
      <use xlink:href="#DejaVuSans-70" x="591.015625"/>
      <use xlink:href="#DejaVuSans-72" x="654.492188"/>
      <use xlink:href="#DejaVuSans-65" x="693.355469"/>
      <use xlink:href="#DejaVuSans-73" x="754.878906"/>
      <use xlink:href="#DejaVuSans-73" x="806.978516"/>
      <use xlink:href="#DejaVuSans-75" x="859.078125"/>
      <use xlink:href="#DejaVuSans-72" x="922.457031"/>
      <use xlink:href="#DejaVuSans-65" x="961.320312"/>
      <use xlink:href="#DejaVuSans-20" x="1022.84375"/>
      <use xlink:href="#DejaVuSans-69" x="1054.630859"/>
      <use xlink:href="#DejaVuSans-6e" x="1082.414062"/>
      <use xlink:href="#DejaVuSans-20" x="1145.792969"/>
      <use xlink:href="#DejaVuSans-61" x="1177.580078"/>
      <use xlink:href="#DejaVuSans-2e" x="1238.859375"/>
      <use xlink:href="#DejaVuSans-75" x="1270.646484"/>
      <use xlink:href="#DejaVuSans-2e" x="1334.025391"/>
     </g>
    </g>
   </g>
   <g id="line2d_29">
    <path d="M 96.67976 595.717027 
L 97.827201 584.611639 
L 98.974641 576.803569 
L 100.122081 564.079759 
L 102.416961 529.456225 
L 103.564401 516.302728 
L 104.711841 507.320785 
L 105.859281 503.000461 
L 107.006722 495.72089 
L 108.154162 487.197844 
L 109.301602 489.333495 
L 110.449042 498.943213 
L 111.596482 505.608829 
L 112.743922 505.20567 
L 113.891362 499.549085 
L 115.038802 487.57616 
L 116.186243 488.581404 
L 117.333683 500.913488 
L 118.481123 507.978975 
L 119.628563 512.110805 
L 120.776003 519.520313 
L 121.923443 529.935953 
L 123.070883 538.585816 
L 124.218323 544.744051 
L 125.365763 542.855518 
L 127.660644 524.096297 
L 128.808084 517.421281 
L 129.955524 511.416212 
L 131.102964 506.417974 
L 132.250404 503.716472 
L 133.397844 507.202405 
L 134.545284 508.887701 
L 135.692725 508.397629 
L 136.840165 509.584489 
L 137.987605 511.443859 
L 139.135045 512.434476 
L 140.282485 510.769178 
L 141.429925 512.079197 
L 142.577365 517.933571 
L 143.724805 524.779587 
L 144.872246 527.295956 
L 146.019686 528.579753 
L 147.167126 526.812066 
L 148.314566 523.750082 
L 149.462006 525.803 
L 150.609446 528.864108 
L 151.756886 525.569623 
L 152.904326 514.619047 
L 154.051766 512.229681 
L 156.346647 505.43977 
L 157.494087 505.327911 
L 159.788967 491.809212 
L 160.936407 489.89473 
L 163.231287 510.706503 
L 164.378728 518.512408 
L 165.526168 519.947058 
L 166.673608 521.008637 
L 167.821048 523.493685 
L 168.968488 519.590812 
L 170.115928 517.865944 
L 171.263368 518.780443 
L 172.410808 517.440731 
L 173.558249 515.754435 
L 174.705689 516.24219 
L 175.853129 512.059901 
L 177.000569 509.926428 
L 178.148009 512.307125 
L 179.295449 512.249329 
L 181.590329 491.824963 
L 182.737769 487.710487 
L 183.88521 489.921105 
L 185.03265 495.582946 
L 186.18009 495.021557 
L 188.47497 504.388547 
L 189.62241 512.126759 
L 191.91729 518.018746 
L 193.064731 522.035507 
L 194.212171 526.736221 
L 195.359611 535.959269 
L 196.507051 536.730812 
L 197.654491 533.577949 
L 198.801931 530.078376 
L 199.949371 531.463097 
L 201.096811 521.626481 
L 202.244251 506.375824 
L 203.391692 494.013417 
L 204.539132 487.750595 
L 205.686572 488.993201 
L 206.834012 492.909592 
L 207.981452 490.166679 
L 209.128892 482.723126 
L 210.276332 485.759273 
L 212.571213 505.043007 
L 213.718653 507.71301 
L 214.866093 507.684372 
L 216.013533 506.007234 
L 217.160973 509.02905 
L 218.308413 520.534296 
L 219.455853 526.104945 
L 220.603293 522.21619 
L 221.750734 512.71526 
L 224.045614 504.304615 
L 225.193054 499.399894 
L 226.340494 497.444404 
L 227.487934 498.304562 
L 228.635374 502.930676 
L 230.930254 518.739434 
L 232.077695 520.952304 
L 233.225135 525.868006 
L 234.372575 532.940839 
L 235.520015 532.564725 
L 236.667455 530.713931 
L 237.814895 532.047303 
L 238.962335 532.482699 
L 240.109775 531.143582 
L 241.257216 531.678256 
L 242.404656 529.619169 
L 243.552096 528.581301 
L 244.699536 534.192145 
L 245.846976 536.259626 
L 246.994416 537.227125 
L 248.141856 539.107678 
L 249.289296 541.739095 
L 250.436737 539.426813 
L 251.584177 530.678454 
L 252.731617 524.542912 
L 253.879057 522.368779 
L 255.026497 521.82951 
L 256.173937 518.825144 
L 257.321377 516.78569 
L 258.468817 511.410887 
L 260.763698 505.632413 
L 261.911138 507.203617 
L 263.058578 505.397147 
L 264.206018 504.485298 
L 265.353458 504.184404 
L 266.500898 500.874277 
L 267.648338 500.748365 
L 268.795778 501.569146 
L 269.943219 507.698605 
L 271.090659 509.321542 
L 272.238099 509.582398 
L 273.385539 507.31405 
L 274.532979 503.651769 
L 275.680419 501.64159 
L 276.827859 496.328541 
L 277.975299 487.184971 
L 279.12274 488.994271 
L 280.27018 491.700758 
L 282.56506 495.06237 
L 283.7125 493.289634 
L 284.85994 497.54258 
L 286.00738 506.076677 
L 287.15482 520.066545 
L 288.30226 520.50109 
L 289.449701 520.610731 
L 290.597141 523.971042 
L 291.744581 521.312462 
L 292.892021 513.237273 
L 294.039461 506.429198 
L 295.186901 509.834483 
L 296.334341 510.658128 
L 297.481781 512.344602 
L 298.629222 511.715254 
L 299.776662 506.88253 
L 300.924102 506.223093 
L 302.071542 511.897368 
L 303.218982 514.292017 
L 304.366422 508.568144 
L 305.513862 506.940339 
L 306.661302 507.041369 
L 307.808743 503.859775 
L 308.956183 503.173575 
L 310.103623 505.925975 
L 311.251063 509.719001 
L 312.398503 509.997071 
L 313.545943 510.830034 
L 314.693383 506.522782 
L 315.840823 501.368533 
L 316.988263 496.867037 
L 318.135704 493.315776 
L 319.283144 493.317281 
L 321.578024 504.807324 
L 322.725464 505.331313 
L 323.872904 508.632371 
L 325.020344 514.063631 
L 326.167784 518.327818 
L 327.315225 521.015733 
L 328.462665 516.32786 
L 329.610105 512.551845 
L 330.757545 511.240948 
L 331.904985 511.596734 
L 333.052425 512.6244 
L 334.199865 512.946201 
L 335.347305 513.448548 
L 336.494746 518.941932 
L 337.642186 526.023948 
L 338.789626 527.049316 
L 339.937066 523.175987 
L 341.084506 522.305803 
L 342.231946 525.449677 
L 343.379386 528.001021 
L 344.526826 533.513773 
L 345.674266 529.798626 
L 346.821707 522.296488 
L 347.969147 516.267607 
L 349.116587 513.89105 
L 350.264027 514.02676 
L 353.706347 492.801414 
L 354.853787 493.101365 
L 356.001228 498.088266 
L 357.148668 500.351418 
L 358.296108 503.144622 
L 359.443548 501.779533 
L 361.738428 509.933854 
L 362.885868 511.580859 
L 364.033308 509.864724 
L 365.180749 511.687786 
L 366.328189 517.542228 
L 367.475629 522.165105 
L 368.623069 525.774149 
L 369.770509 524.882009 
L 370.917949 517.66414 
L 372.065389 512.059498 
L 373.212829 509.959852 
L 374.360269 509.813082 
L 375.50771 514.13157 
L 377.80259 524.142699 
L 380.09747 537.688431 
L 381.24491 539.506959 
L 382.39235 542.408941 
L 384.687231 528.630419 
L 388.129551 498.464964 
L 389.276991 495.040948 
L 390.424431 497.225641 
L 391.571871 493.145537 
L 392.719311 489.818812 
L 393.866751 482.294451 
L 395.014192 482.213336 
L 396.161632 484.233524 
L 397.309072 489.265889 
L 399.603952 502.6965 
L 401.898832 525.252075 
L 403.046272 532.909045 
L 404.193713 535.013281 
L 405.341153 529.899499 
L 406.488593 525.841834 
L 407.636033 520.612112 
L 408.783473 520.455322 
L 409.930913 521.357507 
L 411.078353 520.039264 
L 413.373234 512.239455 
L 414.520674 517.344744 
L 415.668114 521.617182 
L 416.815554 527.116385 
L 417.962994 527.404947 
L 419.110434 525.030832 
L 420.257874 524.861047 
L 421.405314 530.100545 
L 422.552754 536.265033 
L 423.700195 540.512838 
L 424.847635 539.998593 
L 425.995075 538.609933 
L 427.142515 535.698876 
L 428.289955 529.027536 
L 429.437395 524.37685 
L 430.584835 521.116311 
L 432.879716 508.341158 
L 434.027156 507.808915 
L 435.174596 509.170287 
L 436.322036 513.725554 
L 437.469476 520.528414 
L 438.616916 524.024387 
L 439.764356 524.310659 
L 440.911796 526.921439 
L 442.059237 527.628455 
L 443.206677 530.880951 
L 444.354117 533.72928 
L 445.501557 532.515545 
L 446.648997 528.824115 
L 447.796437 528.304666 
L 448.943877 529.409276 
L 450.091317 531.997686 
L 451.238757 539.208607 
L 452.386198 543.207512 
L 453.533638 544.081763 
L 454.681078 541.638731 
L 455.828518 541.931494 
L 456.975958 542.083675 
L 458.123398 541.996657 
L 459.270838 538.217648 
L 460.418278 528.69772 
L 461.565719 515.073398 
L 462.713159 507.274249 
L 465.008039 499.945682 
L 466.155479 496.501959 
L 467.302919 496.174173 
L 468.450359 496.968202 
L 469.597799 495.286572 
L 469.597799 495.286572 
" clip-path="url(#pf36c5b376b)" style="fill: none; stroke: #1f77b4; stroke-width: 1.5; stroke-linecap: square"/>
   </g>
   <g id="line2d_30">
    <path d="M 225.193054 663.64 
L 225.193054 385.08 
" clip-path="url(#pf36c5b376b)" style="fill: none; stroke-dasharray: 5.55,2.4; stroke-dashoffset: 0; stroke: #808080; stroke-width: 1.5"/>
   </g>
   <g id="line2d_31">
    <path d="M 92.09 515.368881 
L 475.335 515.368881 
" clip-path="url(#pf36c5b376b)" style="fill: none; stroke: #ff0000; stroke-opacity: 0.3; stroke-width: 1.5; stroke-linecap: square"/>
   </g>
   <g id="patch_10">
    <path d="M 92.09 663.64 
L 92.09 385.08 
" style="fill: none; stroke: #000000; stroke-width: 0.8; stroke-linejoin: miter; stroke-linecap: square"/>
   </g>
   <g id="patch_11">
    <path d="M 475.335 663.64 
L 475.335 385.08 
" style="fill: none; stroke: #000000; stroke-width: 0.8; stroke-linejoin: miter; stroke-linecap: square"/>
   </g>
   <g id="patch_12">
    <path d="M 92.09 663.64 
L 475.335 663.64 
" style="fill: none; stroke: #000000; stroke-width: 0.8; stroke-linejoin: miter; stroke-linecap: square"/>
   </g>
   <g id="patch_13">
    <path d="M 92.09 385.08 
L 475.335 385.08 
" style="fill: none; stroke: #000000; stroke-width: 0.8; stroke-linejoin: miter; stroke-linecap: square"/>
   </g>
   <g id="text_31">
    <!-- Pressure -->
    <g transform="translate(246.82915 379.08) scale(0.1728 -0.1728)">
     <defs>
      <path id="DejaVuSans-50" d="M 1259 4147 
L 1259 2394 
L 2053 2394 
Q 2494 2394 2734 2622 
Q 2975 2850 2975 3272 
Q 2975 3691 2734 3919 
Q 2494 4147 2053 4147 
L 1259 4147 
z
M 628 4666 
L 2053 4666 
Q 2838 4666 3239 4311 
Q 3641 3956 3641 3272 
Q 3641 2581 3239 2228 
Q 2838 1875 2053 1875 
L 1259 1875 
L 1259 0 
L 628 0 
L 628 4666 
z
" transform="scale(0.015625)"/>
     </defs>
     <use xlink:href="#DejaVuSans-50"/>
     <use xlink:href="#DejaVuSans-72" x="58.552734"/>
     <use xlink:href="#DejaVuSans-65" x="97.416016"/>
     <use xlink:href="#DejaVuSans-73" x="158.939453"/>
     <use xlink:href="#DejaVuSans-73" x="211.039062"/>
     <use xlink:href="#DejaVuSans-75" x="263.138672"/>
     <use xlink:href="#DejaVuSans-72" x="326.517578"/>
     <use xlink:href="#DejaVuSans-65" x="365.380859"/>
    </g>
   </g>
  </g>
  <g id="axes_3">
   <g id="patch_14">
    <path d="M 541.955 663.64 
L 925.2 663.64 
L 925.2 385.08 
L 541.955 385.08 
z
" style="fill: #ffffff"/>
   </g>
   <g id="patch_15">
    <path d="M 541.955 663.64 
L 541.955 385.08 
L 675.058054 385.08 
L 675.058054 663.64 
z
" clip-path="url(#pcaf5a2d0c8)" style="fill: #808080; opacity: 0.15"/>
   </g>
   <g id="matplotlib.axis_5">
    <g id="xtick_15">
     <g id="line2d_32">
      <g>
       <use xlink:href="#m134459723a" x="541.955" y="663.64" style="stroke: #000000; stroke-width: 0.8"/>
      </g>
     </g>
     <g id="text_32">
      <!-- 0.0 -->
      <g transform="translate(528.2147 683.7701) scale(0.1728 -0.1728)">
       <use xlink:href="#DejaVuSans-30"/>
       <use xlink:href="#DejaVuSans-2e" x="63.623047"/>
       <use xlink:href="#DejaVuSans-30" x="95.410156"/>
      </g>
     </g>
    </g>
    <g id="xtick_16">
     <g id="line2d_33">
      <g>
       <use xlink:href="#m134459723a" x="599.327006" y="663.64" style="stroke: #000000; stroke-width: 0.8"/>
      </g>
     </g>
     <g id="text_33">
      <!-- 0.5 -->
      <g transform="translate(585.586706 683.7701) scale(0.1728 -0.1728)">
       <use xlink:href="#DejaVuSans-30"/>
       <use xlink:href="#DejaVuSans-2e" x="63.623047"/>
       <use xlink:href="#DejaVuSans-35" x="95.410156"/>
      </g>
     </g>
    </g>
    <g id="xtick_17">
     <g id="line2d_34">
      <g>
       <use xlink:href="#m134459723a" x="656.699012" y="663.64" style="stroke: #000000; stroke-width: 0.8"/>
      </g>
     </g>
     <g id="text_34">
      <!-- 1.0 -->
      <g transform="translate(642.958712 683.7701) scale(0.1728 -0.1728)">
       <use xlink:href="#DejaVuSans-31"/>
       <use xlink:href="#DejaVuSans-2e" x="63.623047"/>
       <use xlink:href="#DejaVuSans-30" x="95.410156"/>
      </g>
     </g>
    </g>
    <g id="xtick_18">
     <g id="line2d_35">
      <g>
       <use xlink:href="#m134459723a" x="714.071018" y="663.64" style="stroke: #000000; stroke-width: 0.8"/>
      </g>
     </g>
     <g id="text_35">
      <!-- 1.5 -->
      <g transform="translate(700.330718 683.7701) scale(0.1728 -0.1728)">
       <use xlink:href="#DejaVuSans-31"/>
       <use xlink:href="#DejaVuSans-2e" x="63.623047"/>
       <use xlink:href="#DejaVuSans-35" x="95.410156"/>
      </g>
     </g>
    </g>
    <g id="xtick_19">
     <g id="line2d_36">
      <g>
       <use xlink:href="#m134459723a" x="771.443024" y="663.64" style="stroke: #000000; stroke-width: 0.8"/>
      </g>
     </g>
     <g id="text_36">
      <!-- 2.0 -->
      <g transform="translate(757.702724 683.7701) scale(0.1728 -0.1728)">
       <use xlink:href="#DejaVuSans-32"/>
       <use xlink:href="#DejaVuSans-2e" x="63.623047"/>
       <use xlink:href="#DejaVuSans-30" x="95.410156"/>
      </g>
     </g>
    </g>
    <g id="xtick_20">
     <g id="line2d_37">
      <g>
       <use xlink:href="#m134459723a" x="828.81503" y="663.64" style="stroke: #000000; stroke-width: 0.8"/>
      </g>
     </g>
     <g id="text_37">
      <!-- 2.5 -->
      <g transform="translate(815.07473 683.7701) scale(0.1728 -0.1728)">
       <use xlink:href="#DejaVuSans-32"/>
       <use xlink:href="#DejaVuSans-2e" x="63.623047"/>
       <use xlink:href="#DejaVuSans-35" x="95.410156"/>
      </g>
     </g>
    </g>
    <g id="xtick_21">
     <g id="line2d_38">
      <g>
       <use xlink:href="#m134459723a" x="886.187036" y="663.64" style="stroke: #000000; stroke-width: 0.8"/>
      </g>
     </g>
     <g id="text_38">
      <!-- 3.0 -->
      <g transform="translate(872.446736 683.7701) scale(0.1728 -0.1728)">
       <use xlink:href="#DejaVuSans-33"/>
       <use xlink:href="#DejaVuSans-2e" x="63.623047"/>
       <use xlink:href="#DejaVuSans-30" x="95.410156"/>
      </g>
     </g>
    </g>
    <g id="text_39">
     <!-- time in a.u. -->
     <g transform="translate(684.42805 704.4939) scale(0.1728 -0.1728)">
      <use xlink:href="#DejaVuSans-74"/>
      <use xlink:href="#DejaVuSans-69" x="39.208984"/>
      <use xlink:href="#DejaVuSans-6d" x="66.992188"/>
      <use xlink:href="#DejaVuSans-65" x="164.404297"/>
      <use xlink:href="#DejaVuSans-20" x="225.927734"/>
      <use xlink:href="#DejaVuSans-69" x="257.714844"/>
      <use xlink:href="#DejaVuSans-6e" x="285.498047"/>
      <use xlink:href="#DejaVuSans-20" x="348.876953"/>
      <use xlink:href="#DejaVuSans-61" x="380.664062"/>
      <use xlink:href="#DejaVuSans-2e" x="441.943359"/>
      <use xlink:href="#DejaVuSans-75" x="473.730469"/>
      <use xlink:href="#DejaVuSans-2e" x="537.109375"/>
     </g>
    </g>
   </g>
   <g id="matplotlib.axis_6">
    <g id="ytick_12">
     <g id="line2d_39">
      <g>
       <use xlink:href="#mba45f8ea38" x="541.955" y="648.733687" style="stroke: #000000; stroke-width: 0.8"/>
      </g>
     </g>
     <g id="text_40">
      <!-- 0.0 -->
      <g transform="translate(507.4744 655.298737) scale(0.1728 -0.1728)">
       <use xlink:href="#DejaVuSans-30"/>
       <use xlink:href="#DejaVuSans-2e" x="63.623047"/>
       <use xlink:href="#DejaVuSans-30" x="95.410156"/>
      </g>
     </g>
    </g>
    <g id="ytick_13">
     <g id="line2d_40">
      <g>
       <use xlink:href="#mba45f8ea38" x="541.955" y="594.545628" style="stroke: #000000; stroke-width: 0.8"/>
      </g>
     </g>
     <g id="text_41">
      <!-- 0.5 -->
      <g transform="translate(507.4744 601.110678) scale(0.1728 -0.1728)">
       <use xlink:href="#DejaVuSans-30"/>
       <use xlink:href="#DejaVuSans-2e" x="63.623047"/>
       <use xlink:href="#DejaVuSans-35" x="95.410156"/>
      </g>
     </g>
    </g>
    <g id="ytick_14">
     <g id="line2d_41">
      <g>
       <use xlink:href="#mba45f8ea38" x="541.955" y="540.35757" style="stroke: #000000; stroke-width: 0.8"/>
      </g>
     </g>
     <g id="text_42">
      <!-- 1.0 -->
      <g transform="translate(507.4744 546.92262) scale(0.1728 -0.1728)">
       <use xlink:href="#DejaVuSans-31"/>
       <use xlink:href="#DejaVuSans-2e" x="63.623047"/>
       <use xlink:href="#DejaVuSans-30" x="95.410156"/>
      </g>
     </g>
    </g>
    <g id="ytick_15">
     <g id="line2d_42">
      <g>
       <use xlink:href="#mba45f8ea38" x="541.955" y="486.169511" style="stroke: #000000; stroke-width: 0.8"/>
      </g>
     </g>
     <g id="text_43">
      <!-- 1.5 -->
      <g transform="translate(507.4744 492.734561) scale(0.1728 -0.1728)">
       <use xlink:href="#DejaVuSans-31"/>
       <use xlink:href="#DejaVuSans-2e" x="63.623047"/>
       <use xlink:href="#DejaVuSans-35" x="95.410156"/>
      </g>
     </g>
    </g>
    <g id="ytick_16">
     <g id="line2d_43">
      <g>
       <use xlink:href="#mba45f8ea38" x="541.955" y="431.981452" style="stroke: #000000; stroke-width: 0.8"/>
      </g>
     </g>
     <g id="text_44">
      <!-- 2.0 -->
      <g transform="translate(507.4744 438.546502) scale(0.1728 -0.1728)">
       <use xlink:href="#DejaVuSans-32"/>
       <use xlink:href="#DejaVuSans-2e" x="63.623047"/>
       <use xlink:href="#DejaVuSans-30" x="95.410156"/>
      </g>
     </g>
    </g>
    <g id="text_45">
     <!-- (avg. M=4) temperature in a.u. -->
     <g transform="translate(499.8807 659.35865) rotate(-90) scale(0.1728 -0.1728)">
      <use xlink:href="#DejaVuSans-28"/>
      <use xlink:href="#DejaVuSans-61" x="39.013672"/>
      <use xlink:href="#DejaVuSans-76" x="100.292969"/>
      <use xlink:href="#DejaVuSans-67" x="159.472656"/>
      <use xlink:href="#DejaVuSans-2e" x="222.949219"/>
      <use xlink:href="#DejaVuSans-20" x="254.736328"/>
      <use xlink:href="#DejaVuSans-4d" x="286.523438"/>
      <use xlink:href="#DejaVuSans-3d" x="372.802734"/>
      <use xlink:href="#DejaVuSans-34" x="456.591797"/>
      <use xlink:href="#DejaVuSans-29" x="520.214844"/>
      <use xlink:href="#DejaVuSans-20" x="559.228516"/>
      <use xlink:href="#DejaVuSans-74" x="591.015625"/>
      <use xlink:href="#DejaVuSans-65" x="630.224609"/>
      <use xlink:href="#DejaVuSans-6d" x="691.748047"/>
      <use xlink:href="#DejaVuSans-70" x="789.160156"/>
      <use xlink:href="#DejaVuSans-65" x="852.636719"/>
      <use xlink:href="#DejaVuSans-72" x="914.160156"/>
      <use xlink:href="#DejaVuSans-61" x="955.273438"/>
      <use xlink:href="#DejaVuSans-74" x="1016.552734"/>
      <use xlink:href="#DejaVuSans-75" x="1055.761719"/>
      <use xlink:href="#DejaVuSans-72" x="1119.140625"/>
      <use xlink:href="#DejaVuSans-65" x="1158.003906"/>
      <use xlink:href="#DejaVuSans-20" x="1219.527344"/>
      <use xlink:href="#DejaVuSans-69" x="1251.314453"/>
      <use xlink:href="#DejaVuSans-6e" x="1279.097656"/>
      <use xlink:href="#DejaVuSans-20" x="1342.476562"/>
      <use xlink:href="#DejaVuSans-61" x="1374.263672"/>
      <use xlink:href="#DejaVuSans-2e" x="1435.542969"/>
      <use xlink:href="#DejaVuSans-75" x="1467.330078"/>
      <use xlink:href="#DejaVuSans-2e" x="1530.708984"/>
     </g>
    </g>
   </g>
   <g id="line2d_44">
    <path d="M 546.54476 456.021012 
L 547.692201 429.269462 
L 548.839641 429.172405 
L 549.987081 429.638212 
L 551.134521 430.383787 
L 552.281961 430.153408 
L 553.429401 429.517852 
L 555.724281 428.766174 
L 556.871722 430.512 
L 558.019162 431.806027 
L 559.166602 429.967712 
L 560.314042 429.046532 
L 561.461482 430.466672 
L 562.608922 432.448303 
L 563.756362 433.754273 
L 564.903802 435.656715 
L 566.051243 432.396973 
L 567.198683 429.940254 
L 568.346123 431.746448 
L 569.493563 432.354564 
L 571.788443 430.200826 
L 572.935883 430.261677 
L 574.083323 430.197121 
L 575.230763 431.524674 
L 576.378204 432.67386 
L 577.525644 432.257414 
L 578.673084 431.348102 
L 580.967964 431.228007 
L 582.115404 431.006247 
L 583.262844 429.782406 
L 584.410284 430.89452 
L 585.557725 431.850041 
L 586.705165 431.653333 
L 587.852605 431.727918 
L 589.000045 432.11193 
L 590.147485 432.989058 
L 591.294925 432.281766 
L 592.442365 431.202341 
L 593.589805 430.89795 
L 594.737246 431.803333 
L 595.884686 431.646647 
L 597.032126 432.215591 
L 598.179566 432.463789 
L 599.327006 431.084295 
L 600.474446 430.911898 
L 601.621886 432.574615 
L 602.769326 434.565551 
L 603.916766 432.194176 
L 605.064207 433.082617 
L 606.211647 433.2182 
L 607.359087 432.429141 
L 608.506527 434.383577 
L 609.653967 434.357146 
L 610.801407 433.417773 
L 611.948847 430.334739 
L 613.096287 430.602979 
L 614.243728 430.745417 
L 615.391168 431.917203 
L 616.538608 431.497157 
L 617.686048 430.783752 
L 618.833488 432.389093 
L 619.980928 431.492471 
L 621.128368 430.782023 
L 622.275808 431.493168 
L 623.423249 431.619003 
L 624.570689 431.073857 
L 625.718129 432.524352 
L 626.865569 431.974936 
L 628.013009 430.793819 
L 629.160449 431.370011 
L 630.307889 433.931699 
L 631.455329 433.947888 
L 633.75021 431.574808 
L 634.89765 431.031545 
L 636.04509 433.034185 
L 637.19253 431.479091 
L 638.33997 431.878371 
L 639.48741 430.902566 
L 640.63485 432.148069 
L 644.077171 430.84499 
L 645.224611 429.178562 
L 646.372051 431.13066 
L 647.519491 431.573738 
L 648.666931 431.352648 
L 649.814371 429.76069 
L 650.961811 432.851883 
L 652.109251 434.139295 
L 653.256692 433.657131 
L 654.404132 432.677151 
L 655.551572 431.29066 
L 656.699012 431.035951 
L 657.846452 433.085144 
L 658.993892 434.495317 
L 660.141332 431.775932 
L 661.288772 430.296078 
L 662.436213 430.4797 
L 663.583653 432.055793 
L 665.878533 432.859385 
L 667.025973 431.589841 
L 668.173413 429.142256 
L 669.320853 430.506165 
L 670.468293 432.38844 
L 671.615734 433.433706 
L 672.763174 431.862303 
L 673.910614 432.256483 
L 675.058054 432.802925 
L 676.205494 432.480313 
L 677.352934 432.408095 
L 679.647814 431.842142 
L 680.795254 431.951798 
L 681.942695 433.709813 
L 683.090135 432.80236 
L 684.237575 432.100382 
L 685.385015 433.97315 
L 686.532455 434.096402 
L 687.679895 433.109617 
L 689.974775 433.618449 
L 691.122216 432.838786 
L 692.269656 433.437102 
L 693.417096 433.017037 
L 694.564536 431.078547 
L 695.711976 431.9863 
L 696.859416 431.923016 
L 699.154296 430.875506 
L 700.301737 431.847739 
L 701.449177 433.152995 
L 703.744057 431.106109 
L 704.891497 430.759567 
L 706.038937 431.469121 
L 707.186377 431.058381 
L 708.333817 432.008931 
L 709.481257 431.325276 
L 710.628698 431.710121 
L 711.776138 430.670771 
L 712.923578 431.825819 
L 714.071018 431.473059 
L 715.218458 431.291301 
L 716.365898 432.208919 
L 717.513338 431.405716 
L 718.660778 431.412991 
L 719.808219 429.979641 
L 720.955659 431.229249 
L 722.103099 431.306428 
L 723.250539 431.871738 
L 724.397979 432.170221 
L 725.545419 431.637949 
L 726.692859 432.52743 
L 727.840299 433.650952 
L 728.98774 430.907802 
L 730.13518 431.317083 
L 731.28262 431.857386 
L 732.43006 432.110554 
L 733.5775 433.33426 
L 734.72494 431.904953 
L 735.87238 431.168155 
L 737.01982 429.712495 
L 738.16726 433.306059 
L 739.314701 432.769135 
L 740.462141 431.559196 
L 741.609581 432.947839 
L 742.757021 434.101933 
L 743.904461 433.735336 
L 745.051901 431.073298 
L 746.199341 432.031122 
L 747.346781 431.457356 
L 748.494222 431.781179 
L 749.641662 432.674069 
L 750.789102 431.373206 
L 751.936542 429.672099 
L 753.083982 430.61497 
L 754.231422 432.750226 
L 755.378862 431.44652 
L 756.526302 431.089328 
L 757.673743 432.066706 
L 759.968623 430.661107 
L 761.116063 430.509374 
L 762.263503 431.455409 
L 763.410943 431.028345 
L 764.558383 432.377856 
L 768.000704 432.953874 
L 769.148144 432.430467 
L 770.295584 431.204652 
L 771.443024 431.168078 
L 772.590464 432.558643 
L 773.737904 431.574683 
L 774.885344 430.958158 
L 777.180225 431.134407 
L 778.327665 432.927265 
L 780.622545 431.947412 
L 781.769985 431.765257 
L 782.917425 431.842684 
L 784.064865 432.283446 
L 785.212305 432.475964 
L 786.359746 431.314638 
L 787.507186 430.977491 
L 788.654626 432.561319 
L 789.802066 433.749264 
L 792.096946 431.910226 
L 793.244386 432.133189 
L 794.391826 431.017342 
L 795.539266 433.226262 
L 796.686707 433.712967 
L 797.834147 433.084226 
L 798.981587 431.974152 
L 800.129027 431.085443 
L 801.276467 432.936695 
L 803.571347 432.643435 
L 804.718787 431.19032 
L 805.866228 430.305031 
L 807.013668 431.266375 
L 808.161108 431.115231 
L 809.308548 432.470194 
L 810.455988 431.016856 
L 811.603428 431.143679 
L 812.750868 431.79765 
L 813.898308 432.686252 
L 816.193189 430.867853 
L 817.340629 431.324531 
L 818.488069 431.413418 
L 819.635509 432.412039 
L 820.782949 433.921278 
L 823.077829 432.699149 
L 824.225269 432.657942 
L 825.37271 431.847616 
L 827.66759 432.143087 
L 828.81503 431.5242 
L 829.96247 431.524394 
L 831.10991 432.498849 
L 832.25735 431.56463 
L 833.40479 433.679676 
L 834.552231 432.847659 
L 835.699671 433.257303 
L 836.847111 432.845385 
L 837.994551 433.060663 
L 839.141991 431.471105 
L 840.289431 430.310974 
L 841.436871 432.237188 
L 842.584311 431.825683 
L 843.731751 433.188574 
L 844.879192 431.412603 
L 846.026632 431.576211 
L 847.174072 431.26997 
L 848.321512 431.230357 
L 849.468952 431.539602 
L 850.616392 430.641957 
L 851.763832 430.630421 
L 854.058713 432.680085 
L 855.206153 434.186117 
L 856.353593 433.446285 
L 857.501033 433.720385 
L 858.648473 432.236035 
L 859.795913 431.93113 
L 860.943353 432.361511 
L 862.090793 432.911118 
L 863.238234 432.921357 
L 864.385674 430.625578 
L 865.533114 431.218123 
L 866.680554 430.798231 
L 867.827994 432.184806 
L 868.975434 432.789896 
L 870.122874 432.284207 
L 871.270314 431.043599 
L 872.417754 430.97657 
L 873.565195 431.351751 
L 874.712635 432.353661 
L 875.860075 432.143394 
L 877.007515 432.233125 
L 878.154955 433.095796 
L 879.302395 432.412268 
L 880.449835 432.046145 
L 881.597275 432.994656 
L 882.744716 432.882648 
L 883.892156 431.469071 
L 885.039596 431.37734 
L 887.334476 430.192439 
L 889.629356 431.817685 
L 890.776796 431.061318 
L 891.924237 431.733728 
L 893.071677 431.075185 
L 894.219117 431.220373 
L 895.366557 432.304259 
L 896.513997 432.965333 
L 897.661437 432.186587 
L 899.956317 431.866349 
L 901.103757 430.769894 
L 902.251198 431.727076 
L 904.546078 432.97285 
L 905.693518 431.960624 
L 906.840958 431.839512 
L 907.988398 431.52104 
L 909.135838 432.017868 
L 910.283278 433.003949 
L 911.430719 433.741524 
L 912.578159 432.092958 
L 913.725599 431.319626 
L 916.020479 431.575553 
L 917.167919 430.844696 
L 918.315359 430.665157 
L 919.462799 431.341317 
L 919.462799 431.341317 
" clip-path="url(#pcaf5a2d0c8)" style="fill: none; stroke: #1f77b4; stroke-width: 1.5; stroke-linecap: square"/>
   </g>
   <g id="line2d_45">
    <path d="M 675.058054 663.64 
L 675.058054 385.08 
" clip-path="url(#pcaf5a2d0c8)" style="fill: none; stroke-dasharray: 5.55,2.4; stroke-dashoffset: 0; stroke: #808080; stroke-width: 1.5"/>
   </g>
   <g id="line2d_46">
    <path d="M 541.955 431.944054 
L 925.2 431.944054 
" clip-path="url(#pcaf5a2d0c8)" style="fill: none; stroke: #ff0000; stroke-opacity: 0.3; stroke-width: 1.5; stroke-linecap: square"/>
   </g>
   <g id="patch_16">
    <path d="M 541.955 663.64 
L 541.955 385.08 
" style="fill: none; stroke: #000000; stroke-width: 0.8; stroke-linejoin: miter; stroke-linecap: square"/>
   </g>
   <g id="patch_17">
    <path d="M 925.2 663.64 
L 925.2 385.08 
" style="fill: none; stroke: #000000; stroke-width: 0.8; stroke-linejoin: miter; stroke-linecap: square"/>
   </g>
   <g id="patch_18">
    <path d="M 541.955 663.64 
L 925.2 663.64 
" style="fill: none; stroke: #000000; stroke-width: 0.8; stroke-linejoin: miter; stroke-linecap: square"/>
   </g>
   <g id="patch_19">
    <path d="M 541.955 385.08 
L 925.2 385.08 
" style="fill: none; stroke: #000000; stroke-width: 0.8; stroke-linejoin: miter; stroke-linecap: square"/>
   </g>
   <g id="text_46">
    <!-- Temperature -->
    <g transform="translate(678.85255 379.08) scale(0.1728 -0.1728)">
     <defs>
      <path id="DejaVuSans-54" d="M -19 4666 
L 3928 4666 
L 3928 4134 
L 2272 4134 
L 2272 0 
L 1638 0 
L 1638 4134 
L -19 4134 
L -19 4666 
z
" transform="scale(0.015625)"/>
     </defs>
     <use xlink:href="#DejaVuSans-54"/>
     <use xlink:href="#DejaVuSans-65" x="44.083984"/>
     <use xlink:href="#DejaVuSans-6d" x="105.607422"/>
     <use xlink:href="#DejaVuSans-70" x="203.019531"/>
     <use xlink:href="#DejaVuSans-65" x="266.496094"/>
     <use xlink:href="#DejaVuSans-72" x="328.019531"/>
     <use xlink:href="#DejaVuSans-61" x="369.132812"/>
     <use xlink:href="#DejaVuSans-74" x="430.412109"/>
     <use xlink:href="#DejaVuSans-75" x="469.621094"/>
     <use xlink:href="#DejaVuSans-72" x="533"/>
     <use xlink:href="#DejaVuSans-65" x="571.863281"/>
    </g>
   </g>
  </g>
 </g>
 <defs>
  <clipPath id="pf0e58ee58c">
   <rect x="92.09" y="30.48" width="833.11" height="278.56"/>
  </clipPath>
  <clipPath id="pf36c5b376b">
   <rect x="92.09" y="385.08" width="383.245" height="278.56"/>
  </clipPath>
  <clipPath id="pcaf5a2d0c8">
   <rect x="541.955" y="385.08" width="383.245" height="278.56"/>
  </clipPath>
 </defs>
</svg>
