<?xml version="1.0" encoding="utf-8" standalone="no"?>
<!DOCTYPE svg PUBLIC "-//W3C//DTD SVG 1.1//EN"
  "http://www.w3.org/Graphics/SVG/1.1/DTD/svg11.dtd">
<svg xmlns:xlink="http://www.w3.org/1999/xlink" width="936pt" height="720pt" viewBox="0 0 936 720" xmlns="http://www.w3.org/2000/svg" version="1.1">
 <metadata>
  <rdf:RDF xmlns:dc="http://purl.org/dc/elements/1.1/" xmlns:cc="http://creativecommons.org/ns#" xmlns:rdf="http://www.w3.org/1999/02/22-rdf-syntax-ns#">
   <cc:Work>
    <dc:type rdf:resource="http://purl.org/dc/dcmitype/StillImage"/>
    <dc:date>2024-12-09T03:44:22.038893</dc:date>
    <dc:format>image/svg+xml</dc:format>
    <dc:creator>
     <cc:Agent>
      <dc:title>Matplotlib v3.8.0, https://matplotlib.org/</dc:title>
     </cc:Agent>
    </dc:creator>
   </cc:Work>
  </rdf:RDF>
 </metadata>
 <defs>
  <style type="text/css">*{stroke-linejoin: round; stroke-linecap: butt}</style>
 </defs>
 <g id="figure_1">
  <g id="patch_1">
   <path d="M 0 720 
L 936 720 
L 936 0 
L 0 0 
z
" style="fill: #ffffff"/>
  </g>
  <g id="axes_1">
   <g id="patch_2">
    <path d="M 81.11 309.04 
L 925.2 309.04 
L 925.2 30.48 
L 81.11 30.48 
z
" style="fill: #ffffff"/>
   </g>
   <g id="patch_3">
    <path d="M 81.11 309.04 
L 81.11 30.48 
L 398.275554 30.48 
L 398.275554 309.04 
z
" clip-path="url(#pa79bb7bb9f)" style="fill: #808080; opacity: 0.15"/>
   </g>
   <g id="matplotlib.axis_1">
    <g id="xtick_1">
     <g id="line2d_1">
      <defs>
       <path id="m3580922419" d="M 0 0 
L 0 3.5 
" style="stroke: #000000; stroke-width: 0.8"/>
      </defs>
      <g>
       <use xlink:href="#m3580922419" x="81.11" y="309.04" style="stroke: #000000; stroke-width: 0.8"/>
      </g>
     </g>
     <g id="text_1">
      <!-- 0 -->
      <g transform="translate(75.6128 329.1701) scale(0.1728 -0.1728)">
       <defs>
        <path id="DejaVuSans-30" d="M 2034 4250 
Q 1547 4250 1301 3770 
Q 1056 3291 1056 2328 
Q 1056 1369 1301 889 
Q 1547 409 2034 409 
Q 2525 409 2770 889 
Q 3016 1369 3016 2328 
Q 3016 3291 2770 3770 
Q 2525 4250 2034 4250 
z
M 2034 4750 
Q 2819 4750 3233 4129 
Q 3647 3509 3647 2328 
Q 3647 1150 3233 529 
Q 2819 -91 2034 -91 
Q 1250 -91 836 529 
Q 422 1150 422 2328 
Q 422 3509 836 4129 
Q 1250 4750 2034 4750 
z
" transform="scale(0.015625)"/>
       </defs>
       <use xlink:href="#DejaVuSans-30"/>
      </g>
     </g>
    </g>
    <g id="xtick_2">
     <g id="line2d_2">
      <g>
       <use xlink:href="#m3580922419" x="207.470778" y="309.04" style="stroke: #000000; stroke-width: 0.8"/>
      </g>
     </g>
     <g id="text_2">
      <!-- 1 -->
      <g transform="translate(201.973578 329.1701) scale(0.1728 -0.1728)">
       <defs>
        <path id="DejaVuSans-31" d="M 794 531 
L 1825 531 
L 1825 4091 
L 703 3866 
L 703 4441 
L 1819 4666 
L 2450 4666 
L 2450 531 
L 3481 531 
L 3481 0 
L 794 0 
L 794 531 
z
" transform="scale(0.015625)"/>
       </defs>
       <use xlink:href="#DejaVuSans-31"/>
      </g>
     </g>
    </g>
    <g id="xtick_3">
     <g id="line2d_3">
      <g>
       <use xlink:href="#m3580922419" x="333.831557" y="309.04" style="stroke: #000000; stroke-width: 0.8"/>
      </g>
     </g>
     <g id="text_3">
      <!-- 2 -->
      <g transform="translate(328.334357 329.1701) scale(0.1728 -0.1728)">
       <defs>
        <path id="DejaVuSans-32" d="M 1228 531 
L 3431 531 
L 3431 0 
L 469 0 
L 469 531 
Q 828 903 1448 1529 
Q 2069 2156 2228 2338 
Q 2531 2678 2651 2914 
Q 2772 3150 2772 3378 
Q 2772 3750 2511 3984 
Q 2250 4219 1831 4219 
Q 1534 4219 1204 4116 
Q 875 4013 500 3803 
L 500 4441 
Q 881 4594 1212 4672 
Q 1544 4750 1819 4750 
Q 2544 4750 2975 4387 
Q 3406 4025 3406 3419 
Q 3406 3131 3298 2873 
Q 3191 2616 2906 2266 
Q 2828 2175 2409 1742 
Q 1991 1309 1228 531 
z
" transform="scale(0.015625)"/>
       </defs>
       <use xlink:href="#DejaVuSans-32"/>
      </g>
     </g>
    </g>
    <g id="xtick_4">
     <g id="line2d_4">
      <g>
       <use xlink:href="#m3580922419" x="460.192335" y="309.04" style="stroke: #000000; stroke-width: 0.8"/>
      </g>
     </g>
     <g id="text_4">
      <!-- 3 -->
      <g transform="translate(454.695135 329.1701) scale(0.1728 -0.1728)">
       <defs>
        <path id="DejaVuSans-33" d="M 2597 2516 
Q 3050 2419 3304 2112 
Q 3559 1806 3559 1356 
Q 3559 666 3084 287 
Q 2609 -91 1734 -91 
Q 1441 -91 1130 -33 
Q 819 25 488 141 
L 488 750 
Q 750 597 1062 519 
Q 1375 441 1716 441 
Q 2309 441 2620 675 
Q 2931 909 2931 1356 
Q 2931 1769 2642 2001 
Q 2353 2234 1838 2234 
L 1294 2234 
L 1294 2753 
L 1863 2753 
Q 2328 2753 2575 2939 
Q 2822 3125 2822 3475 
Q 2822 3834 2567 4026 
Q 2313 4219 1838 4219 
Q 1578 4219 1281 4162 
Q 984 4106 628 3988 
L 628 4550 
Q 988 4650 1302 4700 
Q 1616 4750 1894 4750 
Q 2613 4750 3031 4423 
Q 3450 4097 3450 3541 
Q 3450 3153 3228 2886 
Q 3006 2619 2597 2516 
z
" transform="scale(0.015625)"/>
       </defs>
       <use xlink:href="#DejaVuSans-33"/>
      </g>
     </g>
    </g>
    <g id="xtick_5">
     <g id="line2d_5">
      <g>
       <use xlink:href="#m3580922419" x="586.553114" y="309.04" style="stroke: #000000; stroke-width: 0.8"/>
      </g>
     </g>
     <g id="text_5">
      <!-- 4 -->
      <g transform="translate(581.055914 329.1701) scale(0.1728 -0.1728)">
       <defs>
        <path id="DejaVuSans-34" d="M 2419 4116 
L 825 1625 
L 2419 1625 
L 2419 4116 
z
M 2253 4666 
L 3047 4666 
L 3047 1625 
L 3713 1625 
L 3713 1100 
L 3047 1100 
L 3047 0 
L 2419 0 
L 2419 1100 
L 313 1100 
L 313 1709 
L 2253 4666 
z
" transform="scale(0.015625)"/>
       </defs>
       <use xlink:href="#DejaVuSans-34"/>
      </g>
     </g>
    </g>
    <g id="xtick_6">
     <g id="line2d_6">
      <g>
       <use xlink:href="#m3580922419" x="712.913892" y="309.04" style="stroke: #000000; stroke-width: 0.8"/>
      </g>
     </g>
     <g id="text_6">
      <!-- 5 -->
      <g transform="translate(707.416692 329.1701) scale(0.1728 -0.1728)">
       <defs>
        <path id="DejaVuSans-35" d="M 691 4666 
L 3169 4666 
L 3169 4134 
L 1269 4134 
L 1269 2991 
Q 1406 3038 1543 3061 
Q 1681 3084 1819 3084 
Q 2600 3084 3056 2656 
Q 3513 2228 3513 1497 
Q 3513 744 3044 326 
Q 2575 -91 1722 -91 
Q 1428 -91 1123 -41 
Q 819 9 494 109 
L 494 744 
Q 775 591 1075 516 
Q 1375 441 1709 441 
Q 2250 441 2565 725 
Q 2881 1009 2881 1497 
Q 2881 1984 2565 2268 
Q 2250 2553 1709 2553 
Q 1456 2553 1204 2497 
Q 953 2441 691 2322 
L 691 4666 
z
" transform="scale(0.015625)"/>
       </defs>
       <use xlink:href="#DejaVuSans-35"/>
      </g>
     </g>
    </g>
    <g id="xtick_7">
     <g id="line2d_7">
      <g>
       <use xlink:href="#m3580922419" x="839.274671" y="309.04" style="stroke: #000000; stroke-width: 0.8"/>
      </g>
     </g>
     <g id="text_7">
      <!-- 6 -->
      <g transform="translate(833.777471 329.1701) scale(0.1728 -0.1728)">
       <defs>
        <path id="DejaVuSans-36" d="M 2113 2584 
Q 1688 2584 1439 2293 
Q 1191 2003 1191 1497 
Q 1191 994 1439 701 
Q 1688 409 2113 409 
Q 2538 409 2786 701 
Q 3034 994 3034 1497 
Q 3034 2003 2786 2293 
Q 2538 2584 2113 2584 
z
M 3366 4563 
L 3366 3988 
Q 3128 4100 2886 4159 
Q 2644 4219 2406 4219 
Q 1781 4219 1451 3797 
Q 1122 3375 1075 2522 
Q 1259 2794 1537 2939 
Q 1816 3084 2150 3084 
Q 2853 3084 3261 2657 
Q 3669 2231 3669 1497 
Q 3669 778 3244 343 
Q 2819 -91 2113 -91 
Q 1303 -91 875 529 
Q 447 1150 447 2328 
Q 447 3434 972 4092 
Q 1497 4750 2381 4750 
Q 2619 4750 2861 4703 
Q 3103 4656 3366 4563 
z
" transform="scale(0.015625)"/>
       </defs>
       <use xlink:href="#DejaVuSans-36"/>
      </g>
     </g>
    </g>
    <g id="text_8">
     <!-- time in a.u. -->
     <g transform="translate(454.00555 349.8939) scale(0.1728 -0.1728)">
      <defs>
       <path id="DejaVuSans-74" d="M 1172 4494 
L 1172 3500 
L 2356 3500 
L 2356 3053 
L 1172 3053 
L 1172 1153 
Q 1172 725 1289 603 
Q 1406 481 1766 481 
L 2356 481 
L 2356 0 
L 1766 0 
Q 1100 0 847 248 
Q 594 497 594 1153 
L 594 3053 
L 172 3053 
L 172 3500 
L 594 3500 
L 594 4494 
L 1172 4494 
z
" transform="scale(0.015625)"/>
       <path id="DejaVuSans-69" d="M 603 3500 
L 1178 3500 
L 1178 0 
L 603 0 
L 603 3500 
z
M 603 4863 
L 1178 4863 
L 1178 4134 
L 603 4134 
L 603 4863 
z
" transform="scale(0.015625)"/>
       <path id="DejaVuSans-6d" d="M 3328 2828 
Q 3544 3216 3844 3400 
Q 4144 3584 4550 3584 
Q 5097 3584 5394 3201 
Q 5691 2819 5691 2113 
L 5691 0 
L 5113 0 
L 5113 2094 
Q 5113 2597 4934 2840 
Q 4756 3084 4391 3084 
Q 3944 3084 3684 2787 
Q 3425 2491 3425 1978 
L 3425 0 
L 2847 0 
L 2847 2094 
Q 2847 2600 2669 2842 
Q 2491 3084 2119 3084 
Q 1678 3084 1418 2786 
Q 1159 2488 1159 1978 
L 1159 0 
L 581 0 
L 581 3500 
L 1159 3500 
L 1159 2956 
Q 1356 3278 1631 3431 
Q 1906 3584 2284 3584 
Q 2666 3584 2933 3390 
Q 3200 3197 3328 2828 
z
" transform="scale(0.015625)"/>
       <path id="DejaVuSans-65" d="M 3597 1894 
L 3597 1613 
L 953 1613 
Q 991 1019 1311 708 
Q 1631 397 2203 397 
Q 2534 397 2845 478 
Q 3156 559 3463 722 
L 3463 178 
Q 3153 47 2828 -22 
Q 2503 -91 2169 -91 
Q 1331 -91 842 396 
Q 353 884 353 1716 
Q 353 2575 817 3079 
Q 1281 3584 2069 3584 
Q 2775 3584 3186 3129 
Q 3597 2675 3597 1894 
z
M 3022 2063 
Q 3016 2534 2758 2815 
Q 2500 3097 2075 3097 
Q 1594 3097 1305 2825 
Q 1016 2553 972 2059 
L 3022 2063 
z
" transform="scale(0.015625)"/>
       <path id="DejaVuSans-20" transform="scale(0.015625)"/>
       <path id="DejaVuSans-6e" d="M 3513 2113 
L 3513 0 
L 2938 0 
L 2938 2094 
Q 2938 2591 2744 2837 
Q 2550 3084 2163 3084 
Q 1697 3084 1428 2787 
Q 1159 2491 1159 1978 
L 1159 0 
L 581 0 
L 581 3500 
L 1159 3500 
L 1159 2956 
Q 1366 3272 1645 3428 
Q 1925 3584 2291 3584 
Q 2894 3584 3203 3211 
Q 3513 2838 3513 2113 
z
" transform="scale(0.015625)"/>
       <path id="DejaVuSans-61" d="M 2194 1759 
Q 1497 1759 1228 1600 
Q 959 1441 959 1056 
Q 959 750 1161 570 
Q 1363 391 1709 391 
Q 2188 391 2477 730 
Q 2766 1069 2766 1631 
L 2766 1759 
L 2194 1759 
z
M 3341 1997 
L 3341 0 
L 2766 0 
L 2766 531 
Q 2569 213 2275 61 
Q 1981 -91 1556 -91 
Q 1019 -91 701 211 
Q 384 513 384 1019 
Q 384 1609 779 1909 
Q 1175 2209 1959 2209 
L 2766 2209 
L 2766 2266 
Q 2766 2663 2505 2880 
Q 2244 3097 1772 3097 
Q 1472 3097 1187 3025 
Q 903 2953 641 2809 
L 641 3341 
Q 956 3463 1253 3523 
Q 1550 3584 1831 3584 
Q 2591 3584 2966 3190 
Q 3341 2797 3341 1997 
z
" transform="scale(0.015625)"/>
       <path id="DejaVuSans-2e" d="M 684 794 
L 1344 794 
L 1344 0 
L 684 0 
L 684 794 
z
" transform="scale(0.015625)"/>
       <path id="DejaVuSans-75" d="M 544 1381 
L 544 3500 
L 1119 3500 
L 1119 1403 
Q 1119 906 1312 657 
Q 1506 409 1894 409 
Q 2359 409 2629 706 
Q 2900 1003 2900 1516 
L 2900 3500 
L 3475 3500 
L 3475 0 
L 2900 0 
L 2900 538 
Q 2691 219 2414 64 
Q 2138 -91 1772 -91 
Q 1169 -91 856 284 
Q 544 659 544 1381 
z
M 1991 3584 
L 1991 3584 
z
" transform="scale(0.015625)"/>
      </defs>
      <use xlink:href="#DejaVuSans-74"/>
      <use xlink:href="#DejaVuSans-69" x="39.208984"/>
      <use xlink:href="#DejaVuSans-6d" x="66.992188"/>
      <use xlink:href="#DejaVuSans-65" x="164.404297"/>
      <use xlink:href="#DejaVuSans-20" x="225.927734"/>
      <use xlink:href="#DejaVuSans-69" x="257.714844"/>
      <use xlink:href="#DejaVuSans-6e" x="285.498047"/>
      <use xlink:href="#DejaVuSans-20" x="348.876953"/>
      <use xlink:href="#DejaVuSans-61" x="380.664062"/>
      <use xlink:href="#DejaVuSans-2e" x="441.943359"/>
      <use xlink:href="#DejaVuSans-75" x="473.730469"/>
      <use xlink:href="#DejaVuSans-2e" x="537.109375"/>
     </g>
    </g>
   </g>
   <g id="matplotlib.axis_2">
    <g id="ytick_1">
     <g id="line2d_8">
      <defs>
       <path id="m77000bb8df" d="M 0 0 
L -3.5 0 
" style="stroke: #000000; stroke-width: 0.8"/>
      </defs>
      <g>
       <use xlink:href="#m77000bb8df" x="81.11" y="302.104999" style="stroke: #000000; stroke-width: 0.8"/>
      </g>
     </g>
     <g id="text_9">
      <!-- −20 -->
      <g transform="translate(37.6411 308.670049) scale(0.1728 -0.1728)">
       <defs>
        <path id="DejaVuSans-2212" d="M 678 2272 
L 4684 2272 
L 4684 1741 
L 678 1741 
L 678 2272 
z
" transform="scale(0.015625)"/>
       </defs>
       <use xlink:href="#DejaVuSans-2212"/>
       <use xlink:href="#DejaVuSans-32" x="83.789062"/>
       <use xlink:href="#DejaVuSans-30" x="147.412109"/>
      </g>
     </g>
    </g>
    <g id="ytick_2">
     <g id="line2d_9">
      <g>
       <use xlink:href="#m77000bb8df" x="81.11" y="251.821789" style="stroke: #000000; stroke-width: 0.8"/>
      </g>
     </g>
     <g id="text_10">
      <!-- 0 -->
      <g transform="translate(63.1156 258.386839) scale(0.1728 -0.1728)">
       <use xlink:href="#DejaVuSans-30"/>
      </g>
     </g>
    </g>
    <g id="ytick_3">
     <g id="line2d_10">
      <g>
       <use xlink:href="#m77000bb8df" x="81.11" y="201.538579" style="stroke: #000000; stroke-width: 0.8"/>
      </g>
     </g>
     <g id="text_11">
      <!-- 20 -->
      <g transform="translate(52.1212 208.103629) scale(0.1728 -0.1728)">
       <use xlink:href="#DejaVuSans-32"/>
       <use xlink:href="#DejaVuSans-30" x="63.623047"/>
      </g>
     </g>
    </g>
    <g id="ytick_4">
     <g id="line2d_11">
      <g>
       <use xlink:href="#m77000bb8df" x="81.11" y="151.255369" style="stroke: #000000; stroke-width: 0.8"/>
      </g>
     </g>
     <g id="text_12">
      <!-- 40 -->
      <g transform="translate(52.1212 157.820419) scale(0.1728 -0.1728)">
       <use xlink:href="#DejaVuSans-34"/>
       <use xlink:href="#DejaVuSans-30" x="63.623047"/>
      </g>
     </g>
    </g>
    <g id="ytick_5">
     <g id="line2d_12">
      <g>
       <use xlink:href="#m77000bb8df" x="81.11" y="100.972159" style="stroke: #000000; stroke-width: 0.8"/>
      </g>
     </g>
     <g id="text_13">
      <!-- 60 -->
      <g transform="translate(52.1212 107.537209) scale(0.1728 -0.1728)">
       <use xlink:href="#DejaVuSans-36"/>
       <use xlink:href="#DejaVuSans-30" x="63.623047"/>
      </g>
     </g>
    </g>
    <g id="ytick_6">
     <g id="line2d_13">
      <g>
       <use xlink:href="#m77000bb8df" x="81.11" y="50.688948" style="stroke: #000000; stroke-width: 0.8"/>
      </g>
     </g>
     <g id="text_14">
      <!-- 80 -->
      <g transform="translate(52.1212 57.253998) scale(0.1728 -0.1728)">
       <defs>
        <path id="DejaVuSans-38" d="M 2034 2216 
Q 1584 2216 1326 1975 
Q 1069 1734 1069 1313 
Q 1069 891 1326 650 
Q 1584 409 2034 409 
Q 2484 409 2743 651 
Q 3003 894 3003 1313 
Q 3003 1734 2745 1975 
Q 2488 2216 2034 2216 
z
M 1403 2484 
Q 997 2584 770 2862 
Q 544 3141 544 3541 
Q 544 4100 942 4425 
Q 1341 4750 2034 4750 
Q 2731 4750 3128 4425 
Q 3525 4100 3525 3541 
Q 3525 3141 3298 2862 
Q 3072 2584 2669 2484 
Q 3125 2378 3379 2068 
Q 3634 1759 3634 1313 
Q 3634 634 3220 271 
Q 2806 -91 2034 -91 
Q 1263 -91 848 271 
Q 434 634 434 1313 
Q 434 1759 690 2068 
Q 947 2378 1403 2484 
z
M 1172 3481 
Q 1172 3119 1398 2916 
Q 1625 2713 2034 2713 
Q 2441 2713 2670 2916 
Q 2900 3119 2900 3481 
Q 2900 3844 2670 4047 
Q 2441 4250 2034 4250 
Q 1625 4250 1398 4047 
Q 1172 3844 1172 3481 
z
" transform="scale(0.015625)"/>
       </defs>
       <use xlink:href="#DejaVuSans-38"/>
       <use xlink:href="#DejaVuSans-30" x="63.623047"/>
      </g>
     </g>
    </g>
    <g id="text_15">
     <!-- (avg. M=4) energy in a.u. -->
     <g transform="translate(30.0474 280.5626) rotate(-90) scale(0.1728 -0.1728)">
      <defs>
       <path id="DejaVuSans-28" d="M 1984 4856 
Q 1566 4138 1362 3434 
Q 1159 2731 1159 2009 
Q 1159 1288 1364 580 
Q 1569 -128 1984 -844 
L 1484 -844 
Q 1016 -109 783 600 
Q 550 1309 550 2009 
Q 550 2706 781 3412 
Q 1013 4119 1484 4856 
L 1984 4856 
z
" transform="scale(0.015625)"/>
       <path id="DejaVuSans-76" d="M 191 3500 
L 800 3500 
L 1894 563 
L 2988 3500 
L 3597 3500 
L 2284 0 
L 1503 0 
L 191 3500 
z
" transform="scale(0.015625)"/>
       <path id="DejaVuSans-67" d="M 2906 1791 
Q 2906 2416 2648 2759 
Q 2391 3103 1925 3103 
Q 1463 3103 1205 2759 
Q 947 2416 947 1791 
Q 947 1169 1205 825 
Q 1463 481 1925 481 
Q 2391 481 2648 825 
Q 2906 1169 2906 1791 
z
M 3481 434 
Q 3481 -459 3084 -895 
Q 2688 -1331 1869 -1331 
Q 1566 -1331 1297 -1286 
Q 1028 -1241 775 -1147 
L 775 -588 
Q 1028 -725 1275 -790 
Q 1522 -856 1778 -856 
Q 2344 -856 2625 -561 
Q 2906 -266 2906 331 
L 2906 616 
Q 2728 306 2450 153 
Q 2172 0 1784 0 
Q 1141 0 747 490 
Q 353 981 353 1791 
Q 353 2603 747 3093 
Q 1141 3584 1784 3584 
Q 2172 3584 2450 3431 
Q 2728 3278 2906 2969 
L 2906 3500 
L 3481 3500 
L 3481 434 
z
" transform="scale(0.015625)"/>
       <path id="DejaVuSans-4d" d="M 628 4666 
L 1569 4666 
L 2759 1491 
L 3956 4666 
L 4897 4666 
L 4897 0 
L 4281 0 
L 4281 4097 
L 3078 897 
L 2444 897 
L 1241 4097 
L 1241 0 
L 628 0 
L 628 4666 
z
" transform="scale(0.015625)"/>
       <path id="DejaVuSans-3d" d="M 678 2906 
L 4684 2906 
L 4684 2381 
L 678 2381 
L 678 2906 
z
M 678 1631 
L 4684 1631 
L 4684 1100 
L 678 1100 
L 678 1631 
z
" transform="scale(0.015625)"/>
       <path id="DejaVuSans-29" d="M 513 4856 
L 1013 4856 
Q 1481 4119 1714 3412 
Q 1947 2706 1947 2009 
Q 1947 1309 1714 600 
Q 1481 -109 1013 -844 
L 513 -844 
Q 928 -128 1133 580 
Q 1338 1288 1338 2009 
Q 1338 2731 1133 3434 
Q 928 4138 513 4856 
z
" transform="scale(0.015625)"/>
       <path id="DejaVuSans-72" d="M 2631 2963 
Q 2534 3019 2420 3045 
Q 2306 3072 2169 3072 
Q 1681 3072 1420 2755 
Q 1159 2438 1159 1844 
L 1159 0 
L 581 0 
L 581 3500 
L 1159 3500 
L 1159 2956 
Q 1341 3275 1631 3429 
Q 1922 3584 2338 3584 
Q 2397 3584 2469 3576 
Q 2541 3569 2628 3553 
L 2631 2963 
z
" transform="scale(0.015625)"/>
       <path id="DejaVuSans-79" d="M 2059 -325 
Q 1816 -950 1584 -1140 
Q 1353 -1331 966 -1331 
L 506 -1331 
L 506 -850 
L 844 -850 
Q 1081 -850 1212 -737 
Q 1344 -625 1503 -206 
L 1606 56 
L 191 3500 
L 800 3500 
L 1894 763 
L 2988 3500 
L 3597 3500 
L 2059 -325 
z
" transform="scale(0.015625)"/>
      </defs>
      <use xlink:href="#DejaVuSans-28"/>
      <use xlink:href="#DejaVuSans-61" x="39.013672"/>
      <use xlink:href="#DejaVuSans-76" x="100.292969"/>
      <use xlink:href="#DejaVuSans-67" x="159.472656"/>
      <use xlink:href="#DejaVuSans-2e" x="222.949219"/>
      <use xlink:href="#DejaVuSans-20" x="254.736328"/>
      <use xlink:href="#DejaVuSans-4d" x="286.523438"/>
      <use xlink:href="#DejaVuSans-3d" x="372.802734"/>
      <use xlink:href="#DejaVuSans-34" x="456.591797"/>
      <use xlink:href="#DejaVuSans-29" x="520.214844"/>
      <use xlink:href="#DejaVuSans-20" x="559.228516"/>
      <use xlink:href="#DejaVuSans-65" x="591.015625"/>
      <use xlink:href="#DejaVuSans-6e" x="652.539062"/>
      <use xlink:href="#DejaVuSans-65" x="715.917969"/>
      <use xlink:href="#DejaVuSans-72" x="777.441406"/>
      <use xlink:href="#DejaVuSans-67" x="816.804688"/>
      <use xlink:href="#DejaVuSans-79" x="880.28125"/>
      <use xlink:href="#DejaVuSans-20" x="939.460938"/>
      <use xlink:href="#DejaVuSans-69" x="971.248047"/>
      <use xlink:href="#DejaVuSans-6e" x="999.03125"/>
      <use xlink:href="#DejaVuSans-20" x="1062.410156"/>
      <use xlink:href="#DejaVuSans-61" x="1094.197266"/>
      <use xlink:href="#DejaVuSans-2e" x="1155.476562"/>
      <use xlink:href="#DejaVuSans-75" x="1187.263672"/>
      <use xlink:href="#DejaVuSans-2e" x="1250.642578"/>
     </g>
    </g>
   </g>
   <g id="line2d_14">
    <path d="M 86.164431 90.385286 
L 87.428039 65.409601 
L 89.955254 75.068695 
L 92.48247 87.46093 
L 95.009686 100.835347 
L 96.273293 105.637907 
L 97.536901 109.534059 
L 98.800509 114.850493 
L 101.327725 127.268986 
L 103.85494 137.99657 
L 106.382156 147.680597 
L 107.645763 150.943607 
L 108.909371 151.903993 
L 110.172979 152.268945 
L 111.436587 152.024085 
L 112.700195 152.546331 
L 113.963802 152.929499 
L 115.22741 152.464534 
L 116.491018 150.735166 
L 117.754626 149.609724 
L 119.018234 149.980356 
L 120.281841 148.952914 
L 121.545449 147.575681 
L 124.072665 146.0717 
L 125.336272 145.470174 
L 126.59988 147.010787 
L 127.863488 150.126199 
L 129.127096 152.041526 
L 130.390704 154.488774 
L 131.654311 157.263201 
L 135.445135 163.589719 
L 136.708743 166.179049 
L 140.499566 172.398993 
L 141.763174 175.344101 
L 143.026781 176.860484 
L 144.290389 177.344142 
L 146.817605 179.873856 
L 148.081213 180.804941 
L 149.34482 181.267144 
L 150.608428 182.430284 
L 151.872036 182.544205 
L 153.135644 183.123823 
L 154.399251 184.147588 
L 155.662859 184.10069 
L 156.926467 183.798547 
L 158.190075 183.152769 
L 159.453683 183.199059 
L 160.71729 182.687896 
L 164.508114 179.046292 
L 165.771722 177.386355 
L 167.035329 176.13476 
L 168.298937 177.044129 
L 169.562545 177.502855 
L 170.826153 176.499493 
L 172.08976 177.209729 
L 174.616976 180.991864 
L 175.880584 181.116893 
L 178.407799 178.94294 
L 179.671407 179.466998 
L 180.935015 181.032404 
L 182.198623 180.704387 
L 183.462231 178.945375 
L 184.725838 177.798151 
L 185.989446 178.607141 
L 187.253054 178.552047 
L 188.516662 176.340908 
L 189.780269 174.938568 
L 191.043877 174.32601 
L 193.571093 172.332182 
L 194.834701 171.666607 
L 196.098308 172.234853 
L 197.361916 174.25264 
L 198.625524 175.910015 
L 199.889132 175.415986 
L 201.15274 174.682165 
L 202.416347 175.30102 
L 204.943563 174.169228 
L 206.207171 174.191411 
L 207.470778 175.130134 
L 208.734386 176.798978 
L 209.997994 178.206105 
L 211.261602 178.318273 
L 212.52521 176.31698 
L 213.788817 176.854596 
L 215.052425 176.939176 
L 216.316033 175.299658 
L 217.579641 174.267029 
L 218.843249 172.961102 
L 220.106856 172.318928 
L 221.370464 172.547473 
L 222.634072 173.563605 
L 223.89768 173.124027 
L 225.161287 174.003471 
L 226.424895 176.183528 
L 227.688503 177.296953 
L 228.952111 177.908438 
L 230.215719 176.730064 
L 231.479326 176.153769 
L 234.006542 179.796112 
L 235.27015 180.611626 
L 236.533757 180.21254 
L 237.797365 179.238062 
L 239.060973 178.828992 
L 240.324581 179.328675 
L 241.588189 180.811243 
L 242.851796 181.328387 
L 246.64262 183.676601 
L 247.906228 183.268845 
L 249.169835 183.169529 
L 250.433443 185.660042 
L 251.697051 187.240691 
L 252.960659 187.693995 
L 254.224266 187.658763 
L 255.487874 187.337815 
L 256.751482 187.537851 
L 258.01509 189.380901 
L 259.278698 190.520678 
L 260.542305 189.077511 
L 261.805913 186.804084 
L 263.069521 186.024922 
L 264.333129 185.993743 
L 265.596737 185.796794 
L 266.860344 186.539782 
L 268.123952 187.561096 
L 269.38756 188.102214 
L 271.914775 189.699601 
L 273.178383 189.252875 
L 274.441991 189.088248 
L 275.705599 190.547126 
L 278.232814 191.241004 
L 280.76003 193.98324 
L 282.023638 195.90928 
L 283.287246 198.83039 
L 284.550853 200.926909 
L 285.814461 201.103574 
L 287.078069 200.722479 
L 288.341677 200.514457 
L 289.605284 200.653035 
L 290.868892 200.454518 
L 292.1325 200.64173 
L 293.396108 201.187594 
L 295.923323 201.566662 
L 297.186931 202.380866 
L 299.714147 205.159229 
L 300.977754 206.88407 
L 302.241362 207.185824 
L 304.768578 204.681141 
L 307.295793 202.180064 
L 308.559401 201.383811 
L 309.823009 199.643798 
L 311.086617 198.311347 
L 313.613832 197.157781 
L 314.87744 195.869867 
L 316.141048 195.82864 
L 317.404656 196.788882 
L 318.668263 195.970999 
L 319.931871 194.418759 
L 321.195479 194.574048 
L 322.459087 195.50989 
L 323.722695 196.847282 
L 324.986302 198.978371 
L 326.24991 200.201561 
L 327.513518 199.471635 
L 328.777126 199.320928 
L 330.040734 200.868893 
L 331.304341 200.280686 
L 332.567949 197.436441 
L 333.831557 195.468237 
L 335.095165 194.283171 
L 336.358772 193.580509 
L 337.62238 192.308758 
L 340.149596 191.461537 
L 341.413204 191.80354 
L 342.676811 193.800353 
L 343.940419 194.5032 
L 345.204027 194.748718 
L 346.467635 194.741482 
L 347.731243 195.987528 
L 348.99485 195.407027 
L 350.258458 194.216033 
L 351.522066 193.801279 
L 352.785674 193.567371 
L 354.049281 194.771391 
L 355.312889 196.139621 
L 357.840105 197.02048 
L 359.103713 199.642104 
L 360.36732 201.769634 
L 361.630928 202.307047 
L 365.421751 200.91501 
L 366.685359 201.306845 
L 367.948967 202.207172 
L 369.212575 202.819143 
L 370.476183 203.905571 
L 371.73979 203.93531 
L 373.003398 204.323383 
L 374.267006 205.662477 
L 375.530614 206.07308 
L 376.794222 206.244747 
L 378.057829 205.854854 
L 379.321437 204.564664 
L 380.585045 203.687357 
L 383.11226 204.490089 
L 384.375868 202.877864 
L 385.639476 201.883851 
L 386.903084 200.574113 
L 388.166692 198.504319 
L 389.430299 197.463583 
L 390.693907 196.853574 
L 391.957515 196.928206 
L 393.221123 197.381134 
L 394.484731 197.596028 
L 397.011946 198.336143 
L 398.275554 199.545327 
L 400.802769 201.452161 
L 404.593593 202.358737 
L 405.857201 201.958892 
L 408.384416 201.803431 
L 409.648024 202.036144 
L 410.911632 202.145329 
L 412.17524 201.726097 
L 414.702455 197.197958 
L 415.966063 195.827209 
L 417.229671 195.194769 
L 418.493278 195.215139 
L 419.756886 194.308487 
L 421.020494 193.186115 
L 422.284102 192.760447 
L 423.54771 194.006139 
L 424.811317 196.378784 
L 426.074925 199.846862 
L 427.338533 202.801587 
L 428.602141 204.264818 
L 429.865749 206.053068 
L 431.129356 207.472379 
L 432.392964 208.456979 
L 434.92018 211.930307 
L 436.183787 213.016455 
L 438.711003 215.605533 
L 439.974611 215.901621 
L 441.238219 216.432377 
L 442.501826 217.553614 
L 443.765434 218.179077 
L 446.29265 217.536967 
L 448.819865 214.852063 
L 450.083473 215.208077 
L 452.610689 216.624242 
L 453.874296 216.450303 
L 455.137904 216.086547 
L 456.401512 214.831722 
L 458.928728 213.517653 
L 460.192335 211.595936 
L 461.455943 209.936988 
L 462.719551 208.889493 
L 465.246766 207.873685 
L 466.510374 207.615752 
L 469.03759 208.547984 
L 470.301198 208.297756 
L 471.564805 208.220209 
L 472.828413 207.810464 
L 474.092021 207.762481 
L 475.355629 207.548611 
L 476.619237 207.588125 
L 477.882844 206.591671 
L 479.146452 206.120929 
L 480.41006 207.047627 
L 481.673668 207.418389 
L 482.937275 208.404815 
L 485.464491 209.875901 
L 487.991707 206.065132 
L 489.255314 206.516623 
L 490.518922 206.836856 
L 491.78253 206.629219 
L 494.309746 203.809446 
L 495.573353 202.91822 
L 496.836961 204.506881 
L 498.100569 206.40028 
L 499.364177 205.828388 
L 500.627784 204.686846 
L 501.891392 202.512513 
L 503.155 199.867555 
L 504.418608 197.758414 
L 505.682216 195.274906 
L 506.945823 193.320666 
L 508.209431 192.26702 
L 509.473039 191.534639 
L 510.736647 190.611647 
L 512.000254 189.97146 
L 514.52747 189.02223 
L 517.054686 191.29607 
L 518.318293 192.043743 
L 520.845509 191.656809 
L 522.109117 192.3771 
L 523.372725 192.805906 
L 524.636332 193.805331 
L 525.89994 193.583668 
L 527.163548 192.877977 
L 528.427156 192.415565 
L 529.690763 192.660585 
L 532.217979 191.786919 
L 533.481587 192.311945 
L 534.745195 191.930016 
L 536.008802 192.371357 
L 537.27241 193.438563 
L 538.536018 194.323558 
L 539.799626 193.654726 
L 541.063234 193.887484 
L 542.326841 194.415419 
L 543.590449 195.489484 
L 544.854057 195.969849 
L 547.381272 194.022559 
L 548.64488 193.480489 
L 549.908488 194.186581 
L 551.172096 195.298408 
L 552.435704 195.26454 
L 553.699311 194.012995 
L 554.962919 194.766159 
L 556.226527 196.545043 
L 557.490135 196.714091 
L 558.753743 195.099137 
L 561.280958 193.008402 
L 562.544566 192.998838 
L 563.808174 193.998645 
L 565.071781 193.532673 
L 566.335389 192.638189 
L 567.598997 193.268962 
L 568.862605 195.647508 
L 570.126213 197.539234 
L 571.38982 199.031391 
L 572.653428 200.277403 
L 573.917036 200.606308 
L 575.180644 200.330034 
L 577.707859 202.691325 
L 578.971467 202.152073 
L 581.498683 197.644148 
L 582.76229 196.449638 
L 584.025898 196.828826 
L 585.289506 197.741827 
L 586.553114 196.923818 
L 587.816722 195.039551 
L 589.080329 195.010169 
L 590.343937 197.017608 
L 591.607545 198.330559 
L 592.871153 197.940209 
L 594.13476 197.117157 
L 595.398368 197.725827 
L 596.661976 200.007518 
L 597.925584 202.058597 
L 599.189192 203.593665 
L 601.716407 207.378685 
L 604.243623 210.282106 
L 605.507231 209.918958 
L 606.770838 208.354667 
L 609.298054 208.40111 
L 610.561662 207.861499 
L 611.825269 208.906614 
L 613.088877 211.100234 
L 614.352485 210.695267 
L 615.616093 209.970374 
L 616.879701 210.480791 
L 618.143308 209.747529 
L 619.406916 209.294172 
L 620.670524 209.333597 
L 621.934132 209.579341 
L 623.19774 208.370063 
L 624.461347 208.227909 
L 625.724955 209.130227 
L 626.988563 209.478765 
L 628.252171 210.973639 
L 629.515778 211.396383 
L 630.779386 210.730321 
L 632.042994 210.734539 
L 633.306602 211.053439 
L 634.57021 212.555806 
L 635.833817 215.179984 
L 637.097425 216.780123 
L 638.361033 215.984845 
L 639.624641 215.885417 
L 640.888249 217.219284 
L 642.151856 217.161818 
L 644.679072 218.297011 
L 645.94268 216.83993 
L 647.206287 216.385954 
L 648.469895 217.835101 
L 649.733503 217.912795 
L 650.997111 217.123395 
L 652.260719 216.120028 
L 653.524326 214.502219 
L 654.787934 214.413662 
L 656.051542 214.865092 
L 657.31515 214.883455 
L 658.578757 214.195807 
L 659.842365 215.462154 
L 661.105973 217.466936 
L 662.369581 219.174431 
L 663.633189 221.181072 
L 664.896796 220.775536 
L 666.160404 218.935275 
L 667.424012 217.829589 
L 668.68762 217.133586 
L 669.951228 215.620374 
L 671.214835 214.438935 
L 672.478443 213.007922 
L 673.742051 211.196384 
L 675.005659 210.101571 
L 676.269266 210.068715 
L 677.532874 209.789762 
L 678.796482 210.068934 
L 680.06009 208.924562 
L 681.323698 206.966046 
L 682.587305 207.445823 
L 683.850913 208.467631 
L 685.114521 209.694133 
L 686.378129 211.116098 
L 687.641737 211.530919 
L 688.905344 210.799837 
L 690.168952 210.846026 
L 691.43256 209.917668 
L 692.696168 208.437578 
L 695.223383 208.916307 
L 696.486991 208.61105 
L 697.750599 206.464028 
L 699.014207 204.909532 
L 700.277814 206.746095 
L 701.541422 210.519376 
L 702.80503 212.148208 
L 704.068638 211.212392 
L 705.332246 208.698981 
L 706.595853 207.721977 
L 709.123069 212.868473 
L 710.386677 212.989677 
L 711.650284 212.397306 
L 712.913892 212.218226 
L 714.1775 211.737543 
L 715.441108 211.055593 
L 716.704716 208.789783 
L 717.968323 206.276905 
L 720.495539 203.249133 
L 723.022754 200.407905 
L 724.286362 199.280784 
L 725.54997 198.380134 
L 726.813578 198.208016 
L 729.340793 198.709046 
L 730.604401 197.87775 
L 731.868009 196.598994 
L 733.131617 195.959744 
L 734.395225 197.019834 
L 735.658832 199.175992 
L 736.92244 200.682704 
L 738.186048 199.751173 
L 739.449656 198.073111 
L 740.713263 196.987334 
L 743.240479 196.37784 
L 744.504087 196.152819 
L 748.29491 197.793386 
L 749.558518 199.302253 
L 752.085734 203.768607 
L 753.349341 206.301505 
L 755.876557 210.695078 
L 757.140165 212.166506 
L 758.403772 211.597874 
L 759.66738 210.632455 
L 760.930988 209.395632 
L 762.194596 208.551203 
L 763.458204 208.452518 
L 764.721811 207.25892 
L 765.985419 205.348102 
L 767.249027 205.179507 
L 768.512635 207.33088 
L 771.03985 211.921496 
L 772.303458 212.729043 
L 773.567066 212.035116 
L 774.830674 212.061624 
L 776.094281 212.413021 
L 777.357889 212.60833 
L 778.621497 213.408038 
L 779.885105 212.862657 
L 781.148713 211.222819 
L 783.675928 208.92019 
L 784.939536 208.079222 
L 786.203144 207.423734 
L 787.466751 207.334286 
L 788.730359 207.07487 
L 789.993967 207.354923 
L 791.257575 208.345849 
L 792.521183 208.846781 
L 793.78479 209.144668 
L 795.048398 208.980067 
L 796.312006 208.379603 
L 797.575614 207.293864 
L 798.839222 207.351229 
L 801.366437 208.906716 
L 802.630045 209.465499 
L 803.893653 211.122812 
L 805.15726 213.38759 
L 806.420868 214.665279 
L 807.684476 214.803356 
L 811.475299 211.58797 
L 812.738907 210.800018 
L 814.002515 210.745386 
L 815.266123 211.921594 
L 816.529731 214.201978 
L 817.793338 217.369408 
L 819.056946 218.671018 
L 820.320554 216.624247 
L 821.584162 215.426487 
L 822.847769 214.886137 
L 824.111377 213.401211 
L 825.374985 212.345794 
L 827.902201 206.704793 
L 829.165808 206.534873 
L 830.429416 209.520396 
L 831.693024 211.634675 
L 832.956632 211.831266 
L 834.22024 212.26467 
L 835.483847 211.224229 
L 836.747455 211.481586 
L 838.011063 212.416551 
L 839.274671 212.206487 
L 840.538278 210.889171 
L 841.801886 208.408908 
L 843.065494 207.591814 
L 844.329102 207.117547 
L 845.59271 207.359673 
L 846.856317 206.688225 
L 848.119925 205.144556 
L 850.647141 205.919741 
L 851.910749 205.675386 
L 853.174356 206.640139 
L 854.437964 208.025198 
L 855.701572 207.197325 
L 856.96518 207.657525 
L 858.228787 207.870013 
L 859.492395 205.30874 
L 860.756003 203.561519 
L 862.019611 204.210931 
L 863.283219 202.7599 
L 864.546826 198.843571 
L 865.810434 197.200453 
L 867.074042 196.899604 
L 868.33765 197.567709 
L 869.601257 198.659713 
L 870.864865 198.580655 
L 872.128473 197.871073 
L 873.392081 197.55231 
L 874.655689 199.16702 
L 875.919296 199.534433 
L 877.182904 197.059265 
L 879.71012 193.21284 
L 880.973728 194.520084 
L 883.500943 197.565459 
L 887.291766 202.95876 
L 888.555374 203.855327 
L 889.818982 205.892636 
L 892.346198 206.278678 
L 893.609805 206.195571 
L 894.873413 204.326744 
L 896.137021 203.723756 
L 897.400629 205.929993 
L 898.664237 207.89961 
L 899.927844 208.903075 
L 901.191452 208.893326 
L 902.45506 207.927434 
L 903.718668 206.670261 
L 906.245883 206.12193 
L 907.509491 204.619004 
L 908.773099 202.259383 
L 910.036707 200.223431 
L 911.300314 200.421534 
L 912.563922 201.144766 
L 913.82753 201.594156 
L 915.091138 202.559843 
L 916.354746 202.98496 
L 917.618353 203.007354 
L 918.881961 204.911758 
L 918.881961 204.911758 
" clip-path="url(#pa79bb7bb9f)" style="fill: none; stroke: #1f77b4; stroke-width: 1.5; stroke-linecap: square"/>
   </g>
   <g id="line2d_15">
    <path d="M 398.275554 309.04 
L 398.275554 30.48 
" clip-path="url(#pa79bb7bb9f)" style="fill: none; stroke-dasharray: 5.55,2.4; stroke-dashoffset: 0; stroke: #808080; stroke-width: 1.5"/>
   </g>
   <g id="line2d_16">
    <path d="M 81.11 205.411322 
L 925.2 205.411322 
" clip-path="url(#pa79bb7bb9f)" style="fill: none; stroke: #ff0000; stroke-opacity: 0.3; stroke-width: 1.5; stroke-linecap: square"/>
   </g>
   <g id="patch_4">
    <path d="M 81.11 309.04 
L 81.11 30.48 
" style="fill: none; stroke: #000000; stroke-width: 0.8; stroke-linejoin: miter; stroke-linecap: square"/>
   </g>
   <g id="patch_5">
    <path d="M 925.2 309.04 
L 925.2 30.48 
" style="fill: none; stroke: #000000; stroke-width: 0.8; stroke-linejoin: miter; stroke-linecap: square"/>
   </g>
   <g id="patch_6">
    <path d="M 81.11 309.04 
L 925.2 309.04 
" style="fill: none; stroke: #000000; stroke-width: 0.8; stroke-linejoin: miter; stroke-linecap: square"/>
   </g>
   <g id="patch_7">
    <path d="M 81.11 30.48 
L 925.2 30.48 
" style="fill: none; stroke: #000000; stroke-width: 0.8; stroke-linejoin: miter; stroke-linecap: square"/>
   </g>
   <g id="text_16">
    <!-- Energy -->
    <g transform="translate(472.9042 24.48) scale(0.1728 -0.1728)">
     <defs>
      <path id="DejaVuSans-45" d="M 628 4666 
L 3578 4666 
L 3578 4134 
L 1259 4134 
L 1259 2753 
L 3481 2753 
L 3481 2222 
L 1259 2222 
L 1259 531 
L 3634 531 
L 3634 0 
L 628 0 
L 628 4666 
z
" transform="scale(0.015625)"/>
     </defs>
     <use xlink:href="#DejaVuSans-45"/>
     <use xlink:href="#DejaVuSans-6e" x="63.183594"/>
     <use xlink:href="#DejaVuSans-65" x="126.5625"/>
     <use xlink:href="#DejaVuSans-72" x="188.085938"/>
     <use xlink:href="#DejaVuSans-67" x="227.449219"/>
     <use xlink:href="#DejaVuSans-79" x="290.925781"/>
    </g>
   </g>
  </g>
  <g id="axes_2">
   <g id="patch_8">
    <path d="M 81.11 663.64 
L 469.845 663.64 
L 469.845 385.08 
L 81.11 385.08 
z
" style="fill: #ffffff"/>
   </g>
   <g id="patch_9">
    <path d="M 81.11 663.64 
L 81.11 385.08 
L 227.176594 385.08 
L 227.176594 663.64 
z
" clip-path="url(#p8948f6a6e5)" style="fill: #808080; opacity: 0.15"/>
   </g>
   <g id="matplotlib.axis_3">
    <g id="xtick_8">
     <g id="line2d_17">
      <g>
       <use xlink:href="#m3580922419" x="81.11" y="663.64" style="stroke: #000000; stroke-width: 0.8"/>
      </g>
     </g>
     <g id="text_17">
      <!-- 0 -->
      <g transform="translate(75.6128 683.7701) scale(0.1728 -0.1728)">
       <use xlink:href="#DejaVuSans-30"/>
      </g>
     </g>
    </g>
    <g id="xtick_9">
     <g id="line2d_18">
      <g>
       <use xlink:href="#m3580922419" x="139.303862" y="663.64" style="stroke: #000000; stroke-width: 0.8"/>
      </g>
     </g>
     <g id="text_18">
      <!-- 1 -->
      <g transform="translate(133.806662 683.7701) scale(0.1728 -0.1728)">
       <use xlink:href="#DejaVuSans-31"/>
      </g>
     </g>
    </g>
    <g id="xtick_10">
     <g id="line2d_19">
      <g>
       <use xlink:href="#m3580922419" x="197.497725" y="663.64" style="stroke: #000000; stroke-width: 0.8"/>
      </g>
     </g>
     <g id="text_19">
      <!-- 2 -->
      <g transform="translate(192.000525 683.7701) scale(0.1728 -0.1728)">
       <use xlink:href="#DejaVuSans-32"/>
      </g>
     </g>
    </g>
    <g id="xtick_11">
     <g id="line2d_20">
      <g>
       <use xlink:href="#m3580922419" x="255.691587" y="663.64" style="stroke: #000000; stroke-width: 0.8"/>
      </g>
     </g>
     <g id="text_20">
      <!-- 3 -->
      <g transform="translate(250.194387 683.7701) scale(0.1728 -0.1728)">
       <use xlink:href="#DejaVuSans-33"/>
      </g>
     </g>
    </g>
    <g id="xtick_12">
     <g id="line2d_21">
      <g>
       <use xlink:href="#m3580922419" x="313.885449" y="663.64" style="stroke: #000000; stroke-width: 0.8"/>
      </g>
     </g>
     <g id="text_21">
      <!-- 4 -->
      <g transform="translate(308.388249 683.7701) scale(0.1728 -0.1728)">
       <use xlink:href="#DejaVuSans-34"/>
      </g>
     </g>
    </g>
    <g id="xtick_13">
     <g id="line2d_22">
      <g>
       <use xlink:href="#m3580922419" x="372.079311" y="663.64" style="stroke: #000000; stroke-width: 0.8"/>
      </g>
     </g>
     <g id="text_22">
      <!-- 5 -->
      <g transform="translate(366.582111 683.7701) scale(0.1728 -0.1728)">
       <use xlink:href="#DejaVuSans-35"/>
      </g>
     </g>
    </g>
    <g id="xtick_14">
     <g id="line2d_23">
      <g>
       <use xlink:href="#m3580922419" x="430.273174" y="663.64" style="stroke: #000000; stroke-width: 0.8"/>
      </g>
     </g>
     <g id="text_23">
      <!-- 6 -->
      <g transform="translate(424.775974 683.7701) scale(0.1728 -0.1728)">
       <use xlink:href="#DejaVuSans-36"/>
      </g>
     </g>
    </g>
    <g id="text_24">
     <!-- time in a.u. -->
     <g transform="translate(226.32805 704.4939) scale(0.1728 -0.1728)">
      <use xlink:href="#DejaVuSans-74"/>
      <use xlink:href="#DejaVuSans-69" x="39.208984"/>
      <use xlink:href="#DejaVuSans-6d" x="66.992188"/>
      <use xlink:href="#DejaVuSans-65" x="164.404297"/>
      <use xlink:href="#DejaVuSans-20" x="225.927734"/>
      <use xlink:href="#DejaVuSans-69" x="257.714844"/>
      <use xlink:href="#DejaVuSans-6e" x="285.498047"/>
      <use xlink:href="#DejaVuSans-20" x="348.876953"/>
      <use xlink:href="#DejaVuSans-61" x="380.664062"/>
      <use xlink:href="#DejaVuSans-2e" x="441.943359"/>
      <use xlink:href="#DejaVuSans-75" x="473.730469"/>
      <use xlink:href="#DejaVuSans-2e" x="537.109375"/>
     </g>
    </g>
   </g>
   <g id="matplotlib.axis_4">
    <g id="ytick_7">
     <g id="line2d_24">
      <g>
       <use xlink:href="#m77000bb8df" x="81.11" y="635.998354" style="stroke: #000000; stroke-width: 0.8"/>
      </g>
     </g>
     <g id="text_25">
      <!-- −0.2 -->
      <g transform="translate(32.1493 642.563404) scale(0.1728 -0.1728)">
       <use xlink:href="#DejaVuSans-2212"/>
       <use xlink:href="#DejaVuSans-30" x="83.789062"/>
       <use xlink:href="#DejaVuSans-2e" x="147.412109"/>
       <use xlink:href="#DejaVuSans-32" x="179.199219"/>
      </g>
     </g>
    </g>
    <g id="ytick_8">
     <g id="line2d_25">
      <g>
       <use xlink:href="#m77000bb8df" x="81.11" y="567.452464" style="stroke: #000000; stroke-width: 0.8"/>
      </g>
     </g>
     <g id="text_26">
      <!-- 0.0 -->
      <g transform="translate(46.6294 574.017514) scale(0.1728 -0.1728)">
       <use xlink:href="#DejaVuSans-30"/>
       <use xlink:href="#DejaVuSans-2e" x="63.623047"/>
       <use xlink:href="#DejaVuSans-30" x="95.410156"/>
      </g>
     </g>
    </g>
    <g id="ytick_9">
     <g id="line2d_26">
      <g>
       <use xlink:href="#m77000bb8df" x="81.11" y="498.906573" style="stroke: #000000; stroke-width: 0.8"/>
      </g>
     </g>
     <g id="text_27">
      <!-- 0.2 -->
      <g transform="translate(46.6294 505.471623) scale(0.1728 -0.1728)">
       <use xlink:href="#DejaVuSans-30"/>
       <use xlink:href="#DejaVuSans-2e" x="63.623047"/>
       <use xlink:href="#DejaVuSans-32" x="95.410156"/>
      </g>
     </g>
    </g>
    <g id="ytick_10">
     <g id="line2d_27">
      <g>
       <use xlink:href="#m77000bb8df" x="81.11" y="430.360683" style="stroke: #000000; stroke-width: 0.8"/>
      </g>
     </g>
     <g id="text_28">
      <!-- 0.4 -->
      <g transform="translate(46.6294 436.925733) scale(0.1728 -0.1728)">
       <use xlink:href="#DejaVuSans-30"/>
       <use xlink:href="#DejaVuSans-2e" x="63.623047"/>
       <use xlink:href="#DejaVuSans-34" x="95.410156"/>
      </g>
     </g>
    </g>
    <g id="text_29">
     <!-- (avg. M=4) pressure in a.u. -->
     <g transform="translate(24.5556 642.36485) rotate(-90) scale(0.1728 -0.1728)">
      <defs>
       <path id="DejaVuSans-70" d="M 1159 525 
L 1159 -1331 
L 581 -1331 
L 581 3500 
L 1159 3500 
L 1159 2969 
Q 1341 3281 1617 3432 
Q 1894 3584 2278 3584 
Q 2916 3584 3314 3078 
Q 3713 2572 3713 1747 
Q 3713 922 3314 415 
Q 2916 -91 2278 -91 
Q 1894 -91 1617 61 
Q 1341 213 1159 525 
z
M 3116 1747 
Q 3116 2381 2855 2742 
Q 2594 3103 2138 3103 
Q 1681 3103 1420 2742 
Q 1159 2381 1159 1747 
Q 1159 1113 1420 752 
Q 1681 391 2138 391 
Q 2594 391 2855 752 
Q 3116 1113 3116 1747 
z
" transform="scale(0.015625)"/>
       <path id="DejaVuSans-73" d="M 2834 3397 
L 2834 2853 
Q 2591 2978 2328 3040 
Q 2066 3103 1784 3103 
Q 1356 3103 1142 2972 
Q 928 2841 928 2578 
Q 928 2378 1081 2264 
Q 1234 2150 1697 2047 
L 1894 2003 
Q 2506 1872 2764 1633 
Q 3022 1394 3022 966 
Q 3022 478 2636 193 
Q 2250 -91 1575 -91 
Q 1294 -91 989 -36 
Q 684 19 347 128 
L 347 722 
Q 666 556 975 473 
Q 1284 391 1588 391 
Q 1994 391 2212 530 
Q 2431 669 2431 922 
Q 2431 1156 2273 1281 
Q 2116 1406 1581 1522 
L 1381 1569 
Q 847 1681 609 1914 
Q 372 2147 372 2553 
Q 372 3047 722 3315 
Q 1072 3584 1716 3584 
Q 2034 3584 2315 3537 
Q 2597 3491 2834 3397 
z
" transform="scale(0.015625)"/>
      </defs>
      <use xlink:href="#DejaVuSans-28"/>
      <use xlink:href="#DejaVuSans-61" x="39.013672"/>
      <use xlink:href="#DejaVuSans-76" x="100.292969"/>
      <use xlink:href="#DejaVuSans-67" x="159.472656"/>
      <use xlink:href="#DejaVuSans-2e" x="222.949219"/>
      <use xlink:href="#DejaVuSans-20" x="254.736328"/>
      <use xlink:href="#DejaVuSans-4d" x="286.523438"/>
      <use xlink:href="#DejaVuSans-3d" x="372.802734"/>
      <use xlink:href="#DejaVuSans-34" x="456.591797"/>
      <use xlink:href="#DejaVuSans-29" x="520.214844"/>
      <use xlink:href="#DejaVuSans-20" x="559.228516"/>
      <use xlink:href="#DejaVuSans-70" x="591.015625"/>
      <use xlink:href="#DejaVuSans-72" x="654.492188"/>
      <use xlink:href="#DejaVuSans-65" x="693.355469"/>
      <use xlink:href="#DejaVuSans-73" x="754.878906"/>
      <use xlink:href="#DejaVuSans-73" x="806.978516"/>
      <use xlink:href="#DejaVuSans-75" x="859.078125"/>
      <use xlink:href="#DejaVuSans-72" x="922.457031"/>
      <use xlink:href="#DejaVuSans-65" x="961.320312"/>
      <use xlink:href="#DejaVuSans-20" x="1022.84375"/>
      <use xlink:href="#DejaVuSans-69" x="1054.630859"/>
      <use xlink:href="#DejaVuSans-6e" x="1082.414062"/>
      <use xlink:href="#DejaVuSans-20" x="1145.792969"/>
      <use xlink:href="#DejaVuSans-61" x="1177.580078"/>
      <use xlink:href="#DejaVuSans-2e" x="1238.859375"/>
      <use xlink:href="#DejaVuSans-75" x="1270.646484"/>
      <use xlink:href="#DejaVuSans-2e" x="1334.025391"/>
     </g>
    </g>
   </g>
   <g id="line2d_28">
    <path d="M 83.437754 610.00494 
L 84.019693 604.992498 
L 84.601632 602.294688 
L 85.18357 598.180498 
L 85.765509 591.630181 
L 86.347448 581.562256 
L 86.929386 567.948715 
L 88.675202 502.265873 
L 89.257141 491.264823 
L 89.839079 485.334267 
L 90.421018 481.891671 
L 91.002957 482.928496 
L 91.584895 487.072755 
L 92.166834 494.869253 
L 92.748772 499.829881 
L 93.330711 498.380796 
L 93.91265 495.548592 
L 94.494588 492.061678 
L 95.076527 492.60256 
L 95.658466 494.350358 
L 96.240404 494.203067 
L 96.822343 490.503281 
L 97.404281 489.315549 
L 97.98622 494.184766 
L 98.568159 496.16249 
L 99.150097 497.575152 
L 99.732036 501.424051 
L 100.313975 506.291346 
L 100.895913 512.23931 
L 101.477852 525.201069 
L 102.05979 542.770683 
L 102.641729 554.345632 
L 103.223668 563.185516 
L 103.805606 568.317966 
L 104.387545 566.30883 
L 104.969484 559.178972 
L 105.551422 549.341599 
L 106.133361 537.445596 
L 107.879177 490.92322 
L 109.043054 467.104113 
L 109.624993 453.583658 
L 110.206931 446.41529 
L 110.78887 444.001114 
L 111.370808 445.441496 
L 111.952747 449.3064 
L 113.698563 477.088013 
L 114.280501 489.000949 
L 114.86244 496.489812 
L 115.444379 500.99271 
L 116.608256 503.123576 
L 117.190195 500.672832 
L 118.354072 487.346405 
L 120.099888 465.090726 
L 120.681826 466.340362 
L 121.263765 467.082797 
L 121.845704 463.29266 
L 122.427642 464.986592 
L 123.591519 477.761573 
L 124.173458 477.977465 
L 124.755397 473.494135 
L 125.337335 469.913601 
L 125.919274 472.585625 
L 126.501213 479.908309 
L 127.083151 481.590657 
L 127.66509 478.199376 
L 128.247028 476.754309 
L 128.828967 482.481224 
L 129.410906 486.669231 
L 129.992844 483.747973 
L 130.574783 482.335676 
L 131.156722 483.247599 
L 131.73866 482.853877 
L 132.320599 482.949975 
L 132.902537 484.272241 
L 133.484476 489.683663 
L 134.648353 509.142406 
L 135.230292 511.521854 
L 135.812231 513.037169 
L 136.394169 519.638971 
L 136.976108 523.878298 
L 137.558046 529.293788 
L 138.139985 537.265305 
L 139.885801 569.683603 
L 140.46774 571.353283 
L 141.049678 562.661862 
L 141.631617 558.462457 
L 142.213555 551.258413 
L 143.959371 509.24758 
L 144.54131 499.156429 
L 145.123249 494.429261 
L 145.705187 495.244314 
L 146.287126 494.173654 
L 146.869064 498.538369 
L 147.451003 508.616172 
L 148.032942 516.003855 
L 148.61488 520.887404 
L 149.778757 516.75396 
L 150.360696 521.009707 
L 150.942635 524.214813 
L 151.524573 522.44506 
L 152.106512 514.800388 
L 153.270389 494.804981 
L 153.852328 489.601136 
L 154.434266 489.257175 
L 155.016205 487.422381 
L 155.598144 487.123735 
L 156.180082 487.694318 
L 156.762021 489.973234 
L 157.34396 490.057231 
L 157.925898 492.473361 
L 159.089775 515.250676 
L 159.671714 522.091182 
L 160.253653 526.952104 
L 160.835591 530.842473 
L 161.41753 536.202672 
L 161.999469 546.321463 
L 162.581407 553.839884 
L 163.163346 552.185884 
L 163.745284 546.981307 
L 164.327223 546.491754 
L 164.909162 548.946813 
L 165.4911 550.65303 
L 166.073039 553.94083 
L 166.654978 556.243676 
L 167.236916 554.40872 
L 167.818855 550.263098 
L 168.400793 543.882865 
L 169.564671 520.961185 
L 171.310487 508.233135 
L 171.892425 510.961765 
L 172.474364 516.65196 
L 173.056302 525.132416 
L 173.638241 536.532816 
L 174.22018 543.561051 
L 174.802118 541.39546 
L 175.965996 526.070258 
L 177.711811 503.484176 
L 178.29375 499.653903 
L 178.875689 496.850927 
L 179.457627 495.974852 
L 180.039566 499.292042 
L 180.621504 505.997569 
L 181.785382 523.406152 
L 182.36732 528.177015 
L 182.949259 527.469649 
L 183.531198 527.124819 
L 184.113136 526.98708 
L 184.695075 526.975448 
L 185.277013 528.037998 
L 186.440891 523.457772 
L 187.022829 522.927522 
L 187.604768 521.358164 
L 188.186707 516.38864 
L 188.768645 514.036902 
L 189.350584 514.249048 
L 189.932522 508.954274 
L 190.514461 501.55641 
L 191.0964 501.203006 
L 191.678338 505.811231 
L 192.260277 513.338237 
L 192.842216 523.937509 
L 193.424154 531.704987 
L 194.006093 532.865493 
L 194.588031 535.036348 
L 195.16997 542.029641 
L 195.751909 541.451764 
L 196.333847 532.207083 
L 196.915786 525.186339 
L 197.497725 521.808267 
L 198.079663 521.603962 
L 198.661602 521.212794 
L 199.24354 524.726587 
L 199.825479 529.675588 
L 200.407418 537.260962 
L 200.989356 549.628155 
L 201.571295 556.822732 
L 202.153234 560.243481 
L 202.735172 560.306554 
L 203.317111 561.711095 
L 203.899049 555.56752 
L 204.480988 545.975319 
L 205.062927 538.977475 
L 205.644865 534.036438 
L 206.226804 535.169057 
L 206.808743 538.536628 
L 207.390681 540.365735 
L 207.97262 542.712587 
L 208.554558 552.013402 
L 209.136497 559.074426 
L 209.718436 558.547383 
L 210.300374 551.329608 
L 210.882313 541.405288 
L 212.04619 519.407019 
L 213.210067 502.536204 
L 214.373945 490.52195 
L 214.955883 487.995706 
L 216.11976 495.796209 
L 217.865576 512.823853 
L 218.447515 520.508153 
L 219.611392 545.469087 
L 220.193331 550.32882 
L 220.775269 554.103952 
L 221.357208 553.671331 
L 222.521085 542.313009 
L 223.684963 532.45802 
L 224.266901 528.321671 
L 226.012717 512.38157 
L 226.594656 510.648336 
L 227.176594 509.266605 
L 227.758533 509.324315 
L 228.340472 509.07189 
L 228.92241 510.467036 
L 229.504349 513.517815 
L 230.086287 515.695239 
L 230.668226 520.056095 
L 232.414042 538.455347 
L 232.995981 539.620154 
L 234.741796 516.500817 
L 235.323735 513.375316 
L 235.905674 512.709098 
L 236.487612 509.043577 
L 237.069551 504.381553 
L 237.65149 502.161044 
L 238.233428 505.824873 
L 238.815367 513.380082 
L 239.397305 523.452257 
L 239.979244 530.182152 
L 240.561183 529.826418 
L 241.143121 528.140506 
L 241.72506 523.970131 
L 242.306999 517.627201 
L 244.052814 506.521366 
L 244.634753 503.655121 
L 245.216692 502.22335 
L 245.79863 498.686578 
L 246.380569 496.702547 
L 246.962507 497.580728 
L 247.544446 497.712189 
L 248.708323 492.351795 
L 249.290262 487.968891 
L 249.872201 485.714747 
L 250.454139 491.382475 
L 252.781894 527.630896 
L 253.945771 534.051685 
L 254.52771 535.07737 
L 256.273525 520.091052 
L 257.437403 514.880874 
L 258.019341 513.460717 
L 258.60128 514.517813 
L 259.183219 516.159347 
L 259.765157 515.093519 
L 260.347096 514.288966 
L 260.929034 512.841521 
L 261.510973 513.102814 
L 262.092912 513.714694 
L 262.67485 515.82829 
L 263.256789 515.344134 
L 263.838728 516.811787 
L 264.420666 523.481813 
L 265.584543 534.800185 
L 266.166482 537.825823 
L 266.748421 537.59126 
L 267.912298 514.08763 
L 268.494237 509.414469 
L 269.658114 502.494237 
L 270.240052 496.839062 
L 270.821991 493.759187 
L 271.40393 495.769562 
L 271.985868 508.497166 
L 272.567807 524.198317 
L 273.149746 531.828048 
L 273.731684 535.422607 
L 274.313623 534.340627 
L 274.895561 530.660713 
L 275.4775 528.251986 
L 276.059439 524.751562 
L 276.641377 522.922034 
L 277.223316 524.138627 
L 277.805254 526.5402 
L 278.387193 528.427111 
L 278.969132 531.002463 
L 279.55107 534.333595 
L 280.133009 538.609132 
L 281.878825 567.945367 
L 282.460763 572.004717 
L 283.624641 574.728729 
L 284.206579 572.122281 
L 284.788518 568.158494 
L 285.370457 557.712208 
L 287.116272 515.467631 
L 287.698211 502.905138 
L 288.28015 493.650074 
L 288.862088 491.029269 
L 289.444027 489.191635 
L 290.025966 492.90505 
L 290.607904 501.867719 
L 291.189843 513.255708 
L 291.771781 521.401059 
L 293.517597 555.884261 
L 294.099536 562.758783 
L 294.681475 561.560121 
L 295.845352 551.841369 
L 297.009229 547.543451 
L 297.591168 541.207951 
L 298.173106 530.595298 
L 298.755045 526.766931 
L 299.336984 527.776802 
L 299.918922 524.508876 
L 301.082799 507.394449 
L 301.664738 501.040191 
L 302.246677 498.900943 
L 302.828615 500.833872 
L 303.410554 498.42555 
L 303.992493 494.121776 
L 304.574431 494.648115 
L 305.738308 506.823343 
L 306.320247 510.67632 
L 306.902186 513.507732 
L 307.484124 514.158483 
L 308.066063 514.27004 
L 308.648001 520.994185 
L 309.22994 530.232077 
L 309.811879 535.277693 
L 310.975756 536.23795 
L 311.557695 541.146629 
L 312.721572 561.809394 
L 313.30351 564.560579 
L 313.885449 560.504889 
L 314.467388 559.217594 
L 315.049326 561.906834 
L 315.631265 559.672742 
L 316.213204 549.073506 
L 316.795142 535.366837 
L 317.377081 526.397102 
L 317.959019 523.96746 
L 319.122897 520.480267 
L 319.704835 521.51353 
L 320.868713 527.577278 
L 321.450651 531.089979 
L 322.03259 529.277222 
L 322.614528 523.21402 
L 323.778406 519.88888 
L 324.360344 515.379384 
L 324.942283 514.125972 
L 325.524222 514.913464 
L 326.10616 505.557739 
L 326.688099 492.600488 
L 327.270037 483.087958 
L 328.433915 461.328305 
L 329.015853 455.21277 
L 329.597792 452.13268 
L 330.179731 446.818185 
L 330.761669 446.408724 
L 331.343608 450.84902 
L 331.925546 453.755861 
L 332.507485 458.995523 
L 333.089424 460.188142 
L 333.671362 457.291693 
L 334.253301 456.479978 
L 334.83524 457.671412 
L 335.417178 464.033198 
L 336.581055 486.019333 
L 337.162994 489.784404 
L 337.744933 496.000437 
L 338.326871 507.2695 
L 340.072687 528.085691 
L 340.654626 526.404592 
L 341.236564 525.634475 
L 341.818503 529.314675 
L 342.400442 527.114831 
L 342.98238 519.91132 
L 344.146257 500.172413 
L 344.728196 495.406512 
L 345.310135 494.311451 
L 345.892073 494.07052 
L 346.474012 494.252309 
L 347.055951 503.349358 
L 348.801766 546.358486 
L 349.383705 550.743898 
L 351.129521 540.536729 
L 353.457275 513.87144 
L 354.039214 509.881801 
L 355.203091 512.215156 
L 355.78503 514.646073 
L 356.366969 511.94561 
L 356.948907 506.04304 
L 357.530846 508.027006 
L 358.112784 513.137758 
L 359.276662 526.490128 
L 359.8586 529.284778 
L 360.440539 526.785131 
L 361.022478 525.024715 
L 361.604416 519.234232 
L 362.186355 510.816541 
L 363.350232 504.654302 
L 363.932171 499.732188 
L 364.514109 489.380288 
L 365.096048 482.297447 
L 365.677987 488.824571 
L 366.259925 504.658813 
L 366.841864 515.072567 
L 367.423802 516.681009 
L 368.005741 513.017588 
L 368.58768 515.275736 
L 369.751557 547.799109 
L 370.333496 556.153198 
L 370.915434 559.788551 
L 371.497373 562.269764 
L 372.079311 561.723515 
L 372.66125 558.655994 
L 373.243189 549.119059 
L 373.825127 537.618318 
L 374.989004 521.375797 
L 375.570943 514.958088 
L 376.152882 510.813545 
L 376.73482 509.221833 
L 377.316759 509.978776 
L 377.898698 514.269819 
L 379.062575 526.946704 
L 379.644513 529.42475 
L 380.226452 529.694874 
L 380.808391 531.423886 
L 381.390329 538.023712 
L 381.972268 547.208389 
L 382.554207 552.552997 
L 383.136145 547.763119 
L 384.300022 530.074936 
L 385.4639 520.172032 
L 386.045838 516.932361 
L 386.627777 517.117804 
L 387.209716 518.729235 
L 387.791654 521.787349 
L 388.373593 528.691004 
L 390.119409 558.375076 
L 390.701347 565.198318 
L 391.283286 568.955051 
L 391.865225 566.836972 
L 392.447163 554.477265 
L 394.192979 503.257344 
L 395.938795 470.367162 
L 396.520734 471.227065 
L 397.102672 484.845701 
L 398.266549 521.628822 
L 398.848488 534.701842 
L 400.012365 546.51686 
L 400.594304 551.552425 
L 401.758181 556.59471 
L 402.34012 553.463913 
L 403.503997 539.396624 
L 404.085936 534.791403 
L 404.667874 532.393558 
L 405.249813 531.785832 
L 406.41369 535.833293 
L 406.995629 539.531844 
L 407.577567 545.107479 
L 408.159506 548.082573 
L 408.741445 548.493824 
L 409.323383 545.499236 
L 409.905322 539.637925 
L 410.48726 531.633852 
L 411.069199 527.543127 
L 411.651138 526.933764 
L 412.233076 526.745141 
L 412.815015 526.323396 
L 413.396954 529.182986 
L 413.978892 533.583254 
L 414.560831 533.694429 
L 415.142769 528.170694 
L 416.306647 503.923753 
L 417.470524 480.941634 
L 418.052463 475.795377 
L 418.634401 478.143995 
L 419.21634 487.087989 
L 419.798278 500.2142 
L 420.380217 507.282527 
L 421.544094 498.00785 
L 422.126033 495.238542 
L 423.28991 481.896311 
L 424.453787 458.692666 
L 425.035726 457.892238 
L 426.199603 479.554799 
L 427.363481 488.05557 
L 427.945419 488.028608 
L 428.527358 491.443329 
L 429.109296 497.070307 
L 429.691235 499.158328 
L 430.273174 497.755513 
L 430.855112 492.632416 
L 431.437051 492.728647 
L 432.01899 494.427433 
L 432.600928 498.560001 
L 433.182867 500.570206 
L 433.764805 500.193235 
L 435.510621 517.368377 
L 436.674499 535.646279 
L 437.256437 537.477365 
L 437.838376 541.027008 
L 438.420314 542.231214 
L 439.584192 524.772586 
L 440.16613 523.211671 
L 440.748069 514.817082 
L 441.330007 498.03706 
L 441.911946 489.203898 
L 442.493885 487.630913 
L 443.075823 491.818376 
L 443.657762 499.327966 
L 444.239701 504.387763 
L 444.821639 507.970931 
L 445.403578 512.912843 
L 445.985516 523.529222 
L 446.567455 529.14691 
L 447.149394 522.933562 
L 448.313271 507.111652 
L 448.89521 508.095825 
L 449.477148 510.129117 
L 450.059087 511.513449 
L 451.222964 515.079687 
L 451.804903 517.782837 
L 452.386841 517.746874 
L 452.96878 521.197951 
L 453.550719 518.670341 
L 454.132657 515.327089 
L 454.714596 510.959193 
L 455.296534 501.959276 
L 455.878473 498.778677 
L 456.460412 507.488389 
L 457.624289 527.169513 
L 458.206228 533.53303 
L 459.370105 541.257133 
L 459.952043 547.905622 
L 460.533982 553.247996 
L 461.115921 552.771222 
L 462.279798 542.4004 
L 462.861737 544.008678 
L 463.443675 547.227769 
L 464.025614 548.103458 
L 464.607552 548.393799 
L 465.189491 544.842569 
L 465.77143 538.036708 
L 466.353368 535.881038 
L 466.935307 536.055161 
L 466.935307 536.055161 
" clip-path="url(#p8948f6a6e5)" style="fill: none; stroke: #1f77b4; stroke-width: 1.5; stroke-linecap: square"/>
   </g>
   <g id="line2d_29">
    <path d="M 227.176594 663.64 
L 227.176594 385.08 
" clip-path="url(#p8948f6a6e5)" style="fill: none; stroke-dasharray: 5.55,2.4; stroke-dashoffset: 0; stroke: #808080; stroke-width: 1.5"/>
   </g>
   <g id="line2d_30">
    <path d="M 81.11 518.745524 
L 469.845 518.745524 
" clip-path="url(#p8948f6a6e5)" style="fill: none; stroke: #ff0000; stroke-opacity: 0.3; stroke-width: 1.5; stroke-linecap: square"/>
   </g>
   <g id="patch_10">
    <path d="M 81.11 663.64 
L 81.11 385.08 
" style="fill: none; stroke: #000000; stroke-width: 0.8; stroke-linejoin: miter; stroke-linecap: square"/>
   </g>
   <g id="patch_11">
    <path d="M 469.845 663.64 
L 469.845 385.08 
" style="fill: none; stroke: #000000; stroke-width: 0.8; stroke-linejoin: miter; stroke-linecap: square"/>
   </g>
   <g id="patch_12">
    <path d="M 81.11 663.64 
L 469.845 663.64 
" style="fill: none; stroke: #000000; stroke-width: 0.8; stroke-linejoin: miter; stroke-linecap: square"/>
   </g>
   <g id="patch_13">
    <path d="M 81.11 385.08 
L 469.845 385.08 
" style="fill: none; stroke: #000000; stroke-width: 0.8; stroke-linejoin: miter; stroke-linecap: square"/>
   </g>
   <g id="text_30">
    <!-- Pressure -->
    <g transform="translate(238.59415 379.08) scale(0.1728 -0.1728)">
     <defs>
      <path id="DejaVuSans-50" d="M 1259 4147 
L 1259 2394 
L 2053 2394 
Q 2494 2394 2734 2622 
Q 2975 2850 2975 3272 
Q 2975 3691 2734 3919 
Q 2494 4147 2053 4147 
L 1259 4147 
z
M 628 4666 
L 2053 4666 
Q 2838 4666 3239 4311 
Q 3641 3956 3641 3272 
Q 3641 2581 3239 2228 
Q 2838 1875 2053 1875 
L 1259 1875 
L 1259 0 
L 628 0 
L 628 4666 
z
" transform="scale(0.015625)"/>
     </defs>
     <use xlink:href="#DejaVuSans-50"/>
     <use xlink:href="#DejaVuSans-72" x="58.552734"/>
     <use xlink:href="#DejaVuSans-65" x="97.416016"/>
     <use xlink:href="#DejaVuSans-73" x="158.939453"/>
     <use xlink:href="#DejaVuSans-73" x="211.039062"/>
     <use xlink:href="#DejaVuSans-75" x="263.138672"/>
     <use xlink:href="#DejaVuSans-72" x="326.517578"/>
     <use xlink:href="#DejaVuSans-65" x="365.380859"/>
    </g>
   </g>
  </g>
  <g id="axes_3">
   <g id="patch_14">
    <path d="M 536.465 663.64 
L 925.2 663.64 
L 925.2 385.08 
L 536.465 385.08 
z
" style="fill: #ffffff"/>
   </g>
   <g id="patch_15">
    <path d="M 536.465 663.64 
L 536.465 385.08 
L 682.531594 385.08 
L 682.531594 663.64 
z
" clip-path="url(#p55a6bc38d3)" style="fill: #808080; opacity: 0.15"/>
   </g>
   <g id="matplotlib.axis_5">
    <g id="xtick_15">
     <g id="line2d_31">
      <g>
       <use xlink:href="#m3580922419" x="536.465" y="663.64" style="stroke: #000000; stroke-width: 0.8"/>
      </g>
     </g>
     <g id="text_31">
      <!-- 0 -->
      <g transform="translate(530.9678 683.7701) scale(0.1728 -0.1728)">
       <use xlink:href="#DejaVuSans-30"/>
      </g>
     </g>
    </g>
    <g id="xtick_16">
     <g id="line2d_32">
      <g>
       <use xlink:href="#m3580922419" x="594.658862" y="663.64" style="stroke: #000000; stroke-width: 0.8"/>
      </g>
     </g>
     <g id="text_32">
      <!-- 1 -->
      <g transform="translate(589.161662 683.7701) scale(0.1728 -0.1728)">
       <use xlink:href="#DejaVuSans-31"/>
      </g>
     </g>
    </g>
    <g id="xtick_17">
     <g id="line2d_33">
      <g>
       <use xlink:href="#m3580922419" x="652.852725" y="663.64" style="stroke: #000000; stroke-width: 0.8"/>
      </g>
     </g>
     <g id="text_33">
      <!-- 2 -->
      <g transform="translate(647.355525 683.7701) scale(0.1728 -0.1728)">
       <use xlink:href="#DejaVuSans-32"/>
      </g>
     </g>
    </g>
    <g id="xtick_18">
     <g id="line2d_34">
      <g>
       <use xlink:href="#m3580922419" x="711.046587" y="663.64" style="stroke: #000000; stroke-width: 0.8"/>
      </g>
     </g>
     <g id="text_34">
      <!-- 3 -->
      <g transform="translate(705.549387 683.7701) scale(0.1728 -0.1728)">
       <use xlink:href="#DejaVuSans-33"/>
      </g>
     </g>
    </g>
    <g id="xtick_19">
     <g id="line2d_35">
      <g>
       <use xlink:href="#m3580922419" x="769.240449" y="663.64" style="stroke: #000000; stroke-width: 0.8"/>
      </g>
     </g>
     <g id="text_35">
      <!-- 4 -->
      <g transform="translate(763.743249 683.7701) scale(0.1728 -0.1728)">
       <use xlink:href="#DejaVuSans-34"/>
      </g>
     </g>
    </g>
    <g id="xtick_20">
     <g id="line2d_36">
      <g>
       <use xlink:href="#m3580922419" x="827.434311" y="663.64" style="stroke: #000000; stroke-width: 0.8"/>
      </g>
     </g>
     <g id="text_36">
      <!-- 5 -->
      <g transform="translate(821.937111 683.7701) scale(0.1728 -0.1728)">
       <use xlink:href="#DejaVuSans-35"/>
      </g>
     </g>
    </g>
    <g id="xtick_21">
     <g id="line2d_37">
      <g>
       <use xlink:href="#m3580922419" x="885.628174" y="663.64" style="stroke: #000000; stroke-width: 0.8"/>
      </g>
     </g>
     <g id="text_37">
      <!-- 6 -->
      <g transform="translate(880.130974 683.7701) scale(0.1728 -0.1728)">
       <use xlink:href="#DejaVuSans-36"/>
      </g>
     </g>
    </g>
    <g id="text_38">
     <!-- time in a.u. -->
     <g transform="translate(681.68305 704.4939) scale(0.1728 -0.1728)">
      <use xlink:href="#DejaVuSans-74"/>
      <use xlink:href="#DejaVuSans-69" x="39.208984"/>
      <use xlink:href="#DejaVuSans-6d" x="66.992188"/>
      <use xlink:href="#DejaVuSans-65" x="164.404297"/>
      <use xlink:href="#DejaVuSans-20" x="225.927734"/>
      <use xlink:href="#DejaVuSans-69" x="257.714844"/>
      <use xlink:href="#DejaVuSans-6e" x="285.498047"/>
      <use xlink:href="#DejaVuSans-20" x="348.876953"/>
      <use xlink:href="#DejaVuSans-61" x="380.664062"/>
      <use xlink:href="#DejaVuSans-2e" x="441.943359"/>
      <use xlink:href="#DejaVuSans-75" x="473.730469"/>
      <use xlink:href="#DejaVuSans-2e" x="537.109375"/>
     </g>
    </g>
   </g>
   <g id="matplotlib.axis_6">
    <g id="ytick_11">
     <g id="line2d_38">
      <g>
       <use xlink:href="#m77000bb8df" x="536.465" y="658.070002" style="stroke: #000000; stroke-width: 0.8"/>
      </g>
     </g>
     <g id="text_39">
      <!-- 0.0 -->
      <g transform="translate(501.9844 664.635052) scale(0.1728 -0.1728)">
       <use xlink:href="#DejaVuSans-30"/>
       <use xlink:href="#DejaVuSans-2e" x="63.623047"/>
       <use xlink:href="#DejaVuSans-30" x="95.410156"/>
      </g>
     </g>
    </g>
    <g id="ytick_12">
     <g id="line2d_39">
      <g>
       <use xlink:href="#m77000bb8df" x="536.465" y="612.033854" style="stroke: #000000; stroke-width: 0.8"/>
      </g>
     </g>
     <g id="text_40">
      <!-- 0.2 -->
      <g transform="translate(501.9844 618.598904) scale(0.1728 -0.1728)">
       <use xlink:href="#DejaVuSans-30"/>
       <use xlink:href="#DejaVuSans-2e" x="63.623047"/>
       <use xlink:href="#DejaVuSans-32" x="95.410156"/>
      </g>
     </g>
    </g>
    <g id="ytick_13">
     <g id="line2d_40">
      <g>
       <use xlink:href="#m77000bb8df" x="536.465" y="565.997707" style="stroke: #000000; stroke-width: 0.8"/>
      </g>
     </g>
     <g id="text_41">
      <!-- 0.4 -->
      <g transform="translate(501.9844 572.562757) scale(0.1728 -0.1728)">
       <use xlink:href="#DejaVuSans-30"/>
       <use xlink:href="#DejaVuSans-2e" x="63.623047"/>
       <use xlink:href="#DejaVuSans-34" x="95.410156"/>
      </g>
     </g>
    </g>
    <g id="ytick_14">
     <g id="line2d_41">
      <g>
       <use xlink:href="#m77000bb8df" x="536.465" y="519.96156" style="stroke: #000000; stroke-width: 0.8"/>
      </g>
     </g>
     <g id="text_42">
      <!-- 0.6 -->
      <g transform="translate(501.9844 526.52661) scale(0.1728 -0.1728)">
       <use xlink:href="#DejaVuSans-30"/>
       <use xlink:href="#DejaVuSans-2e" x="63.623047"/>
       <use xlink:href="#DejaVuSans-36" x="95.410156"/>
      </g>
     </g>
    </g>
    <g id="ytick_15">
     <g id="line2d_42">
      <g>
       <use xlink:href="#m77000bb8df" x="536.465" y="473.925413" style="stroke: #000000; stroke-width: 0.8"/>
      </g>
     </g>
     <g id="text_43">
      <!-- 0.8 -->
      <g transform="translate(501.9844 480.490463) scale(0.1728 -0.1728)">
       <use xlink:href="#DejaVuSans-30"/>
       <use xlink:href="#DejaVuSans-2e" x="63.623047"/>
       <use xlink:href="#DejaVuSans-38" x="95.410156"/>
      </g>
     </g>
    </g>
    <g id="ytick_16">
     <g id="line2d_43">
      <g>
       <use xlink:href="#m77000bb8df" x="536.465" y="427.889266" style="stroke: #000000; stroke-width: 0.8"/>
      </g>
     </g>
     <g id="text_44">
      <!-- 1.0 -->
      <g transform="translate(501.9844 434.454316) scale(0.1728 -0.1728)">
       <use xlink:href="#DejaVuSans-31"/>
       <use xlink:href="#DejaVuSans-2e" x="63.623047"/>
       <use xlink:href="#DejaVuSans-30" x="95.410156"/>
      </g>
     </g>
    </g>
    <g id="text_45">
     <!-- (avg. M=4) temperature in a.u. -->
     <g transform="translate(494.3907 659.35865) rotate(-90) scale(0.1728 -0.1728)">
      <use xlink:href="#DejaVuSans-28"/>
      <use xlink:href="#DejaVuSans-61" x="39.013672"/>
      <use xlink:href="#DejaVuSans-76" x="100.292969"/>
      <use xlink:href="#DejaVuSans-67" x="159.472656"/>
      <use xlink:href="#DejaVuSans-2e" x="222.949219"/>
      <use xlink:href="#DejaVuSans-20" x="254.736328"/>
      <use xlink:href="#DejaVuSans-4d" x="286.523438"/>
      <use xlink:href="#DejaVuSans-3d" x="372.802734"/>
      <use xlink:href="#DejaVuSans-34" x="456.591797"/>
      <use xlink:href="#DejaVuSans-29" x="520.214844"/>
      <use xlink:href="#DejaVuSans-20" x="559.228516"/>
      <use xlink:href="#DejaVuSans-74" x="591.015625"/>
      <use xlink:href="#DejaVuSans-65" x="630.224609"/>
      <use xlink:href="#DejaVuSans-6d" x="691.748047"/>
      <use xlink:href="#DejaVuSans-70" x="789.160156"/>
      <use xlink:href="#DejaVuSans-65" x="852.636719"/>
      <use xlink:href="#DejaVuSans-72" x="914.160156"/>
      <use xlink:href="#DejaVuSans-61" x="955.273438"/>
      <use xlink:href="#DejaVuSans-74" x="1016.552734"/>
      <use xlink:href="#DejaVuSans-75" x="1055.761719"/>
      <use xlink:href="#DejaVuSans-72" x="1119.140625"/>
      <use xlink:href="#DejaVuSans-65" x="1158.003906"/>
      <use xlink:href="#DejaVuSans-20" x="1219.527344"/>
      <use xlink:href="#DejaVuSans-69" x="1251.314453"/>
      <use xlink:href="#DejaVuSans-6e" x="1279.097656"/>
      <use xlink:href="#DejaVuSans-20" x="1342.476562"/>
      <use xlink:href="#DejaVuSans-61" x="1374.263672"/>
      <use xlink:href="#DejaVuSans-2e" x="1435.542969"/>
      <use xlink:href="#DejaVuSans-75" x="1467.330078"/>
      <use xlink:href="#DejaVuSans-2e" x="1530.708984"/>
     </g>
    </g>
   </g>
   <g id="line2d_44">
    <path d="M 538.792754 450.764825 
L 539.374693 423.590498 
L 539.956632 423.354655 
L 540.53857 422.459929 
L 541.120509 421.989441 
L 542.284386 421.748558 
L 542.866325 423.491246 
L 543.448263 424.344368 
L 544.030202 423.037061 
L 544.612141 422.207858 
L 545.194079 422.215539 
L 545.776018 422.939819 
L 546.357957 423.021998 
L 546.939895 423.497579 
L 547.521834 423.433601 
L 548.103772 424.887876 
L 548.685711 427.018567 
L 549.849588 428.122862 
L 550.431527 427.411569 
L 551.013466 427.545727 
L 551.595404 428.308099 
L 552.177343 429.466539 
L 552.759281 428.948739 
L 553.34122 427.542968 
L 553.923159 428.826249 
L 554.505097 429.153135 
L 555.087036 428.610921 
L 556.250913 428.427447 
L 556.832852 426.491665 
L 557.41479 425.009567 
L 557.996729 426.130775 
L 558.578668 425.652866 
L 559.160606 425.346003 
L 559.742545 425.996993 
L 560.324484 426.122688 
L 561.488361 425.528771 
L 562.070299 425.943857 
L 562.652238 426.110099 
L 563.234177 425.966366 
L 563.816115 425.199925 
L 564.398054 426.493324 
L 564.979993 427.46632 
L 565.561931 426.697877 
L 566.14387 426.765411 
L 566.725808 427.01147 
L 567.307747 427.484178 
L 567.889686 426.801589 
L 568.471624 427.779852 
L 569.635501 426.93334 
L 570.21744 427.938029 
L 570.799379 428.156466 
L 571.381317 428.497011 
L 571.963256 427.851107 
L 572.545195 428.350956 
L 573.127133 429.031477 
L 573.709072 428.900464 
L 574.872949 429.396238 
L 575.454888 429.065638 
L 576.036826 427.072443 
L 576.618765 427.444425 
L 577.200704 428.822709 
L 577.782642 427.245975 
L 578.364581 426.105607 
L 578.946519 426.214851 
L 579.528458 427.773645 
L 580.110397 428.937672 
L 580.692335 428.824321 
L 581.274274 427.43093 
L 581.856213 426.451256 
L 582.438151 428.182261 
L 583.02009 429.48467 
L 583.602028 428.971226 
L 584.183967 427.151729 
L 584.765906 427.918908 
L 585.347844 429.924279 
L 586.511722 428.441426 
L 587.09366 428.864948 
L 588.257537 428.473407 
L 588.839476 427.375466 
L 589.421415 426.039704 
L 590.003353 426.335774 
L 590.585292 428.321451 
L 591.167231 428.574179 
L 591.749169 427.316822 
L 592.331108 428.462989 
L 592.913046 428.356237 
L 593.494985 427.862108 
L 594.658862 426.361889 
L 595.240801 426.615993 
L 595.82274 427.740576 
L 596.404678 429.744036 
L 596.986617 427.394978 
L 597.568555 427.801509 
L 598.150494 429.416196 
L 598.732433 428.836876 
L 599.314371 429.09904 
L 600.478249 427.718696 
L 601.060187 426.931272 
L 601.642126 428.289173 
L 602.806003 425.874394 
L 603.387942 426.892767 
L 603.96988 427.315631 
L 604.551819 428.945247 
L 605.133757 428.435647 
L 605.715696 426.209781 
L 606.297635 426.233399 
L 608.043451 428.779957 
L 608.625389 428.252319 
L 609.789266 426.515057 
L 610.371205 427.426863 
L 610.953144 427.185241 
L 611.535082 427.248893 
L 612.117021 427.102084 
L 612.69896 428.23078 
L 613.280898 428.009469 
L 613.862837 425.597868 
L 614.444775 426.431742 
L 615.026714 427.468498 
L 615.608653 427.913232 
L 616.190591 428.156804 
L 616.77253 427.714287 
L 617.354469 426.215981 
L 617.936407 426.8354 
L 618.518346 429.199363 
L 619.100284 429.983984 
L 619.682223 428.615789 
L 620.264162 427.909412 
L 620.8461 428.082211 
L 621.428039 427.218031 
L 622.009978 426.950574 
L 622.591916 427.396509 
L 623.755793 427.117518 
L 624.337732 428.286558 
L 624.919671 428.069617 
L 625.501609 426.542124 
L 626.083548 427.544539 
L 626.665487 427.598058 
L 627.247425 426.69346 
L 627.829364 426.557171 
L 628.411302 426.135083 
L 628.993241 425.222898 
L 629.57518 425.961824 
L 630.157118 427.728361 
L 630.739057 428.241 
L 631.320996 428.091262 
L 631.902934 427.763602 
L 632.484873 428.078474 
L 633.64875 427.391922 
L 634.230689 427.676721 
L 634.812627 427.744588 
L 635.976504 426.674886 
L 636.558443 426.55508 
L 637.140382 426.305714 
L 638.304259 429.105593 
L 638.886198 428.959701 
L 640.050075 429.046796 
L 640.632013 428.608473 
L 641.213952 429.48322 
L 641.795891 429.116994 
L 642.377829 428.409751 
L 642.959768 428.426389 
L 643.541707 429.078212 
L 644.705584 427.010336 
L 645.287522 428.618123 
L 645.869461 429.326613 
L 646.4514 427.742731 
L 647.033338 427.021983 
L 647.615277 426.669891 
L 648.197216 425.938046 
L 648.779154 426.751284 
L 649.361093 428.54201 
L 649.943031 428.059703 
L 650.52497 426.472285 
L 651.688847 430.504511 
L 652.852725 428.990867 
L 653.434663 428.520503 
L 654.016602 429.066035 
L 654.59854 428.288613 
L 655.180479 428.245527 
L 655.762418 427.601306 
L 656.344356 426.042096 
L 656.926295 427.250684 
L 658.090172 427.920724 
L 658.672111 426.744562 
L 659.254049 428.420546 
L 659.835988 428.982456 
L 660.417927 428.254475 
L 660.999865 428.113383 
L 661.581804 426.790109 
L 662.163743 426.643265 
L 662.745681 427.447072 
L 663.32762 427.518613 
L 663.909558 425.485624 
L 664.491497 425.947639 
L 665.073436 427.397508 
L 665.655374 428.347302 
L 666.237313 428.267442 
L 666.819251 428.341851 
L 667.40119 427.535464 
L 667.983129 427.054671 
L 668.565067 427.34471 
L 669.147006 426.884386 
L 669.728945 427.855069 
L 670.310883 427.543892 
L 670.892822 426.66116 
L 671.47476 427.524036 
L 672.056699 427.734635 
L 672.638638 428.240519 
L 673.220576 429.061734 
L 673.802515 428.690489 
L 674.384454 427.556829 
L 674.966392 427.474473 
L 675.548331 429.380127 
L 676.130269 428.791385 
L 676.712208 429.083047 
L 677.294147 429.806445 
L 677.876085 428.84254 
L 678.458024 428.453911 
L 679.039963 427.83077 
L 679.621901 427.474131 
L 680.20384 427.693905 
L 680.785778 427.528827 
L 681.367717 427.573905 
L 681.949656 426.762148 
L 682.531594 427.024565 
L 683.113533 427.007991 
L 683.695472 427.61073 
L 684.859349 427.597751 
L 685.441287 428.261304 
L 686.023226 427.994188 
L 686.605165 427.915039 
L 687.187103 427.668958 
L 687.769042 427.804648 
L 688.350981 428.251937 
L 688.932919 430.070073 
L 689.514858 429.860819 
L 691.260674 427.871054 
L 691.842612 428.718118 
L 692.424551 428.908194 
L 693.00649 428.283691 
L 693.588428 426.74381 
L 694.752305 424.709558 
L 695.334244 425.154525 
L 695.916183 426.554436 
L 696.498121 426.255496 
L 697.661999 427.002674 
L 698.243937 426.24946 
L 698.825876 426.349362 
L 699.407814 426.894178 
L 700.571692 426.653885 
L 701.15363 427.617549 
L 701.735569 427.407007 
L 702.317507 426.8698 
L 702.899446 427.310589 
L 703.481385 428.214804 
L 704.063323 428.168313 
L 704.645262 429.126286 
L 705.227201 429.120229 
L 705.809139 427.560111 
L 706.391078 427.241372 
L 706.973016 427.235308 
L 707.554955 428.054106 
L 708.136894 428.208233 
L 708.718832 429.043934 
L 709.300771 428.521849 
L 709.88271 428.458422 
L 710.464648 429.653873 
L 711.046587 429.41076 
L 712.210464 428.348142 
L 712.792403 428.349366 
L 713.374341 428.121827 
L 713.95628 427.516168 
L 714.538219 427.400659 
L 715.120157 428.122251 
L 715.702096 427.949133 
L 716.284034 428.268536 
L 716.865973 427.926383 
L 717.447912 428.105073 
L 718.02985 427.846079 
L 718.611789 428.794845 
L 719.193728 428.347096 
L 719.775666 427.033565 
L 720.357605 427.558383 
L 720.939543 426.977201 
L 721.521482 427.210089 
L 722.103421 427.227277 
L 722.685359 429.686604 
L 723.267298 429.581498 
L 723.849237 427.465816 
L 724.431175 427.592465 
L 725.013114 428.069968 
L 725.595052 429.182014 
L 726.176991 429.151637 
L 726.75893 428.714078 
L 727.340868 426.448766 
L 727.922807 426.128316 
L 728.504746 428.407815 
L 729.086684 428.926531 
L 729.668623 429.860622 
L 730.250561 430.31425 
L 730.8325 429.805774 
L 731.414439 430.151836 
L 731.996377 429.674041 
L 732.578316 428.847159 
L 733.160254 428.557935 
L 733.742193 428.734551 
L 734.90607 428.341237 
L 735.488009 428.295194 
L 736.069948 426.888284 
L 736.651886 426.803555 
L 737.233825 427.196272 
L 737.815763 428.064088 
L 738.397702 428.068142 
L 738.979641 427.221676 
L 739.561579 427.52592 
L 740.143518 426.978415 
L 740.725457 428.109331 
L 741.307395 428.534554 
L 741.889334 428.341765 
L 742.471272 427.663468 
L 743.053211 428.319326 
L 743.63515 428.283188 
L 744.217088 427.385731 
L 744.799027 428.235234 
L 745.380966 427.472543 
L 745.962904 426.929068 
L 746.544843 427.041176 
L 747.126781 428.511257 
L 747.70872 427.659315 
L 748.290659 427.410378 
L 748.872597 426.909489 
L 749.454536 427.435423 
L 750.036475 428.754397 
L 750.618413 428.802338 
L 751.200352 428.391448 
L 751.78229 427.251341 
L 752.364229 426.885272 
L 753.528106 429.049464 
L 754.110045 427.224438 
L 754.691984 426.26925 
L 755.855861 429.384679 
L 756.437799 428.896121 
L 757.019738 428.786802 
L 758.183615 426.96213 
L 758.765554 428.300215 
L 759.347493 428.702287 
L 760.51137 425.702796 
L 761.675247 426.522477 
L 762.257186 426.750692 
L 762.839124 427.566016 
L 763.421063 428.153783 
L 764.003001 426.832465 
L 764.58494 426.787541 
L 765.748817 429.847663 
L 766.330756 430.042614 
L 766.912695 428.981227 
L 767.494633 427.55649 
L 768.076572 427.04519 
L 768.65851 428.614414 
L 769.240449 429.613022 
L 770.404326 426.059453 
L 770.986265 426.684875 
L 771.568204 428.238216 
L 772.150142 428.647439 
L 773.314019 425.826863 
L 773.895958 426.028547 
L 774.477897 426.489491 
L 775.059835 426.128869 
L 775.641774 426.183959 
L 776.223713 426.507813 
L 776.805651 426.630634 
L 777.38759 428.207441 
L 777.969528 429.316528 
L 778.551467 427.881921 
L 779.133406 427.82714 
L 779.715344 428.385299 
L 780.297283 426.970923 
L 780.879222 425.880005 
L 781.46116 428.263317 
L 782.043099 428.579028 
L 782.625037 427.414422 
L 783.206976 428.568662 
L 783.788915 428.30284 
L 784.370853 427.872522 
L 784.952792 427.64624 
L 785.534731 428.990074 
L 786.698608 427.047177 
L 787.280546 427.58748 
L 787.862485 426.521876 
L 789.026362 428.504035 
L 789.608301 427.898408 
L 790.19024 427.614496 
L 791.354117 425.494111 
L 791.936055 426.395916 
L 792.517994 428.60574 
L 793.099933 428.001938 
L 793.681871 426.644374 
L 794.26381 427.916531 
L 794.845749 427.345075 
L 795.427687 427.366233 
L 796.009626 429.220314 
L 796.591564 428.342309 
L 797.173503 426.55982 
L 797.755442 427.823621 
L 798.33738 428.637206 
L 798.919319 428.793761 
L 799.501257 429.390224 
L 800.083196 427.977639 
L 800.665135 427.478772 
L 801.247073 427.841415 
L 801.829012 428.524693 
L 802.410951 426.731035 
L 802.992889 426.024598 
L 803.574828 426.344967 
L 804.156766 426.039133 
L 804.738705 428.244628 
L 805.320644 429.58676 
L 805.902582 428.920981 
L 806.484521 428.515747 
L 807.06646 429.286701 
L 807.648398 428.981173 
L 808.230337 429.196326 
L 808.812275 429.540366 
L 809.394214 428.904539 
L 809.976153 427.89604 
L 810.558091 428.157747 
L 811.14003 427.641429 
L 811.721969 428.912643 
L 812.303907 429.696623 
L 812.885846 427.44642 
L 813.467784 426.951435 
L 814.631662 426.590827 
L 815.795539 428.573765 
L 816.377478 427.845577 
L 816.959416 428.724829 
L 817.541355 429.272972 
L 818.123293 427.662117 
L 818.705232 427.700456 
L 819.287171 428.159338 
L 819.869109 429.840176 
L 820.451048 429.316075 
L 821.032987 426.230145 
L 821.614925 424.433357 
L 823.360741 430.183084 
L 823.94268 428.808641 
L 824.524618 425.42423 
L 825.106557 425.633642 
L 825.688496 427.768862 
L 826.270434 428.433124 
L 826.852373 428.053024 
L 827.434311 428.349665 
L 828.01625 428.488919 
L 828.598189 429.967692 
L 829.180127 430.201576 
L 829.762066 429.341109 
L 830.344004 429.210227 
L 830.925943 429.266716 
L 832.671759 428.717374 
L 833.253698 428.034489 
L 833.835636 427.635948 
L 834.417575 427.685006 
L 834.999513 428.660338 
L 835.581452 429.059016 
L 836.163391 428.473386 
L 836.745329 426.924341 
L 837.327268 425.930394 
L 837.909207 426.498683 
L 838.491145 428.738034 
L 839.073084 429.430742 
L 840.236961 428.179153 
L 841.400838 428.100417 
L 841.982777 427.409892 
L 843.146654 427.339197 
L 843.728593 426.503047 
L 844.310531 425.914298 
L 845.474409 425.562873 
L 846.056347 425.88285 
L 846.638286 425.897102 
L 847.220225 426.533063 
L 847.802163 428.430335 
L 848.96604 429.029063 
L 849.547979 428.68985 
L 850.129918 427.992687 
L 850.711856 428.970708 
L 851.293795 429.631528 
L 851.875734 428.056156 
L 852.457672 425.900971 
L 853.039611 425.682324 
L 853.621549 425.882681 
L 854.785427 428.51944 
L 855.367365 427.862782 
L 855.949304 427.553402 
L 856.531243 427.728425 
L 857.113181 427.159188 
L 858.277058 429.404144 
L 858.858997 429.001135 
L 859.440936 428.893348 
L 860.604813 428.501227 
L 861.186751 427.963298 
L 861.76869 428.120872 
L 862.350629 427.642009 
L 862.932567 426.970151 
L 863.514506 427.433726 
L 864.096445 427.606584 
L 865.84226 428.888663 
L 866.424199 427.84147 
L 867.006138 427.125161 
L 868.170015 427.378953 
L 868.751954 426.389637 
L 869.333892 425.817402 
L 870.497769 427.764573 
L 871.079708 428.882273 
L 871.661647 428.928984 
L 872.243585 428.827255 
L 872.825524 428.611685 
L 873.407463 427.942488 
L 874.57134 425.815587 
L 875.153278 425.013859 
L 875.735217 426.680762 
L 876.317156 429.769866 
L 877.481033 428.382042 
L 878.062972 429.273873 
L 878.64491 428.854441 
L 879.226849 430.405597 
L 879.808787 430.505284 
L 880.972665 425.163938 
L 881.554603 425.9106 
L 882.136542 427.723668 
L 882.718481 427.465953 
L 883.300419 428.83799 
L 883.882358 427.664455 
L 884.464296 427.02665 
L 886.210112 430.188543 
L 886.792051 428.623955 
L 887.37399 428.331635 
L 887.955928 427.683252 
L 889.119805 429.315727 
L 889.701744 427.530884 
L 890.283683 427.514957 
L 890.865621 428.113048 
L 891.44756 427.026504 
L 892.029499 426.591139 
L 892.611437 428.654358 
L 893.193376 427.48094 
L 893.775314 427.667916 
L 894.357253 430.220972 
L 894.939192 429.520798 
L 895.52113 427.287456 
L 896.103069 429.179543 
L 896.685007 431.487116 
L 897.266946 429.384969 
L 897.848885 428.165124 
L 898.430823 427.296172 
L 899.012762 426.885326 
L 899.594701 427.958482 
L 900.176639 428.517415 
L 900.758578 428.209501 
L 901.340516 426.429018 
L 901.922455 427.527184 
L 902.504394 430.193556 
L 903.086332 429.667511 
L 903.668271 429.634622 
L 904.25021 426.695435 
L 904.832148 426.478396 
L 905.414087 426.517333 
L 905.996025 426.273319 
L 906.577964 426.319886 
L 907.159903 426.125964 
L 907.741841 427.113434 
L 908.32378 425.992539 
L 908.905719 427.760794 
L 909.487657 427.688222 
L 910.069596 427.940396 
L 910.651534 429.594044 
L 911.233473 428.459392 
L 911.815412 425.854571 
L 912.39735 426.090822 
L 914.143166 428.76295 
L 914.725105 429.045341 
L 915.307043 428.105663 
L 915.888982 428.169409 
L 916.470921 429.271603 
L 917.052859 430.028765 
L 917.634798 429.765248 
L 918.216737 427.712441 
L 918.798675 427.213699 
L 919.380614 427.497582 
L 919.962552 427.009436 
L 921.12643 427.868971 
L 921.708368 426.163674 
L 922.290307 425.333494 
L 922.290307 425.333494 
" clip-path="url(#p55a6bc38d3)" style="fill: none; stroke: #1f77b4; stroke-width: 1.5; stroke-linecap: square"/>
   </g>
   <g id="line2d_45">
    <path d="M 682.531594 663.64 
L 682.531594 385.08 
" clip-path="url(#p55a6bc38d3)" style="fill: none; stroke-dasharray: 5.55,2.4; stroke-dashoffset: 0; stroke: #808080; stroke-width: 1.5"/>
   </g>
   <g id="line2d_46">
    <path d="M 536.465 427.849876 
L 925.2 427.849876 
" clip-path="url(#p55a6bc38d3)" style="fill: none; stroke: #ff0000; stroke-opacity: 0.3; stroke-width: 1.5; stroke-linecap: square"/>
   </g>
   <g id="patch_16">
    <path d="M 536.465 663.64 
L 536.465 385.08 
" style="fill: none; stroke: #000000; stroke-width: 0.8; stroke-linejoin: miter; stroke-linecap: square"/>
   </g>
   <g id="patch_17">
    <path d="M 925.2 663.64 
L 925.2 385.08 
" style="fill: none; stroke: #000000; stroke-width: 0.8; stroke-linejoin: miter; stroke-linecap: square"/>
   </g>
   <g id="patch_18">
    <path d="M 536.465 663.64 
L 925.2 663.64 
" style="fill: none; stroke: #000000; stroke-width: 0.8; stroke-linejoin: miter; stroke-linecap: square"/>
   </g>
   <g id="patch_19">
    <path d="M 536.465 385.08 
L 925.2 385.08 
" style="fill: none; stroke: #000000; stroke-width: 0.8; stroke-linejoin: miter; stroke-linecap: square"/>
   </g>
   <g id="text_46">
    <!-- Temperature -->
    <g transform="translate(676.10755 379.08) scale(0.1728 -0.1728)">
     <defs>
      <path id="DejaVuSans-54" d="M -19 4666 
L 3928 4666 
L 3928 4134 
L 2272 4134 
L 2272 0 
L 1638 0 
L 1638 4134 
L -19 4134 
L -19 4666 
z
" transform="scale(0.015625)"/>
     </defs>
     <use xlink:href="#DejaVuSans-54"/>
     <use xlink:href="#DejaVuSans-65" x="44.083984"/>
     <use xlink:href="#DejaVuSans-6d" x="105.607422"/>
     <use xlink:href="#DejaVuSans-70" x="203.019531"/>
     <use xlink:href="#DejaVuSans-65" x="266.496094"/>
     <use xlink:href="#DejaVuSans-72" x="328.019531"/>
     <use xlink:href="#DejaVuSans-61" x="369.132812"/>
     <use xlink:href="#DejaVuSans-74" x="430.412109"/>
     <use xlink:href="#DejaVuSans-75" x="469.621094"/>
     <use xlink:href="#DejaVuSans-72" x="533"/>
     <use xlink:href="#DejaVuSans-65" x="571.863281"/>
    </g>
   </g>
  </g>
 </g>
 <defs>
  <clipPath id="pa79bb7bb9f">
   <rect x="81.11" y="30.48" width="844.09" height="278.56"/>
  </clipPath>
  <clipPath id="p8948f6a6e5">
   <rect x="81.11" y="385.08" width="388.735" height="278.56"/>
  </clipPath>
  <clipPath id="p55a6bc38d3">
   <rect x="536.465" y="385.08" width="388.735" height="278.56"/>
  </clipPath>
 </defs>
</svg>
