<?xml version="1.0" encoding="utf-8" standalone="no"?>
<!DOCTYPE svg PUBLIC "-//W3C//DTD SVG 1.1//EN"
  "http://www.w3.org/Graphics/SVG/1.1/DTD/svg11.dtd">
<svg xmlns:xlink="http://www.w3.org/1999/xlink" width="936pt" height="720pt" viewBox="0 0 936 720" xmlns="http://www.w3.org/2000/svg" version="1.1">
 <metadata>
  <rdf:RDF xmlns:dc="http://purl.org/dc/elements/1.1/" xmlns:cc="http://creativecommons.org/ns#" xmlns:rdf="http://www.w3.org/1999/02/22-rdf-syntax-ns#">
   <cc:Work>
    <dc:type rdf:resource="http://purl.org/dc/dcmitype/StillImage"/>
    <dc:date>2024-12-09T03:43:03.123433</dc:date>
    <dc:format>image/svg+xml</dc:format>
    <dc:creator>
     <cc:Agent>
      <dc:title>Matplotlib v3.8.0, https://matplotlib.org/</dc:title>
     </cc:Agent>
    </dc:creator>
   </cc:Work>
  </rdf:RDF>
 </metadata>
 <defs>
  <style type="text/css">*{stroke-linejoin: round; stroke-linecap: butt}</style>
 </defs>
 <g id="figure_1">
  <g id="patch_1">
   <path d="M 0 720 
L 936 720 
L 936 0 
L 0 0 
z
" style="fill: #ffffff"/>
  </g>
  <g id="axes_1">
   <g id="patch_2">
    <path d="M 86.51 309.04 
L 925.2 309.04 
L 925.2 30.48 
L 86.51 30.48 
z
" style="fill: #ffffff"/>
   </g>
   <g id="patch_3">
    <path d="M 86.51 309.04 
L 86.51 30.48 
L 638.726112 30.48 
L 638.726112 309.04 
z
" clip-path="url(#p22d5835fb7)" style="fill: #808080; opacity: 0.15"/>
   </g>
   <g id="matplotlib.axis_1">
    <g id="xtick_1">
     <g id="line2d_1">
      <defs>
       <path id="m472e800d71" d="M 0 0 
L 0 3.5 
" style="stroke: #000000; stroke-width: 0.8"/>
      </defs>
      <g>
       <use xlink:href="#m472e800d71" x="86.51" y="309.04" style="stroke: #000000; stroke-width: 0.8"/>
      </g>
     </g>
     <g id="text_1">
      <!-- 0 -->
      <g transform="translate(81.0128 329.1701) scale(0.1728 -0.1728)">
       <defs>
        <path id="DejaVuSans-30" d="M 2034 4250 
Q 1547 4250 1301 3770 
Q 1056 3291 1056 2328 
Q 1056 1369 1301 889 
Q 1547 409 2034 409 
Q 2525 409 2770 889 
Q 3016 1369 3016 2328 
Q 3016 3291 2770 3770 
Q 2525 4250 2034 4250 
z
M 2034 4750 
Q 2819 4750 3233 4129 
Q 3647 3509 3647 2328 
Q 3647 1150 3233 529 
Q 2819 -91 2034 -91 
Q 1250 -91 836 529 
Q 422 1150 422 2328 
Q 422 3509 836 4129 
Q 1250 4750 2034 4750 
z
" transform="scale(0.015625)"/>
       </defs>
       <use xlink:href="#DejaVuSans-30"/>
      </g>
     </g>
    </g>
    <g id="xtick_2">
     <g id="line2d_2">
      <g>
       <use xlink:href="#m472e800d71" x="212.156442" y="309.04" style="stroke: #000000; stroke-width: 0.8"/>
      </g>
     </g>
     <g id="text_2">
      <!-- 2 -->
      <g transform="translate(206.659242 329.1701) scale(0.1728 -0.1728)">
       <defs>
        <path id="DejaVuSans-32" d="M 1228 531 
L 3431 531 
L 3431 0 
L 469 0 
L 469 531 
Q 828 903 1448 1529 
Q 2069 2156 2228 2338 
Q 2531 2678 2651 2914 
Q 2772 3150 2772 3378 
Q 2772 3750 2511 3984 
Q 2250 4219 1831 4219 
Q 1534 4219 1204 4116 
Q 875 4013 500 3803 
L 500 4441 
Q 881 4594 1212 4672 
Q 1544 4750 1819 4750 
Q 2544 4750 2975 4387 
Q 3406 4025 3406 3419 
Q 3406 3131 3298 2873 
Q 3191 2616 2906 2266 
Q 2828 2175 2409 1742 
Q 1991 1309 1228 531 
z
" transform="scale(0.015625)"/>
       </defs>
       <use xlink:href="#DejaVuSans-32"/>
      </g>
     </g>
    </g>
    <g id="xtick_3">
     <g id="line2d_3">
      <g>
       <use xlink:href="#m472e800d71" x="337.802884" y="309.04" style="stroke: #000000; stroke-width: 0.8"/>
      </g>
     </g>
     <g id="text_3">
      <!-- 4 -->
      <g transform="translate(332.305684 329.1701) scale(0.1728 -0.1728)">
       <defs>
        <path id="DejaVuSans-34" d="M 2419 4116 
L 825 1625 
L 2419 1625 
L 2419 4116 
z
M 2253 4666 
L 3047 4666 
L 3047 1625 
L 3713 1625 
L 3713 1100 
L 3047 1100 
L 3047 0 
L 2419 0 
L 2419 1100 
L 313 1100 
L 313 1709 
L 2253 4666 
z
" transform="scale(0.015625)"/>
       </defs>
       <use xlink:href="#DejaVuSans-34"/>
      </g>
     </g>
    </g>
    <g id="xtick_4">
     <g id="line2d_4">
      <g>
       <use xlink:href="#m472e800d71" x="463.449326" y="309.04" style="stroke: #000000; stroke-width: 0.8"/>
      </g>
     </g>
     <g id="text_4">
      <!-- 6 -->
      <g transform="translate(457.952126 329.1701) scale(0.1728 -0.1728)">
       <defs>
        <path id="DejaVuSans-36" d="M 2113 2584 
Q 1688 2584 1439 2293 
Q 1191 2003 1191 1497 
Q 1191 994 1439 701 
Q 1688 409 2113 409 
Q 2538 409 2786 701 
Q 3034 994 3034 1497 
Q 3034 2003 2786 2293 
Q 2538 2584 2113 2584 
z
M 3366 4563 
L 3366 3988 
Q 3128 4100 2886 4159 
Q 2644 4219 2406 4219 
Q 1781 4219 1451 3797 
Q 1122 3375 1075 2522 
Q 1259 2794 1537 2939 
Q 1816 3084 2150 3084 
Q 2853 3084 3261 2657 
Q 3669 2231 3669 1497 
Q 3669 778 3244 343 
Q 2819 -91 2113 -91 
Q 1303 -91 875 529 
Q 447 1150 447 2328 
Q 447 3434 972 4092 
Q 1497 4750 2381 4750 
Q 2619 4750 2861 4703 
Q 3103 4656 3366 4563 
z
" transform="scale(0.015625)"/>
       </defs>
       <use xlink:href="#DejaVuSans-36"/>
      </g>
     </g>
    </g>
    <g id="xtick_5">
     <g id="line2d_5">
      <g>
       <use xlink:href="#m472e800d71" x="589.095768" y="309.04" style="stroke: #000000; stroke-width: 0.8"/>
      </g>
     </g>
     <g id="text_5">
      <!-- 8 -->
      <g transform="translate(583.598568 329.1701) scale(0.1728 -0.1728)">
       <defs>
        <path id="DejaVuSans-38" d="M 2034 2216 
Q 1584 2216 1326 1975 
Q 1069 1734 1069 1313 
Q 1069 891 1326 650 
Q 1584 409 2034 409 
Q 2484 409 2743 651 
Q 3003 894 3003 1313 
Q 3003 1734 2745 1975 
Q 2488 2216 2034 2216 
z
M 1403 2484 
Q 997 2584 770 2862 
Q 544 3141 544 3541 
Q 544 4100 942 4425 
Q 1341 4750 2034 4750 
Q 2731 4750 3128 4425 
Q 3525 4100 3525 3541 
Q 3525 3141 3298 2862 
Q 3072 2584 2669 2484 
Q 3125 2378 3379 2068 
Q 3634 1759 3634 1313 
Q 3634 634 3220 271 
Q 2806 -91 2034 -91 
Q 1263 -91 848 271 
Q 434 634 434 1313 
Q 434 1759 690 2068 
Q 947 2378 1403 2484 
z
M 1172 3481 
Q 1172 3119 1398 2916 
Q 1625 2713 2034 2713 
Q 2441 2713 2670 2916 
Q 2900 3119 2900 3481 
Q 2900 3844 2670 4047 
Q 2441 4250 2034 4250 
Q 1625 4250 1398 4047 
Q 1172 3844 1172 3481 
z
" transform="scale(0.015625)"/>
       </defs>
       <use xlink:href="#DejaVuSans-38"/>
      </g>
     </g>
    </g>
    <g id="xtick_6">
     <g id="line2d_6">
      <g>
       <use xlink:href="#m472e800d71" x="714.74221" y="309.04" style="stroke: #000000; stroke-width: 0.8"/>
      </g>
     </g>
     <g id="text_6">
      <!-- 10 -->
      <g transform="translate(703.74781 329.1701) scale(0.1728 -0.1728)">
       <defs>
        <path id="DejaVuSans-31" d="M 794 531 
L 1825 531 
L 1825 4091 
L 703 3866 
L 703 4441 
L 1819 4666 
L 2450 4666 
L 2450 531 
L 3481 531 
L 3481 0 
L 794 0 
L 794 531 
z
" transform="scale(0.015625)"/>
       </defs>
       <use xlink:href="#DejaVuSans-31"/>
       <use xlink:href="#DejaVuSans-30" x="63.623047"/>
      </g>
     </g>
    </g>
    <g id="xtick_7">
     <g id="line2d_7">
      <g>
       <use xlink:href="#m472e800d71" x="840.388652" y="309.04" style="stroke: #000000; stroke-width: 0.8"/>
      </g>
     </g>
     <g id="text_7">
      <!-- 12 -->
      <g transform="translate(829.394252 329.1701) scale(0.1728 -0.1728)">
       <use xlink:href="#DejaVuSans-31"/>
       <use xlink:href="#DejaVuSans-32" x="63.623047"/>
      </g>
     </g>
    </g>
    <g id="text_8">
     <!-- time in a.u. -->
     <g transform="translate(456.70555 349.8939) scale(0.1728 -0.1728)">
      <defs>
       <path id="DejaVuSans-74" d="M 1172 4494 
L 1172 3500 
L 2356 3500 
L 2356 3053 
L 1172 3053 
L 1172 1153 
Q 1172 725 1289 603 
Q 1406 481 1766 481 
L 2356 481 
L 2356 0 
L 1766 0 
Q 1100 0 847 248 
Q 594 497 594 1153 
L 594 3053 
L 172 3053 
L 172 3500 
L 594 3500 
L 594 4494 
L 1172 4494 
z
" transform="scale(0.015625)"/>
       <path id="DejaVuSans-69" d="M 603 3500 
L 1178 3500 
L 1178 0 
L 603 0 
L 603 3500 
z
M 603 4863 
L 1178 4863 
L 1178 4134 
L 603 4134 
L 603 4863 
z
" transform="scale(0.015625)"/>
       <path id="DejaVuSans-6d" d="M 3328 2828 
Q 3544 3216 3844 3400 
Q 4144 3584 4550 3584 
Q 5097 3584 5394 3201 
Q 5691 2819 5691 2113 
L 5691 0 
L 5113 0 
L 5113 2094 
Q 5113 2597 4934 2840 
Q 4756 3084 4391 3084 
Q 3944 3084 3684 2787 
Q 3425 2491 3425 1978 
L 3425 0 
L 2847 0 
L 2847 2094 
Q 2847 2600 2669 2842 
Q 2491 3084 2119 3084 
Q 1678 3084 1418 2786 
Q 1159 2488 1159 1978 
L 1159 0 
L 581 0 
L 581 3500 
L 1159 3500 
L 1159 2956 
Q 1356 3278 1631 3431 
Q 1906 3584 2284 3584 
Q 2666 3584 2933 3390 
Q 3200 3197 3328 2828 
z
" transform="scale(0.015625)"/>
       <path id="DejaVuSans-65" d="M 3597 1894 
L 3597 1613 
L 953 1613 
Q 991 1019 1311 708 
Q 1631 397 2203 397 
Q 2534 397 2845 478 
Q 3156 559 3463 722 
L 3463 178 
Q 3153 47 2828 -22 
Q 2503 -91 2169 -91 
Q 1331 -91 842 396 
Q 353 884 353 1716 
Q 353 2575 817 3079 
Q 1281 3584 2069 3584 
Q 2775 3584 3186 3129 
Q 3597 2675 3597 1894 
z
M 3022 2063 
Q 3016 2534 2758 2815 
Q 2500 3097 2075 3097 
Q 1594 3097 1305 2825 
Q 1016 2553 972 2059 
L 3022 2063 
z
" transform="scale(0.015625)"/>
       <path id="DejaVuSans-20" transform="scale(0.015625)"/>
       <path id="DejaVuSans-6e" d="M 3513 2113 
L 3513 0 
L 2938 0 
L 2938 2094 
Q 2938 2591 2744 2837 
Q 2550 3084 2163 3084 
Q 1697 3084 1428 2787 
Q 1159 2491 1159 1978 
L 1159 0 
L 581 0 
L 581 3500 
L 1159 3500 
L 1159 2956 
Q 1366 3272 1645 3428 
Q 1925 3584 2291 3584 
Q 2894 3584 3203 3211 
Q 3513 2838 3513 2113 
z
" transform="scale(0.015625)"/>
       <path id="DejaVuSans-61" d="M 2194 1759 
Q 1497 1759 1228 1600 
Q 959 1441 959 1056 
Q 959 750 1161 570 
Q 1363 391 1709 391 
Q 2188 391 2477 730 
Q 2766 1069 2766 1631 
L 2766 1759 
L 2194 1759 
z
M 3341 1997 
L 3341 0 
L 2766 0 
L 2766 531 
Q 2569 213 2275 61 
Q 1981 -91 1556 -91 
Q 1019 -91 701 211 
Q 384 513 384 1019 
Q 384 1609 779 1909 
Q 1175 2209 1959 2209 
L 2766 2209 
L 2766 2266 
Q 2766 2663 2505 2880 
Q 2244 3097 1772 3097 
Q 1472 3097 1187 3025 
Q 903 2953 641 2809 
L 641 3341 
Q 956 3463 1253 3523 
Q 1550 3584 1831 3584 
Q 2591 3584 2966 3190 
Q 3341 2797 3341 1997 
z
" transform="scale(0.015625)"/>
       <path id="DejaVuSans-2e" d="M 684 794 
L 1344 794 
L 1344 0 
L 684 0 
L 684 794 
z
" transform="scale(0.015625)"/>
       <path id="DejaVuSans-75" d="M 544 1381 
L 544 3500 
L 1119 3500 
L 1119 1403 
Q 1119 906 1312 657 
Q 1506 409 1894 409 
Q 2359 409 2629 706 
Q 2900 1003 2900 1516 
L 2900 3500 
L 3475 3500 
L 3475 0 
L 2900 0 
L 2900 538 
Q 2691 219 2414 64 
Q 2138 -91 1772 -91 
Q 1169 -91 856 284 
Q 544 659 544 1381 
z
M 1991 3584 
L 1991 3584 
z
" transform="scale(0.015625)"/>
      </defs>
      <use xlink:href="#DejaVuSans-74"/>
      <use xlink:href="#DejaVuSans-69" x="39.208984"/>
      <use xlink:href="#DejaVuSans-6d" x="66.992188"/>
      <use xlink:href="#DejaVuSans-65" x="164.404297"/>
      <use xlink:href="#DejaVuSans-20" x="225.927734"/>
      <use xlink:href="#DejaVuSans-69" x="257.714844"/>
      <use xlink:href="#DejaVuSans-6e" x="285.498047"/>
      <use xlink:href="#DejaVuSans-20" x="348.876953"/>
      <use xlink:href="#DejaVuSans-61" x="380.664062"/>
      <use xlink:href="#DejaVuSans-2e" x="441.943359"/>
      <use xlink:href="#DejaVuSans-75" x="473.730469"/>
      <use xlink:href="#DejaVuSans-2e" x="537.109375"/>
     </g>
    </g>
   </g>
   <g id="matplotlib.axis_2">
    <g id="ytick_1">
     <g id="line2d_8">
      <defs>
       <path id="m9a53633420" d="M 0 0 
L -3.5 0 
" style="stroke: #000000; stroke-width: 0.8"/>
      </defs>
      <g>
       <use xlink:href="#m9a53633420" x="86.51" y="305.855915" style="stroke: #000000; stroke-width: 0.8"/>
      </g>
     </g>
     <g id="text_9">
      <!-- −200 -->
      <g transform="translate(32.0467 312.420965) scale(0.1728 -0.1728)">
       <defs>
        <path id="DejaVuSans-2212" d="M 678 2272 
L 4684 2272 
L 4684 1741 
L 678 1741 
L 678 2272 
z
" transform="scale(0.015625)"/>
       </defs>
       <use xlink:href="#DejaVuSans-2212"/>
       <use xlink:href="#DejaVuSans-32" x="83.789062"/>
       <use xlink:href="#DejaVuSans-30" x="147.412109"/>
       <use xlink:href="#DejaVuSans-30" x="211.035156"/>
      </g>
     </g>
    </g>
    <g id="ytick_2">
     <g id="line2d_9">
      <g>
       <use xlink:href="#m9a53633420" x="86.51" y="245.477165" style="stroke: #000000; stroke-width: 0.8"/>
      </g>
     </g>
     <g id="text_10">
      <!-- −150 -->
      <g transform="translate(32.0467 252.042215) scale(0.1728 -0.1728)">
       <defs>
        <path id="DejaVuSans-35" d="M 691 4666 
L 3169 4666 
L 3169 4134 
L 1269 4134 
L 1269 2991 
Q 1406 3038 1543 3061 
Q 1681 3084 1819 3084 
Q 2600 3084 3056 2656 
Q 3513 2228 3513 1497 
Q 3513 744 3044 326 
Q 2575 -91 1722 -91 
Q 1428 -91 1123 -41 
Q 819 9 494 109 
L 494 744 
Q 775 591 1075 516 
Q 1375 441 1709 441 
Q 2250 441 2565 725 
Q 2881 1009 2881 1497 
Q 2881 1984 2565 2268 
Q 2250 2553 1709 2553 
Q 1456 2553 1204 2497 
Q 953 2441 691 2322 
L 691 4666 
z
" transform="scale(0.015625)"/>
       </defs>
       <use xlink:href="#DejaVuSans-2212"/>
       <use xlink:href="#DejaVuSans-31" x="83.789062"/>
       <use xlink:href="#DejaVuSans-35" x="147.412109"/>
       <use xlink:href="#DejaVuSans-30" x="211.035156"/>
      </g>
     </g>
    </g>
    <g id="ytick_3">
     <g id="line2d_10">
      <g>
       <use xlink:href="#m9a53633420" x="86.51" y="185.098416" style="stroke: #000000; stroke-width: 0.8"/>
      </g>
     </g>
     <g id="text_11">
      <!-- −100 -->
      <g transform="translate(32.0467 191.663466) scale(0.1728 -0.1728)">
       <use xlink:href="#DejaVuSans-2212"/>
       <use xlink:href="#DejaVuSans-31" x="83.789062"/>
       <use xlink:href="#DejaVuSans-30" x="147.412109"/>
       <use xlink:href="#DejaVuSans-30" x="211.035156"/>
      </g>
     </g>
    </g>
    <g id="ytick_4">
     <g id="line2d_11">
      <g>
       <use xlink:href="#m9a53633420" x="86.51" y="124.719666" style="stroke: #000000; stroke-width: 0.8"/>
      </g>
     </g>
     <g id="text_12">
      <!-- −50 -->
      <g transform="translate(43.0411 131.284716) scale(0.1728 -0.1728)">
       <use xlink:href="#DejaVuSans-2212"/>
       <use xlink:href="#DejaVuSans-35" x="83.789062"/>
       <use xlink:href="#DejaVuSans-30" x="147.412109"/>
      </g>
     </g>
    </g>
    <g id="ytick_5">
     <g id="line2d_12">
      <g>
       <use xlink:href="#m9a53633420" x="86.51" y="64.340916" style="stroke: #000000; stroke-width: 0.8"/>
      </g>
     </g>
     <g id="text_13">
      <!-- 0 -->
      <g transform="translate(68.5156 70.905966) scale(0.1728 -0.1728)">
       <use xlink:href="#DejaVuSans-30"/>
      </g>
     </g>
    </g>
    <g id="text_14">
     <!-- (avg. M=49) energy in a.u. -->
     <g transform="translate(24.453 286.0598) rotate(-90) scale(0.1728 -0.1728)">
      <defs>
       <path id="DejaVuSans-28" d="M 1984 4856 
Q 1566 4138 1362 3434 
Q 1159 2731 1159 2009 
Q 1159 1288 1364 580 
Q 1569 -128 1984 -844 
L 1484 -844 
Q 1016 -109 783 600 
Q 550 1309 550 2009 
Q 550 2706 781 3412 
Q 1013 4119 1484 4856 
L 1984 4856 
z
" transform="scale(0.015625)"/>
       <path id="DejaVuSans-76" d="M 191 3500 
L 800 3500 
L 1894 563 
L 2988 3500 
L 3597 3500 
L 2284 0 
L 1503 0 
L 191 3500 
z
" transform="scale(0.015625)"/>
       <path id="DejaVuSans-67" d="M 2906 1791 
Q 2906 2416 2648 2759 
Q 2391 3103 1925 3103 
Q 1463 3103 1205 2759 
Q 947 2416 947 1791 
Q 947 1169 1205 825 
Q 1463 481 1925 481 
Q 2391 481 2648 825 
Q 2906 1169 2906 1791 
z
M 3481 434 
Q 3481 -459 3084 -895 
Q 2688 -1331 1869 -1331 
Q 1566 -1331 1297 -1286 
Q 1028 -1241 775 -1147 
L 775 -588 
Q 1028 -725 1275 -790 
Q 1522 -856 1778 -856 
Q 2344 -856 2625 -561 
Q 2906 -266 2906 331 
L 2906 616 
Q 2728 306 2450 153 
Q 2172 0 1784 0 
Q 1141 0 747 490 
Q 353 981 353 1791 
Q 353 2603 747 3093 
Q 1141 3584 1784 3584 
Q 2172 3584 2450 3431 
Q 2728 3278 2906 2969 
L 2906 3500 
L 3481 3500 
L 3481 434 
z
" transform="scale(0.015625)"/>
       <path id="DejaVuSans-4d" d="M 628 4666 
L 1569 4666 
L 2759 1491 
L 3956 4666 
L 4897 4666 
L 4897 0 
L 4281 0 
L 4281 4097 
L 3078 897 
L 2444 897 
L 1241 4097 
L 1241 0 
L 628 0 
L 628 4666 
z
" transform="scale(0.015625)"/>
       <path id="DejaVuSans-3d" d="M 678 2906 
L 4684 2906 
L 4684 2381 
L 678 2381 
L 678 2906 
z
M 678 1631 
L 4684 1631 
L 4684 1100 
L 678 1100 
L 678 1631 
z
" transform="scale(0.015625)"/>
       <path id="DejaVuSans-39" d="M 703 97 
L 703 672 
Q 941 559 1184 500 
Q 1428 441 1663 441 
Q 2288 441 2617 861 
Q 2947 1281 2994 2138 
Q 2813 1869 2534 1725 
Q 2256 1581 1919 1581 
Q 1219 1581 811 2004 
Q 403 2428 403 3163 
Q 403 3881 828 4315 
Q 1253 4750 1959 4750 
Q 2769 4750 3195 4129 
Q 3622 3509 3622 2328 
Q 3622 1225 3098 567 
Q 2575 -91 1691 -91 
Q 1453 -91 1209 -44 
Q 966 3 703 97 
z
M 1959 2075 
Q 2384 2075 2632 2365 
Q 2881 2656 2881 3163 
Q 2881 3666 2632 3958 
Q 2384 4250 1959 4250 
Q 1534 4250 1286 3958 
Q 1038 3666 1038 3163 
Q 1038 2656 1286 2365 
Q 1534 2075 1959 2075 
z
" transform="scale(0.015625)"/>
       <path id="DejaVuSans-29" d="M 513 4856 
L 1013 4856 
Q 1481 4119 1714 3412 
Q 1947 2706 1947 2009 
Q 1947 1309 1714 600 
Q 1481 -109 1013 -844 
L 513 -844 
Q 928 -128 1133 580 
Q 1338 1288 1338 2009 
Q 1338 2731 1133 3434 
Q 928 4138 513 4856 
z
" transform="scale(0.015625)"/>
       <path id="DejaVuSans-72" d="M 2631 2963 
Q 2534 3019 2420 3045 
Q 2306 3072 2169 3072 
Q 1681 3072 1420 2755 
Q 1159 2438 1159 1844 
L 1159 0 
L 581 0 
L 581 3500 
L 1159 3500 
L 1159 2956 
Q 1341 3275 1631 3429 
Q 1922 3584 2338 3584 
Q 2397 3584 2469 3576 
Q 2541 3569 2628 3553 
L 2631 2963 
z
" transform="scale(0.015625)"/>
       <path id="DejaVuSans-79" d="M 2059 -325 
Q 1816 -950 1584 -1140 
Q 1353 -1331 966 -1331 
L 506 -1331 
L 506 -850 
L 844 -850 
Q 1081 -850 1212 -737 
Q 1344 -625 1503 -206 
L 1606 56 
L 191 3500 
L 800 3500 
L 1894 763 
L 2988 3500 
L 3597 3500 
L 2059 -325 
z
" transform="scale(0.015625)"/>
      </defs>
      <use xlink:href="#DejaVuSans-28"/>
      <use xlink:href="#DejaVuSans-61" x="39.013672"/>
      <use xlink:href="#DejaVuSans-76" x="100.292969"/>
      <use xlink:href="#DejaVuSans-67" x="159.472656"/>
      <use xlink:href="#DejaVuSans-2e" x="222.949219"/>
      <use xlink:href="#DejaVuSans-20" x="254.736328"/>
      <use xlink:href="#DejaVuSans-4d" x="286.523438"/>
      <use xlink:href="#DejaVuSans-3d" x="372.802734"/>
      <use xlink:href="#DejaVuSans-34" x="456.591797"/>
      <use xlink:href="#DejaVuSans-39" x="520.214844"/>
      <use xlink:href="#DejaVuSans-29" x="583.837891"/>
      <use xlink:href="#DejaVuSans-20" x="622.851562"/>
      <use xlink:href="#DejaVuSans-65" x="654.638672"/>
      <use xlink:href="#DejaVuSans-6e" x="716.162109"/>
      <use xlink:href="#DejaVuSans-65" x="779.541016"/>
      <use xlink:href="#DejaVuSans-72" x="841.064453"/>
      <use xlink:href="#DejaVuSans-67" x="880.427734"/>
      <use xlink:href="#DejaVuSans-79" x="943.904297"/>
      <use xlink:href="#DejaVuSans-20" x="1003.083984"/>
      <use xlink:href="#DejaVuSans-69" x="1034.871094"/>
      <use xlink:href="#DejaVuSans-6e" x="1062.654297"/>
      <use xlink:href="#DejaVuSans-20" x="1126.033203"/>
      <use xlink:href="#DejaVuSans-61" x="1157.820312"/>
      <use xlink:href="#DejaVuSans-2e" x="1219.099609"/>
      <use xlink:href="#DejaVuSans-75" x="1250.886719"/>
      <use xlink:href="#DejaVuSans-2e" x="1314.265625"/>
     </g>
    </g>
   </g>
   <g id="line2d_13">
    <path d="M 117.293378 108.619158 
L 117.92161 109.282635 
L 124.832165 119.38015 
L 127.973326 123.48519 
L 130.486255 126.540287 
L 137.396809 133.804253 
L 147.448524 142.58121 
L 151.217918 145.738582 
L 163.782562 157.391426 
L 165.667258 158.889096 
L 172.577813 163.613846 
L 178.231903 167.275614 
L 180.744831 168.80591 
L 190.168315 175.028918 
L 192.681243 176.426797 
L 194.56594 177.57965 
L 201.476494 181.402954 
L 203.989423 183.109508 
L 208.387049 185.866586 
L 212.784674 188.215872 
L 215.925835 189.590089 
L 217.810532 190.329143 
L 222.208157 192.411266 
L 225.349318 193.844517 
L 227.862247 195.019263 
L 232.259873 197.253217 
L 234.772801 198.645676 
L 240.426891 201.865616 
L 243.568052 203.708581 
L 245.452749 204.825494 
L 247.337446 205.982852 
L 249.850375 207.395887 
L 253.619768 209.926207 
L 258.017393 212.505094 
L 260.530322 214.08572 
L 263.043251 215.820707 
L 267.440876 218.600065 
L 269.325573 219.681036 
L 273.094966 221.781186 
L 275.607895 223.237802 
L 277.492592 224.27174 
L 279.377288 225.335305 
L 281.261985 226.137771 
L 286.916075 228.057328 
L 290.057236 229.058966 
L 291.941933 229.484841 
L 294.454861 229.879852 
L 300.737184 230.92789 
L 308.904202 231.866931 
L 313.93006 232.135129 
L 320.212382 232.957065 
L 322.725311 233.111555 
L 325.23824 233.252517 
L 328.379401 233.44235 
L 330.264097 233.55301 
L 333.405258 233.944567 
L 339.059348 234.374515 
L 343.456974 235.222224 
L 345.969903 235.838062 
L 350.367528 236.638304 
L 354.136921 237.239656 
L 357.906315 237.847744 
L 366.073333 238.909402 
L 376.753281 239.666475 
L 379.26621 239.494176 
L 381.150906 239.339901 
L 389.317925 239.193284 
L 391.202622 239.160111 
L 394.343783 239.429624 
L 399.997873 240.173447 
L 402.510801 240.305682 
L 410.049588 241.641453 
L 413.190749 242.424669 
L 418.844839 243.903251 
L 420.729536 244.231047 
L 425.127161 245.191074 
L 434.550644 246.430849 
L 445.230592 246.88481 
L 447.743521 246.590402 
L 450.256449 246.281642 
L 452.141146 246.269079 
L 454.025843 246.001664 
L 456.538772 245.637121 
L 458.423468 245.247043 
L 465.334022 243.61074 
L 470.35988 241.753258 
L 476.01397 240.286392 
L 479.783363 239.604539 
L 484.809221 238.79591 
L 487.32215 238.450292 
L 490.463311 238.170229 
L 493.604472 237.97235 
L 499.258562 238.332211 
L 502.399723 238.726661 
L 507.425581 239.713113 
L 511.823206 240.857939 
L 514.336135 241.282524 
L 518.73376 242.581492 
L 523.131386 244.2011 
L 525.016082 245.007713 
L 531.298404 247.90185 
L 533.183101 248.886216 
L 535.69603 249.90698 
L 539.465423 251.528766 
L 543.234816 252.930369 
L 547.00421 254.34355 
L 549.517139 255.243798 
L 552.030067 255.958772 
L 560.197086 258.181179 
L 564.594712 258.785896 
L 567.10764 259.081263 
L 570.248801 259.051161 
L 574.018195 259.045269 
L 576.531124 259.249018 
L 579.672285 259.190835 
L 585.326375 258.965684 
L 598.519251 257.417262 
L 601.660412 257.242719 
L 608.570966 257.688539 
L 610.455663 258.03508 
L 616.109753 259.25386 
L 621.13561 260.115407 
L 624.905004 261.232006 
L 627.417933 261.646394 
L 629.302629 261.991196 
L 633.700255 263.059756 
L 636.213184 263.190963 
L 638.726112 263.332122 
L 642.495506 263.981629 
L 645.008434 264.646125 
L 648.149596 265.358948 
L 650.662524 266.255765 
L 659.457775 268.729513 
L 665.111865 269.665335 
L 667.624794 270.214816 
L 668.881258 270.359547 
L 682.702367 270.340031 
L 686.47176 270.187152 
L 688.984689 270.264303 
L 695.895243 271.011382 
L 702.177566 272.25598 
L 704.062262 272.354017 
L 706.575191 272.2908 
L 709.716352 272.234615 
L 721.024532 270.927962 
L 722.909228 270.847548 
L 725.422157 270.751536 
L 736.730337 269.458468 
L 743.012659 268.055416 
L 746.15382 267.436058 
L 751.179678 266.76101 
L 755.577303 265.983624 
L 758.090232 265.570297 
L 763.744322 264.698536 
L 767.513715 264.441188 
L 776.937199 264.518339 
L 780.07836 264.741306 
L 785.732449 265.040474 
L 790.130075 264.990147 
L 792.014772 264.923893 
L 799.553558 265.103063 
L 803.322951 264.969502 
L 805.83588 265.099331 
L 808.348809 264.995477 
L 810.861738 264.987 
L 813.374667 265.006259 
L 815.259363 265.070228 
L 824.054614 265.432533 
L 828.45224 266.04822 
L 830.336936 266.10055 
L 834.10633 266.468716 
L 835.991026 266.900776 
L 838.503955 267.111883 
L 841.645116 267.412035 
L 844.158045 267.815877 
L 851.068599 268.968012 
L 853.581528 269.499873 
L 854.837993 269.803319 
L 857.350921 270.582803 
L 860.492082 271.537594 
L 864.889708 273.231245 
L 868.030869 273.963242 
L 871.17203 274.880202 
L 874.313191 275.605987 
L 884.364906 278.311329 
L 886.249603 278.336314 
L 888.762532 278.299588 
L 891.903693 278.577629 
L 893.78839 278.556533 
L 893.78839 278.556533 
" clip-path="url(#p22d5835fb7)" style="fill: none; stroke: #1f77b4; stroke-width: 1.5; stroke-linecap: square"/>
   </g>
   <g id="line2d_14">
    <path d="M 638.726112 309.04 
L 638.726112 30.48 
" clip-path="url(#p22d5835fb7)" style="fill: none; stroke-dasharray: 5.55,2.4; stroke-dashoffset: 0; stroke: #808080; stroke-width: 1.5"/>
   </g>
   <g id="line2d_15">
    <path d="M 86.51 270.081556 
L 925.2 270.081556 
" clip-path="url(#p22d5835fb7)" style="fill: none; stroke: #ff0000; stroke-opacity: 0.3; stroke-width: 1.5; stroke-linecap: square"/>
   </g>
   <g id="patch_4">
    <path d="M 86.51 309.04 
L 86.51 30.48 
" style="fill: none; stroke: #000000; stroke-width: 0.8; stroke-linejoin: miter; stroke-linecap: square"/>
   </g>
   <g id="patch_5">
    <path d="M 925.2 309.04 
L 925.2 30.48 
" style="fill: none; stroke: #000000; stroke-width: 0.8; stroke-linejoin: miter; stroke-linecap: square"/>
   </g>
   <g id="patch_6">
    <path d="M 86.51 309.04 
L 925.2 309.04 
" style="fill: none; stroke: #000000; stroke-width: 0.8; stroke-linejoin: miter; stroke-linecap: square"/>
   </g>
   <g id="patch_7">
    <path d="M 86.51 30.48 
L 925.2 30.48 
" style="fill: none; stroke: #000000; stroke-width: 0.8; stroke-linejoin: miter; stroke-linecap: square"/>
   </g>
   <g id="text_15">
    <!-- Energy -->
    <g transform="translate(475.6042 24.48) scale(0.1728 -0.1728)">
     <defs>
      <path id="DejaVuSans-45" d="M 628 4666 
L 3578 4666 
L 3578 4134 
L 1259 4134 
L 1259 2753 
L 3481 2753 
L 3481 2222 
L 1259 2222 
L 1259 531 
L 3634 531 
L 3634 0 
L 628 0 
L 628 4666 
z
" transform="scale(0.015625)"/>
     </defs>
     <use xlink:href="#DejaVuSans-45"/>
     <use xlink:href="#DejaVuSans-6e" x="63.183594"/>
     <use xlink:href="#DejaVuSans-65" x="126.5625"/>
     <use xlink:href="#DejaVuSans-72" x="188.085938"/>
     <use xlink:href="#DejaVuSans-67" x="227.449219"/>
     <use xlink:href="#DejaVuSans-79" x="290.925781"/>
    </g>
   </g>
  </g>
  <g id="axes_2">
   <g id="patch_8">
    <path d="M 86.51 663.64 
L 467.055 663.64 
L 467.055 385.08 
L 86.51 385.08 
z
" style="fill: #ffffff"/>
   </g>
   <g id="patch_9">
    <path d="M 86.51 663.64 
L 86.51 385.08 
L 337.07109 385.08 
L 337.07109 663.64 
z
" clip-path="url(#p3b61a134c4)" style="fill: #808080; opacity: 0.15"/>
   </g>
   <g id="matplotlib.axis_3">
    <g id="xtick_8">
     <g id="line2d_16">
      <g>
       <use xlink:href="#m472e800d71" x="86.51" y="663.64" style="stroke: #000000; stroke-width: 0.8"/>
      </g>
     </g>
     <g id="text_16">
      <!-- 0 -->
      <g transform="translate(81.0128 683.7701) scale(0.1728 -0.1728)">
       <use xlink:href="#DejaVuSans-30"/>
      </g>
     </g>
    </g>
    <g id="xtick_9">
     <g id="line2d_17">
      <g>
       <use xlink:href="#m472e800d71" x="143.520487" y="663.64" style="stroke: #000000; stroke-width: 0.8"/>
      </g>
     </g>
     <g id="text_17">
      <!-- 2 -->
      <g transform="translate(138.023287 683.7701) scale(0.1728 -0.1728)">
       <use xlink:href="#DejaVuSans-32"/>
      </g>
     </g>
    </g>
    <g id="xtick_10">
     <g id="line2d_18">
      <g>
       <use xlink:href="#m472e800d71" x="200.530974" y="663.64" style="stroke: #000000; stroke-width: 0.8"/>
      </g>
     </g>
     <g id="text_18">
      <!-- 4 -->
      <g transform="translate(195.033774 683.7701) scale(0.1728 -0.1728)">
       <use xlink:href="#DejaVuSans-34"/>
      </g>
     </g>
    </g>
    <g id="xtick_11">
     <g id="line2d_19">
      <g>
       <use xlink:href="#m472e800d71" x="257.541461" y="663.64" style="stroke: #000000; stroke-width: 0.8"/>
      </g>
     </g>
     <g id="text_19">
      <!-- 6 -->
      <g transform="translate(252.044261 683.7701) scale(0.1728 -0.1728)">
       <use xlink:href="#DejaVuSans-36"/>
      </g>
     </g>
    </g>
    <g id="xtick_12">
     <g id="line2d_20">
      <g>
       <use xlink:href="#m472e800d71" x="314.551948" y="663.64" style="stroke: #000000; stroke-width: 0.8"/>
      </g>
     </g>
     <g id="text_20">
      <!-- 8 -->
      <g transform="translate(309.054748 683.7701) scale(0.1728 -0.1728)">
       <use xlink:href="#DejaVuSans-38"/>
      </g>
     </g>
    </g>
    <g id="xtick_13">
     <g id="line2d_21">
      <g>
       <use xlink:href="#m472e800d71" x="371.562434" y="663.64" style="stroke: #000000; stroke-width: 0.8"/>
      </g>
     </g>
     <g id="text_21">
      <!-- 10 -->
      <g transform="translate(360.568034 683.7701) scale(0.1728 -0.1728)">
       <use xlink:href="#DejaVuSans-31"/>
       <use xlink:href="#DejaVuSans-30" x="63.623047"/>
      </g>
     </g>
    </g>
    <g id="xtick_14">
     <g id="line2d_22">
      <g>
       <use xlink:href="#m472e800d71" x="428.572921" y="663.64" style="stroke: #000000; stroke-width: 0.8"/>
      </g>
     </g>
     <g id="text_22">
      <!-- 12 -->
      <g transform="translate(417.578521 683.7701) scale(0.1728 -0.1728)">
       <use xlink:href="#DejaVuSans-31"/>
       <use xlink:href="#DejaVuSans-32" x="63.623047"/>
      </g>
     </g>
    </g>
    <g id="text_23">
     <!-- time in a.u. -->
     <g transform="translate(227.63305 704.4939) scale(0.1728 -0.1728)">
      <use xlink:href="#DejaVuSans-74"/>
      <use xlink:href="#DejaVuSans-69" x="39.208984"/>
      <use xlink:href="#DejaVuSans-6d" x="66.992188"/>
      <use xlink:href="#DejaVuSans-65" x="164.404297"/>
      <use xlink:href="#DejaVuSans-20" x="225.927734"/>
      <use xlink:href="#DejaVuSans-69" x="257.714844"/>
      <use xlink:href="#DejaVuSans-6e" x="285.498047"/>
      <use xlink:href="#DejaVuSans-20" x="348.876953"/>
      <use xlink:href="#DejaVuSans-61" x="380.664062"/>
      <use xlink:href="#DejaVuSans-2e" x="441.943359"/>
      <use xlink:href="#DejaVuSans-75" x="473.730469"/>
      <use xlink:href="#DejaVuSans-2e" x="537.109375"/>
     </g>
    </g>
   </g>
   <g id="matplotlib.axis_4">
    <g id="ytick_6">
     <g id="line2d_23">
      <g>
       <use xlink:href="#m9a53633420" x="86.51" y="644.055825" style="stroke: #000000; stroke-width: 0.8"/>
      </g>
     </g>
     <g id="text_24">
      <!-- −0.3 -->
      <g transform="translate(37.5493 650.620875) scale(0.1728 -0.1728)">
       <defs>
        <path id="DejaVuSans-33" d="M 2597 2516 
Q 3050 2419 3304 2112 
Q 3559 1806 3559 1356 
Q 3559 666 3084 287 
Q 2609 -91 1734 -91 
Q 1441 -91 1130 -33 
Q 819 25 488 141 
L 488 750 
Q 750 597 1062 519 
Q 1375 441 1716 441 
Q 2309 441 2620 675 
Q 2931 909 2931 1356 
Q 2931 1769 2642 2001 
Q 2353 2234 1838 2234 
L 1294 2234 
L 1294 2753 
L 1863 2753 
Q 2328 2753 2575 2939 
Q 2822 3125 2822 3475 
Q 2822 3834 2567 4026 
Q 2313 4219 1838 4219 
Q 1578 4219 1281 4162 
Q 984 4106 628 3988 
L 628 4550 
Q 988 4650 1302 4700 
Q 1616 4750 1894 4750 
Q 2613 4750 3031 4423 
Q 3450 4097 3450 3541 
Q 3450 3153 3228 2886 
Q 3006 2619 2597 2516 
z
" transform="scale(0.015625)"/>
       </defs>
       <use xlink:href="#DejaVuSans-2212"/>
       <use xlink:href="#DejaVuSans-30" x="83.789062"/>
       <use xlink:href="#DejaVuSans-2e" x="147.412109"/>
       <use xlink:href="#DejaVuSans-33" x="179.199219"/>
      </g>
     </g>
    </g>
    <g id="ytick_7">
     <g id="line2d_24">
      <g>
       <use xlink:href="#m9a53633420" x="86.51" y="604.762355" style="stroke: #000000; stroke-width: 0.8"/>
      </g>
     </g>
     <g id="text_25">
      <!-- −0.2 -->
      <g transform="translate(37.5493 611.327405) scale(0.1728 -0.1728)">
       <use xlink:href="#DejaVuSans-2212"/>
       <use xlink:href="#DejaVuSans-30" x="83.789062"/>
       <use xlink:href="#DejaVuSans-2e" x="147.412109"/>
       <use xlink:href="#DejaVuSans-32" x="179.199219"/>
      </g>
     </g>
    </g>
    <g id="ytick_8">
     <g id="line2d_25">
      <g>
       <use xlink:href="#m9a53633420" x="86.51" y="565.468884" style="stroke: #000000; stroke-width: 0.8"/>
      </g>
     </g>
     <g id="text_26">
      <!-- −0.1 -->
      <g transform="translate(37.5493 572.033934) scale(0.1728 -0.1728)">
       <use xlink:href="#DejaVuSans-2212"/>
       <use xlink:href="#DejaVuSans-30" x="83.789062"/>
       <use xlink:href="#DejaVuSans-2e" x="147.412109"/>
       <use xlink:href="#DejaVuSans-31" x="179.199219"/>
      </g>
     </g>
    </g>
    <g id="ytick_9">
     <g id="line2d_26">
      <g>
       <use xlink:href="#m9a53633420" x="86.51" y="526.175414" style="stroke: #000000; stroke-width: 0.8"/>
      </g>
     </g>
     <g id="text_27">
      <!-- 0.0 -->
      <g transform="translate(52.0294 532.740464) scale(0.1728 -0.1728)">
       <use xlink:href="#DejaVuSans-30"/>
       <use xlink:href="#DejaVuSans-2e" x="63.623047"/>
       <use xlink:href="#DejaVuSans-30" x="95.410156"/>
      </g>
     </g>
    </g>
    <g id="ytick_10">
     <g id="line2d_27">
      <g>
       <use xlink:href="#m9a53633420" x="86.51" y="486.881943" style="stroke: #000000; stroke-width: 0.8"/>
      </g>
     </g>
     <g id="text_28">
      <!-- 0.1 -->
      <g transform="translate(52.0294 493.446993) scale(0.1728 -0.1728)">
       <use xlink:href="#DejaVuSans-30"/>
       <use xlink:href="#DejaVuSans-2e" x="63.623047"/>
       <use xlink:href="#DejaVuSans-31" x="95.410156"/>
      </g>
     </g>
    </g>
    <g id="ytick_11">
     <g id="line2d_28">
      <g>
       <use xlink:href="#m9a53633420" x="86.51" y="447.588473" style="stroke: #000000; stroke-width: 0.8"/>
      </g>
     </g>
     <g id="text_29">
      <!-- 0.2 -->
      <g transform="translate(52.0294 454.153523) scale(0.1728 -0.1728)">
       <use xlink:href="#DejaVuSans-30"/>
       <use xlink:href="#DejaVuSans-2e" x="63.623047"/>
       <use xlink:href="#DejaVuSans-32" x="95.410156"/>
      </g>
     </g>
    </g>
    <g id="ytick_12">
     <g id="line2d_29">
      <g>
       <use xlink:href="#m9a53633420" x="86.51" y="408.295002" style="stroke: #000000; stroke-width: 0.8"/>
      </g>
     </g>
     <g id="text_30">
      <!-- 0.3 -->
      <g transform="translate(52.0294 414.860052) scale(0.1728 -0.1728)">
       <use xlink:href="#DejaVuSans-30"/>
       <use xlink:href="#DejaVuSans-2e" x="63.623047"/>
       <use xlink:href="#DejaVuSans-33" x="95.410156"/>
      </g>
     </g>
    </g>
    <g id="text_31">
     <!-- (avg. M=49) pressure in a.u. -->
     <g transform="translate(29.9556 647.86205) rotate(-90) scale(0.1728 -0.1728)">
      <defs>
       <path id="DejaVuSans-70" d="M 1159 525 
L 1159 -1331 
L 581 -1331 
L 581 3500 
L 1159 3500 
L 1159 2969 
Q 1341 3281 1617 3432 
Q 1894 3584 2278 3584 
Q 2916 3584 3314 3078 
Q 3713 2572 3713 1747 
Q 3713 922 3314 415 
Q 2916 -91 2278 -91 
Q 1894 -91 1617 61 
Q 1341 213 1159 525 
z
M 3116 1747 
Q 3116 2381 2855 2742 
Q 2594 3103 2138 3103 
Q 1681 3103 1420 2742 
Q 1159 2381 1159 1747 
Q 1159 1113 1420 752 
Q 1681 391 2138 391 
Q 2594 391 2855 752 
Q 3116 1113 3116 1747 
z
" transform="scale(0.015625)"/>
       <path id="DejaVuSans-73" d="M 2834 3397 
L 2834 2853 
Q 2591 2978 2328 3040 
Q 2066 3103 1784 3103 
Q 1356 3103 1142 2972 
Q 928 2841 928 2578 
Q 928 2378 1081 2264 
Q 1234 2150 1697 2047 
L 1894 2003 
Q 2506 1872 2764 1633 
Q 3022 1394 3022 966 
Q 3022 478 2636 193 
Q 2250 -91 1575 -91 
Q 1294 -91 989 -36 
Q 684 19 347 128 
L 347 722 
Q 666 556 975 473 
Q 1284 391 1588 391 
Q 1994 391 2212 530 
Q 2431 669 2431 922 
Q 2431 1156 2273 1281 
Q 2116 1406 1581 1522 
L 1381 1569 
Q 847 1681 609 1914 
Q 372 2147 372 2553 
Q 372 3047 722 3315 
Q 1072 3584 1716 3584 
Q 2034 3584 2315 3537 
Q 2597 3491 2834 3397 
z
" transform="scale(0.015625)"/>
      </defs>
      <use xlink:href="#DejaVuSans-28"/>
      <use xlink:href="#DejaVuSans-61" x="39.013672"/>
      <use xlink:href="#DejaVuSans-76" x="100.292969"/>
      <use xlink:href="#DejaVuSans-67" x="159.472656"/>
      <use xlink:href="#DejaVuSans-2e" x="222.949219"/>
      <use xlink:href="#DejaVuSans-20" x="254.736328"/>
      <use xlink:href="#DejaVuSans-4d" x="286.523438"/>
      <use xlink:href="#DejaVuSans-3d" x="372.802734"/>
      <use xlink:href="#DejaVuSans-34" x="456.591797"/>
      <use xlink:href="#DejaVuSans-39" x="520.214844"/>
      <use xlink:href="#DejaVuSans-29" x="583.837891"/>
      <use xlink:href="#DejaVuSans-20" x="622.851562"/>
      <use xlink:href="#DejaVuSans-70" x="654.638672"/>
      <use xlink:href="#DejaVuSans-72" x="718.115234"/>
      <use xlink:href="#DejaVuSans-65" x="756.978516"/>
      <use xlink:href="#DejaVuSans-73" x="818.501953"/>
      <use xlink:href="#DejaVuSans-73" x="870.601562"/>
      <use xlink:href="#DejaVuSans-75" x="922.701172"/>
      <use xlink:href="#DejaVuSans-72" x="986.080078"/>
      <use xlink:href="#DejaVuSans-65" x="1024.943359"/>
      <use xlink:href="#DejaVuSans-20" x="1086.466797"/>
      <use xlink:href="#DejaVuSans-69" x="1118.253906"/>
      <use xlink:href="#DejaVuSans-6e" x="1146.037109"/>
      <use xlink:href="#DejaVuSans-20" x="1209.416016"/>
      <use xlink:href="#DejaVuSans-61" x="1241.203125"/>
      <use xlink:href="#DejaVuSans-2e" x="1302.482422"/>
      <use xlink:href="#DejaVuSans-75" x="1334.269531"/>
      <use xlink:href="#DejaVuSans-2e" x="1397.648438"/>
     </g>
    </g>
   </g>
   <g id="line2d_30">
    <path d="M 100.477569 572.863126 
L 101.902831 571.53682 
L 102.472936 570.754222 
L 103.613146 568.379194 
L 104.753356 565.952549 
L 105.323461 565.508688 
L 105.608513 565.470949 
L 106.178618 565.596937 
L 106.748723 565.093424 
L 107.033775 565.301721 
L 107.60388 567.152655 
L 108.173985 568.720593 
L 108.459037 569.047067 
L 108.74409 569.19835 
L 109.029142 569.156419 
L 109.314195 568.861964 
L 109.8843 567.928711 
L 110.454404 567.575522 
L 110.739457 567.486335 
L 111.879667 566.276857 
L 112.164719 566.166973 
L 112.449772 566.270922 
L 113.019876 567.019845 
L 113.304929 567.073833 
L 113.875034 566.76428 
L 114.445139 565.766998 
L 115.585348 563.46266 
L 116.725558 562.287149 
L 117.01061 561.914612 
L 117.865768 561.321205 
L 118.435873 560.608131 
L 119.576082 559.656484 
L 119.861135 559.32723 
L 120.43124 558.35497 
L 120.716292 558.116485 
L 121.001345 558.131548 
L 121.286397 558.281849 
L 121.571449 558.250028 
L 121.856502 557.992854 
L 122.141554 557.530191 
L 123.566816 554.188954 
L 124.136921 554.156494 
L 124.707026 553.331523 
L 124.992079 552.944259 
L 125.277131 552.833556 
L 125.562184 552.879607 
L 125.847236 553.110554 
L 126.702393 554.761908 
L 127.557551 556.501257 
L 127.842603 556.577379 
L 128.412708 555.831857 
L 128.982813 555.064697 
L 129.552918 554.454498 
L 130.97818 552.073931 
L 131.263232 551.974715 
L 131.833337 552.225372 
L 132.11839 552.355187 
L 132.403442 552.204964 
L 132.973547 551.095997 
L 133.828704 549.026478 
L 134.113757 548.837586 
L 134.398809 549.214171 
L 134.968914 550.314029 
L 135.253966 550.568363 
L 135.539019 550.553508 
L 136.109124 550.133228 
L 136.679228 549.472453 
L 138.104491 546.867549 
L 138.389543 546.85239 
L 138.674596 547.077254 
L 139.814805 549.493708 
L 140.38491 550.013403 
L 140.669963 550.024766 
L 141.240067 549.866401 
L 142.380277 549.758482 
L 143.805539 551.011911 
L 144.375644 551.092694 
L 144.660697 551.001029 
L 144.945749 550.597346 
L 145.515854 549.048339 
L 146.085959 548.340052 
L 147.226169 546.734914 
L 148.081326 545.594457 
L 148.936483 544.831011 
L 149.221536 544.39013 
L 149.506588 544.179602 
L 149.79164 544.335827 
L 150.076693 544.770489 
L 150.361745 545.552869 
L 151.216903 549.289167 
L 151.787007 551.646668 
L 152.642165 553.5815 
L 153.21227 554.630185 
L 153.497322 554.548386 
L 153.782375 554.037353 
L 154.352479 552.011832 
L 154.922584 549.764187 
L 155.492689 548.573239 
L 155.777742 548.389786 
L 156.062794 548.487717 
L 156.632899 549.193534 
L 156.917951 549.565256 
L 157.203004 549.701511 
L 157.773109 549.504738 
L 158.058161 549.728382 
L 158.913318 551.22716 
L 159.198371 551.223756 
L 159.768476 550.220493 
L 160.053528 549.760601 
L 160.338581 549.595759 
L 161.193738 549.880235 
L 161.763843 549.631089 
L 162.048895 549.116737 
L 163.75921 544.033177 
L 164.329315 542.93937 
L 164.614367 542.289195 
L 164.899419 541.965387 
L 165.184472 542.051733 
L 165.754577 542.56183 
L 166.609734 542.407636 
L 166.894787 542.330083 
L 167.749944 541.64792 
L 168.034996 541.764429 
L 168.605101 542.172665 
L 168.890154 541.949492 
L 170.030363 539.115063 
L 170.600468 537.719752 
L 170.885521 537.291742 
L 172.02573 536.883895 
L 172.310783 536.889313 
L 172.595835 537.358939 
L 173.16594 539.901409 
L 174.021097 543.871035 
L 174.591202 545.555283 
L 174.876255 545.990669 
L 175.161307 546.199024 
L 175.731412 546.208318 
L 176.301517 545.977892 
L 177.156674 545.20927 
L 177.726779 544.816135 
L 178.581936 543.815934 
L 179.152041 542.754688 
L 180.292251 539.440343 
L 180.577303 539.447187 
L 181.147408 539.741915 
L 181.432461 540.148383 
L 182.287618 542.158352 
L 182.857723 542.940687 
L 183.427828 543.158064 
L 184.568037 543.421336 
L 184.85309 543.586796 
L 185.138142 544.027574 
L 185.708247 545.708176 
L 186.278352 547.334131 
L 186.563404 547.734358 
L 186.848457 547.711436 
L 187.988667 546.598523 
L 188.273719 546.585534 
L 189.128876 547.219371 
L 190.269086 548.504637 
L 191.979401 548.763222 
L 192.834558 548.782655 
L 193.404663 548.240009 
L 195.685082 544.850836 
L 196.255187 543.656022 
L 196.54024 543.468167 
L 196.825292 543.764089 
L 197.395397 545.508646 
L 197.965502 547.427652 
L 198.535607 548.357003 
L 198.820659 548.401613 
L 199.105712 547.983832 
L 200.816026 543.488572 
L 201.386131 540.869346 
L 202.241288 536.177945 
L 202.526341 535.397473 
L 202.811393 535.129605 
L 203.096446 535.13291 
L 203.666551 535.51136 
L 204.236655 536.296905 
L 205.94697 539.791223 
L 206.517075 540.495032 
L 207.08718 541.062015 
L 207.942337 542.629778 
L 208.22739 542.631705 
L 208.512442 542.463525 
L 208.797494 542.46062 
L 209.367599 542.910068 
L 209.652652 542.843391 
L 210.222757 542.531284 
L 210.792861 542.598345 
L 211.362966 542.553259 
L 212.218124 542.64325 
L 212.788228 542.282346 
L 213.073281 541.881033 
L 213.643386 540.266144 
L 214.783596 536.001784 
L 215.068648 535.874598 
L 215.923805 536.632361 
L 216.49391 536.648417 
L 217.349067 536.989812 
L 217.919172 536.898287 
L 218.204225 537.103714 
L 218.489277 537.463317 
L 218.77433 537.639313 
L 219.059382 537.673007 
L 219.344434 537.819962 
L 219.629487 538.160949 
L 220.199592 539.529324 
L 222.480011 546.683217 
L 223.050116 547.558841 
L 223.335169 547.676449 
L 224.190326 547.160777 
L 224.475378 547.128051 
L 224.760431 547.268005 
L 225.90064 548.415331 
L 226.755798 550.779529 
L 228.18106 555.528872 
L 228.466112 556.191123 
L 229.036217 556.647138 
L 229.32127 556.827708 
L 229.606322 557.170322 
L 230.176427 558.127286 
L 230.461479 558.315999 
L 230.746532 558.291609 
L 231.031584 558.077512 
L 231.316637 557.570532 
L 231.886742 555.565595 
L 232.456846 552.651048 
L 233.597056 546.491745 
L 234.452213 543.141772 
L 235.307371 540.664058 
L 235.877476 539.899277 
L 236.162528 539.550455 
L 236.447581 538.956449 
L 237.58779 535.454521 
L 237.872843 535.274724 
L 238.442948 535.761546 
L 239.583157 537.442025 
L 240.723367 537.259901 
L 241.008419 537.501469 
L 241.578524 538.755704 
L 242.148629 541.130406 
L 243.003787 544.610132 
L 243.573891 546.090092 
L 244.143996 547.15879 
L 244.714101 547.62206 
L 246.424416 548.071745 
L 247.279573 549.268344 
L 248.13473 549.603702 
L 248.704835 549.952313 
L 248.989888 549.954034 
L 249.27494 549.661929 
L 249.845045 548.32933 
L 250.985255 545.62168 
L 251.270307 545.799663 
L 252.125464 548.079804 
L 252.410517 548.453971 
L 252.695569 548.530456 
L 252.980622 548.259265 
L 253.550727 547.444034 
L 254.120831 546.827614 
L 254.405884 546.188133 
L 255.546094 542.726183 
L 256.116199 541.774805 
L 256.401251 541.605277 
L 256.686303 541.91108 
L 257.256408 543.128155 
L 258.396618 546.208951 
L 258.966723 547.471853 
L 259.536828 549.846354 
L 260.391985 554.111014 
L 261.817247 563.670808 
L 262.672404 566.571849 
L 263.527562 568.450885 
L 265.807981 571.794026 
L 266.093034 571.922573 
L 266.378086 571.810587 
L 267.233243 571.076563 
L 267.518296 571.000083 
L 268.373453 571.074728 
L 269.22861 570.339178 
L 269.513663 569.923131 
L 270.083768 568.517465 
L 270.653873 567.148714 
L 270.938925 566.848005 
L 271.50903 566.659547 
L 271.794082 566.588726 
L 272.079135 566.332039 
L 272.64924 565.042745 
L 273.219345 563.718316 
L 273.789449 562.890144 
L 274.359554 562.612871 
L 274.644607 562.502446 
L 274.929659 562.608769 
L 275.499764 563.065781 
L 275.784816 562.95708 
L 276.354921 562.415991 
L 276.639974 562.469421 
L 276.925026 562.71713 
L 278.350288 564.995012 
L 278.920393 566.274391 
L 279.205446 566.488418 
L 279.490498 566.167219 
L 279.775551 565.617496 
L 280.060603 565.317057 
L 280.345655 565.3395 
L 280.630708 565.598488 
L 281.485865 566.885776 
L 281.770918 566.830869 
L 282.05597 566.657635 
L 282.341022 566.670493 
L 282.911127 567.028875 
L 283.19618 566.844308 
L 283.766285 565.875146 
L 285.761652 562.007149 
L 286.616809 558.919662 
L 287.471966 555.573326 
L 287.757019 554.893027 
L 288.327124 554.554506 
L 288.612176 554.030142 
L 288.897228 552.851611 
L 290.037438 546.304143 
L 290.607543 544.235152 
L 291.4627 542.489857 
L 292.887963 540.957922 
L 293.458067 540.590368 
L 294.598277 538.825083 
L 295.453434 538.077675 
L 295.738487 537.6877 
L 296.878697 535.148998 
L 297.733854 532.862151 
L 298.589011 531.565028 
L 299.444169 529.299939 
L 299.729221 528.983272 
L 300.014273 528.869318 
L 300.584378 529.122318 
L 301.154483 529.509002 
L 302.579745 529.796138 
L 303.14985 530.227059 
L 303.719955 531.202182 
L 304.29006 532.217522 
L 304.860165 532.638334 
L 305.43027 532.731646 
L 306.000375 533.064398 
L 306.855532 533.150359 
L 307.140584 533.489608 
L 307.995742 535.357136 
L 308.280794 535.596332 
L 308.565846 535.683693 
L 308.850899 535.50202 
L 309.421004 534.785947 
L 309.706056 534.691744 
L 310.276161 535.148822 
L 310.846266 535.728628 
L 311.416371 536.955285 
L 312.556581 540.262024 
L 312.841633 540.477873 
L 313.411738 540.167229 
L 313.69679 540.289072 
L 313.981843 540.843578 
L 314.551948 542.932849 
L 315.692157 547.807901 
L 315.97721 548.355285 
L 316.832367 549.330142 
L 317.117419 550.102276 
L 318.257629 554.334178 
L 318.827734 555.885931 
L 319.397839 556.55015 
L 319.967944 557.19131 
L 320.538049 558.163373 
L 320.823101 558.222601 
L 321.108154 558.044426 
L 321.393206 558.073099 
L 322.248363 558.473868 
L 322.818468 558.315202 
L 323.673625 557.586267 
L 324.24373 557.527916 
L 325.38394 556.93291 
L 325.954045 556.300151 
L 326.52415 555.188934 
L 327.379307 553.088007 
L 327.949412 551.482492 
L 328.234464 550.980855 
L 328.519517 550.907662 
L 328.804569 551.14341 
L 329.659727 552.237787 
L 329.944779 552.437597 
L 330.229831 552.406203 
L 330.514884 552.035854 
L 331.084989 550.605192 
L 332.225199 547.042287 
L 332.510251 546.719251 
L 332.795303 546.665723 
L 333.650461 547.253133 
L 334.220566 547.111937 
L 334.505618 546.766347 
L 335.075723 545.182754 
L 335.93088 542.696816 
L 336.500985 541.808805 
L 336.786037 541.759941 
L 337.356142 542.132618 
L 337.641195 542.207217 
L 338.2113 542.064837 
L 339.066457 543.154166 
L 339.351509 543.125917 
L 339.636562 542.934189 
L 339.921614 542.574037 
L 340.776772 541.047119 
L 341.061824 540.9698 
L 341.631929 541.491119 
L 341.916981 541.334855 
L 342.202034 540.845617 
L 343.057191 538.279824 
L 343.627296 536.082938 
L 344.482453 531.59378 
L 345.052558 530.299855 
L 346.47782 526.954807 
L 347.047925 525.460704 
L 347.332978 524.855333 
L 347.61803 524.520122 
L 347.903082 524.384135 
L 348.188135 524.468245 
L 348.473187 524.833912 
L 349.898449 528.376424 
L 350.183502 528.77176 
L 350.468554 528.778818 
L 350.753607 528.359919 
L 351.323712 527.272478 
L 351.608764 527.1021 
L 351.893816 527.240882 
L 352.178869 527.68808 
L 353.034026 529.945343 
L 354.459288 534.899759 
L 355.029393 537.236332 
L 356.169603 540.107683 
L 356.454655 540.589729 
L 356.739708 540.77526 
L 357.309813 540.580126 
L 357.594865 540.317969 
L 358.16497 539.333619 
L 359.020127 537.613542 
L 359.875285 536.306459 
L 360.160337 536.035445 
L 360.44539 535.567379 
L 361.015494 533.770993 
L 361.585599 531.800961 
L 361.870652 531.388042 
L 362.155704 531.437445 
L 362.725809 532.552145 
L 364.151071 535.339122 
L 364.436124 535.393821 
L 364.721176 535.308958 
L 365.006228 535.447302 
L 365.576333 535.908653 
L 365.861386 535.836461 
L 366.146438 535.576531 
L 367.286648 533.083509 
L 367.5717 532.976111 
L 367.856753 533.040484 
L 368.426858 533.603216 
L 368.996963 534.269938 
L 369.282015 534.243626 
L 369.567067 534.102434 
L 369.85212 534.108994 
L 370.137172 534.281448 
L 370.99233 535.380974 
L 371.277382 535.427745 
L 371.562434 535.806431 
L 372.417592 538.318974 
L 372.702644 538.563965 
L 373.272749 538.411864 
L 373.557801 538.166174 
L 374.127906 537.289893 
L 374.412959 537.154269 
L 374.698011 537.404182 
L 376.123273 539.819785 
L 376.408326 539.869737 
L 377.548536 539.256952 
L 377.833588 539.265604 
L 378.403693 539.891227 
L 379.543903 541.527263 
L 380.39906 541.121349 
L 380.684112 541.247462 
L 381.254217 541.673008 
L 382.679479 541.092543 
L 383.249584 541.243594 
L 383.534637 541.084393 
L 384.674846 539.82934 
L 384.959899 539.832265 
L 385.244951 540.257692 
L 385.815056 542.332196 
L 387.525371 550.306615 
L 388.095476 551.900492 
L 388.665581 552.657063 
L 388.950633 552.919996 
L 389.80579 554.22728 
L 390.090843 554.257925 
L 390.375895 553.932408 
L 391.516105 551.917485 
L 392.08621 551.488381 
L 392.941367 551.564149 
L 393.226419 551.631458 
L 393.511472 551.826751 
L 394.651682 553.265057 
L 395.791891 556.011782 
L 396.647049 557.612004 
L 396.932101 557.794896 
L 397.217154 557.775006 
L 397.502206 557.490979 
L 398.072311 556.185221 
L 399.212521 553.159374 
L 400.922835 552.469765 
L 402.063045 552.313798 
L 402.348097 551.969052 
L 402.918202 550.059385 
L 404.343464 545.231568 
L 404.913569 544.208249 
L 405.768727 541.926016 
L 406.053779 541.734684 
L 406.338831 541.918164 
L 407.764094 544.105968 
L 408.049146 544.670402 
L 408.619251 545.104828 
L 409.189356 545.358926 
L 409.474408 545.576805 
L 409.759461 545.515926 
L 410.614618 544.276335 
L 410.89967 544.170969 
L 411.184723 544.425227 
L 412.324933 547.085628 
L 412.609985 547.3641 
L 412.895037 547.380268 
L 413.18009 546.98288 
L 414.890404 542.742439 
L 415.745562 541.727103 
L 416.315667 540.729481 
L 416.600719 540.662322 
L 416.885772 540.791186 
L 417.170824 540.718302 
L 417.740929 540.228472 
L 418.311034 540.091461 
L 418.596086 540.159047 
L 418.881139 540.385348 
L 419.166191 540.373735 
L 420.021348 539.458222 
L 420.306401 539.532826 
L 421.161558 540.905063 
L 421.731663 541.403923 
L 422.016715 541.530495 
L 422.301768 541.48811 
L 422.58682 541.007905 
L 423.72703 537.00532 
L 424.582187 535.353272 
L 424.86724 535.022335 
L 425.152292 535.056658 
L 425.437345 535.77191 
L 426.577554 540.185708 
L 427.432712 541.526982 
L 427.717764 541.914818 
L 429.428079 545.694896 
L 430.283236 548.50747 
L 430.853341 549.5989 
L 431.423446 550.009518 
L 431.993551 550.38783 
L 432.278603 550.660262 
L 432.848708 550.906906 
L 433.703865 551.623087 
L 433.988918 551.49464 
L 434.559022 551.003212 
L 434.844075 551.220311 
L 435.41418 552.229691 
L 435.699232 552.284682 
L 437.124494 551.579566 
L 437.409547 551.852697 
L 438.549757 554.469065 
L 438.834809 554.541745 
L 439.119861 554.210936 
L 439.404914 553.41718 
L 440.260071 550.38582 
L 440.545124 550.052753 
L 440.830176 550.159329 
L 441.400281 551.26391 
L 441.970386 552.307423 
L 442.255438 552.580813 
L 442.825543 552.468248 
L 444.535858 551.699273 
L 445.105963 551.27196 
L 445.391015 551.242394 
L 446.246172 550.668289 
L 446.531225 550.423684 
L 447.10133 549.659206 
L 447.671434 549.015397 
L 447.956487 548.533773 
L 448.241539 547.721987 
L 449.666801 541.69668 
L 449.951854 540.978346 
L 450.236906 540.664888 
L 450.521959 540.915846 
L 451.092064 541.843083 
L 451.662169 542.113507 
L 452.517326 542.253157 
L 452.802378 542.555644 
L 452.802378 542.555644 
" clip-path="url(#p3b61a134c4)" style="fill: none; stroke: #1f77b4; stroke-width: 1.5; stroke-linecap: square"/>
   </g>
   <g id="line2d_31">
    <path d="M 337.07109 663.64 
L 337.07109 385.08 
" clip-path="url(#p3b61a134c4)" style="fill: none; stroke-dasharray: 5.55,2.4; stroke-dashoffset: 0; stroke: #808080; stroke-width: 1.5"/>
   </g>
   <g id="line2d_32">
    <path d="M 86.51 540.354246 
L 467.055 540.354246 
" clip-path="url(#p3b61a134c4)" style="fill: none; stroke: #ff0000; stroke-opacity: 0.3; stroke-width: 1.5; stroke-linecap: square"/>
   </g>
   <g id="patch_10">
    <path d="M 86.51 663.64 
L 86.51 385.08 
" style="fill: none; stroke: #000000; stroke-width: 0.8; stroke-linejoin: miter; stroke-linecap: square"/>
   </g>
   <g id="patch_11">
    <path d="M 467.055 663.64 
L 467.055 385.08 
" style="fill: none; stroke: #000000; stroke-width: 0.8; stroke-linejoin: miter; stroke-linecap: square"/>
   </g>
   <g id="patch_12">
    <path d="M 86.51 663.64 
L 467.055 663.64 
" style="fill: none; stroke: #000000; stroke-width: 0.8; stroke-linejoin: miter; stroke-linecap: square"/>
   </g>
   <g id="patch_13">
    <path d="M 86.51 385.08 
L 467.055 385.08 
" style="fill: none; stroke: #000000; stroke-width: 0.8; stroke-linejoin: miter; stroke-linecap: square"/>
   </g>
   <g id="text_32">
    <!-- Pressure -->
    <g transform="translate(239.89915 379.08) scale(0.1728 -0.1728)">
     <defs>
      <path id="DejaVuSans-50" d="M 1259 4147 
L 1259 2394 
L 2053 2394 
Q 2494 2394 2734 2622 
Q 2975 2850 2975 3272 
Q 2975 3691 2734 3919 
Q 2494 4147 2053 4147 
L 1259 4147 
z
M 628 4666 
L 2053 4666 
Q 2838 4666 3239 4311 
Q 3641 3956 3641 3272 
Q 3641 2581 3239 2228 
Q 2838 1875 2053 1875 
L 1259 1875 
L 1259 0 
L 628 0 
L 628 4666 
z
" transform="scale(0.015625)"/>
     </defs>
     <use xlink:href="#DejaVuSans-50"/>
     <use xlink:href="#DejaVuSans-72" x="58.552734"/>
     <use xlink:href="#DejaVuSans-65" x="97.416016"/>
     <use xlink:href="#DejaVuSans-73" x="158.939453"/>
     <use xlink:href="#DejaVuSans-73" x="211.039062"/>
     <use xlink:href="#DejaVuSans-75" x="263.138672"/>
     <use xlink:href="#DejaVuSans-72" x="326.517578"/>
     <use xlink:href="#DejaVuSans-65" x="365.380859"/>
    </g>
   </g>
  </g>
  <g id="axes_3">
   <g id="patch_14">
    <path d="M 544.655 663.64 
L 925.2 663.64 
L 925.2 385.08 
L 544.655 385.08 
z
" style="fill: #ffffff"/>
   </g>
   <g id="patch_15">
    <path d="M 544.655 663.64 
L 544.655 385.08 
L 795.21609 385.08 
L 795.21609 663.64 
z
" clip-path="url(#pa41ca6b084)" style="fill: #808080; opacity: 0.15"/>
   </g>
   <g id="matplotlib.axis_5">
    <g id="xtick_15">
     <g id="line2d_33">
      <g>
       <use xlink:href="#m472e800d71" x="544.655" y="663.64" style="stroke: #000000; stroke-width: 0.8"/>
      </g>
     </g>
     <g id="text_33">
      <!-- 0 -->
      <g transform="translate(539.1578 683.7701) scale(0.1728 -0.1728)">
       <use xlink:href="#DejaVuSans-30"/>
      </g>
     </g>
    </g>
    <g id="xtick_16">
     <g id="line2d_34">
      <g>
       <use xlink:href="#m472e800d71" x="601.665487" y="663.64" style="stroke: #000000; stroke-width: 0.8"/>
      </g>
     </g>
     <g id="text_34">
      <!-- 2 -->
      <g transform="translate(596.168287 683.7701) scale(0.1728 -0.1728)">
       <use xlink:href="#DejaVuSans-32"/>
      </g>
     </g>
    </g>
    <g id="xtick_17">
     <g id="line2d_35">
      <g>
       <use xlink:href="#m472e800d71" x="658.675974" y="663.64" style="stroke: #000000; stroke-width: 0.8"/>
      </g>
     </g>
     <g id="text_35">
      <!-- 4 -->
      <g transform="translate(653.178774 683.7701) scale(0.1728 -0.1728)">
       <use xlink:href="#DejaVuSans-34"/>
      </g>
     </g>
    </g>
    <g id="xtick_18">
     <g id="line2d_36">
      <g>
       <use xlink:href="#m472e800d71" x="715.686461" y="663.64" style="stroke: #000000; stroke-width: 0.8"/>
      </g>
     </g>
     <g id="text_36">
      <!-- 6 -->
      <g transform="translate(710.189261 683.7701) scale(0.1728 -0.1728)">
       <use xlink:href="#DejaVuSans-36"/>
      </g>
     </g>
    </g>
    <g id="xtick_19">
     <g id="line2d_37">
      <g>
       <use xlink:href="#m472e800d71" x="772.696948" y="663.64" style="stroke: #000000; stroke-width: 0.8"/>
      </g>
     </g>
     <g id="text_37">
      <!-- 8 -->
      <g transform="translate(767.199748 683.7701) scale(0.1728 -0.1728)">
       <use xlink:href="#DejaVuSans-38"/>
      </g>
     </g>
    </g>
    <g id="xtick_20">
     <g id="line2d_38">
      <g>
       <use xlink:href="#m472e800d71" x="829.707434" y="663.64" style="stroke: #000000; stroke-width: 0.8"/>
      </g>
     </g>
     <g id="text_38">
      <!-- 10 -->
      <g transform="translate(818.713034 683.7701) scale(0.1728 -0.1728)">
       <use xlink:href="#DejaVuSans-31"/>
       <use xlink:href="#DejaVuSans-30" x="63.623047"/>
      </g>
     </g>
    </g>
    <g id="xtick_21">
     <g id="line2d_39">
      <g>
       <use xlink:href="#m472e800d71" x="886.717921" y="663.64" style="stroke: #000000; stroke-width: 0.8"/>
      </g>
     </g>
     <g id="text_39">
      <!-- 12 -->
      <g transform="translate(875.723521 683.7701) scale(0.1728 -0.1728)">
       <use xlink:href="#DejaVuSans-31"/>
       <use xlink:href="#DejaVuSans-32" x="63.623047"/>
      </g>
     </g>
    </g>
    <g id="text_40">
     <!-- time in a.u. -->
     <g transform="translate(685.77805 704.4939) scale(0.1728 -0.1728)">
      <use xlink:href="#DejaVuSans-74"/>
      <use xlink:href="#DejaVuSans-69" x="39.208984"/>
      <use xlink:href="#DejaVuSans-6d" x="66.992188"/>
      <use xlink:href="#DejaVuSans-65" x="164.404297"/>
      <use xlink:href="#DejaVuSans-20" x="225.927734"/>
      <use xlink:href="#DejaVuSans-69" x="257.714844"/>
      <use xlink:href="#DejaVuSans-6e" x="285.498047"/>
      <use xlink:href="#DejaVuSans-20" x="348.876953"/>
      <use xlink:href="#DejaVuSans-61" x="380.664062"/>
      <use xlink:href="#DejaVuSans-2e" x="441.943359"/>
      <use xlink:href="#DejaVuSans-75" x="473.730469"/>
      <use xlink:href="#DejaVuSans-2e" x="537.109375"/>
     </g>
    </g>
   </g>
   <g id="matplotlib.axis_6">
    <g id="ytick_13">
     <g id="line2d_40">
      <g>
       <use xlink:href="#m9a53633420" x="544.655" y="663.402337" style="stroke: #000000; stroke-width: 0.8"/>
      </g>
     </g>
     <g id="text_41">
      <!-- 0.05 -->
      <g transform="translate(499.18 669.967387) scale(0.1728 -0.1728)">
       <use xlink:href="#DejaVuSans-30"/>
       <use xlink:href="#DejaVuSans-2e" x="63.623047"/>
       <use xlink:href="#DejaVuSans-30" x="95.410156"/>
       <use xlink:href="#DejaVuSans-35" x="159.033203"/>
      </g>
     </g>
    </g>
    <g id="ytick_14">
     <g id="line2d_41">
      <g>
       <use xlink:href="#m9a53633420" x="544.655" y="620.206698" style="stroke: #000000; stroke-width: 0.8"/>
      </g>
     </g>
     <g id="text_42">
      <!-- 0.10 -->
      <g transform="translate(499.18 626.771748) scale(0.1728 -0.1728)">
       <use xlink:href="#DejaVuSans-30"/>
       <use xlink:href="#DejaVuSans-2e" x="63.623047"/>
       <use xlink:href="#DejaVuSans-31" x="95.410156"/>
       <use xlink:href="#DejaVuSans-30" x="159.033203"/>
      </g>
     </g>
    </g>
    <g id="ytick_15">
     <g id="line2d_42">
      <g>
       <use xlink:href="#m9a53633420" x="544.655" y="577.011058" style="stroke: #000000; stroke-width: 0.8"/>
      </g>
     </g>
     <g id="text_43">
      <!-- 0.15 -->
      <g transform="translate(499.18 583.576108) scale(0.1728 -0.1728)">
       <use xlink:href="#DejaVuSans-30"/>
       <use xlink:href="#DejaVuSans-2e" x="63.623047"/>
       <use xlink:href="#DejaVuSans-31" x="95.410156"/>
       <use xlink:href="#DejaVuSans-35" x="159.033203"/>
      </g>
     </g>
    </g>
    <g id="ytick_16">
     <g id="line2d_43">
      <g>
       <use xlink:href="#m9a53633420" x="544.655" y="533.815418" style="stroke: #000000; stroke-width: 0.8"/>
      </g>
     </g>
     <g id="text_44">
      <!-- 0.20 -->
      <g transform="translate(499.18 540.380468) scale(0.1728 -0.1728)">
       <use xlink:href="#DejaVuSans-30"/>
       <use xlink:href="#DejaVuSans-2e" x="63.623047"/>
       <use xlink:href="#DejaVuSans-32" x="95.410156"/>
       <use xlink:href="#DejaVuSans-30" x="159.033203"/>
      </g>
     </g>
    </g>
    <g id="ytick_17">
     <g id="line2d_44">
      <g>
       <use xlink:href="#m9a53633420" x="544.655" y="490.619778" style="stroke: #000000; stroke-width: 0.8"/>
      </g>
     </g>
     <g id="text_45">
      <!-- 0.25 -->
      <g transform="translate(499.18 497.184828) scale(0.1728 -0.1728)">
       <use xlink:href="#DejaVuSans-30"/>
       <use xlink:href="#DejaVuSans-2e" x="63.623047"/>
       <use xlink:href="#DejaVuSans-32" x="95.410156"/>
       <use xlink:href="#DejaVuSans-35" x="159.033203"/>
      </g>
     </g>
    </g>
    <g id="ytick_18">
     <g id="line2d_45">
      <g>
       <use xlink:href="#m9a53633420" x="544.655" y="447.424138" style="stroke: #000000; stroke-width: 0.8"/>
      </g>
     </g>
     <g id="text_46">
      <!-- 0.30 -->
      <g transform="translate(499.18 453.989188) scale(0.1728 -0.1728)">
       <use xlink:href="#DejaVuSans-30"/>
       <use xlink:href="#DejaVuSans-2e" x="63.623047"/>
       <use xlink:href="#DejaVuSans-33" x="95.410156"/>
       <use xlink:href="#DejaVuSans-30" x="159.033203"/>
      </g>
     </g>
    </g>
    <g id="ytick_19">
     <g id="line2d_46">
      <g>
       <use xlink:href="#m9a53633420" x="544.655" y="404.228498" style="stroke: #000000; stroke-width: 0.8"/>
      </g>
     </g>
     <g id="text_47">
      <!-- 0.35 -->
      <g transform="translate(499.18 410.793548) scale(0.1728 -0.1728)">
       <use xlink:href="#DejaVuSans-30"/>
       <use xlink:href="#DejaVuSans-2e" x="63.623047"/>
       <use xlink:href="#DejaVuSans-33" x="95.410156"/>
       <use xlink:href="#DejaVuSans-35" x="159.033203"/>
      </g>
     </g>
    </g>
    <g id="text_48">
     <!-- (avg. M=49) temperature in a.u. -->
     <g transform="translate(491.5863 664.85585) rotate(-90) scale(0.1728 -0.1728)">
      <use xlink:href="#DejaVuSans-28"/>
      <use xlink:href="#DejaVuSans-61" x="39.013672"/>
      <use xlink:href="#DejaVuSans-76" x="100.292969"/>
      <use xlink:href="#DejaVuSans-67" x="159.472656"/>
      <use xlink:href="#DejaVuSans-2e" x="222.949219"/>
      <use xlink:href="#DejaVuSans-20" x="254.736328"/>
      <use xlink:href="#DejaVuSans-4d" x="286.523438"/>
      <use xlink:href="#DejaVuSans-3d" x="372.802734"/>
      <use xlink:href="#DejaVuSans-34" x="456.591797"/>
      <use xlink:href="#DejaVuSans-39" x="520.214844"/>
      <use xlink:href="#DejaVuSans-29" x="583.837891"/>
      <use xlink:href="#DejaVuSans-20" x="622.851562"/>
      <use xlink:href="#DejaVuSans-74" x="654.638672"/>
      <use xlink:href="#DejaVuSans-65" x="693.847656"/>
      <use xlink:href="#DejaVuSans-6d" x="755.371094"/>
      <use xlink:href="#DejaVuSans-70" x="852.783203"/>
      <use xlink:href="#DejaVuSans-65" x="916.259766"/>
      <use xlink:href="#DejaVuSans-72" x="977.783203"/>
      <use xlink:href="#DejaVuSans-61" x="1018.896484"/>
      <use xlink:href="#DejaVuSans-74" x="1080.175781"/>
      <use xlink:href="#DejaVuSans-75" x="1119.384766"/>
      <use xlink:href="#DejaVuSans-72" x="1182.763672"/>
      <use xlink:href="#DejaVuSans-65" x="1221.626953"/>
      <use xlink:href="#DejaVuSans-20" x="1283.150391"/>
      <use xlink:href="#DejaVuSans-69" x="1314.9375"/>
      <use xlink:href="#DejaVuSans-6e" x="1342.720703"/>
      <use xlink:href="#DejaVuSans-20" x="1406.099609"/>
      <use xlink:href="#DejaVuSans-61" x="1437.886719"/>
      <use xlink:href="#DejaVuSans-2e" x="1499.166016"/>
      <use xlink:href="#DejaVuSans-75" x="1530.953125"/>
      <use xlink:href="#DejaVuSans-2e" x="1594.332031"/>
     </g>
    </g>
   </g>
   <g id="line2d_47">
    <path d="M 558.622569 442.683406 
L 558.907622 440.752399 
L 559.477727 440.789406 
L 560.047831 440.700028 
L 561.473094 441.068218 
L 562.043199 441.296455 
L 562.613303 441.626301 
L 564.038566 441.966121 
L 564.323618 442.183188 
L 564.893723 442.848051 
L 565.74888 442.213134 
L 566.033933 442.362451 
L 566.604037 442.851335 
L 567.174142 443.076255 
L 567.744247 443.443656 
L 568.884457 443.214391 
L 569.454562 443.683169 
L 569.739614 443.56201 
L 570.594772 443.604892 
L 570.879824 443.412218 
L 571.164876 443.452826 
L 571.449929 443.678453 
L 572.875191 443.724447 
L 573.445296 443.594992 
L 574.300453 443.122442 
L 575.15561 443.28915 
L 575.440663 443.140447 
L 576.010768 443.183024 
L 576.29582 443.242333 
L 577.150978 443.054455 
L 578.006135 443.298523 
L 578.291187 443.557755 
L 578.861292 443.528605 
L 579.431397 443.434293 
L 580.856659 444.447182 
L 581.426764 444.426096 
L 581.996869 444.050189 
L 582.281921 444.146027 
L 582.852026 444.544457 
L 584.277288 444.402122 
L 585.132446 444.541567 
L 585.702551 444.537912 
L 586.272655 444.838101 
L 587.127813 444.509034 
L 587.697918 444.432551 
L 588.268022 444.537533 
L 588.838127 444.406514 
L 589.978337 444.161837 
L 590.26339 444.228804 
L 591.118547 444.836486 
L 591.688652 445.088781 
L 591.973704 445.168344 
L 592.543809 444.560284 
L 592.828861 444.509734 
L 593.969071 445.069132 
L 594.824228 444.933594 
L 595.964438 444.955211 
L 597.104648 444.342111 
L 597.3897 444.189033 
L 597.959805 444.480272 
L 598.52991 444.468113 
L 599.100015 444.731541 
L 599.67012 444.791284 
L 600.240225 444.997369 
L 600.525277 445.030661 
L 600.81033 444.928176 
L 601.095382 444.958395 
L 601.950539 445.321006 
L 603.090749 445.657888 
L 603.375801 445.875841 
L 603.660854 445.740796 
L 604.230959 445.178493 
L 604.801064 445.367562 
L 605.371169 445.253571 
L 605.941273 445.374396 
L 606.226326 445.238137 
L 607.651588 445.501318 
L 608.221693 445.292023 
L 609.07685 445.02643 
L 609.646955 445.012705 
L 610.21706 445.372526 
L 610.502112 445.337401 
L 611.35727 444.802378 
L 612.497479 445.094657 
L 612.782532 445.083757 
L 613.922742 444.654261 
L 614.492846 444.632754 
L 615.062951 444.716283 
L 615.633056 445.082733 
L 615.918109 445.004844 
L 616.488213 444.526278 
L 616.773266 444.511701 
L 617.058318 444.628636 
L 617.628423 445.093209 
L 617.913476 445.091732 
L 619.053685 444.274012 
L 619.62379 444.422171 
L 619.908843 444.436832 
L 620.478948 444.905617 
L 621.049052 444.945871 
L 621.90421 444.621047 
L 622.474315 444.752866 
L 622.759367 444.834443 
L 623.614524 444.128517 
L 623.899577 444.190862 
L 624.184629 444.453705 
L 624.469682 444.534675 
L 624.754734 444.461693 
L 625.894944 444.680458 
L 626.465049 444.475973 
L 626.750101 444.579065 
L 627.320206 445.115722 
L 628.460416 444.911942 
L 628.745468 444.937097 
L 629.315573 444.623278 
L 629.600625 444.693715 
L 630.17073 445.085872 
L 630.455783 445.14604 
L 631.31094 444.664295 
L 631.595993 444.845943 
L 632.166097 445.364633 
L 633.306307 445.887945 
L 634.161464 445.861035 
L 634.446517 445.870933 
L 635.016622 446.005658 
L 635.586727 445.882019 
L 637.297041 446.379439 
L 637.867146 446.904139 
L 638.152199 446.849915 
L 638.722303 446.477493 
L 639.577461 446.719495 
L 639.862513 446.542433 
L 641.85788 446.85023 
L 642.142933 446.950258 
L 642.427985 446.875984 
L 642.99809 447.005209 
L 643.853247 446.637701 
L 644.423352 446.826279 
L 645.278509 447.288466 
L 645.848614 447.246519 
L 646.133667 447.315797 
L 647.558929 446.98104 
L 647.843981 446.772177 
L 648.414086 446.780912 
L 650.979558 447.103794 
L 651.549663 447.294559 
L 651.834715 447.311704 
L 652.689873 447.072041 
L 653.259978 447.078349 
L 653.830082 447.187888 
L 654.115135 447.34907 
L 654.400187 447.372881 
L 655.540397 446.715499 
L 657.535764 447.459058 
L 658.675974 446.75953 
L 659.531131 446.664156 
L 660.101236 446.803703 
L 660.386288 446.647552 
L 660.956393 446.120693 
L 661.526498 446.273499 
L 662.381655 446.491858 
L 662.95176 446.483182 
L 663.521865 446.776379 
L 664.09197 446.689757 
L 664.662075 446.867403 
L 664.947127 446.905792 
L 665.802285 446.39688 
L 666.657442 446.93847 
L 667.227547 446.532847 
L 667.512599 446.547532 
L 668.082704 446.903394 
L 668.652809 446.69183 
L 669.222914 446.913558 
L 670.933228 446.76542 
L 672.358491 447.392607 
L 672.643543 447.271362 
L 673.4987 446.65671 
L 673.783753 446.688368 
L 674.353858 447.08461 
L 675.209015 447.100459 
L 676.064172 447.60463 
L 676.634277 447.548577 
L 677.204382 448.012543 
L 677.774487 447.801589 
L 678.629644 447.367296 
L 679.199749 447.51774 
L 680.054906 447.289707 
L 680.910064 447.615839 
L 681.195116 447.566089 
L 681.765221 447.854749 
L 682.050273 447.718763 
L 682.335326 447.439929 
L 682.905431 447.152473 
L 683.190483 447.005382 
L 683.760588 447.042239 
L 684.615745 446.769918 
L 686.32606 446.905768 
L 687.181217 447.312104 
L 687.46627 447.208175 
L 688.321427 446.630374 
L 688.891532 446.640303 
L 689.461637 446.584332 
L 689.746689 446.66042 
L 690.316794 446.584841 
L 690.886899 446.677736 
L 691.457004 446.447668 
L 692.312161 446.16203 
L 692.597213 446.258297 
L 693.167318 446.213001 
L 693.452371 446.249125 
L 694.022476 445.982993 
L 694.307528 446.048419 
L 695.447738 446.785086 
L 696.302895 446.366304 
L 696.873 446.394092 
L 697.443105 446.360119 
L 698.298262 446.79126 
L 698.583315 446.6857 
L 698.868367 446.78945 
L 700.008577 446.673702 
L 700.293629 446.552193 
L 701.433839 447.01287 
L 701.718891 447.135553 
L 702.288996 447.094922 
L 702.859101 447.303186 
L 704.569416 447.21275 
L 704.854468 446.85516 
L 705.139521 446.797558 
L 705.709625 447.197324 
L 707.41994 447.79849 
L 707.704993 447.985032 
L 708.845202 448.158339 
L 709.130255 447.996041 
L 709.70036 447.326066 
L 709.985412 447.349136 
L 710.555517 447.875566 
L 711.125622 448.246829 
L 711.410674 448.27724 
L 711.980779 447.948792 
L 712.265831 447.968963 
L 713.120989 448.508612 
L 713.976146 448.358021 
L 714.261199 448.57573 
L 715.116356 448.326861 
L 715.686461 448.53941 
L 716.82667 449.331686 
L 717.96688 448.971782 
L 718.251933 449.076242 
L 718.536985 448.94443 
L 719.10709 448.36591 
L 719.392142 448.368924 
L 719.962247 448.784873 
L 720.2473 448.80486 
L 721.387509 448.328403 
L 722.242667 448.260699 
L 723.097824 448.062621 
L 723.952981 448.005811 
L 724.808139 448.351328 
L 725.663296 448.100374 
L 726.233401 447.884332 
L 726.803506 447.928061 
L 727.37361 447.728097 
L 727.943715 447.777966 
L 728.228768 447.870101 
L 728.51382 447.842879 
L 729.65403 447.113463 
L 729.939082 447.034251 
L 731.079292 447.199201 
L 732.504554 446.826977 
L 732.789607 446.909661 
L 733.359712 446.593944 
L 734.214869 446.83734 
L 735.355079 446.177109 
L 735.640131 446.171533 
L 736.210236 446.39865 
L 736.780341 446.099146 
L 737.065393 446.166846 
L 737.350446 446.391743 
L 737.635498 446.769885 
L 737.920551 446.889361 
L 738.775708 446.199563 
L 739.345813 445.940716 
L 739.915918 446.253308 
L 740.20097 446.232708 
L 740.771075 445.653488 
L 741.056127 445.643151 
L 741.626232 445.884532 
L 742.48139 445.789564 
L 742.766442 445.717451 
L 743.336547 445.328355 
L 744.191704 445.416278 
L 744.761809 445.407244 
L 745.331914 445.471603 
L 745.902019 445.273459 
L 746.187071 444.918366 
L 746.472124 444.777141 
L 747.042228 445.432169 
L 747.327281 445.742483 
L 747.612333 445.770106 
L 748.182438 445.329113 
L 749.037596 445.372336 
L 749.6077 445.678756 
L 750.177805 445.618585 
L 750.74791 445.929003 
L 751.318015 445.663648 
L 752.173172 445.882592 
L 753.313382 445.611005 
L 753.883487 445.732962 
L 754.453592 445.979933 
L 754.738644 445.977686 
L 755.593801 446.29517 
L 756.448959 445.902315 
L 756.734011 446.0492 
L 757.019064 446.329881 
L 757.304116 446.347241 
L 757.874221 446.139148 
L 758.444326 446.163863 
L 760.15464 446.841116 
L 761.009798 446.841609 
L 762.150007 446.85855 
L 762.720112 447.319931 
L 763.57527 447.571071 
L 764.145375 447.50336 
L 764.430427 447.64756 
L 764.715479 447.634403 
L 765.285584 447.310648 
L 765.570637 447.002693 
L 765.855689 446.897082 
L 766.425794 447.132838 
L 766.710846 447.161118 
L 767.280951 447.58125 
L 767.851056 447.5441 
L 768.136109 447.464682 
L 768.991266 447.743011 
L 770.416528 447.439085 
L 770.701581 447.637078 
L 771.271685 448.239804 
L 771.556738 448.308028 
L 772.696948 447.740036 
L 773.552105 447.721312 
L 774.692315 448.349047 
L 774.977367 448.225457 
L 775.547472 447.674596 
L 775.832524 447.666889 
L 776.117577 447.858082 
L 777.542839 447.735714 
L 778.683049 447.172557 
L 778.968101 447.467967 
L 779.253154 447.582396 
L 779.823258 447.085946 
L 780.393363 446.968646 
L 780.963468 446.896829 
L 781.248521 446.926824 
L 781.533573 446.816615 
L 782.103678 446.414725 
L 782.38873 446.374519 
L 782.673783 446.458705 
L 783.243888 446.333508 
L 783.813993 446.457322 
L 784.099045 446.421492 
L 784.66915 446.68842 
L 786.094412 446.866509 
L 786.379464 446.688091 
L 786.949569 446.139146 
L 787.234622 445.988108 
L 788.374831 446.147228 
L 788.944936 446.532767 
L 789.800094 446.829357 
L 790.085146 446.814624 
L 791.225356 446.117931 
L 791.510408 446.088717 
L 792.080513 446.441368 
L 792.365566 446.460163 
L 793.505775 447.261294 
L 794.07588 447.295502 
L 794.645985 447.174461 
L 795.21609 446.764805 
L 796.3563 446.6071 
L 796.926404 446.058646 
L 797.211457 446.14507 
L 797.496509 446.354837 
L 798.066614 446.464045 
L 798.351667 446.612854 
L 798.921772 446.349524 
L 799.491876 445.698457 
L 799.776929 445.686591 
L 800.347034 446.022197 
L 800.917139 446.09625 
L 801.487243 445.857624 
L 802.342401 446.31269 
L 802.912506 445.926172 
L 803.197558 445.955472 
L 803.767663 446.453947 
L 804.337768 446.554478 
L 804.907873 446.835635 
L 806.333135 446.652937 
L 807.188292 446.282681 
L 807.473345 446.491917 
L 807.758397 446.452042 
L 808.328502 446.75873 
L 809.183659 447.598641 
L 810.038816 447.41766 
L 810.608921 447.250543 
L 811.179026 447.465308 
L 811.464079 447.369324 
L 812.034184 447.58733 
L 812.319236 447.481687 
L 812.889341 447.062149 
L 813.459446 447.472384 
L 814.314603 447.50865 
L 815.454813 447.605133 
L 816.30997 447.583392 
L 816.595022 447.580313 
L 818.305337 446.874948 
L 818.875442 447.113344 
L 819.445547 447.364997 
L 820.300704 446.714212 
L 820.585757 446.461329 
L 821.155861 446.484215 
L 821.725966 446.376351 
L 822.011019 446.313192 
L 822.866176 446.786002 
L 823.436281 446.494396 
L 824.291438 447.12986 
L 824.861543 447.708667 
L 825.7167 447.415364 
L 826.85691 447.525006 
L 827.141963 447.652775 
L 827.427015 447.977732 
L 827.712067 448.101862 
L 828.852277 447.805248 
L 829.422382 448.296737 
L 830.277539 447.545904 
L 831.132697 448.034953 
L 831.702801 447.927125 
L 832.272906 448.025333 
L 833.128064 447.459976 
L 833.413116 447.453545 
L 833.698169 447.607745 
L 833.983221 447.594522 
L 834.838378 448.009545 
L 837.118798 447.630348 
L 837.40385 447.730564 
L 837.973955 448.213972 
L 838.54406 448.200577 
L 839.114165 447.972578 
L 839.969322 448.370799 
L 840.254375 448.32959 
L 840.824479 448.516991 
L 841.394584 448.328591 
L 841.679637 448.504239 
L 842.249742 448.493451 
L 843.104899 448.370091 
L 843.960056 447.954789 
L 844.530161 447.873684 
L 845.100266 448.057259 
L 845.955423 448.166393 
L 846.525528 448.416573 
L 847.095633 448.410277 
L 847.665738 447.922313 
L 847.95079 447.883464 
L 849.091 448.295427 
L 849.661105 448.107531 
L 850.23121 448.146803 
L 850.516262 448.026382 
L 851.656472 448.045238 
L 851.941524 447.857573 
L 852.511629 447.94658 
L 852.796682 447.828845 
L 853.366787 447.350994 
L 853.936891 447.484553 
L 854.506996 447.14885 
L 856.217311 447.618999 
L 857.072468 447.438663 
L 857.642573 446.980325 
L 857.927625 446.967136 
L 858.49773 447.222371 
L 858.782783 447.092606 
L 859.922993 447.049697 
L 860.208045 446.968313 
L 860.493097 447.077944 
L 860.77815 447.370558 
L 861.063202 447.472745 
L 861.348255 447.313765 
L 861.633307 447.29469 
L 862.203412 447.417986 
L 862.773517 447.199982 
L 863.628674 447.886004 
L 864.198779 447.578434 
L 864.768884 447.268704 
L 865.338989 447.512539 
L 866.194146 447.221581 
L 866.764251 447.412058 
L 867.334356 447.25083 
L 867.619408 447.152054 
L 868.474566 447.754124 
L 869.04467 447.677514 
L 869.899828 447.047372 
L 871.040037 447.41258 
L 871.610142 447.717881 
L 872.180247 447.637384 
L 872.750352 447.323309 
L 873.320457 447.254198 
L 873.605509 447.209374 
L 874.175614 447.640182 
L 875.030772 447.085751 
L 875.600876 447.494593 
L 877.026139 447.09785 
L 877.596243 447.490461 
L 878.166348 447.406849 
L 879.021506 446.612557 
L 879.306558 446.713888 
L 879.876663 446.579574 
L 880.446768 446.659624 
L 880.73182 446.950406 
L 881.016873 447.421655 
L 881.301925 447.508074 
L 881.87203 447.095726 
L 883.01224 447.099116 
L 883.297292 446.955405 
L 883.867397 446.306957 
L 884.152449 446.336284 
L 885.292659 447.090978 
L 885.862764 447.152027 
L 886.432869 446.86116 
L 886.717921 447.006628 
L 887.002974 447.003328 
L 888.143184 446.619947 
L 888.713288 446.745972 
L 889.853498 446.781168 
L 890.423603 446.529654 
L 890.708655 446.630877 
L 891.27876 446.401268 
L 891.563813 446.314777 
L 891.848865 446.367345 
L 892.41897 446.658595 
L 892.704022 446.520704 
L 893.274127 445.84437 
L 893.55918 445.899041 
L 893.844232 446.166134 
L 894.129285 446.221719 
L 894.69939 446.144509 
L 895.269494 446.063789 
L 896.124652 445.414186 
L 896.979809 445.692058 
L 897.549914 446.237003 
L 897.834966 446.525902 
L 898.120019 446.595436 
L 899.545281 445.977399 
L 900.685491 446.486798 
L 901.255596 446.39067 
L 902.395805 446.139681 
L 902.96591 446.263176 
L 903.536015 446.031371 
L 904.10612 446.190951 
L 904.391172 446.115922 
L 905.24633 446.212016 
L 905.531382 446.118862 
L 906.101487 446.333299 
L 906.956644 447.407007 
L 907.526749 447.646108 
L 908.096854 447.479714 
L 908.381906 447.255466 
L 908.666959 446.878301 
L 908.952011 446.754468 
L 909.807169 447.341806 
L 910.662326 447.536469 
L 910.947378 447.326977 
L 910.947378 447.326977 
" clip-path="url(#pa41ca6b084)" style="fill: none; stroke: #1f77b4; stroke-width: 1.5; stroke-linecap: square"/>
   </g>
   <g id="line2d_48">
    <path d="M 795.21609 663.64 
L 795.21609 385.08 
" clip-path="url(#pa41ca6b084)" style="fill: none; stroke-dasharray: 5.55,2.4; stroke-dashoffset: 0; stroke: #808080; stroke-width: 1.5"/>
   </g>
   <g id="line2d_49">
    <path d="M 544.655 447.340031 
L 925.2 447.340031 
" clip-path="url(#pa41ca6b084)" style="fill: none; stroke: #ff0000; stroke-opacity: 0.3; stroke-width: 1.5; stroke-linecap: square"/>
   </g>
   <g id="patch_16">
    <path d="M 544.655 663.64 
L 544.655 385.08 
" style="fill: none; stroke: #000000; stroke-width: 0.8; stroke-linejoin: miter; stroke-linecap: square"/>
   </g>
   <g id="patch_17">
    <path d="M 925.2 663.64 
L 925.2 385.08 
" style="fill: none; stroke: #000000; stroke-width: 0.8; stroke-linejoin: miter; stroke-linecap: square"/>
   </g>
   <g id="patch_18">
    <path d="M 544.655 663.64 
L 925.2 663.64 
" style="fill: none; stroke: #000000; stroke-width: 0.8; stroke-linejoin: miter; stroke-linecap: square"/>
   </g>
   <g id="patch_19">
    <path d="M 544.655 385.08 
L 925.2 385.08 
" style="fill: none; stroke: #000000; stroke-width: 0.8; stroke-linejoin: miter; stroke-linecap: square"/>
   </g>
   <g id="text_49">
    <!-- Temperature -->
    <g transform="translate(680.20255 379.08) scale(0.1728 -0.1728)">
     <defs>
      <path id="DejaVuSans-54" d="M -19 4666 
L 3928 4666 
L 3928 4134 
L 2272 4134 
L 2272 0 
L 1638 0 
L 1638 4134 
L -19 4134 
L -19 4666 
z
" transform="scale(0.015625)"/>
     </defs>
     <use xlink:href="#DejaVuSans-54"/>
     <use xlink:href="#DejaVuSans-65" x="44.083984"/>
     <use xlink:href="#DejaVuSans-6d" x="105.607422"/>
     <use xlink:href="#DejaVuSans-70" x="203.019531"/>
     <use xlink:href="#DejaVuSans-65" x="266.496094"/>
     <use xlink:href="#DejaVuSans-72" x="328.019531"/>
     <use xlink:href="#DejaVuSans-61" x="369.132812"/>
     <use xlink:href="#DejaVuSans-74" x="430.412109"/>
     <use xlink:href="#DejaVuSans-75" x="469.621094"/>
     <use xlink:href="#DejaVuSans-72" x="533"/>
     <use xlink:href="#DejaVuSans-65" x="571.863281"/>
    </g>
   </g>
  </g>
 </g>
 <defs>
  <clipPath id="p22d5835fb7">
   <rect x="86.51" y="30.48" width="838.69" height="278.56"/>
  </clipPath>
  <clipPath id="p3b61a134c4">
   <rect x="86.51" y="385.08" width="380.545" height="278.56"/>
  </clipPath>
  <clipPath id="pa41ca6b084">
   <rect x="544.655" y="385.08" width="380.545" height="278.56"/>
  </clipPath>
 </defs>
</svg>
