<?xml version="1.0" encoding="utf-8" standalone="no"?>
<!DOCTYPE svg PUBLIC "-//W3C//DTD SVG 1.1//EN"
  "http://www.w3.org/Graphics/SVG/1.1/DTD/svg11.dtd">
<svg xmlns:xlink="http://www.w3.org/1999/xlink" width="936pt" height="720pt" viewBox="0 0 936 720" xmlns="http://www.w3.org/2000/svg" version="1.1">
 <metadata>
  <rdf:RDF xmlns:dc="http://purl.org/dc/elements/1.1/" xmlns:cc="http://creativecommons.org/ns#" xmlns:rdf="http://www.w3.org/1999/02/22-rdf-syntax-ns#">
   <cc:Work>
    <dc:type rdf:resource="http://purl.org/dc/dcmitype/StillImage"/>
    <dc:date>2024-12-09T03:46:06.094226</dc:date>
    <dc:format>image/svg+xml</dc:format>
    <dc:creator>
     <cc:Agent>
      <dc:title>Matplotlib v3.8.0, https://matplotlib.org/</dc:title>
     </cc:Agent>
    </dc:creator>
   </cc:Work>
  </rdf:RDF>
 </metadata>
 <defs>
  <style type="text/css">*{stroke-linejoin: round; stroke-linecap: butt}</style>
 </defs>
 <g id="figure_1">
  <g id="patch_1">
   <path d="M 0 720 
L 936 720 
L 936 0 
L 0 0 
z
" style="fill: #ffffff"/>
  </g>
  <g id="axes_1">
   <g id="patch_2">
    <path d="M 92.09 309.04 
L 925.2 309.04 
L 925.2 30.48 
L 92.09 30.48 
z
" style="fill: #ffffff"/>
   </g>
   <g id="patch_3">
    <path d="M 92.09 309.04 
L 92.09 30.48 
L 381.433593 30.48 
L 381.433593 309.04 
z
" clip-path="url(#p6d093cd47f)" style="fill: #808080; opacity: 0.15"/>
   </g>
   <g id="matplotlib.axis_1">
    <g id="xtick_1">
     <g id="line2d_1">
      <defs>
       <path id="m27a7629ca7" d="M 0 0 
L 0 3.5 
" style="stroke: #000000; stroke-width: 0.8"/>
      </defs>
      <g>
       <use xlink:href="#m27a7629ca7" x="92.09" y="309.04" style="stroke: #000000; stroke-width: 0.8"/>
      </g>
     </g>
     <g id="text_1">
      <!-- 0.0 -->
      <g transform="translate(78.3497 329.1701) scale(0.1728 -0.1728)">
       <defs>
        <path id="DejaVuSans-30" d="M 2034 4250 
Q 1547 4250 1301 3770 
Q 1056 3291 1056 2328 
Q 1056 1369 1301 889 
Q 1547 409 2034 409 
Q 2525 409 2770 889 
Q 3016 1369 3016 2328 
Q 3016 3291 2770 3770 
Q 2525 4250 2034 4250 
z
M 2034 4750 
Q 2819 4750 3233 4129 
Q 3647 3509 3647 2328 
Q 3647 1150 3233 529 
Q 2819 -91 2034 -91 
Q 1250 -91 836 529 
Q 422 1150 422 2328 
Q 422 3509 836 4129 
Q 1250 4750 2034 4750 
z
" transform="scale(0.015625)"/>
        <path id="DejaVuSans-2e" d="M 684 794 
L 1344 794 
L 1344 0 
L 684 0 
L 684 794 
z
" transform="scale(0.015625)"/>
       </defs>
       <use xlink:href="#DejaVuSans-30"/>
       <use xlink:href="#DejaVuSans-2e" x="63.623047"/>
       <use xlink:href="#DejaVuSans-30" x="95.410156"/>
      </g>
     </g>
    </g>
    <g id="xtick_2">
     <g id="line2d_2">
      <g>
       <use xlink:href="#m27a7629ca7" x="216.807066" y="309.04" style="stroke: #000000; stroke-width: 0.8"/>
      </g>
     </g>
     <g id="text_2">
      <!-- 0.5 -->
      <g transform="translate(203.066766 329.1701) scale(0.1728 -0.1728)">
       <defs>
        <path id="DejaVuSans-35" d="M 691 4666 
L 3169 4666 
L 3169 4134 
L 1269 4134 
L 1269 2991 
Q 1406 3038 1543 3061 
Q 1681 3084 1819 3084 
Q 2600 3084 3056 2656 
Q 3513 2228 3513 1497 
Q 3513 744 3044 326 
Q 2575 -91 1722 -91 
Q 1428 -91 1123 -41 
Q 819 9 494 109 
L 494 744 
Q 775 591 1075 516 
Q 1375 441 1709 441 
Q 2250 441 2565 725 
Q 2881 1009 2881 1497 
Q 2881 1984 2565 2268 
Q 2250 2553 1709 2553 
Q 1456 2553 1204 2497 
Q 953 2441 691 2322 
L 691 4666 
z
" transform="scale(0.015625)"/>
       </defs>
       <use xlink:href="#DejaVuSans-30"/>
       <use xlink:href="#DejaVuSans-2e" x="63.623047"/>
       <use xlink:href="#DejaVuSans-35" x="95.410156"/>
      </g>
     </g>
    </g>
    <g id="xtick_3">
     <g id="line2d_3">
      <g>
       <use xlink:href="#m27a7629ca7" x="341.524132" y="309.04" style="stroke: #000000; stroke-width: 0.8"/>
      </g>
     </g>
     <g id="text_3">
      <!-- 1.0 -->
      <g transform="translate(327.783832 329.1701) scale(0.1728 -0.1728)">
       <defs>
        <path id="DejaVuSans-31" d="M 794 531 
L 1825 531 
L 1825 4091 
L 703 3866 
L 703 4441 
L 1819 4666 
L 2450 4666 
L 2450 531 
L 3481 531 
L 3481 0 
L 794 0 
L 794 531 
z
" transform="scale(0.015625)"/>
       </defs>
       <use xlink:href="#DejaVuSans-31"/>
       <use xlink:href="#DejaVuSans-2e" x="63.623047"/>
       <use xlink:href="#DejaVuSans-30" x="95.410156"/>
      </g>
     </g>
    </g>
    <g id="xtick_4">
     <g id="line2d_4">
      <g>
       <use xlink:href="#m27a7629ca7" x="466.241198" y="309.04" style="stroke: #000000; stroke-width: 0.8"/>
      </g>
     </g>
     <g id="text_4">
      <!-- 1.5 -->
      <g transform="translate(452.500898 329.1701) scale(0.1728 -0.1728)">
       <use xlink:href="#DejaVuSans-31"/>
       <use xlink:href="#DejaVuSans-2e" x="63.623047"/>
       <use xlink:href="#DejaVuSans-35" x="95.410156"/>
      </g>
     </g>
    </g>
    <g id="xtick_5">
     <g id="line2d_5">
      <g>
       <use xlink:href="#m27a7629ca7" x="590.958263" y="309.04" style="stroke: #000000; stroke-width: 0.8"/>
      </g>
     </g>
     <g id="text_5">
      <!-- 2.0 -->
      <g transform="translate(577.217963 329.1701) scale(0.1728 -0.1728)">
       <defs>
        <path id="DejaVuSans-32" d="M 1228 531 
L 3431 531 
L 3431 0 
L 469 0 
L 469 531 
Q 828 903 1448 1529 
Q 2069 2156 2228 2338 
Q 2531 2678 2651 2914 
Q 2772 3150 2772 3378 
Q 2772 3750 2511 3984 
Q 2250 4219 1831 4219 
Q 1534 4219 1204 4116 
Q 875 4013 500 3803 
L 500 4441 
Q 881 4594 1212 4672 
Q 1544 4750 1819 4750 
Q 2544 4750 2975 4387 
Q 3406 4025 3406 3419 
Q 3406 3131 3298 2873 
Q 3191 2616 2906 2266 
Q 2828 2175 2409 1742 
Q 1991 1309 1228 531 
z
" transform="scale(0.015625)"/>
       </defs>
       <use xlink:href="#DejaVuSans-32"/>
       <use xlink:href="#DejaVuSans-2e" x="63.623047"/>
       <use xlink:href="#DejaVuSans-30" x="95.410156"/>
      </g>
     </g>
    </g>
    <g id="xtick_6">
     <g id="line2d_6">
      <g>
       <use xlink:href="#m27a7629ca7" x="715.675329" y="309.04" style="stroke: #000000; stroke-width: 0.8"/>
      </g>
     </g>
     <g id="text_6">
      <!-- 2.5 -->
      <g transform="translate(701.935029 329.1701) scale(0.1728 -0.1728)">
       <use xlink:href="#DejaVuSans-32"/>
       <use xlink:href="#DejaVuSans-2e" x="63.623047"/>
       <use xlink:href="#DejaVuSans-35" x="95.410156"/>
      </g>
     </g>
    </g>
    <g id="xtick_7">
     <g id="line2d_7">
      <g>
       <use xlink:href="#m27a7629ca7" x="840.392395" y="309.04" style="stroke: #000000; stroke-width: 0.8"/>
      </g>
     </g>
     <g id="text_7">
      <!-- 3.0 -->
      <g transform="translate(826.652095 329.1701) scale(0.1728 -0.1728)">
       <defs>
        <path id="DejaVuSans-33" d="M 2597 2516 
Q 3050 2419 3304 2112 
Q 3559 1806 3559 1356 
Q 3559 666 3084 287 
Q 2609 -91 1734 -91 
Q 1441 -91 1130 -33 
Q 819 25 488 141 
L 488 750 
Q 750 597 1062 519 
Q 1375 441 1716 441 
Q 2309 441 2620 675 
Q 2931 909 2931 1356 
Q 2931 1769 2642 2001 
Q 2353 2234 1838 2234 
L 1294 2234 
L 1294 2753 
L 1863 2753 
Q 2328 2753 2575 2939 
Q 2822 3125 2822 3475 
Q 2822 3834 2567 4026 
Q 2313 4219 1838 4219 
Q 1578 4219 1281 4162 
Q 984 4106 628 3988 
L 628 4550 
Q 988 4650 1302 4700 
Q 1616 4750 1894 4750 
Q 2613 4750 3031 4423 
Q 3450 4097 3450 3541 
Q 3450 3153 3228 2886 
Q 3006 2619 2597 2516 
z
" transform="scale(0.015625)"/>
       </defs>
       <use xlink:href="#DejaVuSans-33"/>
       <use xlink:href="#DejaVuSans-2e" x="63.623047"/>
       <use xlink:href="#DejaVuSans-30" x="95.410156"/>
      </g>
     </g>
    </g>
    <g id="text_8">
     <!-- time in a.u. -->
     <g transform="translate(459.49555 349.8939) scale(0.1728 -0.1728)">
      <defs>
       <path id="DejaVuSans-74" d="M 1172 4494 
L 1172 3500 
L 2356 3500 
L 2356 3053 
L 1172 3053 
L 1172 1153 
Q 1172 725 1289 603 
Q 1406 481 1766 481 
L 2356 481 
L 2356 0 
L 1766 0 
Q 1100 0 847 248 
Q 594 497 594 1153 
L 594 3053 
L 172 3053 
L 172 3500 
L 594 3500 
L 594 4494 
L 1172 4494 
z
" transform="scale(0.015625)"/>
       <path id="DejaVuSans-69" d="M 603 3500 
L 1178 3500 
L 1178 0 
L 603 0 
L 603 3500 
z
M 603 4863 
L 1178 4863 
L 1178 4134 
L 603 4134 
L 603 4863 
z
" transform="scale(0.015625)"/>
       <path id="DejaVuSans-6d" d="M 3328 2828 
Q 3544 3216 3844 3400 
Q 4144 3584 4550 3584 
Q 5097 3584 5394 3201 
Q 5691 2819 5691 2113 
L 5691 0 
L 5113 0 
L 5113 2094 
Q 5113 2597 4934 2840 
Q 4756 3084 4391 3084 
Q 3944 3084 3684 2787 
Q 3425 2491 3425 1978 
L 3425 0 
L 2847 0 
L 2847 2094 
Q 2847 2600 2669 2842 
Q 2491 3084 2119 3084 
Q 1678 3084 1418 2786 
Q 1159 2488 1159 1978 
L 1159 0 
L 581 0 
L 581 3500 
L 1159 3500 
L 1159 2956 
Q 1356 3278 1631 3431 
Q 1906 3584 2284 3584 
Q 2666 3584 2933 3390 
Q 3200 3197 3328 2828 
z
" transform="scale(0.015625)"/>
       <path id="DejaVuSans-65" d="M 3597 1894 
L 3597 1613 
L 953 1613 
Q 991 1019 1311 708 
Q 1631 397 2203 397 
Q 2534 397 2845 478 
Q 3156 559 3463 722 
L 3463 178 
Q 3153 47 2828 -22 
Q 2503 -91 2169 -91 
Q 1331 -91 842 396 
Q 353 884 353 1716 
Q 353 2575 817 3079 
Q 1281 3584 2069 3584 
Q 2775 3584 3186 3129 
Q 3597 2675 3597 1894 
z
M 3022 2063 
Q 3016 2534 2758 2815 
Q 2500 3097 2075 3097 
Q 1594 3097 1305 2825 
Q 1016 2553 972 2059 
L 3022 2063 
z
" transform="scale(0.015625)"/>
       <path id="DejaVuSans-20" transform="scale(0.015625)"/>
       <path id="DejaVuSans-6e" d="M 3513 2113 
L 3513 0 
L 2938 0 
L 2938 2094 
Q 2938 2591 2744 2837 
Q 2550 3084 2163 3084 
Q 1697 3084 1428 2787 
Q 1159 2491 1159 1978 
L 1159 0 
L 581 0 
L 581 3500 
L 1159 3500 
L 1159 2956 
Q 1366 3272 1645 3428 
Q 1925 3584 2291 3584 
Q 2894 3584 3203 3211 
Q 3513 2838 3513 2113 
z
" transform="scale(0.015625)"/>
       <path id="DejaVuSans-61" d="M 2194 1759 
Q 1497 1759 1228 1600 
Q 959 1441 959 1056 
Q 959 750 1161 570 
Q 1363 391 1709 391 
Q 2188 391 2477 730 
Q 2766 1069 2766 1631 
L 2766 1759 
L 2194 1759 
z
M 3341 1997 
L 3341 0 
L 2766 0 
L 2766 531 
Q 2569 213 2275 61 
Q 1981 -91 1556 -91 
Q 1019 -91 701 211 
Q 384 513 384 1019 
Q 384 1609 779 1909 
Q 1175 2209 1959 2209 
L 2766 2209 
L 2766 2266 
Q 2766 2663 2505 2880 
Q 2244 3097 1772 3097 
Q 1472 3097 1187 3025 
Q 903 2953 641 2809 
L 641 3341 
Q 956 3463 1253 3523 
Q 1550 3584 1831 3584 
Q 2591 3584 2966 3190 
Q 3341 2797 3341 1997 
z
" transform="scale(0.015625)"/>
       <path id="DejaVuSans-75" d="M 544 1381 
L 544 3500 
L 1119 3500 
L 1119 1403 
Q 1119 906 1312 657 
Q 1506 409 1894 409 
Q 2359 409 2629 706 
Q 2900 1003 2900 1516 
L 2900 3500 
L 3475 3500 
L 3475 0 
L 2900 0 
L 2900 538 
Q 2691 219 2414 64 
Q 2138 -91 1772 -91 
Q 1169 -91 856 284 
Q 544 659 544 1381 
z
M 1991 3584 
L 1991 3584 
z
" transform="scale(0.015625)"/>
      </defs>
      <use xlink:href="#DejaVuSans-74"/>
      <use xlink:href="#DejaVuSans-69" x="39.208984"/>
      <use xlink:href="#DejaVuSans-6d" x="66.992188"/>
      <use xlink:href="#DejaVuSans-65" x="164.404297"/>
      <use xlink:href="#DejaVuSans-20" x="225.927734"/>
      <use xlink:href="#DejaVuSans-69" x="257.714844"/>
      <use xlink:href="#DejaVuSans-6e" x="285.498047"/>
      <use xlink:href="#DejaVuSans-20" x="348.876953"/>
      <use xlink:href="#DejaVuSans-61" x="380.664062"/>
      <use xlink:href="#DejaVuSans-2e" x="441.943359"/>
      <use xlink:href="#DejaVuSans-75" x="473.730469"/>
      <use xlink:href="#DejaVuSans-2e" x="537.109375"/>
     </g>
    </g>
   </g>
   <g id="matplotlib.axis_2">
    <g id="ytick_1">
     <g id="line2d_8">
      <defs>
       <path id="m56189ae8cd" d="M 0 0 
L -3.5 0 
" style="stroke: #000000; stroke-width: 0.8"/>
      </defs>
      <g>
       <use xlink:href="#m56189ae8cd" x="92.09" y="269.501986" style="stroke: #000000; stroke-width: 0.8"/>
      </g>
     </g>
     <g id="text_9">
      <!-- 0 -->
      <g transform="translate(74.0956 276.067036) scale(0.1728 -0.1728)">
       <use xlink:href="#DejaVuSans-30"/>
      </g>
     </g>
    </g>
    <g id="ytick_2">
     <g id="line2d_9">
      <g>
       <use xlink:href="#m56189ae8cd" x="92.09" y="209.153487" style="stroke: #000000; stroke-width: 0.8"/>
      </g>
     </g>
     <g id="text_10">
      <!-- 50 -->
      <g transform="translate(63.1012 215.718537) scale(0.1728 -0.1728)">
       <use xlink:href="#DejaVuSans-35"/>
       <use xlink:href="#DejaVuSans-30" x="63.623047"/>
      </g>
     </g>
    </g>
    <g id="ytick_3">
     <g id="line2d_10">
      <g>
       <use xlink:href="#m56189ae8cd" x="92.09" y="148.804988" style="stroke: #000000; stroke-width: 0.8"/>
      </g>
     </g>
     <g id="text_11">
      <!-- 100 -->
      <g transform="translate(52.1068 155.370038) scale(0.1728 -0.1728)">
       <use xlink:href="#DejaVuSans-31"/>
       <use xlink:href="#DejaVuSans-30" x="63.623047"/>
       <use xlink:href="#DejaVuSans-30" x="127.246094"/>
      </g>
     </g>
    </g>
    <g id="ytick_4">
     <g id="line2d_11">
      <g>
       <use xlink:href="#m56189ae8cd" x="92.09" y="88.456489" style="stroke: #000000; stroke-width: 0.8"/>
      </g>
     </g>
     <g id="text_12">
      <!-- 150 -->
      <g transform="translate(52.1068 95.021539) scale(0.1728 -0.1728)">
       <use xlink:href="#DejaVuSans-31"/>
       <use xlink:href="#DejaVuSans-35" x="63.623047"/>
       <use xlink:href="#DejaVuSans-30" x="127.246094"/>
      </g>
     </g>
    </g>
    <g id="text_13">
     <!-- (avg. M=49) energy in a.u. -->
     <g transform="translate(44.5131 286.0598) rotate(-90) scale(0.1728 -0.1728)">
      <defs>
       <path id="DejaVuSans-28" d="M 1984 4856 
Q 1566 4138 1362 3434 
Q 1159 2731 1159 2009 
Q 1159 1288 1364 580 
Q 1569 -128 1984 -844 
L 1484 -844 
Q 1016 -109 783 600 
Q 550 1309 550 2009 
Q 550 2706 781 3412 
Q 1013 4119 1484 4856 
L 1984 4856 
z
" transform="scale(0.015625)"/>
       <path id="DejaVuSans-76" d="M 191 3500 
L 800 3500 
L 1894 563 
L 2988 3500 
L 3597 3500 
L 2284 0 
L 1503 0 
L 191 3500 
z
" transform="scale(0.015625)"/>
       <path id="DejaVuSans-67" d="M 2906 1791 
Q 2906 2416 2648 2759 
Q 2391 3103 1925 3103 
Q 1463 3103 1205 2759 
Q 947 2416 947 1791 
Q 947 1169 1205 825 
Q 1463 481 1925 481 
Q 2391 481 2648 825 
Q 2906 1169 2906 1791 
z
M 3481 434 
Q 3481 -459 3084 -895 
Q 2688 -1331 1869 -1331 
Q 1566 -1331 1297 -1286 
Q 1028 -1241 775 -1147 
L 775 -588 
Q 1028 -725 1275 -790 
Q 1522 -856 1778 -856 
Q 2344 -856 2625 -561 
Q 2906 -266 2906 331 
L 2906 616 
Q 2728 306 2450 153 
Q 2172 0 1784 0 
Q 1141 0 747 490 
Q 353 981 353 1791 
Q 353 2603 747 3093 
Q 1141 3584 1784 3584 
Q 2172 3584 2450 3431 
Q 2728 3278 2906 2969 
L 2906 3500 
L 3481 3500 
L 3481 434 
z
" transform="scale(0.015625)"/>
       <path id="DejaVuSans-4d" d="M 628 4666 
L 1569 4666 
L 2759 1491 
L 3956 4666 
L 4897 4666 
L 4897 0 
L 4281 0 
L 4281 4097 
L 3078 897 
L 2444 897 
L 1241 4097 
L 1241 0 
L 628 0 
L 628 4666 
z
" transform="scale(0.015625)"/>
       <path id="DejaVuSans-3d" d="M 678 2906 
L 4684 2906 
L 4684 2381 
L 678 2381 
L 678 2906 
z
M 678 1631 
L 4684 1631 
L 4684 1100 
L 678 1100 
L 678 1631 
z
" transform="scale(0.015625)"/>
       <path id="DejaVuSans-34" d="M 2419 4116 
L 825 1625 
L 2419 1625 
L 2419 4116 
z
M 2253 4666 
L 3047 4666 
L 3047 1625 
L 3713 1625 
L 3713 1100 
L 3047 1100 
L 3047 0 
L 2419 0 
L 2419 1100 
L 313 1100 
L 313 1709 
L 2253 4666 
z
" transform="scale(0.015625)"/>
       <path id="DejaVuSans-39" d="M 703 97 
L 703 672 
Q 941 559 1184 500 
Q 1428 441 1663 441 
Q 2288 441 2617 861 
Q 2947 1281 2994 2138 
Q 2813 1869 2534 1725 
Q 2256 1581 1919 1581 
Q 1219 1581 811 2004 
Q 403 2428 403 3163 
Q 403 3881 828 4315 
Q 1253 4750 1959 4750 
Q 2769 4750 3195 4129 
Q 3622 3509 3622 2328 
Q 3622 1225 3098 567 
Q 2575 -91 1691 -91 
Q 1453 -91 1209 -44 
Q 966 3 703 97 
z
M 1959 2075 
Q 2384 2075 2632 2365 
Q 2881 2656 2881 3163 
Q 2881 3666 2632 3958 
Q 2384 4250 1959 4250 
Q 1534 4250 1286 3958 
Q 1038 3666 1038 3163 
Q 1038 2656 1286 2365 
Q 1534 2075 1959 2075 
z
" transform="scale(0.015625)"/>
       <path id="DejaVuSans-29" d="M 513 4856 
L 1013 4856 
Q 1481 4119 1714 3412 
Q 1947 2706 1947 2009 
Q 1947 1309 1714 600 
Q 1481 -109 1013 -844 
L 513 -844 
Q 928 -128 1133 580 
Q 1338 1288 1338 2009 
Q 1338 2731 1133 3434 
Q 928 4138 513 4856 
z
" transform="scale(0.015625)"/>
       <path id="DejaVuSans-72" d="M 2631 2963 
Q 2534 3019 2420 3045 
Q 2306 3072 2169 3072 
Q 1681 3072 1420 2755 
Q 1159 2438 1159 1844 
L 1159 0 
L 581 0 
L 581 3500 
L 1159 3500 
L 1159 2956 
Q 1341 3275 1631 3429 
Q 1922 3584 2338 3584 
Q 2397 3584 2469 3576 
Q 2541 3569 2628 3553 
L 2631 2963 
z
" transform="scale(0.015625)"/>
       <path id="DejaVuSans-79" d="M 2059 -325 
Q 1816 -950 1584 -1140 
Q 1353 -1331 966 -1331 
L 506 -1331 
L 506 -850 
L 844 -850 
Q 1081 -850 1212 -737 
Q 1344 -625 1503 -206 
L 1606 56 
L 191 3500 
L 800 3500 
L 1894 763 
L 2988 3500 
L 3597 3500 
L 2059 -325 
z
" transform="scale(0.015625)"/>
      </defs>
      <use xlink:href="#DejaVuSans-28"/>
      <use xlink:href="#DejaVuSans-61" x="39.013672"/>
      <use xlink:href="#DejaVuSans-76" x="100.292969"/>
      <use xlink:href="#DejaVuSans-67" x="159.472656"/>
      <use xlink:href="#DejaVuSans-2e" x="222.949219"/>
      <use xlink:href="#DejaVuSans-20" x="254.736328"/>
      <use xlink:href="#DejaVuSans-4d" x="286.523438"/>
      <use xlink:href="#DejaVuSans-3d" x="372.802734"/>
      <use xlink:href="#DejaVuSans-34" x="456.591797"/>
      <use xlink:href="#DejaVuSans-39" x="520.214844"/>
      <use xlink:href="#DejaVuSans-29" x="583.837891"/>
      <use xlink:href="#DejaVuSans-20" x="622.851562"/>
      <use xlink:href="#DejaVuSans-65" x="654.638672"/>
      <use xlink:href="#DejaVuSans-6e" x="716.162109"/>
      <use xlink:href="#DejaVuSans-65" x="779.541016"/>
      <use xlink:href="#DejaVuSans-72" x="841.064453"/>
      <use xlink:href="#DejaVuSans-67" x="880.427734"/>
      <use xlink:href="#DejaVuSans-79" x="943.904297"/>
      <use xlink:href="#DejaVuSans-20" x="1003.083984"/>
      <use xlink:href="#DejaVuSans-69" x="1034.871094"/>
      <use xlink:href="#DejaVuSans-6e" x="1062.654297"/>
      <use xlink:href="#DejaVuSans-20" x="1126.033203"/>
      <use xlink:href="#DejaVuSans-61" x="1157.820312"/>
      <use xlink:href="#DejaVuSans-2e" x="1219.099609"/>
      <use xlink:href="#DejaVuSans-75" x="1250.886719"/>
      <use xlink:href="#DejaVuSans-2e" x="1314.265625"/>
     </g>
    </g>
   </g>
   <g id="line2d_12">
    <path d="M 214.312725 96.72814 
L 216.807066 94.947263 
L 226.784431 96.664404 
L 231.773114 97.66441 
L 234.267455 97.965575 
L 241.750479 98.584317 
L 249.233503 99.611803 
L 261.70521 100.382743 
L 266.693892 100.516933 
L 274.176916 100.998583 
L 276.671257 101.434422 
L 279.165599 101.638362 
L 286.648623 101.677876 
L 291.637305 101.647455 
L 294.131647 101.50587 
L 299.120329 101.646454 
L 304.109012 101.547695 
L 316.580719 100.712625 
L 326.558084 100.50039 
L 329.052425 100.227619 
L 334.041108 100.059206 
L 339.02979 99.895233 
L 341.524132 99.989135 
L 346.512814 99.828832 
L 351.501497 99.535449 
L 353.995838 99.408351 
L 356.49018 99.433481 
L 358.984521 99.644222 
L 373.950569 100.25861 
L 376.44491 100.421763 
L 381.433593 100.469151 
L 388.916617 100.379408 
L 396.399641 100.832007 
L 398.893982 100.648884 
L 406.377006 100.611871 
L 411.365689 100.69053 
L 413.86003 100.821511 
L 416.354371 100.784823 
L 418.848713 100.58547 
L 421.343054 100.569108 
L 423.837395 100.695675 
L 428.826078 100.642746 
L 431.320419 100.82865 
L 436.309102 100.857306 
L 438.803443 100.771659 
L 443.792126 100.927591 
L 456.263832 100.847619 
L 461.252515 100.802811 
L 466.241198 101.124457 
L 468.735539 101.160356 
L 476.218563 100.889682 
L 478.712904 101.046946 
L 481.207246 101.317856 
L 483.701587 101.449118 
L 506.150659 101.547807 
L 508.645 101.641642 
L 513.633683 101.647819 
L 518.622365 101.846015 
L 523.611048 101.681742 
L 528.599731 101.810342 
L 531.094072 102.008709 
L 536.082754 102.00466 
L 543.565778 102.369882 
L 548.554461 102.601382 
L 558.531826 103.399417 
L 563.520509 103.640586 
L 571.003533 104.103271 
L 578.486557 104.777635 
L 583.47524 104.973515 
L 590.958263 104.956696 
L 598.441287 105.35733 
L 605.924311 105.483168 
L 625.879042 105.066495 
L 628.373383 105.109998 
L 630.867725 105.349187 
L 640.84509 104.959727 
L 643.339431 105.060064 
L 648.328114 105.076374 
L 655.811138 105.301789 
L 658.305479 105.192776 
L 665.788503 105.316281 
L 668.282844 105.111519 
L 675.765868 105.221533 
L 680.754551 104.976348 
L 690.731916 104.899125 
L 698.21494 104.680423 
L 708.192305 104.215191 
L 713.180988 104.121498 
L 718.169671 104.066431 
L 725.652695 103.498936 
L 743.113084 103.232962 
L 748.101766 103.18655 
L 750.596108 103.220833 
L 763.067814 102.886651 
L 768.056497 103.072522 
L 778.033862 102.872111 
L 783.022545 102.935893 
L 788.011228 102.875287 
L 795.494251 103.028256 
L 800.482934 103.092113 
L 800.482934 103.092113 
" clip-path="url(#p6d093cd47f)" style="fill: none; stroke: #1f77b4; stroke-width: 1.5; stroke-linecap: square"/>
   </g>
   <g id="line2d_13">
    <path d="M 381.433593 309.04 
L 381.433593 30.48 
" clip-path="url(#p6d093cd47f)" style="fill: none; stroke-dasharray: 5.55,2.4; stroke-dashoffset: 0; stroke: #808080; stroke-width: 1.5"/>
   </g>
   <g id="line2d_14">
    <path d="M 92.09 102.641955 
L 925.2 102.641955 
" clip-path="url(#p6d093cd47f)" style="fill: none; stroke: #ff0000; stroke-opacity: 0.3; stroke-width: 1.5; stroke-linecap: square"/>
   </g>
   <g id="patch_4">
    <path d="M 92.09 309.04 
L 92.09 30.48 
" style="fill: none; stroke: #000000; stroke-width: 0.8; stroke-linejoin: miter; stroke-linecap: square"/>
   </g>
   <g id="patch_5">
    <path d="M 925.2 309.04 
L 925.2 30.48 
" style="fill: none; stroke: #000000; stroke-width: 0.8; stroke-linejoin: miter; stroke-linecap: square"/>
   </g>
   <g id="patch_6">
    <path d="M 92.09 309.04 
L 925.2 309.04 
" style="fill: none; stroke: #000000; stroke-width: 0.8; stroke-linejoin: miter; stroke-linecap: square"/>
   </g>
   <g id="patch_7">
    <path d="M 92.09 30.48 
L 925.2 30.48 
" style="fill: none; stroke: #000000; stroke-width: 0.8; stroke-linejoin: miter; stroke-linecap: square"/>
   </g>
   <g id="text_14">
    <!-- Energy -->
    <g transform="translate(478.3942 24.48) scale(0.1728 -0.1728)">
     <defs>
      <path id="DejaVuSans-45" d="M 628 4666 
L 3578 4666 
L 3578 4134 
L 1259 4134 
L 1259 2753 
L 3481 2753 
L 3481 2222 
L 1259 2222 
L 1259 531 
L 3634 531 
L 3634 0 
L 628 0 
L 628 4666 
z
" transform="scale(0.015625)"/>
     </defs>
     <use xlink:href="#DejaVuSans-45"/>
     <use xlink:href="#DejaVuSans-6e" x="63.183594"/>
     <use xlink:href="#DejaVuSans-65" x="126.5625"/>
     <use xlink:href="#DejaVuSans-72" x="188.085938"/>
     <use xlink:href="#DejaVuSans-67" x="227.449219"/>
     <use xlink:href="#DejaVuSans-79" x="290.925781"/>
    </g>
   </g>
  </g>
  <g id="axes_2">
   <g id="patch_8">
    <path d="M 92.09 663.64 
L 475.335 663.64 
L 475.335 385.08 
L 92.09 385.08 
z
" style="fill: #ffffff"/>
   </g>
   <g id="patch_9">
    <path d="M 92.09 663.64 
L 92.09 385.08 
L 225.193054 385.08 
L 225.193054 663.64 
z
" clip-path="url(#p42851d24f8)" style="fill: #808080; opacity: 0.15"/>
   </g>
   <g id="matplotlib.axis_3">
    <g id="xtick_8">
     <g id="line2d_15">
      <g>
       <use xlink:href="#m27a7629ca7" x="92.09" y="663.64" style="stroke: #000000; stroke-width: 0.8"/>
      </g>
     </g>
     <g id="text_15">
      <!-- 0.0 -->
      <g transform="translate(78.3497 683.7701) scale(0.1728 -0.1728)">
       <use xlink:href="#DejaVuSans-30"/>
       <use xlink:href="#DejaVuSans-2e" x="63.623047"/>
       <use xlink:href="#DejaVuSans-30" x="95.410156"/>
      </g>
     </g>
    </g>
    <g id="xtick_9">
     <g id="line2d_16">
      <g>
       <use xlink:href="#m27a7629ca7" x="149.462006" y="663.64" style="stroke: #000000; stroke-width: 0.8"/>
      </g>
     </g>
     <g id="text_16">
      <!-- 0.5 -->
      <g transform="translate(135.721706 683.7701) scale(0.1728 -0.1728)">
       <use xlink:href="#DejaVuSans-30"/>
       <use xlink:href="#DejaVuSans-2e" x="63.623047"/>
       <use xlink:href="#DejaVuSans-35" x="95.410156"/>
      </g>
     </g>
    </g>
    <g id="xtick_10">
     <g id="line2d_17">
      <g>
       <use xlink:href="#m27a7629ca7" x="206.834012" y="663.64" style="stroke: #000000; stroke-width: 0.8"/>
      </g>
     </g>
     <g id="text_17">
      <!-- 1.0 -->
      <g transform="translate(193.093712 683.7701) scale(0.1728 -0.1728)">
       <use xlink:href="#DejaVuSans-31"/>
       <use xlink:href="#DejaVuSans-2e" x="63.623047"/>
       <use xlink:href="#DejaVuSans-30" x="95.410156"/>
      </g>
     </g>
    </g>
    <g id="xtick_11">
     <g id="line2d_18">
      <g>
       <use xlink:href="#m27a7629ca7" x="264.206018" y="663.64" style="stroke: #000000; stroke-width: 0.8"/>
      </g>
     </g>
     <g id="text_18">
      <!-- 1.5 -->
      <g transform="translate(250.465718 683.7701) scale(0.1728 -0.1728)">
       <use xlink:href="#DejaVuSans-31"/>
       <use xlink:href="#DejaVuSans-2e" x="63.623047"/>
       <use xlink:href="#DejaVuSans-35" x="95.410156"/>
      </g>
     </g>
    </g>
    <g id="xtick_12">
     <g id="line2d_19">
      <g>
       <use xlink:href="#m27a7629ca7" x="321.578024" y="663.64" style="stroke: #000000; stroke-width: 0.8"/>
      </g>
     </g>
     <g id="text_19">
      <!-- 2.0 -->
      <g transform="translate(307.837724 683.7701) scale(0.1728 -0.1728)">
       <use xlink:href="#DejaVuSans-32"/>
       <use xlink:href="#DejaVuSans-2e" x="63.623047"/>
       <use xlink:href="#DejaVuSans-30" x="95.410156"/>
      </g>
     </g>
    </g>
    <g id="xtick_13">
     <g id="line2d_20">
      <g>
       <use xlink:href="#m27a7629ca7" x="378.95003" y="663.64" style="stroke: #000000; stroke-width: 0.8"/>
      </g>
     </g>
     <g id="text_20">
      <!-- 2.5 -->
      <g transform="translate(365.20973 683.7701) scale(0.1728 -0.1728)">
       <use xlink:href="#DejaVuSans-32"/>
       <use xlink:href="#DejaVuSans-2e" x="63.623047"/>
       <use xlink:href="#DejaVuSans-35" x="95.410156"/>
      </g>
     </g>
    </g>
    <g id="xtick_14">
     <g id="line2d_21">
      <g>
       <use xlink:href="#m27a7629ca7" x="436.322036" y="663.64" style="stroke: #000000; stroke-width: 0.8"/>
      </g>
     </g>
     <g id="text_21">
      <!-- 3.0 -->
      <g transform="translate(422.581736 683.7701) scale(0.1728 -0.1728)">
       <use xlink:href="#DejaVuSans-33"/>
       <use xlink:href="#DejaVuSans-2e" x="63.623047"/>
       <use xlink:href="#DejaVuSans-30" x="95.410156"/>
      </g>
     </g>
    </g>
    <g id="text_22">
     <!-- time in a.u. -->
     <g transform="translate(234.56305 704.4939) scale(0.1728 -0.1728)">
      <use xlink:href="#DejaVuSans-74"/>
      <use xlink:href="#DejaVuSans-69" x="39.208984"/>
      <use xlink:href="#DejaVuSans-6d" x="66.992188"/>
      <use xlink:href="#DejaVuSans-65" x="164.404297"/>
      <use xlink:href="#DejaVuSans-20" x="225.927734"/>
      <use xlink:href="#DejaVuSans-69" x="257.714844"/>
      <use xlink:href="#DejaVuSans-6e" x="285.498047"/>
      <use xlink:href="#DejaVuSans-20" x="348.876953"/>
      <use xlink:href="#DejaVuSans-61" x="380.664062"/>
      <use xlink:href="#DejaVuSans-2e" x="441.943359"/>
      <use xlink:href="#DejaVuSans-75" x="473.730469"/>
      <use xlink:href="#DejaVuSans-2e" x="537.109375"/>
     </g>
    </g>
   </g>
   <g id="matplotlib.axis_4">
    <g id="ytick_5">
     <g id="line2d_22">
      <g>
       <use xlink:href="#m56189ae8cd" x="92.09" y="646.85336" style="stroke: #000000; stroke-width: 0.8"/>
      </g>
     </g>
     <g id="text_23">
      <!-- −0.25 -->
      <g transform="translate(32.1349 653.41841) scale(0.1728 -0.1728)">
       <defs>
        <path id="DejaVuSans-2212" d="M 678 2272 
L 4684 2272 
L 4684 1741 
L 678 1741 
L 678 2272 
z
" transform="scale(0.015625)"/>
       </defs>
       <use xlink:href="#DejaVuSans-2212"/>
       <use xlink:href="#DejaVuSans-30" x="83.789062"/>
       <use xlink:href="#DejaVuSans-2e" x="147.412109"/>
       <use xlink:href="#DejaVuSans-32" x="179.199219"/>
       <use xlink:href="#DejaVuSans-35" x="242.822266"/>
      </g>
     </g>
    </g>
    <g id="ytick_6">
     <g id="line2d_23">
      <g>
       <use xlink:href="#m56189ae8cd" x="92.09" y="603.522596" style="stroke: #000000; stroke-width: 0.8"/>
      </g>
     </g>
     <g id="text_24">
      <!-- 0.00 -->
      <g transform="translate(46.615 610.087646) scale(0.1728 -0.1728)">
       <use xlink:href="#DejaVuSans-30"/>
       <use xlink:href="#DejaVuSans-2e" x="63.623047"/>
       <use xlink:href="#DejaVuSans-30" x="95.410156"/>
       <use xlink:href="#DejaVuSans-30" x="159.033203"/>
      </g>
     </g>
    </g>
    <g id="ytick_7">
     <g id="line2d_24">
      <g>
       <use xlink:href="#m56189ae8cd" x="92.09" y="560.191832" style="stroke: #000000; stroke-width: 0.8"/>
      </g>
     </g>
     <g id="text_25">
      <!-- 0.25 -->
      <g transform="translate(46.615 566.756882) scale(0.1728 -0.1728)">
       <use xlink:href="#DejaVuSans-30"/>
       <use xlink:href="#DejaVuSans-2e" x="63.623047"/>
       <use xlink:href="#DejaVuSans-32" x="95.410156"/>
       <use xlink:href="#DejaVuSans-35" x="159.033203"/>
      </g>
     </g>
    </g>
    <g id="ytick_8">
     <g id="line2d_25">
      <g>
       <use xlink:href="#m56189ae8cd" x="92.09" y="516.861069" style="stroke: #000000; stroke-width: 0.8"/>
      </g>
     </g>
     <g id="text_26">
      <!-- 0.50 -->
      <g transform="translate(46.615 523.426119) scale(0.1728 -0.1728)">
       <use xlink:href="#DejaVuSans-30"/>
       <use xlink:href="#DejaVuSans-2e" x="63.623047"/>
       <use xlink:href="#DejaVuSans-35" x="95.410156"/>
       <use xlink:href="#DejaVuSans-30" x="159.033203"/>
      </g>
     </g>
    </g>
    <g id="ytick_9">
     <g id="line2d_26">
      <g>
       <use xlink:href="#m56189ae8cd" x="92.09" y="473.530305" style="stroke: #000000; stroke-width: 0.8"/>
      </g>
     </g>
     <g id="text_27">
      <!-- 0.75 -->
      <g transform="translate(46.615 480.095355) scale(0.1728 -0.1728)">
       <defs>
        <path id="DejaVuSans-37" d="M 525 4666 
L 3525 4666 
L 3525 4397 
L 1831 0 
L 1172 0 
L 2766 4134 
L 525 4134 
L 525 4666 
z
" transform="scale(0.015625)"/>
       </defs>
       <use xlink:href="#DejaVuSans-30"/>
       <use xlink:href="#DejaVuSans-2e" x="63.623047"/>
       <use xlink:href="#DejaVuSans-37" x="95.410156"/>
       <use xlink:href="#DejaVuSans-35" x="159.033203"/>
      </g>
     </g>
    </g>
    <g id="ytick_10">
     <g id="line2d_27">
      <g>
       <use xlink:href="#m56189ae8cd" x="92.09" y="430.199541" style="stroke: #000000; stroke-width: 0.8"/>
      </g>
     </g>
     <g id="text_28">
      <!-- 1.00 -->
      <g transform="translate(46.615 436.764591) scale(0.1728 -0.1728)">
       <use xlink:href="#DejaVuSans-31"/>
       <use xlink:href="#DejaVuSans-2e" x="63.623047"/>
       <use xlink:href="#DejaVuSans-30" x="95.410156"/>
       <use xlink:href="#DejaVuSans-30" x="159.033203"/>
      </g>
     </g>
    </g>
    <g id="ytick_11">
     <g id="line2d_28">
      <g>
       <use xlink:href="#m56189ae8cd" x="92.09" y="386.868777" style="stroke: #000000; stroke-width: 0.8"/>
      </g>
     </g>
     <g id="text_29">
      <!-- 1.25 -->
      <g transform="translate(46.615 393.433827) scale(0.1728 -0.1728)">
       <use xlink:href="#DejaVuSans-31"/>
       <use xlink:href="#DejaVuSans-2e" x="63.623047"/>
       <use xlink:href="#DejaVuSans-32" x="95.410156"/>
       <use xlink:href="#DejaVuSans-35" x="159.033203"/>
      </g>
     </g>
    </g>
    <g id="text_30">
     <!-- (avg. M=49) pressure in a.u. -->
     <g transform="translate(24.5412 647.86205) rotate(-90) scale(0.1728 -0.1728)">
      <defs>
       <path id="DejaVuSans-70" d="M 1159 525 
L 1159 -1331 
L 581 -1331 
L 581 3500 
L 1159 3500 
L 1159 2969 
Q 1341 3281 1617 3432 
Q 1894 3584 2278 3584 
Q 2916 3584 3314 3078 
Q 3713 2572 3713 1747 
Q 3713 922 3314 415 
Q 2916 -91 2278 -91 
Q 1894 -91 1617 61 
Q 1341 213 1159 525 
z
M 3116 1747 
Q 3116 2381 2855 2742 
Q 2594 3103 2138 3103 
Q 1681 3103 1420 2742 
Q 1159 2381 1159 1747 
Q 1159 1113 1420 752 
Q 1681 391 2138 391 
Q 2594 391 2855 752 
Q 3116 1113 3116 1747 
z
" transform="scale(0.015625)"/>
       <path id="DejaVuSans-73" d="M 2834 3397 
L 2834 2853 
Q 2591 2978 2328 3040 
Q 2066 3103 1784 3103 
Q 1356 3103 1142 2972 
Q 928 2841 928 2578 
Q 928 2378 1081 2264 
Q 1234 2150 1697 2047 
L 1894 2003 
Q 2506 1872 2764 1633 
Q 3022 1394 3022 966 
Q 3022 478 2636 193 
Q 2250 -91 1575 -91 
Q 1294 -91 989 -36 
Q 684 19 347 128 
L 347 722 
Q 666 556 975 473 
Q 1284 391 1588 391 
Q 1994 391 2212 530 
Q 2431 669 2431 922 
Q 2431 1156 2273 1281 
Q 2116 1406 1581 1522 
L 1381 1569 
Q 847 1681 609 1914 
Q 372 2147 372 2553 
Q 372 3047 722 3315 
Q 1072 3584 1716 3584 
Q 2034 3584 2315 3537 
Q 2597 3491 2834 3397 
z
" transform="scale(0.015625)"/>
      </defs>
      <use xlink:href="#DejaVuSans-28"/>
      <use xlink:href="#DejaVuSans-61" x="39.013672"/>
      <use xlink:href="#DejaVuSans-76" x="100.292969"/>
      <use xlink:href="#DejaVuSans-67" x="159.472656"/>
      <use xlink:href="#DejaVuSans-2e" x="222.949219"/>
      <use xlink:href="#DejaVuSans-20" x="254.736328"/>
      <use xlink:href="#DejaVuSans-4d" x="286.523438"/>
      <use xlink:href="#DejaVuSans-3d" x="372.802734"/>
      <use xlink:href="#DejaVuSans-34" x="456.591797"/>
      <use xlink:href="#DejaVuSans-39" x="520.214844"/>
      <use xlink:href="#DejaVuSans-29" x="583.837891"/>
      <use xlink:href="#DejaVuSans-20" x="622.851562"/>
      <use xlink:href="#DejaVuSans-70" x="654.638672"/>
      <use xlink:href="#DejaVuSans-72" x="718.115234"/>
      <use xlink:href="#DejaVuSans-65" x="756.978516"/>
      <use xlink:href="#DejaVuSans-73" x="818.501953"/>
      <use xlink:href="#DejaVuSans-73" x="870.601562"/>
      <use xlink:href="#DejaVuSans-75" x="922.701172"/>
      <use xlink:href="#DejaVuSans-72" x="986.080078"/>
      <use xlink:href="#DejaVuSans-65" x="1024.943359"/>
      <use xlink:href="#DejaVuSans-20" x="1086.466797"/>
      <use xlink:href="#DejaVuSans-69" x="1118.253906"/>
      <use xlink:href="#DejaVuSans-6e" x="1146.037109"/>
      <use xlink:href="#DejaVuSans-20" x="1209.416016"/>
      <use xlink:href="#DejaVuSans-61" x="1241.203125"/>
      <use xlink:href="#DejaVuSans-2e" x="1302.482422"/>
      <use xlink:href="#DejaVuSans-75" x="1334.269531"/>
      <use xlink:href="#DejaVuSans-2e" x="1397.648438"/>
     </g>
    </g>
   </g>
   <g id="line2d_29">
    <path d="M 148.314566 519.741706 
L 149.462006 517.70161 
L 150.609446 516.063695 
L 151.756886 514.798409 
L 152.904326 513.883058 
L 155.199207 512.676082 
L 156.346647 511.689529 
L 157.494087 510.517714 
L 158.641527 509.63203 
L 159.788967 509.442826 
L 160.936407 509.979083 
L 163.231287 511.518451 
L 164.378728 511.835633 
L 165.526168 511.828979 
L 167.821048 512.112361 
L 168.968488 512.301467 
L 171.263368 511.49552 
L 173.558249 511.361692 
L 174.705689 511.657169 
L 175.853129 512.824835 
L 177.000569 513.28373 
L 178.148009 513.085482 
L 179.295449 512.766203 
L 180.442889 512.217275 
L 182.737769 511.606989 
L 183.88521 511.165651 
L 185.03265 511.679519 
L 186.18009 512.401426 
L 187.32753 512.988592 
L 188.47497 513.341491 
L 191.91729 513.41624 
L 193.064731 513.653461 
L 194.212171 514.051537 
L 197.654491 515.966357 
L 198.801931 515.665432 
L 199.949371 514.905423 
L 201.096811 514.540627 
L 203.391692 514.369573 
L 204.539132 514.228772 
L 205.686572 514.637554 
L 206.834012 514.564817 
L 207.981452 514.179133 
L 209.128892 513.42643 
L 211.423772 512.577756 
L 212.571213 512.648404 
L 213.718653 513.376964 
L 214.866093 513.710582 
L 216.013533 513.917886 
L 217.160973 513.863164 
L 218.308413 513.619956 
L 219.455853 513.902188 
L 221.750734 514.070389 
L 222.898174 513.638306 
L 224.045614 512.970589 
L 226.340494 511.188708 
L 227.487934 511.006538 
L 228.635374 511.306847 
L 229.782814 511.897036 
L 230.930254 512.208873 
L 232.077695 511.557424 
L 233.225135 511.346251 
L 234.372575 511.316937 
L 236.667455 511.695615 
L 237.814895 512.179035 
L 238.962335 512.849193 
L 240.109775 512.948721 
L 241.257216 512.460345 
L 242.404656 512.538433 
L 243.552096 513.122977 
L 244.699536 513.193718 
L 245.846976 513.063913 
L 246.994416 513.541785 
L 248.141856 513.415148 
L 249.289296 513.098479 
L 250.436737 512.441619 
L 251.584177 512.47857 
L 252.731617 512.3515 
L 255.026497 511.45617 
L 256.173937 510.921419 
L 257.321377 510.675782 
L 258.468817 510.841175 
L 260.763698 510.726242 
L 261.911138 511.470157 
L 263.058578 511.973456 
L 264.206018 512.056588 
L 265.353458 511.665618 
L 266.500898 511.028645 
L 267.648338 510.874456 
L 268.795778 511.490253 
L 269.943219 512.529033 
L 271.090659 513.067874 
L 272.238099 513.029329 
L 274.532979 512.532133 
L 276.827859 511.716956 
L 280.27018 511.883531 
L 281.41762 512.246326 
L 282.56506 512.811818 
L 283.7125 512.933733 
L 284.85994 513.311802 
L 286.00738 513.890348 
L 287.15482 514.194556 
L 289.449701 513.465174 
L 291.744581 513.567866 
L 292.892021 513.959159 
L 294.039461 513.632669 
L 295.186901 513.021422 
L 296.334341 512.864179 
L 298.629222 511.994109 
L 299.776662 511.374191 
L 300.924102 510.953622 
L 304.366422 510.532194 
L 306.661302 509.724151 
L 307.808743 509.100428 
L 308.956183 508.651014 
L 310.103623 508.357275 
L 311.251063 508.5124 
L 313.545943 509.482796 
L 314.693383 509.707666 
L 315.840823 509.751547 
L 316.988263 509.667694 
L 319.283144 508.867745 
L 320.430584 508.794408 
L 327.315225 511.789048 
L 330.757545 512.139301 
L 331.904985 511.838256 
L 333.052425 511.975621 
L 335.347305 511.711954 
L 336.494746 511.529732 
L 337.642186 511.778151 
L 338.789626 512.711019 
L 339.937066 512.47818 
L 341.084506 511.684627 
L 342.231946 511.062612 
L 343.379386 510.817063 
L 344.526826 510.972679 
L 345.674266 510.854084 
L 346.821707 510.950923 
L 347.969147 511.293056 
L 349.116587 511.915414 
L 350.264027 512.063513 
L 351.411467 511.792245 
L 352.558907 511.935498 
L 353.706347 512.332861 
L 354.853787 512.438789 
L 356.001228 511.83073 
L 357.148668 512.092827 
L 358.296108 512.651162 
L 359.443548 512.743024 
L 361.738428 512.426629 
L 364.033308 513.036761 
L 366.328189 513.763407 
L 369.770509 514.742576 
L 370.917949 514.903287 
L 372.065389 515.291327 
L 374.360269 515.612619 
L 375.50771 516.145129 
L 377.80259 516.703112 
L 378.95003 517.012007 
L 380.09747 516.636478 
L 381.24491 516.064334 
L 382.39235 515.730893 
L 383.53979 515.926004 
L 384.687231 516.560899 
L 386.982111 517.168138 
L 389.276991 517.50126 
L 390.424431 517.295078 
L 391.571871 517.334159 
L 393.866751 518.184666 
L 395.014192 518.201461 
L 396.161632 518.380883 
L 398.456512 517.988912 
L 399.603952 518.287673 
L 400.751392 518.969385 
L 401.898832 519.510372 
L 403.046272 519.506221 
L 405.341153 519.080467 
L 408.783473 519.302376 
L 409.930913 519.065903 
L 411.078353 518.959147 
L 413.373234 519.406119 
L 415.668114 519.382057 
L 416.815554 519.197165 
L 417.962994 518.888919 
L 417.962994 518.888919 
" clip-path="url(#p42851d24f8)" style="fill: none; stroke: #1f77b4; stroke-width: 1.5; stroke-linecap: square"/>
   </g>
   <g id="line2d_30">
    <path d="M 225.193054 663.64 
L 225.193054 385.08 
" clip-path="url(#p42851d24f8)" style="fill: none; stroke-dasharray: 5.55,2.4; stroke-dashoffset: 0; stroke: #808080; stroke-width: 1.5"/>
   </g>
   <g id="line2d_31">
    <path d="M 92.09 515.368881 
L 475.335 515.368881 
" clip-path="url(#p42851d24f8)" style="fill: none; stroke: #ff0000; stroke-opacity: 0.3; stroke-width: 1.5; stroke-linecap: square"/>
   </g>
   <g id="patch_10">
    <path d="M 92.09 663.64 
L 92.09 385.08 
" style="fill: none; stroke: #000000; stroke-width: 0.8; stroke-linejoin: miter; stroke-linecap: square"/>
   </g>
   <g id="patch_11">
    <path d="M 475.335 663.64 
L 475.335 385.08 
" style="fill: none; stroke: #000000; stroke-width: 0.8; stroke-linejoin: miter; stroke-linecap: square"/>
   </g>
   <g id="patch_12">
    <path d="M 92.09 663.64 
L 475.335 663.64 
" style="fill: none; stroke: #000000; stroke-width: 0.8; stroke-linejoin: miter; stroke-linecap: square"/>
   </g>
   <g id="patch_13">
    <path d="M 92.09 385.08 
L 475.335 385.08 
" style="fill: none; stroke: #000000; stroke-width: 0.8; stroke-linejoin: miter; stroke-linecap: square"/>
   </g>
   <g id="text_31">
    <!-- Pressure -->
    <g transform="translate(246.82915 379.08) scale(0.1728 -0.1728)">
     <defs>
      <path id="DejaVuSans-50" d="M 1259 4147 
L 1259 2394 
L 2053 2394 
Q 2494 2394 2734 2622 
Q 2975 2850 2975 3272 
Q 2975 3691 2734 3919 
Q 2494 4147 2053 4147 
L 1259 4147 
z
M 628 4666 
L 2053 4666 
Q 2838 4666 3239 4311 
Q 3641 3956 3641 3272 
Q 3641 2581 3239 2228 
Q 2838 1875 2053 1875 
L 1259 1875 
L 1259 0 
L 628 0 
L 628 4666 
z
" transform="scale(0.015625)"/>
     </defs>
     <use xlink:href="#DejaVuSans-50"/>
     <use xlink:href="#DejaVuSans-72" x="58.552734"/>
     <use xlink:href="#DejaVuSans-65" x="97.416016"/>
     <use xlink:href="#DejaVuSans-73" x="158.939453"/>
     <use xlink:href="#DejaVuSans-73" x="211.039062"/>
     <use xlink:href="#DejaVuSans-75" x="263.138672"/>
     <use xlink:href="#DejaVuSans-72" x="326.517578"/>
     <use xlink:href="#DejaVuSans-65" x="365.380859"/>
    </g>
   </g>
  </g>
  <g id="axes_3">
   <g id="patch_14">
    <path d="M 541.955 663.64 
L 925.2 663.64 
L 925.2 385.08 
L 541.955 385.08 
z
" style="fill: #ffffff"/>
   </g>
   <g id="patch_15">
    <path d="M 541.955 663.64 
L 541.955 385.08 
L 675.058054 385.08 
L 675.058054 663.64 
z
" clip-path="url(#p1a1959a0d1)" style="fill: #808080; opacity: 0.15"/>
   </g>
   <g id="matplotlib.axis_5">
    <g id="xtick_15">
     <g id="line2d_32">
      <g>
       <use xlink:href="#m27a7629ca7" x="541.955" y="663.64" style="stroke: #000000; stroke-width: 0.8"/>
      </g>
     </g>
     <g id="text_32">
      <!-- 0.0 -->
      <g transform="translate(528.2147 683.7701) scale(0.1728 -0.1728)">
       <use xlink:href="#DejaVuSans-30"/>
       <use xlink:href="#DejaVuSans-2e" x="63.623047"/>
       <use xlink:href="#DejaVuSans-30" x="95.410156"/>
      </g>
     </g>
    </g>
    <g id="xtick_16">
     <g id="line2d_33">
      <g>
       <use xlink:href="#m27a7629ca7" x="599.327006" y="663.64" style="stroke: #000000; stroke-width: 0.8"/>
      </g>
     </g>
     <g id="text_33">
      <!-- 0.5 -->
      <g transform="translate(585.586706 683.7701) scale(0.1728 -0.1728)">
       <use xlink:href="#DejaVuSans-30"/>
       <use xlink:href="#DejaVuSans-2e" x="63.623047"/>
       <use xlink:href="#DejaVuSans-35" x="95.410156"/>
      </g>
     </g>
    </g>
    <g id="xtick_17">
     <g id="line2d_34">
      <g>
       <use xlink:href="#m27a7629ca7" x="656.699012" y="663.64" style="stroke: #000000; stroke-width: 0.8"/>
      </g>
     </g>
     <g id="text_34">
      <!-- 1.0 -->
      <g transform="translate(642.958712 683.7701) scale(0.1728 -0.1728)">
       <use xlink:href="#DejaVuSans-31"/>
       <use xlink:href="#DejaVuSans-2e" x="63.623047"/>
       <use xlink:href="#DejaVuSans-30" x="95.410156"/>
      </g>
     </g>
    </g>
    <g id="xtick_18">
     <g id="line2d_35">
      <g>
       <use xlink:href="#m27a7629ca7" x="714.071018" y="663.64" style="stroke: #000000; stroke-width: 0.8"/>
      </g>
     </g>
     <g id="text_35">
      <!-- 1.5 -->
      <g transform="translate(700.330718 683.7701) scale(0.1728 -0.1728)">
       <use xlink:href="#DejaVuSans-31"/>
       <use xlink:href="#DejaVuSans-2e" x="63.623047"/>
       <use xlink:href="#DejaVuSans-35" x="95.410156"/>
      </g>
     </g>
    </g>
    <g id="xtick_19">
     <g id="line2d_36">
      <g>
       <use xlink:href="#m27a7629ca7" x="771.443024" y="663.64" style="stroke: #000000; stroke-width: 0.8"/>
      </g>
     </g>
     <g id="text_36">
      <!-- 2.0 -->
      <g transform="translate(757.702724 683.7701) scale(0.1728 -0.1728)">
       <use xlink:href="#DejaVuSans-32"/>
       <use xlink:href="#DejaVuSans-2e" x="63.623047"/>
       <use xlink:href="#DejaVuSans-30" x="95.410156"/>
      </g>
     </g>
    </g>
    <g id="xtick_20">
     <g id="line2d_37">
      <g>
       <use xlink:href="#m27a7629ca7" x="828.81503" y="663.64" style="stroke: #000000; stroke-width: 0.8"/>
      </g>
     </g>
     <g id="text_37">
      <!-- 2.5 -->
      <g transform="translate(815.07473 683.7701) scale(0.1728 -0.1728)">
       <use xlink:href="#DejaVuSans-32"/>
       <use xlink:href="#DejaVuSans-2e" x="63.623047"/>
       <use xlink:href="#DejaVuSans-35" x="95.410156"/>
      </g>
     </g>
    </g>
    <g id="xtick_21">
     <g id="line2d_38">
      <g>
       <use xlink:href="#m27a7629ca7" x="886.187036" y="663.64" style="stroke: #000000; stroke-width: 0.8"/>
      </g>
     </g>
     <g id="text_38">
      <!-- 3.0 -->
      <g transform="translate(872.446736 683.7701) scale(0.1728 -0.1728)">
       <use xlink:href="#DejaVuSans-33"/>
       <use xlink:href="#DejaVuSans-2e" x="63.623047"/>
       <use xlink:href="#DejaVuSans-30" x="95.410156"/>
      </g>
     </g>
    </g>
    <g id="text_39">
     <!-- time in a.u. -->
     <g transform="translate(684.42805 704.4939) scale(0.1728 -0.1728)">
      <use xlink:href="#DejaVuSans-74"/>
      <use xlink:href="#DejaVuSans-69" x="39.208984"/>
      <use xlink:href="#DejaVuSans-6d" x="66.992188"/>
      <use xlink:href="#DejaVuSans-65" x="164.404297"/>
      <use xlink:href="#DejaVuSans-20" x="225.927734"/>
      <use xlink:href="#DejaVuSans-69" x="257.714844"/>
      <use xlink:href="#DejaVuSans-6e" x="285.498047"/>
      <use xlink:href="#DejaVuSans-20" x="348.876953"/>
      <use xlink:href="#DejaVuSans-61" x="380.664062"/>
      <use xlink:href="#DejaVuSans-2e" x="441.943359"/>
      <use xlink:href="#DejaVuSans-75" x="473.730469"/>
      <use xlink:href="#DejaVuSans-2e" x="537.109375"/>
     </g>
    </g>
   </g>
   <g id="matplotlib.axis_6">
    <g id="ytick_12">
     <g id="line2d_39">
      <g>
       <use xlink:href="#m56189ae8cd" x="541.955" y="648.733687" style="stroke: #000000; stroke-width: 0.8"/>
      </g>
     </g>
     <g id="text_40">
      <!-- 0.0 -->
      <g transform="translate(507.4744 655.298737) scale(0.1728 -0.1728)">
       <use xlink:href="#DejaVuSans-30"/>
       <use xlink:href="#DejaVuSans-2e" x="63.623047"/>
       <use xlink:href="#DejaVuSans-30" x="95.410156"/>
      </g>
     </g>
    </g>
    <g id="ytick_13">
     <g id="line2d_40">
      <g>
       <use xlink:href="#m56189ae8cd" x="541.955" y="594.545628" style="stroke: #000000; stroke-width: 0.8"/>
      </g>
     </g>
     <g id="text_41">
      <!-- 0.5 -->
      <g transform="translate(507.4744 601.110678) scale(0.1728 -0.1728)">
       <use xlink:href="#DejaVuSans-30"/>
       <use xlink:href="#DejaVuSans-2e" x="63.623047"/>
       <use xlink:href="#DejaVuSans-35" x="95.410156"/>
      </g>
     </g>
    </g>
    <g id="ytick_14">
     <g id="line2d_41">
      <g>
       <use xlink:href="#m56189ae8cd" x="541.955" y="540.35757" style="stroke: #000000; stroke-width: 0.8"/>
      </g>
     </g>
     <g id="text_42">
      <!-- 1.0 -->
      <g transform="translate(507.4744 546.92262) scale(0.1728 -0.1728)">
       <use xlink:href="#DejaVuSans-31"/>
       <use xlink:href="#DejaVuSans-2e" x="63.623047"/>
       <use xlink:href="#DejaVuSans-30" x="95.410156"/>
      </g>
     </g>
    </g>
    <g id="ytick_15">
     <g id="line2d_42">
      <g>
       <use xlink:href="#m56189ae8cd" x="541.955" y="486.169511" style="stroke: #000000; stroke-width: 0.8"/>
      </g>
     </g>
     <g id="text_43">
      <!-- 1.5 -->
      <g transform="translate(507.4744 492.734561) scale(0.1728 -0.1728)">
       <use xlink:href="#DejaVuSans-31"/>
       <use xlink:href="#DejaVuSans-2e" x="63.623047"/>
       <use xlink:href="#DejaVuSans-35" x="95.410156"/>
      </g>
     </g>
    </g>
    <g id="ytick_16">
     <g id="line2d_43">
      <g>
       <use xlink:href="#m56189ae8cd" x="541.955" y="431.981452" style="stroke: #000000; stroke-width: 0.8"/>
      </g>
     </g>
     <g id="text_44">
      <!-- 2.0 -->
      <g transform="translate(507.4744 438.546502) scale(0.1728 -0.1728)">
       <use xlink:href="#DejaVuSans-32"/>
       <use xlink:href="#DejaVuSans-2e" x="63.623047"/>
       <use xlink:href="#DejaVuSans-30" x="95.410156"/>
      </g>
     </g>
    </g>
    <g id="text_45">
     <!-- (avg. M=49) temperature in a.u. -->
     <g transform="translate(499.8807 664.85585) rotate(-90) scale(0.1728 -0.1728)">
      <use xlink:href="#DejaVuSans-28"/>
      <use xlink:href="#DejaVuSans-61" x="39.013672"/>
      <use xlink:href="#DejaVuSans-76" x="100.292969"/>
      <use xlink:href="#DejaVuSans-67" x="159.472656"/>
      <use xlink:href="#DejaVuSans-2e" x="222.949219"/>
      <use xlink:href="#DejaVuSans-20" x="254.736328"/>
      <use xlink:href="#DejaVuSans-4d" x="286.523438"/>
      <use xlink:href="#DejaVuSans-3d" x="372.802734"/>
      <use xlink:href="#DejaVuSans-34" x="456.591797"/>
      <use xlink:href="#DejaVuSans-39" x="520.214844"/>
      <use xlink:href="#DejaVuSans-29" x="583.837891"/>
      <use xlink:href="#DejaVuSans-20" x="622.851562"/>
      <use xlink:href="#DejaVuSans-74" x="654.638672"/>
      <use xlink:href="#DejaVuSans-65" x="693.847656"/>
      <use xlink:href="#DejaVuSans-6d" x="755.371094"/>
      <use xlink:href="#DejaVuSans-70" x="852.783203"/>
      <use xlink:href="#DejaVuSans-65" x="916.259766"/>
      <use xlink:href="#DejaVuSans-72" x="977.783203"/>
      <use xlink:href="#DejaVuSans-61" x="1018.896484"/>
      <use xlink:href="#DejaVuSans-74" x="1080.175781"/>
      <use xlink:href="#DejaVuSans-75" x="1119.384766"/>
      <use xlink:href="#DejaVuSans-72" x="1182.763672"/>
      <use xlink:href="#DejaVuSans-65" x="1221.626953"/>
      <use xlink:href="#DejaVuSans-20" x="1283.150391"/>
      <use xlink:href="#DejaVuSans-69" x="1314.9375"/>
      <use xlink:href="#DejaVuSans-6e" x="1342.720703"/>
      <use xlink:href="#DejaVuSans-20" x="1406.099609"/>
      <use xlink:href="#DejaVuSans-61" x="1437.886719"/>
      <use xlink:href="#DejaVuSans-2e" x="1499.166016"/>
      <use xlink:href="#DejaVuSans-75" x="1530.953125"/>
      <use xlink:href="#DejaVuSans-2e" x="1594.332031"/>
     </g>
    </g>
   </g>
   <g id="line2d_44">
    <path d="M 598.179566 433.580265 
L 599.327006 431.620027 
L 601.621886 431.581054 
L 605.064207 431.564219 
L 607.359087 431.823066 
L 609.653967 431.739465 
L 610.801407 431.649747 
L 614.243728 431.836997 
L 615.391168 431.910509 
L 618.833488 431.787009 
L 619.980928 431.932685 
L 624.570689 431.806512 
L 625.718129 431.588573 
L 628.013009 431.942265 
L 632.602769 432.021012 
L 633.75021 432.10949 
L 634.89765 431.906881 
L 638.33997 432.060553 
L 640.63485 432.141509 
L 642.929731 432.115392 
L 647.519491 431.997057 
L 649.814371 432.226494 
L 652.109251 432.01942 
L 654.404132 432.057254 
L 655.551572 431.89646 
L 657.846452 432.078522 
L 658.993892 432.16497 
L 660.141332 432.061871 
L 661.288772 432.094026 
L 663.583653 431.789968 
L 664.731093 431.897664 
L 672.763174 431.939803 
L 676.205494 432.072688 
L 678.500374 431.847912 
L 679.647814 431.801583 
L 680.795254 431.884972 
L 681.942695 432.148149 
L 683.090135 432.015766 
L 689.974775 432.013774 
L 691.122216 432.162046 
L 693.417096 431.866143 
L 694.564536 431.998807 
L 695.711976 432.015473 
L 696.859416 431.810459 
L 698.006856 431.961612 
L 700.301737 432.061599 
L 701.449177 431.873264 
L 704.891497 432.035419 
L 707.186377 431.983642 
L 708.333817 431.898036 
L 710.628698 432.011608 
L 711.776138 431.799709 
L 716.365898 432.119414 
L 719.808219 431.739997 
L 722.103099 431.976133 
L 726.692859 432.017415 
L 727.840299 431.910694 
L 730.13518 431.966386 
L 732.43006 431.89466 
L 733.5775 432.022662 
L 735.87238 431.8684 
L 737.01982 431.917307 
L 738.16726 432.078473 
L 742.757021 431.802868 
L 743.904461 431.969279 
L 745.051901 432.00004 
L 746.199341 431.844742 
L 748.494222 431.867686 
L 750.789102 431.846213 
L 754.231422 431.778652 
L 757.673743 431.912353 
L 763.410943 431.749857 
L 765.705823 431.88024 
L 770.295584 431.948879 
L 771.443024 431.828504 
L 772.590464 431.912075 
L 773.737904 431.842405 
L 776.032784 431.97734 
L 777.180225 431.930181 
L 779.475105 432.037521 
L 780.622545 431.957891 
L 781.769985 432.11211 
L 782.917425 431.968219 
L 785.212305 432.032455 
L 786.359746 432.046321 
L 788.654626 431.764869 
L 789.802066 432.066412 
L 790.949506 432.153628 
L 794.391826 431.888941 
L 795.539266 431.994485 
L 798.981587 431.848934 
L 801.276467 432.07965 
L 803.571347 431.895813 
L 804.718787 431.970889 
L 805.866228 432.168838 
L 807.013668 431.930749 
L 808.161108 431.88761 
L 810.455988 432.099001 
L 819.635509 432.069864 
L 823.077829 432.093453 
L 824.225269 432.100516 
L 825.37271 431.979202 
L 826.52015 432.066526 
L 828.81503 431.995764 
L 829.96247 432.157053 
L 832.25735 432.118024 
L 834.552231 431.911209 
L 836.847111 432.015033 
L 840.289431 432.119696 
L 843.731751 431.948889 
L 844.879192 432.059683 
L 846.026632 431.99141 
L 847.174072 432.107421 
L 849.468952 431.973457 
L 850.616392 431.881745 
L 856.353593 431.96822 
L 858.648473 431.966903 
L 860.943353 431.995841 
L 862.090793 431.903628 
L 867.827994 431.973021 
L 867.827994 431.973021 
" clip-path="url(#p1a1959a0d1)" style="fill: none; stroke: #1f77b4; stroke-width: 1.5; stroke-linecap: square"/>
   </g>
   <g id="line2d_45">
    <path d="M 675.058054 663.64 
L 675.058054 385.08 
" clip-path="url(#p1a1959a0d1)" style="fill: none; stroke-dasharray: 5.55,2.4; stroke-dashoffset: 0; stroke: #808080; stroke-width: 1.5"/>
   </g>
   <g id="line2d_46">
    <path d="M 541.955 431.944054 
L 925.2 431.944054 
" clip-path="url(#p1a1959a0d1)" style="fill: none; stroke: #ff0000; stroke-opacity: 0.3; stroke-width: 1.5; stroke-linecap: square"/>
   </g>
   <g id="patch_16">
    <path d="M 541.955 663.64 
L 541.955 385.08 
" style="fill: none; stroke: #000000; stroke-width: 0.8; stroke-linejoin: miter; stroke-linecap: square"/>
   </g>
   <g id="patch_17">
    <path d="M 925.2 663.64 
L 925.2 385.08 
" style="fill: none; stroke: #000000; stroke-width: 0.8; stroke-linejoin: miter; stroke-linecap: square"/>
   </g>
   <g id="patch_18">
    <path d="M 541.955 663.64 
L 925.2 663.64 
" style="fill: none; stroke: #000000; stroke-width: 0.8; stroke-linejoin: miter; stroke-linecap: square"/>
   </g>
   <g id="patch_19">
    <path d="M 541.955 385.08 
L 925.2 385.08 
" style="fill: none; stroke: #000000; stroke-width: 0.8; stroke-linejoin: miter; stroke-linecap: square"/>
   </g>
   <g id="text_46">
    <!-- Temperature -->
    <g transform="translate(678.85255 379.08) scale(0.1728 -0.1728)">
     <defs>
      <path id="DejaVuSans-54" d="M -19 4666 
L 3928 4666 
L 3928 4134 
L 2272 4134 
L 2272 0 
L 1638 0 
L 1638 4134 
L -19 4134 
L -19 4666 
z
" transform="scale(0.015625)"/>
     </defs>
     <use xlink:href="#DejaVuSans-54"/>
     <use xlink:href="#DejaVuSans-65" x="44.083984"/>
     <use xlink:href="#DejaVuSans-6d" x="105.607422"/>
     <use xlink:href="#DejaVuSans-70" x="203.019531"/>
     <use xlink:href="#DejaVuSans-65" x="266.496094"/>
     <use xlink:href="#DejaVuSans-72" x="328.019531"/>
     <use xlink:href="#DejaVuSans-61" x="369.132812"/>
     <use xlink:href="#DejaVuSans-74" x="430.412109"/>
     <use xlink:href="#DejaVuSans-75" x="469.621094"/>
     <use xlink:href="#DejaVuSans-72" x="533"/>
     <use xlink:href="#DejaVuSans-65" x="571.863281"/>
    </g>
   </g>
  </g>
 </g>
 <defs>
  <clipPath id="p6d093cd47f">
   <rect x="92.09" y="30.48" width="833.11" height="278.56"/>
  </clipPath>
  <clipPath id="p42851d24f8">
   <rect x="92.09" y="385.08" width="383.245" height="278.56"/>
  </clipPath>
  <clipPath id="p1a1959a0d1">
   <rect x="541.955" y="385.08" width="383.245" height="278.56"/>
  </clipPath>
 </defs>
</svg>
