<?xml version="1.0" encoding="utf-8" standalone="no"?>
<!DOCTYPE svg PUBLIC "-//W3C//DTD SVG 1.1//EN"
  "http://www.w3.org/Graphics/SVG/1.1/DTD/svg11.dtd">
<svg xmlns:xlink="http://www.w3.org/1999/xlink" width="936pt" height="720pt" viewBox="0 0 936 720" xmlns="http://www.w3.org/2000/svg" version="1.1">
 <metadata>
  <rdf:RDF xmlns:dc="http://purl.org/dc/elements/1.1/" xmlns:cc="http://creativecommons.org/ns#" xmlns:rdf="http://www.w3.org/1999/02/22-rdf-syntax-ns#">
   <cc:Work>
    <dc:type rdf:resource="http://purl.org/dc/dcmitype/StillImage"/>
    <dc:date>2024-12-09T03:46:05.735176</dc:date>
    <dc:format>image/svg+xml</dc:format>
    <dc:creator>
     <cc:Agent>
      <dc:title>Matplotlib v3.8.0, https://matplotlib.org/</dc:title>
     </cc:Agent>
    </dc:creator>
   </cc:Work>
  </rdf:RDF>
 </metadata>
 <defs>
  <style type="text/css">*{stroke-linejoin: round; stroke-linecap: butt}</style>
 </defs>
 <g id="figure_1">
  <g id="patch_1">
   <path d="M 0 720 
L 936 720 
L 936 0 
L 0 0 
z
" style="fill: #ffffff"/>
  </g>
  <g id="axes_1">
   <g id="patch_2">
    <path d="M 92.09 309.04 
L 925.2 309.04 
L 925.2 30.48 
L 92.09 30.48 
z
" style="fill: #ffffff"/>
   </g>
   <g id="patch_3">
    <path d="M 92.09 309.04 
L 92.09 30.48 
L 381.433593 30.48 
L 381.433593 309.04 
z
" clip-path="url(#p99efb69e2d)" style="fill: #808080; opacity: 0.15"/>
   </g>
   <g id="matplotlib.axis_1">
    <g id="xtick_1">
     <g id="line2d_1">
      <defs>
       <path id="me6067748b7" d="M 0 0 
L 0 3.5 
" style="stroke: #000000; stroke-width: 0.8"/>
      </defs>
      <g>
       <use xlink:href="#me6067748b7" x="92.09" y="309.04" style="stroke: #000000; stroke-width: 0.8"/>
      </g>
     </g>
     <g id="text_1">
      <!-- 0.0 -->
      <g transform="translate(78.3497 329.1701) scale(0.1728 -0.1728)">
       <defs>
        <path id="DejaVuSans-30" d="M 2034 4250 
Q 1547 4250 1301 3770 
Q 1056 3291 1056 2328 
Q 1056 1369 1301 889 
Q 1547 409 2034 409 
Q 2525 409 2770 889 
Q 3016 1369 3016 2328 
Q 3016 3291 2770 3770 
Q 2525 4250 2034 4250 
z
M 2034 4750 
Q 2819 4750 3233 4129 
Q 3647 3509 3647 2328 
Q 3647 1150 3233 529 
Q 2819 -91 2034 -91 
Q 1250 -91 836 529 
Q 422 1150 422 2328 
Q 422 3509 836 4129 
Q 1250 4750 2034 4750 
z
" transform="scale(0.015625)"/>
        <path id="DejaVuSans-2e" d="M 684 794 
L 1344 794 
L 1344 0 
L 684 0 
L 684 794 
z
" transform="scale(0.015625)"/>
       </defs>
       <use xlink:href="#DejaVuSans-30"/>
       <use xlink:href="#DejaVuSans-2e" x="63.623047"/>
       <use xlink:href="#DejaVuSans-30" x="95.410156"/>
      </g>
     </g>
    </g>
    <g id="xtick_2">
     <g id="line2d_2">
      <g>
       <use xlink:href="#me6067748b7" x="216.807066" y="309.04" style="stroke: #000000; stroke-width: 0.8"/>
      </g>
     </g>
     <g id="text_2">
      <!-- 0.5 -->
      <g transform="translate(203.066766 329.1701) scale(0.1728 -0.1728)">
       <defs>
        <path id="DejaVuSans-35" d="M 691 4666 
L 3169 4666 
L 3169 4134 
L 1269 4134 
L 1269 2991 
Q 1406 3038 1543 3061 
Q 1681 3084 1819 3084 
Q 2600 3084 3056 2656 
Q 3513 2228 3513 1497 
Q 3513 744 3044 326 
Q 2575 -91 1722 -91 
Q 1428 -91 1123 -41 
Q 819 9 494 109 
L 494 744 
Q 775 591 1075 516 
Q 1375 441 1709 441 
Q 2250 441 2565 725 
Q 2881 1009 2881 1497 
Q 2881 1984 2565 2268 
Q 2250 2553 1709 2553 
Q 1456 2553 1204 2497 
Q 953 2441 691 2322 
L 691 4666 
z
" transform="scale(0.015625)"/>
       </defs>
       <use xlink:href="#DejaVuSans-30"/>
       <use xlink:href="#DejaVuSans-2e" x="63.623047"/>
       <use xlink:href="#DejaVuSans-35" x="95.410156"/>
      </g>
     </g>
    </g>
    <g id="xtick_3">
     <g id="line2d_3">
      <g>
       <use xlink:href="#me6067748b7" x="341.524132" y="309.04" style="stroke: #000000; stroke-width: 0.8"/>
      </g>
     </g>
     <g id="text_3">
      <!-- 1.0 -->
      <g transform="translate(327.783832 329.1701) scale(0.1728 -0.1728)">
       <defs>
        <path id="DejaVuSans-31" d="M 794 531 
L 1825 531 
L 1825 4091 
L 703 3866 
L 703 4441 
L 1819 4666 
L 2450 4666 
L 2450 531 
L 3481 531 
L 3481 0 
L 794 0 
L 794 531 
z
" transform="scale(0.015625)"/>
       </defs>
       <use xlink:href="#DejaVuSans-31"/>
       <use xlink:href="#DejaVuSans-2e" x="63.623047"/>
       <use xlink:href="#DejaVuSans-30" x="95.410156"/>
      </g>
     </g>
    </g>
    <g id="xtick_4">
     <g id="line2d_4">
      <g>
       <use xlink:href="#me6067748b7" x="466.241198" y="309.04" style="stroke: #000000; stroke-width: 0.8"/>
      </g>
     </g>
     <g id="text_4">
      <!-- 1.5 -->
      <g transform="translate(452.500898 329.1701) scale(0.1728 -0.1728)">
       <use xlink:href="#DejaVuSans-31"/>
       <use xlink:href="#DejaVuSans-2e" x="63.623047"/>
       <use xlink:href="#DejaVuSans-35" x="95.410156"/>
      </g>
     </g>
    </g>
    <g id="xtick_5">
     <g id="line2d_5">
      <g>
       <use xlink:href="#me6067748b7" x="590.958263" y="309.04" style="stroke: #000000; stroke-width: 0.8"/>
      </g>
     </g>
     <g id="text_5">
      <!-- 2.0 -->
      <g transform="translate(577.217963 329.1701) scale(0.1728 -0.1728)">
       <defs>
        <path id="DejaVuSans-32" d="M 1228 531 
L 3431 531 
L 3431 0 
L 469 0 
L 469 531 
Q 828 903 1448 1529 
Q 2069 2156 2228 2338 
Q 2531 2678 2651 2914 
Q 2772 3150 2772 3378 
Q 2772 3750 2511 3984 
Q 2250 4219 1831 4219 
Q 1534 4219 1204 4116 
Q 875 4013 500 3803 
L 500 4441 
Q 881 4594 1212 4672 
Q 1544 4750 1819 4750 
Q 2544 4750 2975 4387 
Q 3406 4025 3406 3419 
Q 3406 3131 3298 2873 
Q 3191 2616 2906 2266 
Q 2828 2175 2409 1742 
Q 1991 1309 1228 531 
z
" transform="scale(0.015625)"/>
       </defs>
       <use xlink:href="#DejaVuSans-32"/>
       <use xlink:href="#DejaVuSans-2e" x="63.623047"/>
       <use xlink:href="#DejaVuSans-30" x="95.410156"/>
      </g>
     </g>
    </g>
    <g id="xtick_6">
     <g id="line2d_6">
      <g>
       <use xlink:href="#me6067748b7" x="715.675329" y="309.04" style="stroke: #000000; stroke-width: 0.8"/>
      </g>
     </g>
     <g id="text_6">
      <!-- 2.5 -->
      <g transform="translate(701.935029 329.1701) scale(0.1728 -0.1728)">
       <use xlink:href="#DejaVuSans-32"/>
       <use xlink:href="#DejaVuSans-2e" x="63.623047"/>
       <use xlink:href="#DejaVuSans-35" x="95.410156"/>
      </g>
     </g>
    </g>
    <g id="xtick_7">
     <g id="line2d_7">
      <g>
       <use xlink:href="#me6067748b7" x="840.392395" y="309.04" style="stroke: #000000; stroke-width: 0.8"/>
      </g>
     </g>
     <g id="text_7">
      <!-- 3.0 -->
      <g transform="translate(826.652095 329.1701) scale(0.1728 -0.1728)">
       <defs>
        <path id="DejaVuSans-33" d="M 2597 2516 
Q 3050 2419 3304 2112 
Q 3559 1806 3559 1356 
Q 3559 666 3084 287 
Q 2609 -91 1734 -91 
Q 1441 -91 1130 -33 
Q 819 25 488 141 
L 488 750 
Q 750 597 1062 519 
Q 1375 441 1716 441 
Q 2309 441 2620 675 
Q 2931 909 2931 1356 
Q 2931 1769 2642 2001 
Q 2353 2234 1838 2234 
L 1294 2234 
L 1294 2753 
L 1863 2753 
Q 2328 2753 2575 2939 
Q 2822 3125 2822 3475 
Q 2822 3834 2567 4026 
Q 2313 4219 1838 4219 
Q 1578 4219 1281 4162 
Q 984 4106 628 3988 
L 628 4550 
Q 988 4650 1302 4700 
Q 1616 4750 1894 4750 
Q 2613 4750 3031 4423 
Q 3450 4097 3450 3541 
Q 3450 3153 3228 2886 
Q 3006 2619 2597 2516 
z
" transform="scale(0.015625)"/>
       </defs>
       <use xlink:href="#DejaVuSans-33"/>
       <use xlink:href="#DejaVuSans-2e" x="63.623047"/>
       <use xlink:href="#DejaVuSans-30" x="95.410156"/>
      </g>
     </g>
    </g>
    <g id="text_8">
     <!-- time in a.u. -->
     <g transform="translate(459.49555 349.8939) scale(0.1728 -0.1728)">
      <defs>
       <path id="DejaVuSans-74" d="M 1172 4494 
L 1172 3500 
L 2356 3500 
L 2356 3053 
L 1172 3053 
L 1172 1153 
Q 1172 725 1289 603 
Q 1406 481 1766 481 
L 2356 481 
L 2356 0 
L 1766 0 
Q 1100 0 847 248 
Q 594 497 594 1153 
L 594 3053 
L 172 3053 
L 172 3500 
L 594 3500 
L 594 4494 
L 1172 4494 
z
" transform="scale(0.015625)"/>
       <path id="DejaVuSans-69" d="M 603 3500 
L 1178 3500 
L 1178 0 
L 603 0 
L 603 3500 
z
M 603 4863 
L 1178 4863 
L 1178 4134 
L 603 4134 
L 603 4863 
z
" transform="scale(0.015625)"/>
       <path id="DejaVuSans-6d" d="M 3328 2828 
Q 3544 3216 3844 3400 
Q 4144 3584 4550 3584 
Q 5097 3584 5394 3201 
Q 5691 2819 5691 2113 
L 5691 0 
L 5113 0 
L 5113 2094 
Q 5113 2597 4934 2840 
Q 4756 3084 4391 3084 
Q 3944 3084 3684 2787 
Q 3425 2491 3425 1978 
L 3425 0 
L 2847 0 
L 2847 2094 
Q 2847 2600 2669 2842 
Q 2491 3084 2119 3084 
Q 1678 3084 1418 2786 
Q 1159 2488 1159 1978 
L 1159 0 
L 581 0 
L 581 3500 
L 1159 3500 
L 1159 2956 
Q 1356 3278 1631 3431 
Q 1906 3584 2284 3584 
Q 2666 3584 2933 3390 
Q 3200 3197 3328 2828 
z
" transform="scale(0.015625)"/>
       <path id="DejaVuSans-65" d="M 3597 1894 
L 3597 1613 
L 953 1613 
Q 991 1019 1311 708 
Q 1631 397 2203 397 
Q 2534 397 2845 478 
Q 3156 559 3463 722 
L 3463 178 
Q 3153 47 2828 -22 
Q 2503 -91 2169 -91 
Q 1331 -91 842 396 
Q 353 884 353 1716 
Q 353 2575 817 3079 
Q 1281 3584 2069 3584 
Q 2775 3584 3186 3129 
Q 3597 2675 3597 1894 
z
M 3022 2063 
Q 3016 2534 2758 2815 
Q 2500 3097 2075 3097 
Q 1594 3097 1305 2825 
Q 1016 2553 972 2059 
L 3022 2063 
z
" transform="scale(0.015625)"/>
       <path id="DejaVuSans-20" transform="scale(0.015625)"/>
       <path id="DejaVuSans-6e" d="M 3513 2113 
L 3513 0 
L 2938 0 
L 2938 2094 
Q 2938 2591 2744 2837 
Q 2550 3084 2163 3084 
Q 1697 3084 1428 2787 
Q 1159 2491 1159 1978 
L 1159 0 
L 581 0 
L 581 3500 
L 1159 3500 
L 1159 2956 
Q 1366 3272 1645 3428 
Q 1925 3584 2291 3584 
Q 2894 3584 3203 3211 
Q 3513 2838 3513 2113 
z
" transform="scale(0.015625)"/>
       <path id="DejaVuSans-61" d="M 2194 1759 
Q 1497 1759 1228 1600 
Q 959 1441 959 1056 
Q 959 750 1161 570 
Q 1363 391 1709 391 
Q 2188 391 2477 730 
Q 2766 1069 2766 1631 
L 2766 1759 
L 2194 1759 
z
M 3341 1997 
L 3341 0 
L 2766 0 
L 2766 531 
Q 2569 213 2275 61 
Q 1981 -91 1556 -91 
Q 1019 -91 701 211 
Q 384 513 384 1019 
Q 384 1609 779 1909 
Q 1175 2209 1959 2209 
L 2766 2209 
L 2766 2266 
Q 2766 2663 2505 2880 
Q 2244 3097 1772 3097 
Q 1472 3097 1187 3025 
Q 903 2953 641 2809 
L 641 3341 
Q 956 3463 1253 3523 
Q 1550 3584 1831 3584 
Q 2591 3584 2966 3190 
Q 3341 2797 3341 1997 
z
" transform="scale(0.015625)"/>
       <path id="DejaVuSans-75" d="M 544 1381 
L 544 3500 
L 1119 3500 
L 1119 1403 
Q 1119 906 1312 657 
Q 1506 409 1894 409 
Q 2359 409 2629 706 
Q 2900 1003 2900 1516 
L 2900 3500 
L 3475 3500 
L 3475 0 
L 2900 0 
L 2900 538 
Q 2691 219 2414 64 
Q 2138 -91 1772 -91 
Q 1169 -91 856 284 
Q 544 659 544 1381 
z
M 1991 3584 
L 1991 3584 
z
" transform="scale(0.015625)"/>
      </defs>
      <use xlink:href="#DejaVuSans-74"/>
      <use xlink:href="#DejaVuSans-69" x="39.208984"/>
      <use xlink:href="#DejaVuSans-6d" x="66.992188"/>
      <use xlink:href="#DejaVuSans-65" x="164.404297"/>
      <use xlink:href="#DejaVuSans-20" x="225.927734"/>
      <use xlink:href="#DejaVuSans-69" x="257.714844"/>
      <use xlink:href="#DejaVuSans-6e" x="285.498047"/>
      <use xlink:href="#DejaVuSans-20" x="348.876953"/>
      <use xlink:href="#DejaVuSans-61" x="380.664062"/>
      <use xlink:href="#DejaVuSans-2e" x="441.943359"/>
      <use xlink:href="#DejaVuSans-75" x="473.730469"/>
      <use xlink:href="#DejaVuSans-2e" x="537.109375"/>
     </g>
    </g>
   </g>
   <g id="matplotlib.axis_2">
    <g id="ytick_1">
     <g id="line2d_8">
      <defs>
       <path id="m241396c92b" d="M 0 0 
L -3.5 0 
" style="stroke: #000000; stroke-width: 0.8"/>
      </defs>
      <g>
       <use xlink:href="#m241396c92b" x="92.09" y="269.501986" style="stroke: #000000; stroke-width: 0.8"/>
      </g>
     </g>
     <g id="text_9">
      <!-- 0 -->
      <g transform="translate(74.0956 276.067036) scale(0.1728 -0.1728)">
       <use xlink:href="#DejaVuSans-30"/>
      </g>
     </g>
    </g>
    <g id="ytick_2">
     <g id="line2d_9">
      <g>
       <use xlink:href="#m241396c92b" x="92.09" y="209.153487" style="stroke: #000000; stroke-width: 0.8"/>
      </g>
     </g>
     <g id="text_10">
      <!-- 50 -->
      <g transform="translate(63.1012 215.718537) scale(0.1728 -0.1728)">
       <use xlink:href="#DejaVuSans-35"/>
       <use xlink:href="#DejaVuSans-30" x="63.623047"/>
      </g>
     </g>
    </g>
    <g id="ytick_3">
     <g id="line2d_10">
      <g>
       <use xlink:href="#m241396c92b" x="92.09" y="148.804988" style="stroke: #000000; stroke-width: 0.8"/>
      </g>
     </g>
     <g id="text_11">
      <!-- 100 -->
      <g transform="translate(52.1068 155.370038) scale(0.1728 -0.1728)">
       <use xlink:href="#DejaVuSans-31"/>
       <use xlink:href="#DejaVuSans-30" x="63.623047"/>
       <use xlink:href="#DejaVuSans-30" x="127.246094"/>
      </g>
     </g>
    </g>
    <g id="ytick_4">
     <g id="line2d_11">
      <g>
       <use xlink:href="#m241396c92b" x="92.09" y="88.456489" style="stroke: #000000; stroke-width: 0.8"/>
      </g>
     </g>
     <g id="text_12">
      <!-- 150 -->
      <g transform="translate(52.1068 95.021539) scale(0.1728 -0.1728)">
       <use xlink:href="#DejaVuSans-31"/>
       <use xlink:href="#DejaVuSans-35" x="63.623047"/>
       <use xlink:href="#DejaVuSans-30" x="127.246094"/>
      </g>
     </g>
    </g>
    <g id="text_13">
     <!-- energy in a.u. -->
     <g transform="translate(44.5131 229.4975) rotate(-90) scale(0.1728 -0.1728)">
      <defs>
       <path id="DejaVuSans-72" d="M 2631 2963 
Q 2534 3019 2420 3045 
Q 2306 3072 2169 3072 
Q 1681 3072 1420 2755 
Q 1159 2438 1159 1844 
L 1159 0 
L 581 0 
L 581 3500 
L 1159 3500 
L 1159 2956 
Q 1341 3275 1631 3429 
Q 1922 3584 2338 3584 
Q 2397 3584 2469 3576 
Q 2541 3569 2628 3553 
L 2631 2963 
z
" transform="scale(0.015625)"/>
       <path id="DejaVuSans-67" d="M 2906 1791 
Q 2906 2416 2648 2759 
Q 2391 3103 1925 3103 
Q 1463 3103 1205 2759 
Q 947 2416 947 1791 
Q 947 1169 1205 825 
Q 1463 481 1925 481 
Q 2391 481 2648 825 
Q 2906 1169 2906 1791 
z
M 3481 434 
Q 3481 -459 3084 -895 
Q 2688 -1331 1869 -1331 
Q 1566 -1331 1297 -1286 
Q 1028 -1241 775 -1147 
L 775 -588 
Q 1028 -725 1275 -790 
Q 1522 -856 1778 -856 
Q 2344 -856 2625 -561 
Q 2906 -266 2906 331 
L 2906 616 
Q 2728 306 2450 153 
Q 2172 0 1784 0 
Q 1141 0 747 490 
Q 353 981 353 1791 
Q 353 2603 747 3093 
Q 1141 3584 1784 3584 
Q 2172 3584 2450 3431 
Q 2728 3278 2906 2969 
L 2906 3500 
L 3481 3500 
L 3481 434 
z
" transform="scale(0.015625)"/>
       <path id="DejaVuSans-79" d="M 2059 -325 
Q 1816 -950 1584 -1140 
Q 1353 -1331 966 -1331 
L 506 -1331 
L 506 -850 
L 844 -850 
Q 1081 -850 1212 -737 
Q 1344 -625 1503 -206 
L 1606 56 
L 191 3500 
L 800 3500 
L 1894 763 
L 2988 3500 
L 3597 3500 
L 2059 -325 
z
" transform="scale(0.015625)"/>
      </defs>
      <use xlink:href="#DejaVuSans-65"/>
      <use xlink:href="#DejaVuSans-6e" x="61.523438"/>
      <use xlink:href="#DejaVuSans-65" x="124.902344"/>
      <use xlink:href="#DejaVuSans-72" x="186.425781"/>
      <use xlink:href="#DejaVuSans-67" x="225.789062"/>
      <use xlink:href="#DejaVuSans-79" x="289.265625"/>
      <use xlink:href="#DejaVuSans-20" x="348.445312"/>
      <use xlink:href="#DejaVuSans-69" x="380.232422"/>
      <use xlink:href="#DejaVuSans-6e" x="408.015625"/>
      <use xlink:href="#DejaVuSans-20" x="471.394531"/>
      <use xlink:href="#DejaVuSans-61" x="503.181641"/>
      <use xlink:href="#DejaVuSans-2e" x="564.460938"/>
      <use xlink:href="#DejaVuSans-75" x="596.248047"/>
      <use xlink:href="#DejaVuSans-2e" x="659.626953"/>
     </g>
    </g>
   </g>
   <g id="line2d_12">
    <path d="M 92.09 285.826667 
L 94.584341 53.693333 
L 97.078683 54.454757 
L 99.573024 56.298136 
L 102.067365 59.372373 
L 104.561707 63.859724 
L 107.056048 69.243094 
L 109.550389 71.707414 
L 112.044731 71.801833 
L 114.539072 77.933386 
L 117.033413 79.691244 
L 119.527754 77.272764 
L 122.022096 73.744207 
L 124.516437 80.377426 
L 127.010778 91.226483 
L 129.50512 97.001929 
L 131.999461 100.519283 
L 136.988144 81.296931 
L 139.482485 95.305548 
L 141.976826 99.995231 
L 144.471168 93.793955 
L 149.45985 80.8226 
L 151.954192 67.81548 
L 154.448533 87.460258 
L 156.942874 99.288601 
L 159.437216 97.257288 
L 161.931557 96.506857 
L 164.425898 100.331836 
L 166.92024 103.002005 
L 169.414581 96.295625 
L 171.908922 83.767676 
L 174.403263 91.516399 
L 179.391946 94.910339 
L 181.886287 102.216526 
L 184.380629 106.524491 
L 186.87497 109.647721 
L 189.369311 105.191096 
L 191.863653 103.261187 
L 194.357994 101.061425 
L 196.852335 94.441978 
L 199.346677 97.859062 
L 201.841018 104.487842 
L 204.335359 105.235538 
L 206.829701 100.584839 
L 209.324042 102.41725 
L 211.818383 110.316091 
L 214.312725 110.776694 
L 216.807066 96.161964 
L 219.301407 100.851824 
L 221.795749 102.309069 
L 224.29009 100.999412 
L 226.784431 108.694923 
L 229.278772 112.104535 
L 231.773114 104.629611 
L 234.267455 87.919097 
L 236.761796 94.237849 
L 239.256138 91.125084 
L 241.750479 91.404122 
L 244.24482 96.914393 
L 246.739162 87.499315 
L 249.233503 90.66116 
L 251.727844 92.057286 
L 254.222186 102.409211 
L 256.716527 106.397193 
L 259.210868 101.684144 
L 261.70521 92.114985 
L 264.199551 101.407932 
L 266.693892 97.894432 
L 269.188234 87.182585 
L 271.682575 96.486185 
L 274.176916 113.141787 
L 276.671257 110.770089 
L 279.165599 105.191792 
L 281.65994 99.971467 
L 284.154281 96.491495 
L 286.648623 97.913753 
L 289.142964 97.846173 
L 291.637305 101.829532 
L 294.131647 95.729445 
L 296.625988 93.173523 
L 299.120329 98.932943 
L 301.614671 103.770469 
L 304.109012 104.429874 
L 306.603353 89.033855 
L 309.097695 102.17279 
L 311.592036 103.002424 
L 314.086377 105.09995 
L 316.580719 91.744761 
L 321.569401 110.2396 
L 324.063743 115.041565 
L 326.558084 113.577612 
L 329.052425 109.698939 
L 331.546766 106.435437 
L 334.041108 111.138741 
L 336.535449 111.300705 
L 339.02979 93.282931 
L 341.524132 91.220648 
L 344.018473 100.162922 
L 346.512814 107.431923 
L 349.007156 115.993244 
L 351.501497 115.110139 
L 353.995838 101.221536 
L 356.49018 88.875899 
L 358.984521 95.061634 
L 361.478862 106.125692 
L 363.973204 113.416299 
L 366.467545 106.90024 
L 368.961886 111.771489 
L 371.456228 106.92063 
L 373.950569 104.700995 
L 376.44491 114.319073 
L 381.433593 102.324749 
L 383.927934 100.612965 
L 386.422275 107.838435 
L 388.916617 109.276046 
L 391.410958 99.64006 
L 393.905299 100.191223 
L 396.399641 110.527742 
L 398.893982 107.446348 
L 401.388323 103.873765 
L 403.882665 100.665503 
L 406.377006 92.385872 
L 408.871347 102.106579 
L 411.365689 98.245985 
L 413.86003 82.42029 
L 416.354371 91.761252 
L 418.848713 97.300073 
L 421.343054 92.028486 
L 423.837395 86.423792 
L 426.331737 84.750354 
L 428.826078 88.918099 
L 431.320419 89.334309 
L 433.81476 90.31297 
L 436.309102 91.688478 
L 438.803443 97.842125 
L 441.297784 96.985301 
L 443.792126 96.290343 
L 446.286467 85.933535 
L 448.780808 78.503915 
L 453.769491 98.193065 
L 456.263832 102.454288 
L 458.758174 102.56908 
L 461.252515 105.364377 
L 463.746856 96.228555 
L 466.241198 91.222672 
L 468.735539 81.240623 
L 471.22988 99.702198 
L 473.724222 99.648898 
L 476.218563 107.092326 
L 478.712904 108.57169 
L 481.207246 103.217015 
L 483.701587 100.996539 
L 486.195928 96.783854 
L 488.690269 98.84894 
L 491.184611 106.518532 
L 493.678952 105.687086 
L 496.173293 108.046315 
L 498.667635 107.019556 
L 501.161976 106.430855 
L 503.656317 95.719269 
L 506.150659 82.227532 
L 508.645 108.465493 
L 511.139341 112.463313 
L 513.633683 106.932299 
L 516.128024 106.522223 
L 518.622365 95.195754 
L 521.116707 106.832112 
L 523.611048 103.468539 
L 526.105389 102.005397 
L 528.599731 96.539145 
L 531.094072 105.574707 
L 533.588413 110.682319 
L 536.082754 98.234138 
L 538.577096 76.192792 
L 541.071437 91.570047 
L 543.565778 111.336542 
L 546.06012 101.706769 
L 548.554461 101.306545 
L 551.048802 107.252402 
L 553.543144 104.449681 
L 556.037485 103.533839 
L 558.531826 96.706565 
L 561.026168 103.449438 
L 563.520509 104.60999 
L 566.01485 106.530815 
L 568.509192 109.096285 
L 571.003533 106.467707 
L 573.497874 109.661197 
L 575.992216 115.399836 
L 578.486557 109.634081 
L 580.980898 108.414241 
L 583.47524 112.912326 
L 585.969581 103.112538 
L 588.463922 103.681019 
L 590.958263 99.625292 
L 593.452605 100.902286 
L 595.946946 111.481716 
L 598.441287 116.6334 
L 600.935629 115.425052 
L 603.42997 107.925302 
L 605.924311 106.696567 
L 608.418653 112.588149 
L 610.912994 107.835086 
L 613.407335 108.263561 
L 615.901677 103.125737 
L 618.396018 112.351828 
L 620.890359 115.697085 
L 623.384701 109.795691 
L 625.879042 108.006552 
L 628.373383 109.808751 
L 630.867725 103.414357 
L 633.362066 114.305482 
L 635.856407 112.053396 
L 638.350749 107.201105 
L 640.84509 99.983184 
L 643.339431 101.892084 
L 645.833772 108.369857 
L 648.328114 108.772274 
L 650.822455 111.825867 
L 653.316796 103.201922 
L 655.811138 96.75383 
L 658.305479 97.334073 
L 660.79982 100.231323 
L 663.294162 109.707971 
L 665.788503 100.089292 
L 668.282844 101.049925 
L 670.777186 105.962006 
L 673.271527 110.431406 
L 675.765868 111.286863 
L 678.26021 103.842876 
L 680.754551 107.682782 
L 683.248892 105.482377 
L 685.743234 108.493898 
L 688.237575 108.604002 
L 690.731916 107.454488 
L 693.226257 104.060179 
L 695.720599 113.414653 
L 698.21494 113.614415 
L 700.709281 113.56342 
L 703.203623 110.656216 
L 705.697964 104.616129 
L 708.192305 91.342648 
L 710.686647 95.208576 
L 713.180988 97.640776 
L 715.675329 107.440179 
L 718.169671 114.772862 
L 720.664012 113.191564 
L 723.158353 109.22426 
L 725.652695 108.797345 
L 728.147036 95.115114 
L 730.641377 90.980652 
L 733.135719 100.990178 
L 735.63006 92.562916 
L 738.124401 107.036241 
L 740.618743 102.143062 
L 743.113084 101.467902 
L 745.607425 99.201613 
L 748.101766 99.982573 
L 750.596108 105.668091 
L 753.090449 99.200559 
L 755.58479 93.603212 
L 758.079132 96.495423 
L 760.573473 106.91706 
L 763.067814 105.028771 
L 765.562156 105.444391 
L 768.056497 106.454588 
L 770.550838 109.55174 
L 773.04518 111.019135 
L 778.033862 99.999018 
L 780.528204 100.216287 
L 783.022545 85.450277 
L 785.516886 92.43397 
L 788.011228 91.269822 
L 790.505569 107.329036 
L 792.99991 111.44871 
L 795.494251 102.269358 
L 797.988593 91.533705 
L 800.482934 92.421682 
L 802.977275 97.472076 
L 805.471617 99.226642 
L 807.965958 101.575044 
L 810.460299 105.455238 
L 812.954641 104.190059 
L 815.448982 99.648189 
L 817.943323 99.954063 
L 820.437665 101.744943 
L 822.932006 102.952155 
L 825.426347 95.811488 
L 827.920689 100.259164 
L 830.41503 103.205364 
L 832.909371 94.40627 
L 835.403713 95.926939 
L 837.898054 99.204133 
L 840.392395 92.339209 
L 842.886737 95.121359 
L 847.875419 105.56197 
L 850.36976 114.310588 
L 852.864102 110.323118 
L 855.358443 103.962863 
L 857.852784 100.881387 
L 860.347126 100.349883 
L 862.841467 97.330941 
L 865.335808 108.588733 
L 867.83015 112.355623 
L 870.324491 111.366344 
L 872.818832 101.683501 
L 875.313174 102.177333 
L 877.807515 100.588797 
L 880.301856 101.55729 
L 882.796198 108.026325 
L 885.290539 110.876865 
L 887.78488 109.21378 
L 890.279222 102.614572 
L 892.773563 101.693539 
L 895.267904 103.536884 
L 897.762246 104.684643 
L 900.256587 101.517431 
L 902.750928 98.821078 
L 905.245269 95.488368 
L 907.739611 108.511584 
L 910.233952 108.561661 
L 912.728293 106.307633 
L 915.222635 107.222828 
L 917.716976 115.066765 
L 920.211317 112.909526 
L 922.705659 104.917018 
L 922.705659 104.917018 
" clip-path="url(#p99efb69e2d)" style="fill: none; stroke: #1f77b4; stroke-width: 1.5; stroke-linecap: square"/>
   </g>
   <g id="line2d_13">
    <path d="M 381.433593 309.04 
L 381.433593 30.48 
" clip-path="url(#p99efb69e2d)" style="fill: none; stroke-dasharray: 5.55,2.4; stroke-dashoffset: 0; stroke: #808080; stroke-width: 1.5"/>
   </g>
   <g id="line2d_14">
    <path d="M 92.09 102.641955 
L 925.2 102.641955 
" clip-path="url(#p99efb69e2d)" style="fill: none; stroke: #ff0000; stroke-opacity: 0.3; stroke-width: 1.5; stroke-linecap: square"/>
   </g>
   <g id="patch_4">
    <path d="M 92.09 309.04 
L 92.09 30.48 
" style="fill: none; stroke: #000000; stroke-width: 0.8; stroke-linejoin: miter; stroke-linecap: square"/>
   </g>
   <g id="patch_5">
    <path d="M 925.2 309.04 
L 925.2 30.48 
" style="fill: none; stroke: #000000; stroke-width: 0.8; stroke-linejoin: miter; stroke-linecap: square"/>
   </g>
   <g id="patch_6">
    <path d="M 92.09 309.04 
L 925.2 309.04 
" style="fill: none; stroke: #000000; stroke-width: 0.8; stroke-linejoin: miter; stroke-linecap: square"/>
   </g>
   <g id="patch_7">
    <path d="M 92.09 30.48 
L 925.2 30.48 
" style="fill: none; stroke: #000000; stroke-width: 0.8; stroke-linejoin: miter; stroke-linecap: square"/>
   </g>
   <g id="text_14">
    <!-- Energy -->
    <g transform="translate(478.3942 24.48) scale(0.1728 -0.1728)">
     <defs>
      <path id="DejaVuSans-45" d="M 628 4666 
L 3578 4666 
L 3578 4134 
L 1259 4134 
L 1259 2753 
L 3481 2753 
L 3481 2222 
L 1259 2222 
L 1259 531 
L 3634 531 
L 3634 0 
L 628 0 
L 628 4666 
z
" transform="scale(0.015625)"/>
     </defs>
     <use xlink:href="#DejaVuSans-45"/>
     <use xlink:href="#DejaVuSans-6e" x="63.183594"/>
     <use xlink:href="#DejaVuSans-65" x="126.5625"/>
     <use xlink:href="#DejaVuSans-72" x="188.085938"/>
     <use xlink:href="#DejaVuSans-67" x="227.449219"/>
     <use xlink:href="#DejaVuSans-79" x="290.925781"/>
    </g>
   </g>
  </g>
  <g id="axes_2">
   <g id="patch_8">
    <path d="M 92.09 663.64 
L 475.335 663.64 
L 475.335 385.08 
L 92.09 385.08 
z
" style="fill: #ffffff"/>
   </g>
   <g id="patch_9">
    <path d="M 92.09 663.64 
L 92.09 385.08 
L 225.193054 385.08 
L 225.193054 663.64 
z
" clip-path="url(#p9c8199e0ed)" style="fill: #808080; opacity: 0.15"/>
   </g>
   <g id="matplotlib.axis_3">
    <g id="xtick_8">
     <g id="line2d_15">
      <g>
       <use xlink:href="#me6067748b7" x="92.09" y="663.64" style="stroke: #000000; stroke-width: 0.8"/>
      </g>
     </g>
     <g id="text_15">
      <!-- 0.0 -->
      <g transform="translate(78.3497 683.7701) scale(0.1728 -0.1728)">
       <use xlink:href="#DejaVuSans-30"/>
       <use xlink:href="#DejaVuSans-2e" x="63.623047"/>
       <use xlink:href="#DejaVuSans-30" x="95.410156"/>
      </g>
     </g>
    </g>
    <g id="xtick_9">
     <g id="line2d_16">
      <g>
       <use xlink:href="#me6067748b7" x="149.462006" y="663.64" style="stroke: #000000; stroke-width: 0.8"/>
      </g>
     </g>
     <g id="text_16">
      <!-- 0.5 -->
      <g transform="translate(135.721706 683.7701) scale(0.1728 -0.1728)">
       <use xlink:href="#DejaVuSans-30"/>
       <use xlink:href="#DejaVuSans-2e" x="63.623047"/>
       <use xlink:href="#DejaVuSans-35" x="95.410156"/>
      </g>
     </g>
    </g>
    <g id="xtick_10">
     <g id="line2d_17">
      <g>
       <use xlink:href="#me6067748b7" x="206.834012" y="663.64" style="stroke: #000000; stroke-width: 0.8"/>
      </g>
     </g>
     <g id="text_17">
      <!-- 1.0 -->
      <g transform="translate(193.093712 683.7701) scale(0.1728 -0.1728)">
       <use xlink:href="#DejaVuSans-31"/>
       <use xlink:href="#DejaVuSans-2e" x="63.623047"/>
       <use xlink:href="#DejaVuSans-30" x="95.410156"/>
      </g>
     </g>
    </g>
    <g id="xtick_11">
     <g id="line2d_18">
      <g>
       <use xlink:href="#me6067748b7" x="264.206018" y="663.64" style="stroke: #000000; stroke-width: 0.8"/>
      </g>
     </g>
     <g id="text_18">
      <!-- 1.5 -->
      <g transform="translate(250.465718 683.7701) scale(0.1728 -0.1728)">
       <use xlink:href="#DejaVuSans-31"/>
       <use xlink:href="#DejaVuSans-2e" x="63.623047"/>
       <use xlink:href="#DejaVuSans-35" x="95.410156"/>
      </g>
     </g>
    </g>
    <g id="xtick_12">
     <g id="line2d_19">
      <g>
       <use xlink:href="#me6067748b7" x="321.578024" y="663.64" style="stroke: #000000; stroke-width: 0.8"/>
      </g>
     </g>
     <g id="text_19">
      <!-- 2.0 -->
      <g transform="translate(307.837724 683.7701) scale(0.1728 -0.1728)">
       <use xlink:href="#DejaVuSans-32"/>
       <use xlink:href="#DejaVuSans-2e" x="63.623047"/>
       <use xlink:href="#DejaVuSans-30" x="95.410156"/>
      </g>
     </g>
    </g>
    <g id="xtick_13">
     <g id="line2d_20">
      <g>
       <use xlink:href="#me6067748b7" x="378.95003" y="663.64" style="stroke: #000000; stroke-width: 0.8"/>
      </g>
     </g>
     <g id="text_20">
      <!-- 2.5 -->
      <g transform="translate(365.20973 683.7701) scale(0.1728 -0.1728)">
       <use xlink:href="#DejaVuSans-32"/>
       <use xlink:href="#DejaVuSans-2e" x="63.623047"/>
       <use xlink:href="#DejaVuSans-35" x="95.410156"/>
      </g>
     </g>
    </g>
    <g id="xtick_14">
     <g id="line2d_21">
      <g>
       <use xlink:href="#me6067748b7" x="436.322036" y="663.64" style="stroke: #000000; stroke-width: 0.8"/>
      </g>
     </g>
     <g id="text_21">
      <!-- 3.0 -->
      <g transform="translate(422.581736 683.7701) scale(0.1728 -0.1728)">
       <use xlink:href="#DejaVuSans-33"/>
       <use xlink:href="#DejaVuSans-2e" x="63.623047"/>
       <use xlink:href="#DejaVuSans-30" x="95.410156"/>
      </g>
     </g>
    </g>
    <g id="text_22">
     <!-- time in a.u. -->
     <g transform="translate(234.56305 704.4939) scale(0.1728 -0.1728)">
      <use xlink:href="#DejaVuSans-74"/>
      <use xlink:href="#DejaVuSans-69" x="39.208984"/>
      <use xlink:href="#DejaVuSans-6d" x="66.992188"/>
      <use xlink:href="#DejaVuSans-65" x="164.404297"/>
      <use xlink:href="#DejaVuSans-20" x="225.927734"/>
      <use xlink:href="#DejaVuSans-69" x="257.714844"/>
      <use xlink:href="#DejaVuSans-6e" x="285.498047"/>
      <use xlink:href="#DejaVuSans-20" x="348.876953"/>
      <use xlink:href="#DejaVuSans-61" x="380.664062"/>
      <use xlink:href="#DejaVuSans-2e" x="441.943359"/>
      <use xlink:href="#DejaVuSans-75" x="473.730469"/>
      <use xlink:href="#DejaVuSans-2e" x="537.109375"/>
     </g>
    </g>
   </g>
   <g id="matplotlib.axis_4">
    <g id="ytick_5">
     <g id="line2d_22">
      <g>
       <use xlink:href="#m241396c92b" x="92.09" y="646.85336" style="stroke: #000000; stroke-width: 0.8"/>
      </g>
     </g>
     <g id="text_23">
      <!-- −0.25 -->
      <g transform="translate(32.1349 653.41841) scale(0.1728 -0.1728)">
       <defs>
        <path id="DejaVuSans-2212" d="M 678 2272 
L 4684 2272 
L 4684 1741 
L 678 1741 
L 678 2272 
z
" transform="scale(0.015625)"/>
       </defs>
       <use xlink:href="#DejaVuSans-2212"/>
       <use xlink:href="#DejaVuSans-30" x="83.789062"/>
       <use xlink:href="#DejaVuSans-2e" x="147.412109"/>
       <use xlink:href="#DejaVuSans-32" x="179.199219"/>
       <use xlink:href="#DejaVuSans-35" x="242.822266"/>
      </g>
     </g>
    </g>
    <g id="ytick_6">
     <g id="line2d_23">
      <g>
       <use xlink:href="#m241396c92b" x="92.09" y="603.522596" style="stroke: #000000; stroke-width: 0.8"/>
      </g>
     </g>
     <g id="text_24">
      <!-- 0.00 -->
      <g transform="translate(46.615 610.087646) scale(0.1728 -0.1728)">
       <use xlink:href="#DejaVuSans-30"/>
       <use xlink:href="#DejaVuSans-2e" x="63.623047"/>
       <use xlink:href="#DejaVuSans-30" x="95.410156"/>
       <use xlink:href="#DejaVuSans-30" x="159.033203"/>
      </g>
     </g>
    </g>
    <g id="ytick_7">
     <g id="line2d_24">
      <g>
       <use xlink:href="#m241396c92b" x="92.09" y="560.191832" style="stroke: #000000; stroke-width: 0.8"/>
      </g>
     </g>
     <g id="text_25">
      <!-- 0.25 -->
      <g transform="translate(46.615 566.756882) scale(0.1728 -0.1728)">
       <use xlink:href="#DejaVuSans-30"/>
       <use xlink:href="#DejaVuSans-2e" x="63.623047"/>
       <use xlink:href="#DejaVuSans-32" x="95.410156"/>
       <use xlink:href="#DejaVuSans-35" x="159.033203"/>
      </g>
     </g>
    </g>
    <g id="ytick_8">
     <g id="line2d_25">
      <g>
       <use xlink:href="#m241396c92b" x="92.09" y="516.861069" style="stroke: #000000; stroke-width: 0.8"/>
      </g>
     </g>
     <g id="text_26">
      <!-- 0.50 -->
      <g transform="translate(46.615 523.426119) scale(0.1728 -0.1728)">
       <use xlink:href="#DejaVuSans-30"/>
       <use xlink:href="#DejaVuSans-2e" x="63.623047"/>
       <use xlink:href="#DejaVuSans-35" x="95.410156"/>
       <use xlink:href="#DejaVuSans-30" x="159.033203"/>
      </g>
     </g>
    </g>
    <g id="ytick_9">
     <g id="line2d_26">
      <g>
       <use xlink:href="#m241396c92b" x="92.09" y="473.530305" style="stroke: #000000; stroke-width: 0.8"/>
      </g>
     </g>
     <g id="text_27">
      <!-- 0.75 -->
      <g transform="translate(46.615 480.095355) scale(0.1728 -0.1728)">
       <defs>
        <path id="DejaVuSans-37" d="M 525 4666 
L 3525 4666 
L 3525 4397 
L 1831 0 
L 1172 0 
L 2766 4134 
L 525 4134 
L 525 4666 
z
" transform="scale(0.015625)"/>
       </defs>
       <use xlink:href="#DejaVuSans-30"/>
       <use xlink:href="#DejaVuSans-2e" x="63.623047"/>
       <use xlink:href="#DejaVuSans-37" x="95.410156"/>
       <use xlink:href="#DejaVuSans-35" x="159.033203"/>
      </g>
     </g>
    </g>
    <g id="ytick_10">
     <g id="line2d_27">
      <g>
       <use xlink:href="#m241396c92b" x="92.09" y="430.199541" style="stroke: #000000; stroke-width: 0.8"/>
      </g>
     </g>
     <g id="text_28">
      <!-- 1.00 -->
      <g transform="translate(46.615 436.764591) scale(0.1728 -0.1728)">
       <use xlink:href="#DejaVuSans-31"/>
       <use xlink:href="#DejaVuSans-2e" x="63.623047"/>
       <use xlink:href="#DejaVuSans-30" x="95.410156"/>
       <use xlink:href="#DejaVuSans-30" x="159.033203"/>
      </g>
     </g>
    </g>
    <g id="ytick_11">
     <g id="line2d_28">
      <g>
       <use xlink:href="#m241396c92b" x="92.09" y="386.868777" style="stroke: #000000; stroke-width: 0.8"/>
      </g>
     </g>
     <g id="text_29">
      <!-- 1.25 -->
      <g transform="translate(46.615 393.433827) scale(0.1728 -0.1728)">
       <use xlink:href="#DejaVuSans-31"/>
       <use xlink:href="#DejaVuSans-2e" x="63.623047"/>
       <use xlink:href="#DejaVuSans-32" x="95.410156"/>
       <use xlink:href="#DejaVuSans-35" x="159.033203"/>
      </g>
     </g>
    </g>
    <g id="text_30">
     <!-- pressure in a.u. -->
     <g transform="translate(24.5412 591.29975) rotate(-90) scale(0.1728 -0.1728)">
      <defs>
       <path id="DejaVuSans-70" d="M 1159 525 
L 1159 -1331 
L 581 -1331 
L 581 3500 
L 1159 3500 
L 1159 2969 
Q 1341 3281 1617 3432 
Q 1894 3584 2278 3584 
Q 2916 3584 3314 3078 
Q 3713 2572 3713 1747 
Q 3713 922 3314 415 
Q 2916 -91 2278 -91 
Q 1894 -91 1617 61 
Q 1341 213 1159 525 
z
M 3116 1747 
Q 3116 2381 2855 2742 
Q 2594 3103 2138 3103 
Q 1681 3103 1420 2742 
Q 1159 2381 1159 1747 
Q 1159 1113 1420 752 
Q 1681 391 2138 391 
Q 2594 391 2855 752 
Q 3116 1113 3116 1747 
z
" transform="scale(0.015625)"/>
       <path id="DejaVuSans-73" d="M 2834 3397 
L 2834 2853 
Q 2591 2978 2328 3040 
Q 2066 3103 1784 3103 
Q 1356 3103 1142 2972 
Q 928 2841 928 2578 
Q 928 2378 1081 2264 
Q 1234 2150 1697 2047 
L 1894 2003 
Q 2506 1872 2764 1633 
Q 3022 1394 3022 966 
Q 3022 478 2636 193 
Q 2250 -91 1575 -91 
Q 1294 -91 989 -36 
Q 684 19 347 128 
L 347 722 
Q 666 556 975 473 
Q 1284 391 1588 391 
Q 1994 391 2212 530 
Q 2431 669 2431 922 
Q 2431 1156 2273 1281 
Q 2116 1406 1581 1522 
L 1381 1569 
Q 847 1681 609 1914 
Q 372 2147 372 2553 
Q 372 3047 722 3315 
Q 1072 3584 1716 3584 
Q 2034 3584 2315 3537 
Q 2597 3491 2834 3397 
z
" transform="scale(0.015625)"/>
      </defs>
      <use xlink:href="#DejaVuSans-70"/>
      <use xlink:href="#DejaVuSans-72" x="63.476562"/>
      <use xlink:href="#DejaVuSans-65" x="102.339844"/>
      <use xlink:href="#DejaVuSans-73" x="163.863281"/>
      <use xlink:href="#DejaVuSans-73" x="215.962891"/>
      <use xlink:href="#DejaVuSans-75" x="268.0625"/>
      <use xlink:href="#DejaVuSans-72" x="331.441406"/>
      <use xlink:href="#DejaVuSans-65" x="370.304688"/>
      <use xlink:href="#DejaVuSans-20" x="431.828125"/>
      <use xlink:href="#DejaVuSans-69" x="463.615234"/>
      <use xlink:href="#DejaVuSans-6e" x="491.398438"/>
      <use xlink:href="#DejaVuSans-20" x="554.777344"/>
      <use xlink:href="#DejaVuSans-61" x="586.564453"/>
      <use xlink:href="#DejaVuSans-2e" x="647.84375"/>
      <use xlink:href="#DejaVuSans-75" x="679.630859"/>
      <use xlink:href="#DejaVuSans-2e" x="743.009766"/>
     </g>
    </g>
   </g>
   <g id="line2d_29">
    <path d="M 92.09 640.426667 
L 93.23744 590.513344 
L 94.38488 592.655681 
L 95.53232 595.676356 
L 96.67976 599.246368 
L 97.827201 600.260685 
L 98.974641 586.752651 
L 100.122081 560.204462 
L 101.269521 551.583565 
L 102.416961 528.048781 
L 104.711841 455.406944 
L 105.859281 462.527508 
L 107.006722 495.032708 
L 108.154162 514.897109 
L 109.301602 525.641868 
L 111.596482 459.864414 
L 112.743922 507.950415 
L 113.891362 532.284682 
L 115.038802 515.852442 
L 117.333683 469.644429 
L 118.481123 429.858469 
L 119.628563 501.388948 
L 120.776003 558.521084 
L 121.923443 564.474311 
L 123.070883 565.339319 
L 124.218323 575.128509 
L 125.365763 575.132553 
L 126.513204 538.843338 
L 127.660644 479.124344 
L 128.808084 486.280686 
L 129.955524 485.033741 
L 131.102964 487.887887 
L 132.250404 511.939191 
L 133.397844 527.087957 
L 134.545284 535.146646 
L 135.692725 517.231325 
L 136.840165 507.011806 
L 137.987605 499.76305 
L 139.135045 481.113166 
L 140.282485 497.382771 
L 141.429925 526.814153 
L 142.577365 535.012891 
L 143.724805 521.824263 
L 144.872246 527.711476 
L 146.019686 553.846799 
L 147.167126 554.531174 
L 148.314566 501.24412 
L 149.462006 507.653145 
L 150.609446 512.67266 
L 151.756886 510.517019 
L 152.904326 538.247605 
L 154.051766 552.200343 
L 155.199207 527.490917 
L 156.346647 466.926571 
L 157.494087 482.12919 
L 158.641527 479.201886 
L 159.788967 486.804627 
L 160.936407 509.622152 
L 162.083847 483.968622 
L 164.378728 512.175056 
L 165.526168 551.3714 
L 166.673608 564.178547 
L 167.821048 541.649128 
L 168.968488 498.281824 
L 170.115928 518.114784 
L 171.263368 503.849004 
L 172.410808 467.106755 
L 173.558249 498.376111 
L 174.705689 558.687392 
L 175.853129 553.460849 
L 178.148009 502.183863 
L 179.295449 484.656478 
L 180.442889 486.781219 
L 181.590329 486.152326 
L 182.737769 497.913744 
L 183.88521 478.104682 
L 185.03265 470.648634 
L 187.32753 519.868801 
L 188.47497 529.951213 
L 189.62241 482.2901 
L 190.76985 525.576499 
L 191.91729 533.425497 
L 193.064731 540.010378 
L 194.212171 493.837226 
L 195.359611 519.190256 
L 196.507051 552.002889 
L 197.654491 567.556921 
L 198.801931 556.074486 
L 201.096811 508.202588 
L 202.244251 512.013796 
L 203.391692 504.914993 
L 204.539132 440.497333 
L 205.686572 429.997625 
L 207.981452 505.971909 
L 209.128892 541.689698 
L 210.276332 539.533713 
L 212.571213 445.366574 
L 213.718653 464.786505 
L 214.866093 509.506865 
L 216.013533 543.418306 
L 217.160973 527.331926 
L 218.308413 541.460601 
L 219.455853 526.116603 
L 220.603293 514.245017 
L 221.750734 537.408547 
L 222.898174 509.351697 
L 224.045614 478.396824 
L 225.193054 467.410862 
L 226.340494 493.841446 
L 227.487934 507.665928 
L 228.635374 486.878831 
L 229.782814 498.601101 
L 230.930254 544.28981 
L 232.077695 546.360603 
L 233.225135 539.092813 
L 234.372575 533.184942 
L 235.520015 511.544406 
L 236.667455 546.991541 
L 237.814895 543.461495 
L 238.962335 495.592187 
L 240.109775 529.483458 
L 241.257216 557.027579 
L 242.404656 542.575983 
L 243.552096 522.472007 
L 244.699536 515.821796 
L 245.846976 530.51885 
L 246.994416 535.15855 
L 249.289296 546.023305 
L 250.436737 564.767574 
L 251.584177 557.620404 
L 252.731617 543.52334 
L 253.879057 497.323543 
L 255.026497 460.531978 
L 256.173937 486.074211 
L 257.321377 523.085876 
L 258.468817 541.709156 
L 259.616257 540.732646 
L 260.763698 541.304769 
L 261.911138 500.524914 
L 263.058578 474.875643 
L 264.206018 436.752093 
L 265.353458 498.64384 
L 266.500898 508.634116 
L 267.648338 534.414367 
L 268.795778 538.325491 
L 269.943219 514.823756 
L 271.090659 499.517616 
L 272.238099 481.441892 
L 273.385539 485.787763 
L 274.532979 511.627334 
L 275.680419 510.720961 
L 276.827859 516.267586 
L 277.975299 509.027241 
L 279.12274 498.742323 
L 280.27018 457.01323 
L 281.41762 408.293333 
L 282.56506 500.262156 
L 283.7125 533.27923 
L 284.85994 524.945336 
L 286.00738 528.936111 
L 287.15482 494.845348 
L 288.30226 532.765892 
L 289.449701 525.286011 
L 290.597141 520.212273 
L 291.744581 503.738521 
L 292.892021 534.156354 
L 294.039461 551.827829 
L 295.186901 507.66747 
L 296.334341 430.243831 
L 297.481781 478.301299 
L 298.629222 552.528288 
L 299.776662 526.801434 
L 300.924102 517.230313 
L 302.071542 529.121571 
L 303.218982 513.166037 
L 304.366422 502.39197 
L 305.513862 475.638036 
L 306.661302 497.458484 
L 307.808743 506.737311 
L 308.956183 513.778988 
L 310.103623 518.038555 
L 311.251063 503.668818 
L 312.398503 507.676442 
L 313.545943 524.411164 
L 314.693383 505.982247 
L 315.840823 499.683042 
L 316.988263 513.401014 
L 318.135704 479.320977 
L 319.283144 476.804556 
L 320.430584 467.656852 
L 321.578024 479.266359 
L 322.725464 524.4232 
L 323.872904 550.418573 
L 325.020344 547.167062 
L 326.167784 517.592924 
L 327.315225 505.729441 
L 328.462665 520.254641 
L 329.610105 501.770341 
L 330.757545 500.769687 
L 331.904985 486.920213 
L 333.052425 520.210451 
L 334.199865 536.679888 
L 335.347305 520.439215 
L 336.494746 513.950769 
L 337.642186 522.829048 
L 338.789626 505.789112 
L 339.937066 544.716765 
L 341.084506 543.576338 
L 342.231946 528.413398 
L 343.379386 505.693249 
L 344.526826 513.477744 
L 345.674266 539.101759 
L 346.821707 543.239802 
L 347.969147 549.891133 
L 349.116587 514.995585 
L 350.264027 483.559233 
L 351.411467 480.182349 
L 352.558907 486.680797 
L 353.706347 514.563423 
L 354.853787 481.824036 
L 356.001228 481.256183 
L 358.296108 517.395193 
L 359.443548 523.454441 
L 360.590988 498.287565 
L 361.738428 509.026426 
L 362.885868 503.642712 
L 364.033308 513.577868 
L 365.180749 514.736917 
L 366.328189 512.52575 
L 367.475629 503.666111 
L 368.623069 538.038936 
L 369.770509 545.123105 
L 370.917949 546.009445 
L 372.065389 532.515057 
L 373.212829 506.440752 
L 374.360269 456.993969 
L 375.50771 467.688608 
L 376.65515 486.868944 
L 377.80259 536.864778 
L 378.95003 579.67101 
L 380.09747 585.889807 
L 381.24491 572.723728 
L 382.39235 563.050162 
L 383.53979 508.750412 
L 384.687231 482.236827 
L 385.834671 510.084803 
L 386.982111 482.124874 
L 388.129551 524.182738 
L 389.276991 505.521248 
L 390.424431 493.934196 
L 391.571871 480.88461 
L 392.719311 481.358288 
L 393.866751 499.714367 
L 396.161632 455.511075 
L 397.309072 463.987847 
L 398.456512 504.872329 
L 399.603952 510.0957 
L 400.751392 521.14353 
L 401.898832 534.776276 
L 403.046272 553.74127 
L 404.193713 564.729666 
L 405.341153 548.669984 
L 406.488593 525.243604 
L 407.636033 521.70622 
L 408.783473 469.185442 
L 409.930913 488.682209 
L 411.078353 492.938501 
L 412.225793 552.486947 
L 413.373234 571.94715 
L 414.520674 538.12404 
L 415.668114 493.706366 
L 416.815554 490.844983 
L 417.962994 510.027752 
L 420.257874 536.932124 
L 421.405314 554.795443 
L 422.552754 552.954234 
L 423.700195 536.765762 
L 424.847635 535.622348 
L 425.995075 540.160884 
L 427.142515 544.010192 
L 428.289955 518.747759 
L 429.437395 525.822841 
L 430.584835 531.506989 
L 431.732275 499.583511 
L 432.879716 499.560277 
L 434.027156 509.538033 
L 435.174596 487.621362 
L 436.322036 494.34849 
L 437.469476 514.489819 
L 438.616916 536.713811 
L 439.764356 567.949131 
L 440.911796 554.006386 
L 442.059237 527.528062 
L 443.206677 511.828213 
L 444.354117 508.507603 
L 445.501557 500.004617 
L 446.648997 540.509789 
L 447.796437 559.50044 
L 448.943877 558.239249 
L 450.091317 524.47495 
L 451.238757 523.372469 
L 452.386198 520.665092 
L 453.533638 529.214879 
L 454.681078 557.691989 
L 455.828518 572.501026 
L 456.975958 566.494451 
L 458.123398 538.694994 
L 459.270838 526.817054 
L 460.418278 524.589912 
L 461.565719 519.968955 
L 462.713159 498.9828 
L 465.008039 463.506449 
L 466.155479 504.101261 
L 467.302919 508.193228 
L 468.450359 498.690285 
L 469.597799 497.040129 
L 470.74524 517.346667 
L 471.89268 505.335029 
L 473.04012 468.079528 
L 474.18756 472.927188 
L 474.18756 472.927188 
" clip-path="url(#p9c8199e0ed)" style="fill: none; stroke: #1f77b4; stroke-width: 1.5; stroke-linecap: square"/>
   </g>
   <g id="line2d_30">
    <path d="M 225.193054 663.64 
L 225.193054 385.08 
" clip-path="url(#p9c8199e0ed)" style="fill: none; stroke-dasharray: 5.55,2.4; stroke-dashoffset: 0; stroke: #808080; stroke-width: 1.5"/>
   </g>
   <g id="line2d_31">
    <path d="M 92.09 515.368881 
L 475.335 515.368881 
" clip-path="url(#p9c8199e0ed)" style="fill: none; stroke: #ff0000; stroke-opacity: 0.3; stroke-width: 1.5; stroke-linecap: square"/>
   </g>
   <g id="patch_10">
    <path d="M 92.09 663.64 
L 92.09 385.08 
" style="fill: none; stroke: #000000; stroke-width: 0.8; stroke-linejoin: miter; stroke-linecap: square"/>
   </g>
   <g id="patch_11">
    <path d="M 475.335 663.64 
L 475.335 385.08 
" style="fill: none; stroke: #000000; stroke-width: 0.8; stroke-linejoin: miter; stroke-linecap: square"/>
   </g>
   <g id="patch_12">
    <path d="M 92.09 663.64 
L 475.335 663.64 
" style="fill: none; stroke: #000000; stroke-width: 0.8; stroke-linejoin: miter; stroke-linecap: square"/>
   </g>
   <g id="patch_13">
    <path d="M 92.09 385.08 
L 475.335 385.08 
" style="fill: none; stroke: #000000; stroke-width: 0.8; stroke-linejoin: miter; stroke-linecap: square"/>
   </g>
   <g id="text_31">
    <!-- Pressure -->
    <g transform="translate(246.82915 379.08) scale(0.1728 -0.1728)">
     <defs>
      <path id="DejaVuSans-50" d="M 1259 4147 
L 1259 2394 
L 2053 2394 
Q 2494 2394 2734 2622 
Q 2975 2850 2975 3272 
Q 2975 3691 2734 3919 
Q 2494 4147 2053 4147 
L 1259 4147 
z
M 628 4666 
L 2053 4666 
Q 2838 4666 3239 4311 
Q 3641 3956 3641 3272 
Q 3641 2581 3239 2228 
Q 2838 1875 2053 1875 
L 1259 1875 
L 1259 0 
L 628 0 
L 628 4666 
z
" transform="scale(0.015625)"/>
     </defs>
     <use xlink:href="#DejaVuSans-50"/>
     <use xlink:href="#DejaVuSans-72" x="58.552734"/>
     <use xlink:href="#DejaVuSans-65" x="97.416016"/>
     <use xlink:href="#DejaVuSans-73" x="158.939453"/>
     <use xlink:href="#DejaVuSans-73" x="211.039062"/>
     <use xlink:href="#DejaVuSans-75" x="263.138672"/>
     <use xlink:href="#DejaVuSans-72" x="326.517578"/>
     <use xlink:href="#DejaVuSans-65" x="365.380859"/>
    </g>
   </g>
  </g>
  <g id="axes_3">
   <g id="patch_14">
    <path d="M 541.955 663.64 
L 925.2 663.64 
L 925.2 385.08 
L 541.955 385.08 
z
" style="fill: #ffffff"/>
   </g>
   <g id="patch_15">
    <path d="M 541.955 663.64 
L 541.955 385.08 
L 675.058054 385.08 
L 675.058054 663.64 
z
" clip-path="url(#p9eb7752bbc)" style="fill: #808080; opacity: 0.15"/>
   </g>
   <g id="matplotlib.axis_5">
    <g id="xtick_15">
     <g id="line2d_32">
      <g>
       <use xlink:href="#me6067748b7" x="541.955" y="663.64" style="stroke: #000000; stroke-width: 0.8"/>
      </g>
     </g>
     <g id="text_32">
      <!-- 0.0 -->
      <g transform="translate(528.2147 683.7701) scale(0.1728 -0.1728)">
       <use xlink:href="#DejaVuSans-30"/>
       <use xlink:href="#DejaVuSans-2e" x="63.623047"/>
       <use xlink:href="#DejaVuSans-30" x="95.410156"/>
      </g>
     </g>
    </g>
    <g id="xtick_16">
     <g id="line2d_33">
      <g>
       <use xlink:href="#me6067748b7" x="599.327006" y="663.64" style="stroke: #000000; stroke-width: 0.8"/>
      </g>
     </g>
     <g id="text_33">
      <!-- 0.5 -->
      <g transform="translate(585.586706 683.7701) scale(0.1728 -0.1728)">
       <use xlink:href="#DejaVuSans-30"/>
       <use xlink:href="#DejaVuSans-2e" x="63.623047"/>
       <use xlink:href="#DejaVuSans-35" x="95.410156"/>
      </g>
     </g>
    </g>
    <g id="xtick_17">
     <g id="line2d_34">
      <g>
       <use xlink:href="#me6067748b7" x="656.699012" y="663.64" style="stroke: #000000; stroke-width: 0.8"/>
      </g>
     </g>
     <g id="text_34">
      <!-- 1.0 -->
      <g transform="translate(642.958712 683.7701) scale(0.1728 -0.1728)">
       <use xlink:href="#DejaVuSans-31"/>
       <use xlink:href="#DejaVuSans-2e" x="63.623047"/>
       <use xlink:href="#DejaVuSans-30" x="95.410156"/>
      </g>
     </g>
    </g>
    <g id="xtick_18">
     <g id="line2d_35">
      <g>
       <use xlink:href="#me6067748b7" x="714.071018" y="663.64" style="stroke: #000000; stroke-width: 0.8"/>
      </g>
     </g>
     <g id="text_35">
      <!-- 1.5 -->
      <g transform="translate(700.330718 683.7701) scale(0.1728 -0.1728)">
       <use xlink:href="#DejaVuSans-31"/>
       <use xlink:href="#DejaVuSans-2e" x="63.623047"/>
       <use xlink:href="#DejaVuSans-35" x="95.410156"/>
      </g>
     </g>
    </g>
    <g id="xtick_19">
     <g id="line2d_36">
      <g>
       <use xlink:href="#me6067748b7" x="771.443024" y="663.64" style="stroke: #000000; stroke-width: 0.8"/>
      </g>
     </g>
     <g id="text_36">
      <!-- 2.0 -->
      <g transform="translate(757.702724 683.7701) scale(0.1728 -0.1728)">
       <use xlink:href="#DejaVuSans-32"/>
       <use xlink:href="#DejaVuSans-2e" x="63.623047"/>
       <use xlink:href="#DejaVuSans-30" x="95.410156"/>
      </g>
     </g>
    </g>
    <g id="xtick_20">
     <g id="line2d_37">
      <g>
       <use xlink:href="#me6067748b7" x="828.81503" y="663.64" style="stroke: #000000; stroke-width: 0.8"/>
      </g>
     </g>
     <g id="text_37">
      <!-- 2.5 -->
      <g transform="translate(815.07473 683.7701) scale(0.1728 -0.1728)">
       <use xlink:href="#DejaVuSans-32"/>
       <use xlink:href="#DejaVuSans-2e" x="63.623047"/>
       <use xlink:href="#DejaVuSans-35" x="95.410156"/>
      </g>
     </g>
    </g>
    <g id="xtick_21">
     <g id="line2d_38">
      <g>
       <use xlink:href="#me6067748b7" x="886.187036" y="663.64" style="stroke: #000000; stroke-width: 0.8"/>
      </g>
     </g>
     <g id="text_38">
      <!-- 3.0 -->
      <g transform="translate(872.446736 683.7701) scale(0.1728 -0.1728)">
       <use xlink:href="#DejaVuSans-33"/>
       <use xlink:href="#DejaVuSans-2e" x="63.623047"/>
       <use xlink:href="#DejaVuSans-30" x="95.410156"/>
      </g>
     </g>
    </g>
    <g id="text_39">
     <!-- time in a.u. -->
     <g transform="translate(684.42805 704.4939) scale(0.1728 -0.1728)">
      <use xlink:href="#DejaVuSans-74"/>
      <use xlink:href="#DejaVuSans-69" x="39.208984"/>
      <use xlink:href="#DejaVuSans-6d" x="66.992188"/>
      <use xlink:href="#DejaVuSans-65" x="164.404297"/>
      <use xlink:href="#DejaVuSans-20" x="225.927734"/>
      <use xlink:href="#DejaVuSans-69" x="257.714844"/>
      <use xlink:href="#DejaVuSans-6e" x="285.498047"/>
      <use xlink:href="#DejaVuSans-20" x="348.876953"/>
      <use xlink:href="#DejaVuSans-61" x="380.664062"/>
      <use xlink:href="#DejaVuSans-2e" x="441.943359"/>
      <use xlink:href="#DejaVuSans-75" x="473.730469"/>
      <use xlink:href="#DejaVuSans-2e" x="537.109375"/>
     </g>
    </g>
   </g>
   <g id="matplotlib.axis_6">
    <g id="ytick_12">
     <g id="line2d_39">
      <g>
       <use xlink:href="#m241396c92b" x="541.955" y="648.733687" style="stroke: #000000; stroke-width: 0.8"/>
      </g>
     </g>
     <g id="text_40">
      <!-- 0.0 -->
      <g transform="translate(507.4744 655.298737) scale(0.1728 -0.1728)">
       <use xlink:href="#DejaVuSans-30"/>
       <use xlink:href="#DejaVuSans-2e" x="63.623047"/>
       <use xlink:href="#DejaVuSans-30" x="95.410156"/>
      </g>
     </g>
    </g>
    <g id="ytick_13">
     <g id="line2d_40">
      <g>
       <use xlink:href="#m241396c92b" x="541.955" y="594.545628" style="stroke: #000000; stroke-width: 0.8"/>
      </g>
     </g>
     <g id="text_41">
      <!-- 0.5 -->
      <g transform="translate(507.4744 601.110678) scale(0.1728 -0.1728)">
       <use xlink:href="#DejaVuSans-30"/>
       <use xlink:href="#DejaVuSans-2e" x="63.623047"/>
       <use xlink:href="#DejaVuSans-35" x="95.410156"/>
      </g>
     </g>
    </g>
    <g id="ytick_14">
     <g id="line2d_41">
      <g>
       <use xlink:href="#m241396c92b" x="541.955" y="540.35757" style="stroke: #000000; stroke-width: 0.8"/>
      </g>
     </g>
     <g id="text_42">
      <!-- 1.0 -->
      <g transform="translate(507.4744 546.92262) scale(0.1728 -0.1728)">
       <use xlink:href="#DejaVuSans-31"/>
       <use xlink:href="#DejaVuSans-2e" x="63.623047"/>
       <use xlink:href="#DejaVuSans-30" x="95.410156"/>
      </g>
     </g>
    </g>
    <g id="ytick_15">
     <g id="line2d_42">
      <g>
       <use xlink:href="#m241396c92b" x="541.955" y="486.169511" style="stroke: #000000; stroke-width: 0.8"/>
      </g>
     </g>
     <g id="text_43">
      <!-- 1.5 -->
      <g transform="translate(507.4744 492.734561) scale(0.1728 -0.1728)">
       <use xlink:href="#DejaVuSans-31"/>
       <use xlink:href="#DejaVuSans-2e" x="63.623047"/>
       <use xlink:href="#DejaVuSans-35" x="95.410156"/>
      </g>
     </g>
    </g>
    <g id="ytick_16">
     <g id="line2d_43">
      <g>
       <use xlink:href="#m241396c92b" x="541.955" y="431.981452" style="stroke: #000000; stroke-width: 0.8"/>
      </g>
     </g>
     <g id="text_44">
      <!-- 2.0 -->
      <g transform="translate(507.4744 438.546502) scale(0.1728 -0.1728)">
       <use xlink:href="#DejaVuSans-32"/>
       <use xlink:href="#DejaVuSans-2e" x="63.623047"/>
       <use xlink:href="#DejaVuSans-30" x="95.410156"/>
      </g>
     </g>
    </g>
    <g id="text_45">
     <!-- temperature in a.u. -->
     <g transform="translate(499.8807 608.29355) rotate(-90) scale(0.1728 -0.1728)">
      <use xlink:href="#DejaVuSans-74"/>
      <use xlink:href="#DejaVuSans-65" x="39.208984"/>
      <use xlink:href="#DejaVuSans-6d" x="100.732422"/>
      <use xlink:href="#DejaVuSans-70" x="198.144531"/>
      <use xlink:href="#DejaVuSans-65" x="261.621094"/>
      <use xlink:href="#DejaVuSans-72" x="323.144531"/>
      <use xlink:href="#DejaVuSans-61" x="364.257812"/>
      <use xlink:href="#DejaVuSans-74" x="425.537109"/>
      <use xlink:href="#DejaVuSans-75" x="464.746094"/>
      <use xlink:href="#DejaVuSans-72" x="528.125"/>
      <use xlink:href="#DejaVuSans-65" x="566.988281"/>
      <use xlink:href="#DejaVuSans-20" x="628.511719"/>
      <use xlink:href="#DejaVuSans-69" x="660.298828"/>
      <use xlink:href="#DejaVuSans-6e" x="688.082031"/>
      <use xlink:href="#DejaVuSans-20" x="751.460938"/>
      <use xlink:href="#DejaVuSans-61" x="783.248047"/>
      <use xlink:href="#DejaVuSans-2e" x="844.527344"/>
      <use xlink:href="#DejaVuSans-75" x="876.314453"/>
      <use xlink:href="#DejaVuSans-2e" x="939.693359"/>
     </g>
    </g>
   </g>
   <g id="line2d_44">
    <path d="M 541.955 640.426667 
L 543.10244 431.296193 
L 545.39732 429.22336 
L 546.54476 427.980684 
L 547.692201 427.2047 
L 549.987081 432.045299 
L 551.134521 426.414266 
L 552.281961 430.519738 
L 553.429401 434.050977 
L 554.576841 435.187957 
L 555.724281 426.137656 
L 556.871722 422.120247 
L 558.019162 426.916161 
L 559.166602 428.782388 
L 560.314042 440.380873 
L 561.461482 440.871957 
L 562.608922 419.34446 
L 563.756362 427.818515 
L 564.903802 437.498775 
L 566.051243 437.973295 
L 567.198683 437.363923 
L 568.346123 444.001924 
L 569.493563 414.302937 
L 570.641003 421.2182 
L 571.788443 433.794019 
L 572.935883 432.68344 
L 574.083323 428.629711 
L 575.230763 429.612456 
L 576.378204 437.850732 
L 577.525644 443.485471 
L 578.673084 424.923362 
L 579.820524 430.411692 
L 580.967964 430.462451 
L 582.115404 425.408941 
L 583.262844 428.175763 
L 584.410284 429.105648 
L 585.557725 436.076648 
L 586.705165 433.694746 
L 587.852605 433.820269 
L 589.000045 438.055864 
L 590.147485 428.888788 
L 591.294925 426.005621 
L 593.589805 436.12267 
L 595.884686 425.059343 
L 597.032126 431.385145 
L 598.179566 445.298924 
L 599.327006 427.635297 
L 601.621886 433.233438 
L 602.769326 425.086719 
L 603.916766 429.039144 
L 606.211647 447.312636 
L 607.359087 426.327917 
L 608.506527 434.742825 
L 609.653967 431.641843 
L 610.801407 426.920964 
L 611.948847 440.722212 
L 613.096287 428.827693 
L 614.243728 430.846093 
L 615.391168 422.648367 
L 616.538608 428.473837 
L 617.686048 435.882328 
L 618.833488 441.016128 
L 619.980928 423.560596 
L 621.128368 435.014973 
L 622.275808 441.670424 
L 623.423249 423.673113 
L 624.570689 416.964788 
L 625.718129 434.162994 
L 626.865569 436.889005 
L 628.013009 436.65496 
L 629.160449 435.16456 
L 630.307889 430.619641 
L 631.455329 432.22149 
L 632.602769 428.282647 
L 633.75021 437.458298 
L 634.89765 434.292506 
L 636.04509 426.854257 
L 637.19253 427.705067 
L 638.33997 430.818454 
L 639.48741 446.640757 
L 640.63485 419.780743 
L 641.78229 431.476888 
L 642.929731 429.651859 
L 644.077171 444.256524 
L 645.224611 423.593787 
L 646.372051 423.712479 
L 647.519491 427.646882 
L 648.666931 433.309331 
L 649.814371 435.397529 
L 650.961811 435.021514 
L 652.109251 427.883138 
L 653.256692 431.520862 
L 654.404132 448.323331 
L 655.551572 434.011771 
L 656.699012 423.789576 
L 657.846452 425.46949 
L 658.993892 424.305598 
L 660.141332 432.983841 
L 661.288772 444.276683 
L 662.436213 442.802249 
L 663.583653 426.568247 
L 664.731093 422.172937 
L 665.878533 425.258556 
L 667.025973 438.078229 
L 668.173413 427.504176 
L 669.320853 436.214 
L 670.468293 434.120336 
L 671.615734 423.221565 
L 672.763174 437.479518 
L 673.910614 437.231139 
L 675.058054 433.620685 
L 676.205494 425.507006 
L 677.352934 430.657616 
L 678.500374 440.585534 
L 680.795254 422.64382 
L 681.942695 434.756787 
L 683.090135 435.426248 
L 684.237575 434.497933 
L 685.385015 439.571124 
L 686.532455 423.397995 
L 688.827335 446.521587 
L 689.974775 423.629832 
L 691.122216 426.862512 
L 692.269656 437.021636 
L 693.417096 436.973199 
L 694.564536 433.333822 
L 695.711976 428.184525 
L 696.859416 431.609186 
L 698.006856 431.013663 
L 699.154296 430.891855 
L 700.301737 426.356244 
L 701.449177 432.827102 
L 702.596617 432.787655 
L 703.744057 441.111686 
L 704.891497 438.626571 
L 706.038937 423.297886 
L 707.186377 422.949874 
L 708.333817 428.119521 
L 709.481257 432.032675 
L 710.628698 429.541178 
L 711.776138 440.392055 
L 712.923578 435.64245 
L 714.071018 441.705329 
L 715.218458 414.983086 
L 716.365898 432.190255 
L 717.513338 425.297447 
L 718.660778 430.578608 
L 719.808219 436.882122 
L 720.955659 433.966434 
L 722.103099 435.700649 
L 724.397979 424.97995 
L 725.545419 432.807681 
L 726.692859 429.819928 
L 727.840299 432.966473 
L 728.98774 432.623945 
L 730.13518 441.082285 
L 731.28262 444.688822 
L 732.43006 408.293333 
L 733.5775 428.254194 
L 734.72494 437.130111 
L 735.87238 431.84527 
L 737.01982 442.75612 
L 738.16726 421.189487 
L 739.314701 435.187906 
L 740.462141 433.043541 
L 741.609581 437.041844 
L 742.757021 423.958799 
L 743.904461 427.450598 
L 745.051901 442.954415 
L 746.199341 451.988873 
L 747.346781 418.256715 
L 748.494222 413.891601 
L 749.641662 440.706129 
L 750.789102 432.451717 
L 751.936542 426.549386 
L 753.083982 434.593715 
L 754.231422 432.547509 
L 755.378862 438.380018 
L 756.526302 425.799685 
L 757.673743 430.973652 
L 759.968623 429.59418 
L 761.116063 434.368414 
L 762.263503 429.264271 
L 763.410943 426.632159 
L 764.558383 437.16615 
L 765.705823 433.367965 
L 766.853263 427.557138 
L 768.000704 441.07257 
L 769.148144 431.408435 
L 770.295584 435.490727 
L 771.443024 430.935846 
L 772.590464 422.444908 
L 773.737904 427.359626 
L 776.032784 438.681657 
L 777.180225 433.200892 
L 778.327665 426.476234 
L 779.475105 436.511054 
L 780.622545 431.325515 
L 781.769985 436.787772 
L 782.917425 423.66167 
L 784.064865 428.934499 
L 785.212305 437.224423 
L 786.359746 433.820303 
L 787.507186 430.002333 
L 788.654626 438.051197 
L 789.802066 422.03491 
L 790.949506 434.090593 
L 793.244386 438.438055 
L 794.391826 430.293063 
L 795.539266 426.039356 
L 796.686707 431.786042 
L 797.834147 429.124421 
L 798.981587 439.706271 
L 800.129027 437.984228 
L 801.276467 431.302376 
L 802.423907 429.55746 
L 803.571347 423.183394 
L 804.718787 440.849365 
L 805.866228 431.041134 
L 807.013668 427.523254 
L 808.161108 428.081349 
L 809.308548 430.901919 
L 810.455988 438.993129 
L 811.603428 428.348303 
L 812.750868 434.023102 
L 813.898308 429.222658 
L 815.045749 432.055716 
L 816.193189 432.755024 
L 817.340629 435.190169 
L 818.488069 423.502679 
L 819.635509 431.845171 
L 820.782949 432.001731 
L 823.077829 437.211627 
L 824.225269 444.12963 
L 825.37271 428.25959 
L 826.52015 429.908566 
L 827.66759 423.173026 
L 828.81503 425.362564 
L 829.96247 433.351734 
L 831.10991 435.747956 
L 832.25735 432.260535 
L 833.40479 444.131183 
L 834.552231 436.055232 
L 835.699671 422.434806 
L 836.847111 440.093396 
L 837.994551 418.706433 
L 839.141991 436.628883 
L 840.289431 432.452609 
L 841.436871 433.98276 
L 842.584311 431.41472 
L 843.731751 426.774181 
L 844.879192 437.844524 
L 846.026632 436.801355 
L 848.321512 422.421117 
L 849.468952 433.761478 
L 850.616392 431.532828 
L 851.763832 431.097816 
L 852.911272 429.248142 
L 854.058713 430.663367 
L 855.206153 436.709064 
L 856.353593 437.31047 
L 857.501033 431.117515 
L 858.648473 445.809737 
L 859.795913 425.61417 
L 860.943353 433.290612 
L 862.090793 417.373347 
L 863.238234 428.22413 
L 864.385674 440.152112 
L 865.533114 441.707324 
L 866.680554 431.199421 
L 867.827994 427.443512 
L 868.975434 430.354524 
L 870.122874 429.931478 
L 871.270314 428.465944 
L 872.417754 433.064855 
L 873.565195 436.106598 
L 874.712635 431.782459 
L 875.860075 430.663192 
L 877.007515 430.444958 
L 878.154955 438.369802 
L 879.302395 428.249347 
L 880.449835 429.183786 
L 881.597275 439.966226 
L 882.744716 430.638371 
L 883.892156 428.85348 
L 885.039596 438.251277 
L 886.187036 429.548895 
L 887.334476 427.061189 
L 888.481916 427.515496 
L 889.629356 424.09921 
L 890.776796 435.571593 
L 891.924237 437.590432 
L 894.219117 432.200341 
L 895.366557 434.928177 
L 896.513997 421.792843 
L 897.661437 428.677 
L 898.808877 432.770298 
L 899.956317 440.86019 
L 901.103757 431.36046 
L 902.251198 433.40401 
L 903.398638 431.137816 
L 904.546078 426.156531 
L 905.693518 429.450303 
L 906.840958 433.414367 
L 907.988398 437.999126 
L 909.135838 432.762376 
L 910.283278 430.391567 
L 911.430719 430.856235 
L 912.578159 435.112441 
L 913.725599 434.045175 
L 914.873039 435.350901 
L 916.020479 420.22584 
L 917.167919 431.812472 
L 918.315359 433.935563 
L 919.462799 431.265802 
L 920.61024 425.009372 
L 921.75768 433.676135 
L 922.90512 439.454455 
L 924.05256 427.513191 
L 924.05256 427.513191 
" clip-path="url(#p9eb7752bbc)" style="fill: none; stroke: #1f77b4; stroke-width: 1.5; stroke-linecap: square"/>
   </g>
   <g id="line2d_45">
    <path d="M 675.058054 663.64 
L 675.058054 385.08 
" clip-path="url(#p9eb7752bbc)" style="fill: none; stroke-dasharray: 5.55,2.4; stroke-dashoffset: 0; stroke: #808080; stroke-width: 1.5"/>
   </g>
   <g id="line2d_46">
    <path d="M 541.955 431.944054 
L 925.2 431.944054 
" clip-path="url(#p9eb7752bbc)" style="fill: none; stroke: #ff0000; stroke-opacity: 0.3; stroke-width: 1.5; stroke-linecap: square"/>
   </g>
   <g id="patch_16">
    <path d="M 541.955 663.64 
L 541.955 385.08 
" style="fill: none; stroke: #000000; stroke-width: 0.8; stroke-linejoin: miter; stroke-linecap: square"/>
   </g>
   <g id="patch_17">
    <path d="M 925.2 663.64 
L 925.2 385.08 
" style="fill: none; stroke: #000000; stroke-width: 0.8; stroke-linejoin: miter; stroke-linecap: square"/>
   </g>
   <g id="patch_18">
    <path d="M 541.955 663.64 
L 925.2 663.64 
" style="fill: none; stroke: #000000; stroke-width: 0.8; stroke-linejoin: miter; stroke-linecap: square"/>
   </g>
   <g id="patch_19">
    <path d="M 541.955 385.08 
L 925.2 385.08 
" style="fill: none; stroke: #000000; stroke-width: 0.8; stroke-linejoin: miter; stroke-linecap: square"/>
   </g>
   <g id="text_46">
    <!-- Temperature -->
    <g transform="translate(678.85255 379.08) scale(0.1728 -0.1728)">
     <defs>
      <path id="DejaVuSans-54" d="M -19 4666 
L 3928 4666 
L 3928 4134 
L 2272 4134 
L 2272 0 
L 1638 0 
L 1638 4134 
L -19 4134 
L -19 4666 
z
" transform="scale(0.015625)"/>
     </defs>
     <use xlink:href="#DejaVuSans-54"/>
     <use xlink:href="#DejaVuSans-65" x="44.083984"/>
     <use xlink:href="#DejaVuSans-6d" x="105.607422"/>
     <use xlink:href="#DejaVuSans-70" x="203.019531"/>
     <use xlink:href="#DejaVuSans-65" x="266.496094"/>
     <use xlink:href="#DejaVuSans-72" x="328.019531"/>
     <use xlink:href="#DejaVuSans-61" x="369.132812"/>
     <use xlink:href="#DejaVuSans-74" x="430.412109"/>
     <use xlink:href="#DejaVuSans-75" x="469.621094"/>
     <use xlink:href="#DejaVuSans-72" x="533"/>
     <use xlink:href="#DejaVuSans-65" x="571.863281"/>
    </g>
   </g>
  </g>
 </g>
 <defs>
  <clipPath id="p99efb69e2d">
   <rect x="92.09" y="30.48" width="833.11" height="278.56"/>
  </clipPath>
  <clipPath id="p9c8199e0ed">
   <rect x="92.09" y="385.08" width="383.245" height="278.56"/>
  </clipPath>
  <clipPath id="p9eb7752bbc">
   <rect x="541.955" y="385.08" width="383.245" height="278.56"/>
  </clipPath>
 </defs>
</svg>
