<?xml version="1.0" encoding="utf-8" standalone="no"?>
<!DOCTYPE svg PUBLIC "-//W3C//DTD SVG 1.1//EN"
  "http://www.w3.org/Graphics/SVG/1.1/DTD/svg11.dtd">
<svg xmlns:xlink="http://www.w3.org/1999/xlink" width="936pt" height="720pt" viewBox="0 0 936 720" xmlns="http://www.w3.org/2000/svg" version="1.1">
 <metadata>
  <rdf:RDF xmlns:dc="http://purl.org/dc/elements/1.1/" xmlns:cc="http://creativecommons.org/ns#" xmlns:rdf="http://www.w3.org/1999/02/22-rdf-syntax-ns#">
   <cc:Work>
    <dc:type rdf:resource="http://purl.org/dc/dcmitype/StillImage"/>
    <dc:date>2024-12-09T03:44:22.220921</dc:date>
    <dc:format>image/svg+xml</dc:format>
    <dc:creator>
     <cc:Agent>
      <dc:title>Matplotlib v3.8.0, https://matplotlib.org/</dc:title>
     </cc:Agent>
    </dc:creator>
   </cc:Work>
  </rdf:RDF>
 </metadata>
 <defs>
  <style type="text/css">*{stroke-linejoin: round; stroke-linecap: butt}</style>
 </defs>
 <g id="figure_1">
  <g id="patch_1">
   <path d="M 0 720 
L 936 720 
L 936 0 
L 0 0 
z
" style="fill: #ffffff"/>
  </g>
  <g id="axes_1">
   <g id="patch_2">
    <path d="M 81.11 309.04 
L 925.2 309.04 
L 925.2 30.48 
L 81.11 30.48 
z
" style="fill: #ffffff"/>
   </g>
   <g id="patch_3">
    <path d="M 81.11 309.04 
L 81.11 30.48 
L 398.275554 30.48 
L 398.275554 309.04 
z
" clip-path="url(#p8fe203f792)" style="fill: #808080; opacity: 0.15"/>
   </g>
   <g id="matplotlib.axis_1">
    <g id="xtick_1">
     <g id="line2d_1">
      <defs>
       <path id="m8e080a39df" d="M 0 0 
L 0 3.5 
" style="stroke: #000000; stroke-width: 0.8"/>
      </defs>
      <g>
       <use xlink:href="#m8e080a39df" x="81.11" y="309.04" style="stroke: #000000; stroke-width: 0.8"/>
      </g>
     </g>
     <g id="text_1">
      <!-- 0 -->
      <g transform="translate(75.6128 329.1701) scale(0.1728 -0.1728)">
       <defs>
        <path id="DejaVuSans-30" d="M 2034 4250 
Q 1547 4250 1301 3770 
Q 1056 3291 1056 2328 
Q 1056 1369 1301 889 
Q 1547 409 2034 409 
Q 2525 409 2770 889 
Q 3016 1369 3016 2328 
Q 3016 3291 2770 3770 
Q 2525 4250 2034 4250 
z
M 2034 4750 
Q 2819 4750 3233 4129 
Q 3647 3509 3647 2328 
Q 3647 1150 3233 529 
Q 2819 -91 2034 -91 
Q 1250 -91 836 529 
Q 422 1150 422 2328 
Q 422 3509 836 4129 
Q 1250 4750 2034 4750 
z
" transform="scale(0.015625)"/>
       </defs>
       <use xlink:href="#DejaVuSans-30"/>
      </g>
     </g>
    </g>
    <g id="xtick_2">
     <g id="line2d_2">
      <g>
       <use xlink:href="#m8e080a39df" x="207.470778" y="309.04" style="stroke: #000000; stroke-width: 0.8"/>
      </g>
     </g>
     <g id="text_2">
      <!-- 1 -->
      <g transform="translate(201.973578 329.1701) scale(0.1728 -0.1728)">
       <defs>
        <path id="DejaVuSans-31" d="M 794 531 
L 1825 531 
L 1825 4091 
L 703 3866 
L 703 4441 
L 1819 4666 
L 2450 4666 
L 2450 531 
L 3481 531 
L 3481 0 
L 794 0 
L 794 531 
z
" transform="scale(0.015625)"/>
       </defs>
       <use xlink:href="#DejaVuSans-31"/>
      </g>
     </g>
    </g>
    <g id="xtick_3">
     <g id="line2d_3">
      <g>
       <use xlink:href="#m8e080a39df" x="333.831557" y="309.04" style="stroke: #000000; stroke-width: 0.8"/>
      </g>
     </g>
     <g id="text_3">
      <!-- 2 -->
      <g transform="translate(328.334357 329.1701) scale(0.1728 -0.1728)">
       <defs>
        <path id="DejaVuSans-32" d="M 1228 531 
L 3431 531 
L 3431 0 
L 469 0 
L 469 531 
Q 828 903 1448 1529 
Q 2069 2156 2228 2338 
Q 2531 2678 2651 2914 
Q 2772 3150 2772 3378 
Q 2772 3750 2511 3984 
Q 2250 4219 1831 4219 
Q 1534 4219 1204 4116 
Q 875 4013 500 3803 
L 500 4441 
Q 881 4594 1212 4672 
Q 1544 4750 1819 4750 
Q 2544 4750 2975 4387 
Q 3406 4025 3406 3419 
Q 3406 3131 3298 2873 
Q 3191 2616 2906 2266 
Q 2828 2175 2409 1742 
Q 1991 1309 1228 531 
z
" transform="scale(0.015625)"/>
       </defs>
       <use xlink:href="#DejaVuSans-32"/>
      </g>
     </g>
    </g>
    <g id="xtick_4">
     <g id="line2d_4">
      <g>
       <use xlink:href="#m8e080a39df" x="460.192335" y="309.04" style="stroke: #000000; stroke-width: 0.8"/>
      </g>
     </g>
     <g id="text_4">
      <!-- 3 -->
      <g transform="translate(454.695135 329.1701) scale(0.1728 -0.1728)">
       <defs>
        <path id="DejaVuSans-33" d="M 2597 2516 
Q 3050 2419 3304 2112 
Q 3559 1806 3559 1356 
Q 3559 666 3084 287 
Q 2609 -91 1734 -91 
Q 1441 -91 1130 -33 
Q 819 25 488 141 
L 488 750 
Q 750 597 1062 519 
Q 1375 441 1716 441 
Q 2309 441 2620 675 
Q 2931 909 2931 1356 
Q 2931 1769 2642 2001 
Q 2353 2234 1838 2234 
L 1294 2234 
L 1294 2753 
L 1863 2753 
Q 2328 2753 2575 2939 
Q 2822 3125 2822 3475 
Q 2822 3834 2567 4026 
Q 2313 4219 1838 4219 
Q 1578 4219 1281 4162 
Q 984 4106 628 3988 
L 628 4550 
Q 988 4650 1302 4700 
Q 1616 4750 1894 4750 
Q 2613 4750 3031 4423 
Q 3450 4097 3450 3541 
Q 3450 3153 3228 2886 
Q 3006 2619 2597 2516 
z
" transform="scale(0.015625)"/>
       </defs>
       <use xlink:href="#DejaVuSans-33"/>
      </g>
     </g>
    </g>
    <g id="xtick_5">
     <g id="line2d_5">
      <g>
       <use xlink:href="#m8e080a39df" x="586.553114" y="309.04" style="stroke: #000000; stroke-width: 0.8"/>
      </g>
     </g>
     <g id="text_5">
      <!-- 4 -->
      <g transform="translate(581.055914 329.1701) scale(0.1728 -0.1728)">
       <defs>
        <path id="DejaVuSans-34" d="M 2419 4116 
L 825 1625 
L 2419 1625 
L 2419 4116 
z
M 2253 4666 
L 3047 4666 
L 3047 1625 
L 3713 1625 
L 3713 1100 
L 3047 1100 
L 3047 0 
L 2419 0 
L 2419 1100 
L 313 1100 
L 313 1709 
L 2253 4666 
z
" transform="scale(0.015625)"/>
       </defs>
       <use xlink:href="#DejaVuSans-34"/>
      </g>
     </g>
    </g>
    <g id="xtick_6">
     <g id="line2d_6">
      <g>
       <use xlink:href="#m8e080a39df" x="712.913892" y="309.04" style="stroke: #000000; stroke-width: 0.8"/>
      </g>
     </g>
     <g id="text_6">
      <!-- 5 -->
      <g transform="translate(707.416692 329.1701) scale(0.1728 -0.1728)">
       <defs>
        <path id="DejaVuSans-35" d="M 691 4666 
L 3169 4666 
L 3169 4134 
L 1269 4134 
L 1269 2991 
Q 1406 3038 1543 3061 
Q 1681 3084 1819 3084 
Q 2600 3084 3056 2656 
Q 3513 2228 3513 1497 
Q 3513 744 3044 326 
Q 2575 -91 1722 -91 
Q 1428 -91 1123 -41 
Q 819 9 494 109 
L 494 744 
Q 775 591 1075 516 
Q 1375 441 1709 441 
Q 2250 441 2565 725 
Q 2881 1009 2881 1497 
Q 2881 1984 2565 2268 
Q 2250 2553 1709 2553 
Q 1456 2553 1204 2497 
Q 953 2441 691 2322 
L 691 4666 
z
" transform="scale(0.015625)"/>
       </defs>
       <use xlink:href="#DejaVuSans-35"/>
      </g>
     </g>
    </g>
    <g id="xtick_7">
     <g id="line2d_7">
      <g>
       <use xlink:href="#m8e080a39df" x="839.274671" y="309.04" style="stroke: #000000; stroke-width: 0.8"/>
      </g>
     </g>
     <g id="text_7">
      <!-- 6 -->
      <g transform="translate(833.777471 329.1701) scale(0.1728 -0.1728)">
       <defs>
        <path id="DejaVuSans-36" d="M 2113 2584 
Q 1688 2584 1439 2293 
Q 1191 2003 1191 1497 
Q 1191 994 1439 701 
Q 1688 409 2113 409 
Q 2538 409 2786 701 
Q 3034 994 3034 1497 
Q 3034 2003 2786 2293 
Q 2538 2584 2113 2584 
z
M 3366 4563 
L 3366 3988 
Q 3128 4100 2886 4159 
Q 2644 4219 2406 4219 
Q 1781 4219 1451 3797 
Q 1122 3375 1075 2522 
Q 1259 2794 1537 2939 
Q 1816 3084 2150 3084 
Q 2853 3084 3261 2657 
Q 3669 2231 3669 1497 
Q 3669 778 3244 343 
Q 2819 -91 2113 -91 
Q 1303 -91 875 529 
Q 447 1150 447 2328 
Q 447 3434 972 4092 
Q 1497 4750 2381 4750 
Q 2619 4750 2861 4703 
Q 3103 4656 3366 4563 
z
" transform="scale(0.015625)"/>
       </defs>
       <use xlink:href="#DejaVuSans-36"/>
      </g>
     </g>
    </g>
    <g id="text_8">
     <!-- time in a.u. -->
     <g transform="translate(454.00555 349.8939) scale(0.1728 -0.1728)">
      <defs>
       <path id="DejaVuSans-74" d="M 1172 4494 
L 1172 3500 
L 2356 3500 
L 2356 3053 
L 1172 3053 
L 1172 1153 
Q 1172 725 1289 603 
Q 1406 481 1766 481 
L 2356 481 
L 2356 0 
L 1766 0 
Q 1100 0 847 248 
Q 594 497 594 1153 
L 594 3053 
L 172 3053 
L 172 3500 
L 594 3500 
L 594 4494 
L 1172 4494 
z
" transform="scale(0.015625)"/>
       <path id="DejaVuSans-69" d="M 603 3500 
L 1178 3500 
L 1178 0 
L 603 0 
L 603 3500 
z
M 603 4863 
L 1178 4863 
L 1178 4134 
L 603 4134 
L 603 4863 
z
" transform="scale(0.015625)"/>
       <path id="DejaVuSans-6d" d="M 3328 2828 
Q 3544 3216 3844 3400 
Q 4144 3584 4550 3584 
Q 5097 3584 5394 3201 
Q 5691 2819 5691 2113 
L 5691 0 
L 5113 0 
L 5113 2094 
Q 5113 2597 4934 2840 
Q 4756 3084 4391 3084 
Q 3944 3084 3684 2787 
Q 3425 2491 3425 1978 
L 3425 0 
L 2847 0 
L 2847 2094 
Q 2847 2600 2669 2842 
Q 2491 3084 2119 3084 
Q 1678 3084 1418 2786 
Q 1159 2488 1159 1978 
L 1159 0 
L 581 0 
L 581 3500 
L 1159 3500 
L 1159 2956 
Q 1356 3278 1631 3431 
Q 1906 3584 2284 3584 
Q 2666 3584 2933 3390 
Q 3200 3197 3328 2828 
z
" transform="scale(0.015625)"/>
       <path id="DejaVuSans-65" d="M 3597 1894 
L 3597 1613 
L 953 1613 
Q 991 1019 1311 708 
Q 1631 397 2203 397 
Q 2534 397 2845 478 
Q 3156 559 3463 722 
L 3463 178 
Q 3153 47 2828 -22 
Q 2503 -91 2169 -91 
Q 1331 -91 842 396 
Q 353 884 353 1716 
Q 353 2575 817 3079 
Q 1281 3584 2069 3584 
Q 2775 3584 3186 3129 
Q 3597 2675 3597 1894 
z
M 3022 2063 
Q 3016 2534 2758 2815 
Q 2500 3097 2075 3097 
Q 1594 3097 1305 2825 
Q 1016 2553 972 2059 
L 3022 2063 
z
" transform="scale(0.015625)"/>
       <path id="DejaVuSans-20" transform="scale(0.015625)"/>
       <path id="DejaVuSans-6e" d="M 3513 2113 
L 3513 0 
L 2938 0 
L 2938 2094 
Q 2938 2591 2744 2837 
Q 2550 3084 2163 3084 
Q 1697 3084 1428 2787 
Q 1159 2491 1159 1978 
L 1159 0 
L 581 0 
L 581 3500 
L 1159 3500 
L 1159 2956 
Q 1366 3272 1645 3428 
Q 1925 3584 2291 3584 
Q 2894 3584 3203 3211 
Q 3513 2838 3513 2113 
z
" transform="scale(0.015625)"/>
       <path id="DejaVuSans-61" d="M 2194 1759 
Q 1497 1759 1228 1600 
Q 959 1441 959 1056 
Q 959 750 1161 570 
Q 1363 391 1709 391 
Q 2188 391 2477 730 
Q 2766 1069 2766 1631 
L 2766 1759 
L 2194 1759 
z
M 3341 1997 
L 3341 0 
L 2766 0 
L 2766 531 
Q 2569 213 2275 61 
Q 1981 -91 1556 -91 
Q 1019 -91 701 211 
Q 384 513 384 1019 
Q 384 1609 779 1909 
Q 1175 2209 1959 2209 
L 2766 2209 
L 2766 2266 
Q 2766 2663 2505 2880 
Q 2244 3097 1772 3097 
Q 1472 3097 1187 3025 
Q 903 2953 641 2809 
L 641 3341 
Q 956 3463 1253 3523 
Q 1550 3584 1831 3584 
Q 2591 3584 2966 3190 
Q 3341 2797 3341 1997 
z
" transform="scale(0.015625)"/>
       <path id="DejaVuSans-2e" d="M 684 794 
L 1344 794 
L 1344 0 
L 684 0 
L 684 794 
z
" transform="scale(0.015625)"/>
       <path id="DejaVuSans-75" d="M 544 1381 
L 544 3500 
L 1119 3500 
L 1119 1403 
Q 1119 906 1312 657 
Q 1506 409 1894 409 
Q 2359 409 2629 706 
Q 2900 1003 2900 1516 
L 2900 3500 
L 3475 3500 
L 3475 0 
L 2900 0 
L 2900 538 
Q 2691 219 2414 64 
Q 2138 -91 1772 -91 
Q 1169 -91 856 284 
Q 544 659 544 1381 
z
M 1991 3584 
L 1991 3584 
z
" transform="scale(0.015625)"/>
      </defs>
      <use xlink:href="#DejaVuSans-74"/>
      <use xlink:href="#DejaVuSans-69" x="39.208984"/>
      <use xlink:href="#DejaVuSans-6d" x="66.992188"/>
      <use xlink:href="#DejaVuSans-65" x="164.404297"/>
      <use xlink:href="#DejaVuSans-20" x="225.927734"/>
      <use xlink:href="#DejaVuSans-69" x="257.714844"/>
      <use xlink:href="#DejaVuSans-6e" x="285.498047"/>
      <use xlink:href="#DejaVuSans-20" x="348.876953"/>
      <use xlink:href="#DejaVuSans-61" x="380.664062"/>
      <use xlink:href="#DejaVuSans-2e" x="441.943359"/>
      <use xlink:href="#DejaVuSans-75" x="473.730469"/>
      <use xlink:href="#DejaVuSans-2e" x="537.109375"/>
     </g>
    </g>
   </g>
   <g id="matplotlib.axis_2">
    <g id="ytick_1">
     <g id="line2d_8">
      <defs>
       <path id="md5afbe86ad" d="M 0 0 
L -3.5 0 
" style="stroke: #000000; stroke-width: 0.8"/>
      </defs>
      <g>
       <use xlink:href="#md5afbe86ad" x="81.11" y="302.104999" style="stroke: #000000; stroke-width: 0.8"/>
      </g>
     </g>
     <g id="text_9">
      <!-- −20 -->
      <g transform="translate(37.6411 308.670049) scale(0.1728 -0.1728)">
       <defs>
        <path id="DejaVuSans-2212" d="M 678 2272 
L 4684 2272 
L 4684 1741 
L 678 1741 
L 678 2272 
z
" transform="scale(0.015625)"/>
       </defs>
       <use xlink:href="#DejaVuSans-2212"/>
       <use xlink:href="#DejaVuSans-32" x="83.789062"/>
       <use xlink:href="#DejaVuSans-30" x="147.412109"/>
      </g>
     </g>
    </g>
    <g id="ytick_2">
     <g id="line2d_9">
      <g>
       <use xlink:href="#md5afbe86ad" x="81.11" y="251.821789" style="stroke: #000000; stroke-width: 0.8"/>
      </g>
     </g>
     <g id="text_10">
      <!-- 0 -->
      <g transform="translate(63.1156 258.386839) scale(0.1728 -0.1728)">
       <use xlink:href="#DejaVuSans-30"/>
      </g>
     </g>
    </g>
    <g id="ytick_3">
     <g id="line2d_10">
      <g>
       <use xlink:href="#md5afbe86ad" x="81.11" y="201.538579" style="stroke: #000000; stroke-width: 0.8"/>
      </g>
     </g>
     <g id="text_11">
      <!-- 20 -->
      <g transform="translate(52.1212 208.103629) scale(0.1728 -0.1728)">
       <use xlink:href="#DejaVuSans-32"/>
       <use xlink:href="#DejaVuSans-30" x="63.623047"/>
      </g>
     </g>
    </g>
    <g id="ytick_4">
     <g id="line2d_11">
      <g>
       <use xlink:href="#md5afbe86ad" x="81.11" y="151.255369" style="stroke: #000000; stroke-width: 0.8"/>
      </g>
     </g>
     <g id="text_12">
      <!-- 40 -->
      <g transform="translate(52.1212 157.820419) scale(0.1728 -0.1728)">
       <use xlink:href="#DejaVuSans-34"/>
       <use xlink:href="#DejaVuSans-30" x="63.623047"/>
      </g>
     </g>
    </g>
    <g id="ytick_5">
     <g id="line2d_12">
      <g>
       <use xlink:href="#md5afbe86ad" x="81.11" y="100.972159" style="stroke: #000000; stroke-width: 0.8"/>
      </g>
     </g>
     <g id="text_13">
      <!-- 60 -->
      <g transform="translate(52.1212 107.537209) scale(0.1728 -0.1728)">
       <use xlink:href="#DejaVuSans-36"/>
       <use xlink:href="#DejaVuSans-30" x="63.623047"/>
      </g>
     </g>
    </g>
    <g id="ytick_6">
     <g id="line2d_13">
      <g>
       <use xlink:href="#md5afbe86ad" x="81.11" y="50.688948" style="stroke: #000000; stroke-width: 0.8"/>
      </g>
     </g>
     <g id="text_14">
      <!-- 80 -->
      <g transform="translate(52.1212 57.253998) scale(0.1728 -0.1728)">
       <defs>
        <path id="DejaVuSans-38" d="M 2034 2216 
Q 1584 2216 1326 1975 
Q 1069 1734 1069 1313 
Q 1069 891 1326 650 
Q 1584 409 2034 409 
Q 2484 409 2743 651 
Q 3003 894 3003 1313 
Q 3003 1734 2745 1975 
Q 2488 2216 2034 2216 
z
M 1403 2484 
Q 997 2584 770 2862 
Q 544 3141 544 3541 
Q 544 4100 942 4425 
Q 1341 4750 2034 4750 
Q 2731 4750 3128 4425 
Q 3525 4100 3525 3541 
Q 3525 3141 3298 2862 
Q 3072 2584 2669 2484 
Q 3125 2378 3379 2068 
Q 3634 1759 3634 1313 
Q 3634 634 3220 271 
Q 2806 -91 2034 -91 
Q 1263 -91 848 271 
Q 434 634 434 1313 
Q 434 1759 690 2068 
Q 947 2378 1403 2484 
z
M 1172 3481 
Q 1172 3119 1398 2916 
Q 1625 2713 2034 2713 
Q 2441 2713 2670 2916 
Q 2900 3119 2900 3481 
Q 2900 3844 2670 4047 
Q 2441 4250 2034 4250 
Q 1625 4250 1398 4047 
Q 1172 3844 1172 3481 
z
" transform="scale(0.015625)"/>
       </defs>
       <use xlink:href="#DejaVuSans-38"/>
       <use xlink:href="#DejaVuSans-30" x="63.623047"/>
      </g>
     </g>
    </g>
    <g id="text_15">
     <!-- (avg. M=49) energy in a.u. -->
     <g transform="translate(30.0474 286.0598) rotate(-90) scale(0.1728 -0.1728)">
      <defs>
       <path id="DejaVuSans-28" d="M 1984 4856 
Q 1566 4138 1362 3434 
Q 1159 2731 1159 2009 
Q 1159 1288 1364 580 
Q 1569 -128 1984 -844 
L 1484 -844 
Q 1016 -109 783 600 
Q 550 1309 550 2009 
Q 550 2706 781 3412 
Q 1013 4119 1484 4856 
L 1984 4856 
z
" transform="scale(0.015625)"/>
       <path id="DejaVuSans-76" d="M 191 3500 
L 800 3500 
L 1894 563 
L 2988 3500 
L 3597 3500 
L 2284 0 
L 1503 0 
L 191 3500 
z
" transform="scale(0.015625)"/>
       <path id="DejaVuSans-67" d="M 2906 1791 
Q 2906 2416 2648 2759 
Q 2391 3103 1925 3103 
Q 1463 3103 1205 2759 
Q 947 2416 947 1791 
Q 947 1169 1205 825 
Q 1463 481 1925 481 
Q 2391 481 2648 825 
Q 2906 1169 2906 1791 
z
M 3481 434 
Q 3481 -459 3084 -895 
Q 2688 -1331 1869 -1331 
Q 1566 -1331 1297 -1286 
Q 1028 -1241 775 -1147 
L 775 -588 
Q 1028 -725 1275 -790 
Q 1522 -856 1778 -856 
Q 2344 -856 2625 -561 
Q 2906 -266 2906 331 
L 2906 616 
Q 2728 306 2450 153 
Q 2172 0 1784 0 
Q 1141 0 747 490 
Q 353 981 353 1791 
Q 353 2603 747 3093 
Q 1141 3584 1784 3584 
Q 2172 3584 2450 3431 
Q 2728 3278 2906 2969 
L 2906 3500 
L 3481 3500 
L 3481 434 
z
" transform="scale(0.015625)"/>
       <path id="DejaVuSans-4d" d="M 628 4666 
L 1569 4666 
L 2759 1491 
L 3956 4666 
L 4897 4666 
L 4897 0 
L 4281 0 
L 4281 4097 
L 3078 897 
L 2444 897 
L 1241 4097 
L 1241 0 
L 628 0 
L 628 4666 
z
" transform="scale(0.015625)"/>
       <path id="DejaVuSans-3d" d="M 678 2906 
L 4684 2906 
L 4684 2381 
L 678 2381 
L 678 2906 
z
M 678 1631 
L 4684 1631 
L 4684 1100 
L 678 1100 
L 678 1631 
z
" transform="scale(0.015625)"/>
       <path id="DejaVuSans-39" d="M 703 97 
L 703 672 
Q 941 559 1184 500 
Q 1428 441 1663 441 
Q 2288 441 2617 861 
Q 2947 1281 2994 2138 
Q 2813 1869 2534 1725 
Q 2256 1581 1919 1581 
Q 1219 1581 811 2004 
Q 403 2428 403 3163 
Q 403 3881 828 4315 
Q 1253 4750 1959 4750 
Q 2769 4750 3195 4129 
Q 3622 3509 3622 2328 
Q 3622 1225 3098 567 
Q 2575 -91 1691 -91 
Q 1453 -91 1209 -44 
Q 966 3 703 97 
z
M 1959 2075 
Q 2384 2075 2632 2365 
Q 2881 2656 2881 3163 
Q 2881 3666 2632 3958 
Q 2384 4250 1959 4250 
Q 1534 4250 1286 3958 
Q 1038 3666 1038 3163 
Q 1038 2656 1286 2365 
Q 1534 2075 1959 2075 
z
" transform="scale(0.015625)"/>
       <path id="DejaVuSans-29" d="M 513 4856 
L 1013 4856 
Q 1481 4119 1714 3412 
Q 1947 2706 1947 2009 
Q 1947 1309 1714 600 
Q 1481 -109 1013 -844 
L 513 -844 
Q 928 -128 1133 580 
Q 1338 1288 1338 2009 
Q 1338 2731 1133 3434 
Q 928 4138 513 4856 
z
" transform="scale(0.015625)"/>
       <path id="DejaVuSans-72" d="M 2631 2963 
Q 2534 3019 2420 3045 
Q 2306 3072 2169 3072 
Q 1681 3072 1420 2755 
Q 1159 2438 1159 1844 
L 1159 0 
L 581 0 
L 581 3500 
L 1159 3500 
L 1159 2956 
Q 1341 3275 1631 3429 
Q 1922 3584 2338 3584 
Q 2397 3584 2469 3576 
Q 2541 3569 2628 3553 
L 2631 2963 
z
" transform="scale(0.015625)"/>
       <path id="DejaVuSans-79" d="M 2059 -325 
Q 1816 -950 1584 -1140 
Q 1353 -1331 966 -1331 
L 506 -1331 
L 506 -850 
L 844 -850 
Q 1081 -850 1212 -737 
Q 1344 -625 1503 -206 
L 1606 56 
L 191 3500 
L 800 3500 
L 1894 763 
L 2988 3500 
L 3597 3500 
L 2059 -325 
z
" transform="scale(0.015625)"/>
      </defs>
      <use xlink:href="#DejaVuSans-28"/>
      <use xlink:href="#DejaVuSans-61" x="39.013672"/>
      <use xlink:href="#DejaVuSans-76" x="100.292969"/>
      <use xlink:href="#DejaVuSans-67" x="159.472656"/>
      <use xlink:href="#DejaVuSans-2e" x="222.949219"/>
      <use xlink:href="#DejaVuSans-20" x="254.736328"/>
      <use xlink:href="#DejaVuSans-4d" x="286.523438"/>
      <use xlink:href="#DejaVuSans-3d" x="372.802734"/>
      <use xlink:href="#DejaVuSans-34" x="456.591797"/>
      <use xlink:href="#DejaVuSans-39" x="520.214844"/>
      <use xlink:href="#DejaVuSans-29" x="583.837891"/>
      <use xlink:href="#DejaVuSans-20" x="622.851562"/>
      <use xlink:href="#DejaVuSans-65" x="654.638672"/>
      <use xlink:href="#DejaVuSans-6e" x="716.162109"/>
      <use xlink:href="#DejaVuSans-65" x="779.541016"/>
      <use xlink:href="#DejaVuSans-72" x="841.064453"/>
      <use xlink:href="#DejaVuSans-67" x="880.427734"/>
      <use xlink:href="#DejaVuSans-79" x="943.904297"/>
      <use xlink:href="#DejaVuSans-20" x="1003.083984"/>
      <use xlink:href="#DejaVuSans-69" x="1034.871094"/>
      <use xlink:href="#DejaVuSans-6e" x="1062.654297"/>
      <use xlink:href="#DejaVuSans-20" x="1126.033203"/>
      <use xlink:href="#DejaVuSans-61" x="1157.820312"/>
      <use xlink:href="#DejaVuSans-2e" x="1219.099609"/>
      <use xlink:href="#DejaVuSans-75" x="1250.886719"/>
      <use xlink:href="#DejaVuSans-2e" x="1314.265625"/>
     </g>
    </g>
   </g>
   <g id="line2d_14">
    <path d="M 143.026781 157.010014 
L 144.290389 155.872977 
L 146.817605 158.27303 
L 149.34482 160.675922 
L 151.872036 163.103807 
L 153.135644 164.17906 
L 154.399251 165.090011 
L 159.453683 167.84643 
L 164.508114 170.233964 
L 165.771722 170.594177 
L 169.562545 171.39687 
L 172.08976 171.857178 
L 173.353368 171.993794 
L 174.616976 172.291936 
L 177.144192 173.078357 
L 179.671407 173.655336 
L 182.198623 174.009378 
L 183.462231 174.327958 
L 188.516662 176.289978 
L 189.780269 176.66678 
L 192.307485 177.086877 
L 196.098308 178.192799 
L 198.625524 178.745048 
L 201.15274 179.146902 
L 203.679955 179.352262 
L 206.207171 179.479478 
L 207.470778 179.601273 
L 208.734386 179.598329 
L 212.52521 180.057359 
L 218.843249 180.251629 
L 223.89768 180.917359 
L 231.479326 182.312496 
L 234.006542 182.902645 
L 236.533757 183.340849 
L 237.797365 183.667624 
L 241.588189 184.165919 
L 245.379012 185.376918 
L 250.433443 185.84945 
L 252.960659 186.325473 
L 255.487874 187.125154 
L 256.751482 187.308842 
L 258.01509 187.356815 
L 259.278698 187.542013 
L 261.805913 188.075311 
L 263.069521 188.136404 
L 264.333129 188.372309 
L 268.123952 189.340179 
L 274.441991 190.425416 
L 276.969207 190.467489 
L 278.232814 190.643436 
L 279.496422 190.983978 
L 282.023638 191.347143 
L 285.814461 192.110998 
L 289.605284 192.712784 
L 290.868892 192.996787 
L 295.923323 193.389278 
L 298.450539 194.08728 
L 300.977754 194.402858 
L 304.768578 195.087442 
L 311.086617 196.044758 
L 317.404656 197.186717 
L 321.195479 197.530153 
L 330.040734 198.565476 
L 332.567949 198.639297 
L 335.095165 198.738189 
L 341.413204 199.405064 
L 348.99485 199.666817 
L 351.522066 199.476616 
L 355.312889 199.695381 
L 362.894536 198.935414 
L 365.421751 198.802659 
L 367.948967 198.586589 
L 371.73979 198.936494 
L 374.267006 199.334672 
L 376.794222 199.516769 
L 379.321437 199.920382 
L 383.11226 200.788257 
L 385.639476 201.141907 
L 386.903084 201.456387 
L 390.693907 201.788564 
L 391.957515 201.843381 
L 394.484731 202.281256 
L 397.011946 202.728338 
L 412.17524 204.540013 
L 414.702455 204.718881 
L 418.493278 205.322067 
L 419.756886 205.410873 
L 422.284102 205.354814 
L 426.074925 205.671829 
L 428.602141 205.939933 
L 433.656572 205.894557 
L 436.183787 205.867689 
L 438.711003 205.856905 
L 439.974611 205.920756 
L 442.501826 205.792114 
L 445.029042 205.65583 
L 450.083473 205.008966 
L 453.874296 204.954119 
L 455.137904 204.95927 
L 460.192335 204.512226 
L 465.246766 204.374108 
L 470.301198 203.763167 
L 477.882844 203.231346 
L 479.146452 203.151615 
L 482.937275 203.509503 
L 487.991707 203.45859 
L 490.518922 203.282426 
L 491.78253 203.220827 
L 498.100569 202.421348 
L 499.364177 202.364086 
L 500.627784 202.177221 
L 505.682216 200.91099 
L 514.52747 199.767223 
L 515.791078 199.721221 
L 525.89994 198.327914 
L 528.427156 198.2835 
L 532.217979 197.847519 
L 534.745195 197.62772 
L 536.008802 197.461973 
L 538.536018 197.426816 
L 546.117665 197.689304 
L 548.64488 197.630944 
L 551.172096 197.397483 
L 552.435704 197.404276 
L 556.226527 198.063476 
L 561.280958 197.882225 
L 563.808174 198.009403 
L 566.335389 198.27096 
L 567.598997 198.292175 
L 570.126213 198.691156 
L 575.180644 199.690991 
L 577.707859 200.083535 
L 580.235075 200.921641 
L 584.025898 201.54678 
L 586.553114 201.979068 
L 592.871153 203.331088 
L 595.398368 203.676505 
L 596.661976 203.762059 
L 602.980015 205.216051 
L 608.034446 206.267164 
L 611.825269 206.66893 
L 615.616093 207.299224 
L 620.670524 207.800696 
L 621.934132 207.918136 
L 624.461347 207.991035 
L 628.252171 208.837686 
L 630.779386 209.231903 
L 633.306602 209.394221 
L 635.833817 209.351204 
L 639.624641 209.752033 
L 642.151856 209.701537 
L 645.94268 210.167215 
L 648.469895 210.547053 
L 653.524326 211.134668 
L 656.051542 211.571954 
L 658.578757 211.585831 
L 666.160404 211.311892 
L 669.951228 210.68462 
L 678.796482 210.056919 
L 681.323698 209.711626 
L 687.641737 209.135646 
L 690.168952 208.922078 
L 695.223383 208.765471 
L 700.277814 209.012941 
L 702.80503 208.4452 
L 704.068638 208.18378 
L 710.386677 207.987029 
L 712.913892 207.865513 
L 719.231931 207.733398 
L 720.495539 207.832426 
L 723.022754 207.702049 
L 730.604401 206.702076 
L 738.186048 206.51533 
L 740.713263 206.383503 
L 747.031302 206.856172 
L 748.29491 207.039538 
L 755.876557 206.674283 
L 757.140165 206.847956 
L 759.66738 207.456242 
L 760.930988 207.609321 
L 762.194596 207.58713 
L 763.458204 207.378654 
L 767.249027 207.391231 
L 771.03985 207.241354 
L 773.567066 207.525464 
L 776.094281 207.40403 
L 779.885105 207.186541 
L 782.41232 207.504418 
L 783.675928 207.696842 
L 789.993967 207.699221 
L 791.257575 207.775459 
L 793.78479 208.326371 
L 796.312006 208.288208 
L 798.839222 208.57993 
L 801.366437 208.661187 
L 803.893653 208.561376 
L 806.420868 208.670803 
L 808.948084 208.623575 
L 812.738907 208.750516 
L 819.056946 208.277928 
L 822.847769 207.323394 
L 824.111377 207.233848 
L 827.902201 207.619489 
L 829.165808 207.666489 
L 831.693024 207.402607 
L 836.747455 207.172016 
L 839.274671 206.931363 
L 843.065494 207.08132 
L 845.59271 206.838604 
L 846.856317 206.666515 
L 849.383533 206.614091 
L 851.910749 206.587762 
L 858.228787 206.136331 
L 860.756003 206.143296 
L 862.019611 206.255655 
L 862.019611 206.255655 
" clip-path="url(#p8fe203f792)" style="fill: none; stroke: #1f77b4; stroke-width: 1.5; stroke-linecap: square"/>
   </g>
   <g id="line2d_15">
    <path d="M 398.275554 309.04 
L 398.275554 30.48 
" clip-path="url(#p8fe203f792)" style="fill: none; stroke-dasharray: 5.55,2.4; stroke-dashoffset: 0; stroke: #808080; stroke-width: 1.5"/>
   </g>
   <g id="line2d_16">
    <path d="M 81.11 205.411322 
L 925.2 205.411322 
" clip-path="url(#p8fe203f792)" style="fill: none; stroke: #ff0000; stroke-opacity: 0.3; stroke-width: 1.5; stroke-linecap: square"/>
   </g>
   <g id="patch_4">
    <path d="M 81.11 309.04 
L 81.11 30.48 
" style="fill: none; stroke: #000000; stroke-width: 0.8; stroke-linejoin: miter; stroke-linecap: square"/>
   </g>
   <g id="patch_5">
    <path d="M 925.2 309.04 
L 925.2 30.48 
" style="fill: none; stroke: #000000; stroke-width: 0.8; stroke-linejoin: miter; stroke-linecap: square"/>
   </g>
   <g id="patch_6">
    <path d="M 81.11 309.04 
L 925.2 309.04 
" style="fill: none; stroke: #000000; stroke-width: 0.8; stroke-linejoin: miter; stroke-linecap: square"/>
   </g>
   <g id="patch_7">
    <path d="M 81.11 30.48 
L 925.2 30.48 
" style="fill: none; stroke: #000000; stroke-width: 0.8; stroke-linejoin: miter; stroke-linecap: square"/>
   </g>
   <g id="text_16">
    <!-- Energy -->
    <g transform="translate(472.9042 24.48) scale(0.1728 -0.1728)">
     <defs>
      <path id="DejaVuSans-45" d="M 628 4666 
L 3578 4666 
L 3578 4134 
L 1259 4134 
L 1259 2753 
L 3481 2753 
L 3481 2222 
L 1259 2222 
L 1259 531 
L 3634 531 
L 3634 0 
L 628 0 
L 628 4666 
z
" transform="scale(0.015625)"/>
     </defs>
     <use xlink:href="#DejaVuSans-45"/>
     <use xlink:href="#DejaVuSans-6e" x="63.183594"/>
     <use xlink:href="#DejaVuSans-65" x="126.5625"/>
     <use xlink:href="#DejaVuSans-72" x="188.085938"/>
     <use xlink:href="#DejaVuSans-67" x="227.449219"/>
     <use xlink:href="#DejaVuSans-79" x="290.925781"/>
    </g>
   </g>
  </g>
  <g id="axes_2">
   <g id="patch_8">
    <path d="M 81.11 663.64 
L 469.845 663.64 
L 469.845 385.08 
L 81.11 385.08 
z
" style="fill: #ffffff"/>
   </g>
   <g id="patch_9">
    <path d="M 81.11 663.64 
L 81.11 385.08 
L 227.176594 385.08 
L 227.176594 663.64 
z
" clip-path="url(#p68a7e08df8)" style="fill: #808080; opacity: 0.15"/>
   </g>
   <g id="matplotlib.axis_3">
    <g id="xtick_8">
     <g id="line2d_17">
      <g>
       <use xlink:href="#m8e080a39df" x="81.11" y="663.64" style="stroke: #000000; stroke-width: 0.8"/>
      </g>
     </g>
     <g id="text_17">
      <!-- 0 -->
      <g transform="translate(75.6128 683.7701) scale(0.1728 -0.1728)">
       <use xlink:href="#DejaVuSans-30"/>
      </g>
     </g>
    </g>
    <g id="xtick_9">
     <g id="line2d_18">
      <g>
       <use xlink:href="#m8e080a39df" x="139.303862" y="663.64" style="stroke: #000000; stroke-width: 0.8"/>
      </g>
     </g>
     <g id="text_18">
      <!-- 1 -->
      <g transform="translate(133.806662 683.7701) scale(0.1728 -0.1728)">
       <use xlink:href="#DejaVuSans-31"/>
      </g>
     </g>
    </g>
    <g id="xtick_10">
     <g id="line2d_19">
      <g>
       <use xlink:href="#m8e080a39df" x="197.497725" y="663.64" style="stroke: #000000; stroke-width: 0.8"/>
      </g>
     </g>
     <g id="text_19">
      <!-- 2 -->
      <g transform="translate(192.000525 683.7701) scale(0.1728 -0.1728)">
       <use xlink:href="#DejaVuSans-32"/>
      </g>
     </g>
    </g>
    <g id="xtick_11">
     <g id="line2d_20">
      <g>
       <use xlink:href="#m8e080a39df" x="255.691587" y="663.64" style="stroke: #000000; stroke-width: 0.8"/>
      </g>
     </g>
     <g id="text_20">
      <!-- 3 -->
      <g transform="translate(250.194387 683.7701) scale(0.1728 -0.1728)">
       <use xlink:href="#DejaVuSans-33"/>
      </g>
     </g>
    </g>
    <g id="xtick_12">
     <g id="line2d_21">
      <g>
       <use xlink:href="#m8e080a39df" x="313.885449" y="663.64" style="stroke: #000000; stroke-width: 0.8"/>
      </g>
     </g>
     <g id="text_21">
      <!-- 4 -->
      <g transform="translate(308.388249 683.7701) scale(0.1728 -0.1728)">
       <use xlink:href="#DejaVuSans-34"/>
      </g>
     </g>
    </g>
    <g id="xtick_13">
     <g id="line2d_22">
      <g>
       <use xlink:href="#m8e080a39df" x="372.079311" y="663.64" style="stroke: #000000; stroke-width: 0.8"/>
      </g>
     </g>
     <g id="text_22">
      <!-- 5 -->
      <g transform="translate(366.582111 683.7701) scale(0.1728 -0.1728)">
       <use xlink:href="#DejaVuSans-35"/>
      </g>
     </g>
    </g>
    <g id="xtick_14">
     <g id="line2d_23">
      <g>
       <use xlink:href="#m8e080a39df" x="430.273174" y="663.64" style="stroke: #000000; stroke-width: 0.8"/>
      </g>
     </g>
     <g id="text_23">
      <!-- 6 -->
      <g transform="translate(424.775974 683.7701) scale(0.1728 -0.1728)">
       <use xlink:href="#DejaVuSans-36"/>
      </g>
     </g>
    </g>
    <g id="text_24">
     <!-- time in a.u. -->
     <g transform="translate(226.32805 704.4939) scale(0.1728 -0.1728)">
      <use xlink:href="#DejaVuSans-74"/>
      <use xlink:href="#DejaVuSans-69" x="39.208984"/>
      <use xlink:href="#DejaVuSans-6d" x="66.992188"/>
      <use xlink:href="#DejaVuSans-65" x="164.404297"/>
      <use xlink:href="#DejaVuSans-20" x="225.927734"/>
      <use xlink:href="#DejaVuSans-69" x="257.714844"/>
      <use xlink:href="#DejaVuSans-6e" x="285.498047"/>
      <use xlink:href="#DejaVuSans-20" x="348.876953"/>
      <use xlink:href="#DejaVuSans-61" x="380.664062"/>
      <use xlink:href="#DejaVuSans-2e" x="441.943359"/>
      <use xlink:href="#DejaVuSans-75" x="473.730469"/>
      <use xlink:href="#DejaVuSans-2e" x="537.109375"/>
     </g>
    </g>
   </g>
   <g id="matplotlib.axis_4">
    <g id="ytick_7">
     <g id="line2d_24">
      <g>
       <use xlink:href="#md5afbe86ad" x="81.11" y="635.998354" style="stroke: #000000; stroke-width: 0.8"/>
      </g>
     </g>
     <g id="text_25">
      <!-- −0.2 -->
      <g transform="translate(32.1493 642.563404) scale(0.1728 -0.1728)">
       <use xlink:href="#DejaVuSans-2212"/>
       <use xlink:href="#DejaVuSans-30" x="83.789062"/>
       <use xlink:href="#DejaVuSans-2e" x="147.412109"/>
       <use xlink:href="#DejaVuSans-32" x="179.199219"/>
      </g>
     </g>
    </g>
    <g id="ytick_8">
     <g id="line2d_25">
      <g>
       <use xlink:href="#md5afbe86ad" x="81.11" y="567.452464" style="stroke: #000000; stroke-width: 0.8"/>
      </g>
     </g>
     <g id="text_26">
      <!-- 0.0 -->
      <g transform="translate(46.6294 574.017514) scale(0.1728 -0.1728)">
       <use xlink:href="#DejaVuSans-30"/>
       <use xlink:href="#DejaVuSans-2e" x="63.623047"/>
       <use xlink:href="#DejaVuSans-30" x="95.410156"/>
      </g>
     </g>
    </g>
    <g id="ytick_9">
     <g id="line2d_26">
      <g>
       <use xlink:href="#md5afbe86ad" x="81.11" y="498.906573" style="stroke: #000000; stroke-width: 0.8"/>
      </g>
     </g>
     <g id="text_27">
      <!-- 0.2 -->
      <g transform="translate(46.6294 505.471623) scale(0.1728 -0.1728)">
       <use xlink:href="#DejaVuSans-30"/>
       <use xlink:href="#DejaVuSans-2e" x="63.623047"/>
       <use xlink:href="#DejaVuSans-32" x="95.410156"/>
      </g>
     </g>
    </g>
    <g id="ytick_10">
     <g id="line2d_27">
      <g>
       <use xlink:href="#md5afbe86ad" x="81.11" y="430.360683" style="stroke: #000000; stroke-width: 0.8"/>
      </g>
     </g>
     <g id="text_28">
      <!-- 0.4 -->
      <g transform="translate(46.6294 436.925733) scale(0.1728 -0.1728)">
       <use xlink:href="#DejaVuSans-30"/>
       <use xlink:href="#DejaVuSans-2e" x="63.623047"/>
       <use xlink:href="#DejaVuSans-34" x="95.410156"/>
      </g>
     </g>
    </g>
    <g id="text_29">
     <!-- (avg. M=49) pressure in a.u. -->
     <g transform="translate(24.5556 647.86205) rotate(-90) scale(0.1728 -0.1728)">
      <defs>
       <path id="DejaVuSans-70" d="M 1159 525 
L 1159 -1331 
L 581 -1331 
L 581 3500 
L 1159 3500 
L 1159 2969 
Q 1341 3281 1617 3432 
Q 1894 3584 2278 3584 
Q 2916 3584 3314 3078 
Q 3713 2572 3713 1747 
Q 3713 922 3314 415 
Q 2916 -91 2278 -91 
Q 1894 -91 1617 61 
Q 1341 213 1159 525 
z
M 3116 1747 
Q 3116 2381 2855 2742 
Q 2594 3103 2138 3103 
Q 1681 3103 1420 2742 
Q 1159 2381 1159 1747 
Q 1159 1113 1420 752 
Q 1681 391 2138 391 
Q 2594 391 2855 752 
Q 3116 1113 3116 1747 
z
" transform="scale(0.015625)"/>
       <path id="DejaVuSans-73" d="M 2834 3397 
L 2834 2853 
Q 2591 2978 2328 3040 
Q 2066 3103 1784 3103 
Q 1356 3103 1142 2972 
Q 928 2841 928 2578 
Q 928 2378 1081 2264 
Q 1234 2150 1697 2047 
L 1894 2003 
Q 2506 1872 2764 1633 
Q 3022 1394 3022 966 
Q 3022 478 2636 193 
Q 2250 -91 1575 -91 
Q 1294 -91 989 -36 
Q 684 19 347 128 
L 347 722 
Q 666 556 975 473 
Q 1284 391 1588 391 
Q 1994 391 2212 530 
Q 2431 669 2431 922 
Q 2431 1156 2273 1281 
Q 2116 1406 1581 1522 
L 1381 1569 
Q 847 1681 609 1914 
Q 372 2147 372 2553 
Q 372 3047 722 3315 
Q 1072 3584 1716 3584 
Q 2034 3584 2315 3537 
Q 2597 3491 2834 3397 
z
" transform="scale(0.015625)"/>
      </defs>
      <use xlink:href="#DejaVuSans-28"/>
      <use xlink:href="#DejaVuSans-61" x="39.013672"/>
      <use xlink:href="#DejaVuSans-76" x="100.292969"/>
      <use xlink:href="#DejaVuSans-67" x="159.472656"/>
      <use xlink:href="#DejaVuSans-2e" x="222.949219"/>
      <use xlink:href="#DejaVuSans-20" x="254.736328"/>
      <use xlink:href="#DejaVuSans-4d" x="286.523438"/>
      <use xlink:href="#DejaVuSans-3d" x="372.802734"/>
      <use xlink:href="#DejaVuSans-34" x="456.591797"/>
      <use xlink:href="#DejaVuSans-39" x="520.214844"/>
      <use xlink:href="#DejaVuSans-29" x="583.837891"/>
      <use xlink:href="#DejaVuSans-20" x="622.851562"/>
      <use xlink:href="#DejaVuSans-70" x="654.638672"/>
      <use xlink:href="#DejaVuSans-72" x="718.115234"/>
      <use xlink:href="#DejaVuSans-65" x="756.978516"/>
      <use xlink:href="#DejaVuSans-73" x="818.501953"/>
      <use xlink:href="#DejaVuSans-73" x="870.601562"/>
      <use xlink:href="#DejaVuSans-75" x="922.701172"/>
      <use xlink:href="#DejaVuSans-72" x="986.080078"/>
      <use xlink:href="#DejaVuSans-65" x="1024.943359"/>
      <use xlink:href="#DejaVuSans-20" x="1086.466797"/>
      <use xlink:href="#DejaVuSans-69" x="1118.253906"/>
      <use xlink:href="#DejaVuSans-6e" x="1146.037109"/>
      <use xlink:href="#DejaVuSans-20" x="1209.416016"/>
      <use xlink:href="#DejaVuSans-61" x="1241.203125"/>
      <use xlink:href="#DejaVuSans-2e" x="1302.482422"/>
      <use xlink:href="#DejaVuSans-75" x="1334.269531"/>
      <use xlink:href="#DejaVuSans-2e" x="1397.648438"/>
     </g>
    </g>
   </g>
   <g id="line2d_28">
    <path d="M 109.624993 505.502992 
L 110.206931 504.538915 
L 110.78887 503.816122 
L 111.370808 503.292617 
L 111.952747 503.216989 
L 113.116624 503.354156 
L 113.698563 503.083487 
L 114.280501 502.347755 
L 114.86244 501.083353 
L 116.026317 499.462243 
L 116.608256 498.746509 
L 117.190195 498.548434 
L 117.772133 498.562227 
L 118.354072 499.258763 
L 118.93601 500.199541 
L 119.517949 500.510164 
L 120.681826 500.540129 
L 121.845704 501.248464 
L 122.427642 501.322606 
L 123.009581 501.215351 
L 123.591519 501.581099 
L 124.173458 502.357422 
L 124.755397 502.815536 
L 125.337335 503.020405 
L 125.919274 502.740168 
L 127.083151 501.371742 
L 127.66509 501.141707 
L 128.247028 501.576333 
L 129.992844 502.213806 
L 130.574783 501.805408 
L 131.73866 499.758195 
L 132.320599 499.45988 
L 134.066415 499.119848 
L 134.648353 499.154582 
L 135.230292 499.347762 
L 135.812231 499.659295 
L 136.976108 500.663169 
L 137.558046 501.342568 
L 138.139985 502.477171 
L 138.721924 503.856468 
L 139.303862 504.921305 
L 140.46774 508.039704 
L 141.049678 508.941192 
L 141.631617 509.337616 
L 142.213555 509.378598 
L 142.795494 509.234576 
L 143.377433 508.958475 
L 143.959371 508.987808 
L 144.54131 509.226045 
L 145.705187 510.122576 
L 146.287126 510.615922 
L 148.032942 512.459555 
L 148.61488 512.831049 
L 149.778757 513.405395 
L 150.360696 513.96322 
L 150.942635 514.276503 
L 151.524573 514.291087 
L 152.106512 514.620727 
L 152.688451 515.199005 
L 153.270389 515.360703 
L 153.852328 515.331418 
L 154.434266 515.710375 
L 155.598144 518.350953 
L 156.180082 519.047284 
L 157.34396 519.053414 
L 157.925898 519.066534 
L 158.507837 519.313138 
L 159.671714 520.437954 
L 160.835591 522.245614 
L 161.41753 522.286564 
L 161.999469 521.758805 
L 162.581407 521.612087 
L 163.163346 521.868165 
L 163.745284 521.911658 
L 164.327223 521.407157 
L 164.909162 521.463207 
L 166.073039 522.434841 
L 166.654978 522.648629 
L 167.818855 522.601814 
L 168.400793 522.380439 
L 168.982732 521.796083 
L 169.564671 520.904152 
L 170.146609 519.654765 
L 170.728548 518.802411 
L 171.310487 518.604137 
L 171.892425 519.245402 
L 172.474364 519.561025 
L 173.056302 520.214575 
L 174.22018 522.057589 
L 174.802118 522.951139 
L 177.129873 525.074285 
L 177.711811 524.870016 
L 178.29375 524.258771 
L 178.875689 523.932986 
L 179.457627 524.024529 
L 180.621504 525.754904 
L 181.785382 526.584308 
L 182.949259 527.872979 
L 183.531198 528.387902 
L 184.113136 528.638785 
L 184.695075 529.071966 
L 185.277013 529.040106 
L 186.440891 528.536827 
L 188.768645 528.273262 
L 189.350584 528.021878 
L 189.932522 527.451986 
L 190.514461 527.071254 
L 191.0964 526.965022 
L 192.260277 527.159756 
L 193.424154 527.589931 
L 194.588031 528.033427 
L 195.16997 527.657342 
L 195.751909 526.86117 
L 197.497725 525.386884 
L 198.661602 525.624268 
L 199.825479 526.04893 
L 200.407418 526.019305 
L 201.571295 525.607765 
L 202.153234 525.455353 
L 203.317111 525.36842 
L 203.899049 525.103225 
L 204.480988 524.703892 
L 205.062927 524.591096 
L 205.644865 525.079274 
L 206.226804 525.942526 
L 206.808743 526.561467 
L 207.97262 526.421689 
L 209.136497 525.824007 
L 209.718436 525.88564 
L 210.882313 526.357996 
L 211.464251 526.248282 
L 212.04619 525.84383 
L 212.628129 525.603234 
L 214.955883 526.240265 
L 215.537822 526.112664 
L 216.11976 525.398421 
L 216.701699 524.883665 
L 217.283638 524.561584 
L 217.865576 524.440836 
L 218.447515 524.60029 
L 219.029454 524.949829 
L 219.611392 524.987178 
L 220.775269 524.469968 
L 221.357208 524.569851 
L 221.939147 524.044691 
L 223.684963 521.829603 
L 224.266901 521.695544 
L 226.012717 522.794856 
L 226.594656 522.916457 
L 227.176594 523.244459 
L 227.758533 523.253024 
L 228.340472 522.912795 
L 228.92241 522.392224 
L 230.086287 522.19029 
L 230.668226 521.791469 
L 232.414042 519.799562 
L 234.159858 518.458366 
L 234.741796 518.702454 
L 235.323735 519.108 
L 235.905674 519.027243 
L 236.487612 518.805636 
L 237.65149 517.540634 
L 238.233428 517.323084 
L 240.561183 517.316539 
L 241.143121 516.776287 
L 241.72506 515.951188 
L 242.306999 515.900925 
L 244.052814 516.83222 
L 244.634753 517.114515 
L 245.79863 518.449876 
L 247.544446 519.005148 
L 248.126385 518.802703 
L 249.290262 517.746665 
L 249.872201 517.081376 
L 250.454139 516.6093 
L 251.036078 516.463271 
L 251.618016 516.592198 
L 252.199955 516.944396 
L 252.781894 517.44171 
L 253.945771 517.889052 
L 254.52771 518.385834 
L 255.109648 519.131199 
L 256.273525 521.047679 
L 257.437403 522.672763 
L 258.019341 522.767985 
L 258.60128 522.691842 
L 259.183219 522.356472 
L 260.347096 521.34033 
L 260.929034 521.029098 
L 262.092912 520.026607 
L 263.256789 518.670315 
L 263.838728 518.542994 
L 264.420666 519.357378 
L 265.002605 520.558316 
L 265.584543 521.429118 
L 266.748421 522.604932 
L 267.330359 523.154379 
L 267.912298 523.435803 
L 268.494237 523.391898 
L 269.658114 523.698013 
L 270.821991 523.513543 
L 271.40393 523.534037 
L 271.985868 523.35477 
L 272.567807 523.664113 
L 273.149746 524.220437 
L 273.731684 524.396421 
L 275.4775 523.300079 
L 276.059439 523.26282 
L 277.223316 523.804766 
L 278.387193 524.146293 
L 278.969132 524.592376 
L 279.55107 524.81082 
L 280.714948 525.531635 
L 281.296886 525.389325 
L 281.878825 524.899393 
L 282.460763 524.693041 
L 283.624641 525.216604 
L 284.206579 525.199008 
L 284.788518 525.332218 
L 285.370457 526.027085 
L 286.534334 527.951515 
L 287.116272 528.323207 
L 287.698211 528.478286 
L 288.862088 529.153793 
L 289.444027 529.018334 
L 290.025966 528.713955 
L 290.607904 528.759748 
L 294.099536 529.751519 
L 295.263413 529.380823 
L 295.845352 528.975998 
L 296.42729 528.285637 
L 297.009229 527.902001 
L 297.591168 527.943127 
L 298.173106 528.712531 
L 298.755045 529.754649 
L 299.336984 530.041668 
L 299.918922 529.332912 
L 301.664738 526.05121 
L 302.828615 524.362785 
L 303.410554 523.87174 
L 303.992493 523.102087 
L 304.574431 522.066472 
L 305.15637 521.352703 
L 306.902186 519.861113 
L 307.484124 519.005206 
L 308.066063 518.348585 
L 309.22994 516.809826 
L 310.393817 516.941129 
L 310.975756 516.411929 
L 312.721572 513.968309 
L 313.30351 513.389751 
L 314.467388 512.896329 
L 315.049326 513.146207 
L 315.631265 513.241005 
L 316.795142 512.859977 
L 317.377081 512.564922 
L 317.959019 512.141162 
L 319.122897 512.950319 
L 319.704835 513.394472 
L 321.450651 514.150705 
L 322.03259 514.10003 
L 322.614528 514.178503 
L 323.196467 513.978183 
L 324.360344 512.399714 
L 324.942283 511.840076 
L 325.524222 511.695488 
L 326.10616 511.788528 
L 326.688099 511.599931 
L 328.433915 510.720531 
L 329.015853 510.899294 
L 329.597792 510.850618 
L 330.179731 510.403145 
L 330.761669 510.281113 
L 332.507485 512.417804 
L 333.089424 512.972709 
L 333.671362 513.221817 
L 334.253301 513.165686 
L 334.83524 512.925834 
L 335.999117 511.789235 
L 336.581055 511.8016 
L 337.162994 511.926211 
L 337.744933 511.848175 
L 338.90881 510.555678 
L 339.490749 510.299743 
L 340.654626 510.139837 
L 341.236564 510.243625 
L 343.564319 509.411981 
L 344.146257 509.613427 
L 344.728196 510.142053 
L 345.310135 510.388994 
L 345.892073 510.22866 
L 347.055951 509.739984 
L 347.637889 509.750937 
L 348.801766 509.401862 
L 349.965644 509.599874 
L 351.129521 508.776498 
L 351.71146 508.653661 
L 352.293398 508.901174 
L 353.457275 509.908861 
L 354.621153 510.541507 
L 355.78503 511.477104 
L 356.366969 511.726276 
L 356.948907 512.346511 
L 357.530846 513.161701 
L 358.112784 513.744532 
L 359.8586 516.112107 
L 361.022478 517.596566 
L 362.186355 519.516149 
L 363.350232 521.88565 
L 364.514109 524.920811 
L 365.096048 525.963651 
L 365.677987 526.50804 
L 366.259925 525.883057 
L 367.423802 523.385647 
L 368.005741 522.985482 
L 368.58768 523.003055 
L 369.751557 522.378358 
L 370.915434 522.353262 
L 372.66125 523.42525 
L 373.825127 524.869084 
L 374.407066 525.699015 
L 374.989004 526.774614 
L 375.570943 527.348217 
L 376.152882 527.512839 
L 377.898698 526.679596 
L 378.480636 526.070262 
L 379.062575 525.676571 
L 379.644513 525.749799 
L 380.226452 526.131025 
L 380.808391 526.883824 
L 381.390329 527.390042 
L 381.972268 527.726488 
L 382.554207 527.852849 
L 383.718084 527.18047 
L 384.300022 527.199792 
L 384.881961 527.572766 
L 385.4639 528.188673 
L 386.045838 528.576163 
L 386.627777 528.679739 
L 387.791654 529.748886 
L 388.373593 529.27577 
L 388.955531 528.42697 
L 390.119409 526.34652 
L 390.701347 525.47931 
L 391.283286 524.937412 
L 391.865225 525.24126 
L 393.029102 527.338745 
L 393.61104 527.822006 
L 394.192979 527.560987 
L 394.774918 526.555995 
L 395.356856 526.183601 
L 395.938795 525.993828 
L 397.684611 523.657001 
L 398.266549 523.088263 
L 398.848488 523.060959 
L 399.430427 522.795005 
L 400.012365 521.970843 
L 401.176243 519.659726 
L 402.34012 517.875252 
L 402.922058 517.81045 
L 404.085936 518.602062 
L 404.667874 518.298524 
L 405.249813 517.805805 
L 405.831751 517.459859 
L 406.41369 517.339844 
L 406.995629 517.039061 
L 407.577567 517.073422 
L 408.159506 517.884337 
L 408.741445 518.468278 
L 409.905322 517.718213 
L 410.48726 517.967739 
L 411.069199 517.975149 
L 411.651138 517.822989 
L 412.233076 517.416892 
L 413.396954 516.200489 
L 414.560831 515.795546 
L 415.142769 515.352402 
L 415.724708 515.085205 
L 416.306647 515.166571 
L 416.888585 515.36677 
L 417.470524 515.284355 
L 419.21634 514.507533 
L 419.798278 514.139951 
L 420.380217 513.501111 
L 421.544094 511.304573 
L 422.126033 510.235915 
L 422.707972 510.234561 
L 423.871849 512.360042 
L 424.453787 513.637664 
L 425.035726 514.466201 
L 426.781542 514.385367 
L 427.945419 513.764106 
L 428.527358 512.999374 
L 429.109296 512.031987 
L 429.691235 511.533697 
L 430.273174 511.696821 
L 431.437051 512.394925 
L 432.01899 512.427871 
L 433.182867 512.002902 
L 433.764805 512.210323 
L 434.928683 513.164562 
L 435.510621 513.319005 
L 437.256437 513.143882 
L 437.838376 512.702626 
L 438.420314 512.478594 
L 439.584192 512.310919 
L 440.16613 512.533846 
L 440.748069 512.96895 
L 440.748069 512.96895 
" clip-path="url(#p68a7e08df8)" style="fill: none; stroke: #1f77b4; stroke-width: 1.5; stroke-linecap: square"/>
   </g>
   <g id="line2d_29">
    <path d="M 227.176594 663.64 
L 227.176594 385.08 
" clip-path="url(#p68a7e08df8)" style="fill: none; stroke-dasharray: 5.55,2.4; stroke-dashoffset: 0; stroke: #808080; stroke-width: 1.5"/>
   </g>
   <g id="line2d_30">
    <path d="M 81.11 518.745524 
L 469.845 518.745524 
" clip-path="url(#p68a7e08df8)" style="fill: none; stroke: #ff0000; stroke-opacity: 0.3; stroke-width: 1.5; stroke-linecap: square"/>
   </g>
   <g id="patch_10">
    <path d="M 81.11 663.64 
L 81.11 385.08 
" style="fill: none; stroke: #000000; stroke-width: 0.8; stroke-linejoin: miter; stroke-linecap: square"/>
   </g>
   <g id="patch_11">
    <path d="M 469.845 663.64 
L 469.845 385.08 
" style="fill: none; stroke: #000000; stroke-width: 0.8; stroke-linejoin: miter; stroke-linecap: square"/>
   </g>
   <g id="patch_12">
    <path d="M 81.11 663.64 
L 469.845 663.64 
" style="fill: none; stroke: #000000; stroke-width: 0.8; stroke-linejoin: miter; stroke-linecap: square"/>
   </g>
   <g id="patch_13">
    <path d="M 81.11 385.08 
L 469.845 385.08 
" style="fill: none; stroke: #000000; stroke-width: 0.8; stroke-linejoin: miter; stroke-linecap: square"/>
   </g>
   <g id="text_30">
    <!-- Pressure -->
    <g transform="translate(238.59415 379.08) scale(0.1728 -0.1728)">
     <defs>
      <path id="DejaVuSans-50" d="M 1259 4147 
L 1259 2394 
L 2053 2394 
Q 2494 2394 2734 2622 
Q 2975 2850 2975 3272 
Q 2975 3691 2734 3919 
Q 2494 4147 2053 4147 
L 1259 4147 
z
M 628 4666 
L 2053 4666 
Q 2838 4666 3239 4311 
Q 3641 3956 3641 3272 
Q 3641 2581 3239 2228 
Q 2838 1875 2053 1875 
L 1259 1875 
L 1259 0 
L 628 0 
L 628 4666 
z
" transform="scale(0.015625)"/>
     </defs>
     <use xlink:href="#DejaVuSans-50"/>
     <use xlink:href="#DejaVuSans-72" x="58.552734"/>
     <use xlink:href="#DejaVuSans-65" x="97.416016"/>
     <use xlink:href="#DejaVuSans-73" x="158.939453"/>
     <use xlink:href="#DejaVuSans-73" x="211.039062"/>
     <use xlink:href="#DejaVuSans-75" x="263.138672"/>
     <use xlink:href="#DejaVuSans-72" x="326.517578"/>
     <use xlink:href="#DejaVuSans-65" x="365.380859"/>
    </g>
   </g>
  </g>
  <g id="axes_3">
   <g id="patch_14">
    <path d="M 536.465 663.64 
L 925.2 663.64 
L 925.2 385.08 
L 536.465 385.08 
z
" style="fill: #ffffff"/>
   </g>
   <g id="patch_15">
    <path d="M 536.465 663.64 
L 536.465 385.08 
L 682.531594 385.08 
L 682.531594 663.64 
z
" clip-path="url(#pba574a5c93)" style="fill: #808080; opacity: 0.15"/>
   </g>
   <g id="matplotlib.axis_5">
    <g id="xtick_15">
     <g id="line2d_31">
      <g>
       <use xlink:href="#m8e080a39df" x="536.465" y="663.64" style="stroke: #000000; stroke-width: 0.8"/>
      </g>
     </g>
     <g id="text_31">
      <!-- 0 -->
      <g transform="translate(530.9678 683.7701) scale(0.1728 -0.1728)">
       <use xlink:href="#DejaVuSans-30"/>
      </g>
     </g>
    </g>
    <g id="xtick_16">
     <g id="line2d_32">
      <g>
       <use xlink:href="#m8e080a39df" x="594.658862" y="663.64" style="stroke: #000000; stroke-width: 0.8"/>
      </g>
     </g>
     <g id="text_32">
      <!-- 1 -->
      <g transform="translate(589.161662 683.7701) scale(0.1728 -0.1728)">
       <use xlink:href="#DejaVuSans-31"/>
      </g>
     </g>
    </g>
    <g id="xtick_17">
     <g id="line2d_33">
      <g>
       <use xlink:href="#m8e080a39df" x="652.852725" y="663.64" style="stroke: #000000; stroke-width: 0.8"/>
      </g>
     </g>
     <g id="text_33">
      <!-- 2 -->
      <g transform="translate(647.355525 683.7701) scale(0.1728 -0.1728)">
       <use xlink:href="#DejaVuSans-32"/>
      </g>
     </g>
    </g>
    <g id="xtick_18">
     <g id="line2d_34">
      <g>
       <use xlink:href="#m8e080a39df" x="711.046587" y="663.64" style="stroke: #000000; stroke-width: 0.8"/>
      </g>
     </g>
     <g id="text_34">
      <!-- 3 -->
      <g transform="translate(705.549387 683.7701) scale(0.1728 -0.1728)">
       <use xlink:href="#DejaVuSans-33"/>
      </g>
     </g>
    </g>
    <g id="xtick_19">
     <g id="line2d_35">
      <g>
       <use xlink:href="#m8e080a39df" x="769.240449" y="663.64" style="stroke: #000000; stroke-width: 0.8"/>
      </g>
     </g>
     <g id="text_35">
      <!-- 4 -->
      <g transform="translate(763.743249 683.7701) scale(0.1728 -0.1728)">
       <use xlink:href="#DejaVuSans-34"/>
      </g>
     </g>
    </g>
    <g id="xtick_20">
     <g id="line2d_36">
      <g>
       <use xlink:href="#m8e080a39df" x="827.434311" y="663.64" style="stroke: #000000; stroke-width: 0.8"/>
      </g>
     </g>
     <g id="text_36">
      <!-- 5 -->
      <g transform="translate(821.937111 683.7701) scale(0.1728 -0.1728)">
       <use xlink:href="#DejaVuSans-35"/>
      </g>
     </g>
    </g>
    <g id="xtick_21">
     <g id="line2d_37">
      <g>
       <use xlink:href="#m8e080a39df" x="885.628174" y="663.64" style="stroke: #000000; stroke-width: 0.8"/>
      </g>
     </g>
     <g id="text_37">
      <!-- 6 -->
      <g transform="translate(880.130974 683.7701) scale(0.1728 -0.1728)">
       <use xlink:href="#DejaVuSans-36"/>
      </g>
     </g>
    </g>
    <g id="text_38">
     <!-- time in a.u. -->
     <g transform="translate(681.68305 704.4939) scale(0.1728 -0.1728)">
      <use xlink:href="#DejaVuSans-74"/>
      <use xlink:href="#DejaVuSans-69" x="39.208984"/>
      <use xlink:href="#DejaVuSans-6d" x="66.992188"/>
      <use xlink:href="#DejaVuSans-65" x="164.404297"/>
      <use xlink:href="#DejaVuSans-20" x="225.927734"/>
      <use xlink:href="#DejaVuSans-69" x="257.714844"/>
      <use xlink:href="#DejaVuSans-6e" x="285.498047"/>
      <use xlink:href="#DejaVuSans-20" x="348.876953"/>
      <use xlink:href="#DejaVuSans-61" x="380.664062"/>
      <use xlink:href="#DejaVuSans-2e" x="441.943359"/>
      <use xlink:href="#DejaVuSans-75" x="473.730469"/>
      <use xlink:href="#DejaVuSans-2e" x="537.109375"/>
     </g>
    </g>
   </g>
   <g id="matplotlib.axis_6">
    <g id="ytick_11">
     <g id="line2d_38">
      <g>
       <use xlink:href="#md5afbe86ad" x="536.465" y="658.070002" style="stroke: #000000; stroke-width: 0.8"/>
      </g>
     </g>
     <g id="text_39">
      <!-- 0.0 -->
      <g transform="translate(501.9844 664.635052) scale(0.1728 -0.1728)">
       <use xlink:href="#DejaVuSans-30"/>
       <use xlink:href="#DejaVuSans-2e" x="63.623047"/>
       <use xlink:href="#DejaVuSans-30" x="95.410156"/>
      </g>
     </g>
    </g>
    <g id="ytick_12">
     <g id="line2d_39">
      <g>
       <use xlink:href="#md5afbe86ad" x="536.465" y="612.033854" style="stroke: #000000; stroke-width: 0.8"/>
      </g>
     </g>
     <g id="text_40">
      <!-- 0.2 -->
      <g transform="translate(501.9844 618.598904) scale(0.1728 -0.1728)">
       <use xlink:href="#DejaVuSans-30"/>
       <use xlink:href="#DejaVuSans-2e" x="63.623047"/>
       <use xlink:href="#DejaVuSans-32" x="95.410156"/>
      </g>
     </g>
    </g>
    <g id="ytick_13">
     <g id="line2d_40">
      <g>
       <use xlink:href="#md5afbe86ad" x="536.465" y="565.997707" style="stroke: #000000; stroke-width: 0.8"/>
      </g>
     </g>
     <g id="text_41">
      <!-- 0.4 -->
      <g transform="translate(501.9844 572.562757) scale(0.1728 -0.1728)">
       <use xlink:href="#DejaVuSans-30"/>
       <use xlink:href="#DejaVuSans-2e" x="63.623047"/>
       <use xlink:href="#DejaVuSans-34" x="95.410156"/>
      </g>
     </g>
    </g>
    <g id="ytick_14">
     <g id="line2d_41">
      <g>
       <use xlink:href="#md5afbe86ad" x="536.465" y="519.96156" style="stroke: #000000; stroke-width: 0.8"/>
      </g>
     </g>
     <g id="text_42">
      <!-- 0.6 -->
      <g transform="translate(501.9844 526.52661) scale(0.1728 -0.1728)">
       <use xlink:href="#DejaVuSans-30"/>
       <use xlink:href="#DejaVuSans-2e" x="63.623047"/>
       <use xlink:href="#DejaVuSans-36" x="95.410156"/>
      </g>
     </g>
    </g>
    <g id="ytick_15">
     <g id="line2d_42">
      <g>
       <use xlink:href="#md5afbe86ad" x="536.465" y="473.925413" style="stroke: #000000; stroke-width: 0.8"/>
      </g>
     </g>
     <g id="text_43">
      <!-- 0.8 -->
      <g transform="translate(501.9844 480.490463) scale(0.1728 -0.1728)">
       <use xlink:href="#DejaVuSans-30"/>
       <use xlink:href="#DejaVuSans-2e" x="63.623047"/>
       <use xlink:href="#DejaVuSans-38" x="95.410156"/>
      </g>
     </g>
    </g>
    <g id="ytick_16">
     <g id="line2d_43">
      <g>
       <use xlink:href="#md5afbe86ad" x="536.465" y="427.889266" style="stroke: #000000; stroke-width: 0.8"/>
      </g>
     </g>
     <g id="text_44">
      <!-- 1.0 -->
      <g transform="translate(501.9844 434.454316) scale(0.1728 -0.1728)">
       <use xlink:href="#DejaVuSans-31"/>
       <use xlink:href="#DejaVuSans-2e" x="63.623047"/>
       <use xlink:href="#DejaVuSans-30" x="95.410156"/>
      </g>
     </g>
    </g>
    <g id="text_45">
     <!-- (avg. M=49) temperature in a.u. -->
     <g transform="translate(494.3907 664.85585) rotate(-90) scale(0.1728 -0.1728)">
      <use xlink:href="#DejaVuSans-28"/>
      <use xlink:href="#DejaVuSans-61" x="39.013672"/>
      <use xlink:href="#DejaVuSans-76" x="100.292969"/>
      <use xlink:href="#DejaVuSans-67" x="159.472656"/>
      <use xlink:href="#DejaVuSans-2e" x="222.949219"/>
      <use xlink:href="#DejaVuSans-20" x="254.736328"/>
      <use xlink:href="#DejaVuSans-4d" x="286.523438"/>
      <use xlink:href="#DejaVuSans-3d" x="372.802734"/>
      <use xlink:href="#DejaVuSans-34" x="456.591797"/>
      <use xlink:href="#DejaVuSans-39" x="520.214844"/>
      <use xlink:href="#DejaVuSans-29" x="583.837891"/>
      <use xlink:href="#DejaVuSans-20" x="622.851562"/>
      <use xlink:href="#DejaVuSans-74" x="654.638672"/>
      <use xlink:href="#DejaVuSans-65" x="693.847656"/>
      <use xlink:href="#DejaVuSans-6d" x="755.371094"/>
      <use xlink:href="#DejaVuSans-70" x="852.783203"/>
      <use xlink:href="#DejaVuSans-65" x="916.259766"/>
      <use xlink:href="#DejaVuSans-72" x="977.783203"/>
      <use xlink:href="#DejaVuSans-61" x="1018.896484"/>
      <use xlink:href="#DejaVuSans-74" x="1080.175781"/>
      <use xlink:href="#DejaVuSans-75" x="1119.384766"/>
      <use xlink:href="#DejaVuSans-72" x="1182.763672"/>
      <use xlink:href="#DejaVuSans-65" x="1221.626953"/>
      <use xlink:href="#DejaVuSans-20" x="1283.150391"/>
      <use xlink:href="#DejaVuSans-69" x="1314.9375"/>
      <use xlink:href="#DejaVuSans-6e" x="1342.720703"/>
      <use xlink:href="#DejaVuSans-20" x="1406.099609"/>
      <use xlink:href="#DejaVuSans-61" x="1437.886719"/>
      <use xlink:href="#DejaVuSans-2e" x="1499.166016"/>
      <use xlink:href="#DejaVuSans-75" x="1530.953125"/>
      <use xlink:href="#DejaVuSans-2e" x="1594.332031"/>
     </g>
    </g>
   </g>
   <g id="line2d_44">
    <path d="M 564.979993 428.933108 
L 565.561931 426.739407 
L 566.14387 426.846052 
L 568.471624 426.803973 
L 569.635501 427.053577 
L 570.21744 427.241736 
L 570.799379 427.175874 
L 571.963256 427.359396 
L 574.29101 427.329032 
L 575.454888 427.672308 
L 577.782642 427.71569 
L 578.364581 427.76446 
L 579.528458 427.493608 
L 581.856213 427.743147 
L 583.02009 427.600556 
L 583.602028 427.419978 
L 584.183967 427.48413 
L 585.347844 427.428192 
L 587.09366 427.677016 
L 587.675599 427.527593 
L 590.003353 427.657645 
L 594.658862 427.892934 
L 595.82274 427.685035 
L 596.986617 427.863502 
L 598.732433 427.878021 
L 599.89631 427.757816 
L 606.297635 427.652362 
L 606.879573 427.734588 
L 608.043451 427.58944 
L 609.207328 427.788586 
L 609.789266 427.69448 
L 610.371205 427.485425 
L 610.953144 427.437508 
L 612.117021 427.781252 
L 613.862837 427.752841 
L 616.190591 427.510708 
L 617.354469 427.846193 
L 618.518346 427.613062 
L 619.682223 427.835028 
L 620.8461 427.566725 
L 624.919671 427.786673 
L 625.501609 427.904898 
L 626.665487 427.733063 
L 627.247425 427.57499 
L 627.829364 427.755926 
L 628.993241 427.626009 
L 630.739057 427.73531 
L 633.066811 427.799623 
L 633.64875 427.879728 
L 635.976504 427.580226 
L 636.558443 427.756765 
L 640.050075 427.625398 
L 641.213952 427.76563 
L 643.541707 427.653447 
L 646.4514 427.750809 
L 650.52497 427.825499 
L 651.106909 427.905669 
L 651.688847 427.808239 
L 652.852725 427.834757 
L 654.016602 427.766481 
L 655.762418 427.798937 
L 657.508234 427.835791 
L 658.672111 427.851426 
L 659.835988 427.993551 
L 660.999865 427.842772 
L 661.581804 427.775302 
L 664.491497 428.083671 
L 665.655374 427.922244 
L 666.819251 427.980238 
L 667.40119 428.028233 
L 670.310883 427.695582 
L 672.638638 427.723084 
L 674.966392 427.668313 
L 675.548331 427.750829 
L 676.712208 427.599679 
L 677.294147 427.761621 
L 679.621901 427.734339 
L 680.785778 427.639135 
L 681.949656 427.745417 
L 682.531594 427.660259 
L 684.27741 427.82686 
L 684.859349 427.672796 
L 690.096796 427.672705 
L 690.678735 427.650974 
L 691.260674 427.794287 
L 694.752305 427.794466 
L 695.916183 427.78039 
L 697.08006 428.022319 
L 697.661999 427.844433 
L 698.825876 427.857256 
L 699.989753 427.939113 
L 701.15363 427.828145 
L 701.735569 427.978821 
L 702.899446 427.911506 
L 704.063323 428.046696 
L 708.718832 428.005774 
L 710.464648 427.952961 
L 711.628525 427.941216 
L 712.792403 427.918698 
L 713.374341 428.046701 
L 716.865973 427.949945 
L 719.193728 427.962491 
L 719.775666 427.77103 
L 720.357605 427.725252 
L 721.521482 427.881654 
L 724.431175 427.939073 
L 726.75893 428.020051 
L 727.340868 428.104016 
L 728.504746 427.941045 
L 730.250561 428.210946 
L 736.651886 428.050994 
L 737.233825 428.129377 
L 738.979641 427.999282 
L 739.561579 428.112185 
L 740.143518 428.10034 
L 741.307395 427.879779 
L 743.053211 428.060039 
L 744.217088 427.943828 
L 745.380966 428.041119 
L 746.544843 427.887214 
L 747.126781 427.839047 
L 747.70872 427.905113 
L 748.872597 427.803647 
L 751.200352 427.940198 
L 751.78229 428.030013 
L 752.946168 427.882726 
L 754.110045 427.606238 
L 755.855861 427.981754 
L 756.437799 427.88572 
L 757.601677 427.849155 
L 759.347493 427.809051 
L 759.929431 427.871158 
L 761.093308 427.663126 
L 762.257186 427.631855 
L 762.839124 427.718133 
L 763.421063 427.652701 
L 764.003001 427.732036 
L 764.58494 427.689824 
L 765.166879 427.508382 
L 765.748817 427.504325 
L 766.912695 427.722766 
L 770.986265 427.635473 
L 773.314019 427.814301 
L 773.895958 427.604632 
L 778.551467 427.652413 
L 779.133406 427.783533 
L 782.625037 427.799354 
L 783.788915 427.784145 
L 784.370853 427.699577 
L 785.534731 427.898152 
L 786.116669 427.815221 
L 786.698608 427.599041 
L 791.354117 427.890484 
L 792.517994 427.748937 
L 794.26381 427.898544 
L 795.427687 427.73785 
L 800.665135 427.738351 
L 801.829012 427.907672 
L 805.902582 428.086165 
L 807.06646 428.042259 
L 808.230337 427.903353 
L 812.303907 428.002005 
L 814.631662 427.992378 
L 819.287171 427.835069 
L 819.869109 427.771533 
L 821.614925 428.102292 
L 822.196864 428.196755 
L 822.778802 428.130761 
L 823.360741 427.914897 
L 823.94268 427.834314 
L 825.106557 427.986875 
L 826.852373 427.90794 
L 829.180127 427.898219 
L 830.925943 427.915867 
L 832.08982 428.057545 
L 832.671759 427.999651 
L 833.835636 428.113074 
L 837.327268 427.911322 
L 839.655022 427.901064 
L 840.8189 427.759896 
L 841.982777 427.889896 
L 842.564716 427.724518 
L 843.146654 427.719742 
L 843.728593 427.940103 
L 845.474409 427.950766 
L 846.638286 427.892991 
L 847.802163 427.563418 
L 849.547979 427.908012 
L 850.129918 428.082238 
L 850.711856 427.864216 
L 851.293795 427.816744 
L 851.875734 427.980897 
L 852.457672 427.924323 
L 853.039611 427.98569 
L 854.785427 427.784711 
L 855.949304 427.987358 
L 858.277058 427.788483 
L 859.440936 427.71115 
L 860.022874 427.902856 
L 861.186751 427.884448 
L 861.76869 427.828111 
L 862.350629 427.903019 
L 862.932567 427.821536 
L 863.514506 427.605278 
L 864.096445 427.668739 
L 864.678383 427.941803 
L 866.424199 427.795078 
L 870.497769 427.928251 
L 872.243585 427.816583 
L 873.407463 427.960916 
L 873.989401 427.919569 
L 876.317156 428.20119 
L 876.899094 428.125535 
L 877.481033 428.217812 
L 878.64491 427.760227 
L 879.226849 427.809091 
L 879.808787 427.74531 
L 881.554603 427.973921 
L 883.300419 427.906125 
L 884.464296 428.048279 
L 886.210112 427.829271 
L 889.119805 427.94228 
L 890.283683 427.862142 
L 891.44756 427.976088 
L 892.611437 427.96299 
L 893.193376 428.035876 
L 894.357253 427.890094 
L 895.52113 427.787948 
L 896.103069 427.724066 
L 896.103069 427.724066 
" clip-path="url(#pba574a5c93)" style="fill: none; stroke: #1f77b4; stroke-width: 1.5; stroke-linecap: square"/>
   </g>
   <g id="line2d_45">
    <path d="M 682.531594 663.64 
L 682.531594 385.08 
" clip-path="url(#pba574a5c93)" style="fill: none; stroke-dasharray: 5.55,2.4; stroke-dashoffset: 0; stroke: #808080; stroke-width: 1.5"/>
   </g>
   <g id="line2d_46">
    <path d="M 536.465 427.849876 
L 925.2 427.849876 
" clip-path="url(#pba574a5c93)" style="fill: none; stroke: #ff0000; stroke-opacity: 0.3; stroke-width: 1.5; stroke-linecap: square"/>
   </g>
   <g id="patch_16">
    <path d="M 536.465 663.64 
L 536.465 385.08 
" style="fill: none; stroke: #000000; stroke-width: 0.8; stroke-linejoin: miter; stroke-linecap: square"/>
   </g>
   <g id="patch_17">
    <path d="M 925.2 663.64 
L 925.2 385.08 
" style="fill: none; stroke: #000000; stroke-width: 0.8; stroke-linejoin: miter; stroke-linecap: square"/>
   </g>
   <g id="patch_18">
    <path d="M 536.465 663.64 
L 925.2 663.64 
" style="fill: none; stroke: #000000; stroke-width: 0.8; stroke-linejoin: miter; stroke-linecap: square"/>
   </g>
   <g id="patch_19">
    <path d="M 536.465 385.08 
L 925.2 385.08 
" style="fill: none; stroke: #000000; stroke-width: 0.8; stroke-linejoin: miter; stroke-linecap: square"/>
   </g>
   <g id="text_46">
    <!-- Temperature -->
    <g transform="translate(676.10755 379.08) scale(0.1728 -0.1728)">
     <defs>
      <path id="DejaVuSans-54" d="M -19 4666 
L 3928 4666 
L 3928 4134 
L 2272 4134 
L 2272 0 
L 1638 0 
L 1638 4134 
L -19 4134 
L -19 4666 
z
" transform="scale(0.015625)"/>
     </defs>
     <use xlink:href="#DejaVuSans-54"/>
     <use xlink:href="#DejaVuSans-65" x="44.083984"/>
     <use xlink:href="#DejaVuSans-6d" x="105.607422"/>
     <use xlink:href="#DejaVuSans-70" x="203.019531"/>
     <use xlink:href="#DejaVuSans-65" x="266.496094"/>
     <use xlink:href="#DejaVuSans-72" x="328.019531"/>
     <use xlink:href="#DejaVuSans-61" x="369.132812"/>
     <use xlink:href="#DejaVuSans-74" x="430.412109"/>
     <use xlink:href="#DejaVuSans-75" x="469.621094"/>
     <use xlink:href="#DejaVuSans-72" x="533"/>
     <use xlink:href="#DejaVuSans-65" x="571.863281"/>
    </g>
   </g>
  </g>
 </g>
 <defs>
  <clipPath id="p8fe203f792">
   <rect x="81.11" y="30.48" width="844.09" height="278.56"/>
  </clipPath>
  <clipPath id="p68a7e08df8">
   <rect x="81.11" y="385.08" width="388.735" height="278.56"/>
  </clipPath>
  <clipPath id="pba574a5c93">
   <rect x="536.465" y="385.08" width="388.735" height="278.56"/>
  </clipPath>
 </defs>
</svg>
