<?xml version="1.0" encoding="utf-8" standalone="no"?>
<!DOCTYPE svg PUBLIC "-//W3C//DTD SVG 1.1//EN"
  "http://www.w3.org/Graphics/SVG/1.1/DTD/svg11.dtd">
<svg xmlns:xlink="http://www.w3.org/1999/xlink" width="936pt" height="720pt" viewBox="0 0 936 720" xmlns="http://www.w3.org/2000/svg" version="1.1">
 <metadata>
  <rdf:RDF xmlns:dc="http://purl.org/dc/elements/1.1/" xmlns:cc="http://creativecommons.org/ns#" xmlns:rdf="http://www.w3.org/1999/02/22-rdf-syntax-ns#">
   <cc:Work>
    <dc:type rdf:resource="http://purl.org/dc/dcmitype/StillImage"/>
    <dc:date>2024-12-09T04:43:47.913085</dc:date>
    <dc:format>image/svg+xml</dc:format>
    <dc:creator>
     <cc:Agent>
      <dc:title>Matplotlib v3.8.0, https://matplotlib.org/</dc:title>
     </cc:Agent>
    </dc:creator>
   </cc:Work>
  </rdf:RDF>
 </metadata>
 <defs>
  <style type="text/css">*{stroke-linejoin: round; stroke-linecap: butt}</style>
 </defs>
 <g id="figure_1">
  <g id="patch_1">
   <path d="M 0 720 
L 936 720 
L 936 0 
L 0 0 
z
" style="fill: #ffffff"/>
  </g>
  <g id="axes_1">
   <g id="patch_2">
    <path d="M 83.18 312.64 
L 925.2 312.64 
L 925.2 30.48 
L 83.18 30.48 
z
" style="fill: #ffffff"/>
   </g>
   <g id="matplotlib.axis_1">
    <g id="xtick_1">
     <g id="line2d_1">
      <defs>
       <path id="m19b690d7bd" d="M 0 0 
L 0 3.5 
" style="stroke: #000000; stroke-width: 0.8"/>
      </defs>
      <g>
       <use xlink:href="#m19b690d7bd" x="83.18" y="312.64" style="stroke: #000000; stroke-width: 0.8"/>
      </g>
     </g>
     <g id="text_1">
      <!-- 0.0 -->
      <g transform="translate(71.72975 330.58175) scale(0.144 -0.144)">
       <defs>
        <path id="DejaVuSans-30" d="M 2034 4250 
Q 1547 4250 1301 3770 
Q 1056 3291 1056 2328 
Q 1056 1369 1301 889 
Q 1547 409 2034 409 
Q 2525 409 2770 889 
Q 3016 1369 3016 2328 
Q 3016 3291 2770 3770 
Q 2525 4250 2034 4250 
z
M 2034 4750 
Q 2819 4750 3233 4129 
Q 3647 3509 3647 2328 
Q 3647 1150 3233 529 
Q 2819 -91 2034 -91 
Q 1250 -91 836 529 
Q 422 1150 422 2328 
Q 422 3509 836 4129 
Q 1250 4750 2034 4750 
z
" transform="scale(0.015625)"/>
        <path id="DejaVuSans-2e" d="M 684 794 
L 1344 794 
L 1344 0 
L 684 0 
L 684 794 
z
" transform="scale(0.015625)"/>
       </defs>
       <use xlink:href="#DejaVuSans-30"/>
       <use xlink:href="#DejaVuSans-2e" x="63.623047"/>
       <use xlink:href="#DejaVuSans-30" x="95.410156"/>
      </g>
     </g>
    </g>
    <g id="xtick_2">
     <g id="line2d_2">
      <g>
       <use xlink:href="#m19b690d7bd" x="209.230898" y="312.64" style="stroke: #000000; stroke-width: 0.8"/>
      </g>
     </g>
     <g id="text_2">
      <!-- 0.5 -->
      <g transform="translate(197.780648 330.58175) scale(0.144 -0.144)">
       <defs>
        <path id="DejaVuSans-35" d="M 691 4666 
L 3169 4666 
L 3169 4134 
L 1269 4134 
L 1269 2991 
Q 1406 3038 1543 3061 
Q 1681 3084 1819 3084 
Q 2600 3084 3056 2656 
Q 3513 2228 3513 1497 
Q 3513 744 3044 326 
Q 2575 -91 1722 -91 
Q 1428 -91 1123 -41 
Q 819 9 494 109 
L 494 744 
Q 775 591 1075 516 
Q 1375 441 1709 441 
Q 2250 441 2565 725 
Q 2881 1009 2881 1497 
Q 2881 1984 2565 2268 
Q 2250 2553 1709 2553 
Q 1456 2553 1204 2497 
Q 953 2441 691 2322 
L 691 4666 
z
" transform="scale(0.015625)"/>
       </defs>
       <use xlink:href="#DejaVuSans-30"/>
       <use xlink:href="#DejaVuSans-2e" x="63.623047"/>
       <use xlink:href="#DejaVuSans-35" x="95.410156"/>
      </g>
     </g>
    </g>
    <g id="xtick_3">
     <g id="line2d_3">
      <g>
       <use xlink:href="#m19b690d7bd" x="335.281796" y="312.64" style="stroke: #000000; stroke-width: 0.8"/>
      </g>
     </g>
     <g id="text_3">
      <!-- 1.0 -->
      <g transform="translate(323.831546 330.58175) scale(0.144 -0.144)">
       <defs>
        <path id="DejaVuSans-31" d="M 794 531 
L 1825 531 
L 1825 4091 
L 703 3866 
L 703 4441 
L 1819 4666 
L 2450 4666 
L 2450 531 
L 3481 531 
L 3481 0 
L 794 0 
L 794 531 
z
" transform="scale(0.015625)"/>
       </defs>
       <use xlink:href="#DejaVuSans-31"/>
       <use xlink:href="#DejaVuSans-2e" x="63.623047"/>
       <use xlink:href="#DejaVuSans-30" x="95.410156"/>
      </g>
     </g>
    </g>
    <g id="xtick_4">
     <g id="line2d_4">
      <g>
       <use xlink:href="#m19b690d7bd" x="461.332695" y="312.64" style="stroke: #000000; stroke-width: 0.8"/>
      </g>
     </g>
     <g id="text_4">
      <!-- 1.5 -->
      <g transform="translate(449.882445 330.58175) scale(0.144 -0.144)">
       <use xlink:href="#DejaVuSans-31"/>
       <use xlink:href="#DejaVuSans-2e" x="63.623047"/>
       <use xlink:href="#DejaVuSans-35" x="95.410156"/>
      </g>
     </g>
    </g>
    <g id="xtick_5">
     <g id="line2d_5">
      <g>
       <use xlink:href="#m19b690d7bd" x="587.383593" y="312.64" style="stroke: #000000; stroke-width: 0.8"/>
      </g>
     </g>
     <g id="text_5">
      <!-- 2.0 -->
      <g transform="translate(575.933343 330.58175) scale(0.144 -0.144)">
       <defs>
        <path id="DejaVuSans-32" d="M 1228 531 
L 3431 531 
L 3431 0 
L 469 0 
L 469 531 
Q 828 903 1448 1529 
Q 2069 2156 2228 2338 
Q 2531 2678 2651 2914 
Q 2772 3150 2772 3378 
Q 2772 3750 2511 3984 
Q 2250 4219 1831 4219 
Q 1534 4219 1204 4116 
Q 875 4013 500 3803 
L 500 4441 
Q 881 4594 1212 4672 
Q 1544 4750 1819 4750 
Q 2544 4750 2975 4387 
Q 3406 4025 3406 3419 
Q 3406 3131 3298 2873 
Q 3191 2616 2906 2266 
Q 2828 2175 2409 1742 
Q 1991 1309 1228 531 
z
" transform="scale(0.015625)"/>
       </defs>
       <use xlink:href="#DejaVuSans-32"/>
       <use xlink:href="#DejaVuSans-2e" x="63.623047"/>
       <use xlink:href="#DejaVuSans-30" x="95.410156"/>
      </g>
     </g>
    </g>
    <g id="xtick_6">
     <g id="line2d_6">
      <g>
       <use xlink:href="#m19b690d7bd" x="713.434491" y="312.64" style="stroke: #000000; stroke-width: 0.8"/>
      </g>
     </g>
     <g id="text_6">
      <!-- 2.5 -->
      <g transform="translate(701.984241 330.58175) scale(0.144 -0.144)">
       <use xlink:href="#DejaVuSans-32"/>
       <use xlink:href="#DejaVuSans-2e" x="63.623047"/>
       <use xlink:href="#DejaVuSans-35" x="95.410156"/>
      </g>
     </g>
    </g>
    <g id="xtick_7">
     <g id="line2d_7">
      <g>
       <use xlink:href="#m19b690d7bd" x="839.485389" y="312.64" style="stroke: #000000; stroke-width: 0.8"/>
      </g>
     </g>
     <g id="text_7">
      <!-- 3.0 -->
      <g transform="translate(828.035139 330.58175) scale(0.144 -0.144)">
       <defs>
        <path id="DejaVuSans-33" d="M 2597 2516 
Q 3050 2419 3304 2112 
Q 3559 1806 3559 1356 
Q 3559 666 3084 287 
Q 2609 -91 1734 -91 
Q 1441 -91 1130 -33 
Q 819 25 488 141 
L 488 750 
Q 750 597 1062 519 
Q 1375 441 1716 441 
Q 2309 441 2620 675 
Q 2931 909 2931 1356 
Q 2931 1769 2642 2001 
Q 2353 2234 1838 2234 
L 1294 2234 
L 1294 2753 
L 1863 2753 
Q 2328 2753 2575 2939 
Q 2822 3125 2822 3475 
Q 2822 3834 2567 4026 
Q 2313 4219 1838 4219 
Q 1578 4219 1281 4162 
Q 984 4106 628 3988 
L 628 4550 
Q 988 4650 1302 4700 
Q 1616 4750 1894 4750 
Q 2613 4750 3031 4423 
Q 3450 4097 3450 3541 
Q 3450 3153 3228 2886 
Q 3006 2619 2597 2516 
z
" transform="scale(0.015625)"/>
       </defs>
       <use xlink:href="#DejaVuSans-33"/>
       <use xlink:href="#DejaVuSans-2e" x="63.623047"/>
       <use xlink:href="#DejaVuSans-30" x="95.410156"/>
      </g>
     </g>
    </g>
    <g id="text_8">
     <!-- time in a.u. -->
     <g transform="translate(455.04055 350.7066) scale(0.1728 -0.1728)">
      <defs>
       <path id="DejaVuSans-74" d="M 1172 4494 
L 1172 3500 
L 2356 3500 
L 2356 3053 
L 1172 3053 
L 1172 1153 
Q 1172 725 1289 603 
Q 1406 481 1766 481 
L 2356 481 
L 2356 0 
L 1766 0 
Q 1100 0 847 248 
Q 594 497 594 1153 
L 594 3053 
L 172 3053 
L 172 3500 
L 594 3500 
L 594 4494 
L 1172 4494 
z
" transform="scale(0.015625)"/>
       <path id="DejaVuSans-69" d="M 603 3500 
L 1178 3500 
L 1178 0 
L 603 0 
L 603 3500 
z
M 603 4863 
L 1178 4863 
L 1178 4134 
L 603 4134 
L 603 4863 
z
" transform="scale(0.015625)"/>
       <path id="DejaVuSans-6d" d="M 3328 2828 
Q 3544 3216 3844 3400 
Q 4144 3584 4550 3584 
Q 5097 3584 5394 3201 
Q 5691 2819 5691 2113 
L 5691 0 
L 5113 0 
L 5113 2094 
Q 5113 2597 4934 2840 
Q 4756 3084 4391 3084 
Q 3944 3084 3684 2787 
Q 3425 2491 3425 1978 
L 3425 0 
L 2847 0 
L 2847 2094 
Q 2847 2600 2669 2842 
Q 2491 3084 2119 3084 
Q 1678 3084 1418 2786 
Q 1159 2488 1159 1978 
L 1159 0 
L 581 0 
L 581 3500 
L 1159 3500 
L 1159 2956 
Q 1356 3278 1631 3431 
Q 1906 3584 2284 3584 
Q 2666 3584 2933 3390 
Q 3200 3197 3328 2828 
z
" transform="scale(0.015625)"/>
       <path id="DejaVuSans-65" d="M 3597 1894 
L 3597 1613 
L 953 1613 
Q 991 1019 1311 708 
Q 1631 397 2203 397 
Q 2534 397 2845 478 
Q 3156 559 3463 722 
L 3463 178 
Q 3153 47 2828 -22 
Q 2503 -91 2169 -91 
Q 1331 -91 842 396 
Q 353 884 353 1716 
Q 353 2575 817 3079 
Q 1281 3584 2069 3584 
Q 2775 3584 3186 3129 
Q 3597 2675 3597 1894 
z
M 3022 2063 
Q 3016 2534 2758 2815 
Q 2500 3097 2075 3097 
Q 1594 3097 1305 2825 
Q 1016 2553 972 2059 
L 3022 2063 
z
" transform="scale(0.015625)"/>
       <path id="DejaVuSans-20" transform="scale(0.015625)"/>
       <path id="DejaVuSans-6e" d="M 3513 2113 
L 3513 0 
L 2938 0 
L 2938 2094 
Q 2938 2591 2744 2837 
Q 2550 3084 2163 3084 
Q 1697 3084 1428 2787 
Q 1159 2491 1159 1978 
L 1159 0 
L 581 0 
L 581 3500 
L 1159 3500 
L 1159 2956 
Q 1366 3272 1645 3428 
Q 1925 3584 2291 3584 
Q 2894 3584 3203 3211 
Q 3513 2838 3513 2113 
z
" transform="scale(0.015625)"/>
       <path id="DejaVuSans-61" d="M 2194 1759 
Q 1497 1759 1228 1600 
Q 959 1441 959 1056 
Q 959 750 1161 570 
Q 1363 391 1709 391 
Q 2188 391 2477 730 
Q 2766 1069 2766 1631 
L 2766 1759 
L 2194 1759 
z
M 3341 1997 
L 3341 0 
L 2766 0 
L 2766 531 
Q 2569 213 2275 61 
Q 1981 -91 1556 -91 
Q 1019 -91 701 211 
Q 384 513 384 1019 
Q 384 1609 779 1909 
Q 1175 2209 1959 2209 
L 2766 2209 
L 2766 2266 
Q 2766 2663 2505 2880 
Q 2244 3097 1772 3097 
Q 1472 3097 1187 3025 
Q 903 2953 641 2809 
L 641 3341 
Q 956 3463 1253 3523 
Q 1550 3584 1831 3584 
Q 2591 3584 2966 3190 
Q 3341 2797 3341 1997 
z
" transform="scale(0.015625)"/>
       <path id="DejaVuSans-75" d="M 544 1381 
L 544 3500 
L 1119 3500 
L 1119 1403 
Q 1119 906 1312 657 
Q 1506 409 1894 409 
Q 2359 409 2629 706 
Q 2900 1003 2900 1516 
L 2900 3500 
L 3475 3500 
L 3475 0 
L 2900 0 
L 2900 538 
Q 2691 219 2414 64 
Q 2138 -91 1772 -91 
Q 1169 -91 856 284 
Q 544 659 544 1381 
z
M 1991 3584 
L 1991 3584 
z
" transform="scale(0.015625)"/>
      </defs>
      <use xlink:href="#DejaVuSans-74"/>
      <use xlink:href="#DejaVuSans-69" x="39.208984"/>
      <use xlink:href="#DejaVuSans-6d" x="66.992188"/>
      <use xlink:href="#DejaVuSans-65" x="164.404297"/>
      <use xlink:href="#DejaVuSans-20" x="225.927734"/>
      <use xlink:href="#DejaVuSans-69" x="257.714844"/>
      <use xlink:href="#DejaVuSans-6e" x="285.498047"/>
      <use xlink:href="#DejaVuSans-20" x="348.876953"/>
      <use xlink:href="#DejaVuSans-61" x="380.664062"/>
      <use xlink:href="#DejaVuSans-2e" x="441.943359"/>
      <use xlink:href="#DejaVuSans-75" x="473.730469"/>
      <use xlink:href="#DejaVuSans-2e" x="537.109375"/>
     </g>
    </g>
   </g>
   <g id="matplotlib.axis_2">
    <g id="ytick_1">
     <g id="line2d_8">
      <defs>
       <path id="me0fe59fa1e" d="M 0 0 
L -3.5 0 
" style="stroke: #000000; stroke-width: 0.8"/>
      </defs>
      <g>
       <use xlink:href="#me0fe59fa1e" x="83.18" y="291.176193" style="stroke: #000000; stroke-width: 0.8"/>
      </g>
     </g>
     <g id="text_9">
      <!-- 0 -->
      <g transform="translate(67.018 296.647068) scale(0.144 -0.144)">
       <use xlink:href="#DejaVuSans-30"/>
      </g>
     </g>
    </g>
    <g id="ytick_2">
     <g id="line2d_9">
      <g>
       <use xlink:href="#me0fe59fa1e" x="83.18" y="258.875157" style="stroke: #000000; stroke-width: 0.8"/>
      </g>
     </g>
     <g id="text_10">
      <!-- 20 -->
      <g transform="translate(57.856 264.346032) scale(0.144 -0.144)">
       <use xlink:href="#DejaVuSans-32"/>
       <use xlink:href="#DejaVuSans-30" x="63.623047"/>
      </g>
     </g>
    </g>
    <g id="ytick_3">
     <g id="line2d_10">
      <g>
       <use xlink:href="#me0fe59fa1e" x="83.18" y="226.57412" style="stroke: #000000; stroke-width: 0.8"/>
      </g>
     </g>
     <g id="text_11">
      <!-- 40 -->
      <g transform="translate(57.856 232.044995) scale(0.144 -0.144)">
       <defs>
        <path id="DejaVuSans-34" d="M 2419 4116 
L 825 1625 
L 2419 1625 
L 2419 4116 
z
M 2253 4666 
L 3047 4666 
L 3047 1625 
L 3713 1625 
L 3713 1100 
L 3047 1100 
L 3047 0 
L 2419 0 
L 2419 1100 
L 313 1100 
L 313 1709 
L 2253 4666 
z
" transform="scale(0.015625)"/>
       </defs>
       <use xlink:href="#DejaVuSans-34"/>
       <use xlink:href="#DejaVuSans-30" x="63.623047"/>
      </g>
     </g>
    </g>
    <g id="ytick_4">
     <g id="line2d_11">
      <g>
       <use xlink:href="#me0fe59fa1e" x="83.18" y="194.273083" style="stroke: #000000; stroke-width: 0.8"/>
      </g>
     </g>
     <g id="text_12">
      <!-- 60 -->
      <g transform="translate(57.856 199.743958) scale(0.144 -0.144)">
       <defs>
        <path id="DejaVuSans-36" d="M 2113 2584 
Q 1688 2584 1439 2293 
Q 1191 2003 1191 1497 
Q 1191 994 1439 701 
Q 1688 409 2113 409 
Q 2538 409 2786 701 
Q 3034 994 3034 1497 
Q 3034 2003 2786 2293 
Q 2538 2584 2113 2584 
z
M 3366 4563 
L 3366 3988 
Q 3128 4100 2886 4159 
Q 2644 4219 2406 4219 
Q 1781 4219 1451 3797 
Q 1122 3375 1075 2522 
Q 1259 2794 1537 2939 
Q 1816 3084 2150 3084 
Q 2853 3084 3261 2657 
Q 3669 2231 3669 1497 
Q 3669 778 3244 343 
Q 2819 -91 2113 -91 
Q 1303 -91 875 529 
Q 447 1150 447 2328 
Q 447 3434 972 4092 
Q 1497 4750 2381 4750 
Q 2619 4750 2861 4703 
Q 3103 4656 3366 4563 
z
" transform="scale(0.015625)"/>
       </defs>
       <use xlink:href="#DejaVuSans-36"/>
       <use xlink:href="#DejaVuSans-30" x="63.623047"/>
      </g>
     </g>
    </g>
    <g id="ytick_5">
     <g id="line2d_12">
      <g>
       <use xlink:href="#me0fe59fa1e" x="83.18" y="161.972046" style="stroke: #000000; stroke-width: 0.8"/>
      </g>
     </g>
     <g id="text_13">
      <!-- 80 -->
      <g transform="translate(57.856 167.442921) scale(0.144 -0.144)">
       <defs>
        <path id="DejaVuSans-38" d="M 2034 2216 
Q 1584 2216 1326 1975 
Q 1069 1734 1069 1313 
Q 1069 891 1326 650 
Q 1584 409 2034 409 
Q 2484 409 2743 651 
Q 3003 894 3003 1313 
Q 3003 1734 2745 1975 
Q 2488 2216 2034 2216 
z
M 1403 2484 
Q 997 2584 770 2862 
Q 544 3141 544 3541 
Q 544 4100 942 4425 
Q 1341 4750 2034 4750 
Q 2731 4750 3128 4425 
Q 3525 4100 3525 3541 
Q 3525 3141 3298 2862 
Q 3072 2584 2669 2484 
Q 3125 2378 3379 2068 
Q 3634 1759 3634 1313 
Q 3634 634 3220 271 
Q 2806 -91 2034 -91 
Q 1263 -91 848 271 
Q 434 634 434 1313 
Q 434 1759 690 2068 
Q 947 2378 1403 2484 
z
M 1172 3481 
Q 1172 3119 1398 2916 
Q 1625 2713 2034 2713 
Q 2441 2713 2670 2916 
Q 2900 3119 2900 3481 
Q 2900 3844 2670 4047 
Q 2441 4250 2034 4250 
Q 1625 4250 1398 4047 
Q 1172 3844 1172 3481 
z
" transform="scale(0.015625)"/>
       </defs>
       <use xlink:href="#DejaVuSans-38"/>
       <use xlink:href="#DejaVuSans-30" x="63.623047"/>
      </g>
     </g>
    </g>
    <g id="ytick_6">
     <g id="line2d_13">
      <g>
       <use xlink:href="#me0fe59fa1e" x="83.18" y="129.671009" style="stroke: #000000; stroke-width: 0.8"/>
      </g>
     </g>
     <g id="text_14">
      <!-- 100 -->
      <g transform="translate(48.694 135.141884) scale(0.144 -0.144)">
       <use xlink:href="#DejaVuSans-31"/>
       <use xlink:href="#DejaVuSans-30" x="63.623047"/>
       <use xlink:href="#DejaVuSans-30" x="127.246094"/>
      </g>
     </g>
    </g>
    <g id="ytick_7">
     <g id="line2d_14">
      <g>
       <use xlink:href="#me0fe59fa1e" x="83.18" y="97.369973" style="stroke: #000000; stroke-width: 0.8"/>
      </g>
     </g>
     <g id="text_15">
      <!-- 120 -->
      <g transform="translate(48.694 102.840848) scale(0.144 -0.144)">
       <use xlink:href="#DejaVuSans-31"/>
       <use xlink:href="#DejaVuSans-32" x="63.623047"/>
       <use xlink:href="#DejaVuSans-30" x="127.246094"/>
      </g>
     </g>
    </g>
    <g id="ytick_8">
     <g id="line2d_15">
      <g>
       <use xlink:href="#me0fe59fa1e" x="83.18" y="65.068936" style="stroke: #000000; stroke-width: 0.8"/>
      </g>
     </g>
     <g id="text_16">
      <!-- 140 -->
      <g transform="translate(48.694 70.539811) scale(0.144 -0.144)">
       <use xlink:href="#DejaVuSans-31"/>
       <use xlink:href="#DejaVuSans-34" x="63.623047"/>
       <use xlink:href="#DejaVuSans-30" x="127.246094"/>
      </g>
     </g>
    </g>
    <g id="ytick_9">
     <g id="line2d_16">
      <g>
       <use xlink:href="#me0fe59fa1e" x="83.18" y="32.767899" style="stroke: #000000; stroke-width: 0.8"/>
      </g>
     </g>
     <g id="text_17">
      <!-- 160 -->
      <g transform="translate(48.694 38.238774) scale(0.144 -0.144)">
       <use xlink:href="#DejaVuSans-31"/>
       <use xlink:href="#DejaVuSans-36" x="63.623047"/>
       <use xlink:href="#DejaVuSans-30" x="127.246094"/>
      </g>
     </g>
    </g>
    <g id="text_18">
     <!-- energy in a.u. -->
     <g transform="translate(41.1003 231.2975) rotate(-90) scale(0.1728 -0.1728)">
      <defs>
       <path id="DejaVuSans-72" d="M 2631 2963 
Q 2534 3019 2420 3045 
Q 2306 3072 2169 3072 
Q 1681 3072 1420 2755 
Q 1159 2438 1159 1844 
L 1159 0 
L 581 0 
L 581 3500 
L 1159 3500 
L 1159 2956 
Q 1341 3275 1631 3429 
Q 1922 3584 2338 3584 
Q 2397 3584 2469 3576 
Q 2541 3569 2628 3553 
L 2631 2963 
z
" transform="scale(0.015625)"/>
       <path id="DejaVuSans-67" d="M 2906 1791 
Q 2906 2416 2648 2759 
Q 2391 3103 1925 3103 
Q 1463 3103 1205 2759 
Q 947 2416 947 1791 
Q 947 1169 1205 825 
Q 1463 481 1925 481 
Q 2391 481 2648 825 
Q 2906 1169 2906 1791 
z
M 3481 434 
Q 3481 -459 3084 -895 
Q 2688 -1331 1869 -1331 
Q 1566 -1331 1297 -1286 
Q 1028 -1241 775 -1147 
L 775 -588 
Q 1028 -725 1275 -790 
Q 1522 -856 1778 -856 
Q 2344 -856 2625 -561 
Q 2906 -266 2906 331 
L 2906 616 
Q 2728 306 2450 153 
Q 2172 0 1784 0 
Q 1141 0 747 490 
Q 353 981 353 1791 
Q 353 2603 747 3093 
Q 1141 3584 1784 3584 
Q 2172 3584 2450 3431 
Q 2728 3278 2906 2969 
L 2906 3500 
L 3481 3500 
L 3481 434 
z
" transform="scale(0.015625)"/>
       <path id="DejaVuSans-79" d="M 2059 -325 
Q 1816 -950 1584 -1140 
Q 1353 -1331 966 -1331 
L 506 -1331 
L 506 -850 
L 844 -850 
Q 1081 -850 1212 -737 
Q 1344 -625 1503 -206 
L 1606 56 
L 191 3500 
L 800 3500 
L 1894 763 
L 2988 3500 
L 3597 3500 
L 2059 -325 
z
" transform="scale(0.015625)"/>
      </defs>
      <use xlink:href="#DejaVuSans-65"/>
      <use xlink:href="#DejaVuSans-6e" x="61.523438"/>
      <use xlink:href="#DejaVuSans-65" x="124.902344"/>
      <use xlink:href="#DejaVuSans-72" x="186.425781"/>
      <use xlink:href="#DejaVuSans-67" x="225.789062"/>
      <use xlink:href="#DejaVuSans-79" x="289.265625"/>
      <use xlink:href="#DejaVuSans-20" x="348.445312"/>
      <use xlink:href="#DejaVuSans-69" x="380.232422"/>
      <use xlink:href="#DejaVuSans-6e" x="408.015625"/>
      <use xlink:href="#DejaVuSans-20" x="471.394531"/>
      <use xlink:href="#DejaVuSans-61" x="503.181641"/>
      <use xlink:href="#DejaVuSans-2e" x="564.460938"/>
      <use xlink:href="#DejaVuSans-75" x="596.248047"/>
      <use xlink:href="#DejaVuSans-2e" x="659.626953"/>
     </g>
    </g>
   </g>
   <g id="line2d_17">
    <path d="M 83.18 53.993333 
L 85.701018 217.238836 
L 88.222036 255.616528 
L 93.264072 246.295325 
L 95.78509 248.105891 
L 98.306108 251.029386 
L 103.348144 239.917945 
L 105.869162 240.891014 
L 108.39018 244.032201 
L 110.911198 239.671207 
L 113.432216 228.426086 
L 115.953234 234.148828 
L 118.474251 240.744826 
L 120.995269 244.664038 
L 123.516287 244.971529 
L 126.037305 246.973731 
L 128.558323 245.732651 
L 131.079341 247.923393 
L 133.600359 251.987514 
L 136.121377 253.067054 
L 138.642395 251.880588 
L 143.684431 251.890974 
L 146.205449 248.266753 
L 148.726467 245.986405 
L 151.247485 251.106397 
L 153.768503 253.397126 
L 156.289521 249.401405 
L 158.810539 242.405971 
L 161.331557 244.3215 
L 166.373593 247.892893 
L 168.894611 245.960491 
L 171.415629 241.442384 
L 173.936647 238.608511 
L 176.457665 246.259691 
L 178.978683 250.767482 
L 181.499701 247.565925 
L 184.020719 246.452106 
L 186.541737 244.855771 
L 189.062754 245.948834 
L 191.583772 249.350666 
L 194.10479 252.181665 
L 196.625808 256.332274 
L 199.146826 254.850816 
L 204.188862 250.849013 
L 206.70988 244.860089 
L 209.230898 250.536685 
L 211.751916 254.779377 
L 214.272934 254.715731 
L 216.793952 256.166648 
L 219.31497 258.125809 
L 221.835988 257.179412 
L 224.357006 251.911285 
L 226.878024 262.278768 
L 229.399042 265.947902 
L 231.92006 257.086594 
L 234.441078 259.224367 
L 236.962096 265.276427 
L 239.483114 264.381012 
L 242.004132 264.791483 
L 244.52515 268.429624 
L 247.046168 267.802896 
L 249.567186 263.083901 
L 252.088204 262.62995 
L 254.609222 266.163502 
L 257.13024 266.785559 
L 259.651257 264.786733 
L 262.172275 256.382126 
L 264.693293 246.731423 
L 267.214311 250.634913 
L 269.735329 259.765391 
L 272.256347 259.075476 
L 274.777365 255.517523 
L 277.298383 247.934358 
L 279.819401 249.081958 
L 282.340419 255.616137 
L 284.861437 256.111347 
L 287.382455 252.44919 
L 289.903473 250.074686 
L 292.424491 256.208103 
L 294.945509 250.103223 
L 297.466527 243.057679 
L 299.987545 252.650038 
L 302.508563 260.214397 
L 305.029581 261.706157 
L 307.550599 260.832973 
L 310.071617 263.076606 
L 312.592635 264.365999 
L 315.113653 257.871224 
L 317.634671 249.067465 
L 320.155689 250.382885 
L 322.676707 259.173494 
L 325.197725 260.842257 
L 327.718743 260.990607 
L 330.23976 266.675162 
L 332.760778 268.990714 
L 335.281796 270.812346 
L 337.802814 273.077266 
L 340.323832 271.074447 
L 342.84485 265.655359 
L 345.365868 261.741602 
L 347.886886 259.535421 
L 350.407904 262.318683 
L 352.928922 263.222814 
L 355.44994 259.788467 
L 357.970958 264.888657 
L 360.491976 265.295019 
L 363.012994 262.115088 
L 365.534012 253.540862 
L 368.05503 247.818156 
L 370.576048 252.994344 
L 373.097066 259.694169 
L 375.618084 260.731611 
L 378.139102 257.975448 
L 380.66012 259.893278 
L 383.181138 257.403307 
L 385.702156 247.944227 
L 388.223174 249.467064 
L 390.744192 258.734702 
L 393.26521 267.410808 
L 395.786228 265.712096 
L 398.307246 260.263469 
L 400.828263 255.153189 
L 403.349281 248.842399 
L 405.870299 258.833131 
L 408.391317 260.427967 
L 410.912335 244.754097 
L 413.433353 253.416093 
L 415.954371 260.89557 
L 418.475389 255.412094 
L 420.996407 254.53844 
L 423.517425 261.471669 
L 426.038443 269.133331 
L 428.559461 268.781716 
L 431.080479 266.293798 
L 433.601497 266.892204 
L 436.122515 262.981498 
L 438.643533 259.784083 
L 441.164551 264.648334 
L 443.685569 264.20916 
L 446.206587 255.739743 
L 448.727605 254.751754 
L 451.248623 259.330531 
L 453.769641 265.666617 
L 456.290659 264.327441 
L 458.811677 251.192598 
L 461.332695 252.918286 
L 463.853713 262.646841 
L 466.374731 260.691673 
L 468.895749 259.808852 
L 471.416766 263.0496 
L 473.937784 268.75357 
L 476.458802 272.037503 
L 478.97982 269.392395 
L 481.500838 262.972278 
L 484.021856 261.262817 
L 486.542874 263.077385 
L 489.063892 263.754636 
L 491.58491 261.2784 
L 494.105928 259.630221 
L 496.626946 258.797492 
L 499.147964 261.516203 
L 501.668982 262.23565 
L 504.19 259.703065 
L 506.711018 263.703834 
L 511.753054 258.570141 
L 514.274072 263.272983 
L 516.79509 262.265233 
L 519.316108 262.599572 
L 521.837126 264.761772 
L 524.358144 262.533572 
L 526.879162 262.984415 
L 529.40018 266.055853 
L 531.921198 267.965151 
L 534.442216 263.337475 
L 536.963234 249.614583 
L 539.484251 250.258374 
L 542.005269 258.824606 
L 544.526287 263.795574 
L 547.047305 266.932878 
L 549.568323 267.190198 
L 552.089341 264.195369 
L 554.610359 258.65751 
L 557.131377 256.44903 
L 559.652395 255.504226 
L 562.173413 257.507982 
L 564.694431 259.24678 
L 567.215449 254.610125 
L 569.736467 264.584675 
L 572.257485 270.004336 
L 574.778503 261.957511 
L 577.299521 259.251569 
L 579.820539 266.702986 
L 582.341557 268.351611 
L 584.862575 263.853337 
L 587.383593 261.105934 
L 589.904611 259.404103 
L 592.425629 257.348777 
L 594.946647 252.272329 
L 597.467665 254.362732 
L 599.988683 251.076139 
L 602.509701 256.524116 
L 605.030719 267.268277 
L 607.551737 265.855288 
L 610.072754 258.88663 
L 612.593772 255.05728 
L 615.11479 249.877686 
L 617.635808 243.017786 
L 620.156826 252.977411 
L 622.677844 255.37008 
L 625.198862 250.672932 
L 627.71988 257.022056 
L 630.240898 264.891746 
L 632.761916 261.08102 
L 635.282934 253.859715 
L 637.803952 252.49078 
L 640.32497 261.145568 
L 642.845988 266.036812 
L 645.367006 268.524798 
L 647.888024 269.037102 
L 650.409042 270.738006 
L 652.93006 268.726372 
L 655.451078 263.171323 
L 657.972096 260.99558 
L 660.493114 260.597928 
L 663.014132 263.727576 
L 665.53515 255.381409 
L 668.056168 265.736658 
L 670.577186 269.347422 
L 673.098204 274.556548 
L 675.619222 275.189709 
L 678.14024 270.14491 
L 680.661257 266.964699 
L 683.182275 270.692545 
L 685.703293 271.357593 
L 688.224311 267.175893 
L 690.745329 270.158415 
L 693.266347 271.890099 
L 695.787365 269.286997 
L 698.308383 273.224874 
L 700.829401 272.546039 
L 703.350419 264.204546 
L 705.871437 270.229337 
L 708.392455 266.325242 
L 710.913473 266.848954 
L 713.434491 267.051249 
L 715.955509 266.190423 
L 718.476527 267.16583 
L 720.997545 260.329587 
L 723.518563 260.725993 
L 728.560599 273.668862 
L 731.081617 271.91686 
L 733.602635 268.579799 
L 736.123653 275.40585 
L 738.644671 277.850624 
L 741.165689 274.847669 
L 743.686707 277.053503 
L 746.207725 287.185138 
L 748.728743 280.89608 
L 751.24976 266.154938 
L 753.770778 272.354457 
L 756.291796 274.247609 
L 758.812814 279.175172 
L 761.333832 285.903506 
L 763.85485 289.126667 
L 766.375868 284.238304 
L 768.896886 277.721119 
L 771.417904 282.110101 
L 773.938922 283.554875 
L 776.45994 279.156537 
L 778.980958 272.78688 
L 781.501976 281.711922 
L 784.022994 287.380522 
L 786.544012 281.63277 
L 789.06503 283.9356 
L 791.586048 282.666414 
L 794.107066 278.433196 
L 796.628084 282.615603 
L 799.149102 280.093608 
L 801.67012 272.137138 
L 804.191138 268.643462 
L 806.712156 273.73713 
L 809.233174 274.934089 
L 811.754192 269.007533 
L 814.27521 265.431222 
L 816.796228 263.333803 
L 819.317246 259.40612 
L 821.838263 264.79236 
L 824.359281 264.096084 
L 826.880299 259.693891 
L 829.401317 253.907165 
L 831.922335 255.493211 
L 834.443353 260.91055 
L 836.964371 260.907046 
L 839.485389 262.441264 
L 842.006407 260.020656 
L 844.527425 251.864418 
L 847.048443 247.279315 
L 849.569461 256.959918 
L 852.090479 254.112098 
L 854.611497 244.663672 
L 857.132515 259.426431 
L 859.653533 264.792979 
L 862.174551 264.584453 
L 864.695569 264.907396 
L 867.216587 259.875656 
L 869.737605 258.554686 
L 872.258623 262.785103 
L 874.779641 263.956877 
L 877.300659 258.842454 
L 879.821677 261.474375 
L 882.342695 266.336285 
L 884.863713 263.236028 
L 889.905749 266.749904 
L 892.426766 265.082982 
L 894.947784 260.289611 
L 897.468802 259.266551 
L 899.98982 259.329227 
L 902.510838 252.526366 
L 905.031856 257.409148 
L 907.552874 265.768914 
L 910.073892 270.502307 
L 912.59491 266.072452 
L 915.115928 259.011344 
L 917.636946 266.318289 
L 920.157964 269.528998 
L 922.678982 271.82849 
L 922.678982 271.82849 
" clip-path="url(#p6da28fda7a)" style="fill: none; stroke: #1f77b4; stroke-width: 1.5; stroke-linecap: square"/>
   </g>
   <g id="line2d_18">
    <path d="M 83.18 259.917883 
L 925.2 259.917883 
" clip-path="url(#p6da28fda7a)" style="fill: none; stroke: #ff0000; stroke-opacity: 0.3; stroke-width: 1.5; stroke-linecap: square"/>
   </g>
   <g id="patch_3">
    <path d="M 83.18 312.64 
L 83.18 30.48 
" style="fill: none; stroke: #000000; stroke-width: 0.8; stroke-linejoin: miter; stroke-linecap: square"/>
   </g>
   <g id="patch_4">
    <path d="M 925.2 312.64 
L 925.2 30.48 
" style="fill: none; stroke: #000000; stroke-width: 0.8; stroke-linejoin: miter; stroke-linecap: square"/>
   </g>
   <g id="patch_5">
    <path d="M 83.18 312.64 
L 925.2 312.64 
" style="fill: none; stroke: #000000; stroke-width: 0.8; stroke-linejoin: miter; stroke-linecap: square"/>
   </g>
   <g id="patch_6">
    <path d="M 83.18 30.48 
L 925.2 30.48 
" style="fill: none; stroke: #000000; stroke-width: 0.8; stroke-linejoin: miter; stroke-linecap: square"/>
   </g>
   <g id="text_19">
    <!-- Energy -->
    <g transform="translate(473.9392 24.48) scale(0.1728 -0.1728)">
     <defs>
      <path id="DejaVuSans-45" d="M 628 4666 
L 3578 4666 
L 3578 4134 
L 1259 4134 
L 1259 2753 
L 3481 2753 
L 3481 2222 
L 1259 2222 
L 1259 531 
L 3634 531 
L 3634 0 
L 628 0 
L 628 4666 
z
" transform="scale(0.015625)"/>
     </defs>
     <use xlink:href="#DejaVuSans-45"/>
     <use xlink:href="#DejaVuSans-6e" x="63.183594"/>
     <use xlink:href="#DejaVuSans-65" x="126.5625"/>
     <use xlink:href="#DejaVuSans-72" x="188.085938"/>
     <use xlink:href="#DejaVuSans-67" x="227.449219"/>
     <use xlink:href="#DejaVuSans-79" x="290.925781"/>
    </g>
   </g>
  </g>
  <g id="axes_2">
   <g id="patch_7">
    <path d="M 83.18 667.24 
L 473.22 667.24 
L 473.22 385.08 
L 83.18 385.08 
z
" style="fill: #ffffff"/>
   </g>
   <g id="matplotlib.axis_3">
    <g id="xtick_8">
     <g id="line2d_19">
      <g>
       <use xlink:href="#m19b690d7bd" x="83.18" y="667.24" style="stroke: #000000; stroke-width: 0.8"/>
      </g>
     </g>
     <g id="text_20">
      <!-- 0.0 -->
      <g transform="translate(71.72975 685.18175) scale(0.144 -0.144)">
       <use xlink:href="#DejaVuSans-30"/>
       <use xlink:href="#DejaVuSans-2e" x="63.623047"/>
       <use xlink:href="#DejaVuSans-30" x="95.410156"/>
      </g>
     </g>
    </g>
    <g id="xtick_9">
     <g id="line2d_20">
      <g>
       <use xlink:href="#m19b690d7bd" x="141.569222" y="667.24" style="stroke: #000000; stroke-width: 0.8"/>
      </g>
     </g>
     <g id="text_21">
      <!-- 0.5 -->
      <g transform="translate(130.118972 685.18175) scale(0.144 -0.144)">
       <use xlink:href="#DejaVuSans-30"/>
       <use xlink:href="#DejaVuSans-2e" x="63.623047"/>
       <use xlink:href="#DejaVuSans-35" x="95.410156"/>
      </g>
     </g>
    </g>
    <g id="xtick_10">
     <g id="line2d_21">
      <g>
       <use xlink:href="#m19b690d7bd" x="199.958443" y="667.24" style="stroke: #000000; stroke-width: 0.8"/>
      </g>
     </g>
     <g id="text_22">
      <!-- 1.0 -->
      <g transform="translate(188.508193 685.18175) scale(0.144 -0.144)">
       <use xlink:href="#DejaVuSans-31"/>
       <use xlink:href="#DejaVuSans-2e" x="63.623047"/>
       <use xlink:href="#DejaVuSans-30" x="95.410156"/>
      </g>
     </g>
    </g>
    <g id="xtick_11">
     <g id="line2d_22">
      <g>
       <use xlink:href="#m19b690d7bd" x="258.347665" y="667.24" style="stroke: #000000; stroke-width: 0.8"/>
      </g>
     </g>
     <g id="text_23">
      <!-- 1.5 -->
      <g transform="translate(246.897415 685.18175) scale(0.144 -0.144)">
       <use xlink:href="#DejaVuSans-31"/>
       <use xlink:href="#DejaVuSans-2e" x="63.623047"/>
       <use xlink:href="#DejaVuSans-35" x="95.410156"/>
      </g>
     </g>
    </g>
    <g id="xtick_12">
     <g id="line2d_23">
      <g>
       <use xlink:href="#m19b690d7bd" x="316.736886" y="667.24" style="stroke: #000000; stroke-width: 0.8"/>
      </g>
     </g>
     <g id="text_24">
      <!-- 2.0 -->
      <g transform="translate(305.286636 685.18175) scale(0.144 -0.144)">
       <use xlink:href="#DejaVuSans-32"/>
       <use xlink:href="#DejaVuSans-2e" x="63.623047"/>
       <use xlink:href="#DejaVuSans-30" x="95.410156"/>
      </g>
     </g>
    </g>
    <g id="xtick_13">
     <g id="line2d_24">
      <g>
       <use xlink:href="#m19b690d7bd" x="375.126108" y="667.24" style="stroke: #000000; stroke-width: 0.8"/>
      </g>
     </g>
     <g id="text_25">
      <!-- 2.5 -->
      <g transform="translate(363.675858 685.18175) scale(0.144 -0.144)">
       <use xlink:href="#DejaVuSans-32"/>
       <use xlink:href="#DejaVuSans-2e" x="63.623047"/>
       <use xlink:href="#DejaVuSans-35" x="95.410156"/>
      </g>
     </g>
    </g>
    <g id="xtick_14">
     <g id="line2d_25">
      <g>
       <use xlink:href="#m19b690d7bd" x="433.515329" y="667.24" style="stroke: #000000; stroke-width: 0.8"/>
      </g>
     </g>
     <g id="text_26">
      <!-- 3.0 -->
      <g transform="translate(422.065079 685.18175) scale(0.144 -0.144)">
       <use xlink:href="#DejaVuSans-33"/>
       <use xlink:href="#DejaVuSans-2e" x="63.623047"/>
       <use xlink:href="#DejaVuSans-30" x="95.410156"/>
      </g>
     </g>
    </g>
    <g id="text_27">
     <!-- time in a.u. -->
     <g transform="translate(229.05055 705.3066) scale(0.1728 -0.1728)">
      <use xlink:href="#DejaVuSans-74"/>
      <use xlink:href="#DejaVuSans-69" x="39.208984"/>
      <use xlink:href="#DejaVuSans-6d" x="66.992188"/>
      <use xlink:href="#DejaVuSans-65" x="164.404297"/>
      <use xlink:href="#DejaVuSans-20" x="225.927734"/>
      <use xlink:href="#DejaVuSans-69" x="257.714844"/>
      <use xlink:href="#DejaVuSans-6e" x="285.498047"/>
      <use xlink:href="#DejaVuSans-20" x="348.876953"/>
      <use xlink:href="#DejaVuSans-61" x="380.664062"/>
      <use xlink:href="#DejaVuSans-2e" x="441.943359"/>
      <use xlink:href="#DejaVuSans-75" x="473.730469"/>
      <use xlink:href="#DejaVuSans-2e" x="537.109375"/>
     </g>
    </g>
   </g>
   <g id="matplotlib.axis_4">
    <g id="ytick_10">
     <g id="line2d_26">
      <g>
       <use xlink:href="#me0fe59fa1e" x="83.18" y="658.702302" style="stroke: #000000; stroke-width: 0.8"/>
      </g>
     </g>
     <g id="text_28">
      <!-- −0.25 -->
      <g transform="translate(32.05075 664.173177) scale(0.144 -0.144)">
       <defs>
        <path id="DejaVuSans-2212" d="M 678 2272 
L 4684 2272 
L 4684 1741 
L 678 1741 
L 678 2272 
z
" transform="scale(0.015625)"/>
       </defs>
       <use xlink:href="#DejaVuSans-2212"/>
       <use xlink:href="#DejaVuSans-30" x="83.789062"/>
       <use xlink:href="#DejaVuSans-2e" x="147.412109"/>
       <use xlink:href="#DejaVuSans-32" x="179.199219"/>
       <use xlink:href="#DejaVuSans-35" x="242.822266"/>
      </g>
     </g>
    </g>
    <g id="ytick_11">
     <g id="line2d_27">
      <g>
       <use xlink:href="#me0fe59fa1e" x="83.18" y="622.887785" style="stroke: #000000; stroke-width: 0.8"/>
      </g>
     </g>
     <g id="text_29">
      <!-- 0.00 -->
      <g transform="translate(44.1175 628.35866) scale(0.144 -0.144)">
       <use xlink:href="#DejaVuSans-30"/>
       <use xlink:href="#DejaVuSans-2e" x="63.623047"/>
       <use xlink:href="#DejaVuSans-30" x="95.410156"/>
       <use xlink:href="#DejaVuSans-30" x="159.033203"/>
      </g>
     </g>
    </g>
    <g id="ytick_12">
     <g id="line2d_28">
      <g>
       <use xlink:href="#me0fe59fa1e" x="83.18" y="587.073267" style="stroke: #000000; stroke-width: 0.8"/>
      </g>
     </g>
     <g id="text_30">
      <!-- 0.25 -->
      <g transform="translate(44.1175 592.544142) scale(0.144 -0.144)">
       <use xlink:href="#DejaVuSans-30"/>
       <use xlink:href="#DejaVuSans-2e" x="63.623047"/>
       <use xlink:href="#DejaVuSans-32" x="95.410156"/>
       <use xlink:href="#DejaVuSans-35" x="159.033203"/>
      </g>
     </g>
    </g>
    <g id="ytick_13">
     <g id="line2d_29">
      <g>
       <use xlink:href="#me0fe59fa1e" x="83.18" y="551.258749" style="stroke: #000000; stroke-width: 0.8"/>
      </g>
     </g>
     <g id="text_31">
      <!-- 0.50 -->
      <g transform="translate(44.1175 556.729624) scale(0.144 -0.144)">
       <use xlink:href="#DejaVuSans-30"/>
       <use xlink:href="#DejaVuSans-2e" x="63.623047"/>
       <use xlink:href="#DejaVuSans-35" x="95.410156"/>
       <use xlink:href="#DejaVuSans-30" x="159.033203"/>
      </g>
     </g>
    </g>
    <g id="ytick_14">
     <g id="line2d_30">
      <g>
       <use xlink:href="#me0fe59fa1e" x="83.18" y="515.444232" style="stroke: #000000; stroke-width: 0.8"/>
      </g>
     </g>
     <g id="text_32">
      <!-- 0.75 -->
      <g transform="translate(44.1175 520.915107) scale(0.144 -0.144)">
       <defs>
        <path id="DejaVuSans-37" d="M 525 4666 
L 3525 4666 
L 3525 4397 
L 1831 0 
L 1172 0 
L 2766 4134 
L 525 4134 
L 525 4666 
z
" transform="scale(0.015625)"/>
       </defs>
       <use xlink:href="#DejaVuSans-30"/>
       <use xlink:href="#DejaVuSans-2e" x="63.623047"/>
       <use xlink:href="#DejaVuSans-37" x="95.410156"/>
       <use xlink:href="#DejaVuSans-35" x="159.033203"/>
      </g>
     </g>
    </g>
    <g id="ytick_15">
     <g id="line2d_31">
      <g>
       <use xlink:href="#me0fe59fa1e" x="83.18" y="479.629714" style="stroke: #000000; stroke-width: 0.8"/>
      </g>
     </g>
     <g id="text_33">
      <!-- 1.00 -->
      <g transform="translate(44.1175 485.100589) scale(0.144 -0.144)">
       <use xlink:href="#DejaVuSans-31"/>
       <use xlink:href="#DejaVuSans-2e" x="63.623047"/>
       <use xlink:href="#DejaVuSans-30" x="95.410156"/>
       <use xlink:href="#DejaVuSans-30" x="159.033203"/>
      </g>
     </g>
    </g>
    <g id="ytick_16">
     <g id="line2d_32">
      <g>
       <use xlink:href="#me0fe59fa1e" x="83.18" y="443.815196" style="stroke: #000000; stroke-width: 0.8"/>
      </g>
     </g>
     <g id="text_34">
      <!-- 1.25 -->
      <g transform="translate(44.1175 449.286071) scale(0.144 -0.144)">
       <use xlink:href="#DejaVuSans-31"/>
       <use xlink:href="#DejaVuSans-2e" x="63.623047"/>
       <use xlink:href="#DejaVuSans-32" x="95.410156"/>
       <use xlink:href="#DejaVuSans-35" x="159.033203"/>
      </g>
     </g>
    </g>
    <g id="ytick_17">
     <g id="line2d_33">
      <g>
       <use xlink:href="#me0fe59fa1e" x="83.18" y="408.000679" style="stroke: #000000; stroke-width: 0.8"/>
      </g>
     </g>
     <g id="text_35">
      <!-- 1.50 -->
      <g transform="translate(44.1175 413.471554) scale(0.144 -0.144)">
       <use xlink:href="#DejaVuSans-31"/>
       <use xlink:href="#DejaVuSans-2e" x="63.623047"/>
       <use xlink:href="#DejaVuSans-35" x="95.410156"/>
       <use xlink:href="#DejaVuSans-30" x="159.033203"/>
      </g>
     </g>
    </g>
    <g id="text_36">
     <!-- pressure in a.u. -->
     <g transform="translate(24.45705 593.09975) rotate(-90) scale(0.1728 -0.1728)">
      <defs>
       <path id="DejaVuSans-70" d="M 1159 525 
L 1159 -1331 
L 581 -1331 
L 581 3500 
L 1159 3500 
L 1159 2969 
Q 1341 3281 1617 3432 
Q 1894 3584 2278 3584 
Q 2916 3584 3314 3078 
Q 3713 2572 3713 1747 
Q 3713 922 3314 415 
Q 2916 -91 2278 -91 
Q 1894 -91 1617 61 
Q 1341 213 1159 525 
z
M 3116 1747 
Q 3116 2381 2855 2742 
Q 2594 3103 2138 3103 
Q 1681 3103 1420 2742 
Q 1159 2381 1159 1747 
Q 1159 1113 1420 752 
Q 1681 391 2138 391 
Q 2594 391 2855 752 
Q 3116 1113 3116 1747 
z
" transform="scale(0.015625)"/>
       <path id="DejaVuSans-73" d="M 2834 3397 
L 2834 2853 
Q 2591 2978 2328 3040 
Q 2066 3103 1784 3103 
Q 1356 3103 1142 2972 
Q 928 2841 928 2578 
Q 928 2378 1081 2264 
Q 1234 2150 1697 2047 
L 1894 2003 
Q 2506 1872 2764 1633 
Q 3022 1394 3022 966 
Q 3022 478 2636 193 
Q 2250 -91 1575 -91 
Q 1294 -91 989 -36 
Q 684 19 347 128 
L 347 722 
Q 666 556 975 473 
Q 1284 391 1588 391 
Q 1994 391 2212 530 
Q 2431 669 2431 922 
Q 2431 1156 2273 1281 
Q 2116 1406 1581 1522 
L 1381 1569 
Q 847 1681 609 1914 
Q 372 2147 372 2553 
Q 372 3047 722 3315 
Q 1072 3584 1716 3584 
Q 2034 3584 2315 3537 
Q 2597 3491 2834 3397 
z
" transform="scale(0.015625)"/>
      </defs>
      <use xlink:href="#DejaVuSans-70"/>
      <use xlink:href="#DejaVuSans-72" x="63.476562"/>
      <use xlink:href="#DejaVuSans-65" x="102.339844"/>
      <use xlink:href="#DejaVuSans-73" x="163.863281"/>
      <use xlink:href="#DejaVuSans-73" x="215.962891"/>
      <use xlink:href="#DejaVuSans-75" x="268.0625"/>
      <use xlink:href="#DejaVuSans-72" x="331.441406"/>
      <use xlink:href="#DejaVuSans-65" x="370.304688"/>
      <use xlink:href="#DejaVuSans-20" x="431.828125"/>
      <use xlink:href="#DejaVuSans-69" x="463.615234"/>
      <use xlink:href="#DejaVuSans-6e" x="491.398438"/>
      <use xlink:href="#DejaVuSans-20" x="554.777344"/>
      <use xlink:href="#DejaVuSans-61" x="586.564453"/>
      <use xlink:href="#DejaVuSans-2e" x="647.84375"/>
      <use xlink:href="#DejaVuSans-75" x="679.630859"/>
      <use xlink:href="#DejaVuSans-2e" x="743.009766"/>
     </g>
    </g>
   </g>
   <g id="line2d_34">
    <path d="M 83.18 408.593333 
L 84.347784 550.603806 
L 85.515569 577.764396 
L 86.683353 591.231903 
L 87.851138 612.044125 
L 89.018922 630.871233 
L 90.186707 628.341952 
L 91.354491 621.073075 
L 92.522275 624.361124 
L 93.69006 630.207057 
L 94.857844 619.145707 
L 96.025629 591.101989 
L 97.193413 597.772523 
L 98.361198 609.716132 
L 99.528982 615.710083 
L 100.696766 612.432866 
L 101.864551 610.332995 
L 103.032335 601.322672 
L 104.20012 600.764374 
L 105.367904 606.647757 
L 106.535689 607.683005 
L 107.703473 603.445989 
L 108.871257 600.486434 
L 110.039042 597.132609 
L 111.206826 586.861755 
L 112.374611 580.035362 
L 113.542395 590.981345 
L 114.71018 598.81061 
L 115.877964 593.886658 
L 117.045749 582.813207 
L 118.213533 590.990185 
L 119.381317 600.89025 
L 120.549102 609.427547 
L 121.716886 607.152218 
L 122.884671 596.913006 
L 124.052455 589.825172 
L 125.22024 607.073366 
L 126.388024 620.194096 
L 127.555808 614.899403 
L 128.723593 610.320893 
L 129.891377 604.049061 
L 131.059162 602.940154 
L 132.226946 607.1755 
L 133.394731 610.467449 
L 134.562515 615.754522 
L 135.730299 608.589326 
L 138.065868 587.833123 
L 139.233653 571.599576 
L 141.569222 591.422643 
L 142.737006 593.757492 
L 145.072575 603.75254 
L 146.240359 601.321554 
L 147.408144 587.995538 
L 148.575928 605.236527 
L 149.743713 611.13456 
L 150.911497 591.024508 
L 152.079281 592.08055 
L 153.247066 602.813028 
L 154.41485 600.362531 
L 155.582635 599.076984 
L 156.750419 603.092269 
L 157.918204 598.09863 
L 159.085988 583.936981 
L 160.253772 579.512907 
L 161.421557 587.126132 
L 162.589341 591.543888 
L 163.757126 591.306558 
L 164.92491 578.619963 
L 166.092695 564.135464 
L 167.260479 578.641614 
L 168.428263 605.807923 
L 169.596048 611.5053 
L 170.763832 607.088222 
L 171.931617 593.208313 
L 173.099401 597.559328 
L 174.267186 614.645354 
L 175.43497 619.1292 
L 177.770539 606.907629 
L 178.938323 617.282456 
L 180.106108 603.907417 
L 181.273892 586.914297 
L 183.609461 623.606163 
L 184.777246 627.542914 
L 185.94503 622.680324 
L 187.112814 620.781664 
L 188.280599 614.760966 
L 189.448383 591.629574 
L 190.616168 563.926239 
L 191.783952 559.93254 
L 192.951737 577.221566 
L 194.119521 585.156145 
L 195.287305 590.689593 
L 196.45509 607.523107 
L 197.622874 617.447258 
L 198.790659 624.295757 
L 199.958443 629.535935 
L 201.126228 623.035592 
L 202.294012 606.971878 
L 203.461796 594.520331 
L 204.629581 589.156534 
L 205.797365 597.796619 
L 206.96515 605.585769 
L 208.132934 603.85802 
L 209.300719 616.93027 
L 210.468503 618.928349 
L 211.636287 610.656705 
L 212.804072 590.340722 
L 213.971856 577.167499 
L 215.139641 590.85932 
L 216.307425 610.343226 
L 217.47521 616.279921 
L 218.642994 610.184491 
L 219.810778 610.052182 
L 220.978563 600.201066 
L 222.146347 575.556021 
L 223.314132 575.31438 
L 225.649701 617.91335 
L 226.817485 614.878888 
L 227.985269 598.340096 
L 229.153054 578.979654 
L 230.320838 557.248174 
L 231.488623 569.414075 
L 232.656407 570.123651 
L 233.824192 537.662423 
L 234.991976 555.752867 
L 236.15976 578.010668 
L 237.327545 574.419544 
L 238.495329 578.928783 
L 240.830898 623.474405 
L 241.998683 628.126682 
L 243.166467 624.37117 
L 244.334251 624.735935 
L 246.66982 605.231012 
L 247.837605 610.824509 
L 249.005389 606.462671 
L 250.173174 584.730255 
L 251.340958 578.617262 
L 252.508743 586.409113 
L 253.676527 597.148947 
L 254.844311 591.09871 
L 256.012096 560.489621 
L 257.17988 560.933305 
L 258.347665 583.875969 
L 259.515449 586.66051 
L 260.683234 591.094748 
L 261.851018 604.708909 
L 263.018802 623.68454 
L 264.186587 636.654226 
L 265.354371 634.510251 
L 266.522156 621.418726 
L 267.68994 616.118301 
L 268.857725 618.309381 
L 270.025509 618.74201 
L 271.193293 612.967692 
L 272.361078 609.097579 
L 273.528862 607.646159 
L 274.696647 613.970087 
L 275.864431 616.716655 
L 277.032216 611.385572 
L 278.2 617.527297 
L 279.367784 610.48654 
L 280.535569 601.665171 
L 281.703353 607.266617 
L 282.871138 603.38297 
L 284.038922 602.022666 
L 285.206707 605.497057 
L 286.374491 600.76565 
L 287.542275 601.889958 
L 288.71006 610.070435 
L 289.877844 616.165117 
L 291.045629 608.40691 
L 292.213413 581.237327 
L 293.381198 583.849562 
L 294.548982 608.172862 
L 295.716766 627.566212 
L 296.884551 640.585382 
L 298.052335 643.726667 
L 299.22012 635.838848 
L 300.387904 619.204866 
L 301.555689 607.715278 
L 302.723473 599.404195 
L 303.891257 598.188037 
L 305.059042 598.529851 
L 306.226826 587.141344 
L 307.394611 606.52289 
L 308.562395 619.082526 
L 309.73018 602.184259 
L 310.897964 593.823075 
L 312.065749 607.900418 
L 313.233533 611.853119 
L 314.401317 601.248847 
L 315.569102 592.760436 
L 316.736886 586.809093 
L 317.904671 581.517749 
L 319.072455 571.492072 
L 320.24024 579.298556 
L 321.408024 580.67834 
L 322.575808 598.92726 
L 323.743593 626.626918 
L 324.911377 626.100569 
L 326.079162 608.007549 
L 327.246946 592.723189 
L 329.582515 556.931233 
L 330.750299 574.346075 
L 331.918084 580.326036 
L 333.085868 571.465663 
L 334.253653 583.900624 
L 335.421437 600.601838 
L 336.589222 592.789446 
L 337.757006 576.191883 
L 338.92479 572.188357 
L 340.092575 591.393249 
L 341.260359 605.821729 
L 342.428144 613.73578 
L 343.595928 615.042493 
L 344.763713 615.182619 
L 345.931497 604.950782 
L 347.099281 585.836825 
L 348.267066 574.584635 
L 349.43485 569.66659 
L 350.602635 575.262134 
L 351.770419 558.481834 
L 352.938204 578.961693 
L 354.105988 589.834626 
L 355.273772 602.064541 
L 356.441557 603.471121 
L 357.609341 592.067577 
L 358.777126 583.892834 
L 359.94491 591.213405 
L 361.112695 594.769809 
L 362.280479 589.716037 
L 363.448263 600.435561 
L 364.616048 609.290413 
L 365.783832 608.117923 
L 366.951617 618.075777 
L 368.119401 619.720128 
L 369.287186 603.507447 
L 370.45497 613.82824 
L 371.622754 605.595772 
L 372.790539 603.485631 
L 373.958323 600.868289 
L 375.126108 594.447344 
L 376.293892 590.738489 
L 377.461677 571.947103 
L 378.629461 570.293071 
L 379.797246 585.312588 
L 380.96503 603.048491 
L 382.132814 603.572721 
L 383.300599 598.908434 
L 384.468383 614.940213 
L 385.636168 623.087739 
L 386.803952 619.389813 
L 387.971737 624.5752 
L 389.139521 643.015348 
L 390.307305 626.23823 
L 391.47509 586.562874 
L 392.642874 588.776687 
L 393.810659 588.629511 
L 394.978443 596.089214 
L 396.146228 609.181278 
L 397.314012 614.168212 
L 398.481796 600.683077 
L 399.649581 582.417392 
L 400.817365 587.254175 
L 401.98515 588.607363 
L 403.152934 577.801058 
L 404.320719 561.363393 
L 405.488503 576.194321 
L 406.656287 588.437718 
L 407.824072 578.515201 
L 408.991856 585.614906 
L 410.159641 589.773879 
L 411.327425 587.62973 
L 412.49521 601.035449 
L 413.662994 601.079497 
L 414.830778 588.448093 
L 415.998563 584.721366 
L 417.166347 600.213063 
L 418.334132 608.584174 
L 419.501916 601.274266 
L 420.669701 597.585817 
L 421.837485 599.446337 
L 423.005269 599.66263 
L 424.173054 618.713003 
L 425.340838 625.292456 
L 426.508623 621.329762 
L 427.676407 612.95114 
L 428.844192 619.582054 
L 430.011976 634.759689 
L 431.17976 636.860701 
L 432.347545 637.18015 
L 433.515329 626.033935 
L 434.683114 600.893996 
L 435.850898 582.609595 
L 437.018683 596.39392 
L 438.186467 590.061713 
L 439.354251 568.709759 
L 440.522036 596.600755 
L 441.68982 610.736703 
L 442.857605 611.785372 
L 444.025389 612.639781 
L 445.193174 602.493751 
L 446.360958 600.164268 
L 447.528743 611.290108 
L 448.696527 617.921405 
L 449.864311 611.062916 
L 451.032096 618.542964 
L 452.19988 630.859211 
L 453.367665 624.783906 
L 454.535449 624.544781 
L 455.703234 622.097661 
L 456.871018 610.105615 
L 458.038802 591.665509 
L 459.206587 582.621135 
L 460.374371 578.911206 
L 461.542156 564.486064 
L 462.70994 576.04116 
L 463.877725 598.402885 
L 465.045509 613.01424 
L 466.213293 606.731548 
L 467.381078 591.971831 
L 468.548862 605.766868 
L 469.716647 613.306851 
L 470.884431 616.344743 
L 472.052216 609.395627 
L 472.052216 609.395627 
" clip-path="url(#pe31c75d278)" style="fill: none; stroke: #1f77b4; stroke-width: 1.5; stroke-linecap: square"/>
   </g>
   <g id="line2d_35">
    <path d="M 83.18 599.763305 
L 473.22 599.763305 
" clip-path="url(#pe31c75d278)" style="fill: none; stroke: #ff0000; stroke-opacity: 0.3; stroke-width: 1.5; stroke-linecap: square"/>
   </g>
   <g id="patch_8">
    <path d="M 83.18 667.24 
L 83.18 385.08 
" style="fill: none; stroke: #000000; stroke-width: 0.8; stroke-linejoin: miter; stroke-linecap: square"/>
   </g>
   <g id="patch_9">
    <path d="M 473.22 667.24 
L 473.22 385.08 
" style="fill: none; stroke: #000000; stroke-width: 0.8; stroke-linejoin: miter; stroke-linecap: square"/>
   </g>
   <g id="patch_10">
    <path d="M 83.18 667.24 
L 473.22 667.24 
" style="fill: none; stroke: #000000; stroke-width: 0.8; stroke-linejoin: miter; stroke-linecap: square"/>
   </g>
   <g id="patch_11">
    <path d="M 83.18 385.08 
L 473.22 385.08 
" style="fill: none; stroke: #000000; stroke-width: 0.8; stroke-linejoin: miter; stroke-linecap: square"/>
   </g>
   <g id="text_37">
    <!-- Pressure -->
    <g transform="translate(241.31665 379.08) scale(0.1728 -0.1728)">
     <defs>
      <path id="DejaVuSans-50" d="M 1259 4147 
L 1259 2394 
L 2053 2394 
Q 2494 2394 2734 2622 
Q 2975 2850 2975 3272 
Q 2975 3691 2734 3919 
Q 2494 4147 2053 4147 
L 1259 4147 
z
M 628 4666 
L 2053 4666 
Q 2838 4666 3239 4311 
Q 3641 3956 3641 3272 
Q 3641 2581 3239 2228 
Q 2838 1875 2053 1875 
L 1259 1875 
L 1259 0 
L 628 0 
L 628 4666 
z
" transform="scale(0.015625)"/>
     </defs>
     <use xlink:href="#DejaVuSans-50"/>
     <use xlink:href="#DejaVuSans-72" x="58.552734"/>
     <use xlink:href="#DejaVuSans-65" x="97.416016"/>
     <use xlink:href="#DejaVuSans-73" x="158.939453"/>
     <use xlink:href="#DejaVuSans-73" x="211.039062"/>
     <use xlink:href="#DejaVuSans-75" x="263.138672"/>
     <use xlink:href="#DejaVuSans-72" x="326.517578"/>
     <use xlink:href="#DejaVuSans-65" x="365.380859"/>
    </g>
   </g>
  </g>
  <g id="axes_3">
   <g id="patch_12">
    <path d="M 535.16 667.24 
L 925.2 667.24 
L 925.2 385.08 
L 535.16 385.08 
z
" style="fill: #ffffff"/>
   </g>
   <g id="matplotlib.axis_5">
    <g id="xtick_15">
     <g id="line2d_36">
      <g>
       <use xlink:href="#m19b690d7bd" x="535.16" y="667.24" style="stroke: #000000; stroke-width: 0.8"/>
      </g>
     </g>
     <g id="text_38">
      <!-- 0.0 -->
      <g transform="translate(523.70975 685.18175) scale(0.144 -0.144)">
       <use xlink:href="#DejaVuSans-30"/>
       <use xlink:href="#DejaVuSans-2e" x="63.623047"/>
       <use xlink:href="#DejaVuSans-30" x="95.410156"/>
      </g>
     </g>
    </g>
    <g id="xtick_16">
     <g id="line2d_37">
      <g>
       <use xlink:href="#m19b690d7bd" x="593.549222" y="667.24" style="stroke: #000000; stroke-width: 0.8"/>
      </g>
     </g>
     <g id="text_39">
      <!-- 0.5 -->
      <g transform="translate(582.098972 685.18175) scale(0.144 -0.144)">
       <use xlink:href="#DejaVuSans-30"/>
       <use xlink:href="#DejaVuSans-2e" x="63.623047"/>
       <use xlink:href="#DejaVuSans-35" x="95.410156"/>
      </g>
     </g>
    </g>
    <g id="xtick_17">
     <g id="line2d_38">
      <g>
       <use xlink:href="#m19b690d7bd" x="651.938443" y="667.24" style="stroke: #000000; stroke-width: 0.8"/>
      </g>
     </g>
     <g id="text_40">
      <!-- 1.0 -->
      <g transform="translate(640.488193 685.18175) scale(0.144 -0.144)">
       <use xlink:href="#DejaVuSans-31"/>
       <use xlink:href="#DejaVuSans-2e" x="63.623047"/>
       <use xlink:href="#DejaVuSans-30" x="95.410156"/>
      </g>
     </g>
    </g>
    <g id="xtick_18">
     <g id="line2d_39">
      <g>
       <use xlink:href="#m19b690d7bd" x="710.327665" y="667.24" style="stroke: #000000; stroke-width: 0.8"/>
      </g>
     </g>
     <g id="text_41">
      <!-- 1.5 -->
      <g transform="translate(698.877415 685.18175) scale(0.144 -0.144)">
       <use xlink:href="#DejaVuSans-31"/>
       <use xlink:href="#DejaVuSans-2e" x="63.623047"/>
       <use xlink:href="#DejaVuSans-35" x="95.410156"/>
      </g>
     </g>
    </g>
    <g id="xtick_19">
     <g id="line2d_40">
      <g>
       <use xlink:href="#m19b690d7bd" x="768.716886" y="667.24" style="stroke: #000000; stroke-width: 0.8"/>
      </g>
     </g>
     <g id="text_42">
      <!-- 2.0 -->
      <g transform="translate(757.266636 685.18175) scale(0.144 -0.144)">
       <use xlink:href="#DejaVuSans-32"/>
       <use xlink:href="#DejaVuSans-2e" x="63.623047"/>
       <use xlink:href="#DejaVuSans-30" x="95.410156"/>
      </g>
     </g>
    </g>
    <g id="xtick_20">
     <g id="line2d_41">
      <g>
       <use xlink:href="#m19b690d7bd" x="827.106108" y="667.24" style="stroke: #000000; stroke-width: 0.8"/>
      </g>
     </g>
     <g id="text_43">
      <!-- 2.5 -->
      <g transform="translate(815.655858 685.18175) scale(0.144 -0.144)">
       <use xlink:href="#DejaVuSans-32"/>
       <use xlink:href="#DejaVuSans-2e" x="63.623047"/>
       <use xlink:href="#DejaVuSans-35" x="95.410156"/>
      </g>
     </g>
    </g>
    <g id="xtick_21">
     <g id="line2d_42">
      <g>
       <use xlink:href="#m19b690d7bd" x="885.495329" y="667.24" style="stroke: #000000; stroke-width: 0.8"/>
      </g>
     </g>
     <g id="text_44">
      <!-- 3.0 -->
      <g transform="translate(874.045079 685.18175) scale(0.144 -0.144)">
       <use xlink:href="#DejaVuSans-33"/>
       <use xlink:href="#DejaVuSans-2e" x="63.623047"/>
       <use xlink:href="#DejaVuSans-30" x="95.410156"/>
      </g>
     </g>
    </g>
    <g id="text_45">
     <!-- time in a.u. -->
     <g transform="translate(681.03055 705.3066) scale(0.1728 -0.1728)">
      <use xlink:href="#DejaVuSans-74"/>
      <use xlink:href="#DejaVuSans-69" x="39.208984"/>
      <use xlink:href="#DejaVuSans-6d" x="66.992188"/>
      <use xlink:href="#DejaVuSans-65" x="164.404297"/>
      <use xlink:href="#DejaVuSans-20" x="225.927734"/>
      <use xlink:href="#DejaVuSans-69" x="257.714844"/>
      <use xlink:href="#DejaVuSans-6e" x="285.498047"/>
      <use xlink:href="#DejaVuSans-20" x="348.876953"/>
      <use xlink:href="#DejaVuSans-61" x="380.664062"/>
      <use xlink:href="#DejaVuSans-2e" x="441.943359"/>
      <use xlink:href="#DejaVuSans-75" x="473.730469"/>
      <use xlink:href="#DejaVuSans-2e" x="537.109375"/>
     </g>
    </g>
   </g>
   <g id="matplotlib.axis_6">
    <g id="ytick_18">
     <g id="line2d_43">
      <g>
       <use xlink:href="#me0fe59fa1e" x="535.16" y="665.148785" style="stroke: #000000; stroke-width: 0.8"/>
      </g>
     </g>
     <g id="text_46">
      <!-- 0.8 -->
      <g transform="translate(505.2595 670.61966) scale(0.144 -0.144)">
       <use xlink:href="#DejaVuSans-30"/>
       <use xlink:href="#DejaVuSans-2e" x="63.623047"/>
       <use xlink:href="#DejaVuSans-38" x="95.410156"/>
      </g>
     </g>
    </g>
    <g id="ytick_19">
     <g id="line2d_44">
      <g>
       <use xlink:href="#me0fe59fa1e" x="535.16" y="623.000312" style="stroke: #000000; stroke-width: 0.8"/>
      </g>
     </g>
     <g id="text_47">
      <!-- 1.0 -->
      <g transform="translate(505.2595 628.471187) scale(0.144 -0.144)">
       <use xlink:href="#DejaVuSans-31"/>
       <use xlink:href="#DejaVuSans-2e" x="63.623047"/>
       <use xlink:href="#DejaVuSans-30" x="95.410156"/>
      </g>
     </g>
    </g>
    <g id="ytick_20">
     <g id="line2d_45">
      <g>
       <use xlink:href="#me0fe59fa1e" x="535.16" y="580.851839" style="stroke: #000000; stroke-width: 0.8"/>
      </g>
     </g>
     <g id="text_48">
      <!-- 1.2 -->
      <g transform="translate(505.2595 586.322714) scale(0.144 -0.144)">
       <use xlink:href="#DejaVuSans-31"/>
       <use xlink:href="#DejaVuSans-2e" x="63.623047"/>
       <use xlink:href="#DejaVuSans-32" x="95.410156"/>
      </g>
     </g>
    </g>
    <g id="ytick_21">
     <g id="line2d_46">
      <g>
       <use xlink:href="#me0fe59fa1e" x="535.16" y="538.703365" style="stroke: #000000; stroke-width: 0.8"/>
      </g>
     </g>
     <g id="text_49">
      <!-- 1.4 -->
      <g transform="translate(505.2595 544.17424) scale(0.144 -0.144)">
       <use xlink:href="#DejaVuSans-31"/>
       <use xlink:href="#DejaVuSans-2e" x="63.623047"/>
       <use xlink:href="#DejaVuSans-34" x="95.410156"/>
      </g>
     </g>
    </g>
    <g id="ytick_22">
     <g id="line2d_47">
      <g>
       <use xlink:href="#me0fe59fa1e" x="535.16" y="496.554892" style="stroke: #000000; stroke-width: 0.8"/>
      </g>
     </g>
     <g id="text_50">
      <!-- 1.6 -->
      <g transform="translate(505.2595 502.025767) scale(0.144 -0.144)">
       <use xlink:href="#DejaVuSans-31"/>
       <use xlink:href="#DejaVuSans-2e" x="63.623047"/>
       <use xlink:href="#DejaVuSans-36" x="95.410156"/>
      </g>
     </g>
    </g>
    <g id="ytick_23">
     <g id="line2d_48">
      <g>
       <use xlink:href="#me0fe59fa1e" x="535.16" y="454.406418" style="stroke: #000000; stroke-width: 0.8"/>
      </g>
     </g>
     <g id="text_51">
      <!-- 1.8 -->
      <g transform="translate(505.2595 459.877293) scale(0.144 -0.144)">
       <use xlink:href="#DejaVuSans-31"/>
       <use xlink:href="#DejaVuSans-2e" x="63.623047"/>
       <use xlink:href="#DejaVuSans-38" x="95.410156"/>
      </g>
     </g>
    </g>
    <g id="ytick_24">
     <g id="line2d_49">
      <g>
       <use xlink:href="#me0fe59fa1e" x="535.16" y="412.257945" style="stroke: #000000; stroke-width: 0.8"/>
      </g>
     </g>
     <g id="text_52">
      <!-- 2.0 -->
      <g transform="translate(505.2595 417.72882) scale(0.144 -0.144)">
       <use xlink:href="#DejaVuSans-32"/>
       <use xlink:href="#DejaVuSans-2e" x="63.623047"/>
       <use xlink:href="#DejaVuSans-30" x="95.410156"/>
      </g>
     </g>
    </g>
    <g id="text_53">
     <!-- temperature in a.u. -->
     <g transform="translate(497.6658 610.09355) rotate(-90) scale(0.1728 -0.1728)">
      <use xlink:href="#DejaVuSans-74"/>
      <use xlink:href="#DejaVuSans-65" x="39.208984"/>
      <use xlink:href="#DejaVuSans-6d" x="100.732422"/>
      <use xlink:href="#DejaVuSans-70" x="198.144531"/>
      <use xlink:href="#DejaVuSans-65" x="261.621094"/>
      <use xlink:href="#DejaVuSans-72" x="323.144531"/>
      <use xlink:href="#DejaVuSans-61" x="364.257812"/>
      <use xlink:href="#DejaVuSans-74" x="425.537109"/>
      <use xlink:href="#DejaVuSans-75" x="464.746094"/>
      <use xlink:href="#DejaVuSans-72" x="528.125"/>
      <use xlink:href="#DejaVuSans-65" x="566.988281"/>
      <use xlink:href="#DejaVuSans-20" x="628.511719"/>
      <use xlink:href="#DejaVuSans-69" x="660.298828"/>
      <use xlink:href="#DejaVuSans-6e" x="688.082031"/>
      <use xlink:href="#DejaVuSans-20" x="751.460938"/>
      <use xlink:href="#DejaVuSans-61" x="783.248047"/>
      <use xlink:href="#DejaVuSans-2e" x="844.527344"/>
      <use xlink:href="#DejaVuSans-75" x="876.314453"/>
      <use xlink:href="#DejaVuSans-2e" x="939.693359"/>
     </g>
    </g>
   </g>
   <g id="line2d_50">
    <path d="M 535.16 408.593333 
L 536.327784 572.630295 
L 537.495569 629.078863 
L 538.663353 629.068007 
L 539.831138 620.593891 
L 540.998922 619.100991 
L 542.166707 630.219195 
L 543.334491 630.248198 
L 544.502275 621.827481 
L 545.67006 618.97867 
L 548.005629 638.089871 
L 549.173413 615.407212 
L 550.341198 614.395203 
L 551.508982 617.827963 
L 552.676766 622.679409 
L 553.844551 620.337014 
L 555.012335 624.654521 
L 556.18012 620.120347 
L 557.347904 617.708754 
L 558.515689 621.536852 
L 559.683473 624.561879 
L 560.851257 623.048049 
L 562.019042 622.958701 
L 563.186826 627.637784 
L 564.354611 626.109979 
L 565.522395 616.323681 
L 566.69018 620.037072 
L 567.857964 628.080682 
L 569.025749 632.27352 
L 570.193533 620.407114 
L 571.361317 620.784867 
L 572.529102 620.675581 
L 573.696886 625.537449 
L 574.864671 628.617502 
L 576.032455 626.916493 
L 577.20024 613.007585 
L 578.368024 617.017744 
L 579.535808 627.237804 
L 580.703593 624.41179 
L 581.871377 625.091577 
L 583.039162 621.611225 
L 584.206946 618.52395 
L 585.374731 619.379197 
L 586.542515 617.54828 
L 587.710299 624.914318 
L 588.878084 625.676501 
L 590.045868 625.424274 
L 591.213653 631.023059 
L 592.381437 615.631225 
L 593.549222 617.400157 
L 594.717006 623.070861 
L 595.88479 621.092682 
L 597.052575 620.558202 
L 598.220359 623.896286 
L 599.388144 630.221702 
L 600.555928 609.484987 
L 601.723713 617.971604 
L 602.891497 634.735776 
L 604.059281 620.227687 
L 605.227066 615.080905 
L 606.39485 624.120926 
L 607.562635 622.480193 
L 608.730419 618.288983 
L 611.065988 629.158726 
L 613.401557 618.323898 
L 614.569341 622.267848 
L 615.737126 625.573779 
L 616.90491 633.81098 
L 618.072695 635.668089 
L 619.240479 618.018499 
L 620.408263 610.96325 
L 621.576048 623.971125 
L 622.743832 627.510289 
L 623.911617 632.962219 
L 625.079401 621.573476 
L 626.247186 614.4176 
L 627.41497 622.358722 
L 628.582754 627.62099 
L 629.750539 626.380607 
L 630.918323 614.96774 
L 632.086108 630.72703 
L 633.253892 632.341479 
L 634.421677 610.487099 
L 635.589461 613.105632 
L 636.757246 620.981448 
L 637.92503 624.222886 
L 639.092814 620.147145 
L 640.260599 621.328553 
L 641.428383 631.386359 
L 642.596168 634.461396 
L 643.763952 621.442325 
L 644.931737 611.476969 
L 646.099521 620.710429 
L 647.267305 622.904645 
L 648.43509 615.514618 
L 649.602874 619.95786 
L 650.770659 620.679 
L 651.938443 620.026383 
L 653.106228 625.552232 
L 654.274012 630.116321 
L 656.609581 625.955629 
L 657.777365 619.44359 
L 658.94515 621.597688 
L 660.112934 627.727862 
L 661.280719 616.243044 
L 662.448503 622.567044 
L 663.616287 627.05918 
L 664.784072 634.140209 
L 665.951856 630.601099 
L 667.119641 616.203926 
L 668.287425 614.25222 
L 669.45521 621.516522 
L 670.622994 626.709712 
L 671.790778 620.608806 
L 672.958563 625.999763 
L 674.126347 635.448928 
L 675.294132 621.015121 
L 676.461916 611.011218 
L 677.629701 611.612352 
L 678.797485 625.2039 
L 679.965269 630.158142 
L 681.133054 629.577027 
L 682.300838 631.533895 
L 683.468623 610.098663 
L 684.636407 620.375701 
L 685.804192 643.726667 
L 686.971976 611.772111 
L 688.13976 612.990122 
L 689.307545 630.151007 
L 690.475329 624.187374 
L 691.643114 614.031567 
L 692.810898 612.945792 
L 693.978683 623.385246 
L 695.146467 626.369707 
L 696.314251 622.166502 
L 697.482036 628.000168 
L 698.64982 627.342466 
L 699.817605 616.709558 
L 700.985389 623.41059 
L 702.153174 634.110152 
L 703.320958 624.296173 
L 704.488743 617.128809 
L 705.656527 614.829674 
L 706.824311 624.416273 
L 707.992096 640.26931 
L 709.15988 620.968046 
L 710.327665 610.095536 
L 711.495449 625.524388 
L 712.663234 624.116701 
L 713.831018 618.811641 
L 714.998802 615.581532 
L 716.166587 618.712064 
L 717.334371 626.361309 
L 718.502156 631.423856 
L 719.66994 625.239422 
L 720.837725 620.673204 
L 722.005509 622.06089 
L 723.173293 626.261674 
L 725.508862 624.128914 
L 726.676647 619.447169 
L 727.844431 621.909466 
L 729.012216 626.47216 
L 730.18 617.817365 
L 731.347784 626.305689 
L 732.515569 626.358807 
L 733.683353 616.796193 
L 734.851138 624.28463 
L 736.018922 622.665116 
L 737.186707 620.074168 
L 738.354491 625.93757 
L 740.69006 619.035613 
L 741.857844 620.630303 
L 743.025629 628.766852 
L 744.193413 641.013379 
L 745.361198 622.18395 
L 746.528982 611.772896 
L 747.696766 616.522224 
L 748.864551 618.902428 
L 750.032335 622.683345 
L 751.20012 626.841712 
L 752.367904 630.309877 
L 753.535689 625.832872 
L 754.703473 624.260239 
L 755.871257 620.538495 
L 757.039042 620.374623 
L 758.206826 629.388324 
L 759.374611 610.011237 
L 760.542395 615.806052 
L 761.71018 633.4677 
L 762.877964 626.616069 
L 764.045749 613.3038 
L 765.213533 620.74316 
L 766.381317 628.902981 
L 767.549102 626.578791 
L 768.716886 625.354568 
L 769.884671 625.459696 
L 771.052455 629.998933 
L 772.22024 620.038589 
L 773.388024 627.16958 
L 774.555808 616.071031 
L 775.723593 608.905668 
L 776.891377 624.79687 
L 778.059162 632.15919 
L 779.226946 628.053966 
L 780.394731 629.588149 
L 781.562515 632.256569 
L 782.730299 609.848924 
L 785.065868 629.191541 
L 786.233653 614.840613 
L 787.401437 612.638593 
L 788.569222 627.932108 
L 789.737006 632.305606 
L 790.90479 624.945143 
L 792.072575 611.651373 
L 793.240359 616.606921 
L 794.408144 619.731372 
L 795.575928 622.396933 
L 796.743713 620.828738 
L 799.079281 630.27958 
L 800.247066 625.754352 
L 801.41485 623.972378 
L 802.582635 618.24693 
L 803.750419 634.349637 
L 804.918204 609.28284 
L 806.085988 618.400205 
L 807.253772 616.1908 
L 808.421557 622.189523 
L 809.589341 629.494995 
L 810.757126 627.183614 
L 811.92491 618.159835 
L 813.092695 622.110728 
L 814.260479 628.57059 
L 815.428263 618.981409 
L 816.596048 620.696742 
L 817.763832 626.472896 
L 818.931617 618.083714 
L 820.099401 623.434186 
L 821.267186 634.201224 
L 822.43497 614.918033 
L 823.602754 628.180163 
L 824.770539 622.332513 
L 825.938323 622.672067 
L 827.106108 624.297225 
L 828.273892 621.642475 
L 829.441677 632.05127 
L 830.609461 622.275961 
L 831.777246 614.67742 
L 832.94503 614.4801 
L 834.112814 625.119825 
L 835.280599 627.605044 
L 836.448383 614.007207 
L 837.616168 619.874843 
L 838.783952 626.772859 
L 839.951737 620.30285 
L 841.119521 609.949073 
L 842.287305 630.750134 
L 843.45509 642.660183 
L 844.622874 614.656939 
L 845.790659 620.504781 
L 846.958443 616.640379 
L 848.126228 614.220802 
L 849.294012 618.83147 
L 850.461796 629.192784 
L 851.629581 631.69932 
L 852.797365 617.263761 
L 853.96515 621.13917 
L 855.132934 628.488137 
L 856.300719 631.5609 
L 857.468503 611.417061 
L 858.636287 615.343374 
L 859.804072 630.685781 
L 860.971856 620.033708 
L 863.307425 628.664518 
L 864.47521 617.518781 
L 865.642994 626.218362 
L 866.810778 633.307658 
L 867.978563 627.718948 
L 869.146347 616.338453 
L 870.314132 621.454687 
L 871.481916 630.749948 
L 872.649701 627.672415 
L 873.817485 625.506116 
L 874.985269 628.305851 
L 876.153054 615.90692 
L 877.320838 623.930639 
L 878.488623 628.641169 
L 879.656407 630.572775 
L 880.824192 621.061304 
L 881.991976 615.790264 
L 883.15976 623.098641 
L 884.327545 621.045172 
L 885.495329 626.102626 
L 886.663114 633.526318 
L 887.830898 629.349933 
L 888.998683 610.331774 
L 890.166467 626.178087 
L 891.334251 635.846436 
L 892.502036 603.635576 
L 893.66982 615.893272 
L 894.837605 623.389301 
L 896.005389 622.442308 
L 897.173174 629.55328 
L 898.340958 624.803816 
L 899.508743 617.539538 
L 900.676527 621.304595 
L 901.844311 629.756972 
L 903.012096 619.676368 
L 904.17988 616.484431 
L 905.347665 627.161529 
L 906.515449 620.691533 
L 907.683234 620.755265 
L 908.851018 625.213222 
L 910.018802 629.185332 
L 911.186587 624.510413 
L 912.354371 622.760562 
L 913.522156 631.891387 
L 914.68994 616.62063 
L 915.857725 612.116402 
L 917.025509 616.824464 
L 918.193293 628.522914 
L 919.361078 632.495196 
L 920.528862 613.353634 
L 921.696647 618.853264 
L 922.864431 620.097613 
L 924.032216 624.757325 
L 924.032216 624.757325 
" clip-path="url(#p36cafef94d)" style="fill: none; stroke: #1f77b4; stroke-width: 1.5; stroke-linecap: square"/>
   </g>
   <g id="line2d_51">
    <path d="M 535.16 622.14992 
L 925.2 622.14992 
" clip-path="url(#p36cafef94d)" style="fill: none; stroke: #ff0000; stroke-opacity: 0.3; stroke-width: 1.5; stroke-linecap: square"/>
   </g>
   <g id="patch_13">
    <path d="M 535.16 667.24 
L 535.16 385.08 
" style="fill: none; stroke: #000000; stroke-width: 0.8; stroke-linejoin: miter; stroke-linecap: square"/>
   </g>
   <g id="patch_14">
    <path d="M 925.2 667.24 
L 925.2 385.08 
" style="fill: none; stroke: #000000; stroke-width: 0.8; stroke-linejoin: miter; stroke-linecap: square"/>
   </g>
   <g id="patch_15">
    <path d="M 535.16 667.24 
L 925.2 667.24 
" style="fill: none; stroke: #000000; stroke-width: 0.8; stroke-linejoin: miter; stroke-linecap: square"/>
   </g>
   <g id="patch_16">
    <path d="M 535.16 385.08 
L 925.2 385.08 
" style="fill: none; stroke: #000000; stroke-width: 0.8; stroke-linejoin: miter; stroke-linecap: square"/>
   </g>
   <g id="text_54">
    <!-- Temperature -->
    <g transform="translate(675.45505 379.08) scale(0.1728 -0.1728)">
     <defs>
      <path id="DejaVuSans-54" d="M -19 4666 
L 3928 4666 
L 3928 4134 
L 2272 4134 
L 2272 0 
L 1638 0 
L 1638 4134 
L -19 4134 
L -19 4666 
z
" transform="scale(0.015625)"/>
     </defs>
     <use xlink:href="#DejaVuSans-54"/>
     <use xlink:href="#DejaVuSans-65" x="44.083984"/>
     <use xlink:href="#DejaVuSans-6d" x="105.607422"/>
     <use xlink:href="#DejaVuSans-70" x="203.019531"/>
     <use xlink:href="#DejaVuSans-65" x="266.496094"/>
     <use xlink:href="#DejaVuSans-72" x="328.019531"/>
     <use xlink:href="#DejaVuSans-61" x="369.132812"/>
     <use xlink:href="#DejaVuSans-74" x="430.412109"/>
     <use xlink:href="#DejaVuSans-75" x="469.621094"/>
     <use xlink:href="#DejaVuSans-72" x="533"/>
     <use xlink:href="#DejaVuSans-65" x="571.863281"/>
    </g>
   </g>
  </g>
 </g>
 <defs>
  <clipPath id="p6da28fda7a">
   <rect x="83.18" y="30.48" width="842.02" height="282.16"/>
  </clipPath>
  <clipPath id="pe31c75d278">
   <rect x="83.18" y="385.08" width="390.04" height="282.16"/>
  </clipPath>
  <clipPath id="p36cafef94d">
   <rect x="535.16" y="385.08" width="390.04" height="282.16"/>
  </clipPath>
 </defs>
</svg>
