<?xml version="1.0" encoding="utf-8" standalone="no"?>
<!DOCTYPE svg PUBLIC "-//W3C//DTD SVG 1.1//EN"
  "http://www.w3.org/Graphics/SVG/1.1/DTD/svg11.dtd">
<svg xmlns:xlink="http://www.w3.org/1999/xlink" width="936pt" height="720pt" viewBox="0 0 936 720" xmlns="http://www.w3.org/2000/svg" version="1.1">
 <metadata>
  <rdf:RDF xmlns:dc="http://purl.org/dc/elements/1.1/" xmlns:cc="http://creativecommons.org/ns#" xmlns:rdf="http://www.w3.org/1999/02/22-rdf-syntax-ns#">
   <cc:Work>
    <dc:type rdf:resource="http://purl.org/dc/dcmitype/StillImage"/>
    <dc:date>2024-12-09T07:09:09.855173</dc:date>
    <dc:format>image/svg+xml</dc:format>
    <dc:creator>
     <cc:Agent>
      <dc:title>Matplotlib v3.8.0, https://matplotlib.org/</dc:title>
     </cc:Agent>
    </dc:creator>
   </cc:Work>
  </rdf:RDF>
 </metadata>
 <defs>
  <style type="text/css">*{stroke-linejoin: round; stroke-linecap: butt}</style>
 </defs>
 <g id="figure_1">
  <g id="patch_1">
   <path d="M 0 720 
L 936 720 
L 936 0 
L 0 0 
z
" style="fill: #ffffff"/>
  </g>
  <g id="axes_1">
   <g id="patch_2">
    <path d="M 71.12 312.64 
L 925.2 312.64 
L 925.2 30.48 
L 71.12 30.48 
z
" style="fill: #ffffff"/>
   </g>
   <g id="matplotlib.axis_1">
    <g id="xtick_1">
     <g id="line2d_1">
      <defs>
       <path id="mdec6ec13b5" d="M 0 0 
L 0 3.5 
" style="stroke: #000000; stroke-width: 0.8"/>
      </defs>
      <g>
       <use xlink:href="#mdec6ec13b5" x="71.12" y="312.64" style="stroke: #000000; stroke-width: 0.8"/>
      </g>
     </g>
     <g id="text_1">
      <!-- 0 -->
      <g transform="translate(66.539 330.58175) scale(0.144 -0.144)">
       <defs>
        <path id="DejaVuSans-30" d="M 2034 4250 
Q 1547 4250 1301 3770 
Q 1056 3291 1056 2328 
Q 1056 1369 1301 889 
Q 1547 409 2034 409 
Q 2525 409 2770 889 
Q 3016 1369 3016 2328 
Q 3016 3291 2770 3770 
Q 2525 4250 2034 4250 
z
M 2034 4750 
Q 2819 4750 3233 4129 
Q 3647 3509 3647 2328 
Q 3647 1150 3233 529 
Q 2819 -91 2034 -91 
Q 1250 -91 836 529 
Q 422 1150 422 2328 
Q 422 3509 836 4129 
Q 1250 4750 2034 4750 
z
" transform="scale(0.015625)"/>
       </defs>
       <use xlink:href="#DejaVuSans-30"/>
      </g>
     </g>
    </g>
    <g id="xtick_2">
     <g id="line2d_2">
      <g>
       <use xlink:href="#mdec6ec13b5" x="199.167976" y="312.64" style="stroke: #000000; stroke-width: 0.8"/>
      </g>
     </g>
     <g id="text_2">
      <!-- 1 -->
      <g transform="translate(194.586976 330.58175) scale(0.144 -0.144)">
       <defs>
        <path id="DejaVuSans-31" d="M 794 531 
L 1825 531 
L 1825 4091 
L 703 3866 
L 703 4441 
L 1819 4666 
L 2450 4666 
L 2450 531 
L 3481 531 
L 3481 0 
L 794 0 
L 794 531 
z
" transform="scale(0.015625)"/>
       </defs>
       <use xlink:href="#DejaVuSans-31"/>
      </g>
     </g>
    </g>
    <g id="xtick_3">
     <g id="line2d_3">
      <g>
       <use xlink:href="#mdec6ec13b5" x="327.215952" y="312.64" style="stroke: #000000; stroke-width: 0.8"/>
      </g>
     </g>
     <g id="text_3">
      <!-- 2 -->
      <g transform="translate(322.634952 330.58175) scale(0.144 -0.144)">
       <defs>
        <path id="DejaVuSans-32" d="M 1228 531 
L 3431 531 
L 3431 0 
L 469 0 
L 469 531 
Q 828 903 1448 1529 
Q 2069 2156 2228 2338 
Q 2531 2678 2651 2914 
Q 2772 3150 2772 3378 
Q 2772 3750 2511 3984 
Q 2250 4219 1831 4219 
Q 1534 4219 1204 4116 
Q 875 4013 500 3803 
L 500 4441 
Q 881 4594 1212 4672 
Q 1544 4750 1819 4750 
Q 2544 4750 2975 4387 
Q 3406 4025 3406 3419 
Q 3406 3131 3298 2873 
Q 3191 2616 2906 2266 
Q 2828 2175 2409 1742 
Q 1991 1309 1228 531 
z
" transform="scale(0.015625)"/>
       </defs>
       <use xlink:href="#DejaVuSans-32"/>
      </g>
     </g>
    </g>
    <g id="xtick_4">
     <g id="line2d_4">
      <g>
       <use xlink:href="#mdec6ec13b5" x="455.263928" y="312.64" style="stroke: #000000; stroke-width: 0.8"/>
      </g>
     </g>
     <g id="text_4">
      <!-- 3 -->
      <g transform="translate(450.682928 330.58175) scale(0.144 -0.144)">
       <defs>
        <path id="DejaVuSans-33" d="M 2597 2516 
Q 3050 2419 3304 2112 
Q 3559 1806 3559 1356 
Q 3559 666 3084 287 
Q 2609 -91 1734 -91 
Q 1441 -91 1130 -33 
Q 819 25 488 141 
L 488 750 
Q 750 597 1062 519 
Q 1375 441 1716 441 
Q 2309 441 2620 675 
Q 2931 909 2931 1356 
Q 2931 1769 2642 2001 
Q 2353 2234 1838 2234 
L 1294 2234 
L 1294 2753 
L 1863 2753 
Q 2328 2753 2575 2939 
Q 2822 3125 2822 3475 
Q 2822 3834 2567 4026 
Q 2313 4219 1838 4219 
Q 1578 4219 1281 4162 
Q 984 4106 628 3988 
L 628 4550 
Q 988 4650 1302 4700 
Q 1616 4750 1894 4750 
Q 2613 4750 3031 4423 
Q 3450 4097 3450 3541 
Q 3450 3153 3228 2886 
Q 3006 2619 2597 2516 
z
" transform="scale(0.015625)"/>
       </defs>
       <use xlink:href="#DejaVuSans-33"/>
      </g>
     </g>
    </g>
    <g id="xtick_5">
     <g id="line2d_5">
      <g>
       <use xlink:href="#mdec6ec13b5" x="583.311904" y="312.64" style="stroke: #000000; stroke-width: 0.8"/>
      </g>
     </g>
     <g id="text_5">
      <!-- 4 -->
      <g transform="translate(578.730904 330.58175) scale(0.144 -0.144)">
       <defs>
        <path id="DejaVuSans-34" d="M 2419 4116 
L 825 1625 
L 2419 1625 
L 2419 4116 
z
M 2253 4666 
L 3047 4666 
L 3047 1625 
L 3713 1625 
L 3713 1100 
L 3047 1100 
L 3047 0 
L 2419 0 
L 2419 1100 
L 313 1100 
L 313 1709 
L 2253 4666 
z
" transform="scale(0.015625)"/>
       </defs>
       <use xlink:href="#DejaVuSans-34"/>
      </g>
     </g>
    </g>
    <g id="xtick_6">
     <g id="line2d_6">
      <g>
       <use xlink:href="#mdec6ec13b5" x="711.35988" y="312.64" style="stroke: #000000; stroke-width: 0.8"/>
      </g>
     </g>
     <g id="text_6">
      <!-- 5 -->
      <g transform="translate(706.77888 330.58175) scale(0.144 -0.144)">
       <defs>
        <path id="DejaVuSans-35" d="M 691 4666 
L 3169 4666 
L 3169 4134 
L 1269 4134 
L 1269 2991 
Q 1406 3038 1543 3061 
Q 1681 3084 1819 3084 
Q 2600 3084 3056 2656 
Q 3513 2228 3513 1497 
Q 3513 744 3044 326 
Q 2575 -91 1722 -91 
Q 1428 -91 1123 -41 
Q 819 9 494 109 
L 494 744 
Q 775 591 1075 516 
Q 1375 441 1709 441 
Q 2250 441 2565 725 
Q 2881 1009 2881 1497 
Q 2881 1984 2565 2268 
Q 2250 2553 1709 2553 
Q 1456 2553 1204 2497 
Q 953 2441 691 2322 
L 691 4666 
z
" transform="scale(0.015625)"/>
       </defs>
       <use xlink:href="#DejaVuSans-35"/>
      </g>
     </g>
    </g>
    <g id="xtick_7">
     <g id="line2d_7">
      <g>
       <use xlink:href="#mdec6ec13b5" x="839.407856" y="312.64" style="stroke: #000000; stroke-width: 0.8"/>
      </g>
     </g>
     <g id="text_7">
      <!-- 6 -->
      <g transform="translate(834.826856 330.58175) scale(0.144 -0.144)">
       <defs>
        <path id="DejaVuSans-36" d="M 2113 2584 
Q 1688 2584 1439 2293 
Q 1191 2003 1191 1497 
Q 1191 994 1439 701 
Q 1688 409 2113 409 
Q 2538 409 2786 701 
Q 3034 994 3034 1497 
Q 3034 2003 2786 2293 
Q 2538 2584 2113 2584 
z
M 3366 4563 
L 3366 3988 
Q 3128 4100 2886 4159 
Q 2644 4219 2406 4219 
Q 1781 4219 1451 3797 
Q 1122 3375 1075 2522 
Q 1259 2794 1537 2939 
Q 1816 3084 2150 3084 
Q 2853 3084 3261 2657 
Q 3669 2231 3669 1497 
Q 3669 778 3244 343 
Q 2819 -91 2113 -91 
Q 1303 -91 875 529 
Q 447 1150 447 2328 
Q 447 3434 972 4092 
Q 1497 4750 2381 4750 
Q 2619 4750 2861 4703 
Q 3103 4656 3366 4563 
z
" transform="scale(0.015625)"/>
       </defs>
       <use xlink:href="#DejaVuSans-36"/>
      </g>
     </g>
    </g>
    <g id="text_8">
     <!-- time in a.u. -->
     <g transform="translate(449.01055 350.7066) scale(0.1728 -0.1728)">
      <defs>
       <path id="DejaVuSans-74" d="M 1172 4494 
L 1172 3500 
L 2356 3500 
L 2356 3053 
L 1172 3053 
L 1172 1153 
Q 1172 725 1289 603 
Q 1406 481 1766 481 
L 2356 481 
L 2356 0 
L 1766 0 
Q 1100 0 847 248 
Q 594 497 594 1153 
L 594 3053 
L 172 3053 
L 172 3500 
L 594 3500 
L 594 4494 
L 1172 4494 
z
" transform="scale(0.015625)"/>
       <path id="DejaVuSans-69" d="M 603 3500 
L 1178 3500 
L 1178 0 
L 603 0 
L 603 3500 
z
M 603 4863 
L 1178 4863 
L 1178 4134 
L 603 4134 
L 603 4863 
z
" transform="scale(0.015625)"/>
       <path id="DejaVuSans-6d" d="M 3328 2828 
Q 3544 3216 3844 3400 
Q 4144 3584 4550 3584 
Q 5097 3584 5394 3201 
Q 5691 2819 5691 2113 
L 5691 0 
L 5113 0 
L 5113 2094 
Q 5113 2597 4934 2840 
Q 4756 3084 4391 3084 
Q 3944 3084 3684 2787 
Q 3425 2491 3425 1978 
L 3425 0 
L 2847 0 
L 2847 2094 
Q 2847 2600 2669 2842 
Q 2491 3084 2119 3084 
Q 1678 3084 1418 2786 
Q 1159 2488 1159 1978 
L 1159 0 
L 581 0 
L 581 3500 
L 1159 3500 
L 1159 2956 
Q 1356 3278 1631 3431 
Q 1906 3584 2284 3584 
Q 2666 3584 2933 3390 
Q 3200 3197 3328 2828 
z
" transform="scale(0.015625)"/>
       <path id="DejaVuSans-65" d="M 3597 1894 
L 3597 1613 
L 953 1613 
Q 991 1019 1311 708 
Q 1631 397 2203 397 
Q 2534 397 2845 478 
Q 3156 559 3463 722 
L 3463 178 
Q 3153 47 2828 -22 
Q 2503 -91 2169 -91 
Q 1331 -91 842 396 
Q 353 884 353 1716 
Q 353 2575 817 3079 
Q 1281 3584 2069 3584 
Q 2775 3584 3186 3129 
Q 3597 2675 3597 1894 
z
M 3022 2063 
Q 3016 2534 2758 2815 
Q 2500 3097 2075 3097 
Q 1594 3097 1305 2825 
Q 1016 2553 972 2059 
L 3022 2063 
z
" transform="scale(0.015625)"/>
       <path id="DejaVuSans-20" transform="scale(0.015625)"/>
       <path id="DejaVuSans-6e" d="M 3513 2113 
L 3513 0 
L 2938 0 
L 2938 2094 
Q 2938 2591 2744 2837 
Q 2550 3084 2163 3084 
Q 1697 3084 1428 2787 
Q 1159 2491 1159 1978 
L 1159 0 
L 581 0 
L 581 3500 
L 1159 3500 
L 1159 2956 
Q 1366 3272 1645 3428 
Q 1925 3584 2291 3584 
Q 2894 3584 3203 3211 
Q 3513 2838 3513 2113 
z
" transform="scale(0.015625)"/>
       <path id="DejaVuSans-61" d="M 2194 1759 
Q 1497 1759 1228 1600 
Q 959 1441 959 1056 
Q 959 750 1161 570 
Q 1363 391 1709 391 
Q 2188 391 2477 730 
Q 2766 1069 2766 1631 
L 2766 1759 
L 2194 1759 
z
M 3341 1997 
L 3341 0 
L 2766 0 
L 2766 531 
Q 2569 213 2275 61 
Q 1981 -91 1556 -91 
Q 1019 -91 701 211 
Q 384 513 384 1019 
Q 384 1609 779 1909 
Q 1175 2209 1959 2209 
L 2766 2209 
L 2766 2266 
Q 2766 2663 2505 2880 
Q 2244 3097 1772 3097 
Q 1472 3097 1187 3025 
Q 903 2953 641 2809 
L 641 3341 
Q 956 3463 1253 3523 
Q 1550 3584 1831 3584 
Q 2591 3584 2966 3190 
Q 3341 2797 3341 1997 
z
" transform="scale(0.015625)"/>
       <path id="DejaVuSans-2e" d="M 684 794 
L 1344 794 
L 1344 0 
L 684 0 
L 684 794 
z
" transform="scale(0.015625)"/>
       <path id="DejaVuSans-75" d="M 544 1381 
L 544 3500 
L 1119 3500 
L 1119 1403 
Q 1119 906 1312 657 
Q 1506 409 1894 409 
Q 2359 409 2629 706 
Q 2900 1003 2900 1516 
L 2900 3500 
L 3475 3500 
L 3475 0 
L 2900 0 
L 2900 538 
Q 2691 219 2414 64 
Q 2138 -91 1772 -91 
Q 1169 -91 856 284 
Q 544 659 544 1381 
z
M 1991 3584 
L 1991 3584 
z
" transform="scale(0.015625)"/>
      </defs>
      <use xlink:href="#DejaVuSans-74"/>
      <use xlink:href="#DejaVuSans-69" x="39.208984"/>
      <use xlink:href="#DejaVuSans-6d" x="66.992188"/>
      <use xlink:href="#DejaVuSans-65" x="164.404297"/>
      <use xlink:href="#DejaVuSans-20" x="225.927734"/>
      <use xlink:href="#DejaVuSans-69" x="257.714844"/>
      <use xlink:href="#DejaVuSans-6e" x="285.498047"/>
      <use xlink:href="#DejaVuSans-20" x="348.876953"/>
      <use xlink:href="#DejaVuSans-61" x="380.664062"/>
      <use xlink:href="#DejaVuSans-2e" x="441.943359"/>
      <use xlink:href="#DejaVuSans-75" x="473.730469"/>
      <use xlink:href="#DejaVuSans-2e" x="537.109375"/>
     </g>
    </g>
   </g>
   <g id="matplotlib.axis_2">
    <g id="ytick_1">
     <g id="line2d_8">
      <defs>
       <path id="m29b10221c8" d="M 0 0 
L -3.5 0 
" style="stroke: #000000; stroke-width: 0.8"/>
      </defs>
      <g>
       <use xlink:href="#m29b10221c8" x="71.12" y="281.486727" style="stroke: #000000; stroke-width: 0.8"/>
      </g>
     </g>
     <g id="text_9">
      <!-- 120 -->
      <g transform="translate(36.634 286.957602) scale(0.144 -0.144)">
       <use xlink:href="#DejaVuSans-31"/>
       <use xlink:href="#DejaVuSans-32" x="63.623047"/>
       <use xlink:href="#DejaVuSans-30" x="127.246094"/>
      </g>
     </g>
    </g>
    <g id="ytick_2">
     <g id="line2d_9">
      <g>
       <use xlink:href="#m29b10221c8" x="71.12" y="237.881693" style="stroke: #000000; stroke-width: 0.8"/>
      </g>
     </g>
     <g id="text_10">
      <!-- 140 -->
      <g transform="translate(36.634 243.352568) scale(0.144 -0.144)">
       <use xlink:href="#DejaVuSans-31"/>
       <use xlink:href="#DejaVuSans-34" x="63.623047"/>
       <use xlink:href="#DejaVuSans-30" x="127.246094"/>
      </g>
     </g>
    </g>
    <g id="ytick_3">
     <g id="line2d_10">
      <g>
       <use xlink:href="#m29b10221c8" x="71.12" y="194.276659" style="stroke: #000000; stroke-width: 0.8"/>
      </g>
     </g>
     <g id="text_11">
      <!-- 160 -->
      <g transform="translate(36.634 199.747534) scale(0.144 -0.144)">
       <use xlink:href="#DejaVuSans-31"/>
       <use xlink:href="#DejaVuSans-36" x="63.623047"/>
       <use xlink:href="#DejaVuSans-30" x="127.246094"/>
      </g>
     </g>
    </g>
    <g id="ytick_4">
     <g id="line2d_11">
      <g>
       <use xlink:href="#m29b10221c8" x="71.12" y="150.671625" style="stroke: #000000; stroke-width: 0.8"/>
      </g>
     </g>
     <g id="text_12">
      <!-- 180 -->
      <g transform="translate(36.634 156.1425) scale(0.144 -0.144)">
       <defs>
        <path id="DejaVuSans-38" d="M 2034 2216 
Q 1584 2216 1326 1975 
Q 1069 1734 1069 1313 
Q 1069 891 1326 650 
Q 1584 409 2034 409 
Q 2484 409 2743 651 
Q 3003 894 3003 1313 
Q 3003 1734 2745 1975 
Q 2488 2216 2034 2216 
z
M 1403 2484 
Q 997 2584 770 2862 
Q 544 3141 544 3541 
Q 544 4100 942 4425 
Q 1341 4750 2034 4750 
Q 2731 4750 3128 4425 
Q 3525 4100 3525 3541 
Q 3525 3141 3298 2862 
Q 3072 2584 2669 2484 
Q 3125 2378 3379 2068 
Q 3634 1759 3634 1313 
Q 3634 634 3220 271 
Q 2806 -91 2034 -91 
Q 1263 -91 848 271 
Q 434 634 434 1313 
Q 434 1759 690 2068 
Q 947 2378 1403 2484 
z
M 1172 3481 
Q 1172 3119 1398 2916 
Q 1625 2713 2034 2713 
Q 2441 2713 2670 2916 
Q 2900 3119 2900 3481 
Q 2900 3844 2670 4047 
Q 2441 4250 2034 4250 
Q 1625 4250 1398 4047 
Q 1172 3844 1172 3481 
z
" transform="scale(0.015625)"/>
       </defs>
       <use xlink:href="#DejaVuSans-31"/>
       <use xlink:href="#DejaVuSans-38" x="63.623047"/>
       <use xlink:href="#DejaVuSans-30" x="127.246094"/>
      </g>
     </g>
    </g>
    <g id="ytick_5">
     <g id="line2d_12">
      <g>
       <use xlink:href="#m29b10221c8" x="71.12" y="107.066591" style="stroke: #000000; stroke-width: 0.8"/>
      </g>
     </g>
     <g id="text_13">
      <!-- 200 -->
      <g transform="translate(36.634 112.537466) scale(0.144 -0.144)">
       <use xlink:href="#DejaVuSans-32"/>
       <use xlink:href="#DejaVuSans-30" x="63.623047"/>
       <use xlink:href="#DejaVuSans-30" x="127.246094"/>
      </g>
     </g>
    </g>
    <g id="ytick_6">
     <g id="line2d_13">
      <g>
       <use xlink:href="#m29b10221c8" x="71.12" y="63.461557" style="stroke: #000000; stroke-width: 0.8"/>
      </g>
     </g>
     <g id="text_14">
      <!-- 220 -->
      <g transform="translate(36.634 68.932432) scale(0.144 -0.144)">
       <use xlink:href="#DejaVuSans-32"/>
       <use xlink:href="#DejaVuSans-32" x="63.623047"/>
       <use xlink:href="#DejaVuSans-30" x="127.246094"/>
      </g>
     </g>
    </g>
    <g id="text_15">
     <!-- (avg. M=49) energy in a.u. -->
     <g transform="translate(29.0403 287.8598) rotate(-90) scale(0.1728 -0.1728)">
      <defs>
       <path id="DejaVuSans-28" d="M 1984 4856 
Q 1566 4138 1362 3434 
Q 1159 2731 1159 2009 
Q 1159 1288 1364 580 
Q 1569 -128 1984 -844 
L 1484 -844 
Q 1016 -109 783 600 
Q 550 1309 550 2009 
Q 550 2706 781 3412 
Q 1013 4119 1484 4856 
L 1984 4856 
z
" transform="scale(0.015625)"/>
       <path id="DejaVuSans-76" d="M 191 3500 
L 800 3500 
L 1894 563 
L 2988 3500 
L 3597 3500 
L 2284 0 
L 1503 0 
L 191 3500 
z
" transform="scale(0.015625)"/>
       <path id="DejaVuSans-67" d="M 2906 1791 
Q 2906 2416 2648 2759 
Q 2391 3103 1925 3103 
Q 1463 3103 1205 2759 
Q 947 2416 947 1791 
Q 947 1169 1205 825 
Q 1463 481 1925 481 
Q 2391 481 2648 825 
Q 2906 1169 2906 1791 
z
M 3481 434 
Q 3481 -459 3084 -895 
Q 2688 -1331 1869 -1331 
Q 1566 -1331 1297 -1286 
Q 1028 -1241 775 -1147 
L 775 -588 
Q 1028 -725 1275 -790 
Q 1522 -856 1778 -856 
Q 2344 -856 2625 -561 
Q 2906 -266 2906 331 
L 2906 616 
Q 2728 306 2450 153 
Q 2172 0 1784 0 
Q 1141 0 747 490 
Q 353 981 353 1791 
Q 353 2603 747 3093 
Q 1141 3584 1784 3584 
Q 2172 3584 2450 3431 
Q 2728 3278 2906 2969 
L 2906 3500 
L 3481 3500 
L 3481 434 
z
" transform="scale(0.015625)"/>
       <path id="DejaVuSans-4d" d="M 628 4666 
L 1569 4666 
L 2759 1491 
L 3956 4666 
L 4897 4666 
L 4897 0 
L 4281 0 
L 4281 4097 
L 3078 897 
L 2444 897 
L 1241 4097 
L 1241 0 
L 628 0 
L 628 4666 
z
" transform="scale(0.015625)"/>
       <path id="DejaVuSans-3d" d="M 678 2906 
L 4684 2906 
L 4684 2381 
L 678 2381 
L 678 2906 
z
M 678 1631 
L 4684 1631 
L 4684 1100 
L 678 1100 
L 678 1631 
z
" transform="scale(0.015625)"/>
       <path id="DejaVuSans-39" d="M 703 97 
L 703 672 
Q 941 559 1184 500 
Q 1428 441 1663 441 
Q 2288 441 2617 861 
Q 2947 1281 2994 2138 
Q 2813 1869 2534 1725 
Q 2256 1581 1919 1581 
Q 1219 1581 811 2004 
Q 403 2428 403 3163 
Q 403 3881 828 4315 
Q 1253 4750 1959 4750 
Q 2769 4750 3195 4129 
Q 3622 3509 3622 2328 
Q 3622 1225 3098 567 
Q 2575 -91 1691 -91 
Q 1453 -91 1209 -44 
Q 966 3 703 97 
z
M 1959 2075 
Q 2384 2075 2632 2365 
Q 2881 2656 2881 3163 
Q 2881 3666 2632 3958 
Q 2384 4250 1959 4250 
Q 1534 4250 1286 3958 
Q 1038 3666 1038 3163 
Q 1038 2656 1286 2365 
Q 1534 2075 1959 2075 
z
" transform="scale(0.015625)"/>
       <path id="DejaVuSans-29" d="M 513 4856 
L 1013 4856 
Q 1481 4119 1714 3412 
Q 1947 2706 1947 2009 
Q 1947 1309 1714 600 
Q 1481 -109 1013 -844 
L 513 -844 
Q 928 -128 1133 580 
Q 1338 1288 1338 2009 
Q 1338 2731 1133 3434 
Q 928 4138 513 4856 
z
" transform="scale(0.015625)"/>
       <path id="DejaVuSans-72" d="M 2631 2963 
Q 2534 3019 2420 3045 
Q 2306 3072 2169 3072 
Q 1681 3072 1420 2755 
Q 1159 2438 1159 1844 
L 1159 0 
L 581 0 
L 581 3500 
L 1159 3500 
L 1159 2956 
Q 1341 3275 1631 3429 
Q 1922 3584 2338 3584 
Q 2397 3584 2469 3576 
Q 2541 3569 2628 3553 
L 2631 2963 
z
" transform="scale(0.015625)"/>
       <path id="DejaVuSans-79" d="M 2059 -325 
Q 1816 -950 1584 -1140 
Q 1353 -1331 966 -1331 
L 506 -1331 
L 506 -850 
L 844 -850 
Q 1081 -850 1212 -737 
Q 1344 -625 1503 -206 
L 1606 56 
L 191 3500 
L 800 3500 
L 1894 763 
L 2988 3500 
L 3597 3500 
L 2059 -325 
z
" transform="scale(0.015625)"/>
      </defs>
      <use xlink:href="#DejaVuSans-28"/>
      <use xlink:href="#DejaVuSans-61" x="39.013672"/>
      <use xlink:href="#DejaVuSans-76" x="100.292969"/>
      <use xlink:href="#DejaVuSans-67" x="159.472656"/>
      <use xlink:href="#DejaVuSans-2e" x="222.949219"/>
      <use xlink:href="#DejaVuSans-20" x="254.736328"/>
      <use xlink:href="#DejaVuSans-4d" x="286.523438"/>
      <use xlink:href="#DejaVuSans-3d" x="372.802734"/>
      <use xlink:href="#DejaVuSans-34" x="456.591797"/>
      <use xlink:href="#DejaVuSans-39" x="520.214844"/>
      <use xlink:href="#DejaVuSans-29" x="583.837891"/>
      <use xlink:href="#DejaVuSans-20" x="622.851562"/>
      <use xlink:href="#DejaVuSans-65" x="654.638672"/>
      <use xlink:href="#DejaVuSans-6e" x="716.162109"/>
      <use xlink:href="#DejaVuSans-65" x="779.541016"/>
      <use xlink:href="#DejaVuSans-72" x="841.064453"/>
      <use xlink:href="#DejaVuSans-67" x="880.427734"/>
      <use xlink:href="#DejaVuSans-79" x="943.904297"/>
      <use xlink:href="#DejaVuSans-20" x="1003.083984"/>
      <use xlink:href="#DejaVuSans-69" x="1034.871094"/>
      <use xlink:href="#DejaVuSans-6e" x="1062.654297"/>
      <use xlink:href="#DejaVuSans-20" x="1126.033203"/>
      <use xlink:href="#DejaVuSans-61" x="1157.820312"/>
      <use xlink:href="#DejaVuSans-2e" x="1219.099609"/>
      <use xlink:href="#DejaVuSans-75" x="1250.886719"/>
      <use xlink:href="#DejaVuSans-2e" x="1314.265625"/>
     </g>
    </g>
   </g>
   <g id="line2d_14">
    <path d="M 133.863508 240.514276 
L 135.143988 242.420088 
L 136.424468 242.752124 
L 137.704948 242.432231 
L 138.985427 241.882704 
L 140.265907 241.536707 
L 141.546387 241.648176 
L 144.107346 242.490436 
L 146.668306 242.588286 
L 147.948786 242.894093 
L 149.229265 242.984496 
L 151.790225 243.367149 
L 154.351184 243.296509 
L 156.912144 243.671569 
L 158.192624 243.795673 
L 159.473103 244.278938 
L 160.753583 244.313812 
L 162.034063 244.16092 
L 165.875502 244.305071 
L 169.716942 244.694915 
L 172.277901 244.435816 
L 174.838861 244.35878 
L 177.39982 244.685974 
L 178.6803 244.926029 
L 179.96078 244.992458 
L 183.802219 244.621221 
L 190.204618 244.57659 
L 192.765577 244.999317 
L 195.326537 245.002397 
L 196.607016 245.148308 
L 197.887496 244.867058 
L 200.448456 243.974509 
L 201.728936 244.033486 
L 203.009415 244.303356 
L 204.289895 244.220846 
L 206.850855 243.3983 
L 210.692294 243.518879 
L 211.972774 243.299381 
L 213.253253 242.802887 
L 214.533733 242.474431 
L 215.814213 242.566296 
L 220.936132 242.559462 
L 222.216612 242.279043 
L 223.497091 242.16323 
L 227.338531 242.450875 
L 232.46045 241.893602 
L 237.582369 242.213808 
L 242.704288 241.254947 
L 247.826207 241.471954 
L 250.387166 241.247226 
L 252.948126 240.596684 
L 255.509085 240.400344 
L 256.789565 240.249087 
L 258.070045 240.307843 
L 259.350525 240.599611 
L 260.631004 240.535598 
L 261.911484 240.328068 
L 265.752924 240.431615 
L 267.033403 240.312335 
L 268.313883 239.975855 
L 269.594363 239.438548 
L 270.874843 239.065488 
L 273.435802 238.731392 
L 274.716282 238.782373 
L 278.557721 238.527932 
L 279.838201 238.564889 
L 281.118681 238.122937 
L 282.39916 237.847763 
L 290.082039 237.106287 
L 293.923478 237.109315 
L 295.203958 236.942198 
L 296.484438 236.991852 
L 302.886837 236.201039 
L 310.569715 236.435741 
L 314.411154 236.365607 
L 316.972114 235.706313 
L 319.533073 235.536795 
L 323.374513 235.982717 
L 325.935472 236.686459 
L 327.215952 236.750533 
L 328.496432 236.324277 
L 329.776912 236.30864 
L 331.057391 236.676564 
L 333.618351 236.923589 
L 337.45979 236.937641 
L 341.301229 237.315615 
L 346.423148 237.331771 
L 347.703628 237.125176 
L 348.984108 237.078624 
L 351.545067 237.346623 
L 354.106027 237.248611 
L 355.386507 237.375631 
L 356.666987 237.637454 
L 357.947466 237.775852 
L 360.508426 237.568498 
L 363.069385 237.262029 
L 364.349865 237.465234 
L 366.910825 237.576784 
L 370.752264 237.095337 
L 374.593703 236.684783 
L 375.874183 236.584048 
L 377.154663 236.801172 
L 379.715622 236.864561 
L 382.276582 237.292874 
L 384.837541 237.048997 
L 389.95946 237.553449 
L 391.23994 237.645863 
L 392.52042 237.473007 
L 393.8009 237.503263 
L 396.361859 237.903817 
L 397.642339 238.217813 
L 398.922819 238.29909 
L 404.044738 238.139862 
L 405.325217 238.317703 
L 406.605697 238.621864 
L 413.008096 239.061836 
L 415.569055 239.40912 
L 416.849535 239.439006 
L 419.410495 239.271645 
L 421.971454 239.435589 
L 423.251934 239.811515 
L 424.532414 239.763257 
L 425.812894 239.859201 
L 429.654333 239.618084 
L 432.215292 240.08326 
L 434.776252 240.136505 
L 437.337211 240.208603 
L 443.73961 241.112762 
L 447.581049 241.200594 
L 450.142009 241.139869 
L 452.702969 241.404151 
L 453.983448 241.744949 
L 456.544408 242.230752 
L 457.824888 242.525276 
L 459.105367 242.459451 
L 460.385847 242.560809 
L 461.666327 242.884982 
L 462.946807 243.067094 
L 464.227286 243.479409 
L 465.507766 243.608806 
L 466.788246 243.339723 
L 470.629685 243.997459 
L 471.910165 244.239508 
L 473.190645 244.706812 
L 474.471124 244.931137 
L 475.751604 244.80276 
L 477.032084 244.908498 
L 479.593043 245.495134 
L 483.434483 246.286843 
L 487.275922 246.842518 
L 488.556402 247.102661 
L 491.117361 247.286284 
L 492.397841 247.55453 
L 496.23928 249.060769 
L 500.08072 249.838535 
L 505.202639 250.757412 
L 507.763598 250.612772 
L 510.324558 251.21372 
L 511.605037 251.256442 
L 515.446477 250.686899 
L 518.007436 251.231383 
L 525.690315 251.730024 
L 528.251274 252.232198 
L 529.531754 252.465915 
L 530.812234 252.429766 
L 532.092714 252.543858 
L 538.495112 253.679971 
L 539.775592 253.764322 
L 542.336552 253.491589 
L 543.617031 253.597248 
L 548.738951 255.11934 
L 550.01943 255.81024 
L 553.86087 256.70657 
L 556.421829 256.946492 
L 560.263268 257.652808 
L 561.543748 257.407683 
L 562.824228 257.452157 
L 566.665667 258.143352 
L 567.946147 258.14251 
L 569.226627 258.294351 
L 576.909505 258.432623 
L 578.189985 258.69454 
L 579.470465 258.799698 
L 582.031424 258.663358 
L 585.872864 259.017218 
L 589.714303 258.84348 
L 590.994783 258.785175 
L 592.275262 258.883588 
L 594.836222 258.800171 
L 597.397181 259.113871 
L 598.677661 259.230474 
L 599.958141 259.180049 
L 601.238621 259.396788 
L 603.79958 259.647883 
L 605.08006 260.056824 
L 607.641019 260.390831 
L 608.921499 260.382393 
L 612.762939 260.941564 
L 616.604378 261.339286 
L 617.884858 261.167477 
L 623.006777 261.2503 
L 624.287256 261.43466 
L 625.567736 261.881735 
L 626.848216 262.172795 
L 630.689655 262.322034 
L 631.970135 262.753277 
L 633.250615 263.057526 
L 634.531094 263.001654 
L 635.811574 262.772532 
L 638.372534 262.705106 
L 640.933493 263.190891 
L 642.213973 263.085049 
L 643.494453 262.774804 
L 644.774933 262.691058 
L 649.896852 263.081368 
L 651.177331 263.036865 
L 652.457811 262.807368 
L 653.738291 262.768189 
L 655.018771 262.846479 
L 656.29925 263.097985 
L 660.14069 263.150752 
L 662.701649 263.198185 
L 663.982129 263.452739 
L 669.104048 263.875473 
L 671.665007 263.375128 
L 675.506447 262.426741 
L 683.189325 261.414622 
L 684.469805 261.031036 
L 685.750285 260.870599 
L 687.030765 261.215308 
L 688.311244 261.144449 
L 690.872204 260.535103 
L 694.713643 260.476428 
L 697.274603 260.230612 
L 698.555082 259.960985 
L 702.396522 259.754018 
L 704.957481 259.396331 
L 708.798921 259.235613 
L 710.0794 259.280477 
L 715.201319 258.846887 
L 717.762279 258.994432 
L 720.323238 258.698446 
L 724.164678 257.820572 
L 725.445157 257.76727 
L 729.286597 256.939472 
L 730.567076 256.272613 
L 733.128036 255.493478 
L 734.408516 255.377547 
L 735.688996 255.029572 
L 736.969475 254.561651 
L 742.091394 253.30778 
L 743.371874 253.316359 
L 744.652354 253.073502 
L 745.932834 252.69432 
L 748.493793 252.297462 
L 753.615712 250.895829 
L 754.896192 250.786731 
L 756.176672 250.520017 
L 758.737631 249.807925 
L 760.018111 249.735108 
L 762.57907 249.799169 
L 765.14003 249.709426 
L 766.42051 249.781456 
L 767.70099 249.688348 
L 771.542429 249.86989 
L 774.103388 249.792922 
L 776.664348 249.537898 
L 777.944828 249.703174 
L 780.505787 249.536468 
L 781.786267 249.292275 
L 786.908186 248.816975 
L 789.469145 248.235522 
L 790.749625 248.249094 
L 795.871544 247.752921 
L 797.152024 247.541712 
L 798.432504 247.651945 
L 804.834903 247.592756 
L 806.115382 247.659602 
L 807.395862 247.540421 
L 808.676342 247.272265 
L 809.956822 247.394242 
L 811.237301 247.284329 
L 812.517781 246.919121 
L 816.35922 247.221077 
L 818.92018 246.882565 
L 820.20066 246.937916 
L 821.481139 247.221937 
L 824.042099 247.455 
L 825.322579 247.504854 
L 827.883538 247.235841 
L 839.407856 247.140264 
L 840.688336 247.323096 
L 847.090735 247.56591 
L 849.651694 247.23304 
L 853.493133 246.751475 
L 854.773613 246.694135 
L 856.054093 246.916719 
L 858.615052 246.856338 
L 859.895532 246.584011 
L 861.176012 246.677964 
L 861.176012 246.677964 
" clip-path="url(#p8ca1de3155)" style="fill: none; stroke: #1f77b4; stroke-width: 1.5; stroke-linecap: square"/>
   </g>
   <g id="line2d_15">
    <path d="M 71.12 247.071104 
L 925.2 247.071104 
" clip-path="url(#p8ca1de3155)" style="fill: none; stroke: #ff0000; stroke-opacity: 0.3; stroke-width: 1.5; stroke-linecap: square"/>
   </g>
   <g id="patch_3">
    <path d="M 71.12 312.64 
L 71.12 30.48 
" style="fill: none; stroke: #000000; stroke-width: 0.8; stroke-linejoin: miter; stroke-linecap: square"/>
   </g>
   <g id="patch_4">
    <path d="M 925.2 312.64 
L 925.2 30.48 
" style="fill: none; stroke: #000000; stroke-width: 0.8; stroke-linejoin: miter; stroke-linecap: square"/>
   </g>
   <g id="patch_5">
    <path d="M 71.12 312.64 
L 925.2 312.64 
" style="fill: none; stroke: #000000; stroke-width: 0.8; stroke-linejoin: miter; stroke-linecap: square"/>
   </g>
   <g id="patch_6">
    <path d="M 71.12 30.48 
L 925.2 30.48 
" style="fill: none; stroke: #000000; stroke-width: 0.8; stroke-linejoin: miter; stroke-linecap: square"/>
   </g>
   <g id="text_16">
    <!-- Energy -->
    <g transform="translate(467.9092 24.48) scale(0.1728 -0.1728)">
     <defs>
      <path id="DejaVuSans-45" d="M 628 4666 
L 3578 4666 
L 3578 4134 
L 1259 4134 
L 1259 2753 
L 3481 2753 
L 3481 2222 
L 1259 2222 
L 1259 531 
L 3634 531 
L 3634 0 
L 628 0 
L 628 4666 
z
" transform="scale(0.015625)"/>
     </defs>
     <use xlink:href="#DejaVuSans-45"/>
     <use xlink:href="#DejaVuSans-6e" x="63.183594"/>
     <use xlink:href="#DejaVuSans-65" x="126.5625"/>
     <use xlink:href="#DejaVuSans-72" x="188.085938"/>
     <use xlink:href="#DejaVuSans-67" x="227.449219"/>
     <use xlink:href="#DejaVuSans-79" x="290.925781"/>
    </g>
   </g>
  </g>
  <g id="axes_2">
   <g id="patch_7">
    <path d="M 71.12 667.24 
L 467.19 667.24 
L 467.19 385.08 
L 71.12 385.08 
z
" style="fill: #ffffff"/>
   </g>
   <g id="matplotlib.axis_3">
    <g id="xtick_8">
     <g id="line2d_16">
      <g>
       <use xlink:href="#mdec6ec13b5" x="71.12" y="667.24" style="stroke: #000000; stroke-width: 0.8"/>
      </g>
     </g>
     <g id="text_17">
      <!-- 0 -->
      <g transform="translate(66.539 685.18175) scale(0.144 -0.144)">
       <use xlink:href="#DejaVuSans-30"/>
      </g>
     </g>
    </g>
    <g id="xtick_9">
     <g id="line2d_17">
      <g>
       <use xlink:href="#mdec6ec13b5" x="130.50081" y="667.24" style="stroke: #000000; stroke-width: 0.8"/>
      </g>
     </g>
     <g id="text_18">
      <!-- 1 -->
      <g transform="translate(125.91981 685.18175) scale(0.144 -0.144)">
       <use xlink:href="#DejaVuSans-31"/>
      </g>
     </g>
    </g>
    <g id="xtick_10">
     <g id="line2d_18">
      <g>
       <use xlink:href="#mdec6ec13b5" x="189.881619" y="667.24" style="stroke: #000000; stroke-width: 0.8"/>
      </g>
     </g>
     <g id="text_19">
      <!-- 2 -->
      <g transform="translate(185.300619 685.18175) scale(0.144 -0.144)">
       <use xlink:href="#DejaVuSans-32"/>
      </g>
     </g>
    </g>
    <g id="xtick_11">
     <g id="line2d_19">
      <g>
       <use xlink:href="#mdec6ec13b5" x="249.262429" y="667.24" style="stroke: #000000; stroke-width: 0.8"/>
      </g>
     </g>
     <g id="text_20">
      <!-- 3 -->
      <g transform="translate(244.681429 685.18175) scale(0.144 -0.144)">
       <use xlink:href="#DejaVuSans-33"/>
      </g>
     </g>
    </g>
    <g id="xtick_12">
     <g id="line2d_20">
      <g>
       <use xlink:href="#mdec6ec13b5" x="308.643238" y="667.24" style="stroke: #000000; stroke-width: 0.8"/>
      </g>
     </g>
     <g id="text_21">
      <!-- 4 -->
      <g transform="translate(304.062238 685.18175) scale(0.144 -0.144)">
       <use xlink:href="#DejaVuSans-34"/>
      </g>
     </g>
    </g>
    <g id="xtick_13">
     <g id="line2d_21">
      <g>
       <use xlink:href="#mdec6ec13b5" x="368.024048" y="667.24" style="stroke: #000000; stroke-width: 0.8"/>
      </g>
     </g>
     <g id="text_22">
      <!-- 5 -->
      <g transform="translate(363.443048 685.18175) scale(0.144 -0.144)">
       <use xlink:href="#DejaVuSans-35"/>
      </g>
     </g>
    </g>
    <g id="xtick_14">
     <g id="line2d_22">
      <g>
       <use xlink:href="#mdec6ec13b5" x="427.404858" y="667.24" style="stroke: #000000; stroke-width: 0.8"/>
      </g>
     </g>
     <g id="text_23">
      <!-- 6 -->
      <g transform="translate(422.823858 685.18175) scale(0.144 -0.144)">
       <use xlink:href="#DejaVuSans-36"/>
      </g>
     </g>
    </g>
    <g id="text_24">
     <!-- time in a.u. -->
     <g transform="translate(220.00555 705.3066) scale(0.1728 -0.1728)">
      <use xlink:href="#DejaVuSans-74"/>
      <use xlink:href="#DejaVuSans-69" x="39.208984"/>
      <use xlink:href="#DejaVuSans-6d" x="66.992188"/>
      <use xlink:href="#DejaVuSans-65" x="164.404297"/>
      <use xlink:href="#DejaVuSans-20" x="225.927734"/>
      <use xlink:href="#DejaVuSans-69" x="257.714844"/>
      <use xlink:href="#DejaVuSans-6e" x="285.498047"/>
      <use xlink:href="#DejaVuSans-20" x="348.876953"/>
      <use xlink:href="#DejaVuSans-61" x="380.664062"/>
      <use xlink:href="#DejaVuSans-2e" x="441.943359"/>
      <use xlink:href="#DejaVuSans-75" x="473.730469"/>
      <use xlink:href="#DejaVuSans-2e" x="537.109375"/>
     </g>
    </g>
   </g>
   <g id="matplotlib.axis_4">
    <g id="ytick_7">
     <g id="line2d_23">
      <g>
       <use xlink:href="#m29b10221c8" x="71.12" y="660.405133" style="stroke: #000000; stroke-width: 0.8"/>
      </g>
     </g>
     <g id="text_25">
      <!-- 0.00 -->
      <g transform="translate(32.0575 665.876008) scale(0.144 -0.144)">
       <use xlink:href="#DejaVuSans-30"/>
       <use xlink:href="#DejaVuSans-2e" x="63.623047"/>
       <use xlink:href="#DejaVuSans-30" x="95.410156"/>
       <use xlink:href="#DejaVuSans-30" x="159.033203"/>
      </g>
     </g>
    </g>
    <g id="ytick_8">
     <g id="line2d_24">
      <g>
       <use xlink:href="#m29b10221c8" x="71.12" y="621.449509" style="stroke: #000000; stroke-width: 0.8"/>
      </g>
     </g>
     <g id="text_26">
      <!-- 0.25 -->
      <g transform="translate(32.0575 626.920384) scale(0.144 -0.144)">
       <use xlink:href="#DejaVuSans-30"/>
       <use xlink:href="#DejaVuSans-2e" x="63.623047"/>
       <use xlink:href="#DejaVuSans-32" x="95.410156"/>
       <use xlink:href="#DejaVuSans-35" x="159.033203"/>
      </g>
     </g>
    </g>
    <g id="ytick_9">
     <g id="line2d_25">
      <g>
       <use xlink:href="#m29b10221c8" x="71.12" y="582.493886" style="stroke: #000000; stroke-width: 0.8"/>
      </g>
     </g>
     <g id="text_27">
      <!-- 0.50 -->
      <g transform="translate(32.0575 587.964761) scale(0.144 -0.144)">
       <use xlink:href="#DejaVuSans-30"/>
       <use xlink:href="#DejaVuSans-2e" x="63.623047"/>
       <use xlink:href="#DejaVuSans-35" x="95.410156"/>
       <use xlink:href="#DejaVuSans-30" x="159.033203"/>
      </g>
     </g>
    </g>
    <g id="ytick_10">
     <g id="line2d_26">
      <g>
       <use xlink:href="#m29b10221c8" x="71.12" y="543.538262" style="stroke: #000000; stroke-width: 0.8"/>
      </g>
     </g>
     <g id="text_28">
      <!-- 0.75 -->
      <g transform="translate(32.0575 549.009137) scale(0.144 -0.144)">
       <defs>
        <path id="DejaVuSans-37" d="M 525 4666 
L 3525 4666 
L 3525 4397 
L 1831 0 
L 1172 0 
L 2766 4134 
L 525 4134 
L 525 4666 
z
" transform="scale(0.015625)"/>
       </defs>
       <use xlink:href="#DejaVuSans-30"/>
       <use xlink:href="#DejaVuSans-2e" x="63.623047"/>
       <use xlink:href="#DejaVuSans-37" x="95.410156"/>
       <use xlink:href="#DejaVuSans-35" x="159.033203"/>
      </g>
     </g>
    </g>
    <g id="ytick_11">
     <g id="line2d_27">
      <g>
       <use xlink:href="#m29b10221c8" x="71.12" y="504.582639" style="stroke: #000000; stroke-width: 0.8"/>
      </g>
     </g>
     <g id="text_29">
      <!-- 1.00 -->
      <g transform="translate(32.0575 510.053514) scale(0.144 -0.144)">
       <use xlink:href="#DejaVuSans-31"/>
       <use xlink:href="#DejaVuSans-2e" x="63.623047"/>
       <use xlink:href="#DejaVuSans-30" x="95.410156"/>
       <use xlink:href="#DejaVuSans-30" x="159.033203"/>
      </g>
     </g>
    </g>
    <g id="ytick_12">
     <g id="line2d_28">
      <g>
       <use xlink:href="#m29b10221c8" x="71.12" y="465.627015" style="stroke: #000000; stroke-width: 0.8"/>
      </g>
     </g>
     <g id="text_30">
      <!-- 1.25 -->
      <g transform="translate(32.0575 471.09789) scale(0.144 -0.144)">
       <use xlink:href="#DejaVuSans-31"/>
       <use xlink:href="#DejaVuSans-2e" x="63.623047"/>
       <use xlink:href="#DejaVuSans-32" x="95.410156"/>
       <use xlink:href="#DejaVuSans-35" x="159.033203"/>
      </g>
     </g>
    </g>
    <g id="ytick_13">
     <g id="line2d_29">
      <g>
       <use xlink:href="#m29b10221c8" x="71.12" y="426.671392" style="stroke: #000000; stroke-width: 0.8"/>
      </g>
     </g>
     <g id="text_31">
      <!-- 1.50 -->
      <g transform="translate(32.0575 432.142267) scale(0.144 -0.144)">
       <use xlink:href="#DejaVuSans-31"/>
       <use xlink:href="#DejaVuSans-2e" x="63.623047"/>
       <use xlink:href="#DejaVuSans-35" x="95.410156"/>
       <use xlink:href="#DejaVuSans-30" x="159.033203"/>
      </g>
     </g>
    </g>
    <g id="ytick_14">
     <g id="line2d_30">
      <g>
       <use xlink:href="#m29b10221c8" x="71.12" y="387.715768" style="stroke: #000000; stroke-width: 0.8"/>
      </g>
     </g>
     <g id="text_32">
      <!-- 1.75 -->
      <g transform="translate(32.0575 393.186643) scale(0.144 -0.144)">
       <use xlink:href="#DejaVuSans-31"/>
       <use xlink:href="#DejaVuSans-2e" x="63.623047"/>
       <use xlink:href="#DejaVuSans-37" x="95.410156"/>
       <use xlink:href="#DejaVuSans-35" x="159.033203"/>
      </g>
     </g>
    </g>
    <g id="text_33">
     <!-- (avg. M=49) pressure in a.u. -->
     <g transform="translate(24.4638 649.66205) rotate(-90) scale(0.1728 -0.1728)">
      <defs>
       <path id="DejaVuSans-70" d="M 1159 525 
L 1159 -1331 
L 581 -1331 
L 581 3500 
L 1159 3500 
L 1159 2969 
Q 1341 3281 1617 3432 
Q 1894 3584 2278 3584 
Q 2916 3584 3314 3078 
Q 3713 2572 3713 1747 
Q 3713 922 3314 415 
Q 2916 -91 2278 -91 
Q 1894 -91 1617 61 
Q 1341 213 1159 525 
z
M 3116 1747 
Q 3116 2381 2855 2742 
Q 2594 3103 2138 3103 
Q 1681 3103 1420 2742 
Q 1159 2381 1159 1747 
Q 1159 1113 1420 752 
Q 1681 391 2138 391 
Q 2594 391 2855 752 
Q 3116 1113 3116 1747 
z
" transform="scale(0.015625)"/>
       <path id="DejaVuSans-73" d="M 2834 3397 
L 2834 2853 
Q 2591 2978 2328 3040 
Q 2066 3103 1784 3103 
Q 1356 3103 1142 2972 
Q 928 2841 928 2578 
Q 928 2378 1081 2264 
Q 1234 2150 1697 2047 
L 1894 2003 
Q 2506 1872 2764 1633 
Q 3022 1394 3022 966 
Q 3022 478 2636 193 
Q 2250 -91 1575 -91 
Q 1294 -91 989 -36 
Q 684 19 347 128 
L 347 722 
Q 666 556 975 473 
Q 1284 391 1588 391 
Q 1994 391 2212 530 
Q 2431 669 2431 922 
Q 2431 1156 2273 1281 
Q 2116 1406 1581 1522 
L 1381 1569 
Q 847 1681 609 1914 
Q 372 2147 372 2553 
Q 372 3047 722 3315 
Q 1072 3584 1716 3584 
Q 2034 3584 2315 3537 
Q 2597 3491 2834 3397 
z
" transform="scale(0.015625)"/>
      </defs>
      <use xlink:href="#DejaVuSans-28"/>
      <use xlink:href="#DejaVuSans-61" x="39.013672"/>
      <use xlink:href="#DejaVuSans-76" x="100.292969"/>
      <use xlink:href="#DejaVuSans-67" x="159.472656"/>
      <use xlink:href="#DejaVuSans-2e" x="222.949219"/>
      <use xlink:href="#DejaVuSans-20" x="254.736328"/>
      <use xlink:href="#DejaVuSans-4d" x="286.523438"/>
      <use xlink:href="#DejaVuSans-3d" x="372.802734"/>
      <use xlink:href="#DejaVuSans-34" x="456.591797"/>
      <use xlink:href="#DejaVuSans-39" x="520.214844"/>
      <use xlink:href="#DejaVuSans-29" x="583.837891"/>
      <use xlink:href="#DejaVuSans-20" x="622.851562"/>
      <use xlink:href="#DejaVuSans-70" x="654.638672"/>
      <use xlink:href="#DejaVuSans-72" x="718.115234"/>
      <use xlink:href="#DejaVuSans-65" x="756.978516"/>
      <use xlink:href="#DejaVuSans-73" x="818.501953"/>
      <use xlink:href="#DejaVuSans-73" x="870.601562"/>
      <use xlink:href="#DejaVuSans-75" x="922.701172"/>
      <use xlink:href="#DejaVuSans-72" x="986.080078"/>
      <use xlink:href="#DejaVuSans-65" x="1024.943359"/>
      <use xlink:href="#DejaVuSans-20" x="1086.466797"/>
      <use xlink:href="#DejaVuSans-69" x="1118.253906"/>
      <use xlink:href="#DejaVuSans-6e" x="1146.037109"/>
      <use xlink:href="#DejaVuSans-20" x="1209.416016"/>
      <use xlink:href="#DejaVuSans-61" x="1241.203125"/>
      <use xlink:href="#DejaVuSans-2e" x="1302.482422"/>
      <use xlink:href="#DejaVuSans-75" x="1334.269531"/>
      <use xlink:href="#DejaVuSans-2e" x="1397.648438"/>
     </g>
    </g>
   </g>
   <g id="line2d_31">
    <path d="M 100.216597 576.645341 
L 100.810405 578.211814 
L 101.404213 577.85146 
L 102.591829 575.540785 
L 103.185637 575.2963 
L 104.373253 576.240553 
L 105.56087 575.935139 
L 106.154678 576.17513 
L 106.748486 576.116028 
L 107.936102 576.286739 
L 108.52991 575.99809 
L 109.123718 575.897958 
L 110.905142 577.266696 
L 111.498951 578.377513 
L 112.092759 578.735293 
L 112.686567 578.607103 
L 113.874183 578.724155 
L 114.467991 578.924457 
L 115.655607 579.716718 
L 116.249415 579.760287 
L 117.437031 579.090593 
L 118.624648 578.836326 
L 119.218456 579.079206 
L 120.406072 580.001059 
L 120.99988 580.113527 
L 122.187496 579.259014 
L 123.968921 577.539174 
L 124.562729 577.101368 
L 125.750345 576.880567 
L 126.937961 577.357728 
L 128.125577 577.213082 
L 128.719385 577.401791 
L 129.313193 576.911806 
L 130.50081 575.48093 
L 131.094618 575.784744 
L 131.688426 576.542218 
L 132.282234 576.679317 
L 133.46985 575.63553 
L 134.657466 576.171489 
L 135.251274 576.42015 
L 135.845082 576.104065 
L 136.438891 575.241326 
L 137.032699 574.641581 
L 139.407931 575.428867 
L 140.001739 575.627927 
L 140.595547 575.454505 
L 141.189355 575.588675 
L 142.97078 577.355736 
L 143.564588 577.391109 
L 144.158396 577.297397 
L 145.346012 576.884836 
L 145.93982 576.964477 
L 146.533628 577.200696 
L 147.127436 577.237563 
L 147.721244 577.062957 
L 148.908861 575.339079 
L 149.502669 574.334653 
L 150.096477 573.781762 
L 151.284093 573.488083 
L 151.877901 573.443399 
L 152.471709 573.537979 
L 153.659325 572.892755 
L 154.846942 571.537133 
L 156.034558 571.379452 
L 156.628366 571.472662 
L 157.222174 572.043351 
L 157.815982 573.09214 
L 158.40979 573.593874 
L 159.003598 573.800068 
L 160.191214 574.958012 
L 160.785022 575.321706 
L 161.378831 575.242677 
L 161.972639 574.598444 
L 162.566447 573.517944 
L 163.160255 572.761711 
L 163.754063 572.508646 
L 164.347871 572.456024 
L 164.941679 572.824426 
L 167.316912 573.73584 
L 168.504528 572.615937 
L 169.098336 572.290796 
L 169.692144 571.821378 
L 170.285952 571.62754 
L 170.87976 571.724175 
L 171.473568 571.535626 
L 172.067376 571.572464 
L 173.848801 572.108099 
L 174.442609 571.970056 
L 175.036417 572.197943 
L 176.817841 571.909004 
L 177.411649 571.64244 
L 178.005457 571.734302 
L 180.38069 572.947883 
L 183.34973 573.435691 
L 184.537346 572.39691 
L 185.131154 572.271404 
L 185.724963 572.393101 
L 187.506387 573.92224 
L 188.694003 575.3206 
L 189.287811 575.347801 
L 189.881619 574.448994 
L 190.475427 574.213525 
L 191.069235 574.74808 
L 191.663043 574.999508 
L 192.256852 575.059888 
L 192.85066 574.961928 
L 193.444468 574.713929 
L 194.038276 574.826404 
L 195.225892 575.258994 
L 195.8197 575.399551 
L 197.007316 575.13548 
L 197.601124 574.889262 
L 198.194933 574.386989 
L 198.788741 573.51315 
L 199.382549 572.852767 
L 200.570165 572.247269 
L 201.757781 571.255175 
L 202.351589 571.243048 
L 203.539205 572.031112 
L 204.133013 572.166231 
L 205.32063 572.181659 
L 205.914438 572.320234 
L 207.102054 573.714097 
L 207.695862 574.219493 
L 208.28967 574.420218 
L 210.664903 574.447297 
L 211.852519 574.343446 
L 212.446327 574.813383 
L 214.821559 575.870005 
L 216.009175 575.158031 
L 216.602984 575.262568 
L 217.196792 575.482037 
L 217.7906 575.544259 
L 218.384408 575.845093 
L 218.978216 575.99181 
L 219.572024 575.671184 
L 220.165832 575.642226 
L 221.353448 576.162454 
L 221.947256 576.490009 
L 222.541064 576.355606 
L 224.322489 575.052071 
L 224.916297 574.840695 
L 225.510105 574.972148 
L 226.103913 575.417596 
L 227.885337 575.823068 
L 228.479145 576.115237 
L 229.072954 576.212748 
L 229.666762 576.460673 
L 230.26057 576.568846 
L 230.854378 576.36595 
L 232.041994 575.408625 
L 232.635802 575.230561 
L 233.22961 575.170624 
L 233.823418 575.598946 
L 234.417226 575.37631 
L 235.011034 575.29146 
L 236.198651 574.347015 
L 236.792459 574.318108 
L 238.573883 575.596347 
L 240.355307 576.028815 
L 242.136732 576.958726 
L 242.73054 577.214199 
L 243.324348 577.211611 
L 244.511964 576.686906 
L 246.293388 575.429591 
L 246.887196 575.384932 
L 247.481004 575.493983 
L 248.074813 575.9658 
L 249.856237 576.891031 
L 250.450045 576.575714 
L 251.043853 576.444886 
L 251.637661 576.69254 
L 252.231469 576.722833 
L 252.825277 577.046556 
L 253.419085 576.892708 
L 254.012894 576.039945 
L 254.606702 575.9603 
L 256.388126 576.727448 
L 256.981934 577.512638 
L 257.575742 577.925756 
L 258.16955 577.704656 
L 258.763358 577.839572 
L 259.357166 578.415572 
L 260.544783 579.204322 
L 261.138591 579.394727 
L 261.732399 579.466436 
L 262.920015 578.979032 
L 264.107631 578.351152 
L 265.295247 576.961337 
L 265.889055 576.54033 
L 266.482864 576.552465 
L 267.67048 576.832904 
L 268.858096 576.746769 
L 270.63952 576.696998 
L 271.827136 577.172761 
L 273.014753 576.50015 
L 274.202369 577.161614 
L 274.796177 577.01095 
L 276.577601 575.152481 
L 277.171409 575.514348 
L 277.765217 576.198102 
L 280.14045 578.083595 
L 282.515682 580.739338 
L 283.10949 581.139014 
L 284.297106 580.786848 
L 286.078531 580.730802 
L 286.672339 580.507921 
L 287.266147 580.117137 
L 287.859955 579.588537 
L 289.047571 577.898126 
L 289.641379 577.64035 
L 290.828996 578.532168 
L 291.422804 579.126951 
L 292.016612 579.946298 
L 292.61042 581.124557 
L 293.204228 581.577706 
L 293.798036 581.863182 
L 294.391844 581.911265 
L 295.57946 580.872733 
L 297.360885 579.24298 
L 297.954693 577.91463 
L 298.548501 577.163182 
L 299.142309 576.913594 
L 300.329925 577.019564 
L 300.923733 576.813614 
L 301.517541 576.871565 
L 303.298966 576.63101 
L 304.486582 576.733664 
L 305.08039 576.8696 
L 305.674198 577.400172 
L 306.268006 577.722047 
L 307.455622 577.873921 
L 308.04943 578.372122 
L 308.643238 579.097413 
L 309.237046 579.60951 
L 310.424663 580.274466 
L 311.612279 580.505619 
L 312.206087 580.896356 
L 313.987511 581.26882 
L 314.581319 581.618002 
L 315.175127 581.757859 
L 315.768936 581.537429 
L 316.362744 581.711726 
L 316.956552 581.731067 
L 317.55036 581.894236 
L 318.144168 582.516665 
L 318.737976 582.836345 
L 319.331784 583.001106 
L 319.925592 582.941246 
L 320.5194 583.223399 
L 321.113208 583.665345 
L 322.300825 584.232261 
L 322.894633 584.701856 
L 323.488441 584.936149 
L 324.082249 584.752985 
L 325.269865 585.028556 
L 326.457481 584.738218 
L 327.051289 584.827037 
L 327.645097 585.351517 
L 328.238906 585.653223 
L 328.832714 585.557719 
L 329.426522 585.294235 
L 330.02033 585.423537 
L 330.614138 586.034691 
L 331.207946 586.383451 
L 331.801754 586.003125 
L 332.395562 585.203776 
L 332.98937 584.640455 
L 333.583178 584.33261 
L 334.770795 584.541384 
L 335.364603 583.963521 
L 335.958411 582.915964 
L 336.552219 582.242631 
L 337.146027 582.017771 
L 337.739835 581.953515 
L 338.927451 581.481005 
L 339.521259 581.100219 
L 340.115067 580.4822 
L 340.708876 580.298349 
L 341.302684 580.495937 
L 341.896492 581.125642 
L 343.677916 582.163921 
L 344.271724 582.500343 
L 344.865532 583.021267 
L 346.053148 584.629354 
L 347.240765 586.122781 
L 347.834573 586.572317 
L 348.428381 586.497517 
L 349.022189 586.266601 
L 350.209805 585.537947 
L 350.803613 585.344051 
L 351.397421 585.450713 
L 353.178846 586.260381 
L 354.366462 586.876059 
L 354.96027 586.889215 
L 355.554078 587.240416 
L 356.147886 588.412598 
L 356.741694 588.863588 
L 357.335502 588.82021 
L 357.92931 588.609061 
L 359.116927 589.260806 
L 360.304543 589.30577 
L 360.898351 589.055936 
L 361.492159 588.544983 
L 363.273583 587.980877 
L 363.867391 587.631197 
L 364.461199 587.425078 
L 365.055007 587.361884 
L 365.648816 587.183421 
L 366.836432 587.123512 
L 368.617856 586.174046 
L 369.211664 586.040988 
L 370.39928 586.673446 
L 371.586897 586.805293 
L 372.774513 586.571712 
L 373.368321 586.79157 
L 373.962129 587.388735 
L 375.149745 587.900015 
L 375.743553 588.006901 
L 376.337361 587.421202 
L 377.524978 587.022776 
L 378.118786 587.246298 
L 378.712594 587.10295 
L 379.306402 586.682133 
L 381.087826 586.056583 
L 381.681634 586.20232 
L 382.275442 586.867966 
L 382.86925 587.163512 
L 383.463058 587.191155 
L 384.650675 587.804488 
L 385.244483 587.759742 
L 385.838291 587.562202 
L 386.432099 587.13223 
L 387.619715 586.898015 
L 388.213523 586.494 
L 388.807331 585.828692 
L 389.401139 585.383704 
L 389.994948 585.474596 
L 391.182564 586.342351 
L 392.963988 587.224613 
L 393.557796 587.282275 
L 394.745412 587.781851 
L 395.33922 587.721509 
L 396.526837 587.344914 
L 397.714453 586.803373 
L 398.308261 587.036435 
L 398.902069 586.9038 
L 399.495877 586.626788 
L 400.089685 586.082225 
L 400.683493 585.724376 
L 401.277301 585.546691 
L 402.464918 584.717456 
L 403.652534 583.676793 
L 404.84015 583.716301 
L 405.433958 583.621288 
L 406.027766 583.707671 
L 407.215382 583.490022 
L 407.80919 583.913074 
L 409.590615 584.463889 
L 410.184423 584.47623 
L 410.778231 584.322184 
L 411.372039 584.319832 
L 411.965847 583.970185 
L 412.559655 583.284435 
L 413.153463 583.150054 
L 413.747271 582.722067 
L 414.341079 581.92862 
L 416.122504 582.051942 
L 416.716312 581.624066 
L 417.31012 581.055514 
L 417.903928 580.98108 
L 419.091544 581.707949 
L 420.27916 581.954497 
L 421.466777 581.23271 
L 423.248201 580.468584 
L 423.842009 580.45324 
L 425.623433 580.039417 
L 426.811049 580.07438 
L 427.404858 580.345117 
L 429.186282 580.453564 
L 429.78009 580.226959 
L 430.373898 579.73348 
L 432.155322 577.381768 
L 432.74913 576.708012 
L 433.342939 576.25116 
L 433.936747 576.008599 
L 434.530555 576.380522 
L 435.124363 576.439336 
L 435.718171 576.655186 
L 436.311979 576.54339 
L 436.905787 577.084834 
L 437.499595 578.000105 
L 437.499595 578.000105 
" clip-path="url(#p69df06ec37)" style="fill: none; stroke: #1f77b4; stroke-width: 1.5; stroke-linecap: square"/>
   </g>
   <g id="line2d_32">
    <path d="M 71.12 578.818066 
L 467.19 578.818066 
" clip-path="url(#p69df06ec37)" style="fill: none; stroke: #ff0000; stroke-opacity: 0.3; stroke-width: 1.5; stroke-linecap: square"/>
   </g>
   <g id="patch_8">
    <path d="M 71.12 667.24 
L 71.12 385.08 
" style="fill: none; stroke: #000000; stroke-width: 0.8; stroke-linejoin: miter; stroke-linecap: square"/>
   </g>
   <g id="patch_9">
    <path d="M 467.19 667.24 
L 467.19 385.08 
" style="fill: none; stroke: #000000; stroke-width: 0.8; stroke-linejoin: miter; stroke-linecap: square"/>
   </g>
   <g id="patch_10">
    <path d="M 71.12 667.24 
L 467.19 667.24 
" style="fill: none; stroke: #000000; stroke-width: 0.8; stroke-linejoin: miter; stroke-linecap: square"/>
   </g>
   <g id="patch_11">
    <path d="M 71.12 385.08 
L 467.19 385.08 
" style="fill: none; stroke: #000000; stroke-width: 0.8; stroke-linejoin: miter; stroke-linecap: square"/>
   </g>
   <g id="text_34">
    <!-- Pressure -->
    <g transform="translate(232.27165 379.08) scale(0.1728 -0.1728)">
     <defs>
      <path id="DejaVuSans-50" d="M 1259 4147 
L 1259 2394 
L 2053 2394 
Q 2494 2394 2734 2622 
Q 2975 2850 2975 3272 
Q 2975 3691 2734 3919 
Q 2494 4147 2053 4147 
L 1259 4147 
z
M 628 4666 
L 2053 4666 
Q 2838 4666 3239 4311 
Q 3641 3956 3641 3272 
Q 3641 2581 3239 2228 
Q 2838 1875 2053 1875 
L 1259 1875 
L 1259 0 
L 628 0 
L 628 4666 
z
" transform="scale(0.015625)"/>
     </defs>
     <use xlink:href="#DejaVuSans-50"/>
     <use xlink:href="#DejaVuSans-72" x="58.552734"/>
     <use xlink:href="#DejaVuSans-65" x="97.416016"/>
     <use xlink:href="#DejaVuSans-73" x="158.939453"/>
     <use xlink:href="#DejaVuSans-73" x="211.039062"/>
     <use xlink:href="#DejaVuSans-75" x="263.138672"/>
     <use xlink:href="#DejaVuSans-72" x="326.517578"/>
     <use xlink:href="#DejaVuSans-65" x="365.380859"/>
    </g>
   </g>
  </g>
  <g id="axes_3">
   <g id="patch_12">
    <path d="M 529.13 667.24 
L 925.2 667.24 
L 925.2 385.08 
L 529.13 385.08 
z
" style="fill: #ffffff"/>
   </g>
   <g id="matplotlib.axis_5">
    <g id="xtick_15">
     <g id="line2d_33">
      <g>
       <use xlink:href="#mdec6ec13b5" x="529.13" y="667.24" style="stroke: #000000; stroke-width: 0.8"/>
      </g>
     </g>
     <g id="text_35">
      <!-- 0 -->
      <g transform="translate(524.549 685.18175) scale(0.144 -0.144)">
       <use xlink:href="#DejaVuSans-30"/>
      </g>
     </g>
    </g>
    <g id="xtick_16">
     <g id="line2d_34">
      <g>
       <use xlink:href="#mdec6ec13b5" x="588.51081" y="667.24" style="stroke: #000000; stroke-width: 0.8"/>
      </g>
     </g>
     <g id="text_36">
      <!-- 1 -->
      <g transform="translate(583.92981 685.18175) scale(0.144 -0.144)">
       <use xlink:href="#DejaVuSans-31"/>
      </g>
     </g>
    </g>
    <g id="xtick_17">
     <g id="line2d_35">
      <g>
       <use xlink:href="#mdec6ec13b5" x="647.891619" y="667.24" style="stroke: #000000; stroke-width: 0.8"/>
      </g>
     </g>
     <g id="text_37">
      <!-- 2 -->
      <g transform="translate(643.310619 685.18175) scale(0.144 -0.144)">
       <use xlink:href="#DejaVuSans-32"/>
      </g>
     </g>
    </g>
    <g id="xtick_18">
     <g id="line2d_36">
      <g>
       <use xlink:href="#mdec6ec13b5" x="707.272429" y="667.24" style="stroke: #000000; stroke-width: 0.8"/>
      </g>
     </g>
     <g id="text_38">
      <!-- 3 -->
      <g transform="translate(702.691429 685.18175) scale(0.144 -0.144)">
       <use xlink:href="#DejaVuSans-33"/>
      </g>
     </g>
    </g>
    <g id="xtick_19">
     <g id="line2d_37">
      <g>
       <use xlink:href="#mdec6ec13b5" x="766.653238" y="667.24" style="stroke: #000000; stroke-width: 0.8"/>
      </g>
     </g>
     <g id="text_39">
      <!-- 4 -->
      <g transform="translate(762.072238 685.18175) scale(0.144 -0.144)">
       <use xlink:href="#DejaVuSans-34"/>
      </g>
     </g>
    </g>
    <g id="xtick_20">
     <g id="line2d_38">
      <g>
       <use xlink:href="#mdec6ec13b5" x="826.034048" y="667.24" style="stroke: #000000; stroke-width: 0.8"/>
      </g>
     </g>
     <g id="text_40">
      <!-- 5 -->
      <g transform="translate(821.453048 685.18175) scale(0.144 -0.144)">
       <use xlink:href="#DejaVuSans-35"/>
      </g>
     </g>
    </g>
    <g id="xtick_21">
     <g id="line2d_39">
      <g>
       <use xlink:href="#mdec6ec13b5" x="885.414858" y="667.24" style="stroke: #000000; stroke-width: 0.8"/>
      </g>
     </g>
     <g id="text_41">
      <!-- 6 -->
      <g transform="translate(880.833858 685.18175) scale(0.144 -0.144)">
       <use xlink:href="#DejaVuSans-36"/>
      </g>
     </g>
    </g>
    <g id="text_42">
     <!-- time in a.u. -->
     <g transform="translate(678.01555 705.3066) scale(0.1728 -0.1728)">
      <use xlink:href="#DejaVuSans-74"/>
      <use xlink:href="#DejaVuSans-69" x="39.208984"/>
      <use xlink:href="#DejaVuSans-6d" x="66.992188"/>
      <use xlink:href="#DejaVuSans-65" x="164.404297"/>
      <use xlink:href="#DejaVuSans-20" x="225.927734"/>
      <use xlink:href="#DejaVuSans-69" x="257.714844"/>
      <use xlink:href="#DejaVuSans-6e" x="285.498047"/>
      <use xlink:href="#DejaVuSans-20" x="348.876953"/>
      <use xlink:href="#DejaVuSans-61" x="380.664062"/>
      <use xlink:href="#DejaVuSans-2e" x="441.943359"/>
      <use xlink:href="#DejaVuSans-75" x="473.730469"/>
      <use xlink:href="#DejaVuSans-2e" x="537.109375"/>
     </g>
    </g>
   </g>
   <g id="matplotlib.axis_6">
    <g id="ytick_15">
     <g id="line2d_40">
      <g>
       <use xlink:href="#m29b10221c8" x="529.13" y="648.680061" style="stroke: #000000; stroke-width: 0.8"/>
      </g>
     </g>
     <g id="text_43">
      <!-- 1.8 -->
      <g transform="translate(499.2295 654.150936) scale(0.144 -0.144)">
       <use xlink:href="#DejaVuSans-31"/>
       <use xlink:href="#DejaVuSans-2e" x="63.623047"/>
       <use xlink:href="#DejaVuSans-38" x="95.410156"/>
      </g>
     </g>
    </g>
    <g id="ytick_16">
     <g id="line2d_41">
      <g>
       <use xlink:href="#m29b10221c8" x="529.13" y="599.248635" style="stroke: #000000; stroke-width: 0.8"/>
      </g>
     </g>
     <g id="text_44">
      <!-- 2.0 -->
      <g transform="translate(499.2295 604.71951) scale(0.144 -0.144)">
       <use xlink:href="#DejaVuSans-32"/>
       <use xlink:href="#DejaVuSans-2e" x="63.623047"/>
       <use xlink:href="#DejaVuSans-30" x="95.410156"/>
      </g>
     </g>
    </g>
    <g id="ytick_17">
     <g id="line2d_42">
      <g>
       <use xlink:href="#m29b10221c8" x="529.13" y="549.817209" style="stroke: #000000; stroke-width: 0.8"/>
      </g>
     </g>
     <g id="text_45">
      <!-- 2.2 -->
      <g transform="translate(499.2295 555.288084) scale(0.144 -0.144)">
       <use xlink:href="#DejaVuSans-32"/>
       <use xlink:href="#DejaVuSans-2e" x="63.623047"/>
       <use xlink:href="#DejaVuSans-32" x="95.410156"/>
      </g>
     </g>
    </g>
    <g id="ytick_18">
     <g id="line2d_43">
      <g>
       <use xlink:href="#m29b10221c8" x="529.13" y="500.385783" style="stroke: #000000; stroke-width: 0.8"/>
      </g>
     </g>
     <g id="text_46">
      <!-- 2.4 -->
      <g transform="translate(499.2295 505.856658) scale(0.144 -0.144)">
       <use xlink:href="#DejaVuSans-32"/>
       <use xlink:href="#DejaVuSans-2e" x="63.623047"/>
       <use xlink:href="#DejaVuSans-34" x="95.410156"/>
      </g>
     </g>
    </g>
    <g id="ytick_19">
     <g id="line2d_44">
      <g>
       <use xlink:href="#m29b10221c8" x="529.13" y="450.954357" style="stroke: #000000; stroke-width: 0.8"/>
      </g>
     </g>
     <g id="text_47">
      <!-- 2.6 -->
      <g transform="translate(499.2295 456.425232) scale(0.144 -0.144)">
       <use xlink:href="#DejaVuSans-32"/>
       <use xlink:href="#DejaVuSans-2e" x="63.623047"/>
       <use xlink:href="#DejaVuSans-36" x="95.410156"/>
      </g>
     </g>
    </g>
    <g id="ytick_20">
     <g id="line2d_45">
      <g>
       <use xlink:href="#m29b10221c8" x="529.13" y="401.522931" style="stroke: #000000; stroke-width: 0.8"/>
      </g>
     </g>
     <g id="text_48">
      <!-- 2.8 -->
      <g transform="translate(499.2295 406.993806) scale(0.144 -0.144)">
       <use xlink:href="#DejaVuSans-32"/>
       <use xlink:href="#DejaVuSans-2e" x="63.623047"/>
       <use xlink:href="#DejaVuSans-38" x="95.410156"/>
      </g>
     </g>
    </g>
    <g id="text_49">
     <!-- (avg. M=49) temperature in a.u. -->
     <g transform="translate(491.6358 666.65585) rotate(-90) scale(0.1728 -0.1728)">
      <use xlink:href="#DejaVuSans-28"/>
      <use xlink:href="#DejaVuSans-61" x="39.013672"/>
      <use xlink:href="#DejaVuSans-76" x="100.292969"/>
      <use xlink:href="#DejaVuSans-67" x="159.472656"/>
      <use xlink:href="#DejaVuSans-2e" x="222.949219"/>
      <use xlink:href="#DejaVuSans-20" x="254.736328"/>
      <use xlink:href="#DejaVuSans-4d" x="286.523438"/>
      <use xlink:href="#DejaVuSans-3d" x="372.802734"/>
      <use xlink:href="#DejaVuSans-34" x="456.591797"/>
      <use xlink:href="#DejaVuSans-39" x="520.214844"/>
      <use xlink:href="#DejaVuSans-29" x="583.837891"/>
      <use xlink:href="#DejaVuSans-20" x="622.851562"/>
      <use xlink:href="#DejaVuSans-74" x="654.638672"/>
      <use xlink:href="#DejaVuSans-65" x="693.847656"/>
      <use xlink:href="#DejaVuSans-6d" x="755.371094"/>
      <use xlink:href="#DejaVuSans-70" x="852.783203"/>
      <use xlink:href="#DejaVuSans-65" x="916.259766"/>
      <use xlink:href="#DejaVuSans-72" x="977.783203"/>
      <use xlink:href="#DejaVuSans-61" x="1018.896484"/>
      <use xlink:href="#DejaVuSans-74" x="1080.175781"/>
      <use xlink:href="#DejaVuSans-75" x="1119.384766"/>
      <use xlink:href="#DejaVuSans-72" x="1182.763672"/>
      <use xlink:href="#DejaVuSans-65" x="1221.626953"/>
      <use xlink:href="#DejaVuSans-20" x="1283.150391"/>
      <use xlink:href="#DejaVuSans-69" x="1314.9375"/>
      <use xlink:href="#DejaVuSans-6e" x="1342.720703"/>
      <use xlink:href="#DejaVuSans-20" x="1406.099609"/>
      <use xlink:href="#DejaVuSans-61" x="1437.886719"/>
      <use xlink:href="#DejaVuSans-2e" x="1499.166016"/>
      <use xlink:href="#DejaVuSans-75" x="1530.953125"/>
      <use xlink:href="#DejaVuSans-2e" x="1594.332031"/>
     </g>
    </g>
   </g>
   <g id="line2d_46">
    <path d="M 558.226597 597.069827 
L 558.820405 598.870363 
L 559.414213 599.613277 
L 560.008021 599.872241 
L 560.601829 599.643521 
L 561.789445 598.74979 
L 562.383253 598.794249 
L 562.977061 599.182148 
L 563.57087 599.20981 
L 564.164678 598.902782 
L 564.758486 599.152002 
L 565.352294 599.013975 
L 565.946102 599.045281 
L 566.53991 599.326922 
L 567.133718 599.240451 
L 567.727526 598.980234 
L 568.915142 599.115415 
L 569.508951 598.696104 
L 570.102759 599.208259 
L 570.696567 599.429122 
L 571.290375 599.220007 
L 572.477991 599.149314 
L 573.665607 599.003028 
L 574.853223 599.456493 
L 576.04084 599.297597 
L 576.634648 599.289104 
L 577.822264 599.018645 
L 578.416072 598.980014 
L 579.603688 599.409929 
L 581.385112 599.284423 
L 581.978921 599.391082 
L 584.354153 598.947931 
L 586.135577 599.212531 
L 586.729385 599.080751 
L 587.323193 599.57457 
L 587.917001 599.770004 
L 588.51081 599.74129 
L 589.104618 599.18623 
L 589.698426 598.941796 
L 590.886042 599.742168 
L 591.47985 599.696104 
L 592.073658 599.234479 
L 593.261274 599.183623 
L 594.448891 599.813524 
L 595.042699 599.625317 
L 595.636507 599.140076 
L 596.230315 599.278799 
L 598.011739 599.290427 
L 598.605547 599.564749 
L 599.793163 599.101495 
L 600.98078 599.176548 
L 601.574588 599.421399 
L 603.356012 599.334637 
L 604.543628 599.071519 
L 605.731244 599.219452 
L 606.325052 599.556438 
L 607.512669 599.623694 
L 608.106477 599.351537 
L 608.700285 599.202021 
L 609.887901 599.217014 
L 610.481709 599.12657 
L 611.075517 599.404866 
L 611.669325 599.347797 
L 612.263133 599.647371 
L 612.856942 599.588818 
L 613.45075 599.316855 
L 614.638366 599.417876 
L 615.825982 598.912037 
L 616.41979 599.317141 
L 617.013598 599.485785 
L 617.607406 599.16939 
L 619.388831 599.384305 
L 620.576447 599.862498 
L 621.764063 599.447133 
L 622.357871 599.421639 
L 622.951679 599.183382 
L 623.545487 599.355987 
L 624.139295 599.398202 
L 625.326912 599.194618 
L 625.92072 599.749716 
L 627.108336 599.396231 
L 627.702144 599.520758 
L 628.88976 599.233166 
L 629.483568 599.473929 
L 630.671184 599.255509 
L 631.264993 599.178224 
L 632.452609 599.434202 
L 633.046417 599.170787 
L 633.640225 599.442681 
L 634.827841 599.429036 
L 635.421649 599.554876 
L 636.609265 599.186183 
L 637.203073 599.278732 
L 637.796882 599.099085 
L 638.984498 599.261685 
L 639.578306 599.202282 
L 640.172114 599.286829 
L 640.765922 599.219894 
L 641.35973 599.308673 
L 641.953538 599.650184 
L 642.547346 599.593325 
L 643.141154 599.386934 
L 643.734963 599.300505 
L 644.328771 599.080939 
L 644.922579 599.126605 
L 646.704003 598.802841 
L 647.297811 599.164969 
L 647.891619 599.73369 
L 649.079235 598.821907 
L 649.673043 599.066668 
L 651.454468 599.362837 
L 652.048276 599.134136 
L 652.642084 599.063868 
L 655.017316 599.240657 
L 655.611124 599.203071 
L 656.798741 599.485053 
L 657.986357 599.068886 
L 659.767781 599.314914 
L 660.955397 598.948176 
L 663.33063 599.427994 
L 663.924438 599.411516 
L 664.518246 599.010464 
L 665.112054 599.167874 
L 665.705862 599.201852 
L 666.893478 599.482315 
L 668.081094 599.427308 
L 669.862519 599.367336 
L 670.456327 599.001267 
L 671.050135 599.189082 
L 671.643943 599.234129 
L 672.237751 598.949736 
L 672.831559 599.057968 
L 673.425367 599.395748 
L 674.019175 599.37725 
L 674.612984 599.085402 
L 675.206792 599.075689 
L 675.8006 599.219203 
L 676.394408 599.03833 
L 676.988216 599.140769 
L 677.582024 599.44429 
L 678.76964 599.050215 
L 679.957256 598.894596 
L 681.144873 599.326127 
L 682.332489 599.271114 
L 682.926297 599.224381 
L 684.113913 598.900109 
L 684.707721 599.169796 
L 685.301529 599.245294 
L 686.489145 599.050378 
L 687.082954 599.171267 
L 687.676762 599.029843 
L 688.864378 599.214706 
L 689.458186 599.347481 
L 690.051994 599.343515 
L 690.645802 599.17151 
L 691.23961 599.150282 
L 691.833418 598.811851 
L 692.427226 599.308229 
L 693.021034 599.142379 
L 693.614843 599.362319 
L 694.208651 599.463523 
L 695.396267 598.992675 
L 695.990075 598.974967 
L 697.177691 599.27247 
L 697.771499 599.266033 
L 698.959115 599.043702 
L 700.74054 598.986056 
L 701.928156 599.183867 
L 704.303388 599.230139 
L 706.084813 598.856477 
L 706.678621 599.012297 
L 707.866237 598.908404 
L 708.460045 599.321884 
L 709.647661 598.870049 
L 710.241469 599.038542 
L 710.835277 598.786245 
L 711.429085 599.094948 
L 712.022894 599.558603 
L 712.616702 599.030897 
L 713.21051 598.928179 
L 713.804318 599.040672 
L 714.398126 598.977823 
L 714.991934 598.717554 
L 715.585742 598.988004 
L 716.17955 599.396798 
L 717.367166 598.857126 
L 717.960975 598.970466 
L 719.148591 598.970184 
L 719.742399 598.955482 
L 720.930015 599.057528 
L 722.117631 598.952876 
L 722.711439 599.20262 
L 723.899055 598.947233 
L 724.492864 598.681687 
L 725.086672 598.622784 
L 727.461904 599.030856 
L 728.055712 598.993983 
L 728.64952 599.126907 
L 729.243328 598.878552 
L 729.837136 598.956947 
L 730.430945 599.368371 
L 731.024753 599.298647 
L 731.618561 598.865163 
L 732.212369 598.951281 
L 733.399985 599.446151 
L 734.587601 599.481155 
L 735.181409 598.968157 
L 735.775217 598.907086 
L 736.369025 599.171209 
L 738.744258 599.080899 
L 739.338066 599.077139 
L 739.931874 598.920458 
L 740.525682 599.006638 
L 741.11949 598.976534 
L 741.713298 599.291061 
L 743.494723 598.869707 
L 744.088531 599.015231 
L 745.276147 599.085848 
L 745.869955 599.151219 
L 746.463763 599.433648 
L 747.057571 599.374546 
L 748.245187 598.823873 
L 749.432804 598.855752 
L 750.026612 598.739155 
L 750.62042 598.45804 
L 751.214228 598.917341 
L 752.401844 598.918432 
L 752.995652 599.135812 
L 755.370885 599.039877 
L 755.964693 599.530197 
L 756.558501 599.198097 
L 757.746117 598.937959 
L 758.339925 599.017378 
L 758.933733 599.25452 
L 759.527541 599.073433 
L 760.715157 599.263629 
L 761.902774 599.21698 
L 763.09039 599.201073 
L 763.684198 598.949984 
L 764.871814 599.32367 
L 765.465622 599.323099 
L 766.653238 599.022741 
L 767.840855 599.280732 
L 768.434663 599.257303 
L 769.028471 599.396234 
L 770.216087 599.133723 
L 770.809895 599.294078 
L 771.403703 599.292073 
L 772.591319 599.011729 
L 773.778936 599.310873 
L 774.372744 598.998031 
L 774.966552 599.147249 
L 775.56036 599.066494 
L 776.154168 598.780315 
L 776.747976 599.021625 
L 777.935592 599.253432 
L 778.5294 599.019417 
L 779.123208 598.956605 
L 779.717016 599.128348 
L 781.498441 599.165418 
L 782.092249 599.445976 
L 783.279865 599.133709 
L 783.873673 599.314536 
L 785.061289 599.045213 
L 785.655097 598.738741 
L 787.436522 599.313027 
L 788.624138 598.75473 
L 789.217946 598.904966 
L 789.811754 599.309761 
L 790.405562 599.513638 
L 792.780795 598.937336 
L 793.374603 599.366754 
L 793.968411 599.604812 
L 795.156027 599.117091 
L 795.749835 599.06332 
L 798.125067 599.512592 
L 799.906492 598.961345 
L 800.5003 599.196948 
L 802.281724 599.268288 
L 802.875532 599.175956 
L 803.46934 598.956223 
L 804.063148 599.118043 
L 805.250765 599.103925 
L 805.844573 599.225196 
L 806.438381 599.51713 
L 808.813613 599.570232 
L 809.407421 599.421989 
L 811.188846 599.43564 
L 812.376462 599.492004 
L 812.97027 599.675625 
L 813.564078 599.43945 
L 814.157886 598.85306 
L 814.751694 599.329806 
L 815.345502 599.557871 
L 815.93931 599.619111 
L 816.533118 599.254821 
L 817.126927 599.189263 
L 817.720735 599.370923 
L 818.314543 599.337691 
L 819.502159 599.560823 
L 820.095967 599.307149 
L 822.471199 599.416081 
L 823.065007 599.327909 
L 823.658816 599.382158 
L 824.252624 599.225838 
L 824.846432 599.19714 
L 825.44024 599.366672 
L 826.034048 599.420346 
L 828.40928 599.180093 
L 829.003088 599.420481 
L 829.596897 599.416568 
L 830.190705 599.598114 
L 830.784513 599.649547 
L 831.972129 599.305725 
L 832.565937 599.557554 
L 833.753553 599.573915 
L 834.347361 600.016522 
L 834.941169 599.666934 
L 835.534978 599.715307 
L 836.128786 599.384441 
L 837.316402 599.782424 
L 837.91021 599.599742 
L 838.504018 599.684404 
L 839.691634 599.533716 
L 840.285442 599.233956 
L 840.87925 599.520883 
L 841.473058 599.678927 
L 842.066867 599.461853 
L 842.660675 599.489078 
L 843.254483 599.681139 
L 844.442099 599.752548 
L 845.035907 599.482103 
L 845.629715 599.374992 
L 846.817331 599.707302 
L 847.411139 599.599085 
L 848.598756 599.14688 
L 849.786372 599.305728 
L 850.38018 599.296556 
L 850.973988 599.161226 
L 851.567796 599.356354 
L 852.755412 599.102802 
L 853.34922 599.257311 
L 855.724453 599.381732 
L 856.318261 599.05662 
L 856.912069 599.322684 
L 857.505877 599.367023 
L 858.099685 599.528318 
L 859.287301 599.265898 
L 859.881109 599.435664 
L 861.662534 599.621143 
L 862.256342 599.233532 
L 863.443958 599.416366 
L 864.037766 599.299569 
L 864.631574 599.47185 
L 865.225382 599.492798 
L 865.81919 599.119955 
L 866.412999 599.270233 
L 869.382039 599.17595 
L 870.569655 599.558917 
L 871.163463 599.124275 
L 872.351079 599.670527 
L 872.944888 599.138563 
L 873.538696 599.206578 
L 874.132504 599.059005 
L 874.726312 599.40295 
L 875.32012 599.48076 
L 876.507736 598.924858 
L 877.695352 599.160709 
L 878.28916 599.188568 
L 878.882969 599.446979 
L 880.070585 599.259699 
L 880.664393 599.328749 
L 881.852009 599.166388 
L 882.445817 599.314851 
L 883.039625 599.34101 
L 884.227241 599.242331 
L 886.008666 599.181958 
L 886.602474 599.190438 
L 887.196282 599.057045 
L 888.977706 599.497856 
L 889.571514 599.384504 
L 890.75913 599.446782 
L 891.946747 599.326927 
L 892.540555 598.985343 
L 893.134363 599.317627 
L 893.728171 599.242962 
L 894.321979 599.553684 
L 894.915787 599.140186 
L 895.509595 598.969831 
L 895.509595 598.969831 
" clip-path="url(#p53f7f78cff)" style="fill: none; stroke: #1f77b4; stroke-width: 1.5; stroke-linecap: square"/>
   </g>
   <g id="line2d_47">
    <path d="M 529.13 598.925174 
L 925.2 598.925174 
" clip-path="url(#p53f7f78cff)" style="fill: none; stroke: #ff0000; stroke-opacity: 0.3; stroke-width: 1.5; stroke-linecap: square"/>
   </g>
   <g id="patch_13">
    <path d="M 529.13 667.24 
L 529.13 385.08 
" style="fill: none; stroke: #000000; stroke-width: 0.8; stroke-linejoin: miter; stroke-linecap: square"/>
   </g>
   <g id="patch_14">
    <path d="M 925.2 667.24 
L 925.2 385.08 
" style="fill: none; stroke: #000000; stroke-width: 0.8; stroke-linejoin: miter; stroke-linecap: square"/>
   </g>
   <g id="patch_15">
    <path d="M 529.13 667.24 
L 925.2 667.24 
" style="fill: none; stroke: #000000; stroke-width: 0.8; stroke-linejoin: miter; stroke-linecap: square"/>
   </g>
   <g id="patch_16">
    <path d="M 529.13 385.08 
L 925.2 385.08 
" style="fill: none; stroke: #000000; stroke-width: 0.8; stroke-linejoin: miter; stroke-linecap: square"/>
   </g>
   <g id="text_50">
    <!-- Temperature -->
    <g transform="translate(672.44005 379.08) scale(0.1728 -0.1728)">
     <defs>
      <path id="DejaVuSans-54" d="M -19 4666 
L 3928 4666 
L 3928 4134 
L 2272 4134 
L 2272 0 
L 1638 0 
L 1638 4134 
L -19 4134 
L -19 4666 
z
" transform="scale(0.015625)"/>
     </defs>
     <use xlink:href="#DejaVuSans-54"/>
     <use xlink:href="#DejaVuSans-65" x="44.083984"/>
     <use xlink:href="#DejaVuSans-6d" x="105.607422"/>
     <use xlink:href="#DejaVuSans-70" x="203.019531"/>
     <use xlink:href="#DejaVuSans-65" x="266.496094"/>
     <use xlink:href="#DejaVuSans-72" x="328.019531"/>
     <use xlink:href="#DejaVuSans-61" x="369.132812"/>
     <use xlink:href="#DejaVuSans-74" x="430.412109"/>
     <use xlink:href="#DejaVuSans-75" x="469.621094"/>
     <use xlink:href="#DejaVuSans-72" x="533"/>
     <use xlink:href="#DejaVuSans-65" x="571.863281"/>
    </g>
   </g>
  </g>
 </g>
 <defs>
  <clipPath id="p8ca1de3155">
   <rect x="71.12" y="30.48" width="854.08" height="282.16"/>
  </clipPath>
  <clipPath id="p69df06ec37">
   <rect x="71.12" y="385.08" width="396.07" height="282.16"/>
  </clipPath>
  <clipPath id="p53f7f78cff">
   <rect x="529.13" y="385.08" width="396.07" height="282.16"/>
  </clipPath>
 </defs>
</svg>
