<?xml version="1.0" encoding="utf-8" standalone="no"?>
<!DOCTYPE svg PUBLIC "-//W3C//DTD SVG 1.1//EN"
  "http://www.w3.org/Graphics/SVG/1.1/DTD/svg11.dtd">
<svg xmlns:xlink="http://www.w3.org/1999/xlink" width="460.8pt" height="345.6pt" viewBox="0 0 460.8 345.6" xmlns="http://www.w3.org/2000/svg" version="1.1">
 <metadata>
  <rdf:RDF xmlns:dc="http://purl.org/dc/elements/1.1/" xmlns:cc="http://creativecommons.org/ns#" xmlns:rdf="http://www.w3.org/1999/02/22-rdf-syntax-ns#">
   <cc:Work>
    <dc:type rdf:resource="http://purl.org/dc/dcmitype/StillImage"/>
    <dc:date>2024-12-09T06:45:18.269797</dc:date>
    <dc:format>image/svg+xml</dc:format>
    <dc:creator>
     <cc:Agent>
      <dc:title>Matplotlib v3.8.0, https://matplotlib.org/</dc:title>
     </cc:Agent>
    </dc:creator>
   </cc:Work>
  </rdf:RDF>
 </metadata>
 <defs>
  <style type="text/css">*{stroke-linejoin: round; stroke-linecap: butt}</style>
 </defs>
 <g id="figure_1">
  <g id="patch_1">
   <path d="M 0 345.6 
L 460.8 345.6 
L 460.8 0 
L 0 0 
z
" style="fill: #ffffff"/>
  </g>
  <g id="axes_1">
   <g id="patch_2">
    <path d="M 57.08 300.76 
L 450 300.76 
L 450 25.44 
L 57.08 25.44 
z
" style="fill: #ffffff"/>
   </g>
   <g id="PathCollection_1">
    <defs>
     <path id="m0d3edba5dc" d="M 0 3 
C 0.795609 3 1.55874 2.683901 2.12132 2.12132 
C 2.683901 1.55874 3 0.795609 3 0 
C 3 -0.795609 2.683901 -1.55874 2.12132 -2.12132 
C 1.55874 -2.683901 0.795609 -3 0 -3 
C -0.795609 -3 -1.55874 -2.683901 -2.12132 -2.12132 
C -2.683901 -1.55874 -3 -0.795609 -3 0 
C -3 0.795609 -2.683901 1.55874 -2.12132 2.12132 
C -1.55874 2.683901 -0.795609 3 0 3 
z
" style="stroke: #1f77b4"/>
    </defs>
    <g clip-path="url(#p103d514caf)">
     <use xlink:href="#m0d3edba5dc" x="398.366657" y="185.445541" style="fill: #1f77b4; stroke: #1f77b4"/>
     <use xlink:href="#m0d3edba5dc" x="330.011763" y="272.339046" style="fill: #1f77b4; stroke: #1f77b4"/>
     <use xlink:href="#m0d3edba5dc" x="226.071935" y="165.582042" style="fill: #1f77b4; stroke: #1f77b4"/>
     <use xlink:href="#m0d3edba5dc" x="78.883131" y="63.321795" style="fill: #1f77b4; stroke: #1f77b4"/>
     <use xlink:href="#m0d3edba5dc" x="294.082993" y="274.856109" style="fill: #1f77b4; stroke: #1f77b4"/>
     <use xlink:href="#m0d3edba5dc" x="198.861136" y="154.392217" style="fill: #1f77b4; stroke: #1f77b4"/>
     <use xlink:href="#m0d3edba5dc" x="153.619748" y="100.698007" style="fill: #1f77b4; stroke: #1f77b4"/>
     <use xlink:href="#m0d3edba5dc" x="126.879351" y="44.736352" style="fill: #1f77b4; stroke: #1f77b4"/>
     <use xlink:href="#m0d3edba5dc" x="363.340407" y="288.245455" style="fill: #1f77b4; stroke: #1f77b4"/>
     <use xlink:href="#m0d3edba5dc" x="116.316837" y="127.254268" style="fill: #1f77b4; stroke: #1f77b4"/>
     <use xlink:href="#m0d3edba5dc" x="330.940923" y="89.582944" style="fill: #1f77b4; stroke: #1f77b4"/>
     <use xlink:href="#m0d3edba5dc" x="359.211985" y="220.764942" style="fill: #1f77b4; stroke: #1f77b4"/>
     <use xlink:href="#m0d3edba5dc" x="239.149784" y="275.085636" style="fill: #1f77b4; stroke: #1f77b4"/>
     <use xlink:href="#m0d3edba5dc" x="346.653338" y="171.793502" style="fill: #1f77b4; stroke: #1f77b4"/>
     <use xlink:href="#m0d3edba5dc" x="290.759569" y="59.510709" style="fill: #1f77b4; stroke: #1f77b4"/>
     <use xlink:href="#m0d3edba5dc" x="297.80395" y="130.277319" style="fill: #1f77b4; stroke: #1f77b4"/>
     <use xlink:href="#m0d3edba5dc" x="268.987065" y="105.717235" style="fill: #1f77b4; stroke: #1f77b4"/>
     <use xlink:href="#m0d3edba5dc" x="279.020564" y="258.901052" style="fill: #1f77b4; stroke: #1f77b4"/>
     <use xlink:href="#m0d3edba5dc" x="158.763809" y="141.396485" style="fill: #1f77b4; stroke: #1f77b4"/>
     <use xlink:href="#m0d3edba5dc" x="98.583429" y="271.325803" style="fill: #1f77b4; stroke: #1f77b4"/>
     <use xlink:href="#m0d3edba5dc" x="254.212465" y="71.027023" style="fill: #1f77b4; stroke: #1f77b4"/>
     <use xlink:href="#m0d3edba5dc" x="354.751746" y="187.810614" style="fill: #1f77b4; stroke: #1f77b4"/>
     <use xlink:href="#m0d3edba5dc" x="129.141894" y="181.005406" style="fill: #1f77b4; stroke: #1f77b4"/>
     <use xlink:href="#m0d3edba5dc" x="121.513072" y="153.213148" style="fill: #1f77b4; stroke: #1f77b4"/>
     <use xlink:href="#m0d3edba5dc" x="163.184375" y="40.097848" style="fill: #1f77b4; stroke: #1f77b4"/>
     <use xlink:href="#m0d3edba5dc" x="335.527096" y="54.359035" style="fill: #1f77b4; stroke: #1f77b4"/>
     <use xlink:href="#m0d3edba5dc" x="337.642323" y="183.671146" style="fill: #1f77b4; stroke: #1f77b4"/>
     <use xlink:href="#m0d3edba5dc" x="201.355282" y="258.773607" style="fill: #1f77b4; stroke: #1f77b4"/>
     <use xlink:href="#m0d3edba5dc" x="142.858644" y="207.806752" style="fill: #1f77b4; stroke: #1f77b4"/>
     <use xlink:href="#m0d3edba5dc" x="97.480417" y="273.294027" style="fill: #1f77b4; stroke: #1f77b4"/>
     <use xlink:href="#m0d3edba5dc" x="217.781204" y="103.203845" style="fill: #1f77b4; stroke: #1f77b4"/>
     <use xlink:href="#m0d3edba5dc" x="298.810077" y="63.274771" style="fill: #1f77b4; stroke: #1f77b4"/>
     <use xlink:href="#m0d3edba5dc" x="432.14" y="127.481667" style="fill: #1f77b4; stroke: #1f77b4"/>
     <use xlink:href="#m0d3edba5dc" x="145.776667" y="112.143112" style="fill: #1f77b4; stroke: #1f77b4"/>
     <use xlink:href="#m0d3edba5dc" x="142.78223" y="262.952161" style="fill: #1f77b4; stroke: #1f77b4"/>
     <use xlink:href="#m0d3edba5dc" x="416.535355" y="229.610032" style="fill: #1f77b4; stroke: #1f77b4"/>
     <use xlink:href="#m0d3edba5dc" x="252.936344" y="37.954545" style="fill: #1f77b4; stroke: #1f77b4"/>
     <use xlink:href="#m0d3edba5dc" x="107.239318" y="226.816466" style="fill: #1f77b4; stroke: #1f77b4"/>
     <use xlink:href="#m0d3edba5dc" x="167.063228" y="40.889825" style="fill: #1f77b4; stroke: #1f77b4"/>
     <use xlink:href="#m0d3edba5dc" x="98.240526" y="125.949282" style="fill: #1f77b4; stroke: #1f77b4"/>
     <use xlink:href="#m0d3edba5dc" x="284.571078" y="61.586257" style="fill: #1f77b4; stroke: #1f77b4"/>
     <use xlink:href="#m0d3edba5dc" x="213.337581" y="233.632733" style="fill: #1f77b4; stroke: #1f77b4"/>
     <use xlink:href="#m0d3edba5dc" x="153.64801" y="261.442635" style="fill: #1f77b4; stroke: #1f77b4"/>
     <use xlink:href="#m0d3edba5dc" x="154.3841" y="269.07859" style="fill: #1f77b4; stroke: #1f77b4"/>
     <use xlink:href="#m0d3edba5dc" x="182.015495" y="47.188507" style="fill: #1f77b4; stroke: #1f77b4"/>
     <use xlink:href="#m0d3edba5dc" x="246.900089" y="257.637738" style="fill: #1f77b4; stroke: #1f77b4"/>
     <use xlink:href="#m0d3edba5dc" x="186.82425" y="192.699685" style="fill: #1f77b4; stroke: #1f77b4"/>
     <use xlink:href="#m0d3edba5dc" x="356.838792" y="138.289867" style="fill: #1f77b4; stroke: #1f77b4"/>
     <use xlink:href="#m0d3edba5dc" x="167.987091" y="89.929943" style="fill: #1f77b4; stroke: #1f77b4"/>
     <use xlink:href="#m0d3edba5dc" x="422.236635" y="167.809845" style="fill: #1f77b4; stroke: #1f77b4"/>
     <use xlink:href="#m0d3edba5dc" x="169.140323" y="93.223454" style="fill: #1f77b4; stroke: #1f77b4"/>
     <use xlink:href="#m0d3edba5dc" x="295.233079" y="143.067195" style="fill: #1f77b4; stroke: #1f77b4"/>
     <use xlink:href="#m0d3edba5dc" x="84.636912" y="257.12569" style="fill: #1f77b4; stroke: #1f77b4"/>
     <use xlink:href="#m0d3edba5dc" x="406.726149" y="131.504374" style="fill: #1f77b4; stroke: #1f77b4"/>
     <use xlink:href="#m0d3edba5dc" x="235.631598" y="63.982469" style="fill: #1f77b4; stroke: #1f77b4"/>
     <use xlink:href="#m0d3edba5dc" x="419.732368" y="98.056766" style="fill: #1f77b4; stroke: #1f77b4"/>
     <use xlink:href="#m0d3edba5dc" x="202.495284" y="139.198851" style="fill: #1f77b4; stroke: #1f77b4"/>
     <use xlink:href="#m0d3edba5dc" x="250.472954" y="238.506382" style="fill: #1f77b4; stroke: #1f77b4"/>
     <use xlink:href="#m0d3edba5dc" x="351.087545" y="174.301343" style="fill: #1f77b4; stroke: #1f77b4"/>
     <use xlink:href="#m0d3edba5dc" x="178.014589" y="167.367799" style="fill: #1f77b4; stroke: #1f77b4"/>
     <use xlink:href="#m0d3edba5dc" x="342.401093" y="268.907477" style="fill: #1f77b4; stroke: #1f77b4"/>
     <use xlink:href="#m0d3edba5dc" x="251.391127" y="39.812615" style="fill: #1f77b4; stroke: #1f77b4"/>
     <use xlink:href="#m0d3edba5dc" x="345.215355" y="85.031446" style="fill: #1f77b4; stroke: #1f77b4"/>
     <use xlink:href="#m0d3edba5dc" x="95.121591" y="157.964335" style="fill: #1f77b4; stroke: #1f77b4"/>
     <use xlink:href="#m0d3edba5dc" x="278.34949" y="193.884839" style="fill: #1f77b4; stroke: #1f77b4"/>
     <use xlink:href="#m0d3edba5dc" x="113.923617" y="280.128547" style="fill: #1f77b4; stroke: #1f77b4"/>
     <use xlink:href="#m0d3edba5dc" x="420.316947" y="105.038006" style="fill: #1f77b4; stroke: #1f77b4"/>
     <use xlink:href="#m0d3edba5dc" x="249.696842" y="58.241747" style="fill: #1f77b4; stroke: #1f77b4"/>
     <use xlink:href="#m0d3edba5dc" x="308.224548" y="137.375297" style="fill: #1f77b4; stroke: #1f77b4"/>
     <use xlink:href="#m0d3edba5dc" x="295.241177" y="260.713364" style="fill: #1f77b4; stroke: #1f77b4"/>
     <use xlink:href="#m0d3edba5dc" x="120.157994" y="102.037126" style="fill: #1f77b4; stroke: #1f77b4"/>
     <use xlink:href="#m0d3edba5dc" x="306.681702" y="111.055403" style="fill: #1f77b4; stroke: #1f77b4"/>
     <use xlink:href="#m0d3edba5dc" x="321.763463" y="222.384712" style="fill: #1f77b4; stroke: #1f77b4"/>
     <use xlink:href="#m0d3edba5dc" x="149.380653" y="121.622072" style="fill: #1f77b4; stroke: #1f77b4"/>
     <use xlink:href="#m0d3edba5dc" x="404.512868" y="78.42333" style="fill: #1f77b4; stroke: #1f77b4"/>
     <use xlink:href="#m0d3edba5dc" x="363.39044" y="214.630349" style="fill: #1f77b4; stroke: #1f77b4"/>
     <use xlink:href="#m0d3edba5dc" x="154.829392" y="47.17942" style="fill: #1f77b4; stroke: #1f77b4"/>
     <use xlink:href="#m0d3edba5dc" x="163.748067" y="124.073908" style="fill: #1f77b4; stroke: #1f77b4"/>
     <use xlink:href="#m0d3edba5dc" x="74.94" y="87.629555" style="fill: #1f77b4; stroke: #1f77b4"/>
     <use xlink:href="#m0d3edba5dc" x="226.799174" y="276.986642" style="fill: #1f77b4; stroke: #1f77b4"/>
     <use xlink:href="#m0d3edba5dc" x="267.921737" y="47.785837" style="fill: #1f77b4; stroke: #1f77b4"/>
     <use xlink:href="#m0d3edba5dc" x="379.092894" y="91.193783" style="fill: #1f77b4; stroke: #1f77b4"/>
     <use xlink:href="#m0d3edba5dc" x="132.482303" y="96.964692" style="fill: #1f77b4; stroke: #1f77b4"/>
     <use xlink:href="#m0d3edba5dc" x="198.683205" y="60.940603" style="fill: #1f77b4; stroke: #1f77b4"/>
     <use xlink:href="#m0d3edba5dc" x="94.575615" y="230.423731" style="fill: #1f77b4; stroke: #1f77b4"/>
     <use xlink:href="#m0d3edba5dc" x="326.337515" y="111.531131" style="fill: #1f77b4; stroke: #1f77b4"/>
     <use xlink:href="#m0d3edba5dc" x="346.895378" y="91.258082" style="fill: #1f77b4; stroke: #1f77b4"/>
     <use xlink:href="#m0d3edba5dc" x="223.004188" y="100.063292" style="fill: #1f77b4; stroke: #1f77b4"/>
     <use xlink:href="#m0d3edba5dc" x="96.430434" y="170.027858" style="fill: #1f77b4; stroke: #1f77b4"/>
     <use xlink:href="#m0d3edba5dc" x="134.007488" y="280.743507" style="fill: #1f77b4; stroke: #1f77b4"/>
     <use xlink:href="#m0d3edba5dc" x="268.347057" y="88.26105" style="fill: #1f77b4; stroke: #1f77b4"/>
     <use xlink:href="#m0d3edba5dc" x="83.315106" y="279.880798" style="fill: #1f77b4; stroke: #1f77b4"/>
     <use xlink:href="#m0d3edba5dc" x="331.101691" y="85.514337" style="fill: #1f77b4; stroke: #1f77b4"/>
     <use xlink:href="#m0d3edba5dc" x="124.285984" y="285.843115" style="fill: #1f77b4; stroke: #1f77b4"/>
     <use xlink:href="#m0d3edba5dc" x="392.319268" y="100.501847" style="fill: #1f77b4; stroke: #1f77b4"/>
     <use xlink:href="#m0d3edba5dc" x="317.253514" y="42.812707" style="fill: #1f77b4; stroke: #1f77b4"/>
     <use xlink:href="#m0d3edba5dc" x="214.651331" y="144.928946" style="fill: #1f77b4; stroke: #1f77b4"/>
     <use xlink:href="#m0d3edba5dc" x="230.237396" y="133.465738" style="fill: #1f77b4; stroke: #1f77b4"/>
     <use xlink:href="#m0d3edba5dc" x="237.938833" y="130.568518" style="fill: #1f77b4; stroke: #1f77b4"/>
     <use xlink:href="#m0d3edba5dc" x="404.618218" y="85.398599" style="fill: #1f77b4; stroke: #1f77b4"/>
    </g>
   </g>
   <g id="matplotlib.axis_1">
    <g id="xtick_1">
     <g id="line2d_1">
      <defs>
       <path id="m269f2bcfe9" d="M 0 0 
L 0 3.5 
" style="stroke: #000000; stroke-width: 0.8"/>
      </defs>
      <g>
       <use xlink:href="#m269f2bcfe9" x="69.622778" y="300.76" style="stroke: #000000; stroke-width: 0.8"/>
      </g>
     </g>
     <g id="text_1">
      <!-- 0.0 -->
      <g transform="translate(61.671215 315.358437) scale(0.1 -0.1)">
       <defs>
        <path id="DejaVuSans-30" d="M 2034 4250 
Q 1547 4250 1301 3770 
Q 1056 3291 1056 2328 
Q 1056 1369 1301 889 
Q 1547 409 2034 409 
Q 2525 409 2770 889 
Q 3016 1369 3016 2328 
Q 3016 3291 2770 3770 
Q 2525 4250 2034 4250 
z
M 2034 4750 
Q 2819 4750 3233 4129 
Q 3647 3509 3647 2328 
Q 3647 1150 3233 529 
Q 2819 -91 2034 -91 
Q 1250 -91 836 529 
Q 422 1150 422 2328 
Q 422 3509 836 4129 
Q 1250 4750 2034 4750 
z
" transform="scale(0.015625)"/>
        <path id="DejaVuSans-2e" d="M 684 794 
L 1344 794 
L 1344 0 
L 684 0 
L 684 794 
z
" transform="scale(0.015625)"/>
       </defs>
       <use xlink:href="#DejaVuSans-30"/>
       <use xlink:href="#DejaVuSans-2e" x="63.623047"/>
       <use xlink:href="#DejaVuSans-30" x="95.410156"/>
      </g>
     </g>
    </g>
    <g id="xtick_2">
     <g id="line2d_2">
      <g>
       <use xlink:href="#m269f2bcfe9" x="120.634277" y="300.76" style="stroke: #000000; stroke-width: 0.8"/>
      </g>
     </g>
     <g id="text_2">
      <!-- 2.5 -->
      <g transform="translate(112.682714 315.358437) scale(0.1 -0.1)">
       <defs>
        <path id="DejaVuSans-32" d="M 1228 531 
L 3431 531 
L 3431 0 
L 469 0 
L 469 531 
Q 828 903 1448 1529 
Q 2069 2156 2228 2338 
Q 2531 2678 2651 2914 
Q 2772 3150 2772 3378 
Q 2772 3750 2511 3984 
Q 2250 4219 1831 4219 
Q 1534 4219 1204 4116 
Q 875 4013 500 3803 
L 500 4441 
Q 881 4594 1212 4672 
Q 1544 4750 1819 4750 
Q 2544 4750 2975 4387 
Q 3406 4025 3406 3419 
Q 3406 3131 3298 2873 
Q 3191 2616 2906 2266 
Q 2828 2175 2409 1742 
Q 1991 1309 1228 531 
z
" transform="scale(0.015625)"/>
        <path id="DejaVuSans-35" d="M 691 4666 
L 3169 4666 
L 3169 4134 
L 1269 4134 
L 1269 2991 
Q 1406 3038 1543 3061 
Q 1681 3084 1819 3084 
Q 2600 3084 3056 2656 
Q 3513 2228 3513 1497 
Q 3513 744 3044 326 
Q 2575 -91 1722 -91 
Q 1428 -91 1123 -41 
Q 819 9 494 109 
L 494 744 
Q 775 591 1075 516 
Q 1375 441 1709 441 
Q 2250 441 2565 725 
Q 2881 1009 2881 1497 
Q 2881 1984 2565 2268 
Q 2250 2553 1709 2553 
Q 1456 2553 1204 2497 
Q 953 2441 691 2322 
L 691 4666 
z
" transform="scale(0.015625)"/>
       </defs>
       <use xlink:href="#DejaVuSans-32"/>
       <use xlink:href="#DejaVuSans-2e" x="63.623047"/>
       <use xlink:href="#DejaVuSans-35" x="95.410156"/>
      </g>
     </g>
    </g>
    <g id="xtick_3">
     <g id="line2d_3">
      <g>
       <use xlink:href="#m269f2bcfe9" x="171.645776" y="300.76" style="stroke: #000000; stroke-width: 0.8"/>
      </g>
     </g>
     <g id="text_3">
      <!-- 5.0 -->
      <g transform="translate(163.694213 315.358437) scale(0.1 -0.1)">
       <use xlink:href="#DejaVuSans-35"/>
       <use xlink:href="#DejaVuSans-2e" x="63.623047"/>
       <use xlink:href="#DejaVuSans-30" x="95.410156"/>
      </g>
     </g>
    </g>
    <g id="xtick_4">
     <g id="line2d_4">
      <g>
       <use xlink:href="#m269f2bcfe9" x="222.657274" y="300.76" style="stroke: #000000; stroke-width: 0.8"/>
      </g>
     </g>
     <g id="text_4">
      <!-- 7.5 -->
      <g transform="translate(214.705712 315.358437) scale(0.1 -0.1)">
       <defs>
        <path id="DejaVuSans-37" d="M 525 4666 
L 3525 4666 
L 3525 4397 
L 1831 0 
L 1172 0 
L 2766 4134 
L 525 4134 
L 525 4666 
z
" transform="scale(0.015625)"/>
       </defs>
       <use xlink:href="#DejaVuSans-37"/>
       <use xlink:href="#DejaVuSans-2e" x="63.623047"/>
       <use xlink:href="#DejaVuSans-35" x="95.410156"/>
      </g>
     </g>
    </g>
    <g id="xtick_5">
     <g id="line2d_5">
      <g>
       <use xlink:href="#m269f2bcfe9" x="273.668773" y="300.76" style="stroke: #000000; stroke-width: 0.8"/>
      </g>
     </g>
     <g id="text_5">
      <!-- 10.0 -->
      <g transform="translate(262.535961 315.358437) scale(0.1 -0.1)">
       <defs>
        <path id="DejaVuSans-31" d="M 794 531 
L 1825 531 
L 1825 4091 
L 703 3866 
L 703 4441 
L 1819 4666 
L 2450 4666 
L 2450 531 
L 3481 531 
L 3481 0 
L 794 0 
L 794 531 
z
" transform="scale(0.015625)"/>
       </defs>
       <use xlink:href="#DejaVuSans-31"/>
       <use xlink:href="#DejaVuSans-30" x="63.623047"/>
       <use xlink:href="#DejaVuSans-2e" x="127.246094"/>
       <use xlink:href="#DejaVuSans-30" x="159.033203"/>
      </g>
     </g>
    </g>
    <g id="xtick_6">
     <g id="line2d_6">
      <g>
       <use xlink:href="#m269f2bcfe9" x="324.680272" y="300.76" style="stroke: #000000; stroke-width: 0.8"/>
      </g>
     </g>
     <g id="text_6">
      <!-- 12.5 -->
      <g transform="translate(313.54746 315.358437) scale(0.1 -0.1)">
       <use xlink:href="#DejaVuSans-31"/>
       <use xlink:href="#DejaVuSans-32" x="63.623047"/>
       <use xlink:href="#DejaVuSans-2e" x="127.246094"/>
       <use xlink:href="#DejaVuSans-35" x="159.033203"/>
      </g>
     </g>
    </g>
    <g id="xtick_7">
     <g id="line2d_7">
      <g>
       <use xlink:href="#m269f2bcfe9" x="375.691771" y="300.76" style="stroke: #000000; stroke-width: 0.8"/>
      </g>
     </g>
     <g id="text_7">
      <!-- 15.0 -->
      <g transform="translate(364.558959 315.358437) scale(0.1 -0.1)">
       <use xlink:href="#DejaVuSans-31"/>
       <use xlink:href="#DejaVuSans-35" x="63.623047"/>
       <use xlink:href="#DejaVuSans-2e" x="127.246094"/>
       <use xlink:href="#DejaVuSans-30" x="159.033203"/>
      </g>
     </g>
    </g>
    <g id="xtick_8">
     <g id="line2d_8">
      <g>
       <use xlink:href="#m269f2bcfe9" x="426.70327" y="300.76" style="stroke: #000000; stroke-width: 0.8"/>
      </g>
     </g>
     <g id="text_8">
      <!-- 17.5 -->
      <g transform="translate(415.570458 315.358437) scale(0.1 -0.1)">
       <use xlink:href="#DejaVuSans-31"/>
       <use xlink:href="#DejaVuSans-37" x="63.623047"/>
       <use xlink:href="#DejaVuSans-2e" x="127.246094"/>
       <use xlink:href="#DejaVuSans-35" x="159.033203"/>
      </g>
     </g>
    </g>
    <g id="text_9">
     <!-- $x$-postions in a. u. -->
     <g transform="translate(208.99 329.038125) scale(0.1 -0.1)">
      <defs>
       <path id="DejaVuSans-Oblique-78" d="M 3841 3500 
L 2234 1784 
L 3219 0 
L 2559 0 
L 1819 1388 
L 531 0 
L -166 0 
L 1556 1844 
L 641 3500 
L 1300 3500 
L 1972 2234 
L 3144 3500 
L 3841 3500 
z
" transform="scale(0.015625)"/>
       <path id="DejaVuSans-2d" d="M 313 2009 
L 1997 2009 
L 1997 1497 
L 313 1497 
L 313 2009 
z
" transform="scale(0.015625)"/>
       <path id="DejaVuSans-70" d="M 1159 525 
L 1159 -1331 
L 581 -1331 
L 581 3500 
L 1159 3500 
L 1159 2969 
Q 1341 3281 1617 3432 
Q 1894 3584 2278 3584 
Q 2916 3584 3314 3078 
Q 3713 2572 3713 1747 
Q 3713 922 3314 415 
Q 2916 -91 2278 -91 
Q 1894 -91 1617 61 
Q 1341 213 1159 525 
z
M 3116 1747 
Q 3116 2381 2855 2742 
Q 2594 3103 2138 3103 
Q 1681 3103 1420 2742 
Q 1159 2381 1159 1747 
Q 1159 1113 1420 752 
Q 1681 391 2138 391 
Q 2594 391 2855 752 
Q 3116 1113 3116 1747 
z
" transform="scale(0.015625)"/>
       <path id="DejaVuSans-6f" d="M 1959 3097 
Q 1497 3097 1228 2736 
Q 959 2375 959 1747 
Q 959 1119 1226 758 
Q 1494 397 1959 397 
Q 2419 397 2687 759 
Q 2956 1122 2956 1747 
Q 2956 2369 2687 2733 
Q 2419 3097 1959 3097 
z
M 1959 3584 
Q 2709 3584 3137 3096 
Q 3566 2609 3566 1747 
Q 3566 888 3137 398 
Q 2709 -91 1959 -91 
Q 1206 -91 779 398 
Q 353 888 353 1747 
Q 353 2609 779 3096 
Q 1206 3584 1959 3584 
z
" transform="scale(0.015625)"/>
       <path id="DejaVuSans-73" d="M 2834 3397 
L 2834 2853 
Q 2591 2978 2328 3040 
Q 2066 3103 1784 3103 
Q 1356 3103 1142 2972 
Q 928 2841 928 2578 
Q 928 2378 1081 2264 
Q 1234 2150 1697 2047 
L 1894 2003 
Q 2506 1872 2764 1633 
Q 3022 1394 3022 966 
Q 3022 478 2636 193 
Q 2250 -91 1575 -91 
Q 1294 -91 989 -36 
Q 684 19 347 128 
L 347 722 
Q 666 556 975 473 
Q 1284 391 1588 391 
Q 1994 391 2212 530 
Q 2431 669 2431 922 
Q 2431 1156 2273 1281 
Q 2116 1406 1581 1522 
L 1381 1569 
Q 847 1681 609 1914 
Q 372 2147 372 2553 
Q 372 3047 722 3315 
Q 1072 3584 1716 3584 
Q 2034 3584 2315 3537 
Q 2597 3491 2834 3397 
z
" transform="scale(0.015625)"/>
       <path id="DejaVuSans-74" d="M 1172 4494 
L 1172 3500 
L 2356 3500 
L 2356 3053 
L 1172 3053 
L 1172 1153 
Q 1172 725 1289 603 
Q 1406 481 1766 481 
L 2356 481 
L 2356 0 
L 1766 0 
Q 1100 0 847 248 
Q 594 497 594 1153 
L 594 3053 
L 172 3053 
L 172 3500 
L 594 3500 
L 594 4494 
L 1172 4494 
z
" transform="scale(0.015625)"/>
       <path id="DejaVuSans-69" d="M 603 3500 
L 1178 3500 
L 1178 0 
L 603 0 
L 603 3500 
z
M 603 4863 
L 1178 4863 
L 1178 4134 
L 603 4134 
L 603 4863 
z
" transform="scale(0.015625)"/>
       <path id="DejaVuSans-6e" d="M 3513 2113 
L 3513 0 
L 2938 0 
L 2938 2094 
Q 2938 2591 2744 2837 
Q 2550 3084 2163 3084 
Q 1697 3084 1428 2787 
Q 1159 2491 1159 1978 
L 1159 0 
L 581 0 
L 581 3500 
L 1159 3500 
L 1159 2956 
Q 1366 3272 1645 3428 
Q 1925 3584 2291 3584 
Q 2894 3584 3203 3211 
Q 3513 2838 3513 2113 
z
" transform="scale(0.015625)"/>
       <path id="DejaVuSans-20" transform="scale(0.015625)"/>
       <path id="DejaVuSans-61" d="M 2194 1759 
Q 1497 1759 1228 1600 
Q 959 1441 959 1056 
Q 959 750 1161 570 
Q 1363 391 1709 391 
Q 2188 391 2477 730 
Q 2766 1069 2766 1631 
L 2766 1759 
L 2194 1759 
z
M 3341 1997 
L 3341 0 
L 2766 0 
L 2766 531 
Q 2569 213 2275 61 
Q 1981 -91 1556 -91 
Q 1019 -91 701 211 
Q 384 513 384 1019 
Q 384 1609 779 1909 
Q 1175 2209 1959 2209 
L 2766 2209 
L 2766 2266 
Q 2766 2663 2505 2880 
Q 2244 3097 1772 3097 
Q 1472 3097 1187 3025 
Q 903 2953 641 2809 
L 641 3341 
Q 956 3463 1253 3523 
Q 1550 3584 1831 3584 
Q 2591 3584 2966 3190 
Q 3341 2797 3341 1997 
z
" transform="scale(0.015625)"/>
       <path id="DejaVuSans-75" d="M 544 1381 
L 544 3500 
L 1119 3500 
L 1119 1403 
Q 1119 906 1312 657 
Q 1506 409 1894 409 
Q 2359 409 2629 706 
Q 2900 1003 2900 1516 
L 2900 3500 
L 3475 3500 
L 3475 0 
L 2900 0 
L 2900 538 
Q 2691 219 2414 64 
Q 2138 -91 1772 -91 
Q 1169 -91 856 284 
Q 544 659 544 1381 
z
M 1991 3584 
L 1991 3584 
z
" transform="scale(0.015625)"/>
      </defs>
      <use xlink:href="#DejaVuSans-Oblique-78" transform="translate(0 0.015625)"/>
      <use xlink:href="#DejaVuSans-2d" transform="translate(59.179688 0.015625)"/>
      <use xlink:href="#DejaVuSans-70" transform="translate(95.263672 0.015625)"/>
      <use xlink:href="#DejaVuSans-6f" transform="translate(158.740234 0.015625)"/>
      <use xlink:href="#DejaVuSans-73" transform="translate(219.921875 0.015625)"/>
      <use xlink:href="#DejaVuSans-74" transform="translate(272.021484 0.015625)"/>
      <use xlink:href="#DejaVuSans-69" transform="translate(311.230469 0.015625)"/>
      <use xlink:href="#DejaVuSans-6f" transform="translate(339.013672 0.015625)"/>
      <use xlink:href="#DejaVuSans-6e" transform="translate(400.195312 0.015625)"/>
      <use xlink:href="#DejaVuSans-73" transform="translate(463.574219 0.015625)"/>
      <use xlink:href="#DejaVuSans-20" transform="translate(515.673828 0.015625)"/>
      <use xlink:href="#DejaVuSans-69" transform="translate(547.460938 0.015625)"/>
      <use xlink:href="#DejaVuSans-6e" transform="translate(575.244141 0.015625)"/>
      <use xlink:href="#DejaVuSans-20" transform="translate(638.623047 0.015625)"/>
      <use xlink:href="#DejaVuSans-61" transform="translate(670.410156 0.015625)"/>
      <use xlink:href="#DejaVuSans-2e" transform="translate(731.689453 0.015625)"/>
      <use xlink:href="#DejaVuSans-20" transform="translate(763.476562 0.015625)"/>
      <use xlink:href="#DejaVuSans-75" transform="translate(795.263672 0.015625)"/>
      <use xlink:href="#DejaVuSans-2e" transform="translate(858.642578 0.015625)"/>
     </g>
    </g>
   </g>
   <g id="matplotlib.axis_2">
    <g id="ytick_1">
     <g id="line2d_9">
      <defs>
       <path id="m67061b611b" d="M 0 0 
L -3.5 0 
" style="stroke: #000000; stroke-width: 0.8"/>
      </defs>
      <g>
       <use xlink:href="#m67061b611b" x="57.08" y="289.369065" style="stroke: #000000; stroke-width: 0.8"/>
      </g>
     </g>
     <g id="text_10">
      <!-- 0.0 -->
      <g transform="translate(34.176875 293.168284) scale(0.1 -0.1)">
       <use xlink:href="#DejaVuSans-30"/>
       <use xlink:href="#DejaVuSans-2e" x="63.623047"/>
       <use xlink:href="#DejaVuSans-30" x="95.410156"/>
      </g>
     </g>
    </g>
    <g id="ytick_2">
     <g id="line2d_10">
      <g>
       <use xlink:href="#m67061b611b" x="57.08" y="254.012543" style="stroke: #000000; stroke-width: 0.8"/>
      </g>
     </g>
     <g id="text_11">
      <!-- 2.5 -->
      <g transform="translate(34.176875 257.811762) scale(0.1 -0.1)">
       <use xlink:href="#DejaVuSans-32"/>
       <use xlink:href="#DejaVuSans-2e" x="63.623047"/>
       <use xlink:href="#DejaVuSans-35" x="95.410156"/>
      </g>
     </g>
    </g>
    <g id="ytick_3">
     <g id="line2d_11">
      <g>
       <use xlink:href="#m67061b611b" x="57.08" y="218.65602" style="stroke: #000000; stroke-width: 0.8"/>
      </g>
     </g>
     <g id="text_12">
      <!-- 5.0 -->
      <g transform="translate(34.176875 222.455239) scale(0.1 -0.1)">
       <use xlink:href="#DejaVuSans-35"/>
       <use xlink:href="#DejaVuSans-2e" x="63.623047"/>
       <use xlink:href="#DejaVuSans-30" x="95.410156"/>
      </g>
     </g>
    </g>
    <g id="ytick_4">
     <g id="line2d_12">
      <g>
       <use xlink:href="#m67061b611b" x="57.08" y="183.299498" style="stroke: #000000; stroke-width: 0.8"/>
      </g>
     </g>
     <g id="text_13">
      <!-- 7.5 -->
      <g transform="translate(34.176875 187.098717) scale(0.1 -0.1)">
       <use xlink:href="#DejaVuSans-37"/>
       <use xlink:href="#DejaVuSans-2e" x="63.623047"/>
       <use xlink:href="#DejaVuSans-35" x="95.410156"/>
      </g>
     </g>
    </g>
    <g id="ytick_5">
     <g id="line2d_13">
      <g>
       <use xlink:href="#m67061b611b" x="57.08" y="147.942976" style="stroke: #000000; stroke-width: 0.8"/>
      </g>
     </g>
     <g id="text_14">
      <!-- 10.0 -->
      <g transform="translate(27.814375 151.742194) scale(0.1 -0.1)">
       <use xlink:href="#DejaVuSans-31"/>
       <use xlink:href="#DejaVuSans-30" x="63.623047"/>
       <use xlink:href="#DejaVuSans-2e" x="127.246094"/>
       <use xlink:href="#DejaVuSans-30" x="159.033203"/>
      </g>
     </g>
    </g>
    <g id="ytick_6">
     <g id="line2d_14">
      <g>
       <use xlink:href="#m67061b611b" x="57.08" y="112.586453" style="stroke: #000000; stroke-width: 0.8"/>
      </g>
     </g>
     <g id="text_15">
      <!-- 12.5 -->
      <g transform="translate(27.814375 116.385672) scale(0.1 -0.1)">
       <use xlink:href="#DejaVuSans-31"/>
       <use xlink:href="#DejaVuSans-32" x="63.623047"/>
       <use xlink:href="#DejaVuSans-2e" x="127.246094"/>
       <use xlink:href="#DejaVuSans-35" x="159.033203"/>
      </g>
     </g>
    </g>
    <g id="ytick_7">
     <g id="line2d_15">
      <g>
       <use xlink:href="#m67061b611b" x="57.08" y="77.229931" style="stroke: #000000; stroke-width: 0.8"/>
      </g>
     </g>
     <g id="text_16">
      <!-- 15.0 -->
      <g transform="translate(27.814375 81.02915) scale(0.1 -0.1)">
       <use xlink:href="#DejaVuSans-31"/>
       <use xlink:href="#DejaVuSans-35" x="63.623047"/>
       <use xlink:href="#DejaVuSans-2e" x="127.246094"/>
       <use xlink:href="#DejaVuSans-30" x="159.033203"/>
      </g>
     </g>
    </g>
    <g id="ytick_8">
     <g id="line2d_16">
      <g>
       <use xlink:href="#m67061b611b" x="57.08" y="41.873408" style="stroke: #000000; stroke-width: 0.8"/>
      </g>
     </g>
     <g id="text_17">
      <!-- 17.5 -->
      <g transform="translate(27.814375 45.672627) scale(0.1 -0.1)">
       <use xlink:href="#DejaVuSans-31"/>
       <use xlink:href="#DejaVuSans-37" x="63.623047"/>
       <use xlink:href="#DejaVuSans-2e" x="127.246094"/>
       <use xlink:href="#DejaVuSans-35" x="159.033203"/>
      </g>
     </g>
    </g>
    <g id="text_18">
     <!-- $y$-postions in a. u. -->
     <g transform="translate(21.714375 207.65) rotate(-90) scale(0.1 -0.1)">
      <defs>
       <path id="DejaVuSans-Oblique-79" d="M 1588 -325 
Q 1188 -997 936 -1164 
Q 684 -1331 294 -1331 
L -159 -1331 
L -63 -850 
L 269 -850 
Q 509 -850 678 -719 
Q 847 -588 1056 -206 
L 1234 128 
L 459 3500 
L 1069 3500 
L 1650 819 
L 3256 3500 
L 3859 3500 
L 1588 -325 
z
" transform="scale(0.015625)"/>
      </defs>
      <use xlink:href="#DejaVuSans-Oblique-79" transform="translate(0 0.015625)"/>
      <use xlink:href="#DejaVuSans-2d" transform="translate(59.179688 0.015625)"/>
      <use xlink:href="#DejaVuSans-70" transform="translate(95.263672 0.015625)"/>
      <use xlink:href="#DejaVuSans-6f" transform="translate(158.740234 0.015625)"/>
      <use xlink:href="#DejaVuSans-73" transform="translate(219.921875 0.015625)"/>
      <use xlink:href="#DejaVuSans-74" transform="translate(272.021484 0.015625)"/>
      <use xlink:href="#DejaVuSans-69" transform="translate(311.230469 0.015625)"/>
      <use xlink:href="#DejaVuSans-6f" transform="translate(339.013672 0.015625)"/>
      <use xlink:href="#DejaVuSans-6e" transform="translate(400.195312 0.015625)"/>
      <use xlink:href="#DejaVuSans-73" transform="translate(463.574219 0.015625)"/>
      <use xlink:href="#DejaVuSans-20" transform="translate(515.673828 0.015625)"/>
      <use xlink:href="#DejaVuSans-69" transform="translate(547.460938 0.015625)"/>
      <use xlink:href="#DejaVuSans-6e" transform="translate(575.244141 0.015625)"/>
      <use xlink:href="#DejaVuSans-20" transform="translate(638.623047 0.015625)"/>
      <use xlink:href="#DejaVuSans-61" transform="translate(670.410156 0.015625)"/>
      <use xlink:href="#DejaVuSans-2e" transform="translate(731.689453 0.015625)"/>
      <use xlink:href="#DejaVuSans-20" transform="translate(763.476562 0.015625)"/>
      <use xlink:href="#DejaVuSans-75" transform="translate(795.263672 0.015625)"/>
      <use xlink:href="#DejaVuSans-2e" transform="translate(858.642578 0.015625)"/>
     </g>
    </g>
   </g>
   <g id="patch_3">
    <path d="M 57.08 300.76 
L 57.08 25.44 
" style="fill: none; stroke: #000000; stroke-width: 0.8; stroke-linejoin: miter; stroke-linecap: square"/>
   </g>
   <g id="patch_4">
    <path d="M 450 300.76 
L 450 25.44 
" style="fill: none; stroke: #000000; stroke-width: 0.8; stroke-linejoin: miter; stroke-linecap: square"/>
   </g>
   <g id="patch_5">
    <path d="M 57.08 300.76 
L 450 300.76 
" style="fill: none; stroke: #000000; stroke-width: 0.8; stroke-linejoin: miter; stroke-linecap: square"/>
   </g>
   <g id="patch_6">
    <path d="M 57.08 25.44 
L 450 25.44 
" style="fill: none; stroke: #000000; stroke-width: 0.8; stroke-linejoin: miter; stroke-linecap: square"/>
   </g>
   <g id="text_19">
    <!-- Initial Particle Positions -->
    <g transform="translate(184.473437 19.44) scale(0.12 -0.12)">
     <defs>
      <path id="DejaVuSans-49" d="M 628 4666 
L 1259 4666 
L 1259 0 
L 628 0 
L 628 4666 
z
" transform="scale(0.015625)"/>
      <path id="DejaVuSans-6c" d="M 603 4863 
L 1178 4863 
L 1178 0 
L 603 0 
L 603 4863 
z
" transform="scale(0.015625)"/>
      <path id="DejaVuSans-50" d="M 1259 4147 
L 1259 2394 
L 2053 2394 
Q 2494 2394 2734 2622 
Q 2975 2850 2975 3272 
Q 2975 3691 2734 3919 
Q 2494 4147 2053 4147 
L 1259 4147 
z
M 628 4666 
L 2053 4666 
Q 2838 4666 3239 4311 
Q 3641 3956 3641 3272 
Q 3641 2581 3239 2228 
Q 2838 1875 2053 1875 
L 1259 1875 
L 1259 0 
L 628 0 
L 628 4666 
z
" transform="scale(0.015625)"/>
      <path id="DejaVuSans-72" d="M 2631 2963 
Q 2534 3019 2420 3045 
Q 2306 3072 2169 3072 
Q 1681 3072 1420 2755 
Q 1159 2438 1159 1844 
L 1159 0 
L 581 0 
L 581 3500 
L 1159 3500 
L 1159 2956 
Q 1341 3275 1631 3429 
Q 1922 3584 2338 3584 
Q 2397 3584 2469 3576 
Q 2541 3569 2628 3553 
L 2631 2963 
z
" transform="scale(0.015625)"/>
      <path id="DejaVuSans-63" d="M 3122 3366 
L 3122 2828 
Q 2878 2963 2633 3030 
Q 2388 3097 2138 3097 
Q 1578 3097 1268 2742 
Q 959 2388 959 1747 
Q 959 1106 1268 751 
Q 1578 397 2138 397 
Q 2388 397 2633 464 
Q 2878 531 3122 666 
L 3122 134 
Q 2881 22 2623 -34 
Q 2366 -91 2075 -91 
Q 1284 -91 818 406 
Q 353 903 353 1747 
Q 353 2603 823 3093 
Q 1294 3584 2113 3584 
Q 2378 3584 2631 3529 
Q 2884 3475 3122 3366 
z
" transform="scale(0.015625)"/>
      <path id="DejaVuSans-65" d="M 3597 1894 
L 3597 1613 
L 953 1613 
Q 991 1019 1311 708 
Q 1631 397 2203 397 
Q 2534 397 2845 478 
Q 3156 559 3463 722 
L 3463 178 
Q 3153 47 2828 -22 
Q 2503 -91 2169 -91 
Q 1331 -91 842 396 
Q 353 884 353 1716 
Q 353 2575 817 3079 
Q 1281 3584 2069 3584 
Q 2775 3584 3186 3129 
Q 3597 2675 3597 1894 
z
M 3022 2063 
Q 3016 2534 2758 2815 
Q 2500 3097 2075 3097 
Q 1594 3097 1305 2825 
Q 1016 2553 972 2059 
L 3022 2063 
z
" transform="scale(0.015625)"/>
     </defs>
     <use xlink:href="#DejaVuSans-49"/>
     <use xlink:href="#DejaVuSans-6e" x="29.492188"/>
     <use xlink:href="#DejaVuSans-69" x="92.871094"/>
     <use xlink:href="#DejaVuSans-74" x="120.654297"/>
     <use xlink:href="#DejaVuSans-69" x="159.863281"/>
     <use xlink:href="#DejaVuSans-61" x="187.646484"/>
     <use xlink:href="#DejaVuSans-6c" x="248.925781"/>
     <use xlink:href="#DejaVuSans-20" x="276.708984"/>
     <use xlink:href="#DejaVuSans-50" x="308.496094"/>
     <use xlink:href="#DejaVuSans-61" x="364.298828"/>
     <use xlink:href="#DejaVuSans-72" x="425.578125"/>
     <use xlink:href="#DejaVuSans-74" x="466.691406"/>
     <use xlink:href="#DejaVuSans-69" x="505.900391"/>
     <use xlink:href="#DejaVuSans-63" x="533.683594"/>
     <use xlink:href="#DejaVuSans-6c" x="588.664062"/>
     <use xlink:href="#DejaVuSans-65" x="616.447266"/>
     <use xlink:href="#DejaVuSans-20" x="677.970703"/>
     <use xlink:href="#DejaVuSans-50" x="709.757812"/>
     <use xlink:href="#DejaVuSans-6f" x="766.435547"/>
     <use xlink:href="#DejaVuSans-73" x="827.617188"/>
     <use xlink:href="#DejaVuSans-69" x="879.716797"/>
     <use xlink:href="#DejaVuSans-74" x="907.5"/>
     <use xlink:href="#DejaVuSans-69" x="946.708984"/>
     <use xlink:href="#DejaVuSans-6f" x="974.492188"/>
     <use xlink:href="#DejaVuSans-6e" x="1035.673828"/>
     <use xlink:href="#DejaVuSans-73" x="1099.052734"/>
    </g>
   </g>
  </g>
 </g>
 <defs>
  <clipPath id="p103d514caf">
   <rect x="57.08" y="25.44" width="392.92" height="275.32"/>
  </clipPath>
 </defs>
</svg>
