<?xml version="1.0" encoding="utf-8" standalone="no"?>
<!DOCTYPE svg PUBLIC "-//W3C//DTD SVG 1.1//EN"
  "http://www.w3.org/Graphics/SVG/1.1/DTD/svg11.dtd">
<svg xmlns:xlink="http://www.w3.org/1999/xlink" width="460.8pt" height="345.6pt" viewBox="0 0 460.8 345.6" xmlns="http://www.w3.org/2000/svg" version="1.1">
 <metadata>
  <rdf:RDF xmlns:dc="http://purl.org/dc/elements/1.1/" xmlns:cc="http://creativecommons.org/ns#" xmlns:rdf="http://www.w3.org/1999/02/22-rdf-syntax-ns#">
   <cc:Work>
    <dc:type rdf:resource="http://purl.org/dc/dcmitype/StillImage"/>
    <dc:date>2024-12-09T05:45:59.450224</dc:date>
    <dc:format>image/svg+xml</dc:format>
    <dc:creator>
     <cc:Agent>
      <dc:title>Matplotlib v3.8.0, https://matplotlib.org/</dc:title>
     </cc:Agent>
    </dc:creator>
   </cc:Work>
  </rdf:RDF>
 </metadata>
 <defs>
  <style type="text/css">*{stroke-linejoin: round; stroke-linecap: butt}</style>
 </defs>
 <g id="figure_1">
  <g id="patch_1">
   <path d="M 0 345.6 
L 460.8 345.6 
L 460.8 0 
L 0 0 
z
" style="fill: #ffffff"/>
  </g>
  <g id="axes_1">
   <g id="patch_2">
    <path d="M 57.08 300.76 
L 450 300.76 
L 450 25.44 
L 57.08 25.44 
z
" style="fill: #ffffff"/>
   </g>
   <g id="PathCollection_1">
    <defs>
     <path id="m6c0514dd61" d="M 0 3 
C 0.795609 3 1.55874 2.683901 2.12132 2.12132 
C 2.683901 1.55874 3 0.795609 3 0 
C 3 -0.795609 2.683901 -1.55874 2.12132 -2.12132 
C 1.55874 -2.683901 0.795609 -3 0 -3 
C -0.795609 -3 -1.55874 -2.683901 -2.12132 -2.12132 
C -2.683901 -1.55874 -3 -0.795609 -3 0 
C -3 0.795609 -2.683901 1.55874 -2.12132 2.12132 
C -1.55874 2.683901 -0.795609 3 0 3 
z
" style="stroke: #1f77b4"/>
    </defs>
    <g clip-path="url(#p64e981b4bb)">
     <use xlink:href="#m6c0514dd61" x="114.29265" y="253.341706" style="fill: #1f77b4; stroke: #1f77b4"/>
     <use xlink:href="#m6c0514dd61" x="352.490812" y="282.010742" style="fill: #1f77b4; stroke: #1f77b4"/>
     <use xlink:href="#m6c0514dd61" x="217.322613" y="201.746702" style="fill: #1f77b4; stroke: #1f77b4"/>
     <use xlink:href="#m6c0514dd61" x="135.71864" y="105.992492" style="fill: #1f77b4; stroke: #1f77b4"/>
     <use xlink:href="#m6c0514dd61" x="147.006238" y="67.093912" style="fill: #1f77b4; stroke: #1f77b4"/>
     <use xlink:href="#m6c0514dd61" x="310.736632" y="133.388411" style="fill: #1f77b4; stroke: #1f77b4"/>
     <use xlink:href="#m6c0514dd61" x="373.419372" y="201.91664" style="fill: #1f77b4; stroke: #1f77b4"/>
     <use xlink:href="#m6c0514dd61" x="172.249972" y="206.78433" style="fill: #1f77b4; stroke: #1f77b4"/>
     <use xlink:href="#m6c0514dd61" x="208.035111" y="122.815276" style="fill: #1f77b4; stroke: #1f77b4"/>
     <use xlink:href="#m6c0514dd61" x="101.460898" y="217.466288" style="fill: #1f77b4; stroke: #1f77b4"/>
     <use xlink:href="#m6c0514dd61" x="322.217025" y="103.307491" style="fill: #1f77b4; stroke: #1f77b4"/>
     <use xlink:href="#m6c0514dd61" x="174.14149" y="110.248945" style="fill: #1f77b4; stroke: #1f77b4"/>
     <use xlink:href="#m6c0514dd61" x="240.466846" y="248.653341" style="fill: #1f77b4; stroke: #1f77b4"/>
     <use xlink:href="#m6c0514dd61" x="145.549347" y="246.905688" style="fill: #1f77b4; stroke: #1f77b4"/>
     <use xlink:href="#m6c0514dd61" x="345.066014" y="92.396933" style="fill: #1f77b4; stroke: #1f77b4"/>
     <use xlink:href="#m6c0514dd61" x="311.705238" y="159.924578" style="fill: #1f77b4; stroke: #1f77b4"/>
     <use xlink:href="#m6c0514dd61" x="173.195161" y="137.760869" style="fill: #1f77b4; stroke: #1f77b4"/>
     <use xlink:href="#m6c0514dd61" x="353.639563" y="141.411467" style="fill: #1f77b4; stroke: #1f77b4"/>
     <use xlink:href="#m6c0514dd61" x="251.199004" y="263.418372" style="fill: #1f77b4; stroke: #1f77b4"/>
     <use xlink:href="#m6c0514dd61" x="140.677447" y="133.766319" style="fill: #1f77b4; stroke: #1f77b4"/>
     <use xlink:href="#m6c0514dd61" x="200.846746" y="288.245455" style="fill: #1f77b4; stroke: #1f77b4"/>
     <use xlink:href="#m6c0514dd61" x="398.057506" y="46.863572" style="fill: #1f77b4; stroke: #1f77b4"/>
     <use xlink:href="#m6c0514dd61" x="428.96526" y="207.238745" style="fill: #1f77b4; stroke: #1f77b4"/>
     <use xlink:href="#m6c0514dd61" x="234.973527" y="236.910879" style="fill: #1f77b4; stroke: #1f77b4"/>
     <use xlink:href="#m6c0514dd61" x="358.822731" y="132.132845" style="fill: #1f77b4; stroke: #1f77b4"/>
     <use xlink:href="#m6c0514dd61" x="217.329747" y="74.343421" style="fill: #1f77b4; stroke: #1f77b4"/>
     <use xlink:href="#m6c0514dd61" x="217.100676" y="146.437281" style="fill: #1f77b4; stroke: #1f77b4"/>
     <use xlink:href="#m6c0514dd61" x="166.854011" y="144.226122" style="fill: #1f77b4; stroke: #1f77b4"/>
     <use xlink:href="#m6c0514dd61" x="170.715758" y="202.776131" style="fill: #1f77b4; stroke: #1f77b4"/>
     <use xlink:href="#m6c0514dd61" x="140.790727" y="103.781993" style="fill: #1f77b4; stroke: #1f77b4"/>
     <use xlink:href="#m6c0514dd61" x="315.561226" y="231.093963" style="fill: #1f77b4; stroke: #1f77b4"/>
     <use xlink:href="#m6c0514dd61" x="348.198696" y="280.500593" style="fill: #1f77b4; stroke: #1f77b4"/>
     <use xlink:href="#m6c0514dd61" x="386.217169" y="81.126441" style="fill: #1f77b4; stroke: #1f77b4"/>
     <use xlink:href="#m6c0514dd61" x="419.038926" y="62.493301" style="fill: #1f77b4; stroke: #1f77b4"/>
     <use xlink:href="#m6c0514dd61" x="94.325362" y="62.887098" style="fill: #1f77b4; stroke: #1f77b4"/>
     <use xlink:href="#m6c0514dd61" x="359.877017" y="128.087143" style="fill: #1f77b4; stroke: #1f77b4"/>
     <use xlink:href="#m6c0514dd61" x="269.505219" y="201.697108" style="fill: #1f77b4; stroke: #1f77b4"/>
     <use xlink:href="#m6c0514dd61" x="232.10324" y="242.865412" style="fill: #1f77b4; stroke: #1f77b4"/>
     <use xlink:href="#m6c0514dd61" x="241.792234" y="179.312458" style="fill: #1f77b4; stroke: #1f77b4"/>
     <use xlink:href="#m6c0514dd61" x="425.054065" y="193.209311" style="fill: #1f77b4; stroke: #1f77b4"/>
     <use xlink:href="#m6c0514dd61" x="118.694444" y="245.590454" style="fill: #1f77b4; stroke: #1f77b4"/>
     <use xlink:href="#m6c0514dd61" x="372.453752" y="114.535682" style="fill: #1f77b4; stroke: #1f77b4"/>
     <use xlink:href="#m6c0514dd61" x="170.673621" y="153.613475" style="fill: #1f77b4; stroke: #1f77b4"/>
     <use xlink:href="#m6c0514dd61" x="311.822137" y="111.613276" style="fill: #1f77b4; stroke: #1f77b4"/>
     <use xlink:href="#m6c0514dd61" x="415.017928" y="278.679363" style="fill: #1f77b4; stroke: #1f77b4"/>
     <use xlink:href="#m6c0514dd61" x="240.493859" y="148.094402" style="fill: #1f77b4; stroke: #1f77b4"/>
     <use xlink:href="#m6c0514dd61" x="214.965096" y="115.167073" style="fill: #1f77b4; stroke: #1f77b4"/>
     <use xlink:href="#m6c0514dd61" x="119.672889" y="141.641944" style="fill: #1f77b4; stroke: #1f77b4"/>
     <use xlink:href="#m6c0514dd61" x="316.426185" y="228.704347" style="fill: #1f77b4; stroke: #1f77b4"/>
     <use xlink:href="#m6c0514dd61" x="135.550632" y="90.350911" style="fill: #1f77b4; stroke: #1f77b4"/>
     <use xlink:href="#m6c0514dd61" x="379.68114" y="183.245908" style="fill: #1f77b4; stroke: #1f77b4"/>
     <use xlink:href="#m6c0514dd61" x="243.092418" y="82.804416" style="fill: #1f77b4; stroke: #1f77b4"/>
     <use xlink:href="#m6c0514dd61" x="104.772845" y="251.916566" style="fill: #1f77b4; stroke: #1f77b4"/>
     <use xlink:href="#m6c0514dd61" x="176.397691" y="182.384179" style="fill: #1f77b4; stroke: #1f77b4"/>
     <use xlink:href="#m6c0514dd61" x="399.316386" y="169.110305" style="fill: #1f77b4; stroke: #1f77b4"/>
     <use xlink:href="#m6c0514dd61" x="382.636006" y="83.936842" style="fill: #1f77b4; stroke: #1f77b4"/>
     <use xlink:href="#m6c0514dd61" x="74.94" y="51.381193" style="fill: #1f77b4; stroke: #1f77b4"/>
     <use xlink:href="#m6c0514dd61" x="137.378933" y="162.747405" style="fill: #1f77b4; stroke: #1f77b4"/>
     <use xlink:href="#m6c0514dd61" x="294.42564" y="279.653594" style="fill: #1f77b4; stroke: #1f77b4"/>
     <use xlink:href="#m6c0514dd61" x="396.237992" y="249.100751" style="fill: #1f77b4; stroke: #1f77b4"/>
     <use xlink:href="#m6c0514dd61" x="179.896694" y="93.154833" style="fill: #1f77b4; stroke: #1f77b4"/>
     <use xlink:href="#m6c0514dd61" x="188.669795" y="216.720679" style="fill: #1f77b4; stroke: #1f77b4"/>
     <use xlink:href="#m6c0514dd61" x="321.00877" y="181.988362" style="fill: #1f77b4; stroke: #1f77b4"/>
     <use xlink:href="#m6c0514dd61" x="265.457985" y="163.952666" style="fill: #1f77b4; stroke: #1f77b4"/>
     <use xlink:href="#m6c0514dd61" x="362.511798" y="249.762795" style="fill: #1f77b4; stroke: #1f77b4"/>
     <use xlink:href="#m6c0514dd61" x="323.923246" y="110.161144" style="fill: #1f77b4; stroke: #1f77b4"/>
     <use xlink:href="#m6c0514dd61" x="432.14" y="188.430481" style="fill: #1f77b4; stroke: #1f77b4"/>
     <use xlink:href="#m6c0514dd61" x="249.129279" y="278.345314" style="fill: #1f77b4; stroke: #1f77b4"/>
     <use xlink:href="#m6c0514dd61" x="228.565753" y="49.398565" style="fill: #1f77b4; stroke: #1f77b4"/>
     <use xlink:href="#m6c0514dd61" x="391.923082" y="189.573897" style="fill: #1f77b4; stroke: #1f77b4"/>
     <use xlink:href="#m6c0514dd61" x="282.327005" y="257.457048" style="fill: #1f77b4; stroke: #1f77b4"/>
     <use xlink:href="#m6c0514dd61" x="121.655194" y="68.310407" style="fill: #1f77b4; stroke: #1f77b4"/>
     <use xlink:href="#m6c0514dd61" x="302.28517" y="142.423006" style="fill: #1f77b4; stroke: #1f77b4"/>
     <use xlink:href="#m6c0514dd61" x="396.884855" y="153.647082" style="fill: #1f77b4; stroke: #1f77b4"/>
     <use xlink:href="#m6c0514dd61" x="148.094683" y="209.695932" style="fill: #1f77b4; stroke: #1f77b4"/>
     <use xlink:href="#m6c0514dd61" x="393.052499" y="255.357766" style="fill: #1f77b4; stroke: #1f77b4"/>
     <use xlink:href="#m6c0514dd61" x="269.627171" y="168.039571" style="fill: #1f77b4; stroke: #1f77b4"/>
     <use xlink:href="#m6c0514dd61" x="161.801834" y="282.894712" style="fill: #1f77b4; stroke: #1f77b4"/>
     <use xlink:href="#m6c0514dd61" x="93.754263" y="75.182255" style="fill: #1f77b4; stroke: #1f77b4"/>
     <use xlink:href="#m6c0514dd61" x="256.142865" y="194.66763" style="fill: #1f77b4; stroke: #1f77b4"/>
     <use xlink:href="#m6c0514dd61" x="316.474395" y="158.349346" style="fill: #1f77b4; stroke: #1f77b4"/>
     <use xlink:href="#m6c0514dd61" x="213.746157" y="93.341933" style="fill: #1f77b4; stroke: #1f77b4"/>
     <use xlink:href="#m6c0514dd61" x="158.324509" y="127.210812" style="fill: #1f77b4; stroke: #1f77b4"/>
     <use xlink:href="#m6c0514dd61" x="116.674539" y="179.52291" style="fill: #1f77b4; stroke: #1f77b4"/>
     <use xlink:href="#m6c0514dd61" x="421.389956" y="187.291896" style="fill: #1f77b4; stroke: #1f77b4"/>
     <use xlink:href="#m6c0514dd61" x="105.171913" y="186.462985" style="fill: #1f77b4; stroke: #1f77b4"/>
     <use xlink:href="#m6c0514dd61" x="294.675539" y="167.670333" style="fill: #1f77b4; stroke: #1f77b4"/>
     <use xlink:href="#m6c0514dd61" x="142.236804" y="56.836202" style="fill: #1f77b4; stroke: #1f77b4"/>
     <use xlink:href="#m6c0514dd61" x="188.402864" y="239.127612" style="fill: #1f77b4; stroke: #1f77b4"/>
     <use xlink:href="#m6c0514dd61" x="182.691305" y="37.954545" style="fill: #1f77b4; stroke: #1f77b4"/>
     <use xlink:href="#m6c0514dd61" x="242.929859" y="44.043338" style="fill: #1f77b4; stroke: #1f77b4"/>
     <use xlink:href="#m6c0514dd61" x="340.434462" y="229.343355" style="fill: #1f77b4; stroke: #1f77b4"/>
     <use xlink:href="#m6c0514dd61" x="167.203964" y="233.985625" style="fill: #1f77b4; stroke: #1f77b4"/>
     <use xlink:href="#m6c0514dd61" x="80.342067" y="234.515117" style="fill: #1f77b4; stroke: #1f77b4"/>
     <use xlink:href="#m6c0514dd61" x="359.58861" y="128.606091" style="fill: #1f77b4; stroke: #1f77b4"/>
     <use xlink:href="#m6c0514dd61" x="279.624968" y="212.187207" style="fill: #1f77b4; stroke: #1f77b4"/>
     <use xlink:href="#m6c0514dd61" x="144.626744" y="190.854079" style="fill: #1f77b4; stroke: #1f77b4"/>
     <use xlink:href="#m6c0514dd61" x="286.111823" y="94.386044" style="fill: #1f77b4; stroke: #1f77b4"/>
     <use xlink:href="#m6c0514dd61" x="143.244669" y="45.201275" style="fill: #1f77b4; stroke: #1f77b4"/>
     <use xlink:href="#m6c0514dd61" x="250.038623" y="272.344809" style="fill: #1f77b4; stroke: #1f77b4"/>
    </g>
   </g>
   <g id="matplotlib.axis_1">
    <g id="xtick_1">
     <g id="line2d_1">
      <defs>
       <path id="m268cef6c9d" d="M 0 0 
L 0 3.5 
" style="stroke: #000000; stroke-width: 0.8"/>
      </defs>
      <g>
       <use xlink:href="#m268cef6c9d" x="71.707401" y="300.76" style="stroke: #000000; stroke-width: 0.8"/>
      </g>
     </g>
     <g id="text_1">
      <!-- 0.0 -->
      <g transform="translate(63.755839 315.358437) scale(0.1 -0.1)">
       <defs>
        <path id="DejaVuSans-30" d="M 2034 4250 
Q 1547 4250 1301 3770 
Q 1056 3291 1056 2328 
Q 1056 1369 1301 889 
Q 1547 409 2034 409 
Q 2525 409 2770 889 
Q 3016 1369 3016 2328 
Q 3016 3291 2770 3770 
Q 2525 4250 2034 4250 
z
M 2034 4750 
Q 2819 4750 3233 4129 
Q 3647 3509 3647 2328 
Q 3647 1150 3233 529 
Q 2819 -91 2034 -91 
Q 1250 -91 836 529 
Q 422 1150 422 2328 
Q 422 3509 836 4129 
Q 1250 4750 2034 4750 
z
" transform="scale(0.015625)"/>
        <path id="DejaVuSans-2e" d="M 684 794 
L 1344 794 
L 1344 0 
L 684 0 
L 684 794 
z
" transform="scale(0.015625)"/>
       </defs>
       <use xlink:href="#DejaVuSans-30"/>
       <use xlink:href="#DejaVuSans-2e" x="63.623047"/>
       <use xlink:href="#DejaVuSans-30" x="95.410156"/>
      </g>
     </g>
    </g>
    <g id="xtick_2">
     <g id="line2d_2">
      <g>
       <use xlink:href="#m268cef6c9d" x="122.717888" y="300.76" style="stroke: #000000; stroke-width: 0.8"/>
      </g>
     </g>
     <g id="text_2">
      <!-- 2.5 -->
      <g transform="translate(114.766325 315.358437) scale(0.1 -0.1)">
       <defs>
        <path id="DejaVuSans-32" d="M 1228 531 
L 3431 531 
L 3431 0 
L 469 0 
L 469 531 
Q 828 903 1448 1529 
Q 2069 2156 2228 2338 
Q 2531 2678 2651 2914 
Q 2772 3150 2772 3378 
Q 2772 3750 2511 3984 
Q 2250 4219 1831 4219 
Q 1534 4219 1204 4116 
Q 875 4013 500 3803 
L 500 4441 
Q 881 4594 1212 4672 
Q 1544 4750 1819 4750 
Q 2544 4750 2975 4387 
Q 3406 4025 3406 3419 
Q 3406 3131 3298 2873 
Q 3191 2616 2906 2266 
Q 2828 2175 2409 1742 
Q 1991 1309 1228 531 
z
" transform="scale(0.015625)"/>
        <path id="DejaVuSans-35" d="M 691 4666 
L 3169 4666 
L 3169 4134 
L 1269 4134 
L 1269 2991 
Q 1406 3038 1543 3061 
Q 1681 3084 1819 3084 
Q 2600 3084 3056 2656 
Q 3513 2228 3513 1497 
Q 3513 744 3044 326 
Q 2575 -91 1722 -91 
Q 1428 -91 1123 -41 
Q 819 9 494 109 
L 494 744 
Q 775 591 1075 516 
Q 1375 441 1709 441 
Q 2250 441 2565 725 
Q 2881 1009 2881 1497 
Q 2881 1984 2565 2268 
Q 2250 2553 1709 2553 
Q 1456 2553 1204 2497 
Q 953 2441 691 2322 
L 691 4666 
z
" transform="scale(0.015625)"/>
       </defs>
       <use xlink:href="#DejaVuSans-32"/>
       <use xlink:href="#DejaVuSans-2e" x="63.623047"/>
       <use xlink:href="#DejaVuSans-35" x="95.410156"/>
      </g>
     </g>
    </g>
    <g id="xtick_3">
     <g id="line2d_3">
      <g>
       <use xlink:href="#m268cef6c9d" x="173.728374" y="300.76" style="stroke: #000000; stroke-width: 0.8"/>
      </g>
     </g>
     <g id="text_3">
      <!-- 5.0 -->
      <g transform="translate(165.776811 315.358437) scale(0.1 -0.1)">
       <use xlink:href="#DejaVuSans-35"/>
       <use xlink:href="#DejaVuSans-2e" x="63.623047"/>
       <use xlink:href="#DejaVuSans-30" x="95.410156"/>
      </g>
     </g>
    </g>
    <g id="xtick_4">
     <g id="line2d_4">
      <g>
       <use xlink:href="#m268cef6c9d" x="224.73886" y="300.76" style="stroke: #000000; stroke-width: 0.8"/>
      </g>
     </g>
     <g id="text_4">
      <!-- 7.5 -->
      <g transform="translate(216.787297 315.358437) scale(0.1 -0.1)">
       <defs>
        <path id="DejaVuSans-37" d="M 525 4666 
L 3525 4666 
L 3525 4397 
L 1831 0 
L 1172 0 
L 2766 4134 
L 525 4134 
L 525 4666 
z
" transform="scale(0.015625)"/>
       </defs>
       <use xlink:href="#DejaVuSans-37"/>
       <use xlink:href="#DejaVuSans-2e" x="63.623047"/>
       <use xlink:href="#DejaVuSans-35" x="95.410156"/>
      </g>
     </g>
    </g>
    <g id="xtick_5">
     <g id="line2d_5">
      <g>
       <use xlink:href="#m268cef6c9d" x="275.749346" y="300.76" style="stroke: #000000; stroke-width: 0.8"/>
      </g>
     </g>
     <g id="text_5">
      <!-- 10.0 -->
      <g transform="translate(264.616533 315.358437) scale(0.1 -0.1)">
       <defs>
        <path id="DejaVuSans-31" d="M 794 531 
L 1825 531 
L 1825 4091 
L 703 3866 
L 703 4441 
L 1819 4666 
L 2450 4666 
L 2450 531 
L 3481 531 
L 3481 0 
L 794 0 
L 794 531 
z
" transform="scale(0.015625)"/>
       </defs>
       <use xlink:href="#DejaVuSans-31"/>
       <use xlink:href="#DejaVuSans-30" x="63.623047"/>
       <use xlink:href="#DejaVuSans-2e" x="127.246094"/>
       <use xlink:href="#DejaVuSans-30" x="159.033203"/>
      </g>
     </g>
    </g>
    <g id="xtick_6">
     <g id="line2d_6">
      <g>
       <use xlink:href="#m268cef6c9d" x="326.759832" y="300.76" style="stroke: #000000; stroke-width: 0.8"/>
      </g>
     </g>
     <g id="text_6">
      <!-- 12.5 -->
      <g transform="translate(315.627019 315.358437) scale(0.1 -0.1)">
       <use xlink:href="#DejaVuSans-31"/>
       <use xlink:href="#DejaVuSans-32" x="63.623047"/>
       <use xlink:href="#DejaVuSans-2e" x="127.246094"/>
       <use xlink:href="#DejaVuSans-35" x="159.033203"/>
      </g>
     </g>
    </g>
    <g id="xtick_7">
     <g id="line2d_7">
      <g>
       <use xlink:href="#m268cef6c9d" x="377.770318" y="300.76" style="stroke: #000000; stroke-width: 0.8"/>
      </g>
     </g>
     <g id="text_7">
      <!-- 15.0 -->
      <g transform="translate(366.637505 315.358437) scale(0.1 -0.1)">
       <use xlink:href="#DejaVuSans-31"/>
       <use xlink:href="#DejaVuSans-35" x="63.623047"/>
       <use xlink:href="#DejaVuSans-2e" x="127.246094"/>
       <use xlink:href="#DejaVuSans-30" x="159.033203"/>
      </g>
     </g>
    </g>
    <g id="xtick_8">
     <g id="line2d_8">
      <g>
       <use xlink:href="#m268cef6c9d" x="428.780804" y="300.76" style="stroke: #000000; stroke-width: 0.8"/>
      </g>
     </g>
     <g id="text_8">
      <!-- 17.5 -->
      <g transform="translate(417.647992 315.358437) scale(0.1 -0.1)">
       <use xlink:href="#DejaVuSans-31"/>
       <use xlink:href="#DejaVuSans-37" x="63.623047"/>
       <use xlink:href="#DejaVuSans-2e" x="127.246094"/>
       <use xlink:href="#DejaVuSans-35" x="159.033203"/>
      </g>
     </g>
    </g>
    <g id="text_9">
     <!-- $x$-postions in a. u. -->
     <g transform="translate(208.99 329.038125) scale(0.1 -0.1)">
      <defs>
       <path id="DejaVuSans-Oblique-78" d="M 3841 3500 
L 2234 1784 
L 3219 0 
L 2559 0 
L 1819 1388 
L 531 0 
L -166 0 
L 1556 1844 
L 641 3500 
L 1300 3500 
L 1972 2234 
L 3144 3500 
L 3841 3500 
z
" transform="scale(0.015625)"/>
       <path id="DejaVuSans-2d" d="M 313 2009 
L 1997 2009 
L 1997 1497 
L 313 1497 
L 313 2009 
z
" transform="scale(0.015625)"/>
       <path id="DejaVuSans-70" d="M 1159 525 
L 1159 -1331 
L 581 -1331 
L 581 3500 
L 1159 3500 
L 1159 2969 
Q 1341 3281 1617 3432 
Q 1894 3584 2278 3584 
Q 2916 3584 3314 3078 
Q 3713 2572 3713 1747 
Q 3713 922 3314 415 
Q 2916 -91 2278 -91 
Q 1894 -91 1617 61 
Q 1341 213 1159 525 
z
M 3116 1747 
Q 3116 2381 2855 2742 
Q 2594 3103 2138 3103 
Q 1681 3103 1420 2742 
Q 1159 2381 1159 1747 
Q 1159 1113 1420 752 
Q 1681 391 2138 391 
Q 2594 391 2855 752 
Q 3116 1113 3116 1747 
z
" transform="scale(0.015625)"/>
       <path id="DejaVuSans-6f" d="M 1959 3097 
Q 1497 3097 1228 2736 
Q 959 2375 959 1747 
Q 959 1119 1226 758 
Q 1494 397 1959 397 
Q 2419 397 2687 759 
Q 2956 1122 2956 1747 
Q 2956 2369 2687 2733 
Q 2419 3097 1959 3097 
z
M 1959 3584 
Q 2709 3584 3137 3096 
Q 3566 2609 3566 1747 
Q 3566 888 3137 398 
Q 2709 -91 1959 -91 
Q 1206 -91 779 398 
Q 353 888 353 1747 
Q 353 2609 779 3096 
Q 1206 3584 1959 3584 
z
" transform="scale(0.015625)"/>
       <path id="DejaVuSans-73" d="M 2834 3397 
L 2834 2853 
Q 2591 2978 2328 3040 
Q 2066 3103 1784 3103 
Q 1356 3103 1142 2972 
Q 928 2841 928 2578 
Q 928 2378 1081 2264 
Q 1234 2150 1697 2047 
L 1894 2003 
Q 2506 1872 2764 1633 
Q 3022 1394 3022 966 
Q 3022 478 2636 193 
Q 2250 -91 1575 -91 
Q 1294 -91 989 -36 
Q 684 19 347 128 
L 347 722 
Q 666 556 975 473 
Q 1284 391 1588 391 
Q 1994 391 2212 530 
Q 2431 669 2431 922 
Q 2431 1156 2273 1281 
Q 2116 1406 1581 1522 
L 1381 1569 
Q 847 1681 609 1914 
Q 372 2147 372 2553 
Q 372 3047 722 3315 
Q 1072 3584 1716 3584 
Q 2034 3584 2315 3537 
Q 2597 3491 2834 3397 
z
" transform="scale(0.015625)"/>
       <path id="DejaVuSans-74" d="M 1172 4494 
L 1172 3500 
L 2356 3500 
L 2356 3053 
L 1172 3053 
L 1172 1153 
Q 1172 725 1289 603 
Q 1406 481 1766 481 
L 2356 481 
L 2356 0 
L 1766 0 
Q 1100 0 847 248 
Q 594 497 594 1153 
L 594 3053 
L 172 3053 
L 172 3500 
L 594 3500 
L 594 4494 
L 1172 4494 
z
" transform="scale(0.015625)"/>
       <path id="DejaVuSans-69" d="M 603 3500 
L 1178 3500 
L 1178 0 
L 603 0 
L 603 3500 
z
M 603 4863 
L 1178 4863 
L 1178 4134 
L 603 4134 
L 603 4863 
z
" transform="scale(0.015625)"/>
       <path id="DejaVuSans-6e" d="M 3513 2113 
L 3513 0 
L 2938 0 
L 2938 2094 
Q 2938 2591 2744 2837 
Q 2550 3084 2163 3084 
Q 1697 3084 1428 2787 
Q 1159 2491 1159 1978 
L 1159 0 
L 581 0 
L 581 3500 
L 1159 3500 
L 1159 2956 
Q 1366 3272 1645 3428 
Q 1925 3584 2291 3584 
Q 2894 3584 3203 3211 
Q 3513 2838 3513 2113 
z
" transform="scale(0.015625)"/>
       <path id="DejaVuSans-20" transform="scale(0.015625)"/>
       <path id="DejaVuSans-61" d="M 2194 1759 
Q 1497 1759 1228 1600 
Q 959 1441 959 1056 
Q 959 750 1161 570 
Q 1363 391 1709 391 
Q 2188 391 2477 730 
Q 2766 1069 2766 1631 
L 2766 1759 
L 2194 1759 
z
M 3341 1997 
L 3341 0 
L 2766 0 
L 2766 531 
Q 2569 213 2275 61 
Q 1981 -91 1556 -91 
Q 1019 -91 701 211 
Q 384 513 384 1019 
Q 384 1609 779 1909 
Q 1175 2209 1959 2209 
L 2766 2209 
L 2766 2266 
Q 2766 2663 2505 2880 
Q 2244 3097 1772 3097 
Q 1472 3097 1187 3025 
Q 903 2953 641 2809 
L 641 3341 
Q 956 3463 1253 3523 
Q 1550 3584 1831 3584 
Q 2591 3584 2966 3190 
Q 3341 2797 3341 1997 
z
" transform="scale(0.015625)"/>
       <path id="DejaVuSans-75" d="M 544 1381 
L 544 3500 
L 1119 3500 
L 1119 1403 
Q 1119 906 1312 657 
Q 1506 409 1894 409 
Q 2359 409 2629 706 
Q 2900 1003 2900 1516 
L 2900 3500 
L 3475 3500 
L 3475 0 
L 2900 0 
L 2900 538 
Q 2691 219 2414 64 
Q 2138 -91 1772 -91 
Q 1169 -91 856 284 
Q 544 659 544 1381 
z
M 1991 3584 
L 1991 3584 
z
" transform="scale(0.015625)"/>
      </defs>
      <use xlink:href="#DejaVuSans-Oblique-78" transform="translate(0 0.015625)"/>
      <use xlink:href="#DejaVuSans-2d" transform="translate(59.179688 0.015625)"/>
      <use xlink:href="#DejaVuSans-70" transform="translate(95.263672 0.015625)"/>
      <use xlink:href="#DejaVuSans-6f" transform="translate(158.740234 0.015625)"/>
      <use xlink:href="#DejaVuSans-73" transform="translate(219.921875 0.015625)"/>
      <use xlink:href="#DejaVuSans-74" transform="translate(272.021484 0.015625)"/>
      <use xlink:href="#DejaVuSans-69" transform="translate(311.230469 0.015625)"/>
      <use xlink:href="#DejaVuSans-6f" transform="translate(339.013672 0.015625)"/>
      <use xlink:href="#DejaVuSans-6e" transform="translate(400.195312 0.015625)"/>
      <use xlink:href="#DejaVuSans-73" transform="translate(463.574219 0.015625)"/>
      <use xlink:href="#DejaVuSans-20" transform="translate(515.673828 0.015625)"/>
      <use xlink:href="#DejaVuSans-69" transform="translate(547.460938 0.015625)"/>
      <use xlink:href="#DejaVuSans-6e" transform="translate(575.244141 0.015625)"/>
      <use xlink:href="#DejaVuSans-20" transform="translate(638.623047 0.015625)"/>
      <use xlink:href="#DejaVuSans-61" transform="translate(670.410156 0.015625)"/>
      <use xlink:href="#DejaVuSans-2e" transform="translate(731.689453 0.015625)"/>
      <use xlink:href="#DejaVuSans-20" transform="translate(763.476562 0.015625)"/>
      <use xlink:href="#DejaVuSans-75" transform="translate(795.263672 0.015625)"/>
      <use xlink:href="#DejaVuSans-2e" transform="translate(858.642578 0.015625)"/>
     </g>
    </g>
   </g>
   <g id="matplotlib.axis_2">
    <g id="ytick_1">
     <g id="line2d_9">
      <defs>
       <path id="m5e7b8828e6" d="M 0 0 
L -3.5 0 
" style="stroke: #000000; stroke-width: 0.8"/>
      </defs>
      <g>
       <use xlink:href="#m5e7b8828e6" x="57.08" y="288.386829" style="stroke: #000000; stroke-width: 0.8"/>
      </g>
     </g>
     <g id="text_10">
      <!-- 0.0 -->
      <g transform="translate(34.176875 292.186047) scale(0.1 -0.1)">
       <use xlink:href="#DejaVuSans-30"/>
       <use xlink:href="#DejaVuSans-2e" x="63.623047"/>
       <use xlink:href="#DejaVuSans-30" x="95.410156"/>
      </g>
     </g>
    </g>
    <g id="ytick_2">
     <g id="line2d_10">
      <g>
       <use xlink:href="#m5e7b8828e6" x="57.08" y="252.027076" style="stroke: #000000; stroke-width: 0.8"/>
      </g>
     </g>
     <g id="text_11">
      <!-- 2.5 -->
      <g transform="translate(34.176875 255.826295) scale(0.1 -0.1)">
       <use xlink:href="#DejaVuSans-32"/>
       <use xlink:href="#DejaVuSans-2e" x="63.623047"/>
       <use xlink:href="#DejaVuSans-35" x="95.410156"/>
      </g>
     </g>
    </g>
    <g id="ytick_3">
     <g id="line2d_11">
      <g>
       <use xlink:href="#m5e7b8828e6" x="57.08" y="215.667324" style="stroke: #000000; stroke-width: 0.8"/>
      </g>
     </g>
     <g id="text_12">
      <!-- 5.0 -->
      <g transform="translate(34.176875 219.466542) scale(0.1 -0.1)">
       <use xlink:href="#DejaVuSans-35"/>
       <use xlink:href="#DejaVuSans-2e" x="63.623047"/>
       <use xlink:href="#DejaVuSans-30" x="95.410156"/>
      </g>
     </g>
    </g>
    <g id="ytick_4">
     <g id="line2d_12">
      <g>
       <use xlink:href="#m5e7b8828e6" x="57.08" y="179.307571" style="stroke: #000000; stroke-width: 0.8"/>
      </g>
     </g>
     <g id="text_13">
      <!-- 7.5 -->
      <g transform="translate(34.176875 183.10679) scale(0.1 -0.1)">
       <use xlink:href="#DejaVuSans-37"/>
       <use xlink:href="#DejaVuSans-2e" x="63.623047"/>
       <use xlink:href="#DejaVuSans-35" x="95.410156"/>
      </g>
     </g>
    </g>
    <g id="ytick_5">
     <g id="line2d_13">
      <g>
       <use xlink:href="#m5e7b8828e6" x="57.08" y="142.947819" style="stroke: #000000; stroke-width: 0.8"/>
      </g>
     </g>
     <g id="text_14">
      <!-- 10.0 -->
      <g transform="translate(27.814375 146.747037) scale(0.1 -0.1)">
       <use xlink:href="#DejaVuSans-31"/>
       <use xlink:href="#DejaVuSans-30" x="63.623047"/>
       <use xlink:href="#DejaVuSans-2e" x="127.246094"/>
       <use xlink:href="#DejaVuSans-30" x="159.033203"/>
      </g>
     </g>
    </g>
    <g id="ytick_6">
     <g id="line2d_14">
      <g>
       <use xlink:href="#m5e7b8828e6" x="57.08" y="106.588066" style="stroke: #000000; stroke-width: 0.8"/>
      </g>
     </g>
     <g id="text_15">
      <!-- 12.5 -->
      <g transform="translate(27.814375 110.387285) scale(0.1 -0.1)">
       <use xlink:href="#DejaVuSans-31"/>
       <use xlink:href="#DejaVuSans-32" x="63.623047"/>
       <use xlink:href="#DejaVuSans-2e" x="127.246094"/>
       <use xlink:href="#DejaVuSans-35" x="159.033203"/>
      </g>
     </g>
    </g>
    <g id="ytick_7">
     <g id="line2d_15">
      <g>
       <use xlink:href="#m5e7b8828e6" x="57.08" y="70.228314" style="stroke: #000000; stroke-width: 0.8"/>
      </g>
     </g>
     <g id="text_16">
      <!-- 15.0 -->
      <g transform="translate(27.814375 74.027533) scale(0.1 -0.1)">
       <use xlink:href="#DejaVuSans-31"/>
       <use xlink:href="#DejaVuSans-35" x="63.623047"/>
       <use xlink:href="#DejaVuSans-2e" x="127.246094"/>
       <use xlink:href="#DejaVuSans-30" x="159.033203"/>
      </g>
     </g>
    </g>
    <g id="ytick_8">
     <g id="line2d_16">
      <g>
       <use xlink:href="#m5e7b8828e6" x="57.08" y="33.868561" style="stroke: #000000; stroke-width: 0.8"/>
      </g>
     </g>
     <g id="text_17">
      <!-- 17.5 -->
      <g transform="translate(27.814375 37.66778) scale(0.1 -0.1)">
       <use xlink:href="#DejaVuSans-31"/>
       <use xlink:href="#DejaVuSans-37" x="63.623047"/>
       <use xlink:href="#DejaVuSans-2e" x="127.246094"/>
       <use xlink:href="#DejaVuSans-35" x="159.033203"/>
      </g>
     </g>
    </g>
    <g id="text_18">
     <!-- $y$-postions in a. u. -->
     <g transform="translate(21.714375 207.65) rotate(-90) scale(0.1 -0.1)">
      <defs>
       <path id="DejaVuSans-Oblique-79" d="M 1588 -325 
Q 1188 -997 936 -1164 
Q 684 -1331 294 -1331 
L -159 -1331 
L -63 -850 
L 269 -850 
Q 509 -850 678 -719 
Q 847 -588 1056 -206 
L 1234 128 
L 459 3500 
L 1069 3500 
L 1650 819 
L 3256 3500 
L 3859 3500 
L 1588 -325 
z
" transform="scale(0.015625)"/>
      </defs>
      <use xlink:href="#DejaVuSans-Oblique-79" transform="translate(0 0.015625)"/>
      <use xlink:href="#DejaVuSans-2d" transform="translate(59.179688 0.015625)"/>
      <use xlink:href="#DejaVuSans-70" transform="translate(95.263672 0.015625)"/>
      <use xlink:href="#DejaVuSans-6f" transform="translate(158.740234 0.015625)"/>
      <use xlink:href="#DejaVuSans-73" transform="translate(219.921875 0.015625)"/>
      <use xlink:href="#DejaVuSans-74" transform="translate(272.021484 0.015625)"/>
      <use xlink:href="#DejaVuSans-69" transform="translate(311.230469 0.015625)"/>
      <use xlink:href="#DejaVuSans-6f" transform="translate(339.013672 0.015625)"/>
      <use xlink:href="#DejaVuSans-6e" transform="translate(400.195312 0.015625)"/>
      <use xlink:href="#DejaVuSans-73" transform="translate(463.574219 0.015625)"/>
      <use xlink:href="#DejaVuSans-20" transform="translate(515.673828 0.015625)"/>
      <use xlink:href="#DejaVuSans-69" transform="translate(547.460938 0.015625)"/>
      <use xlink:href="#DejaVuSans-6e" transform="translate(575.244141 0.015625)"/>
      <use xlink:href="#DejaVuSans-20" transform="translate(638.623047 0.015625)"/>
      <use xlink:href="#DejaVuSans-61" transform="translate(670.410156 0.015625)"/>
      <use xlink:href="#DejaVuSans-2e" transform="translate(731.689453 0.015625)"/>
      <use xlink:href="#DejaVuSans-20" transform="translate(763.476562 0.015625)"/>
      <use xlink:href="#DejaVuSans-75" transform="translate(795.263672 0.015625)"/>
      <use xlink:href="#DejaVuSans-2e" transform="translate(858.642578 0.015625)"/>
     </g>
    </g>
   </g>
   <g id="patch_3">
    <path d="M 57.08 300.76 
L 57.08 25.44 
" style="fill: none; stroke: #000000; stroke-width: 0.8; stroke-linejoin: miter; stroke-linecap: square"/>
   </g>
   <g id="patch_4">
    <path d="M 450 300.76 
L 450 25.44 
" style="fill: none; stroke: #000000; stroke-width: 0.8; stroke-linejoin: miter; stroke-linecap: square"/>
   </g>
   <g id="patch_5">
    <path d="M 57.08 300.76 
L 450 300.76 
" style="fill: none; stroke: #000000; stroke-width: 0.8; stroke-linejoin: miter; stroke-linecap: square"/>
   </g>
   <g id="patch_6">
    <path d="M 57.08 25.44 
L 450 25.44 
" style="fill: none; stroke: #000000; stroke-width: 0.8; stroke-linejoin: miter; stroke-linecap: square"/>
   </g>
   <g id="text_19">
    <!-- Initial Particle Positions -->
    <g transform="translate(184.473437 19.44) scale(0.12 -0.12)">
     <defs>
      <path id="DejaVuSans-49" d="M 628 4666 
L 1259 4666 
L 1259 0 
L 628 0 
L 628 4666 
z
" transform="scale(0.015625)"/>
      <path id="DejaVuSans-6c" d="M 603 4863 
L 1178 4863 
L 1178 0 
L 603 0 
L 603 4863 
z
" transform="scale(0.015625)"/>
      <path id="DejaVuSans-50" d="M 1259 4147 
L 1259 2394 
L 2053 2394 
Q 2494 2394 2734 2622 
Q 2975 2850 2975 3272 
Q 2975 3691 2734 3919 
Q 2494 4147 2053 4147 
L 1259 4147 
z
M 628 4666 
L 2053 4666 
Q 2838 4666 3239 4311 
Q 3641 3956 3641 3272 
Q 3641 2581 3239 2228 
Q 2838 1875 2053 1875 
L 1259 1875 
L 1259 0 
L 628 0 
L 628 4666 
z
" transform="scale(0.015625)"/>
      <path id="DejaVuSans-72" d="M 2631 2963 
Q 2534 3019 2420 3045 
Q 2306 3072 2169 3072 
Q 1681 3072 1420 2755 
Q 1159 2438 1159 1844 
L 1159 0 
L 581 0 
L 581 3500 
L 1159 3500 
L 1159 2956 
Q 1341 3275 1631 3429 
Q 1922 3584 2338 3584 
Q 2397 3584 2469 3576 
Q 2541 3569 2628 3553 
L 2631 2963 
z
" transform="scale(0.015625)"/>
      <path id="DejaVuSans-63" d="M 3122 3366 
L 3122 2828 
Q 2878 2963 2633 3030 
Q 2388 3097 2138 3097 
Q 1578 3097 1268 2742 
Q 959 2388 959 1747 
Q 959 1106 1268 751 
Q 1578 397 2138 397 
Q 2388 397 2633 464 
Q 2878 531 3122 666 
L 3122 134 
Q 2881 22 2623 -34 
Q 2366 -91 2075 -91 
Q 1284 -91 818 406 
Q 353 903 353 1747 
Q 353 2603 823 3093 
Q 1294 3584 2113 3584 
Q 2378 3584 2631 3529 
Q 2884 3475 3122 3366 
z
" transform="scale(0.015625)"/>
      <path id="DejaVuSans-65" d="M 3597 1894 
L 3597 1613 
L 953 1613 
Q 991 1019 1311 708 
Q 1631 397 2203 397 
Q 2534 397 2845 478 
Q 3156 559 3463 722 
L 3463 178 
Q 3153 47 2828 -22 
Q 2503 -91 2169 -91 
Q 1331 -91 842 396 
Q 353 884 353 1716 
Q 353 2575 817 3079 
Q 1281 3584 2069 3584 
Q 2775 3584 3186 3129 
Q 3597 2675 3597 1894 
z
M 3022 2063 
Q 3016 2534 2758 2815 
Q 2500 3097 2075 3097 
Q 1594 3097 1305 2825 
Q 1016 2553 972 2059 
L 3022 2063 
z
" transform="scale(0.015625)"/>
     </defs>
     <use xlink:href="#DejaVuSans-49"/>
     <use xlink:href="#DejaVuSans-6e" x="29.492188"/>
     <use xlink:href="#DejaVuSans-69" x="92.871094"/>
     <use xlink:href="#DejaVuSans-74" x="120.654297"/>
     <use xlink:href="#DejaVuSans-69" x="159.863281"/>
     <use xlink:href="#DejaVuSans-61" x="187.646484"/>
     <use xlink:href="#DejaVuSans-6c" x="248.925781"/>
     <use xlink:href="#DejaVuSans-20" x="276.708984"/>
     <use xlink:href="#DejaVuSans-50" x="308.496094"/>
     <use xlink:href="#DejaVuSans-61" x="364.298828"/>
     <use xlink:href="#DejaVuSans-72" x="425.578125"/>
     <use xlink:href="#DejaVuSans-74" x="466.691406"/>
     <use xlink:href="#DejaVuSans-69" x="505.900391"/>
     <use xlink:href="#DejaVuSans-63" x="533.683594"/>
     <use xlink:href="#DejaVuSans-6c" x="588.664062"/>
     <use xlink:href="#DejaVuSans-65" x="616.447266"/>
     <use xlink:href="#DejaVuSans-20" x="677.970703"/>
     <use xlink:href="#DejaVuSans-50" x="709.757812"/>
     <use xlink:href="#DejaVuSans-6f" x="766.435547"/>
     <use xlink:href="#DejaVuSans-73" x="827.617188"/>
     <use xlink:href="#DejaVuSans-69" x="879.716797"/>
     <use xlink:href="#DejaVuSans-74" x="907.5"/>
     <use xlink:href="#DejaVuSans-69" x="946.708984"/>
     <use xlink:href="#DejaVuSans-6f" x="974.492188"/>
     <use xlink:href="#DejaVuSans-6e" x="1035.673828"/>
     <use xlink:href="#DejaVuSans-73" x="1099.052734"/>
    </g>
   </g>
  </g>
 </g>
 <defs>
  <clipPath id="p64e981b4bb">
   <rect x="57.08" y="25.44" width="392.92" height="275.32"/>
  </clipPath>
 </defs>
</svg>
