<?xml version="1.0" encoding="utf-8" standalone="no"?>
<!DOCTYPE svg PUBLIC "-//W3C//DTD SVG 1.1//EN"
  "http://www.w3.org/Graphics/SVG/1.1/DTD/svg11.dtd">
<svg xmlns:xlink="http://www.w3.org/1999/xlink" width="936pt" height="720pt" viewBox="0 0 936 720" xmlns="http://www.w3.org/2000/svg" version="1.1">
 <metadata>
  <rdf:RDF xmlns:dc="http://purl.org/dc/elements/1.1/" xmlns:cc="http://creativecommons.org/ns#" xmlns:rdf="http://www.w3.org/1999/02/22-rdf-syntax-ns#">
   <cc:Work>
    <dc:type rdf:resource="http://purl.org/dc/dcmitype/StillImage"/>
    <dc:date>2024-12-09T06:51:18.626227</dc:date>
    <dc:format>image/svg+xml</dc:format>
    <dc:creator>
     <cc:Agent>
      <dc:title>Matplotlib v3.8.0, https://matplotlib.org/</dc:title>
     </cc:Agent>
    </dc:creator>
   </cc:Work>
  </rdf:RDF>
 </metadata>
 <defs>
  <style type="text/css">*{stroke-linejoin: round; stroke-linecap: butt}</style>
 </defs>
 <g id="figure_1">
  <g id="patch_1">
   <path d="M 0 720 
L 936 720 
L 936 0 
L 0 0 
z
" style="fill: #ffffff"/>
  </g>
  <g id="axes_1">
   <g id="patch_2">
    <path d="M 66.62 312.64 
L 925.2 312.64 
L 925.2 30.48 
L 66.62 30.48 
z
" style="fill: #ffffff"/>
   </g>
   <g id="matplotlib.axis_1">
    <g id="xtick_1">
     <g id="line2d_1">
      <defs>
       <path id="mdef1ca9845" d="M 0 0 
L 0 3.5 
" style="stroke: #000000; stroke-width: 0.8"/>
      </defs>
      <g>
       <use xlink:href="#mdef1ca9845" x="66.62" y="312.64" style="stroke: #000000; stroke-width: 0.8"/>
      </g>
     </g>
     <g id="text_1">
      <!-- 0 -->
      <g transform="translate(62.039 330.58175) scale(0.144 -0.144)">
       <defs>
        <path id="DejaVuSans-30" d="M 2034 4250 
Q 1547 4250 1301 3770 
Q 1056 3291 1056 2328 
Q 1056 1369 1301 889 
Q 1547 409 2034 409 
Q 2525 409 2770 889 
Q 3016 1369 3016 2328 
Q 3016 3291 2770 3770 
Q 2525 4250 2034 4250 
z
M 2034 4750 
Q 2819 4750 3233 4129 
Q 3647 3509 3647 2328 
Q 3647 1150 3233 529 
Q 2819 -91 2034 -91 
Q 1250 -91 836 529 
Q 422 1150 422 2328 
Q 422 3509 836 4129 
Q 1250 4750 2034 4750 
z
" transform="scale(0.015625)"/>
       </defs>
       <use xlink:href="#DejaVuSans-30"/>
      </g>
     </g>
    </g>
    <g id="xtick_2">
     <g id="line2d_2">
      <g>
       <use xlink:href="#mdef1ca9845" x="195.342639" y="312.64" style="stroke: #000000; stroke-width: 0.8"/>
      </g>
     </g>
     <g id="text_2">
      <!-- 1 -->
      <g transform="translate(190.761639 330.58175) scale(0.144 -0.144)">
       <defs>
        <path id="DejaVuSans-31" d="M 794 531 
L 1825 531 
L 1825 4091 
L 703 3866 
L 703 4441 
L 1819 4666 
L 2450 4666 
L 2450 531 
L 3481 531 
L 3481 0 
L 794 0 
L 794 531 
z
" transform="scale(0.015625)"/>
       </defs>
       <use xlink:href="#DejaVuSans-31"/>
      </g>
     </g>
    </g>
    <g id="xtick_3">
     <g id="line2d_3">
      <g>
       <use xlink:href="#mdef1ca9845" x="324.065277" y="312.64" style="stroke: #000000; stroke-width: 0.8"/>
      </g>
     </g>
     <g id="text_3">
      <!-- 2 -->
      <g transform="translate(319.484277 330.58175) scale(0.144 -0.144)">
       <defs>
        <path id="DejaVuSans-32" d="M 1228 531 
L 3431 531 
L 3431 0 
L 469 0 
L 469 531 
Q 828 903 1448 1529 
Q 2069 2156 2228 2338 
Q 2531 2678 2651 2914 
Q 2772 3150 2772 3378 
Q 2772 3750 2511 3984 
Q 2250 4219 1831 4219 
Q 1534 4219 1204 4116 
Q 875 4013 500 3803 
L 500 4441 
Q 881 4594 1212 4672 
Q 1544 4750 1819 4750 
Q 2544 4750 2975 4387 
Q 3406 4025 3406 3419 
Q 3406 3131 3298 2873 
Q 3191 2616 2906 2266 
Q 2828 2175 2409 1742 
Q 1991 1309 1228 531 
z
" transform="scale(0.015625)"/>
       </defs>
       <use xlink:href="#DejaVuSans-32"/>
      </g>
     </g>
    </g>
    <g id="xtick_4">
     <g id="line2d_4">
      <g>
       <use xlink:href="#mdef1ca9845" x="452.787916" y="312.64" style="stroke: #000000; stroke-width: 0.8"/>
      </g>
     </g>
     <g id="text_4">
      <!-- 3 -->
      <g transform="translate(448.206916 330.58175) scale(0.144 -0.144)">
       <defs>
        <path id="DejaVuSans-33" d="M 2597 2516 
Q 3050 2419 3304 2112 
Q 3559 1806 3559 1356 
Q 3559 666 3084 287 
Q 2609 -91 1734 -91 
Q 1441 -91 1130 -33 
Q 819 25 488 141 
L 488 750 
Q 750 597 1062 519 
Q 1375 441 1716 441 
Q 2309 441 2620 675 
Q 2931 909 2931 1356 
Q 2931 1769 2642 2001 
Q 2353 2234 1838 2234 
L 1294 2234 
L 1294 2753 
L 1863 2753 
Q 2328 2753 2575 2939 
Q 2822 3125 2822 3475 
Q 2822 3834 2567 4026 
Q 2313 4219 1838 4219 
Q 1578 4219 1281 4162 
Q 984 4106 628 3988 
L 628 4550 
Q 988 4650 1302 4700 
Q 1616 4750 1894 4750 
Q 2613 4750 3031 4423 
Q 3450 4097 3450 3541 
Q 3450 3153 3228 2886 
Q 3006 2619 2597 2516 
z
" transform="scale(0.015625)"/>
       </defs>
       <use xlink:href="#DejaVuSans-33"/>
      </g>
     </g>
    </g>
    <g id="xtick_5">
     <g id="line2d_5">
      <g>
       <use xlink:href="#mdef1ca9845" x="581.510555" y="312.64" style="stroke: #000000; stroke-width: 0.8"/>
      </g>
     </g>
     <g id="text_5">
      <!-- 4 -->
      <g transform="translate(576.929555 330.58175) scale(0.144 -0.144)">
       <defs>
        <path id="DejaVuSans-34" d="M 2419 4116 
L 825 1625 
L 2419 1625 
L 2419 4116 
z
M 2253 4666 
L 3047 4666 
L 3047 1625 
L 3713 1625 
L 3713 1100 
L 3047 1100 
L 3047 0 
L 2419 0 
L 2419 1100 
L 313 1100 
L 313 1709 
L 2253 4666 
z
" transform="scale(0.015625)"/>
       </defs>
       <use xlink:href="#DejaVuSans-34"/>
      </g>
     </g>
    </g>
    <g id="xtick_6">
     <g id="line2d_6">
      <g>
       <use xlink:href="#mdef1ca9845" x="710.233193" y="312.64" style="stroke: #000000; stroke-width: 0.8"/>
      </g>
     </g>
     <g id="text_6">
      <!-- 5 -->
      <g transform="translate(705.652193 330.58175) scale(0.144 -0.144)">
       <defs>
        <path id="DejaVuSans-35" d="M 691 4666 
L 3169 4666 
L 3169 4134 
L 1269 4134 
L 1269 2991 
Q 1406 3038 1543 3061 
Q 1681 3084 1819 3084 
Q 2600 3084 3056 2656 
Q 3513 2228 3513 1497 
Q 3513 744 3044 326 
Q 2575 -91 1722 -91 
Q 1428 -91 1123 -41 
Q 819 9 494 109 
L 494 744 
Q 775 591 1075 516 
Q 1375 441 1709 441 
Q 2250 441 2565 725 
Q 2881 1009 2881 1497 
Q 2881 1984 2565 2268 
Q 2250 2553 1709 2553 
Q 1456 2553 1204 2497 
Q 953 2441 691 2322 
L 691 4666 
z
" transform="scale(0.015625)"/>
       </defs>
       <use xlink:href="#DejaVuSans-35"/>
      </g>
     </g>
    </g>
    <g id="xtick_7">
     <g id="line2d_7">
      <g>
       <use xlink:href="#mdef1ca9845" x="838.955832" y="312.64" style="stroke: #000000; stroke-width: 0.8"/>
      </g>
     </g>
     <g id="text_7">
      <!-- 6 -->
      <g transform="translate(834.374832 330.58175) scale(0.144 -0.144)">
       <defs>
        <path id="DejaVuSans-36" d="M 2113 2584 
Q 1688 2584 1439 2293 
Q 1191 2003 1191 1497 
Q 1191 994 1439 701 
Q 1688 409 2113 409 
Q 2538 409 2786 701 
Q 3034 994 3034 1497 
Q 3034 2003 2786 2293 
Q 2538 2584 2113 2584 
z
M 3366 4563 
L 3366 3988 
Q 3128 4100 2886 4159 
Q 2644 4219 2406 4219 
Q 1781 4219 1451 3797 
Q 1122 3375 1075 2522 
Q 1259 2794 1537 2939 
Q 1816 3084 2150 3084 
Q 2853 3084 3261 2657 
Q 3669 2231 3669 1497 
Q 3669 778 3244 343 
Q 2819 -91 2113 -91 
Q 1303 -91 875 529 
Q 447 1150 447 2328 
Q 447 3434 972 4092 
Q 1497 4750 2381 4750 
Q 2619 4750 2861 4703 
Q 3103 4656 3366 4563 
z
" transform="scale(0.015625)"/>
       </defs>
       <use xlink:href="#DejaVuSans-36"/>
      </g>
     </g>
    </g>
    <g id="text_8">
     <!-- time in a.u. -->
     <g transform="translate(446.76055 350.7066) scale(0.1728 -0.1728)">
      <defs>
       <path id="DejaVuSans-74" d="M 1172 4494 
L 1172 3500 
L 2356 3500 
L 2356 3053 
L 1172 3053 
L 1172 1153 
Q 1172 725 1289 603 
Q 1406 481 1766 481 
L 2356 481 
L 2356 0 
L 1766 0 
Q 1100 0 847 248 
Q 594 497 594 1153 
L 594 3053 
L 172 3053 
L 172 3500 
L 594 3500 
L 594 4494 
L 1172 4494 
z
" transform="scale(0.015625)"/>
       <path id="DejaVuSans-69" d="M 603 3500 
L 1178 3500 
L 1178 0 
L 603 0 
L 603 3500 
z
M 603 4863 
L 1178 4863 
L 1178 4134 
L 603 4134 
L 603 4863 
z
" transform="scale(0.015625)"/>
       <path id="DejaVuSans-6d" d="M 3328 2828 
Q 3544 3216 3844 3400 
Q 4144 3584 4550 3584 
Q 5097 3584 5394 3201 
Q 5691 2819 5691 2113 
L 5691 0 
L 5113 0 
L 5113 2094 
Q 5113 2597 4934 2840 
Q 4756 3084 4391 3084 
Q 3944 3084 3684 2787 
Q 3425 2491 3425 1978 
L 3425 0 
L 2847 0 
L 2847 2094 
Q 2847 2600 2669 2842 
Q 2491 3084 2119 3084 
Q 1678 3084 1418 2786 
Q 1159 2488 1159 1978 
L 1159 0 
L 581 0 
L 581 3500 
L 1159 3500 
L 1159 2956 
Q 1356 3278 1631 3431 
Q 1906 3584 2284 3584 
Q 2666 3584 2933 3390 
Q 3200 3197 3328 2828 
z
" transform="scale(0.015625)"/>
       <path id="DejaVuSans-65" d="M 3597 1894 
L 3597 1613 
L 953 1613 
Q 991 1019 1311 708 
Q 1631 397 2203 397 
Q 2534 397 2845 478 
Q 3156 559 3463 722 
L 3463 178 
Q 3153 47 2828 -22 
Q 2503 -91 2169 -91 
Q 1331 -91 842 396 
Q 353 884 353 1716 
Q 353 2575 817 3079 
Q 1281 3584 2069 3584 
Q 2775 3584 3186 3129 
Q 3597 2675 3597 1894 
z
M 3022 2063 
Q 3016 2534 2758 2815 
Q 2500 3097 2075 3097 
Q 1594 3097 1305 2825 
Q 1016 2553 972 2059 
L 3022 2063 
z
" transform="scale(0.015625)"/>
       <path id="DejaVuSans-20" transform="scale(0.015625)"/>
       <path id="DejaVuSans-6e" d="M 3513 2113 
L 3513 0 
L 2938 0 
L 2938 2094 
Q 2938 2591 2744 2837 
Q 2550 3084 2163 3084 
Q 1697 3084 1428 2787 
Q 1159 2491 1159 1978 
L 1159 0 
L 581 0 
L 581 3500 
L 1159 3500 
L 1159 2956 
Q 1366 3272 1645 3428 
Q 1925 3584 2291 3584 
Q 2894 3584 3203 3211 
Q 3513 2838 3513 2113 
z
" transform="scale(0.015625)"/>
       <path id="DejaVuSans-61" d="M 2194 1759 
Q 1497 1759 1228 1600 
Q 959 1441 959 1056 
Q 959 750 1161 570 
Q 1363 391 1709 391 
Q 2188 391 2477 730 
Q 2766 1069 2766 1631 
L 2766 1759 
L 2194 1759 
z
M 3341 1997 
L 3341 0 
L 2766 0 
L 2766 531 
Q 2569 213 2275 61 
Q 1981 -91 1556 -91 
Q 1019 -91 701 211 
Q 384 513 384 1019 
Q 384 1609 779 1909 
Q 1175 2209 1959 2209 
L 2766 2209 
L 2766 2266 
Q 2766 2663 2505 2880 
Q 2244 3097 1772 3097 
Q 1472 3097 1187 3025 
Q 903 2953 641 2809 
L 641 3341 
Q 956 3463 1253 3523 
Q 1550 3584 1831 3584 
Q 2591 3584 2966 3190 
Q 3341 2797 3341 1997 
z
" transform="scale(0.015625)"/>
       <path id="DejaVuSans-2e" d="M 684 794 
L 1344 794 
L 1344 0 
L 684 0 
L 684 794 
z
" transform="scale(0.015625)"/>
       <path id="DejaVuSans-75" d="M 544 1381 
L 544 3500 
L 1119 3500 
L 1119 1403 
Q 1119 906 1312 657 
Q 1506 409 1894 409 
Q 2359 409 2629 706 
Q 2900 1003 2900 1516 
L 2900 3500 
L 3475 3500 
L 3475 0 
L 2900 0 
L 2900 538 
Q 2691 219 2414 64 
Q 2138 -91 1772 -91 
Q 1169 -91 856 284 
Q 544 659 544 1381 
z
M 1991 3584 
L 1991 3584 
z
" transform="scale(0.015625)"/>
      </defs>
      <use xlink:href="#DejaVuSans-74"/>
      <use xlink:href="#DejaVuSans-69" x="39.208984"/>
      <use xlink:href="#DejaVuSans-6d" x="66.992188"/>
      <use xlink:href="#DejaVuSans-65" x="164.404297"/>
      <use xlink:href="#DejaVuSans-20" x="225.927734"/>
      <use xlink:href="#DejaVuSans-69" x="257.714844"/>
      <use xlink:href="#DejaVuSans-6e" x="285.498047"/>
      <use xlink:href="#DejaVuSans-20" x="348.876953"/>
      <use xlink:href="#DejaVuSans-61" x="380.664062"/>
      <use xlink:href="#DejaVuSans-2e" x="441.943359"/>
      <use xlink:href="#DejaVuSans-75" x="473.730469"/>
      <use xlink:href="#DejaVuSans-2e" x="537.109375"/>
     </g>
    </g>
   </g>
   <g id="matplotlib.axis_2">
    <g id="ytick_1">
     <g id="line2d_8">
      <defs>
       <path id="m7c5fe0b944" d="M 0 0 
L -3.5 0 
" style="stroke: #000000; stroke-width: 0.8"/>
      </defs>
      <g>
       <use xlink:href="#m7c5fe0b944" x="66.62" y="297.251423" style="stroke: #000000; stroke-width: 0.8"/>
      </g>
     </g>
     <g id="text_9">
      <!-- 0 -->
      <g transform="translate(50.458 302.722298) scale(0.144 -0.144)">
       <use xlink:href="#DejaVuSans-30"/>
      </g>
     </g>
    </g>
    <g id="ytick_2">
     <g id="line2d_9">
      <g>
       <use xlink:href="#m7c5fe0b944" x="66.62" y="260.542847" style="stroke: #000000; stroke-width: 0.8"/>
      </g>
     </g>
     <g id="text_10">
      <!-- 20 -->
      <g transform="translate(41.296 266.013722) scale(0.144 -0.144)">
       <use xlink:href="#DejaVuSans-32"/>
       <use xlink:href="#DejaVuSans-30" x="63.623047"/>
      </g>
     </g>
    </g>
    <g id="ytick_3">
     <g id="line2d_10">
      <g>
       <use xlink:href="#m7c5fe0b944" x="66.62" y="223.83427" style="stroke: #000000; stroke-width: 0.8"/>
      </g>
     </g>
     <g id="text_11">
      <!-- 40 -->
      <g transform="translate(41.296 229.305145) scale(0.144 -0.144)">
       <use xlink:href="#DejaVuSans-34"/>
       <use xlink:href="#DejaVuSans-30" x="63.623047"/>
      </g>
     </g>
    </g>
    <g id="ytick_4">
     <g id="line2d_11">
      <g>
       <use xlink:href="#m7c5fe0b944" x="66.62" y="187.125694" style="stroke: #000000; stroke-width: 0.8"/>
      </g>
     </g>
     <g id="text_12">
      <!-- 60 -->
      <g transform="translate(41.296 192.596569) scale(0.144 -0.144)">
       <use xlink:href="#DejaVuSans-36"/>
       <use xlink:href="#DejaVuSans-30" x="63.623047"/>
      </g>
     </g>
    </g>
    <g id="ytick_5">
     <g id="line2d_12">
      <g>
       <use xlink:href="#m7c5fe0b944" x="66.62" y="150.417118" style="stroke: #000000; stroke-width: 0.8"/>
      </g>
     </g>
     <g id="text_13">
      <!-- 80 -->
      <g transform="translate(41.296 155.887993) scale(0.144 -0.144)">
       <defs>
        <path id="DejaVuSans-38" d="M 2034 2216 
Q 1584 2216 1326 1975 
Q 1069 1734 1069 1313 
Q 1069 891 1326 650 
Q 1584 409 2034 409 
Q 2484 409 2743 651 
Q 3003 894 3003 1313 
Q 3003 1734 2745 1975 
Q 2488 2216 2034 2216 
z
M 1403 2484 
Q 997 2584 770 2862 
Q 544 3141 544 3541 
Q 544 4100 942 4425 
Q 1341 4750 2034 4750 
Q 2731 4750 3128 4425 
Q 3525 4100 3525 3541 
Q 3525 3141 3298 2862 
Q 3072 2584 2669 2484 
Q 3125 2378 3379 2068 
Q 3634 1759 3634 1313 
Q 3634 634 3220 271 
Q 2806 -91 2034 -91 
Q 1263 -91 848 271 
Q 434 634 434 1313 
Q 434 1759 690 2068 
Q 947 2378 1403 2484 
z
M 1172 3481 
Q 1172 3119 1398 2916 
Q 1625 2713 2034 2713 
Q 2441 2713 2670 2916 
Q 2900 3119 2900 3481 
Q 2900 3844 2670 4047 
Q 2441 4250 2034 4250 
Q 1625 4250 1398 4047 
Q 1172 3844 1172 3481 
z
" transform="scale(0.015625)"/>
       </defs>
       <use xlink:href="#DejaVuSans-38"/>
       <use xlink:href="#DejaVuSans-30" x="63.623047"/>
      </g>
     </g>
    </g>
    <g id="ytick_6">
     <g id="line2d_13">
      <g>
       <use xlink:href="#m7c5fe0b944" x="66.62" y="113.708541" style="stroke: #000000; stroke-width: 0.8"/>
      </g>
     </g>
     <g id="text_14">
      <!-- 100 -->
      <g transform="translate(32.134 119.179416) scale(0.144 -0.144)">
       <use xlink:href="#DejaVuSans-31"/>
       <use xlink:href="#DejaVuSans-30" x="63.623047"/>
       <use xlink:href="#DejaVuSans-30" x="127.246094"/>
      </g>
     </g>
    </g>
    <g id="ytick_7">
     <g id="line2d_14">
      <g>
       <use xlink:href="#m7c5fe0b944" x="66.62" y="76.999965" style="stroke: #000000; stroke-width: 0.8"/>
      </g>
     </g>
     <g id="text_15">
      <!-- 120 -->
      <g transform="translate(32.134 82.47084) scale(0.144 -0.144)">
       <use xlink:href="#DejaVuSans-31"/>
       <use xlink:href="#DejaVuSans-32" x="63.623047"/>
       <use xlink:href="#DejaVuSans-30" x="127.246094"/>
      </g>
     </g>
    </g>
    <g id="ytick_8">
     <g id="line2d_15">
      <g>
       <use xlink:href="#m7c5fe0b944" x="66.62" y="40.291389" style="stroke: #000000; stroke-width: 0.8"/>
      </g>
     </g>
     <g id="text_16">
      <!-- 140 -->
      <g transform="translate(32.134 45.762264) scale(0.144 -0.144)">
       <use xlink:href="#DejaVuSans-31"/>
       <use xlink:href="#DejaVuSans-34" x="63.623047"/>
       <use xlink:href="#DejaVuSans-30" x="127.246094"/>
      </g>
     </g>
    </g>
    <g id="text_17">
     <!-- energy in a.u. -->
     <g transform="translate(24.5403 231.2975) rotate(-90) scale(0.1728 -0.1728)">
      <defs>
       <path id="DejaVuSans-72" d="M 2631 2963 
Q 2534 3019 2420 3045 
Q 2306 3072 2169 3072 
Q 1681 3072 1420 2755 
Q 1159 2438 1159 1844 
L 1159 0 
L 581 0 
L 581 3500 
L 1159 3500 
L 1159 2956 
Q 1341 3275 1631 3429 
Q 1922 3584 2338 3584 
Q 2397 3584 2469 3576 
Q 2541 3569 2628 3553 
L 2631 2963 
z
" transform="scale(0.015625)"/>
       <path id="DejaVuSans-67" d="M 2906 1791 
Q 2906 2416 2648 2759 
Q 2391 3103 1925 3103 
Q 1463 3103 1205 2759 
Q 947 2416 947 1791 
Q 947 1169 1205 825 
Q 1463 481 1925 481 
Q 2391 481 2648 825 
Q 2906 1169 2906 1791 
z
M 3481 434 
Q 3481 -459 3084 -895 
Q 2688 -1331 1869 -1331 
Q 1566 -1331 1297 -1286 
Q 1028 -1241 775 -1147 
L 775 -588 
Q 1028 -725 1275 -790 
Q 1522 -856 1778 -856 
Q 2344 -856 2625 -561 
Q 2906 -266 2906 331 
L 2906 616 
Q 2728 306 2450 153 
Q 2172 0 1784 0 
Q 1141 0 747 490 
Q 353 981 353 1791 
Q 353 2603 747 3093 
Q 1141 3584 1784 3584 
Q 2172 3584 2450 3431 
Q 2728 3278 2906 2969 
L 2906 3500 
L 3481 3500 
L 3481 434 
z
" transform="scale(0.015625)"/>
       <path id="DejaVuSans-79" d="M 2059 -325 
Q 1816 -950 1584 -1140 
Q 1353 -1331 966 -1331 
L 506 -1331 
L 506 -850 
L 844 -850 
Q 1081 -850 1212 -737 
Q 1344 -625 1503 -206 
L 1606 56 
L 191 3500 
L 800 3500 
L 1894 763 
L 2988 3500 
L 3597 3500 
L 2059 -325 
z
" transform="scale(0.015625)"/>
      </defs>
      <use xlink:href="#DejaVuSans-65"/>
      <use xlink:href="#DejaVuSans-6e" x="61.523438"/>
      <use xlink:href="#DejaVuSans-65" x="124.902344"/>
      <use xlink:href="#DejaVuSans-72" x="186.425781"/>
      <use xlink:href="#DejaVuSans-67" x="225.789062"/>
      <use xlink:href="#DejaVuSans-79" x="289.265625"/>
      <use xlink:href="#DejaVuSans-20" x="348.445312"/>
      <use xlink:href="#DejaVuSans-69" x="380.232422"/>
      <use xlink:href="#DejaVuSans-6e" x="408.015625"/>
      <use xlink:href="#DejaVuSans-20" x="471.394531"/>
      <use xlink:href="#DejaVuSans-61" x="503.181641"/>
      <use xlink:href="#DejaVuSans-2e" x="564.460938"/>
      <use xlink:href="#DejaVuSans-75" x="596.248047"/>
      <use xlink:href="#DejaVuSans-2e" x="659.626953"/>
     </g>
    </g>
   </g>
   <g id="line2d_16">
    <path d="M 66.62 53.993333 
L 67.907226 209.235078 
L 69.194453 276.35406 
L 70.481679 289.126667 
L 71.768906 282.085878 
L 73.056132 277.440262 
L 74.343358 267.377637 
L 76.917811 249.52394 
L 78.205037 244.492171 
L 79.492264 243.512845 
L 80.77949 240.576566 
L 82.066717 243.434864 
L 84.641169 247.820647 
L 85.928396 249.835117 
L 87.215622 246.060594 
L 88.502849 235.738956 
L 89.790075 239.356086 
L 91.077301 246.041984 
L 92.364528 240.261625 
L 93.651754 237.944002 
L 94.938981 242.13337 
L 96.226207 253.009476 
L 97.513433 261.64671 
L 98.80066 259.945719 
L 100.087886 252.871971 
L 101.375112 250.964787 
L 102.662339 242.360008 
L 103.949565 252.278071 
L 105.236792 254.564649 
L 106.524018 252.055828 
L 107.811244 255.675651 
L 109.098471 250.448851 
L 110.385697 243.195822 
L 111.672924 258.469567 
L 112.96015 264.118886 
L 114.247376 264.539646 
L 115.534603 260.500754 
L 116.821829 258.966047 
L 118.109055 262.07935 
L 119.396282 263.301613 
L 120.683508 263.770351 
L 121.970735 261.959894 
L 123.257961 253.427659 
L 124.545187 242.981748 
L 125.832414 250.092085 
L 127.11964 248.402895 
L 129.694093 256.310048 
L 130.981319 249.603145 
L 132.268546 246.630656 
L 133.555772 258.583622 
L 134.842999 263.218081 
L 136.130225 259.123759 
L 137.417451 250.104805 
L 138.704678 256.641564 
L 139.991904 254.302796 
L 141.27913 250.103295 
L 142.566357 248.94838 
L 143.853583 256.484195 
L 145.14081 261.10505 
L 146.428036 258.81889 
L 147.715262 249.959471 
L 149.002489 251.044582 
L 150.289715 257.554199 
L 151.576942 251.048187 
L 152.864168 250.993146 
L 154.151394 265.525271 
L 155.438621 267.910293 
L 156.725847 260.485048 
L 158.013073 255.195916 
L 159.3003 254.903082 
L 160.587526 254.46617 
L 161.874753 256.143499 
L 163.161979 256.946602 
L 164.449205 257.062125 
L 165.736432 252.614595 
L 168.310885 248.344727 
L 169.598111 251.634845 
L 170.885337 257.498966 
L 172.172564 261.822786 
L 173.45979 262.506155 
L 174.747016 263.902676 
L 176.034243 265.706381 
L 177.321469 263.332758 
L 178.608696 260.420589 
L 179.895922 250.967157 
L 181.183148 246.966979 
L 182.470375 251.442568 
L 183.757601 255.292402 
L 185.044828 260.44625 
L 186.332054 262.81923 
L 188.906507 263.941397 
L 190.193733 258.629845 
L 191.48096 245.332333 
L 192.768186 248.562685 
L 194.055412 260.731161 
L 195.342639 267.989205 
L 196.629865 271.006699 
L 197.917091 269.685694 
L 199.204318 265.446882 
L 200.491544 263.460964 
L 201.778771 260.686448 
L 203.065997 261.012867 
L 204.353223 261.050778 
L 205.64045 263.954346 
L 206.927676 272.91304 
L 208.214903 274.337656 
L 209.502129 268.841743 
L 210.789355 272.883995 
L 212.076582 271.650118 
L 213.363808 274.497267 
L 214.651034 275.178737 
L 215.938261 271.366173 
L 217.225487 275.129607 
L 218.512714 277.155363 
L 219.79994 271.53515 
L 221.087166 269.562086 
L 223.661619 272.078524 
L 224.948846 269.682734 
L 226.236072 263.875636 
L 227.523298 262.399238 
L 228.810525 266.131045 
L 230.097751 269.077591 
L 231.384978 266.777401 
L 232.672204 256.127527 
L 233.95943 253.633004 
L 235.246657 263.022737 
L 236.533883 270.249355 
L 237.821109 270.186647 
L 239.108336 265.117482 
L 240.395562 262.890373 
L 241.682789 263.924565 
L 242.970015 261.67405 
L 244.257241 259.061142 
L 245.544468 266.787779 
L 246.831694 264.403029 
L 248.118921 258.375972 
L 249.406147 266.820351 
L 250.693373 270.866346 
L 251.9806 272.590268 
L 253.267826 274.804522 
L 254.555052 271.069071 
L 255.842279 265.690323 
L 257.129505 266.248599 
L 258.416732 272.590941 
L 259.703958 272.221005 
L 260.991184 263.973669 
L 262.278411 266.768376 
L 263.565637 266.227564 
L 264.852864 266.414111 
L 266.14009 271.242943 
L 267.427316 272.352858 
L 268.714543 274.313835 
L 270.001769 275.290557 
L 271.288996 278.964777 
L 272.576222 280.201237 
L 273.863448 273.452929 
L 275.150675 269.936756 
L 276.437901 267.549298 
L 277.725127 254.476766 
L 279.012354 265.28295 
L 280.29958 267.904961 
L 281.586807 268.523485 
L 282.874033 273.386782 
L 284.161259 280.960996 
L 285.448486 280.836595 
L 286.735712 266.779315 
L 288.022939 259.334592 
L 289.310165 264.773272 
L 290.597391 267.089696 
L 291.884618 259.009574 
L 293.171844 246.497305 
L 294.45907 253.539942 
L 297.033523 255.756192 
L 298.32075 258.951609 
L 299.607976 257.528691 
L 300.895202 256.356649 
L 302.182429 246.779458 
L 303.469655 247.675886 
L 304.756882 260.705736 
L 306.044108 267.188045 
L 307.331334 276.348064 
L 308.618561 272.362413 
L 309.905787 264.031385 
L 311.193013 256.55318 
L 312.48024 258.701446 
L 313.767466 255.578375 
L 315.054693 255.214494 
L 316.341919 261.17985 
L 317.629145 259.186057 
L 318.916372 261.844778 
L 320.203598 261.322597 
L 321.490825 262.460473 
L 322.778051 266.800084 
L 324.065277 269.298583 
L 325.352504 269.385099 
L 326.63973 259.534455 
L 327.926957 248.352604 
L 329.214183 257.537298 
L 330.501409 265.350099 
L 331.788636 270.096304 
L 333.075862 268.630697 
L 334.363088 266.590195 
L 335.650315 267.254939 
L 336.937541 265.537962 
L 339.511994 243.636562 
L 340.79922 249.675293 
L 342.086447 259.714189 
L 343.373673 262.359554 
L 344.6609 255.685817 
L 345.948126 260.279992 
L 347.235352 266.83068 
L 348.522579 268.203594 
L 349.809805 262.580911 
L 351.097031 259.697467 
L 352.384258 262.496497 
L 354.958711 270.198493 
L 356.245937 262.175298 
L 357.533163 253.314579 
L 358.82039 249.392915 
L 360.107616 251.889822 
L 361.394843 263.537123 
L 362.682069 257.371431 
L 363.969295 255.213307 
L 365.256522 258.59779 
L 366.543748 258.470296 
L 367.830975 263.091036 
L 369.118201 262.40043 
L 371.692654 247.426964 
L 372.97988 247.874312 
L 374.267106 245.209719 
L 376.841559 268.812324 
L 378.128786 265.019512 
L 379.416012 257.147801 
L 380.703238 254.115485 
L 381.990465 257.932737 
L 384.564918 261.129468 
L 385.852144 264.239663 
L 387.13937 263.437338 
L 388.426597 265.858729 
L 389.713823 264.171699 
L 391.001049 258.238822 
L 392.288276 259.692741 
L 393.575502 264.126193 
L 394.862729 269.735511 
L 396.149955 267.830035 
L 397.437181 271.310219 
L 398.724408 273.58808 
L 400.011634 272.252581 
L 401.298861 271.444646 
L 402.586087 270.904712 
L 403.873313 272.204812 
L 406.447766 264.662326 
L 407.734993 267.650803 
L 409.022219 270.93182 
L 410.309445 272.185943 
L 411.596672 275.255273 
L 412.883898 273.392422 
L 414.171124 265.393091 
L 415.458351 261.876726 
L 416.745577 268.585807 
L 418.032804 265.383 
L 419.32003 263.905105 
L 420.607256 266.479451 
L 421.894483 270.674661 
L 423.181709 272.442814 
L 424.468936 272.601335 
L 425.756162 263.366944 
L 427.043388 259.602539 
L 428.330615 267.405998 
L 429.617841 266.158149 
L 430.905067 263.143685 
L 432.192294 263.071337 
L 433.47952 265.322556 
L 434.766747 259.24339 
L 436.053973 259.458692 
L 437.341199 257.089694 
L 438.628426 266.953483 
L 439.915652 269.367145 
L 441.202879 268.490093 
L 442.490105 268.045448 
L 443.777331 265.700416 
L 445.064558 270.859059 
L 446.351784 273.351867 
L 447.63901 271.794605 
L 448.926237 267.236795 
L 450.213463 271.645074 
L 451.50069 270.660014 
L 452.787916 266.384714 
L 454.075142 260.463476 
L 455.362369 261.539147 
L 456.649595 273.693861 
L 457.936822 273.494016 
L 459.224048 267.510959 
L 460.511274 258.933804 
L 461.798501 260.755589 
L 463.085727 269.074957 
L 464.372954 266.599181 
L 465.66018 261.494553 
L 466.947406 263.669962 
L 468.234633 268.106808 
L 469.521859 270.155228 
L 470.809085 268.352231 
L 472.096312 263.339358 
L 474.670765 259.447109 
L 475.957991 258.337797 
L 477.245217 262.895568 
L 478.532444 264.695704 
L 479.81967 264.813446 
L 481.106897 266.722423 
L 482.394123 267.232745 
L 483.681349 269.523038 
L 486.255802 261.050127 
L 487.543028 254.502764 
L 488.830255 263.051213 
L 490.117481 269.794265 
L 491.404708 273.291779 
L 492.691934 269.534951 
L 493.97916 263.511019 
L 495.266387 266.012838 
L 496.553613 264.31774 
L 497.84084 263.83761 
L 499.128066 268.045694 
L 500.415292 273.81186 
L 501.702519 278.560518 
L 502.989745 276.904177 
L 504.276972 264.106346 
L 505.564198 255.414996 
L 508.138651 270.039171 
L 509.425877 268.677107 
L 510.713103 266.121574 
L 512.00033 265.564581 
L 513.287556 265.619655 
L 514.574783 266.930803 
L 517.149235 257.831968 
L 518.436462 263.946811 
L 519.723688 257.626764 
L 521.010915 252.535337 
L 522.298141 248.509913 
L 523.585367 254.584423 
L 524.872594 254.866654 
L 526.15982 252.71626 
L 527.447046 256.010863 
L 528.734273 261.264759 
L 530.021499 261.708321 
L 531.308726 259.105585 
L 532.595952 253.836653 
L 533.883178 253.125028 
L 535.170405 254.320488 
L 536.457631 258.591218 
L 537.744858 261.999528 
L 539.032084 255.764775 
L 540.31931 253.564283 
L 541.606537 252.430988 
L 542.893763 252.813998 
L 544.18099 251.775312 
L 545.468216 248.461037 
L 546.755442 263.951985 
L 548.042669 267.360473 
L 549.329895 261.928942 
L 550.617121 255.493282 
L 551.904348 254.943698 
L 553.191574 260.781283 
L 554.478801 262.775166 
L 555.766027 263.976336 
L 557.053253 267.888587 
L 558.34048 269.25053 
L 559.627706 266.605318 
L 560.914933 264.445292 
L 562.202159 265.711388 
L 563.489385 262.137927 
L 564.776612 257.254436 
L 566.063838 258.207884 
L 567.351064 264.524606 
L 568.638291 262.816321 
L 569.925517 258.964523 
L 571.212744 253.326967 
L 572.49997 260.748606 
L 573.787196 264.808988 
L 575.074423 267.749308 
L 576.361649 268.274374 
L 577.648876 259.708046 
L 578.936102 253.862556 
L 580.223328 260.415587 
L 581.510555 264.273605 
L 582.797781 262.80085 
L 584.085007 266.302767 
L 585.372234 270.569955 
L 586.65946 270.223656 
L 587.946687 268.7842 
L 589.233913 270.08297 
L 590.521139 263.364649 
L 591.808366 253.445177 
L 593.095592 258.289663 
L 594.382819 267.256158 
L 595.670045 265.19972 
L 596.957271 260.093169 
L 598.244498 269.341198 
L 599.531724 269.852214 
L 600.818951 266.752185 
L 602.106177 268.105812 
L 603.393403 270.206502 
L 604.68063 275.406019 
L 605.967856 269.375197 
L 607.255082 262.390098 
L 608.542309 266.137877 
L 609.829535 267.597063 
L 611.116762 273.659513 
L 612.403988 274.592265 
L 613.691214 267.976989 
L 614.978441 269.427229 
L 616.265667 275.98972 
L 617.552894 273.743807 
L 618.84012 270.555058 
L 620.127346 262.905969 
L 621.414573 258.908504 
L 623.989025 263.69703 
L 625.276252 259.584772 
L 626.563478 263.1396 
L 627.850705 273.762318 
L 629.137931 278.008264 
L 630.425157 276.217158 
L 631.712384 270.09094 
L 632.99961 264.736424 
L 634.286837 252.592192 
L 635.574063 253.271614 
L 636.861289 266.087865 
L 638.148516 269.023463 
L 639.435742 273.707228 
L 640.722969 279.108505 
L 642.010195 279.292763 
L 644.584648 260.937091 
L 645.871874 270.786907 
L 647.1591 269.74669 
L 648.446327 263.176208 
L 649.733553 268.177611 
L 651.02078 274.676514 
L 652.308006 278.29078 
L 653.595232 280.62153 
L 654.882459 280.008116 
L 656.169685 274.563236 
L 657.456912 273.201883 
L 658.744138 265.529206 
L 660.031364 265.091372 
L 661.318591 265.634464 
L 663.893043 259.580125 
L 665.18027 259.577266 
L 666.467496 266.426898 
L 667.754723 269.359698 
L 669.041949 266.857896 
L 670.329175 261.751629 
L 671.616402 252.344268 
L 672.903628 248.918561 
L 674.190855 254.242861 
L 675.478081 252.960997 
L 676.765307 244.952588 
L 678.052534 246.460388 
L 679.33976 243.30285 
L 680.626987 243.529772 
L 681.914213 245.990353 
L 683.201439 251.832897 
L 684.488666 251.392205 
L 685.775892 243.838185 
L 687.063118 234.50931 
L 688.350345 245.041482 
L 689.637571 253.121687 
L 690.924798 249.598984 
L 692.212024 244.092805 
L 693.49925 253.920998 
L 694.786477 259.996117 
L 696.073703 255.3003 
L 697.36093 249.704417 
L 698.648156 247.942494 
L 699.935382 253.120233 
L 701.222609 257.249853 
L 702.509835 258.67961 
L 703.797061 255.65385 
L 705.084288 250.985523 
L 706.371514 254.704748 
L 707.658741 253.528252 
L 708.945967 257.769095 
L 710.233193 262.539075 
L 711.52042 263.523242 
L 712.807646 261.27376 
L 714.094873 260.162345 
L 715.382099 260.614655 
L 716.669325 262.603713 
L 717.956552 264.237714 
L 719.243778 265.279007 
L 720.531004 260.690697 
L 721.818231 257.776374 
L 723.105457 257.277052 
L 724.392684 264.37245 
L 725.67991 266.161049 
L 726.967136 261.209241 
L 728.254363 259.963008 
L 729.541589 269.832149 
L 730.828816 274.880295 
L 732.116042 275.45106 
L 733.403268 271.898715 
L 734.690495 267.746388 
L 735.977721 264.051931 
L 737.264948 266.684807 
L 738.552174 267.719657 
L 739.8394 266.289642 
L 741.126627 262.370802 
L 742.413853 261.286214 
L 743.701079 268.295171 
L 744.988306 274.213605 
L 746.275532 271.943503 
L 747.562759 260.794965 
L 748.849985 260.54412 
L 750.137211 262.641873 
L 751.424438 274.236949 
L 752.711664 274.924426 
L 753.998891 272.671779 
L 755.286117 271.26529 
L 756.573343 268.816023 
L 757.86057 263.547787 
L 759.147796 259.18253 
L 760.435022 259.336528 
L 761.722249 259.025509 
L 764.296702 251.346918 
L 765.583928 254.612548 
L 766.871154 259.364194 
L 768.158381 260.252583 
L 769.445607 262.24006 
L 770.732834 263.939338 
L 772.02006 259.630344 
L 773.307286 254.874792 
L 774.594513 258.515814 
L 775.881739 260.517665 
L 777.168966 260.5568 
L 778.456192 261.696942 
L 779.743418 263.201565 
L 781.030645 266.520012 
L 782.317871 266.331791 
L 783.605097 267.642868 
L 784.892324 262.780001 
L 786.17955 252.850879 
L 787.466777 250.240852 
L 790.041229 268.289308 
L 791.328456 265.670937 
L 792.615682 257.546723 
L 793.902909 254.428716 
L 795.190135 258.257208 
L 796.477361 266.239279 
L 797.764588 262.856396 
L 799.051814 258.158173 
L 800.33904 263.711921 
L 801.626267 261.221947 
L 802.913493 257.154658 
L 804.20072 261.260825 
L 805.487946 262.220168 
L 806.775172 259.152371 
L 808.062399 259.490643 
L 809.349625 262.052942 
L 810.636852 260.970236 
L 811.924078 255.960133 
L 813.211304 254.639482 
L 814.498531 253.956848 
L 815.785757 250.950957 
L 818.36021 257.021741 
L 819.647436 256.269515 
L 820.934663 252.573464 
L 822.221889 253.287931 
L 823.509115 263.218502 
L 824.796342 262.817955 
L 826.083568 256.356585 
L 827.370795 260.625938 
L 828.658021 268.779442 
L 829.945247 266.745518 
L 831.232474 261.083125 
L 832.5197 261.119886 
L 833.806927 258.936291 
L 835.094153 252.756497 
L 836.381379 258.346353 
L 837.668606 262.929844 
L 838.955832 255.019455 
L 841.530285 275.563346 
L 842.817511 279.64425 
L 844.104738 274.468394 
L 845.391964 268.586373 
L 847.966417 266.42605 
L 849.253643 268.762872 
L 850.54087 270.326505 
L 851.828096 269.182348 
L 853.115322 268.39876 
L 854.402549 269.682673 
L 855.689775 271.144947 
L 856.977001 270.398283 
L 859.551454 265.88892 
L 860.838681 262.954039 
L 862.125907 263.018163 
L 863.413133 259.64768 
L 864.70036 257.706639 
L 865.987586 261.666742 
L 867.274813 262.430343 
L 868.562039 263.925005 
L 869.849265 264.856465 
L 871.136492 255.421078 
L 872.423718 253.845215 
L 873.710945 267.884255 
L 874.998171 262.793154 
L 876.285397 254.490371 
L 877.572624 256.125357 
L 878.85985 253.720438 
L 880.147076 259.610202 
L 881.434303 263.698699 
L 882.721529 268.867643 
L 884.008756 265.588493 
L 885.295982 260.520677 
L 886.583208 263.838546 
L 887.870435 267.952993 
L 889.157661 271.303954 
L 890.444888 279.529719 
L 891.732114 275.659585 
L 893.01934 264.116073 
L 894.306567 254.527497 
L 896.881019 260.729124 
L 898.168246 260.321005 
L 899.455472 263.636053 
L 900.742699 265.574936 
L 902.029925 265.91996 
L 903.317151 261.872186 
L 904.604378 251.735653 
L 905.891604 234.954779 
L 907.178831 237.266257 
L 908.466057 250.390402 
L 909.753283 254.284826 
L 911.04051 252.815913 
L 912.327736 249.769354 
L 913.614963 246.22498 
L 914.902189 245.364622 
L 916.189415 245.212509 
L 917.476642 252.223356 
L 918.763868 254.076254 
L 920.051094 253.507399 
L 921.338321 251.152601 
L 922.625547 251.888878 
L 923.912774 250.743538 
L 923.912774 250.743538 
" clip-path="url(#pcf5e465730)" style="fill: none; stroke: #1f77b4; stroke-width: 1.5; stroke-linecap: square"/>
   </g>
   <g id="line2d_17">
    <path d="M 66.62 261.475862 
L 925.2 261.475862 
" clip-path="url(#pcf5e465730)" style="fill: none; stroke: #ff0000; stroke-opacity: 0.3; stroke-width: 1.5; stroke-linecap: square"/>
   </g>
   <g id="patch_3">
    <path d="M 66.62 312.64 
L 66.62 30.48 
" style="fill: none; stroke: #000000; stroke-width: 0.8; stroke-linejoin: miter; stroke-linecap: square"/>
   </g>
   <g id="patch_4">
    <path d="M 925.2 312.64 
L 925.2 30.48 
" style="fill: none; stroke: #000000; stroke-width: 0.8; stroke-linejoin: miter; stroke-linecap: square"/>
   </g>
   <g id="patch_5">
    <path d="M 66.62 312.64 
L 925.2 312.64 
" style="fill: none; stroke: #000000; stroke-width: 0.8; stroke-linejoin: miter; stroke-linecap: square"/>
   </g>
   <g id="patch_6">
    <path d="M 66.62 30.48 
L 925.2 30.48 
" style="fill: none; stroke: #000000; stroke-width: 0.8; stroke-linejoin: miter; stroke-linecap: square"/>
   </g>
   <g id="text_18">
    <!-- Energy -->
    <g transform="translate(465.6592 24.48) scale(0.1728 -0.1728)">
     <defs>
      <path id="DejaVuSans-45" d="M 628 4666 
L 3578 4666 
L 3578 4134 
L 1259 4134 
L 1259 2753 
L 3481 2753 
L 3481 2222 
L 1259 2222 
L 1259 531 
L 3634 531 
L 3634 0 
L 628 0 
L 628 4666 
z
" transform="scale(0.015625)"/>
     </defs>
     <use xlink:href="#DejaVuSans-45"/>
     <use xlink:href="#DejaVuSans-6e" x="63.183594"/>
     <use xlink:href="#DejaVuSans-65" x="126.5625"/>
     <use xlink:href="#DejaVuSans-72" x="188.085938"/>
     <use xlink:href="#DejaVuSans-67" x="227.449219"/>
     <use xlink:href="#DejaVuSans-79" x="290.925781"/>
    </g>
   </g>
  </g>
  <g id="axes_2">
   <g id="patch_7">
    <path d="M 66.62 667.24 
L 464.94 667.24 
L 464.94 385.08 
L 66.62 385.08 
z
" style="fill: #ffffff"/>
   </g>
   <g id="matplotlib.axis_3">
    <g id="xtick_8">
     <g id="line2d_18">
      <g>
       <use xlink:href="#mdef1ca9845" x="66.62" y="667.24" style="stroke: #000000; stroke-width: 0.8"/>
      </g>
     </g>
     <g id="text_19">
      <!-- 0 -->
      <g transform="translate(62.039 685.18175) scale(0.144 -0.144)">
       <use xlink:href="#DejaVuSans-30"/>
      </g>
     </g>
    </g>
    <g id="xtick_9">
     <g id="line2d_19">
      <g>
       <use xlink:href="#mdef1ca9845" x="126.338141" y="667.24" style="stroke: #000000; stroke-width: 0.8"/>
      </g>
     </g>
     <g id="text_20">
      <!-- 1 -->
      <g transform="translate(121.757141 685.18175) scale(0.144 -0.144)">
       <use xlink:href="#DejaVuSans-31"/>
      </g>
     </g>
    </g>
    <g id="xtick_10">
     <g id="line2d_20">
      <g>
       <use xlink:href="#mdef1ca9845" x="186.056282" y="667.24" style="stroke: #000000; stroke-width: 0.8"/>
      </g>
     </g>
     <g id="text_21">
      <!-- 2 -->
      <g transform="translate(181.475282 685.18175) scale(0.144 -0.144)">
       <use xlink:href="#DejaVuSans-32"/>
      </g>
     </g>
    </g>
    <g id="xtick_11">
     <g id="line2d_21">
      <g>
       <use xlink:href="#mdef1ca9845" x="245.774423" y="667.24" style="stroke: #000000; stroke-width: 0.8"/>
      </g>
     </g>
     <g id="text_22">
      <!-- 3 -->
      <g transform="translate(241.193423 685.18175) scale(0.144 -0.144)">
       <use xlink:href="#DejaVuSans-33"/>
      </g>
     </g>
    </g>
    <g id="xtick_12">
     <g id="line2d_22">
      <g>
       <use xlink:href="#mdef1ca9845" x="305.492564" y="667.24" style="stroke: #000000; stroke-width: 0.8"/>
      </g>
     </g>
     <g id="text_23">
      <!-- 4 -->
      <g transform="translate(300.911564 685.18175) scale(0.144 -0.144)">
       <use xlink:href="#DejaVuSans-34"/>
      </g>
     </g>
    </g>
    <g id="xtick_13">
     <g id="line2d_23">
      <g>
       <use xlink:href="#mdef1ca9845" x="365.210705" y="667.24" style="stroke: #000000; stroke-width: 0.8"/>
      </g>
     </g>
     <g id="text_24">
      <!-- 5 -->
      <g transform="translate(360.629705 685.18175) scale(0.144 -0.144)">
       <use xlink:href="#DejaVuSans-35"/>
      </g>
     </g>
    </g>
    <g id="xtick_14">
     <g id="line2d_24">
      <g>
       <use xlink:href="#mdef1ca9845" x="424.928846" y="667.24" style="stroke: #000000; stroke-width: 0.8"/>
      </g>
     </g>
     <g id="text_25">
      <!-- 6 -->
      <g transform="translate(420.347846 685.18175) scale(0.144 -0.144)">
       <use xlink:href="#DejaVuSans-36"/>
      </g>
     </g>
    </g>
    <g id="text_26">
     <!-- time in a.u. -->
     <g transform="translate(216.63055 705.3066) scale(0.1728 -0.1728)">
      <use xlink:href="#DejaVuSans-74"/>
      <use xlink:href="#DejaVuSans-69" x="39.208984"/>
      <use xlink:href="#DejaVuSans-6d" x="66.992188"/>
      <use xlink:href="#DejaVuSans-65" x="164.404297"/>
      <use xlink:href="#DejaVuSans-20" x="225.927734"/>
      <use xlink:href="#DejaVuSans-69" x="257.714844"/>
      <use xlink:href="#DejaVuSans-6e" x="285.498047"/>
      <use xlink:href="#DejaVuSans-20" x="348.876953"/>
      <use xlink:href="#DejaVuSans-61" x="380.664062"/>
      <use xlink:href="#DejaVuSans-2e" x="441.943359"/>
      <use xlink:href="#DejaVuSans-75" x="473.730469"/>
      <use xlink:href="#DejaVuSans-2e" x="537.109375"/>
     </g>
    </g>
   </g>
   <g id="matplotlib.axis_4">
    <g id="ytick_9">
     <g id="line2d_25">
      <g>
       <use xlink:href="#m7c5fe0b944" x="66.62" y="622.841924" style="stroke: #000000; stroke-width: 0.8"/>
      </g>
     </g>
     <g id="text_27">
      <!-- 0.0 -->
      <g transform="translate(36.7195 628.312799) scale(0.144 -0.144)">
       <use xlink:href="#DejaVuSans-30"/>
       <use xlink:href="#DejaVuSans-2e" x="63.623047"/>
       <use xlink:href="#DejaVuSans-30" x="95.410156"/>
      </g>
     </g>
    </g>
    <g id="ytick_10">
     <g id="line2d_26">
      <g>
       <use xlink:href="#m7c5fe0b944" x="66.62" y="567.792107" style="stroke: #000000; stroke-width: 0.8"/>
      </g>
     </g>
     <g id="text_28">
      <!-- 0.5 -->
      <g transform="translate(36.7195 573.262982) scale(0.144 -0.144)">
       <use xlink:href="#DejaVuSans-30"/>
       <use xlink:href="#DejaVuSans-2e" x="63.623047"/>
       <use xlink:href="#DejaVuSans-35" x="95.410156"/>
      </g>
     </g>
    </g>
    <g id="ytick_11">
     <g id="line2d_27">
      <g>
       <use xlink:href="#m7c5fe0b944" x="66.62" y="512.74229" style="stroke: #000000; stroke-width: 0.8"/>
      </g>
     </g>
     <g id="text_29">
      <!-- 1.0 -->
      <g transform="translate(36.7195 518.213165) scale(0.144 -0.144)">
       <use xlink:href="#DejaVuSans-31"/>
       <use xlink:href="#DejaVuSans-2e" x="63.623047"/>
       <use xlink:href="#DejaVuSans-30" x="95.410156"/>
      </g>
     </g>
    </g>
    <g id="ytick_12">
     <g id="line2d_28">
      <g>
       <use xlink:href="#m7c5fe0b944" x="66.62" y="457.692474" style="stroke: #000000; stroke-width: 0.8"/>
      </g>
     </g>
     <g id="text_30">
      <!-- 1.5 -->
      <g transform="translate(36.7195 463.163349) scale(0.144 -0.144)">
       <use xlink:href="#DejaVuSans-31"/>
       <use xlink:href="#DejaVuSans-2e" x="63.623047"/>
       <use xlink:href="#DejaVuSans-35" x="95.410156"/>
      </g>
     </g>
    </g>
    <g id="ytick_13">
     <g id="line2d_29">
      <g>
       <use xlink:href="#m7c5fe0b944" x="66.62" y="402.642657" style="stroke: #000000; stroke-width: 0.8"/>
      </g>
     </g>
     <g id="text_31">
      <!-- 2.0 -->
      <g transform="translate(36.7195 408.113532) scale(0.144 -0.144)">
       <use xlink:href="#DejaVuSans-32"/>
       <use xlink:href="#DejaVuSans-2e" x="63.623047"/>
       <use xlink:href="#DejaVuSans-30" x="95.410156"/>
      </g>
     </g>
    </g>
    <g id="text_32">
     <!-- pressure in a.u. -->
     <g transform="translate(29.1258 593.09975) rotate(-90) scale(0.1728 -0.1728)">
      <defs>
       <path id="DejaVuSans-70" d="M 1159 525 
L 1159 -1331 
L 581 -1331 
L 581 3500 
L 1159 3500 
L 1159 2969 
Q 1341 3281 1617 3432 
Q 1894 3584 2278 3584 
Q 2916 3584 3314 3078 
Q 3713 2572 3713 1747 
Q 3713 922 3314 415 
Q 2916 -91 2278 -91 
Q 1894 -91 1617 61 
Q 1341 213 1159 525 
z
M 3116 1747 
Q 3116 2381 2855 2742 
Q 2594 3103 2138 3103 
Q 1681 3103 1420 2742 
Q 1159 2381 1159 1747 
Q 1159 1113 1420 752 
Q 1681 391 2138 391 
Q 2594 391 2855 752 
Q 3116 1113 3116 1747 
z
" transform="scale(0.015625)"/>
       <path id="DejaVuSans-73" d="M 2834 3397 
L 2834 2853 
Q 2591 2978 2328 3040 
Q 2066 3103 1784 3103 
Q 1356 3103 1142 2972 
Q 928 2841 928 2578 
Q 928 2378 1081 2264 
Q 1234 2150 1697 2047 
L 1894 2003 
Q 2506 1872 2764 1633 
Q 3022 1394 3022 966 
Q 3022 478 2636 193 
Q 2250 -91 1575 -91 
Q 1294 -91 989 -36 
Q 684 19 347 128 
L 347 722 
Q 666 556 975 473 
Q 1284 391 1588 391 
Q 1994 391 2212 530 
Q 2431 669 2431 922 
Q 2431 1156 2273 1281 
Q 2116 1406 1581 1522 
L 1381 1569 
Q 847 1681 609 1914 
Q 372 2147 372 2553 
Q 372 3047 722 3315 
Q 1072 3584 1716 3584 
Q 2034 3584 2315 3537 
Q 2597 3491 2834 3397 
z
" transform="scale(0.015625)"/>
      </defs>
      <use xlink:href="#DejaVuSans-70"/>
      <use xlink:href="#DejaVuSans-72" x="63.476562"/>
      <use xlink:href="#DejaVuSans-65" x="102.339844"/>
      <use xlink:href="#DejaVuSans-73" x="163.863281"/>
      <use xlink:href="#DejaVuSans-73" x="215.962891"/>
      <use xlink:href="#DejaVuSans-75" x="268.0625"/>
      <use xlink:href="#DejaVuSans-72" x="331.441406"/>
      <use xlink:href="#DejaVuSans-65" x="370.304688"/>
      <use xlink:href="#DejaVuSans-20" x="431.828125"/>
      <use xlink:href="#DejaVuSans-69" x="463.615234"/>
      <use xlink:href="#DejaVuSans-6e" x="491.398438"/>
      <use xlink:href="#DejaVuSans-20" x="554.777344"/>
      <use xlink:href="#DejaVuSans-61" x="586.564453"/>
      <use xlink:href="#DejaVuSans-2e" x="647.84375"/>
      <use xlink:href="#DejaVuSans-75" x="679.630859"/>
      <use xlink:href="#DejaVuSans-2e" x="743.009766"/>
     </g>
    </g>
   </g>
   <g id="line2d_30">
    <path d="M 66.62 408.593333 
L 67.217181 556.840847 
L 67.814363 615.379668 
L 68.411544 632.035049 
L 69.008726 642.181547 
L 69.605907 638.381688 
L 70.203088 630.448923 
L 70.80027 620.568825 
L 71.397451 614.636346 
L 71.994633 614.894201 
L 72.591814 613.337286 
L 73.786177 625.966459 
L 74.383358 629.930085 
L 74.98054 630.68026 
L 75.577721 621.034052 
L 76.174903 600.651496 
L 76.772084 598.935979 
L 77.369265 604.144835 
L 77.966447 593.276089 
L 78.563628 587.008892 
L 79.16081 592.048174 
L 79.757991 608.174809 
L 80.355172 620.780174 
L 80.952354 616.834396 
L 81.549535 602.842035 
L 82.146717 596.449313 
L 82.743898 582.202983 
L 83.341079 593.376018 
L 83.938261 597.197014 
L 84.535442 593.41002 
L 85.132624 597.262455 
L 85.729805 591.388416 
L 86.326987 584.294804 
L 86.924168 610.625443 
L 87.521349 626.050327 
L 88.118531 631.357604 
L 88.715712 627.824447 
L 89.312894 625.924417 
L 89.910075 629.748963 
L 90.507256 630.073227 
L 91.104438 626.893897 
L 91.701619 617.562951 
L 92.895982 575.481406 
L 93.493163 579.750357 
L 94.090345 577.06931 
L 94.687526 582.3597 
L 95.284708 588.731466 
L 95.881889 582.310144 
L 96.47907 581.985334 
L 97.076252 604.569395 
L 97.673433 618.117687 
L 98.270615 617.41138 
L 98.867796 607.135738 
L 99.464978 617.297337 
L 100.062159 615.793452 
L 100.65934 609.633846 
L 101.256522 606.792985 
L 101.853703 615.578123 
L 102.450885 619.509543 
L 103.048066 611.23176 
L 103.645247 592.045513 
L 104.242429 587.190788 
L 104.83961 593.841398 
L 105.436792 585.245242 
L 106.033973 584.994101 
L 106.631154 605.299409 
L 107.228336 608.737221 
L 108.422699 584.987073 
L 109.01988 583.284755 
L 109.617061 584.892116 
L 110.811424 597.482702 
L 111.408606 601.714112 
L 112.005787 598.423485 
L 112.602969 597.82422 
L 113.20015 597.952892 
L 113.797331 605.485486 
L 114.394513 616.496109 
L 114.991694 624.299351 
L 115.588876 625.01005 
L 116.186057 624.200978 
L 116.783238 622.141308 
L 117.977601 601.660795 
L 118.574783 582.52648 
L 119.171964 571.405447 
L 119.769145 574.286956 
L 120.366327 579.946025 
L 120.963508 589.1561 
L 121.56069 595.369258 
L 122.755052 600.851578 
L 123.352234 595.661084 
L 123.949415 579.861153 
L 124.546597 587.767567 
L 125.143778 611.518121 
L 125.74096 629.085615 
L 126.338141 637.31048 
L 126.935322 635.690144 
L 127.532504 626.960934 
L 128.726867 613.071524 
L 129.324048 610.945219 
L 129.921229 610.182288 
L 130.518411 613.617021 
L 131.115592 624.580565 
L 131.712774 624.338609 
L 132.309955 612.18835 
L 132.907136 612.530551 
L 133.504318 607.304467 
L 134.101499 607.521229 
L 134.698681 605.725174 
L 135.295862 598.24131 
L 136.490225 604.920101 
L 137.087406 598.36709 
L 137.684588 597.562764 
L 138.878951 609.485826 
L 139.476132 610.481856 
L 140.073313 605.733808 
L 140.670495 606.539995 
L 141.267676 614.665595 
L 141.864858 620.310279 
L 142.462039 616.257212 
L 143.05922 599.22698 
L 143.656402 593.601102 
L 144.850765 618.085145 
L 145.447946 617.305636 
L 146.045127 606.857223 
L 146.642309 598.86261 
L 147.23949 595.100497 
L 148.433853 580.269064 
L 149.031034 588.806666 
L 149.628216 586.26205 
L 150.225397 578.540546 
L 150.822579 591.528002 
L 151.41976 600.988038 
L 152.614123 611.939619 
L 153.211304 608.873181 
L 153.808486 603.382252 
L 154.405667 606.294408 
L 155.002849 617.615427 
L 155.60003 619.409553 
L 156.197211 608.190238 
L 156.794393 610.409714 
L 157.988756 605.770661 
L 158.585937 608.992164 
L 159.7803 605.302692 
L 160.377481 602.256327 
L 160.974663 603.143644 
L 161.571844 601.039481 
L 162.169025 588.099561 
L 162.766207 578.451967 
L 163.363388 572.164353 
L 163.96057 553.586717 
L 164.557751 570.984294 
L 166.349295 609.390219 
L 166.946477 627.034028 
L 167.543658 630.650129 
L 168.14084 611.438984 
L 168.738021 599.893782 
L 169.335202 608.339388 
L 169.932384 614.26621 
L 170.529565 605.183755 
L 171.126747 589.275917 
L 171.723928 600.625285 
L 173.515472 616.718309 
L 174.112654 615.114833 
L 174.709835 611.464681 
L 175.307016 596.588506 
L 175.904198 596.953681 
L 176.501379 617.522992 
L 177.695742 642.272508 
L 178.292924 632.526237 
L 179.487286 592.581543 
L 180.084468 587.43974 
L 180.681649 578.516221 
L 181.278831 574.789382 
L 181.876012 582.519068 
L 182.473193 582.023199 
L 183.070375 588.539991 
L 183.667556 592.442971 
L 184.264738 599.074472 
L 184.861919 609.98317 
L 185.4591 617.456428 
L 186.056282 619.416309 
L 187.250645 592.513126 
L 188.445007 622.231227 
L 189.042189 630.94971 
L 189.63937 628.01506 
L 190.833733 615.040627 
L 191.430915 603.98786 
L 192.625277 556.903775 
L 193.222459 562.709305 
L 193.81964 580.92933 
L 194.416822 592.246396 
L 195.014003 590.085483 
L 196.208366 614.633722 
L 196.805547 619.053645 
L 197.402729 612.1888 
L 197.99991 608.432364 
L 198.597091 613.961615 
L 199.194273 621.539722 
L 199.791454 627.4922 
L 200.388636 615.218538 
L 200.985817 598.974034 
L 201.582999 590.40209 
L 202.18018 592.641323 
L 202.777361 609.146572 
L 203.374543 602.033666 
L 203.971724 598.152716 
L 204.568906 602.610011 
L 205.166087 602.822192 
L 205.763268 608.891921 
L 206.36045 607.252963 
L 207.554813 582.150618 
L 208.151994 581.637516 
L 208.749175 580.480101 
L 209.943538 622.969522 
L 210.54072 620.946215 
L 211.137901 609.40665 
L 211.735082 603.221111 
L 212.332264 606.909128 
L 212.929445 608.274039 
L 213.526627 608.820581 
L 214.123808 611.11795 
L 214.72099 608.036085 
L 215.318171 608.320604 
L 215.915352 602.798635 
L 216.512534 590.382028 
L 217.109715 587.787707 
L 217.706897 590.715012 
L 218.304078 597.217389 
L 218.901259 595.123107 
L 220.095622 608.370123 
L 220.692804 609.636046 
L 221.289985 609.793526 
L 221.887166 608.41854 
L 222.484348 608.094457 
L 223.678711 593.83983 
L 224.275892 597.457301 
L 224.873073 603.203719 
L 225.470255 606.470917 
L 226.067436 611.630096 
L 226.664618 609.741113 
L 227.261799 598.650208 
L 227.858981 592.683698 
L 228.456162 601.171757 
L 229.053343 597.165239 
L 229.650525 595.292275 
L 230.247706 600.235313 
L 230.844888 608.189406 
L 231.442069 612.287707 
L 232.03925 613.376534 
L 232.636432 601.928067 
L 233.233613 597.642994 
L 233.830795 610.05095 
L 234.427976 610.689786 
L 235.025157 607.02113 
L 235.622339 606.112832 
L 236.21952 608.303619 
L 236.816702 598.903544 
L 237.413883 598.515509 
L 238.011064 596.372395 
L 238.608246 611.663846 
L 239.205427 617.837152 
L 239.802609 617.965891 
L 240.39979 618.500323 
L 240.996972 616.885891 
L 241.594153 625.096976 
L 242.191334 628.151882 
L 242.788516 622.642656 
L 243.385697 609.87246 
L 243.982879 608.513885 
L 244.58006 601.319262 
L 245.774423 577.755238 
L 246.371604 577.656805 
L 246.968786 596.452941 
L 247.565967 599.021836 
L 248.163148 591.365431 
L 248.76033 579.344897 
L 249.357511 581.634259 
L 249.954693 594.43974 
L 250.551874 593.595921 
L 251.149055 588.625287 
L 251.746237 594.491874 
L 252.343418 605.365274 
L 252.9406 613.332589 
L 253.537781 614.95372 
L 254.134963 610.348162 
L 254.732144 608.659003 
L 255.329325 607.407655 
L 255.926507 607.832776 
L 256.523688 616.722579 
L 257.12087 622.025462 
L 257.718051 623.1489 
L 258.315232 624.896426 
L 258.912414 622.788455 
L 259.509595 621.344958 
L 261.301139 586.984494 
L 262.495502 609.968411 
L 263.092684 616.882608 
L 263.689865 612.536298 
L 264.287046 603.302726 
L 264.884228 605.476085 
L 265.481409 603.228708 
L 266.078591 602.910789 
L 266.675772 609.874539 
L 267.272954 619.223662 
L 267.870135 625.280805 
L 268.467316 620.118921 
L 269.064498 598.149313 
L 269.661679 582.194412 
L 270.258861 592.229214 
L 270.856042 605.636703 
L 271.453223 607.869154 
L 272.050405 607.053095 
L 273.244768 609.792618 
L 273.841949 612.088521 
L 275.036312 600.348277 
L 275.633493 608.634957 
L 276.827856 593.384408 
L 277.425037 588.805695 
L 278.022219 599.415113 
L 278.6194 603.81775 
L 279.216582 604.805837 
L 279.813763 613.225352 
L 280.410945 624.175166 
L 281.008126 626.676804 
L 281.605307 622.027717 
L 282.202489 611.964665 
L 282.79967 607.976673 
L 283.396852 607.809569 
L 283.994033 611.538365 
L 284.591214 614.079261 
L 285.188396 602.974326 
L 285.785577 596.788074 
L 286.382759 593.282149 
L 286.97994 593.611278 
L 287.577121 594.619176 
L 288.174303 593.677236 
L 288.771484 618.899209 
L 289.368666 627.634004 
L 289.965847 620.338591 
L 290.563028 609.654001 
L 291.16021 607.896775 
L 291.757391 617.037017 
L 292.354573 621.94719 
L 292.951754 624.793248 
L 293.548936 630.267702 
L 294.146117 631.179487 
L 294.743298 624.50147 
L 295.34048 616.295038 
L 295.937661 612.16308 
L 297.132024 591.424129 
L 297.729205 590.059486 
L 298.326387 597.824676 
L 298.923568 595.277211 
L 299.52075 589.427503 
L 300.117931 582.156009 
L 300.715112 594.632721 
L 301.312294 604.669955 
L 301.909475 611.865367 
L 302.506657 613.666247 
L 303.103838 602.053188 
L 303.701019 593.571415 
L 304.298201 603.305629 
L 304.895382 611.084055 
L 305.492564 610.669907 
L 306.089745 616.344063 
L 306.686927 623.36429 
L 307.284108 623.556923 
L 307.881289 620.124531 
L 308.478471 618.669889 
L 309.075652 606.223076 
L 309.672834 588.812653 
L 310.270015 592.233081 
L 310.867196 603.577281 
L 311.464378 600.922833 
L 312.061559 592.335332 
L 312.658741 602.183888 
L 313.255922 600.521199 
L 313.853103 592.570496 
L 314.450285 591.209887 
L 315.047466 591.983906 
L 315.644648 597.498851 
L 316.83901 580.071991 
L 318.033373 598.671555 
L 318.630555 614.714952 
L 319.227736 623.650145 
L 319.824918 620.340141 
L 320.422099 624.939769 
L 321.01928 634.876945 
L 321.616462 630.060289 
L 322.213643 620.980581 
L 322.810825 605.571595 
L 323.408006 596.289857 
L 324.005187 598.093646 
L 324.602369 602.514816 
L 325.19955 600.553572 
L 325.796732 610.811377 
L 326.393913 632.28963 
L 326.991094 643.726667 
L 327.588276 642.441317 
L 328.782639 618.355882 
L 329.37982 597.06077 
L 329.977001 594.690687 
L 330.574183 612.025571 
L 331.768546 623.128063 
L 332.365727 627.45465 
L 332.962909 622.138055 
L 334.157271 582.368501 
L 334.754453 591.023406 
L 335.351634 589.29162 
L 335.948816 580.537516 
L 336.545997 588.882771 
L 337.143178 601.798779 
L 337.74036 610.937945 
L 338.337541 617.040172 
L 338.934723 617.649924 
L 339.531904 609.354275 
L 340.129085 604.885424 
L 340.726267 591.773379 
L 341.323448 588.887225 
L 341.92063 590.20344 
L 342.517811 589.481829 
L 343.114993 592.211595 
L 343.712174 602.252725 
L 344.309355 622.623397 
L 344.906537 635.915695 
L 345.503718 637.322528 
L 346.1009 631.139407 
L 346.698081 617.036694 
L 347.295262 610.730096 
L 347.892444 617.870804 
L 348.489625 617.269932 
L 349.086807 606.655063 
L 349.683988 609.146322 
L 350.281169 606.838191 
L 350.878351 608.842267 
L 351.475532 613.3067 
L 352.072714 621.065059 
L 352.669895 618.683498 
L 353.267076 605.188998 
L 353.864258 588.766897 
L 355.058621 612.875167 
L 355.655802 608.045801 
L 356.252984 599.428373 
L 356.850165 612.716019 
L 357.447346 622.472085 
L 358.044528 615.901881 
L 358.641709 606.415515 
L 359.238891 603.098899 
L 360.433253 616.344784 
L 361.030435 617.205849 
L 361.627616 610.9648 
L 362.224798 601.541507 
L 362.821979 604.832595 
L 363.41916 603.711013 
L 364.613523 618.556571 
L 365.210705 620.130984 
L 366.405067 611.118463 
L 367.002249 609.033529 
L 367.59943 609.428136 
L 368.196612 609.092248 
L 368.793793 607.268937 
L 369.390975 597.060224 
L 369.988156 589.185996 
L 370.585337 586.420971 
L 371.182519 596.193321 
L 371.7797 600.333624 
L 372.376882 595.905773 
L 372.974063 597.415847 
L 373.571244 616.442943 
L 374.168426 629.668928 
L 374.765607 633.820405 
L 375.362789 628.930924 
L 376.557151 612.195035 
L 377.154333 612.21156 
L 377.751514 609.478212 
L 378.348696 602.323741 
L 378.945877 591.714456 
L 379.543058 587.173768 
L 380.14024 595.932432 
L 380.737421 602.81155 
L 381.334603 598.033155 
L 381.931784 580.666352 
L 382.528966 580.98105 
L 383.126147 589.858233 
L 383.723328 615.063776 
L 384.32051 626.242351 
L 384.917691 630.336512 
L 385.514873 632.780698 
L 386.112054 631.183005 
L 387.306417 614.36495 
L 388.50078 609.493727 
L 389.695142 598.859369 
L 390.292324 605.228142 
L 390.889505 614.802031 
L 392.083868 621.152375 
L 392.681049 622.023745 
L 393.278231 613.773475 
L 393.875412 603.941394 
L 394.472594 606.563802 
L 395.069775 608.647319 
L 395.666957 607.54269 
L 396.264138 607.554013 
L 396.861319 608.536248 
L 397.458501 612.532844 
L 398.652864 608.322925 
L 399.250045 597.306408 
L 399.847226 580.235644 
L 400.444408 575.836661 
L 401.638771 608.950011 
L 402.235952 609.981104 
L 402.833133 601.079668 
L 403.430315 598.627355 
L 404.027496 606.87876 
L 404.624678 621.401648 
L 405.221859 619.787322 
L 405.81904 613.595907 
L 406.416222 620.656867 
L 407.013403 617.971949 
L 407.610585 612.391662 
L 408.207766 618.03932 
L 408.804948 619.791505 
L 409.402129 615.076593 
L 409.99931 614.109374 
L 410.596492 616.521828 
L 411.193673 614.055768 
L 411.790855 605.876658 
L 412.388036 603.100219 
L 412.985217 602.984079 
L 413.582399 600.822177 
L 414.776762 615.49827 
L 415.373943 617.691247 
L 415.971124 615.526357 
L 416.568306 619.272308 
L 417.165487 635.799327 
L 417.762669 637.07733 
L 418.35985 625.777595 
L 418.957031 625.79017 
L 419.554213 630.050214 
L 420.151394 618.381565 
L 420.748576 598.431626 
L 422.54012 558.806688 
L 423.137301 565.386582 
L 423.734483 575.161761 
L 424.331664 568.452946 
L 425.526027 603.145813 
L 426.123208 611.953546 
L 426.72039 606.625428 
L 427.317571 599.633823 
L 427.914753 601.286567 
L 428.511934 605.366662 
L 429.706297 623.646666 
L 430.303478 626.901048 
L 430.90066 629.049308 
L 431.497841 632.663328 
L 432.095022 634.988144 
L 432.692204 632.397168 
L 433.289385 625.357194 
L 434.483748 606.562812 
L 435.08093 601.537254 
L 435.678111 594.157623 
L 436.275292 590.565351 
L 436.872474 596.596803 
L 438.066837 601.167952 
L 438.664018 601.686149 
L 439.261199 588.33303 
L 439.858381 584.272631 
L 440.455562 601.681017 
L 441.052744 593.274807 
L 441.649925 577.528597 
L 442.247106 576.416477 
L 442.844288 572.747833 
L 443.441469 580.062173 
L 444.038651 584.572549 
L 444.635832 591.165339 
L 445.233013 586.832043 
L 445.830195 580.465035 
L 446.427376 587.078656 
L 447.621739 605.695988 
L 448.218921 619.651076 
L 448.816102 614.907593 
L 450.010465 581.484708 
L 450.607646 585.84037 
L 451.204828 594.701553 
L 451.802009 601.550438 
L 452.996372 625.648694 
L 453.593553 631.172451 
L 454.190735 626.443386 
L 454.787916 610.344977 
L 455.385097 584.337836 
L 455.982279 585.788698 
L 456.57946 606.242701 
L 457.176642 615.717508 
L 457.773823 615.885446 
L 458.371004 612.966433 
L 458.968186 609.036933 
L 459.565367 609.402922 
L 460.162549 611.696994 
L 460.75973 623.577711 
L 461.356912 627.981489 
L 461.954093 626.800852 
L 462.551274 620.972188 
L 463.148456 617.38951 
L 463.745637 609.918804 
L 464.342819 599.369897 
L 464.342819 599.369897 
" clip-path="url(#p3971750465)" style="fill: none; stroke: #1f77b4; stroke-width: 1.5; stroke-linecap: square"/>
   </g>
   <g id="line2d_31">
    <path d="M 66.62 605.550279 
L 464.94 605.550279 
" clip-path="url(#p3971750465)" style="fill: none; stroke: #ff0000; stroke-opacity: 0.3; stroke-width: 1.5; stroke-linecap: square"/>
   </g>
   <g id="patch_8">
    <path d="M 66.62 667.24 
L 66.62 385.08 
" style="fill: none; stroke: #000000; stroke-width: 0.8; stroke-linejoin: miter; stroke-linecap: square"/>
   </g>
   <g id="patch_9">
    <path d="M 464.94 667.24 
L 464.94 385.08 
" style="fill: none; stroke: #000000; stroke-width: 0.8; stroke-linejoin: miter; stroke-linecap: square"/>
   </g>
   <g id="patch_10">
    <path d="M 66.62 667.24 
L 464.94 667.24 
" style="fill: none; stroke: #000000; stroke-width: 0.8; stroke-linejoin: miter; stroke-linecap: square"/>
   </g>
   <g id="patch_11">
    <path d="M 66.62 385.08 
L 464.94 385.08 
" style="fill: none; stroke: #000000; stroke-width: 0.8; stroke-linejoin: miter; stroke-linecap: square"/>
   </g>
   <g id="text_33">
    <!-- Pressure -->
    <g transform="translate(228.89665 379.08) scale(0.1728 -0.1728)">
     <defs>
      <path id="DejaVuSans-50" d="M 1259 4147 
L 1259 2394 
L 2053 2394 
Q 2494 2394 2734 2622 
Q 2975 2850 2975 3272 
Q 2975 3691 2734 3919 
Q 2494 4147 2053 4147 
L 1259 4147 
z
M 628 4666 
L 2053 4666 
Q 2838 4666 3239 4311 
Q 3641 3956 3641 3272 
Q 3641 2581 3239 2228 
Q 2838 1875 2053 1875 
L 1259 1875 
L 1259 0 
L 628 0 
L 628 4666 
z
" transform="scale(0.015625)"/>
     </defs>
     <use xlink:href="#DejaVuSans-50"/>
     <use xlink:href="#DejaVuSans-72" x="58.552734"/>
     <use xlink:href="#DejaVuSans-65" x="97.416016"/>
     <use xlink:href="#DejaVuSans-73" x="158.939453"/>
     <use xlink:href="#DejaVuSans-73" x="211.039062"/>
     <use xlink:href="#DejaVuSans-75" x="263.138672"/>
     <use xlink:href="#DejaVuSans-72" x="326.517578"/>
     <use xlink:href="#DejaVuSans-65" x="365.380859"/>
    </g>
   </g>
  </g>
  <g id="axes_3">
   <g id="patch_12">
    <path d="M 526.88 667.24 
L 925.2 667.24 
L 925.2 385.08 
L 526.88 385.08 
z
" style="fill: #ffffff"/>
   </g>
   <g id="matplotlib.axis_5">
    <g id="xtick_15">
     <g id="line2d_32">
      <g>
       <use xlink:href="#mdef1ca9845" x="526.88" y="667.24" style="stroke: #000000; stroke-width: 0.8"/>
      </g>
     </g>
     <g id="text_34">
      <!-- 0 -->
      <g transform="translate(522.299 685.18175) scale(0.144 -0.144)">
       <use xlink:href="#DejaVuSans-30"/>
      </g>
     </g>
    </g>
    <g id="xtick_16">
     <g id="line2d_33">
      <g>
       <use xlink:href="#mdef1ca9845" x="586.598141" y="667.24" style="stroke: #000000; stroke-width: 0.8"/>
      </g>
     </g>
     <g id="text_35">
      <!-- 1 -->
      <g transform="translate(582.017141 685.18175) scale(0.144 -0.144)">
       <use xlink:href="#DejaVuSans-31"/>
      </g>
     </g>
    </g>
    <g id="xtick_17">
     <g id="line2d_34">
      <g>
       <use xlink:href="#mdef1ca9845" x="646.316282" y="667.24" style="stroke: #000000; stroke-width: 0.8"/>
      </g>
     </g>
     <g id="text_36">
      <!-- 2 -->
      <g transform="translate(641.735282 685.18175) scale(0.144 -0.144)">
       <use xlink:href="#DejaVuSans-32"/>
      </g>
     </g>
    </g>
    <g id="xtick_18">
     <g id="line2d_35">
      <g>
       <use xlink:href="#mdef1ca9845" x="706.034423" y="667.24" style="stroke: #000000; stroke-width: 0.8"/>
      </g>
     </g>
     <g id="text_37">
      <!-- 3 -->
      <g transform="translate(701.453423 685.18175) scale(0.144 -0.144)">
       <use xlink:href="#DejaVuSans-33"/>
      </g>
     </g>
    </g>
    <g id="xtick_19">
     <g id="line2d_36">
      <g>
       <use xlink:href="#mdef1ca9845" x="765.752564" y="667.24" style="stroke: #000000; stroke-width: 0.8"/>
      </g>
     </g>
     <g id="text_38">
      <!-- 4 -->
      <g transform="translate(761.171564 685.18175) scale(0.144 -0.144)">
       <use xlink:href="#DejaVuSans-34"/>
      </g>
     </g>
    </g>
    <g id="xtick_20">
     <g id="line2d_37">
      <g>
       <use xlink:href="#mdef1ca9845" x="825.470705" y="667.24" style="stroke: #000000; stroke-width: 0.8"/>
      </g>
     </g>
     <g id="text_39">
      <!-- 5 -->
      <g transform="translate(820.889705 685.18175) scale(0.144 -0.144)">
       <use xlink:href="#DejaVuSans-35"/>
      </g>
     </g>
    </g>
    <g id="xtick_21">
     <g id="line2d_38">
      <g>
       <use xlink:href="#mdef1ca9845" x="885.188846" y="667.24" style="stroke: #000000; stroke-width: 0.8"/>
      </g>
     </g>
     <g id="text_40">
      <!-- 6 -->
      <g transform="translate(880.607846 685.18175) scale(0.144 -0.144)">
       <use xlink:href="#DejaVuSans-36"/>
      </g>
     </g>
    </g>
    <g id="text_41">
     <!-- time in a.u. -->
     <g transform="translate(676.89055 705.3066) scale(0.1728 -0.1728)">
      <use xlink:href="#DejaVuSans-74"/>
      <use xlink:href="#DejaVuSans-69" x="39.208984"/>
      <use xlink:href="#DejaVuSans-6d" x="66.992188"/>
      <use xlink:href="#DejaVuSans-65" x="164.404297"/>
      <use xlink:href="#DejaVuSans-20" x="225.927734"/>
      <use xlink:href="#DejaVuSans-69" x="257.714844"/>
      <use xlink:href="#DejaVuSans-6e" x="285.498047"/>
      <use xlink:href="#DejaVuSans-20" x="348.876953"/>
      <use xlink:href="#DejaVuSans-61" x="380.664062"/>
      <use xlink:href="#DejaVuSans-2e" x="441.943359"/>
      <use xlink:href="#DejaVuSans-75" x="473.730469"/>
      <use xlink:href="#DejaVuSans-2e" x="537.109375"/>
     </g>
    </g>
   </g>
   <g id="matplotlib.axis_6">
    <g id="ytick_14">
     <g id="line2d_39">
      <g>
       <use xlink:href="#m7c5fe0b944" x="526.88" y="620.759836" style="stroke: #000000; stroke-width: 0.8"/>
      </g>
     </g>
     <g id="text_42">
      <!-- 1.0 -->
      <g transform="translate(496.9795 626.230711) scale(0.144 -0.144)">
       <use xlink:href="#DejaVuSans-31"/>
       <use xlink:href="#DejaVuSans-2e" x="63.623047"/>
       <use xlink:href="#DejaVuSans-30" x="95.410156"/>
      </g>
     </g>
    </g>
    <g id="ytick_15">
     <g id="line2d_40">
      <g>
       <use xlink:href="#m7c5fe0b944" x="526.88" y="570.832959" style="stroke: #000000; stroke-width: 0.8"/>
      </g>
     </g>
     <g id="text_43">
      <!-- 1.2 -->
      <g transform="translate(496.9795 576.303834) scale(0.144 -0.144)">
       <use xlink:href="#DejaVuSans-31"/>
       <use xlink:href="#DejaVuSans-2e" x="63.623047"/>
       <use xlink:href="#DejaVuSans-32" x="95.410156"/>
      </g>
     </g>
    </g>
    <g id="ytick_16">
     <g id="line2d_41">
      <g>
       <use xlink:href="#m7c5fe0b944" x="526.88" y="520.906082" style="stroke: #000000; stroke-width: 0.8"/>
      </g>
     </g>
     <g id="text_44">
      <!-- 1.4 -->
      <g transform="translate(496.9795 526.376957) scale(0.144 -0.144)">
       <use xlink:href="#DejaVuSans-31"/>
       <use xlink:href="#DejaVuSans-2e" x="63.623047"/>
       <use xlink:href="#DejaVuSans-34" x="95.410156"/>
      </g>
     </g>
    </g>
    <g id="ytick_17">
     <g id="line2d_42">
      <g>
       <use xlink:href="#m7c5fe0b944" x="526.88" y="470.979205" style="stroke: #000000; stroke-width: 0.8"/>
      </g>
     </g>
     <g id="text_45">
      <!-- 1.6 -->
      <g transform="translate(496.9795 476.45008) scale(0.144 -0.144)">
       <use xlink:href="#DejaVuSans-31"/>
       <use xlink:href="#DejaVuSans-2e" x="63.623047"/>
       <use xlink:href="#DejaVuSans-36" x="95.410156"/>
      </g>
     </g>
    </g>
    <g id="ytick_18">
     <g id="line2d_43">
      <g>
       <use xlink:href="#m7c5fe0b944" x="526.88" y="421.052328" style="stroke: #000000; stroke-width: 0.8"/>
      </g>
     </g>
     <g id="text_46">
      <!-- 1.8 -->
      <g transform="translate(496.9795 426.523203) scale(0.144 -0.144)">
       <use xlink:href="#DejaVuSans-31"/>
       <use xlink:href="#DejaVuSans-2e" x="63.623047"/>
       <use xlink:href="#DejaVuSans-38" x="95.410156"/>
      </g>
     </g>
    </g>
    <g id="text_47">
     <!-- temperature in a.u. -->
     <g transform="translate(489.3858 610.09355) rotate(-90) scale(0.1728 -0.1728)">
      <use xlink:href="#DejaVuSans-74"/>
      <use xlink:href="#DejaVuSans-65" x="39.208984"/>
      <use xlink:href="#DejaVuSans-6d" x="100.732422"/>
      <use xlink:href="#DejaVuSans-70" x="198.144531"/>
      <use xlink:href="#DejaVuSans-65" x="261.621094"/>
      <use xlink:href="#DejaVuSans-72" x="323.144531"/>
      <use xlink:href="#DejaVuSans-61" x="364.257812"/>
      <use xlink:href="#DejaVuSans-74" x="425.537109"/>
      <use xlink:href="#DejaVuSans-75" x="464.746094"/>
      <use xlink:href="#DejaVuSans-72" x="528.125"/>
      <use xlink:href="#DejaVuSans-65" x="566.988281"/>
      <use xlink:href="#DejaVuSans-20" x="628.511719"/>
      <use xlink:href="#DejaVuSans-69" x="660.298828"/>
      <use xlink:href="#DejaVuSans-6e" x="688.082031"/>
      <use xlink:href="#DejaVuSans-20" x="751.460938"/>
      <use xlink:href="#DejaVuSans-61" x="783.248047"/>
      <use xlink:href="#DejaVuSans-2e" x="844.527344"/>
      <use xlink:href="#DejaVuSans-75" x="876.314453"/>
      <use xlink:href="#DejaVuSans-2e" x="939.693359"/>
     </g>
    </g>
   </g>
   <g id="line2d_44">
    <path d="M 526.88 408.593333 
L 527.477181 529.312207 
L 528.074363 603.009763 
L 528.671544 630.471035 
L 529.268726 626.962212 
L 529.865907 634.476574 
L 530.463088 633.207946 
L 531.06027 632.549937 
L 531.657451 627.742086 
L 532.254633 621.914558 
L 532.851814 624.876743 
L 533.448996 616.81618 
L 534.046177 617.75459 
L 534.643358 617.855246 
L 535.24054 618.163439 
L 535.837721 625.585392 
L 536.434903 634.97625 
L 537.032084 616.04689 
L 537.629265 611.462245 
L 538.226447 628.703541 
L 538.823628 623.74638 
L 540.017991 606.023549 
L 540.615172 608.981315 
L 541.212354 622.906545 
L 541.809535 630.729189 
L 542.406717 622.741105 
L 543.003898 632.975154 
L 543.601079 607.20838 
L 544.198261 617.445317 
L 544.795442 624.456913 
L 545.392624 615.850648 
L 545.989805 627.416809 
L 546.586987 631.152361 
L 547.184168 599.738506 
L 547.781349 613.092362 
L 548.975712 626.22835 
L 549.572894 622.899925 
L 550.170075 616.50477 
L 550.767256 619.114941 
L 551.364438 620.166352 
L 551.961619 623.417733 
L 552.558801 631.80203 
L 553.155982 635.599501 
L 553.753163 610.881241 
L 554.350345 622.993357 
L 554.947526 615.489858 
L 555.544708 615.320904 
L 556.141889 629.695258 
L 556.73907 625.043294 
L 557.336252 604.438287 
L 559.127796 633.445574 
L 559.724978 611.680777 
L 560.322159 623.983258 
L 560.91934 626.332906 
L 561.516522 622.474143 
L 562.113703 610.535627 
L 562.710885 614.512554 
L 563.905247 632.845293 
L 564.502429 619.483322 
L 565.09961 611.707566 
L 565.696792 629.461126 
L 566.293973 621.179223 
L 566.891154 600.902494 
L 567.488336 617.444892 
L 568.085517 630.800704 
L 568.682699 628.048392 
L 569.27988 621.109857 
L 569.877061 621.375324 
L 570.474243 618.436997 
L 571.071424 619.735925 
L 571.668606 620.489185 
L 572.265787 626.910275 
L 572.862969 623.486345 
L 573.46015 623.768128 
L 574.057331 616.277671 
L 574.654513 612.788765 
L 575.251694 614.868426 
L 575.848876 619.817868 
L 576.446057 618.896998 
L 577.043238 618.260312 
L 577.64042 624.09617 
L 578.237601 624.690905 
L 578.834783 633.632894 
L 579.431964 626.230203 
L 580.029145 614.596322 
L 580.626327 615.594463 
L 581.223508 613.82736 
L 581.82069 617.415185 
L 582.417871 620.119508 
L 583.015052 620.112971 
L 583.612234 627.551516 
L 584.209415 638.950135 
L 584.806597 616.422414 
L 585.403778 604.165626 
L 586.598141 616.666752 
L 587.195322 622.470173 
L 587.792504 626.61676 
L 588.389685 623.38373 
L 588.986867 624.594071 
L 589.584048 620.316254 
L 590.181229 620.629328 
L 590.778411 616.952931 
L 591.375592 608.621928 
L 592.569955 628.570446 
L 593.167136 615.016455 
L 593.764318 622.594025 
L 594.361499 616.91417 
L 594.958681 619.645432 
L 595.555862 626.110028 
L 596.153043 615.656491 
L 596.750225 617.967283 
L 597.347406 628.44042 
L 598.541769 619.045322 
L 599.138951 619.118753 
L 600.333313 628.644087 
L 600.930495 622.821724 
L 601.527676 615.676693 
L 602.124858 616.835427 
L 602.722039 623.722897 
L 603.31922 635.205905 
L 603.916402 624.267824 
L 604.513583 608.022826 
L 605.110765 610.931745 
L 605.707946 620.764568 
L 606.305127 627.693908 
L 606.902309 623.91106 
L 607.49949 619.351044 
L 608.096672 623.602386 
L 608.693853 624.624357 
L 609.291034 610.26704 
L 609.888216 623.772306 
L 610.485397 629.18371 
L 611.082579 609.118739 
L 611.67976 615.225082 
L 612.276942 618.498308 
L 612.874123 617.666038 
L 613.471304 625.821018 
L 614.068486 628.018736 
L 615.262849 612.186141 
L 615.86003 620.992179 
L 616.457211 632.263068 
L 617.054393 616.796084 
L 617.651574 621.456564 
L 618.248756 620.58344 
L 618.845937 614.151033 
L 619.443118 619.316094 
L 620.0403 618.00698 
L 620.637481 619.571478 
L 621.234663 615.771085 
L 621.831844 619.02584 
L 622.429025 629.921529 
L 623.026207 625.899864 
L 623.623388 623.358564 
L 624.22057 639.047843 
L 624.817751 605.844955 
L 625.414933 617.15464 
L 626.012114 619.855402 
L 626.609295 614.257029 
L 627.206477 610.526642 
L 627.803658 620.800218 
L 628.40084 639.848449 
L 628.998021 630.936397 
L 629.595202 613.459962 
L 630.192384 617.620552 
L 630.789565 631.514395 
L 631.386747 638.146335 
L 631.983928 610.923706 
L 632.581109 619.301539 
L 633.178291 619.195046 
L 633.775472 616.401712 
L 634.372654 622.799231 
L 634.969835 622.33118 
L 635.567016 633.745555 
L 636.164198 619.641737 
L 636.761379 602.83774 
L 637.358561 612.111283 
L 637.955742 608.215376 
L 638.552924 626.271067 
L 639.150105 631.838951 
L 639.747286 631.215985 
L 640.344468 617.744995 
L 640.941649 624.846829 
L 641.538831 621.533749 
L 642.136012 612.397356 
L 642.733193 623.606352 
L 643.330375 617.049498 
L 643.927556 621.438787 
L 644.524738 619.272946 
L 645.121919 614.840069 
L 645.7191 617.437812 
L 646.316282 620.751631 
L 646.913463 633.769732 
L 647.510645 636.23969 
L 648.107826 608.207857 
L 648.705007 610.163278 
L 649.302189 614.241046 
L 649.89937 622.717316 
L 650.496552 623.602872 
L 651.093733 619.95499 
L 651.690915 623.069527 
L 652.288096 635.757609 
L 652.885277 635.506238 
L 653.482459 612.623389 
L 654.07964 607.153431 
L 654.676822 616.849158 
L 655.274003 630.083383 
L 655.871184 614.458004 
L 656.468366 611.872012 
L 657.065547 618.831052 
L 657.662729 628.362792 
L 658.25991 624.75223 
L 658.857091 616.896045 
L 659.454273 615.559732 
L 660.051454 615.541641 
L 660.648636 631.604082 
L 661.245817 632.982327 
L 662.44018 617.693006 
L 663.037361 604.611138 
L 663.634543 629.169231 
L 664.231724 623.797583 
L 664.828906 615.985078 
L 665.426087 621.118945 
L 666.023268 614.465303 
L 666.62045 621.735285 
L 667.217631 631.134041 
L 667.814813 630.707751 
L 668.411994 620.06292 
L 669.009175 624.526893 
L 669.606357 604.808867 
L 670.203538 604.488836 
L 670.80072 625.86153 
L 671.397901 631.409602 
L 671.995082 625.032243 
L 672.592264 615.514046 
L 673.189445 618.624574 
L 673.786627 618.655113 
L 674.383808 616.353232 
L 674.98099 622.003593 
L 675.578171 617.466498 
L 676.772534 629.017011 
L 677.369715 618.64793 
L 677.966897 614.965486 
L 678.564078 612.875354 
L 679.161259 623.434138 
L 679.758441 616.059168 
L 680.355622 617.571455 
L 680.952804 622.618683 
L 681.549985 621.808474 
L 682.147166 621.592467 
L 682.744348 618.946185 
L 683.341529 625.878854 
L 683.938711 625.895701 
L 684.535892 616.722214 
L 685.133073 616.221417 
L 685.730255 619.132248 
L 686.327436 616.653919 
L 686.924618 623.226227 
L 687.521799 631.522016 
L 688.118981 625.886862 
L 688.716162 611.320926 
L 689.313343 625.140082 
L 689.910525 622.761588 
L 690.507706 617.309413 
L 691.104888 614.986207 
L 691.702069 618.517516 
L 692.29925 620.451495 
L 692.896432 633.158282 
L 693.493613 626.099394 
L 694.090795 610.040556 
L 694.687976 622.429637 
L 695.285157 624.834667 
L 696.47952 617.46634 
L 697.076702 629.438029 
L 697.673883 619.987078 
L 698.271064 624.27697 
L 698.868246 607.231288 
L 699.465427 617.42493 
L 700.062609 622.040748 
L 700.65979 621.218253 
L 701.256972 624.126773 
L 701.854153 613.668132 
L 702.451334 617.48759 
L 703.645697 627.233191 
L 704.242879 614.692365 
L 704.84006 622.11866 
L 705.437241 626.498439 
L 706.034423 628.696066 
L 706.631604 619.647523 
L 707.228786 604.07638 
L 707.825967 621.052013 
L 708.423148 628.744524 
L 709.02033 632.536012 
L 709.617511 618.419127 
L 710.214693 609.340567 
L 710.811874 624.042199 
L 711.409055 627.710372 
L 712.006237 617.84117 
L 712.603418 614.701292 
L 713.2006 617.964199 
L 714.394963 627.612709 
L 714.992144 623.445006 
L 715.589325 623.287466 
L 716.186507 622.370273 
L 716.783688 614.547834 
L 717.38087 618.24274 
L 717.978051 620.706811 
L 718.575232 618.06162 
L 719.172414 620.257444 
L 719.769595 617.485535 
L 720.366777 626.737195 
L 720.963958 626.158375 
L 721.561139 629.9604 
L 722.158321 609.033119 
L 722.755502 611.675509 
L 723.352684 615.973425 
L 723.949865 625.693764 
L 724.547046 629.1885 
L 725.144228 617.225423 
L 725.741409 623.035348 
L 726.338591 621.430805 
L 726.935772 615.048932 
L 727.532954 612.95948 
L 728.130135 614.407115 
L 728.727316 622.884327 
L 729.324498 638.025411 
L 729.921679 632.770429 
L 730.518861 610.526393 
L 731.116042 611.060391 
L 731.713223 622.58611 
L 732.310405 624.226312 
L 732.907586 621.501836 
L 733.504768 620.773537 
L 734.101949 619.054464 
L 734.69913 626.9278 
L 735.296312 627.045592 
L 735.893493 612.218523 
L 736.490675 629.496643 
L 737.087856 627.398599 
L 737.685037 626.536926 
L 738.282219 612.359135 
L 738.8794 620.337644 
L 739.476582 623.73653 
L 740.073763 616.294582 
L 740.670945 613.559614 
L 741.268126 620.21655 
L 742.462489 627.960111 
L 743.05967 621.716163 
L 743.656852 619.160511 
L 744.254033 615.114278 
L 744.851214 615.937405 
L 745.448396 629.384748 
L 746.045577 623.663035 
L 746.642759 622.352481 
L 747.23994 620.380766 
L 747.837121 621.724468 
L 748.434303 625.76549 
L 749.031484 599.519089 
L 749.628666 616.050304 
L 750.225847 628.138738 
L 750.823028 629.480542 
L 752.017391 612.783006 
L 752.614573 617.98379 
L 753.211754 619.196505 
L 753.808936 615.443089 
L 754.406117 618.878353 
L 755.003298 624.310285 
L 755.60048 623.848845 
L 756.197661 618.979817 
L 756.794843 625.60254 
L 757.392024 627.337789 
L 758.586387 612.043283 
L 759.183568 623.180441 
L 760.377931 628.681506 
L 760.975112 610.609482 
L 761.572294 615.285618 
L 762.169475 616.763453 
L 762.766657 619.986957 
L 763.363838 632.264822 
L 763.961019 628.879903 
L 764.558201 611.892555 
L 765.155382 615.34102 
L 765.752564 622.82635 
L 766.349745 616.033013 
L 766.946927 614.949784 
L 767.544108 621.15409 
L 768.141289 622.853891 
L 768.738471 618.966513 
L 769.335652 629.701139 
L 769.932834 634.38843 
L 770.530015 614.309503 
L 771.127196 608.555633 
L 771.724378 623.230796 
L 772.321559 628.105103 
L 772.918741 608.033346 
L 773.515922 620.007652 
L 774.113103 625.046612 
L 774.710285 618.821549 
L 775.307466 618.173807 
L 775.904648 613.548417 
L 776.501829 628.771502 
L 777.09901 630.514156 
L 777.696192 615.460095 
L 778.293373 618.886099 
L 778.890555 612.575103 
L 779.487736 619.305394 
L 780.084918 629.788437 
L 780.682099 618.991632 
L 781.27928 611.634926 
L 781.876462 623.916852 
L 782.473643 624.984186 
L 783.070825 631.134291 
L 783.668006 626.280381 
L 784.265187 617.55317 
L 784.862369 617.439168 
L 785.45955 626.378998 
L 786.653913 606.273869 
L 787.848276 623.15898 
L 788.445457 629.201737 
L 789.042639 628.084331 
L 789.63982 637.290121 
L 790.834183 603.191561 
L 791.431364 616.780855 
L 792.028546 614.456 
L 792.625727 613.476434 
L 793.222909 620.529747 
L 793.82009 633.087235 
L 794.417271 633.530071 
L 795.014453 607.265808 
L 795.611634 621.937985 
L 796.208816 629.912924 
L 796.805997 613.952338 
L 797.403178 611.812489 
L 798.00036 615.85985 
L 798.597541 617.66893 
L 799.194723 621.424091 
L 799.791904 628.428623 
L 800.389085 622.373226 
L 800.986267 631.31666 
L 801.583448 621.350471 
L 802.18063 619.978637 
L 802.777811 624.921978 
L 803.374993 624.725956 
L 803.972174 620.879231 
L 804.569355 611.418669 
L 805.166537 616.720604 
L 805.763718 624.239496 
L 806.3609 627.57427 
L 806.958081 633.559577 
L 807.555262 625.598241 
L 808.152444 613.562908 
L 809.346807 631.893694 
L 809.943988 618.58116 
L 810.541169 625.134916 
L 811.138351 620.299714 
L 811.735532 617.57748 
L 812.332714 612.767106 
L 813.527076 630.670222 
L 814.124258 633.805903 
L 814.721439 606.47737 
L 815.318621 609.654453 
L 815.915802 625.451459 
L 816.512984 628.557038 
L 817.110165 607.289463 
L 817.707346 612.415421 
L 818.304528 627.10158 
L 818.901709 628.327155 
L 819.498891 623.264264 
L 820.096072 613.680574 
L 820.693253 615.159937 
L 821.290435 618.833446 
L 821.887616 624.700888 
L 822.484798 627.374754 
L 823.081979 615.472035 
L 823.67916 622.499485 
L 824.276342 614.988403 
L 824.873523 614.248759 
L 826.067886 623.838369 
L 826.665067 622.251682 
L 827.85943 618.036007 
L 829.053793 619.274274 
L 829.650975 627.086851 
L 830.845337 621.655363 
L 831.442519 611.050788 
L 832.0397 618.274557 
L 832.636882 627.330977 
L 833.234063 622.661671 
L 833.831244 607.26742 
L 835.025607 619.940199 
L 835.622789 625.641444 
L 836.21997 626.285528 
L 836.817151 625.946656 
L 837.414333 617.120595 
L 838.011514 619.458184 
L 838.608696 622.563651 
L 839.205877 626.382069 
L 839.803058 622.347847 
L 840.40024 610.916264 
L 840.997421 612.928405 
L 841.594603 623.46585 
L 842.191784 636.321928 
L 842.788966 620.719308 
L 843.386147 618.130727 
L 843.983328 604.860694 
L 844.58051 619.781302 
L 845.177691 623.845771 
L 845.774873 622.706201 
L 846.372054 624.070606 
L 846.969235 627.88148 
L 847.566417 626.76801 
L 848.163598 620.575989 
L 848.76078 621.17024 
L 849.357961 625.908516 
L 849.955142 626.025672 
L 850.552324 616.359945 
L 851.149505 614.227366 
L 851.746687 619.57413 
L 852.343868 618.136309 
L 852.941049 618.434769 
L 853.538231 626.475293 
L 854.135412 627.390776 
L 854.732594 615.821843 
L 855.329775 617.956965 
L 855.926957 620.770211 
L 856.524138 619.160466 
L 857.121319 618.787702 
L 857.718501 616.126842 
L 858.315682 621.168263 
L 858.912864 618.96409 
L 860.107226 634.23387 
L 860.704408 624.383843 
L 861.301589 608.385086 
L 861.898771 608.604688 
L 862.495952 624.180909 
L 863.093133 631.841767 
L 863.690315 624.972011 
L 864.287496 615.731395 
L 864.884678 609.880595 
L 865.481859 625.139783 
L 866.07904 627.388567 
L 866.676222 613.145597 
L 867.273403 623.986612 
L 867.870585 626.463438 
L 868.467766 615.148872 
L 869.064948 619.390279 
L 869.662129 624.932395 
L 870.25931 620.383541 
L 870.856492 617.290242 
L 872.050855 627.659433 
L 872.648036 622.59691 
L 873.245217 621.552049 
L 873.842399 624.929569 
L 874.43958 616.57999 
L 875.036762 616.662686 
L 875.633943 621.778177 
L 876.231124 625.65005 
L 876.828306 620.017914 
L 877.425487 607.216779 
L 878.022669 621.107717 
L 878.61985 629.649228 
L 879.217031 615.118187 
L 879.814213 609.623463 
L 880.411394 623.407571 
L 881.008576 628.659608 
L 881.605757 620.71684 
L 882.202939 623.657723 
L 882.80012 629.374237 
L 883.397301 613.200635 
L 883.994483 613.950013 
L 884.591664 631.897378 
L 885.188846 606.291612 
L 885.786027 607.283052 
L 886.383208 615.178967 
L 886.98039 627.726082 
L 887.577571 628.77284 
L 888.174753 622.133831 
L 888.771934 622.316069 
L 889.369115 617.564708 
L 889.966297 618.59069 
L 890.563478 622.28729 
L 891.16066 621.850314 
L 891.757841 619.023872 
L 892.355022 618.799899 
L 892.952204 621.745196 
L 893.549385 623.884024 
L 894.146567 623.780428 
L 894.743748 624.850143 
L 895.34093 620.627162 
L 895.938111 625.260418 
L 896.535292 623.517767 
L 897.132474 615.32362 
L 897.729655 619.759473 
L 898.326837 618.848418 
L 898.924018 619.368989 
L 899.521199 633.444873 
L 900.118381 623.318916 
L 900.715562 601.437902 
L 901.312744 627.54855 
L 901.909925 632.268611 
L 902.507106 618.453868 
L 903.104288 624.234299 
L 903.701469 612.452021 
L 904.298651 615.406315 
L 904.895832 613.621037 
L 905.493013 625.102996 
L 906.090195 627.728111 
L 906.687376 616.267466 
L 907.284558 615.016471 
L 907.881739 616.474907 
L 908.478921 609.471978 
L 909.076102 625.980946 
L 909.673283 636.365159 
L 910.270465 634.001267 
L 910.867646 616.425045 
L 911.464828 616.454166 
L 912.062009 621.423291 
L 912.65919 616.165598 
L 913.853553 620.295491 
L 914.450735 626.379435 
L 915.047916 634.233987 
L 915.645097 643.726667 
L 916.242279 617.73886 
L 916.83946 602.85469 
L 917.436642 615.415242 
L 918.033823 622.819166 
L 918.631004 624.872453 
L 919.228186 625.640135 
L 919.825367 621.74026 
L 920.422549 621.141434 
L 921.01973 611.123209 
L 921.616912 618.273069 
L 922.811274 624.060116 
L 923.408456 619.753604 
L 924.602819 624.928326 
L 924.602819 624.928326 
" clip-path="url(#pe4c7c96f78)" style="fill: none; stroke: #1f77b4; stroke-width: 1.5; stroke-linecap: square"/>
   </g>
   <g id="line2d_45">
    <path d="M 526.88 620.363048 
L 925.2 620.363048 
" clip-path="url(#pe4c7c96f78)" style="fill: none; stroke: #ff0000; stroke-opacity: 0.3; stroke-width: 1.5; stroke-linecap: square"/>
   </g>
   <g id="patch_13">
    <path d="M 526.88 667.24 
L 526.88 385.08 
" style="fill: none; stroke: #000000; stroke-width: 0.8; stroke-linejoin: miter; stroke-linecap: square"/>
   </g>
   <g id="patch_14">
    <path d="M 925.2 667.24 
L 925.2 385.08 
" style="fill: none; stroke: #000000; stroke-width: 0.8; stroke-linejoin: miter; stroke-linecap: square"/>
   </g>
   <g id="patch_15">
    <path d="M 526.88 667.24 
L 925.2 667.24 
" style="fill: none; stroke: #000000; stroke-width: 0.8; stroke-linejoin: miter; stroke-linecap: square"/>
   </g>
   <g id="patch_16">
    <path d="M 526.88 385.08 
L 925.2 385.08 
" style="fill: none; stroke: #000000; stroke-width: 0.8; stroke-linejoin: miter; stroke-linecap: square"/>
   </g>
   <g id="text_48">
    <!-- Temperature -->
    <g transform="translate(671.31505 379.08) scale(0.1728 -0.1728)">
     <defs>
      <path id="DejaVuSans-54" d="M -19 4666 
L 3928 4666 
L 3928 4134 
L 2272 4134 
L 2272 0 
L 1638 0 
L 1638 4134 
L -19 4134 
L -19 4666 
z
" transform="scale(0.015625)"/>
     </defs>
     <use xlink:href="#DejaVuSans-54"/>
     <use xlink:href="#DejaVuSans-65" x="44.083984"/>
     <use xlink:href="#DejaVuSans-6d" x="105.607422"/>
     <use xlink:href="#DejaVuSans-70" x="203.019531"/>
     <use xlink:href="#DejaVuSans-65" x="266.496094"/>
     <use xlink:href="#DejaVuSans-72" x="328.019531"/>
     <use xlink:href="#DejaVuSans-61" x="369.132812"/>
     <use xlink:href="#DejaVuSans-74" x="430.412109"/>
     <use xlink:href="#DejaVuSans-75" x="469.621094"/>
     <use xlink:href="#DejaVuSans-72" x="533"/>
     <use xlink:href="#DejaVuSans-65" x="571.863281"/>
    </g>
   </g>
  </g>
 </g>
 <defs>
  <clipPath id="pcf5e465730">
   <rect x="66.62" y="30.48" width="858.58" height="282.16"/>
  </clipPath>
  <clipPath id="p3971750465">
   <rect x="66.62" y="385.08" width="398.32" height="282.16"/>
  </clipPath>
  <clipPath id="pe4c7c96f78">
   <rect x="526.88" y="385.08" width="398.32" height="282.16"/>
  </clipPath>
 </defs>
</svg>
