<?xml version="1.0" encoding="utf-8" standalone="no"?>
<!DOCTYPE svg PUBLIC "-//W3C//DTD SVG 1.1//EN"
  "http://www.w3.org/Graphics/SVG/1.1/DTD/svg11.dtd">
<svg xmlns:xlink="http://www.w3.org/1999/xlink" width="936pt" height="720pt" viewBox="0 0 936 720" xmlns="http://www.w3.org/2000/svg" version="1.1">
 <metadata>
  <rdf:RDF xmlns:dc="http://purl.org/dc/elements/1.1/" xmlns:cc="http://creativecommons.org/ns#" xmlns:rdf="http://www.w3.org/1999/02/22-rdf-syntax-ns#">
   <cc:Work>
    <dc:type rdf:resource="http://purl.org/dc/dcmitype/StillImage"/>
    <dc:date>2024-12-09T06:51:19.001787</dc:date>
    <dc:format>image/svg+xml</dc:format>
    <dc:creator>
     <cc:Agent>
      <dc:title>Matplotlib v3.8.0, https://matplotlib.org/</dc:title>
     </cc:Agent>
    </dc:creator>
   </cc:Work>
  </rdf:RDF>
 </metadata>
 <defs>
  <style type="text/css">*{stroke-linejoin: round; stroke-linecap: butt}</style>
 </defs>
 <g id="figure_1">
  <g id="patch_1">
   <path d="M 0 720 
L 936 720 
L 936 0 
L 0 0 
z
" style="fill: #ffffff"/>
  </g>
  <g id="axes_1">
   <g id="patch_2">
    <path d="M 66.62 312.64 
L 925.2 312.64 
L 925.2 30.48 
L 66.62 30.48 
z
" style="fill: #ffffff"/>
   </g>
   <g id="matplotlib.axis_1">
    <g id="xtick_1">
     <g id="line2d_1">
      <defs>
       <path id="m1513ccbe58" d="M 0 0 
L 0 3.5 
" style="stroke: #000000; stroke-width: 0.8"/>
      </defs>
      <g>
       <use xlink:href="#m1513ccbe58" x="66.62" y="312.64" style="stroke: #000000; stroke-width: 0.8"/>
      </g>
     </g>
     <g id="text_1">
      <!-- 0 -->
      <g transform="translate(62.039 330.58175) scale(0.144 -0.144)">
       <defs>
        <path id="DejaVuSans-30" d="M 2034 4250 
Q 1547 4250 1301 3770 
Q 1056 3291 1056 2328 
Q 1056 1369 1301 889 
Q 1547 409 2034 409 
Q 2525 409 2770 889 
Q 3016 1369 3016 2328 
Q 3016 3291 2770 3770 
Q 2525 4250 2034 4250 
z
M 2034 4750 
Q 2819 4750 3233 4129 
Q 3647 3509 3647 2328 
Q 3647 1150 3233 529 
Q 2819 -91 2034 -91 
Q 1250 -91 836 529 
Q 422 1150 422 2328 
Q 422 3509 836 4129 
Q 1250 4750 2034 4750 
z
" transform="scale(0.015625)"/>
       </defs>
       <use xlink:href="#DejaVuSans-30"/>
      </g>
     </g>
    </g>
    <g id="xtick_2">
     <g id="line2d_2">
      <g>
       <use xlink:href="#m1513ccbe58" x="195.342639" y="312.64" style="stroke: #000000; stroke-width: 0.8"/>
      </g>
     </g>
     <g id="text_2">
      <!-- 1 -->
      <g transform="translate(190.761639 330.58175) scale(0.144 -0.144)">
       <defs>
        <path id="DejaVuSans-31" d="M 794 531 
L 1825 531 
L 1825 4091 
L 703 3866 
L 703 4441 
L 1819 4666 
L 2450 4666 
L 2450 531 
L 3481 531 
L 3481 0 
L 794 0 
L 794 531 
z
" transform="scale(0.015625)"/>
       </defs>
       <use xlink:href="#DejaVuSans-31"/>
      </g>
     </g>
    </g>
    <g id="xtick_3">
     <g id="line2d_3">
      <g>
       <use xlink:href="#m1513ccbe58" x="324.065277" y="312.64" style="stroke: #000000; stroke-width: 0.8"/>
      </g>
     </g>
     <g id="text_3">
      <!-- 2 -->
      <g transform="translate(319.484277 330.58175) scale(0.144 -0.144)">
       <defs>
        <path id="DejaVuSans-32" d="M 1228 531 
L 3431 531 
L 3431 0 
L 469 0 
L 469 531 
Q 828 903 1448 1529 
Q 2069 2156 2228 2338 
Q 2531 2678 2651 2914 
Q 2772 3150 2772 3378 
Q 2772 3750 2511 3984 
Q 2250 4219 1831 4219 
Q 1534 4219 1204 4116 
Q 875 4013 500 3803 
L 500 4441 
Q 881 4594 1212 4672 
Q 1544 4750 1819 4750 
Q 2544 4750 2975 4387 
Q 3406 4025 3406 3419 
Q 3406 3131 3298 2873 
Q 3191 2616 2906 2266 
Q 2828 2175 2409 1742 
Q 1991 1309 1228 531 
z
" transform="scale(0.015625)"/>
       </defs>
       <use xlink:href="#DejaVuSans-32"/>
      </g>
     </g>
    </g>
    <g id="xtick_4">
     <g id="line2d_4">
      <g>
       <use xlink:href="#m1513ccbe58" x="452.787916" y="312.64" style="stroke: #000000; stroke-width: 0.8"/>
      </g>
     </g>
     <g id="text_4">
      <!-- 3 -->
      <g transform="translate(448.206916 330.58175) scale(0.144 -0.144)">
       <defs>
        <path id="DejaVuSans-33" d="M 2597 2516 
Q 3050 2419 3304 2112 
Q 3559 1806 3559 1356 
Q 3559 666 3084 287 
Q 2609 -91 1734 -91 
Q 1441 -91 1130 -33 
Q 819 25 488 141 
L 488 750 
Q 750 597 1062 519 
Q 1375 441 1716 441 
Q 2309 441 2620 675 
Q 2931 909 2931 1356 
Q 2931 1769 2642 2001 
Q 2353 2234 1838 2234 
L 1294 2234 
L 1294 2753 
L 1863 2753 
Q 2328 2753 2575 2939 
Q 2822 3125 2822 3475 
Q 2822 3834 2567 4026 
Q 2313 4219 1838 4219 
Q 1578 4219 1281 4162 
Q 984 4106 628 3988 
L 628 4550 
Q 988 4650 1302 4700 
Q 1616 4750 1894 4750 
Q 2613 4750 3031 4423 
Q 3450 4097 3450 3541 
Q 3450 3153 3228 2886 
Q 3006 2619 2597 2516 
z
" transform="scale(0.015625)"/>
       </defs>
       <use xlink:href="#DejaVuSans-33"/>
      </g>
     </g>
    </g>
    <g id="xtick_5">
     <g id="line2d_5">
      <g>
       <use xlink:href="#m1513ccbe58" x="581.510555" y="312.64" style="stroke: #000000; stroke-width: 0.8"/>
      </g>
     </g>
     <g id="text_5">
      <!-- 4 -->
      <g transform="translate(576.929555 330.58175) scale(0.144 -0.144)">
       <defs>
        <path id="DejaVuSans-34" d="M 2419 4116 
L 825 1625 
L 2419 1625 
L 2419 4116 
z
M 2253 4666 
L 3047 4666 
L 3047 1625 
L 3713 1625 
L 3713 1100 
L 3047 1100 
L 3047 0 
L 2419 0 
L 2419 1100 
L 313 1100 
L 313 1709 
L 2253 4666 
z
" transform="scale(0.015625)"/>
       </defs>
       <use xlink:href="#DejaVuSans-34"/>
      </g>
     </g>
    </g>
    <g id="xtick_6">
     <g id="line2d_6">
      <g>
       <use xlink:href="#m1513ccbe58" x="710.233193" y="312.64" style="stroke: #000000; stroke-width: 0.8"/>
      </g>
     </g>
     <g id="text_6">
      <!-- 5 -->
      <g transform="translate(705.652193 330.58175) scale(0.144 -0.144)">
       <defs>
        <path id="DejaVuSans-35" d="M 691 4666 
L 3169 4666 
L 3169 4134 
L 1269 4134 
L 1269 2991 
Q 1406 3038 1543 3061 
Q 1681 3084 1819 3084 
Q 2600 3084 3056 2656 
Q 3513 2228 3513 1497 
Q 3513 744 3044 326 
Q 2575 -91 1722 -91 
Q 1428 -91 1123 -41 
Q 819 9 494 109 
L 494 744 
Q 775 591 1075 516 
Q 1375 441 1709 441 
Q 2250 441 2565 725 
Q 2881 1009 2881 1497 
Q 2881 1984 2565 2268 
Q 2250 2553 1709 2553 
Q 1456 2553 1204 2497 
Q 953 2441 691 2322 
L 691 4666 
z
" transform="scale(0.015625)"/>
       </defs>
       <use xlink:href="#DejaVuSans-35"/>
      </g>
     </g>
    </g>
    <g id="xtick_7">
     <g id="line2d_7">
      <g>
       <use xlink:href="#m1513ccbe58" x="838.955832" y="312.64" style="stroke: #000000; stroke-width: 0.8"/>
      </g>
     </g>
     <g id="text_7">
      <!-- 6 -->
      <g transform="translate(834.374832 330.58175) scale(0.144 -0.144)">
       <defs>
        <path id="DejaVuSans-36" d="M 2113 2584 
Q 1688 2584 1439 2293 
Q 1191 2003 1191 1497 
Q 1191 994 1439 701 
Q 1688 409 2113 409 
Q 2538 409 2786 701 
Q 3034 994 3034 1497 
Q 3034 2003 2786 2293 
Q 2538 2584 2113 2584 
z
M 3366 4563 
L 3366 3988 
Q 3128 4100 2886 4159 
Q 2644 4219 2406 4219 
Q 1781 4219 1451 3797 
Q 1122 3375 1075 2522 
Q 1259 2794 1537 2939 
Q 1816 3084 2150 3084 
Q 2853 3084 3261 2657 
Q 3669 2231 3669 1497 
Q 3669 778 3244 343 
Q 2819 -91 2113 -91 
Q 1303 -91 875 529 
Q 447 1150 447 2328 
Q 447 3434 972 4092 
Q 1497 4750 2381 4750 
Q 2619 4750 2861 4703 
Q 3103 4656 3366 4563 
z
" transform="scale(0.015625)"/>
       </defs>
       <use xlink:href="#DejaVuSans-36"/>
      </g>
     </g>
    </g>
    <g id="text_8">
     <!-- time in a.u. -->
     <g transform="translate(446.76055 350.7066) scale(0.1728 -0.1728)">
      <defs>
       <path id="DejaVuSans-74" d="M 1172 4494 
L 1172 3500 
L 2356 3500 
L 2356 3053 
L 1172 3053 
L 1172 1153 
Q 1172 725 1289 603 
Q 1406 481 1766 481 
L 2356 481 
L 2356 0 
L 1766 0 
Q 1100 0 847 248 
Q 594 497 594 1153 
L 594 3053 
L 172 3053 
L 172 3500 
L 594 3500 
L 594 4494 
L 1172 4494 
z
" transform="scale(0.015625)"/>
       <path id="DejaVuSans-69" d="M 603 3500 
L 1178 3500 
L 1178 0 
L 603 0 
L 603 3500 
z
M 603 4863 
L 1178 4863 
L 1178 4134 
L 603 4134 
L 603 4863 
z
" transform="scale(0.015625)"/>
       <path id="DejaVuSans-6d" d="M 3328 2828 
Q 3544 3216 3844 3400 
Q 4144 3584 4550 3584 
Q 5097 3584 5394 3201 
Q 5691 2819 5691 2113 
L 5691 0 
L 5113 0 
L 5113 2094 
Q 5113 2597 4934 2840 
Q 4756 3084 4391 3084 
Q 3944 3084 3684 2787 
Q 3425 2491 3425 1978 
L 3425 0 
L 2847 0 
L 2847 2094 
Q 2847 2600 2669 2842 
Q 2491 3084 2119 3084 
Q 1678 3084 1418 2786 
Q 1159 2488 1159 1978 
L 1159 0 
L 581 0 
L 581 3500 
L 1159 3500 
L 1159 2956 
Q 1356 3278 1631 3431 
Q 1906 3584 2284 3584 
Q 2666 3584 2933 3390 
Q 3200 3197 3328 2828 
z
" transform="scale(0.015625)"/>
       <path id="DejaVuSans-65" d="M 3597 1894 
L 3597 1613 
L 953 1613 
Q 991 1019 1311 708 
Q 1631 397 2203 397 
Q 2534 397 2845 478 
Q 3156 559 3463 722 
L 3463 178 
Q 3153 47 2828 -22 
Q 2503 -91 2169 -91 
Q 1331 -91 842 396 
Q 353 884 353 1716 
Q 353 2575 817 3079 
Q 1281 3584 2069 3584 
Q 2775 3584 3186 3129 
Q 3597 2675 3597 1894 
z
M 3022 2063 
Q 3016 2534 2758 2815 
Q 2500 3097 2075 3097 
Q 1594 3097 1305 2825 
Q 1016 2553 972 2059 
L 3022 2063 
z
" transform="scale(0.015625)"/>
       <path id="DejaVuSans-20" transform="scale(0.015625)"/>
       <path id="DejaVuSans-6e" d="M 3513 2113 
L 3513 0 
L 2938 0 
L 2938 2094 
Q 2938 2591 2744 2837 
Q 2550 3084 2163 3084 
Q 1697 3084 1428 2787 
Q 1159 2491 1159 1978 
L 1159 0 
L 581 0 
L 581 3500 
L 1159 3500 
L 1159 2956 
Q 1366 3272 1645 3428 
Q 1925 3584 2291 3584 
Q 2894 3584 3203 3211 
Q 3513 2838 3513 2113 
z
" transform="scale(0.015625)"/>
       <path id="DejaVuSans-61" d="M 2194 1759 
Q 1497 1759 1228 1600 
Q 959 1441 959 1056 
Q 959 750 1161 570 
Q 1363 391 1709 391 
Q 2188 391 2477 730 
Q 2766 1069 2766 1631 
L 2766 1759 
L 2194 1759 
z
M 3341 1997 
L 3341 0 
L 2766 0 
L 2766 531 
Q 2569 213 2275 61 
Q 1981 -91 1556 -91 
Q 1019 -91 701 211 
Q 384 513 384 1019 
Q 384 1609 779 1909 
Q 1175 2209 1959 2209 
L 2766 2209 
L 2766 2266 
Q 2766 2663 2505 2880 
Q 2244 3097 1772 3097 
Q 1472 3097 1187 3025 
Q 903 2953 641 2809 
L 641 3341 
Q 956 3463 1253 3523 
Q 1550 3584 1831 3584 
Q 2591 3584 2966 3190 
Q 3341 2797 3341 1997 
z
" transform="scale(0.015625)"/>
       <path id="DejaVuSans-2e" d="M 684 794 
L 1344 794 
L 1344 0 
L 684 0 
L 684 794 
z
" transform="scale(0.015625)"/>
       <path id="DejaVuSans-75" d="M 544 1381 
L 544 3500 
L 1119 3500 
L 1119 1403 
Q 1119 906 1312 657 
Q 1506 409 1894 409 
Q 2359 409 2629 706 
Q 2900 1003 2900 1516 
L 2900 3500 
L 3475 3500 
L 3475 0 
L 2900 0 
L 2900 538 
Q 2691 219 2414 64 
Q 2138 -91 1772 -91 
Q 1169 -91 856 284 
Q 544 659 544 1381 
z
M 1991 3584 
L 1991 3584 
z
" transform="scale(0.015625)"/>
      </defs>
      <use xlink:href="#DejaVuSans-74"/>
      <use xlink:href="#DejaVuSans-69" x="39.208984"/>
      <use xlink:href="#DejaVuSans-6d" x="66.992188"/>
      <use xlink:href="#DejaVuSans-65" x="164.404297"/>
      <use xlink:href="#DejaVuSans-20" x="225.927734"/>
      <use xlink:href="#DejaVuSans-69" x="257.714844"/>
      <use xlink:href="#DejaVuSans-6e" x="285.498047"/>
      <use xlink:href="#DejaVuSans-20" x="348.876953"/>
      <use xlink:href="#DejaVuSans-61" x="380.664062"/>
      <use xlink:href="#DejaVuSans-2e" x="441.943359"/>
      <use xlink:href="#DejaVuSans-75" x="473.730469"/>
      <use xlink:href="#DejaVuSans-2e" x="537.109375"/>
     </g>
    </g>
   </g>
   <g id="matplotlib.axis_2">
    <g id="ytick_1">
     <g id="line2d_8">
      <defs>
       <path id="m83dacf1c7e" d="M 0 0 
L -3.5 0 
" style="stroke: #000000; stroke-width: 0.8"/>
      </defs>
      <g>
       <use xlink:href="#m83dacf1c7e" x="66.62" y="297.251423" style="stroke: #000000; stroke-width: 0.8"/>
      </g>
     </g>
     <g id="text_9">
      <!-- 0 -->
      <g transform="translate(50.458 302.722298) scale(0.144 -0.144)">
       <use xlink:href="#DejaVuSans-30"/>
      </g>
     </g>
    </g>
    <g id="ytick_2">
     <g id="line2d_9">
      <g>
       <use xlink:href="#m83dacf1c7e" x="66.62" y="260.542847" style="stroke: #000000; stroke-width: 0.8"/>
      </g>
     </g>
     <g id="text_10">
      <!-- 20 -->
      <g transform="translate(41.296 266.013722) scale(0.144 -0.144)">
       <use xlink:href="#DejaVuSans-32"/>
       <use xlink:href="#DejaVuSans-30" x="63.623047"/>
      </g>
     </g>
    </g>
    <g id="ytick_3">
     <g id="line2d_10">
      <g>
       <use xlink:href="#m83dacf1c7e" x="66.62" y="223.83427" style="stroke: #000000; stroke-width: 0.8"/>
      </g>
     </g>
     <g id="text_11">
      <!-- 40 -->
      <g transform="translate(41.296 229.305145) scale(0.144 -0.144)">
       <use xlink:href="#DejaVuSans-34"/>
       <use xlink:href="#DejaVuSans-30" x="63.623047"/>
      </g>
     </g>
    </g>
    <g id="ytick_4">
     <g id="line2d_11">
      <g>
       <use xlink:href="#m83dacf1c7e" x="66.62" y="187.125694" style="stroke: #000000; stroke-width: 0.8"/>
      </g>
     </g>
     <g id="text_12">
      <!-- 60 -->
      <g transform="translate(41.296 192.596569) scale(0.144 -0.144)">
       <use xlink:href="#DejaVuSans-36"/>
       <use xlink:href="#DejaVuSans-30" x="63.623047"/>
      </g>
     </g>
    </g>
    <g id="ytick_5">
     <g id="line2d_12">
      <g>
       <use xlink:href="#m83dacf1c7e" x="66.62" y="150.417118" style="stroke: #000000; stroke-width: 0.8"/>
      </g>
     </g>
     <g id="text_13">
      <!-- 80 -->
      <g transform="translate(41.296 155.887993) scale(0.144 -0.144)">
       <defs>
        <path id="DejaVuSans-38" d="M 2034 2216 
Q 1584 2216 1326 1975 
Q 1069 1734 1069 1313 
Q 1069 891 1326 650 
Q 1584 409 2034 409 
Q 2484 409 2743 651 
Q 3003 894 3003 1313 
Q 3003 1734 2745 1975 
Q 2488 2216 2034 2216 
z
M 1403 2484 
Q 997 2584 770 2862 
Q 544 3141 544 3541 
Q 544 4100 942 4425 
Q 1341 4750 2034 4750 
Q 2731 4750 3128 4425 
Q 3525 4100 3525 3541 
Q 3525 3141 3298 2862 
Q 3072 2584 2669 2484 
Q 3125 2378 3379 2068 
Q 3634 1759 3634 1313 
Q 3634 634 3220 271 
Q 2806 -91 2034 -91 
Q 1263 -91 848 271 
Q 434 634 434 1313 
Q 434 1759 690 2068 
Q 947 2378 1403 2484 
z
M 1172 3481 
Q 1172 3119 1398 2916 
Q 1625 2713 2034 2713 
Q 2441 2713 2670 2916 
Q 2900 3119 2900 3481 
Q 2900 3844 2670 4047 
Q 2441 4250 2034 4250 
Q 1625 4250 1398 4047 
Q 1172 3844 1172 3481 
z
" transform="scale(0.015625)"/>
       </defs>
       <use xlink:href="#DejaVuSans-38"/>
       <use xlink:href="#DejaVuSans-30" x="63.623047"/>
      </g>
     </g>
    </g>
    <g id="ytick_6">
     <g id="line2d_13">
      <g>
       <use xlink:href="#m83dacf1c7e" x="66.62" y="113.708541" style="stroke: #000000; stroke-width: 0.8"/>
      </g>
     </g>
     <g id="text_14">
      <!-- 100 -->
      <g transform="translate(32.134 119.179416) scale(0.144 -0.144)">
       <use xlink:href="#DejaVuSans-31"/>
       <use xlink:href="#DejaVuSans-30" x="63.623047"/>
       <use xlink:href="#DejaVuSans-30" x="127.246094"/>
      </g>
     </g>
    </g>
    <g id="ytick_7">
     <g id="line2d_14">
      <g>
       <use xlink:href="#m83dacf1c7e" x="66.62" y="76.999965" style="stroke: #000000; stroke-width: 0.8"/>
      </g>
     </g>
     <g id="text_15">
      <!-- 120 -->
      <g transform="translate(32.134 82.47084) scale(0.144 -0.144)">
       <use xlink:href="#DejaVuSans-31"/>
       <use xlink:href="#DejaVuSans-32" x="63.623047"/>
       <use xlink:href="#DejaVuSans-30" x="127.246094"/>
      </g>
     </g>
    </g>
    <g id="ytick_8">
     <g id="line2d_15">
      <g>
       <use xlink:href="#m83dacf1c7e" x="66.62" y="40.291389" style="stroke: #000000; stroke-width: 0.8"/>
      </g>
     </g>
     <g id="text_16">
      <!-- 140 -->
      <g transform="translate(32.134 45.762264) scale(0.144 -0.144)">
       <use xlink:href="#DejaVuSans-31"/>
       <use xlink:href="#DejaVuSans-34" x="63.623047"/>
       <use xlink:href="#DejaVuSans-30" x="127.246094"/>
      </g>
     </g>
    </g>
    <g id="text_17">
     <!-- (avg. M=49) energy in a.u. -->
     <g transform="translate(24.5403 287.8598) rotate(-90) scale(0.1728 -0.1728)">
      <defs>
       <path id="DejaVuSans-28" d="M 1984 4856 
Q 1566 4138 1362 3434 
Q 1159 2731 1159 2009 
Q 1159 1288 1364 580 
Q 1569 -128 1984 -844 
L 1484 -844 
Q 1016 -109 783 600 
Q 550 1309 550 2009 
Q 550 2706 781 3412 
Q 1013 4119 1484 4856 
L 1984 4856 
z
" transform="scale(0.015625)"/>
       <path id="DejaVuSans-76" d="M 191 3500 
L 800 3500 
L 1894 563 
L 2988 3500 
L 3597 3500 
L 2284 0 
L 1503 0 
L 191 3500 
z
" transform="scale(0.015625)"/>
       <path id="DejaVuSans-67" d="M 2906 1791 
Q 2906 2416 2648 2759 
Q 2391 3103 1925 3103 
Q 1463 3103 1205 2759 
Q 947 2416 947 1791 
Q 947 1169 1205 825 
Q 1463 481 1925 481 
Q 2391 481 2648 825 
Q 2906 1169 2906 1791 
z
M 3481 434 
Q 3481 -459 3084 -895 
Q 2688 -1331 1869 -1331 
Q 1566 -1331 1297 -1286 
Q 1028 -1241 775 -1147 
L 775 -588 
Q 1028 -725 1275 -790 
Q 1522 -856 1778 -856 
Q 2344 -856 2625 -561 
Q 2906 -266 2906 331 
L 2906 616 
Q 2728 306 2450 153 
Q 2172 0 1784 0 
Q 1141 0 747 490 
Q 353 981 353 1791 
Q 353 2603 747 3093 
Q 1141 3584 1784 3584 
Q 2172 3584 2450 3431 
Q 2728 3278 2906 2969 
L 2906 3500 
L 3481 3500 
L 3481 434 
z
" transform="scale(0.015625)"/>
       <path id="DejaVuSans-4d" d="M 628 4666 
L 1569 4666 
L 2759 1491 
L 3956 4666 
L 4897 4666 
L 4897 0 
L 4281 0 
L 4281 4097 
L 3078 897 
L 2444 897 
L 1241 4097 
L 1241 0 
L 628 0 
L 628 4666 
z
" transform="scale(0.015625)"/>
       <path id="DejaVuSans-3d" d="M 678 2906 
L 4684 2906 
L 4684 2381 
L 678 2381 
L 678 2906 
z
M 678 1631 
L 4684 1631 
L 4684 1100 
L 678 1100 
L 678 1631 
z
" transform="scale(0.015625)"/>
       <path id="DejaVuSans-39" d="M 703 97 
L 703 672 
Q 941 559 1184 500 
Q 1428 441 1663 441 
Q 2288 441 2617 861 
Q 2947 1281 2994 2138 
Q 2813 1869 2534 1725 
Q 2256 1581 1919 1581 
Q 1219 1581 811 2004 
Q 403 2428 403 3163 
Q 403 3881 828 4315 
Q 1253 4750 1959 4750 
Q 2769 4750 3195 4129 
Q 3622 3509 3622 2328 
Q 3622 1225 3098 567 
Q 2575 -91 1691 -91 
Q 1453 -91 1209 -44 
Q 966 3 703 97 
z
M 1959 2075 
Q 2384 2075 2632 2365 
Q 2881 2656 2881 3163 
Q 2881 3666 2632 3958 
Q 2384 4250 1959 4250 
Q 1534 4250 1286 3958 
Q 1038 3666 1038 3163 
Q 1038 2656 1286 2365 
Q 1534 2075 1959 2075 
z
" transform="scale(0.015625)"/>
       <path id="DejaVuSans-29" d="M 513 4856 
L 1013 4856 
Q 1481 4119 1714 3412 
Q 1947 2706 1947 2009 
Q 1947 1309 1714 600 
Q 1481 -109 1013 -844 
L 513 -844 
Q 928 -128 1133 580 
Q 1338 1288 1338 2009 
Q 1338 2731 1133 3434 
Q 928 4138 513 4856 
z
" transform="scale(0.015625)"/>
       <path id="DejaVuSans-72" d="M 2631 2963 
Q 2534 3019 2420 3045 
Q 2306 3072 2169 3072 
Q 1681 3072 1420 2755 
Q 1159 2438 1159 1844 
L 1159 0 
L 581 0 
L 581 3500 
L 1159 3500 
L 1159 2956 
Q 1341 3275 1631 3429 
Q 1922 3584 2338 3584 
Q 2397 3584 2469 3576 
Q 2541 3569 2628 3553 
L 2631 2963 
z
" transform="scale(0.015625)"/>
       <path id="DejaVuSans-79" d="M 2059 -325 
Q 1816 -950 1584 -1140 
Q 1353 -1331 966 -1331 
L 506 -1331 
L 506 -850 
L 844 -850 
Q 1081 -850 1212 -737 
Q 1344 -625 1503 -206 
L 1606 56 
L 191 3500 
L 800 3500 
L 1894 763 
L 2988 3500 
L 3597 3500 
L 2059 -325 
z
" transform="scale(0.015625)"/>
      </defs>
      <use xlink:href="#DejaVuSans-28"/>
      <use xlink:href="#DejaVuSans-61" x="39.013672"/>
      <use xlink:href="#DejaVuSans-76" x="100.292969"/>
      <use xlink:href="#DejaVuSans-67" x="159.472656"/>
      <use xlink:href="#DejaVuSans-2e" x="222.949219"/>
      <use xlink:href="#DejaVuSans-20" x="254.736328"/>
      <use xlink:href="#DejaVuSans-4d" x="286.523438"/>
      <use xlink:href="#DejaVuSans-3d" x="372.802734"/>
      <use xlink:href="#DejaVuSans-34" x="456.591797"/>
      <use xlink:href="#DejaVuSans-39" x="520.214844"/>
      <use xlink:href="#DejaVuSans-29" x="583.837891"/>
      <use xlink:href="#DejaVuSans-20" x="622.851562"/>
      <use xlink:href="#DejaVuSans-65" x="654.638672"/>
      <use xlink:href="#DejaVuSans-6e" x="716.162109"/>
      <use xlink:href="#DejaVuSans-65" x="779.541016"/>
      <use xlink:href="#DejaVuSans-72" x="841.064453"/>
      <use xlink:href="#DejaVuSans-67" x="880.427734"/>
      <use xlink:href="#DejaVuSans-79" x="943.904297"/>
      <use xlink:href="#DejaVuSans-20" x="1003.083984"/>
      <use xlink:href="#DejaVuSans-69" x="1034.871094"/>
      <use xlink:href="#DejaVuSans-6e" x="1062.654297"/>
      <use xlink:href="#DejaVuSans-20" x="1126.033203"/>
      <use xlink:href="#DejaVuSans-61" x="1157.820312"/>
      <use xlink:href="#DejaVuSans-2e" x="1219.099609"/>
      <use xlink:href="#DejaVuSans-75" x="1250.886719"/>
      <use xlink:href="#DejaVuSans-2e" x="1314.265625"/>
     </g>
    </g>
   </g>
   <g id="line2d_16">
    <path d="M 129.694093 252.621822 
L 130.981319 254.607224 
L 132.268546 255.132694 
L 134.842999 254.862441 
L 138.704678 254.573561 
L 141.27913 254.716081 
L 143.853583 255.093633 
L 147.715262 255.975629 
L 151.576942 256.74415 
L 154.151394 257.47323 
L 156.725847 258.146509 
L 159.3003 258.769161 
L 161.874753 259.057981 
L 165.736432 259.386298 
L 168.310885 259.800284 
L 170.885337 259.966452 
L 172.172564 259.945608 
L 173.45979 260.073913 
L 174.747016 260.34997 
L 177.321469 260.479721 
L 182.470375 260.494664 
L 187.61928 260.636782 
L 191.48096 261.420297 
L 194.055412 261.706215 
L 199.204318 262.287834 
L 203.065997 262.630078 
L 205.64045 263.029973 
L 208.214903 263.480706 
L 214.651034 264.415633 
L 219.79994 264.626972 
L 221.087166 264.758623 
L 223.661619 265.286159 
L 226.236072 265.444366 
L 230.097751 265.691807 
L 232.672204 265.703999 
L 236.533883 265.687372 
L 239.108336 265.559581 
L 241.682789 265.206685 
L 242.970015 265.209595 
L 244.257241 265.375114 
L 246.831694 265.888389 
L 248.118921 265.977562 
L 254.555052 265.753533 
L 257.129505 266.030429 
L 259.703958 265.980049 
L 262.278411 265.933174 
L 264.852864 265.933293 
L 267.427316 265.771973 
L 271.288996 265.834819 
L 276.437901 265.488378 
L 279.012354 264.913234 
L 281.586807 264.66403 
L 284.161259 264.330104 
L 288.022939 264.177987 
L 290.597391 264.062024 
L 293.171844 264.144733 
L 307.331334 263.458746 
L 308.618561 263.41377 
L 312.48024 262.913201 
L 325.352504 262.00898 
L 329.214183 261.895299 
L 333.075862 261.646776 
L 338.224768 261.412811 
L 340.79922 261.462437 
L 342.086447 261.643335 
L 345.948126 261.63299 
L 353.671484 261.561192 
L 356.245937 261.641493 
L 362.682069 262.424544 
L 365.256522 262.517239 
L 367.830975 262.916308 
L 370.405427 262.899178 
L 374.267106 262.606145 
L 376.841559 262.695824 
L 380.703238 263.042049 
L 397.437181 263.802608 
L 400.011634 263.658162 
L 402.586087 263.818947 
L 405.16054 264.143975 
L 410.309445 264.469628 
L 415.458351 264.313931 
L 421.894483 264.501332 
L 424.468936 264.756891 
L 425.756162 264.664703 
L 428.330615 264.871446 
L 430.905067 265.134289 
L 433.47952 265.175436 
L 436.053973 265.441506 
L 441.202879 266.242399 
L 445.064558 266.305671 
L 448.926237 266.573904 
L 457.936822 266.573628 
L 468.234633 265.276954 
L 472.096312 264.923583 
L 478.532444 264.179519 
L 482.394123 263.783343 
L 483.681349 263.625751 
L 487.543028 263.458857 
L 490.117481 263.198334 
L 500.415292 263.382289 
L 501.702519 263.433801 
L 506.851424 263.127139 
L 509.425877 262.879506 
L 512.00033 262.67962 
L 514.574783 262.650454 
L 518.436462 262.410434 
L 519.723688 262.438337 
L 522.298141 262.253803 
L 524.872594 262.40022 
L 527.447046 262.492431 
L 533.883178 262.263141 
L 535.170405 262.178865 
L 541.606537 262.575439 
L 544.18099 262.731276 
L 548.042669 262.656244 
L 557.053253 263.160755 
L 562.202159 263.050098 
L 566.063838 262.8059 
L 567.351064 262.817167 
L 571.212744 263.108607 
L 573.787196 262.773377 
L 576.361649 262.808328 
L 578.936102 263.015117 
L 581.510555 263.313503 
L 582.797781 263.282792 
L 587.946687 263.881067 
L 595.670045 265.061573 
L 600.818951 265.459028 
L 603.393403 265.473243 
L 609.829535 266.061965 
L 613.691214 265.6832 
L 617.552894 265.310726 
L 627.850705 263.744046 
L 654.882459 262.171589 
L 657.456912 262.353037 
L 666.467496 261.953541 
L 670.329175 262.006355 
L 672.903628 262.119795 
L 679.33976 261.853099 
L 681.914213 261.647465 
L 689.637571 261.927061 
L 690.924798 262.047314 
L 693.49925 261.96738 
L 697.36093 261.768419 
L 699.935382 261.895952 
L 702.509835 261.604196 
L 707.658741 260.934423 
L 708.945967 260.965058 
L 726.967136 259.462051 
L 729.541589 259.613101 
L 734.690495 259.32816 
L 743.701079 260.179196 
L 747.562759 260.580655 
L 750.137211 260.802083 
L 751.424438 261.007493 
L 752.711664 261.098466 
L 755.286117 261.121596 
L 757.86057 261.277489 
L 760.435022 261.181213 
L 764.296702 261.503926 
L 766.871154 261.641436 
L 770.732834 261.923113 
L 773.307286 261.927148 
L 777.168966 261.814491 
L 779.743418 262.023236 
L 782.317871 262.301513 
L 786.17955 262.493497 
L 788.754003 262.671455 
L 796.477361 262.767947 
L 805.487946 262.426627 
L 808.062399 262.418464 
L 810.636852 262.042027 
L 813.211304 262.137316 
L 815.785757 261.869326 
L 818.36021 261.519677 
L 820.934663 261.442994 
L 826.083568 261.614507 
L 827.370795 261.779116 
L 829.945247 262.281461 
L 832.5197 262.27153 
L 836.381379 262.198968 
L 840.243058 262.415526 
L 841.530285 262.428948 
L 842.817511 262.327303 
L 845.391964 261.740562 
L 849.253643 261.339914 
L 851.828096 261.267492 
L 856.977001 260.715975 
L 859.551454 260.634078 
L 860.838681 260.487645 
L 860.838681 260.487645 
" clip-path="url(#p3a3cc7461c)" style="fill: none; stroke: #1f77b4; stroke-width: 1.5; stroke-linecap: square"/>
   </g>
   <g id="line2d_17">
    <path d="M 66.62 261.475862 
L 925.2 261.475862 
" clip-path="url(#p3a3cc7461c)" style="fill: none; stroke: #ff0000; stroke-opacity: 0.3; stroke-width: 1.5; stroke-linecap: square"/>
   </g>
   <g id="patch_3">
    <path d="M 66.62 312.64 
L 66.62 30.48 
" style="fill: none; stroke: #000000; stroke-width: 0.8; stroke-linejoin: miter; stroke-linecap: square"/>
   </g>
   <g id="patch_4">
    <path d="M 925.2 312.64 
L 925.2 30.48 
" style="fill: none; stroke: #000000; stroke-width: 0.8; stroke-linejoin: miter; stroke-linecap: square"/>
   </g>
   <g id="patch_5">
    <path d="M 66.62 312.64 
L 925.2 312.64 
" style="fill: none; stroke: #000000; stroke-width: 0.8; stroke-linejoin: miter; stroke-linecap: square"/>
   </g>
   <g id="patch_6">
    <path d="M 66.62 30.48 
L 925.2 30.48 
" style="fill: none; stroke: #000000; stroke-width: 0.8; stroke-linejoin: miter; stroke-linecap: square"/>
   </g>
   <g id="text_18">
    <!-- Energy -->
    <g transform="translate(465.6592 24.48) scale(0.1728 -0.1728)">
     <defs>
      <path id="DejaVuSans-45" d="M 628 4666 
L 3578 4666 
L 3578 4134 
L 1259 4134 
L 1259 2753 
L 3481 2753 
L 3481 2222 
L 1259 2222 
L 1259 531 
L 3634 531 
L 3634 0 
L 628 0 
L 628 4666 
z
" transform="scale(0.015625)"/>
     </defs>
     <use xlink:href="#DejaVuSans-45"/>
     <use xlink:href="#DejaVuSans-6e" x="63.183594"/>
     <use xlink:href="#DejaVuSans-65" x="126.5625"/>
     <use xlink:href="#DejaVuSans-72" x="188.085938"/>
     <use xlink:href="#DejaVuSans-67" x="227.449219"/>
     <use xlink:href="#DejaVuSans-79" x="290.925781"/>
    </g>
   </g>
  </g>
  <g id="axes_2">
   <g id="patch_7">
    <path d="M 66.62 667.24 
L 464.94 667.24 
L 464.94 385.08 
L 66.62 385.08 
z
" style="fill: #ffffff"/>
   </g>
   <g id="matplotlib.axis_3">
    <g id="xtick_8">
     <g id="line2d_18">
      <g>
       <use xlink:href="#m1513ccbe58" x="66.62" y="667.24" style="stroke: #000000; stroke-width: 0.8"/>
      </g>
     </g>
     <g id="text_19">
      <!-- 0 -->
      <g transform="translate(62.039 685.18175) scale(0.144 -0.144)">
       <use xlink:href="#DejaVuSans-30"/>
      </g>
     </g>
    </g>
    <g id="xtick_9">
     <g id="line2d_19">
      <g>
       <use xlink:href="#m1513ccbe58" x="126.338141" y="667.24" style="stroke: #000000; stroke-width: 0.8"/>
      </g>
     </g>
     <g id="text_20">
      <!-- 1 -->
      <g transform="translate(121.757141 685.18175) scale(0.144 -0.144)">
       <use xlink:href="#DejaVuSans-31"/>
      </g>
     </g>
    </g>
    <g id="xtick_10">
     <g id="line2d_20">
      <g>
       <use xlink:href="#m1513ccbe58" x="186.056282" y="667.24" style="stroke: #000000; stroke-width: 0.8"/>
      </g>
     </g>
     <g id="text_21">
      <!-- 2 -->
      <g transform="translate(181.475282 685.18175) scale(0.144 -0.144)">
       <use xlink:href="#DejaVuSans-32"/>
      </g>
     </g>
    </g>
    <g id="xtick_11">
     <g id="line2d_21">
      <g>
       <use xlink:href="#m1513ccbe58" x="245.774423" y="667.24" style="stroke: #000000; stroke-width: 0.8"/>
      </g>
     </g>
     <g id="text_22">
      <!-- 3 -->
      <g transform="translate(241.193423 685.18175) scale(0.144 -0.144)">
       <use xlink:href="#DejaVuSans-33"/>
      </g>
     </g>
    </g>
    <g id="xtick_12">
     <g id="line2d_22">
      <g>
       <use xlink:href="#m1513ccbe58" x="305.492564" y="667.24" style="stroke: #000000; stroke-width: 0.8"/>
      </g>
     </g>
     <g id="text_23">
      <!-- 4 -->
      <g transform="translate(300.911564 685.18175) scale(0.144 -0.144)">
       <use xlink:href="#DejaVuSans-34"/>
      </g>
     </g>
    </g>
    <g id="xtick_13">
     <g id="line2d_23">
      <g>
       <use xlink:href="#m1513ccbe58" x="365.210705" y="667.24" style="stroke: #000000; stroke-width: 0.8"/>
      </g>
     </g>
     <g id="text_24">
      <!-- 5 -->
      <g transform="translate(360.629705 685.18175) scale(0.144 -0.144)">
       <use xlink:href="#DejaVuSans-35"/>
      </g>
     </g>
    </g>
    <g id="xtick_14">
     <g id="line2d_24">
      <g>
       <use xlink:href="#m1513ccbe58" x="424.928846" y="667.24" style="stroke: #000000; stroke-width: 0.8"/>
      </g>
     </g>
     <g id="text_25">
      <!-- 6 -->
      <g transform="translate(420.347846 685.18175) scale(0.144 -0.144)">
       <use xlink:href="#DejaVuSans-36"/>
      </g>
     </g>
    </g>
    <g id="text_26">
     <!-- time in a.u. -->
     <g transform="translate(216.63055 705.3066) scale(0.1728 -0.1728)">
      <use xlink:href="#DejaVuSans-74"/>
      <use xlink:href="#DejaVuSans-69" x="39.208984"/>
      <use xlink:href="#DejaVuSans-6d" x="66.992188"/>
      <use xlink:href="#DejaVuSans-65" x="164.404297"/>
      <use xlink:href="#DejaVuSans-20" x="225.927734"/>
      <use xlink:href="#DejaVuSans-69" x="257.714844"/>
      <use xlink:href="#DejaVuSans-6e" x="285.498047"/>
      <use xlink:href="#DejaVuSans-20" x="348.876953"/>
      <use xlink:href="#DejaVuSans-61" x="380.664062"/>
      <use xlink:href="#DejaVuSans-2e" x="441.943359"/>
      <use xlink:href="#DejaVuSans-75" x="473.730469"/>
      <use xlink:href="#DejaVuSans-2e" x="537.109375"/>
     </g>
    </g>
   </g>
   <g id="matplotlib.axis_4">
    <g id="ytick_9">
     <g id="line2d_25">
      <g>
       <use xlink:href="#m83dacf1c7e" x="66.62" y="622.841924" style="stroke: #000000; stroke-width: 0.8"/>
      </g>
     </g>
     <g id="text_27">
      <!-- 0.0 -->
      <g transform="translate(36.7195 628.312799) scale(0.144 -0.144)">
       <use xlink:href="#DejaVuSans-30"/>
       <use xlink:href="#DejaVuSans-2e" x="63.623047"/>
       <use xlink:href="#DejaVuSans-30" x="95.410156"/>
      </g>
     </g>
    </g>
    <g id="ytick_10">
     <g id="line2d_26">
      <g>
       <use xlink:href="#m83dacf1c7e" x="66.62" y="567.792107" style="stroke: #000000; stroke-width: 0.8"/>
      </g>
     </g>
     <g id="text_28">
      <!-- 0.5 -->
      <g transform="translate(36.7195 573.262982) scale(0.144 -0.144)">
       <use xlink:href="#DejaVuSans-30"/>
       <use xlink:href="#DejaVuSans-2e" x="63.623047"/>
       <use xlink:href="#DejaVuSans-35" x="95.410156"/>
      </g>
     </g>
    </g>
    <g id="ytick_11">
     <g id="line2d_27">
      <g>
       <use xlink:href="#m83dacf1c7e" x="66.62" y="512.74229" style="stroke: #000000; stroke-width: 0.8"/>
      </g>
     </g>
     <g id="text_29">
      <!-- 1.0 -->
      <g transform="translate(36.7195 518.213165) scale(0.144 -0.144)">
       <use xlink:href="#DejaVuSans-31"/>
       <use xlink:href="#DejaVuSans-2e" x="63.623047"/>
       <use xlink:href="#DejaVuSans-30" x="95.410156"/>
      </g>
     </g>
    </g>
    <g id="ytick_12">
     <g id="line2d_28">
      <g>
       <use xlink:href="#m83dacf1c7e" x="66.62" y="457.692474" style="stroke: #000000; stroke-width: 0.8"/>
      </g>
     </g>
     <g id="text_30">
      <!-- 1.5 -->
      <g transform="translate(36.7195 463.163349) scale(0.144 -0.144)">
       <use xlink:href="#DejaVuSans-31"/>
       <use xlink:href="#DejaVuSans-2e" x="63.623047"/>
       <use xlink:href="#DejaVuSans-35" x="95.410156"/>
      </g>
     </g>
    </g>
    <g id="ytick_13">
     <g id="line2d_29">
      <g>
       <use xlink:href="#m83dacf1c7e" x="66.62" y="402.642657" style="stroke: #000000; stroke-width: 0.8"/>
      </g>
     </g>
     <g id="text_31">
      <!-- 2.0 -->
      <g transform="translate(36.7195 408.113532) scale(0.144 -0.144)">
       <use xlink:href="#DejaVuSans-32"/>
       <use xlink:href="#DejaVuSans-2e" x="63.623047"/>
       <use xlink:href="#DejaVuSans-30" x="95.410156"/>
      </g>
     </g>
    </g>
    <g id="text_32">
     <!-- (avg. M=49) pressure in a.u. -->
     <g transform="translate(29.1258 649.66205) rotate(-90) scale(0.1728 -0.1728)">
      <defs>
       <path id="DejaVuSans-70" d="M 1159 525 
L 1159 -1331 
L 581 -1331 
L 581 3500 
L 1159 3500 
L 1159 2969 
Q 1341 3281 1617 3432 
Q 1894 3584 2278 3584 
Q 2916 3584 3314 3078 
Q 3713 2572 3713 1747 
Q 3713 922 3314 415 
Q 2916 -91 2278 -91 
Q 1894 -91 1617 61 
Q 1341 213 1159 525 
z
M 3116 1747 
Q 3116 2381 2855 2742 
Q 2594 3103 2138 3103 
Q 1681 3103 1420 2742 
Q 1159 2381 1159 1747 
Q 1159 1113 1420 752 
Q 1681 391 2138 391 
Q 2594 391 2855 752 
Q 3116 1113 3116 1747 
z
" transform="scale(0.015625)"/>
       <path id="DejaVuSans-73" d="M 2834 3397 
L 2834 2853 
Q 2591 2978 2328 3040 
Q 2066 3103 1784 3103 
Q 1356 3103 1142 2972 
Q 928 2841 928 2578 
Q 928 2378 1081 2264 
Q 1234 2150 1697 2047 
L 1894 2003 
Q 2506 1872 2764 1633 
Q 3022 1394 3022 966 
Q 3022 478 2636 193 
Q 2250 -91 1575 -91 
Q 1294 -91 989 -36 
Q 684 19 347 128 
L 347 722 
Q 666 556 975 473 
Q 1284 391 1588 391 
Q 1994 391 2212 530 
Q 2431 669 2431 922 
Q 2431 1156 2273 1281 
Q 2116 1406 1581 1522 
L 1381 1569 
Q 847 1681 609 1914 
Q 372 2147 372 2553 
Q 372 3047 722 3315 
Q 1072 3584 1716 3584 
Q 2034 3584 2315 3537 
Q 2597 3491 2834 3397 
z
" transform="scale(0.015625)"/>
      </defs>
      <use xlink:href="#DejaVuSans-28"/>
      <use xlink:href="#DejaVuSans-61" x="39.013672"/>
      <use xlink:href="#DejaVuSans-76" x="100.292969"/>
      <use xlink:href="#DejaVuSans-67" x="159.472656"/>
      <use xlink:href="#DejaVuSans-2e" x="222.949219"/>
      <use xlink:href="#DejaVuSans-20" x="254.736328"/>
      <use xlink:href="#DejaVuSans-4d" x="286.523438"/>
      <use xlink:href="#DejaVuSans-3d" x="372.802734"/>
      <use xlink:href="#DejaVuSans-34" x="456.591797"/>
      <use xlink:href="#DejaVuSans-39" x="520.214844"/>
      <use xlink:href="#DejaVuSans-29" x="583.837891"/>
      <use xlink:href="#DejaVuSans-20" x="622.851562"/>
      <use xlink:href="#DejaVuSans-70" x="654.638672"/>
      <use xlink:href="#DejaVuSans-72" x="718.115234"/>
      <use xlink:href="#DejaVuSans-65" x="756.978516"/>
      <use xlink:href="#DejaVuSans-73" x="818.501953"/>
      <use xlink:href="#DejaVuSans-73" x="870.601562"/>
      <use xlink:href="#DejaVuSans-75" x="922.701172"/>
      <use xlink:href="#DejaVuSans-72" x="986.080078"/>
      <use xlink:href="#DejaVuSans-65" x="1024.943359"/>
      <use xlink:href="#DejaVuSans-20" x="1086.466797"/>
      <use xlink:href="#DejaVuSans-69" x="1118.253906"/>
      <use xlink:href="#DejaVuSans-6e" x="1146.037109"/>
      <use xlink:href="#DejaVuSans-20" x="1209.416016"/>
      <use xlink:href="#DejaVuSans-61" x="1241.203125"/>
      <use xlink:href="#DejaVuSans-2e" x="1302.482422"/>
      <use xlink:href="#DejaVuSans-75" x="1334.269531"/>
      <use xlink:href="#DejaVuSans-2e" x="1397.648438"/>
     </g>
    </g>
   </g>
   <g id="line2d_30">
    <path d="M 95.881889 601.925694 
L 96.47907 603.996355 
L 97.076252 604.733546 
L 97.673433 604.95733 
L 98.270615 604.994627 
L 100.65934 604.378391 
L 101.853703 604.319909 
L 103.048066 604.478188 
L 104.242429 604.160049 
L 105.436792 603.783635 
L 106.631154 603.828318 
L 107.228336 603.805397 
L 109.01988 604.096384 
L 111.408606 603.894088 
L 112.005787 603.997054 
L 113.20015 604.603144 
L 113.797331 604.797636 
L 115.588876 604.976631 
L 116.186057 605.321431 
L 116.783238 605.389596 
L 117.38042 605.193748 
L 119.171964 604.137358 
L 120.366327 603.211374 
L 121.56069 602.398576 
L 122.157871 602.331038 
L 126.935322 604.400306 
L 128.129685 604.22756 
L 128.726867 604.238909 
L 129.921229 604.051888 
L 131.712774 603.873948 
L 132.907136 603.602946 
L 134.101499 603.47351 
L 137.087406 602.403988 
L 137.684588 602.541138 
L 139.476132 603.724396 
L 141.864858 604.118517 
L 142.462039 604.031289 
L 143.656402 604.06265 
L 145.447946 603.822701 
L 146.045127 603.692739 
L 147.23949 603.270671 
L 147.836672 603.43253 
L 148.433853 603.917152 
L 149.628216 605.234563 
L 150.225397 605.568392 
L 150.822579 605.603346 
L 151.41976 605.522432 
L 153.211304 604.9205 
L 154.405667 604.950444 
L 155.60003 604.449563 
L 156.794393 603.984655 
L 157.988756 603.773815 
L 158.585937 603.564035 
L 159.183118 603.525775 
L 160.974663 603.860633 
L 162.766207 603.76738 
L 163.363388 603.482941 
L 164.557751 602.527499 
L 166.349295 602.100981 
L 166.946477 602.13126 
L 168.14084 602.468196 
L 169.932384 602.558821 
L 171.126747 602.842763 
L 171.723928 602.790807 
L 172.918291 602.524398 
L 174.112654 602.538811 
L 175.904198 602.136243 
L 177.098561 602.317376 
L 178.292924 602.664474 
L 180.084468 602.569158 
L 180.681649 602.666055 
L 181.876012 603.037329 
L 187.250645 602.75715 
L 190.236552 602.062208 
L 191.430915 602.121243 
L 192.625277 602.660815 
L 193.222459 603.030756 
L 193.81964 603.586957 
L 194.416822 603.890289 
L 195.611184 604.040577 
L 196.208366 603.977449 
L 197.402729 603.57354 
L 198.597091 603.543525 
L 200.388636 603.168334 
L 202.18018 603.249246 
L 203.374543 603.233823 
L 204.568906 602.958227 
L 205.763268 603.235763 
L 206.36045 603.128601 
L 207.554813 602.538036 
L 208.151994 602.194947 
L 208.749175 602.050603 
L 209.346357 602.089285 
L 209.943538 602.33647 
L 213.526627 604.638585 
L 214.123808 604.879077 
L 215.318171 604.786696 
L 217.706897 603.974854 
L 218.901259 603.386016 
L 220.692804 602.247227 
L 221.289985 602.149797 
L 221.887166 602.294353 
L 223.678711 603.1917 
L 225.470255 603.752601 
L 227.858981 603.612942 
L 229.053343 603.711647 
L 230.247706 603.762403 
L 231.442069 604.191059 
L 232.03925 604.256903 
L 232.636432 604.030759 
L 233.233613 603.990659 
L 235.025157 604.35599 
L 236.21952 604.280826 
L 236.816702 604.368375 
L 238.011064 604.868347 
L 238.608246 605.263689 
L 239.205427 605.511207 
L 239.802609 605.48212 
L 241.594153 604.85966 
L 245.177241 604.852358 
L 246.371604 604.990877 
L 247.565967 605.303603 
L 251.149055 605.117027 
L 254.732144 606.02423 
L 255.926507 606.10093 
L 257.12087 606.01288 
L 258.315232 605.941839 
L 259.509595 605.899379 
L 261.301139 606.370393 
L 262.495502 606.393313 
L 263.689865 606.712601 
L 264.884228 607.093724 
L 266.078591 607.51479 
L 267.272954 607.831516 
L 267.870135 607.890439 
L 270.258861 606.957973 
L 270.856042 606.677785 
L 272.050405 605.89758 
L 272.647586 605.714185 
L 275.036312 605.831765 
L 278.022219 607.081925 
L 279.216582 607.925826 
L 280.410945 608.301921 
L 282.202489 608.262539 
L 285.785577 607.41774 
L 287.577121 606.566649 
L 288.771484 605.766968 
L 289.368666 605.535607 
L 289.965847 605.583317 
L 292.951754 606.836723 
L 294.146117 606.946041 
L 295.34048 606.799906 
L 296.534843 606.700753 
L 297.132024 606.614914 
L 297.729205 606.686432 
L 298.326387 606.927328 
L 300.117931 608.146117 
L 301.909475 607.974873 
L 303.701019 608.362224 
L 304.298201 608.522742 
L 304.895382 608.541538 
L 305.492564 608.273513 
L 307.881289 607.943056 
L 309.075652 607.985026 
L 310.270015 607.957369 
L 313.853103 606.800142 
L 314.450285 606.577003 
L 315.047466 606.56964 
L 315.644648 606.833265 
L 317.436192 608.08699 
L 318.033373 608.325352 
L 320.422099 608.080455 
L 321.01928 608.093205 
L 324.005187 607.516788 
L 325.796732 606.925881 
L 328.185457 607.452515 
L 329.977001 608.247707 
L 331.768546 608.437843 
L 335.948816 608.607581 
L 337.74036 608.399612 
L 338.337541 608.301282 
L 338.934723 608.333986 
L 340.129085 608.694348 
L 343.114993 608.384691 
L 344.309355 608.48205 
L 345.503718 609.059899 
L 347.295262 610.337436 
L 347.892444 610.475431 
L 348.489625 610.449886 
L 349.683988 610.121434 
L 350.281169 609.7824 
L 351.475532 608.947389 
L 352.669895 608.685068 
L 354.461439 608.221877 
L 355.655802 608.5274 
L 356.850165 608.395776 
L 358.641709 608.156854 
L 359.836072 608.457363 
L 361.030435 608.180853 
L 362.224798 607.869092 
L 362.821979 607.829939 
L 363.41916 608.02343 
L 364.016342 608.428075 
L 366.405067 609.27696 
L 367.59943 609.301041 
L 368.793793 609.162051 
L 371.182519 609.176893 
L 371.7797 609.030293 
L 372.376882 609.049417 
L 373.571244 609.299078 
L 374.168426 609.079244 
L 375.362789 608.388101 
L 375.95997 608.288736 
L 379.543058 608.53092 
L 380.737421 608.726713 
L 382.528966 608.641322 
L 383.126147 608.648339 
L 383.723328 608.794597 
L 384.32051 608.813876 
L 384.917691 608.690886 
L 385.514873 608.687677 
L 386.709235 608.902423 
L 387.903598 608.86594 
L 389.695142 609.66984 
L 391.486687 609.972967 
L 392.083868 609.941234 
L 392.681049 609.746579 
L 393.278231 609.433562 
L 395.666957 607.425282 
L 396.264138 607.162301 
L 397.458501 607.127992 
L 399.250045 607.068037 
L 399.847226 607.233146 
L 403.430315 608.964525 
L 404.027496 608.992364 
L 405.81904 608.635388 
L 407.013403 608.342412 
L 407.610585 608.149423 
L 408.207766 608.090985 
L 409.99931 608.367841 
L 411.193673 608.079688 
L 412.388036 608.41957 
L 412.985217 608.293757 
L 413.582399 607.899397 
L 415.373943 606.348611 
L 417.165487 605.224758 
L 417.762669 604.973443 
L 418.35985 604.845476 
L 418.957031 604.866356 
L 420.151394 605.177286 
L 420.748576 604.996003 
L 422.54012 603.981201 
L 423.137301 603.856477 
L 424.331664 604.161542 
L 425.526027 604.584255 
L 426.123208 604.612734 
L 427.317571 604.092912 
L 427.914753 604.049574 
L 428.511934 604.125029 
L 429.109115 604.314611 
L 430.303478 604.987377 
L 430.90066 605.171529 
L 432.095022 605.338301 
L 433.886567 606.044104 
L 435.08093 605.902465 
L 435.08093 605.902465 
" clip-path="url(#p92b55d63ff)" style="fill: none; stroke: #1f77b4; stroke-width: 1.5; stroke-linecap: square"/>
   </g>
   <g id="line2d_31">
    <path d="M 66.62 605.550279 
L 464.94 605.550279 
" clip-path="url(#p92b55d63ff)" style="fill: none; stroke: #ff0000; stroke-opacity: 0.3; stroke-width: 1.5; stroke-linecap: square"/>
   </g>
   <g id="patch_8">
    <path d="M 66.62 667.24 
L 66.62 385.08 
" style="fill: none; stroke: #000000; stroke-width: 0.8; stroke-linejoin: miter; stroke-linecap: square"/>
   </g>
   <g id="patch_9">
    <path d="M 464.94 667.24 
L 464.94 385.08 
" style="fill: none; stroke: #000000; stroke-width: 0.8; stroke-linejoin: miter; stroke-linecap: square"/>
   </g>
   <g id="patch_10">
    <path d="M 66.62 667.24 
L 464.94 667.24 
" style="fill: none; stroke: #000000; stroke-width: 0.8; stroke-linejoin: miter; stroke-linecap: square"/>
   </g>
   <g id="patch_11">
    <path d="M 66.62 385.08 
L 464.94 385.08 
" style="fill: none; stroke: #000000; stroke-width: 0.8; stroke-linejoin: miter; stroke-linecap: square"/>
   </g>
   <g id="text_33">
    <!-- Pressure -->
    <g transform="translate(228.89665 379.08) scale(0.1728 -0.1728)">
     <defs>
      <path id="DejaVuSans-50" d="M 1259 4147 
L 1259 2394 
L 2053 2394 
Q 2494 2394 2734 2622 
Q 2975 2850 2975 3272 
Q 2975 3691 2734 3919 
Q 2494 4147 2053 4147 
L 1259 4147 
z
M 628 4666 
L 2053 4666 
Q 2838 4666 3239 4311 
Q 3641 3956 3641 3272 
Q 3641 2581 3239 2228 
Q 2838 1875 2053 1875 
L 1259 1875 
L 1259 0 
L 628 0 
L 628 4666 
z
" transform="scale(0.015625)"/>
     </defs>
     <use xlink:href="#DejaVuSans-50"/>
     <use xlink:href="#DejaVuSans-72" x="58.552734"/>
     <use xlink:href="#DejaVuSans-65" x="97.416016"/>
     <use xlink:href="#DejaVuSans-73" x="158.939453"/>
     <use xlink:href="#DejaVuSans-73" x="211.039062"/>
     <use xlink:href="#DejaVuSans-75" x="263.138672"/>
     <use xlink:href="#DejaVuSans-72" x="326.517578"/>
     <use xlink:href="#DejaVuSans-65" x="365.380859"/>
    </g>
   </g>
  </g>
  <g id="axes_3">
   <g id="patch_12">
    <path d="M 526.88 667.24 
L 925.2 667.24 
L 925.2 385.08 
L 526.88 385.08 
z
" style="fill: #ffffff"/>
   </g>
   <g id="matplotlib.axis_5">
    <g id="xtick_15">
     <g id="line2d_32">
      <g>
       <use xlink:href="#m1513ccbe58" x="526.88" y="667.24" style="stroke: #000000; stroke-width: 0.8"/>
      </g>
     </g>
     <g id="text_34">
      <!-- 0 -->
      <g transform="translate(522.299 685.18175) scale(0.144 -0.144)">
       <use xlink:href="#DejaVuSans-30"/>
      </g>
     </g>
    </g>
    <g id="xtick_16">
     <g id="line2d_33">
      <g>
       <use xlink:href="#m1513ccbe58" x="586.598141" y="667.24" style="stroke: #000000; stroke-width: 0.8"/>
      </g>
     </g>
     <g id="text_35">
      <!-- 1 -->
      <g transform="translate(582.017141 685.18175) scale(0.144 -0.144)">
       <use xlink:href="#DejaVuSans-31"/>
      </g>
     </g>
    </g>
    <g id="xtick_17">
     <g id="line2d_34">
      <g>
       <use xlink:href="#m1513ccbe58" x="646.316282" y="667.24" style="stroke: #000000; stroke-width: 0.8"/>
      </g>
     </g>
     <g id="text_36">
      <!-- 2 -->
      <g transform="translate(641.735282 685.18175) scale(0.144 -0.144)">
       <use xlink:href="#DejaVuSans-32"/>
      </g>
     </g>
    </g>
    <g id="xtick_18">
     <g id="line2d_35">
      <g>
       <use xlink:href="#m1513ccbe58" x="706.034423" y="667.24" style="stroke: #000000; stroke-width: 0.8"/>
      </g>
     </g>
     <g id="text_37">
      <!-- 3 -->
      <g transform="translate(701.453423 685.18175) scale(0.144 -0.144)">
       <use xlink:href="#DejaVuSans-33"/>
      </g>
     </g>
    </g>
    <g id="xtick_19">
     <g id="line2d_36">
      <g>
       <use xlink:href="#m1513ccbe58" x="765.752564" y="667.24" style="stroke: #000000; stroke-width: 0.8"/>
      </g>
     </g>
     <g id="text_38">
      <!-- 4 -->
      <g transform="translate(761.171564 685.18175) scale(0.144 -0.144)">
       <use xlink:href="#DejaVuSans-34"/>
      </g>
     </g>
    </g>
    <g id="xtick_20">
     <g id="line2d_37">
      <g>
       <use xlink:href="#m1513ccbe58" x="825.470705" y="667.24" style="stroke: #000000; stroke-width: 0.8"/>
      </g>
     </g>
     <g id="text_39">
      <!-- 5 -->
      <g transform="translate(820.889705 685.18175) scale(0.144 -0.144)">
       <use xlink:href="#DejaVuSans-35"/>
      </g>
     </g>
    </g>
    <g id="xtick_21">
     <g id="line2d_38">
      <g>
       <use xlink:href="#m1513ccbe58" x="885.188846" y="667.24" style="stroke: #000000; stroke-width: 0.8"/>
      </g>
     </g>
     <g id="text_40">
      <!-- 6 -->
      <g transform="translate(880.607846 685.18175) scale(0.144 -0.144)">
       <use xlink:href="#DejaVuSans-36"/>
      </g>
     </g>
    </g>
    <g id="text_41">
     <!-- time in a.u. -->
     <g transform="translate(676.89055 705.3066) scale(0.1728 -0.1728)">
      <use xlink:href="#DejaVuSans-74"/>
      <use xlink:href="#DejaVuSans-69" x="39.208984"/>
      <use xlink:href="#DejaVuSans-6d" x="66.992188"/>
      <use xlink:href="#DejaVuSans-65" x="164.404297"/>
      <use xlink:href="#DejaVuSans-20" x="225.927734"/>
      <use xlink:href="#DejaVuSans-69" x="257.714844"/>
      <use xlink:href="#DejaVuSans-6e" x="285.498047"/>
      <use xlink:href="#DejaVuSans-20" x="348.876953"/>
      <use xlink:href="#DejaVuSans-61" x="380.664062"/>
      <use xlink:href="#DejaVuSans-2e" x="441.943359"/>
      <use xlink:href="#DejaVuSans-75" x="473.730469"/>
      <use xlink:href="#DejaVuSans-2e" x="537.109375"/>
     </g>
    </g>
   </g>
   <g id="matplotlib.axis_6">
    <g id="ytick_14">
     <g id="line2d_39">
      <g>
       <use xlink:href="#m83dacf1c7e" x="526.88" y="620.759836" style="stroke: #000000; stroke-width: 0.8"/>
      </g>
     </g>
     <g id="text_42">
      <!-- 1.0 -->
      <g transform="translate(496.9795 626.230711) scale(0.144 -0.144)">
       <use xlink:href="#DejaVuSans-31"/>
       <use xlink:href="#DejaVuSans-2e" x="63.623047"/>
       <use xlink:href="#DejaVuSans-30" x="95.410156"/>
      </g>
     </g>
    </g>
    <g id="ytick_15">
     <g id="line2d_40">
      <g>
       <use xlink:href="#m83dacf1c7e" x="526.88" y="570.832959" style="stroke: #000000; stroke-width: 0.8"/>
      </g>
     </g>
     <g id="text_43">
      <!-- 1.2 -->
      <g transform="translate(496.9795 576.303834) scale(0.144 -0.144)">
       <use xlink:href="#DejaVuSans-31"/>
       <use xlink:href="#DejaVuSans-2e" x="63.623047"/>
       <use xlink:href="#DejaVuSans-32" x="95.410156"/>
      </g>
     </g>
    </g>
    <g id="ytick_16">
     <g id="line2d_41">
      <g>
       <use xlink:href="#m83dacf1c7e" x="526.88" y="520.906082" style="stroke: #000000; stroke-width: 0.8"/>
      </g>
     </g>
     <g id="text_44">
      <!-- 1.4 -->
      <g transform="translate(496.9795 526.376957) scale(0.144 -0.144)">
       <use xlink:href="#DejaVuSans-31"/>
       <use xlink:href="#DejaVuSans-2e" x="63.623047"/>
       <use xlink:href="#DejaVuSans-34" x="95.410156"/>
      </g>
     </g>
    </g>
    <g id="ytick_17">
     <g id="line2d_42">
      <g>
       <use xlink:href="#m83dacf1c7e" x="526.88" y="470.979205" style="stroke: #000000; stroke-width: 0.8"/>
      </g>
     </g>
     <g id="text_45">
      <!-- 1.6 -->
      <g transform="translate(496.9795 476.45008) scale(0.144 -0.144)">
       <use xlink:href="#DejaVuSans-31"/>
       <use xlink:href="#DejaVuSans-2e" x="63.623047"/>
       <use xlink:href="#DejaVuSans-36" x="95.410156"/>
      </g>
     </g>
    </g>
    <g id="ytick_18">
     <g id="line2d_43">
      <g>
       <use xlink:href="#m83dacf1c7e" x="526.88" y="421.052328" style="stroke: #000000; stroke-width: 0.8"/>
      </g>
     </g>
     <g id="text_46">
      <!-- 1.8 -->
      <g transform="translate(496.9795 426.523203) scale(0.144 -0.144)">
       <use xlink:href="#DejaVuSans-31"/>
       <use xlink:href="#DejaVuSans-2e" x="63.623047"/>
       <use xlink:href="#DejaVuSans-38" x="95.410156"/>
      </g>
     </g>
    </g>
    <g id="text_47">
     <!-- (avg. M=49) temperature in a.u. -->
     <g transform="translate(489.3858 666.65585) rotate(-90) scale(0.1728 -0.1728)">
      <use xlink:href="#DejaVuSans-28"/>
      <use xlink:href="#DejaVuSans-61" x="39.013672"/>
      <use xlink:href="#DejaVuSans-76" x="100.292969"/>
      <use xlink:href="#DejaVuSans-67" x="159.472656"/>
      <use xlink:href="#DejaVuSans-2e" x="222.949219"/>
      <use xlink:href="#DejaVuSans-20" x="254.736328"/>
      <use xlink:href="#DejaVuSans-4d" x="286.523438"/>
      <use xlink:href="#DejaVuSans-3d" x="372.802734"/>
      <use xlink:href="#DejaVuSans-34" x="456.591797"/>
      <use xlink:href="#DejaVuSans-39" x="520.214844"/>
      <use xlink:href="#DejaVuSans-29" x="583.837891"/>
      <use xlink:href="#DejaVuSans-20" x="622.851562"/>
      <use xlink:href="#DejaVuSans-74" x="654.638672"/>
      <use xlink:href="#DejaVuSans-65" x="693.847656"/>
      <use xlink:href="#DejaVuSans-6d" x="755.371094"/>
      <use xlink:href="#DejaVuSans-70" x="852.783203"/>
      <use xlink:href="#DejaVuSans-65" x="916.259766"/>
      <use xlink:href="#DejaVuSans-72" x="977.783203"/>
      <use xlink:href="#DejaVuSans-61" x="1018.896484"/>
      <use xlink:href="#DejaVuSans-74" x="1080.175781"/>
      <use xlink:href="#DejaVuSans-75" x="1119.384766"/>
      <use xlink:href="#DejaVuSans-72" x="1182.763672"/>
      <use xlink:href="#DejaVuSans-65" x="1221.626953"/>
      <use xlink:href="#DejaVuSans-20" x="1283.150391"/>
      <use xlink:href="#DejaVuSans-69" x="1314.9375"/>
      <use xlink:href="#DejaVuSans-6e" x="1342.720703"/>
      <use xlink:href="#DejaVuSans-20" x="1406.099609"/>
      <use xlink:href="#DejaVuSans-61" x="1437.886719"/>
      <use xlink:href="#DejaVuSans-2e" x="1499.166016"/>
      <use xlink:href="#DejaVuSans-75" x="1530.953125"/>
      <use xlink:href="#DejaVuSans-2e" x="1594.332031"/>
     </g>
    </g>
   </g>
   <g id="line2d_44">
    <path d="M 556.141889 618.044932 
L 556.73907 620.040567 
L 557.336252 620.872813 
L 557.933433 621.01217 
L 563.308066 620.32996 
L 563.905247 620.440326 
L 565.696792 620.368087 
L 566.293973 620.21165 
L 567.488336 620.357133 
L 568.085517 620.247579 
L 569.27988 620.378538 
L 570.474243 620.614857 
L 572.265787 620.604976 
L 572.862969 620.428461 
L 575.251694 620.786327 
L 576.446057 620.382096 
L 577.64042 620.745643 
L 578.834783 620.713942 
L 581.82069 620.80931 
L 583.015052 620.369946 
L 583.612234 620.447671 
L 584.209415 620.393311 
L 585.403778 620.6283 
L 586.598141 620.399654 
L 587.792504 620.749062 
L 588.986867 620.533802 
L 589.584048 620.624645 
L 591.375592 620.407133 
L 592.569955 620.512178 
L 593.764318 620.43404 
L 595.555862 620.716226 
L 596.153043 620.559754 
L 596.750225 620.725593 
L 597.347406 620.75019 
L 598.541769 620.402583 
L 599.138951 620.399424 
L 600.333313 620.71547 
L 601.527676 620.622158 
L 605.110765 620.799536 
L 606.305127 620.865001 
L 606.902309 621.023014 
L 607.49949 620.97756 
L 609.291034 620.351136 
L 612.276942 620.865064 
L 612.874123 620.879562 
L 614.068486 620.568359 
L 614.665667 620.574757 
L 615.86003 620.836735 
L 618.248756 620.812877 
L 618.845937 620.931709 
L 620.637481 620.673686 
L 621.831844 620.868816 
L 622.429025 620.780903 
L 623.623388 620.997399 
L 624.22057 621.187114 
L 624.817751 621.115461 
L 625.414933 620.922026 
L 626.012114 620.934196 
L 626.609295 621.05783 
L 627.803658 620.798283 
L 631.983928 620.854026 
L 632.581109 620.94851 
L 634.372654 620.751752 
L 634.969835 620.937848 
L 635.567016 620.968798 
L 636.761379 620.820829 
L 637.955742 620.751922 
L 638.552924 620.818348 
L 639.150105 621.026926 
L 642.136012 620.86316 
L 642.733193 621.0034 
L 643.330375 620.995352 
L 644.524738 620.852237 
L 645.121919 620.918247 
L 647.510645 620.788179 
L 648.705007 620.920123 
L 650.496552 620.86278 
L 652.288096 620.77636 
L 653.482459 620.71659 
L 654.07964 620.511471 
L 655.274003 620.805093 
L 656.468366 620.793167 
L 657.065547 620.880979 
L 657.662729 620.83867 
L 658.25991 620.669055 
L 658.857091 620.675031 
L 659.454273 620.801836 
L 662.44018 620.536649 
L 663.634543 620.57106 
L 664.828906 620.715216 
L 665.426087 620.473328 
L 666.023268 620.501776 
L 666.62045 620.726234 
L 668.411994 620.944016 
L 670.80072 620.569255 
L 674.383808 620.629215 
L 674.98099 620.755675 
L 678.564078 620.645057 
L 680.952804 620.851541 
L 682.744348 620.512355 
L 684.535892 620.653995 
L 685.133073 620.583108 
L 686.924618 620.880905 
L 688.716162 620.729372 
L 689.910525 620.807608 
L 691.702069 620.542135 
L 692.29925 620.628517 
L 692.896432 620.887183 
L 694.090795 620.558017 
L 695.285157 620.60458 
L 695.882339 620.754817 
L 698.271064 620.480332 
L 698.868246 620.362298 
L 700.062609 620.647948 
L 701.256972 620.785955 
L 702.451334 620.592491 
L 706.631604 620.766549 
L 707.228786 620.700943 
L 708.423148 620.997416 
L 710.811874 621.030955 
L 713.2006 620.888317 
L 717.38087 620.924669 
L 717.978051 620.888604 
L 718.575232 620.981051 
L 721.561139 620.90435 
L 722.158321 620.996483 
L 723.352684 620.742568 
L 723.949865 620.823621 
L 728.130135 620.688833 
L 728.727316 620.894002 
L 729.324498 620.916909 
L 729.921679 620.814894 
L 731.116042 620.8515 
L 731.713223 621.004698 
L 734.101949 620.80673 
L 735.296312 620.934563 
L 735.893493 620.763099 
L 736.490675 620.719155 
L 737.087856 620.910481 
L 738.282219 620.718504 
L 738.8794 620.602362 
L 743.656852 620.877419 
L 744.254033 620.67763 
L 746.045577 620.624293 
L 749.628666 620.78809 
L 750.823028 620.573651 
L 752.614573 620.673099 
L 753.808936 620.746914 
L 757.989205 620.825705 
L 759.78075 620.556891 
L 760.975112 621.003703 
L 761.572294 620.974854 
L 762.169475 620.760214 
L 765.155382 620.58702 
L 765.752564 620.804485 
L 766.349745 620.57764 
L 767.544108 620.556368 
L 768.738471 620.485634 
L 769.932834 620.419284 
L 771.724378 620.564928 
L 775.307466 620.706761 
L 776.501829 620.524351 
L 778.293373 620.702949 
L 778.890555 620.969063 
L 781.27928 620.877598 
L 782.473643 621.02727 
L 784.265187 621.009362 
L 785.45955 621.175862 
L 787.251094 620.866302 
L 787.848276 620.956987 
L 790.237001 620.808788 
L 790.834183 620.937918 
L 796.805997 620.857508 
L 798.597541 620.891107 
L 799.791904 620.61126 
L 800.389085 620.661921 
L 800.986267 620.851015 
L 804.569355 620.874169 
L 805.166537 620.762879 
L 806.3609 620.676406 
L 806.958081 620.626685 
L 808.749625 620.855577 
L 811.735532 620.835483 
L 812.929895 620.634216 
L 814.124258 620.768988 
L 814.721439 620.776045 
L 815.318621 620.55647 
L 815.915802 620.595491 
L 817.110165 620.85368 
L 818.901709 620.836078 
L 819.498891 620.665526 
L 820.096072 620.679927 
L 820.693253 620.911733 
L 821.887616 621.025496 
L 823.081979 621.023407 
L 824.276342 620.716813 
L 824.873523 620.912828 
L 825.470705 620.968469 
L 826.067886 620.824682 
L 829.053793 620.947994 
L 830.845337 620.797911 
L 832.0397 620.974325 
L 833.234063 620.641079 
L 833.831244 620.674769 
L 834.428426 620.883168 
L 835.025607 620.967366 
L 838.011514 620.628095 
L 839.205877 620.590311 
L 840.997421 620.543941 
L 843.386147 620.595341 
L 843.983328 620.480964 
L 845.177691 620.790656 
L 846.372054 620.57876 
L 847.566417 620.861651 
L 848.163598 620.789369 
L 848.76078 620.573957 
L 849.357961 620.551951 
L 849.955142 620.714896 
L 853.538231 620.685742 
L 854.135412 620.832536 
L 856.524138 620.685759 
L 857.718501 620.525033 
L 858.912864 620.714789 
L 860.704408 620.599806 
L 861.898771 620.71769 
L 863.093133 620.624644 
L 864.287496 620.822321 
L 865.481859 620.843574 
L 867.273403 620.857706 
L 867.870585 620.89913 
L 869.662129 620.721967 
L 870.25931 620.808219 
L 870.856492 621.017571 
L 871.453673 621.016071 
L 872.050855 620.660112 
L 873.245217 620.874062 
L 874.43958 621.058207 
L 876.231124 620.760827 
L 879.217031 620.539253 
L 879.814213 620.370338 
L 880.411394 620.468511 
L 881.605757 620.841623 
L 883.397301 620.752399 
L 883.994483 620.637857 
L 885.786027 620.742729 
L 887.577571 621.167468 
L 888.174753 620.980595 
L 890.563478 620.816178 
L 891.757841 621.080382 
L 893.549385 620.772633 
L 895.34093 620.93043 
L 895.34093 620.93043 
" clip-path="url(#pe5b1f430fe)" style="fill: none; stroke: #1f77b4; stroke-width: 1.5; stroke-linecap: square"/>
   </g>
   <g id="line2d_45">
    <path d="M 526.88 620.363048 
L 925.2 620.363048 
" clip-path="url(#pe5b1f430fe)" style="fill: none; stroke: #ff0000; stroke-opacity: 0.3; stroke-width: 1.5; stroke-linecap: square"/>
   </g>
   <g id="patch_13">
    <path d="M 526.88 667.24 
L 526.88 385.08 
" style="fill: none; stroke: #000000; stroke-width: 0.8; stroke-linejoin: miter; stroke-linecap: square"/>
   </g>
   <g id="patch_14">
    <path d="M 925.2 667.24 
L 925.2 385.08 
" style="fill: none; stroke: #000000; stroke-width: 0.8; stroke-linejoin: miter; stroke-linecap: square"/>
   </g>
   <g id="patch_15">
    <path d="M 526.88 667.24 
L 925.2 667.24 
" style="fill: none; stroke: #000000; stroke-width: 0.8; stroke-linejoin: miter; stroke-linecap: square"/>
   </g>
   <g id="patch_16">
    <path d="M 526.88 385.08 
L 925.2 385.08 
" style="fill: none; stroke: #000000; stroke-width: 0.8; stroke-linejoin: miter; stroke-linecap: square"/>
   </g>
   <g id="text_48">
    <!-- Temperature -->
    <g transform="translate(671.31505 379.08) scale(0.1728 -0.1728)">
     <defs>
      <path id="DejaVuSans-54" d="M -19 4666 
L 3928 4666 
L 3928 4134 
L 2272 4134 
L 2272 0 
L 1638 0 
L 1638 4134 
L -19 4134 
L -19 4666 
z
" transform="scale(0.015625)"/>
     </defs>
     <use xlink:href="#DejaVuSans-54"/>
     <use xlink:href="#DejaVuSans-65" x="44.083984"/>
     <use xlink:href="#DejaVuSans-6d" x="105.607422"/>
     <use xlink:href="#DejaVuSans-70" x="203.019531"/>
     <use xlink:href="#DejaVuSans-65" x="266.496094"/>
     <use xlink:href="#DejaVuSans-72" x="328.019531"/>
     <use xlink:href="#DejaVuSans-61" x="369.132812"/>
     <use xlink:href="#DejaVuSans-74" x="430.412109"/>
     <use xlink:href="#DejaVuSans-75" x="469.621094"/>
     <use xlink:href="#DejaVuSans-72" x="533"/>
     <use xlink:href="#DejaVuSans-65" x="571.863281"/>
    </g>
   </g>
  </g>
 </g>
 <defs>
  <clipPath id="p3a3cc7461c">
   <rect x="66.62" y="30.48" width="858.58" height="282.16"/>
  </clipPath>
  <clipPath id="p92b55d63ff">
   <rect x="66.62" y="385.08" width="398.32" height="282.16"/>
  </clipPath>
  <clipPath id="pe5b1f430fe">
   <rect x="526.88" y="385.08" width="398.32" height="282.16"/>
  </clipPath>
 </defs>
</svg>
