<?xml version="1.0" encoding="utf-8" standalone="no"?>
<!DOCTYPE svg PUBLIC "-//W3C//DTD SVG 1.1//EN"
  "http://www.w3.org/Graphics/SVG/1.1/DTD/svg11.dtd">
<svg xmlns:xlink="http://www.w3.org/1999/xlink" width="936pt" height="720pt" viewBox="0 0 936 720" xmlns="http://www.w3.org/2000/svg" version="1.1">
 <metadata>
  <rdf:RDF xmlns:dc="http://purl.org/dc/elements/1.1/" xmlns:cc="http://creativecommons.org/ns#" xmlns:rdf="http://www.w3.org/1999/02/22-rdf-syntax-ns#">
   <cc:Work>
    <dc:type rdf:resource="http://purl.org/dc/dcmitype/StillImage"/>
    <dc:date>2024-12-09T07:09:09.464462</dc:date>
    <dc:format>image/svg+xml</dc:format>
    <dc:creator>
     <cc:Agent>
      <dc:title>Matplotlib v3.8.0, https://matplotlib.org/</dc:title>
     </cc:Agent>
    </dc:creator>
   </cc:Work>
  </rdf:RDF>
 </metadata>
 <defs>
  <style type="text/css">*{stroke-linejoin: round; stroke-linecap: butt}</style>
 </defs>
 <g id="figure_1">
  <g id="patch_1">
   <path d="M 0 720 
L 936 720 
L 936 0 
L 0 0 
z
" style="fill: #ffffff"/>
  </g>
  <g id="axes_1">
   <g id="patch_2">
    <path d="M 71.12 312.64 
L 925.2 312.64 
L 925.2 30.48 
L 71.12 30.48 
z
" style="fill: #ffffff"/>
   </g>
   <g id="matplotlib.axis_1">
    <g id="xtick_1">
     <g id="line2d_1">
      <defs>
       <path id="mb891e9f05e" d="M 0 0 
L 0 3.5 
" style="stroke: #000000; stroke-width: 0.8"/>
      </defs>
      <g>
       <use xlink:href="#mb891e9f05e" x="71.12" y="312.64" style="stroke: #000000; stroke-width: 0.8"/>
      </g>
     </g>
     <g id="text_1">
      <!-- 0 -->
      <g transform="translate(66.539 330.58175) scale(0.144 -0.144)">
       <defs>
        <path id="DejaVuSans-30" d="M 2034 4250 
Q 1547 4250 1301 3770 
Q 1056 3291 1056 2328 
Q 1056 1369 1301 889 
Q 1547 409 2034 409 
Q 2525 409 2770 889 
Q 3016 1369 3016 2328 
Q 3016 3291 2770 3770 
Q 2525 4250 2034 4250 
z
M 2034 4750 
Q 2819 4750 3233 4129 
Q 3647 3509 3647 2328 
Q 3647 1150 3233 529 
Q 2819 -91 2034 -91 
Q 1250 -91 836 529 
Q 422 1150 422 2328 
Q 422 3509 836 4129 
Q 1250 4750 2034 4750 
z
" transform="scale(0.015625)"/>
       </defs>
       <use xlink:href="#DejaVuSans-30"/>
      </g>
     </g>
    </g>
    <g id="xtick_2">
     <g id="line2d_2">
      <g>
       <use xlink:href="#mb891e9f05e" x="199.167976" y="312.64" style="stroke: #000000; stroke-width: 0.8"/>
      </g>
     </g>
     <g id="text_2">
      <!-- 1 -->
      <g transform="translate(194.586976 330.58175) scale(0.144 -0.144)">
       <defs>
        <path id="DejaVuSans-31" d="M 794 531 
L 1825 531 
L 1825 4091 
L 703 3866 
L 703 4441 
L 1819 4666 
L 2450 4666 
L 2450 531 
L 3481 531 
L 3481 0 
L 794 0 
L 794 531 
z
" transform="scale(0.015625)"/>
       </defs>
       <use xlink:href="#DejaVuSans-31"/>
      </g>
     </g>
    </g>
    <g id="xtick_3">
     <g id="line2d_3">
      <g>
       <use xlink:href="#mb891e9f05e" x="327.215952" y="312.64" style="stroke: #000000; stroke-width: 0.8"/>
      </g>
     </g>
     <g id="text_3">
      <!-- 2 -->
      <g transform="translate(322.634952 330.58175) scale(0.144 -0.144)">
       <defs>
        <path id="DejaVuSans-32" d="M 1228 531 
L 3431 531 
L 3431 0 
L 469 0 
L 469 531 
Q 828 903 1448 1529 
Q 2069 2156 2228 2338 
Q 2531 2678 2651 2914 
Q 2772 3150 2772 3378 
Q 2772 3750 2511 3984 
Q 2250 4219 1831 4219 
Q 1534 4219 1204 4116 
Q 875 4013 500 3803 
L 500 4441 
Q 881 4594 1212 4672 
Q 1544 4750 1819 4750 
Q 2544 4750 2975 4387 
Q 3406 4025 3406 3419 
Q 3406 3131 3298 2873 
Q 3191 2616 2906 2266 
Q 2828 2175 2409 1742 
Q 1991 1309 1228 531 
z
" transform="scale(0.015625)"/>
       </defs>
       <use xlink:href="#DejaVuSans-32"/>
      </g>
     </g>
    </g>
    <g id="xtick_4">
     <g id="line2d_4">
      <g>
       <use xlink:href="#mb891e9f05e" x="455.263928" y="312.64" style="stroke: #000000; stroke-width: 0.8"/>
      </g>
     </g>
     <g id="text_4">
      <!-- 3 -->
      <g transform="translate(450.682928 330.58175) scale(0.144 -0.144)">
       <defs>
        <path id="DejaVuSans-33" d="M 2597 2516 
Q 3050 2419 3304 2112 
Q 3559 1806 3559 1356 
Q 3559 666 3084 287 
Q 2609 -91 1734 -91 
Q 1441 -91 1130 -33 
Q 819 25 488 141 
L 488 750 
Q 750 597 1062 519 
Q 1375 441 1716 441 
Q 2309 441 2620 675 
Q 2931 909 2931 1356 
Q 2931 1769 2642 2001 
Q 2353 2234 1838 2234 
L 1294 2234 
L 1294 2753 
L 1863 2753 
Q 2328 2753 2575 2939 
Q 2822 3125 2822 3475 
Q 2822 3834 2567 4026 
Q 2313 4219 1838 4219 
Q 1578 4219 1281 4162 
Q 984 4106 628 3988 
L 628 4550 
Q 988 4650 1302 4700 
Q 1616 4750 1894 4750 
Q 2613 4750 3031 4423 
Q 3450 4097 3450 3541 
Q 3450 3153 3228 2886 
Q 3006 2619 2597 2516 
z
" transform="scale(0.015625)"/>
       </defs>
       <use xlink:href="#DejaVuSans-33"/>
      </g>
     </g>
    </g>
    <g id="xtick_5">
     <g id="line2d_5">
      <g>
       <use xlink:href="#mb891e9f05e" x="583.311904" y="312.64" style="stroke: #000000; stroke-width: 0.8"/>
      </g>
     </g>
     <g id="text_5">
      <!-- 4 -->
      <g transform="translate(578.730904 330.58175) scale(0.144 -0.144)">
       <defs>
        <path id="DejaVuSans-34" d="M 2419 4116 
L 825 1625 
L 2419 1625 
L 2419 4116 
z
M 2253 4666 
L 3047 4666 
L 3047 1625 
L 3713 1625 
L 3713 1100 
L 3047 1100 
L 3047 0 
L 2419 0 
L 2419 1100 
L 313 1100 
L 313 1709 
L 2253 4666 
z
" transform="scale(0.015625)"/>
       </defs>
       <use xlink:href="#DejaVuSans-34"/>
      </g>
     </g>
    </g>
    <g id="xtick_6">
     <g id="line2d_6">
      <g>
       <use xlink:href="#mb891e9f05e" x="711.35988" y="312.64" style="stroke: #000000; stroke-width: 0.8"/>
      </g>
     </g>
     <g id="text_6">
      <!-- 5 -->
      <g transform="translate(706.77888 330.58175) scale(0.144 -0.144)">
       <defs>
        <path id="DejaVuSans-35" d="M 691 4666 
L 3169 4666 
L 3169 4134 
L 1269 4134 
L 1269 2991 
Q 1406 3038 1543 3061 
Q 1681 3084 1819 3084 
Q 2600 3084 3056 2656 
Q 3513 2228 3513 1497 
Q 3513 744 3044 326 
Q 2575 -91 1722 -91 
Q 1428 -91 1123 -41 
Q 819 9 494 109 
L 494 744 
Q 775 591 1075 516 
Q 1375 441 1709 441 
Q 2250 441 2565 725 
Q 2881 1009 2881 1497 
Q 2881 1984 2565 2268 
Q 2250 2553 1709 2553 
Q 1456 2553 1204 2497 
Q 953 2441 691 2322 
L 691 4666 
z
" transform="scale(0.015625)"/>
       </defs>
       <use xlink:href="#DejaVuSans-35"/>
      </g>
     </g>
    </g>
    <g id="xtick_7">
     <g id="line2d_7">
      <g>
       <use xlink:href="#mb891e9f05e" x="839.407856" y="312.64" style="stroke: #000000; stroke-width: 0.8"/>
      </g>
     </g>
     <g id="text_7">
      <!-- 6 -->
      <g transform="translate(834.826856 330.58175) scale(0.144 -0.144)">
       <defs>
        <path id="DejaVuSans-36" d="M 2113 2584 
Q 1688 2584 1439 2293 
Q 1191 2003 1191 1497 
Q 1191 994 1439 701 
Q 1688 409 2113 409 
Q 2538 409 2786 701 
Q 3034 994 3034 1497 
Q 3034 2003 2786 2293 
Q 2538 2584 2113 2584 
z
M 3366 4563 
L 3366 3988 
Q 3128 4100 2886 4159 
Q 2644 4219 2406 4219 
Q 1781 4219 1451 3797 
Q 1122 3375 1075 2522 
Q 1259 2794 1537 2939 
Q 1816 3084 2150 3084 
Q 2853 3084 3261 2657 
Q 3669 2231 3669 1497 
Q 3669 778 3244 343 
Q 2819 -91 2113 -91 
Q 1303 -91 875 529 
Q 447 1150 447 2328 
Q 447 3434 972 4092 
Q 1497 4750 2381 4750 
Q 2619 4750 2861 4703 
Q 3103 4656 3366 4563 
z
" transform="scale(0.015625)"/>
       </defs>
       <use xlink:href="#DejaVuSans-36"/>
      </g>
     </g>
    </g>
    <g id="text_8">
     <!-- time in a.u. -->
     <g transform="translate(449.01055 350.7066) scale(0.1728 -0.1728)">
      <defs>
       <path id="DejaVuSans-74" d="M 1172 4494 
L 1172 3500 
L 2356 3500 
L 2356 3053 
L 1172 3053 
L 1172 1153 
Q 1172 725 1289 603 
Q 1406 481 1766 481 
L 2356 481 
L 2356 0 
L 1766 0 
Q 1100 0 847 248 
Q 594 497 594 1153 
L 594 3053 
L 172 3053 
L 172 3500 
L 594 3500 
L 594 4494 
L 1172 4494 
z
" transform="scale(0.015625)"/>
       <path id="DejaVuSans-69" d="M 603 3500 
L 1178 3500 
L 1178 0 
L 603 0 
L 603 3500 
z
M 603 4863 
L 1178 4863 
L 1178 4134 
L 603 4134 
L 603 4863 
z
" transform="scale(0.015625)"/>
       <path id="DejaVuSans-6d" d="M 3328 2828 
Q 3544 3216 3844 3400 
Q 4144 3584 4550 3584 
Q 5097 3584 5394 3201 
Q 5691 2819 5691 2113 
L 5691 0 
L 5113 0 
L 5113 2094 
Q 5113 2597 4934 2840 
Q 4756 3084 4391 3084 
Q 3944 3084 3684 2787 
Q 3425 2491 3425 1978 
L 3425 0 
L 2847 0 
L 2847 2094 
Q 2847 2600 2669 2842 
Q 2491 3084 2119 3084 
Q 1678 3084 1418 2786 
Q 1159 2488 1159 1978 
L 1159 0 
L 581 0 
L 581 3500 
L 1159 3500 
L 1159 2956 
Q 1356 3278 1631 3431 
Q 1906 3584 2284 3584 
Q 2666 3584 2933 3390 
Q 3200 3197 3328 2828 
z
" transform="scale(0.015625)"/>
       <path id="DejaVuSans-65" d="M 3597 1894 
L 3597 1613 
L 953 1613 
Q 991 1019 1311 708 
Q 1631 397 2203 397 
Q 2534 397 2845 478 
Q 3156 559 3463 722 
L 3463 178 
Q 3153 47 2828 -22 
Q 2503 -91 2169 -91 
Q 1331 -91 842 396 
Q 353 884 353 1716 
Q 353 2575 817 3079 
Q 1281 3584 2069 3584 
Q 2775 3584 3186 3129 
Q 3597 2675 3597 1894 
z
M 3022 2063 
Q 3016 2534 2758 2815 
Q 2500 3097 2075 3097 
Q 1594 3097 1305 2825 
Q 1016 2553 972 2059 
L 3022 2063 
z
" transform="scale(0.015625)"/>
       <path id="DejaVuSans-20" transform="scale(0.015625)"/>
       <path id="DejaVuSans-6e" d="M 3513 2113 
L 3513 0 
L 2938 0 
L 2938 2094 
Q 2938 2591 2744 2837 
Q 2550 3084 2163 3084 
Q 1697 3084 1428 2787 
Q 1159 2491 1159 1978 
L 1159 0 
L 581 0 
L 581 3500 
L 1159 3500 
L 1159 2956 
Q 1366 3272 1645 3428 
Q 1925 3584 2291 3584 
Q 2894 3584 3203 3211 
Q 3513 2838 3513 2113 
z
" transform="scale(0.015625)"/>
       <path id="DejaVuSans-61" d="M 2194 1759 
Q 1497 1759 1228 1600 
Q 959 1441 959 1056 
Q 959 750 1161 570 
Q 1363 391 1709 391 
Q 2188 391 2477 730 
Q 2766 1069 2766 1631 
L 2766 1759 
L 2194 1759 
z
M 3341 1997 
L 3341 0 
L 2766 0 
L 2766 531 
Q 2569 213 2275 61 
Q 1981 -91 1556 -91 
Q 1019 -91 701 211 
Q 384 513 384 1019 
Q 384 1609 779 1909 
Q 1175 2209 1959 2209 
L 2766 2209 
L 2766 2266 
Q 2766 2663 2505 2880 
Q 2244 3097 1772 3097 
Q 1472 3097 1187 3025 
Q 903 2953 641 2809 
L 641 3341 
Q 956 3463 1253 3523 
Q 1550 3584 1831 3584 
Q 2591 3584 2966 3190 
Q 3341 2797 3341 1997 
z
" transform="scale(0.015625)"/>
       <path id="DejaVuSans-2e" d="M 684 794 
L 1344 794 
L 1344 0 
L 684 0 
L 684 794 
z
" transform="scale(0.015625)"/>
       <path id="DejaVuSans-75" d="M 544 1381 
L 544 3500 
L 1119 3500 
L 1119 1403 
Q 1119 906 1312 657 
Q 1506 409 1894 409 
Q 2359 409 2629 706 
Q 2900 1003 2900 1516 
L 2900 3500 
L 3475 3500 
L 3475 0 
L 2900 0 
L 2900 538 
Q 2691 219 2414 64 
Q 2138 -91 1772 -91 
Q 1169 -91 856 284 
Q 544 659 544 1381 
z
M 1991 3584 
L 1991 3584 
z
" transform="scale(0.015625)"/>
      </defs>
      <use xlink:href="#DejaVuSans-74"/>
      <use xlink:href="#DejaVuSans-69" x="39.208984"/>
      <use xlink:href="#DejaVuSans-6d" x="66.992188"/>
      <use xlink:href="#DejaVuSans-65" x="164.404297"/>
      <use xlink:href="#DejaVuSans-20" x="225.927734"/>
      <use xlink:href="#DejaVuSans-69" x="257.714844"/>
      <use xlink:href="#DejaVuSans-6e" x="285.498047"/>
      <use xlink:href="#DejaVuSans-20" x="348.876953"/>
      <use xlink:href="#DejaVuSans-61" x="380.664062"/>
      <use xlink:href="#DejaVuSans-2e" x="441.943359"/>
      <use xlink:href="#DejaVuSans-75" x="473.730469"/>
      <use xlink:href="#DejaVuSans-2e" x="537.109375"/>
     </g>
    </g>
   </g>
   <g id="matplotlib.axis_2">
    <g id="ytick_1">
     <g id="line2d_8">
      <defs>
       <path id="m9d88d260cc" d="M 0 0 
L -3.5 0 
" style="stroke: #000000; stroke-width: 0.8"/>
      </defs>
      <g>
       <use xlink:href="#m9d88d260cc" x="71.12" y="281.486727" style="stroke: #000000; stroke-width: 0.8"/>
      </g>
     </g>
     <g id="text_9">
      <!-- 120 -->
      <g transform="translate(36.634 286.957602) scale(0.144 -0.144)">
       <use xlink:href="#DejaVuSans-31"/>
       <use xlink:href="#DejaVuSans-32" x="63.623047"/>
       <use xlink:href="#DejaVuSans-30" x="127.246094"/>
      </g>
     </g>
    </g>
    <g id="ytick_2">
     <g id="line2d_9">
      <g>
       <use xlink:href="#m9d88d260cc" x="71.12" y="237.881693" style="stroke: #000000; stroke-width: 0.8"/>
      </g>
     </g>
     <g id="text_10">
      <!-- 140 -->
      <g transform="translate(36.634 243.352568) scale(0.144 -0.144)">
       <use xlink:href="#DejaVuSans-31"/>
       <use xlink:href="#DejaVuSans-34" x="63.623047"/>
       <use xlink:href="#DejaVuSans-30" x="127.246094"/>
      </g>
     </g>
    </g>
    <g id="ytick_3">
     <g id="line2d_10">
      <g>
       <use xlink:href="#m9d88d260cc" x="71.12" y="194.276659" style="stroke: #000000; stroke-width: 0.8"/>
      </g>
     </g>
     <g id="text_11">
      <!-- 160 -->
      <g transform="translate(36.634 199.747534) scale(0.144 -0.144)">
       <use xlink:href="#DejaVuSans-31"/>
       <use xlink:href="#DejaVuSans-36" x="63.623047"/>
       <use xlink:href="#DejaVuSans-30" x="127.246094"/>
      </g>
     </g>
    </g>
    <g id="ytick_4">
     <g id="line2d_11">
      <g>
       <use xlink:href="#m9d88d260cc" x="71.12" y="150.671625" style="stroke: #000000; stroke-width: 0.8"/>
      </g>
     </g>
     <g id="text_12">
      <!-- 180 -->
      <g transform="translate(36.634 156.1425) scale(0.144 -0.144)">
       <defs>
        <path id="DejaVuSans-38" d="M 2034 2216 
Q 1584 2216 1326 1975 
Q 1069 1734 1069 1313 
Q 1069 891 1326 650 
Q 1584 409 2034 409 
Q 2484 409 2743 651 
Q 3003 894 3003 1313 
Q 3003 1734 2745 1975 
Q 2488 2216 2034 2216 
z
M 1403 2484 
Q 997 2584 770 2862 
Q 544 3141 544 3541 
Q 544 4100 942 4425 
Q 1341 4750 2034 4750 
Q 2731 4750 3128 4425 
Q 3525 4100 3525 3541 
Q 3525 3141 3298 2862 
Q 3072 2584 2669 2484 
Q 3125 2378 3379 2068 
Q 3634 1759 3634 1313 
Q 3634 634 3220 271 
Q 2806 -91 2034 -91 
Q 1263 -91 848 271 
Q 434 634 434 1313 
Q 434 1759 690 2068 
Q 947 2378 1403 2484 
z
M 1172 3481 
Q 1172 3119 1398 2916 
Q 1625 2713 2034 2713 
Q 2441 2713 2670 2916 
Q 2900 3119 2900 3481 
Q 2900 3844 2670 4047 
Q 2441 4250 2034 4250 
Q 1625 4250 1398 4047 
Q 1172 3844 1172 3481 
z
" transform="scale(0.015625)"/>
       </defs>
       <use xlink:href="#DejaVuSans-31"/>
       <use xlink:href="#DejaVuSans-38" x="63.623047"/>
       <use xlink:href="#DejaVuSans-30" x="127.246094"/>
      </g>
     </g>
    </g>
    <g id="ytick_5">
     <g id="line2d_12">
      <g>
       <use xlink:href="#m9d88d260cc" x="71.12" y="107.066591" style="stroke: #000000; stroke-width: 0.8"/>
      </g>
     </g>
     <g id="text_13">
      <!-- 200 -->
      <g transform="translate(36.634 112.537466) scale(0.144 -0.144)">
       <use xlink:href="#DejaVuSans-32"/>
       <use xlink:href="#DejaVuSans-30" x="63.623047"/>
       <use xlink:href="#DejaVuSans-30" x="127.246094"/>
      </g>
     </g>
    </g>
    <g id="ytick_6">
     <g id="line2d_13">
      <g>
       <use xlink:href="#m9d88d260cc" x="71.12" y="63.461557" style="stroke: #000000; stroke-width: 0.8"/>
      </g>
     </g>
     <g id="text_14">
      <!-- 220 -->
      <g transform="translate(36.634 68.932432) scale(0.144 -0.144)">
       <use xlink:href="#DejaVuSans-32"/>
       <use xlink:href="#DejaVuSans-32" x="63.623047"/>
       <use xlink:href="#DejaVuSans-30" x="127.246094"/>
      </g>
     </g>
    </g>
    <g id="text_15">
     <!-- energy in a.u. -->
     <g transform="translate(29.0403 231.2975) rotate(-90) scale(0.1728 -0.1728)">
      <defs>
       <path id="DejaVuSans-72" d="M 2631 2963 
Q 2534 3019 2420 3045 
Q 2306 3072 2169 3072 
Q 1681 3072 1420 2755 
Q 1159 2438 1159 1844 
L 1159 0 
L 581 0 
L 581 3500 
L 1159 3500 
L 1159 2956 
Q 1341 3275 1631 3429 
Q 1922 3584 2338 3584 
Q 2397 3584 2469 3576 
Q 2541 3569 2628 3553 
L 2631 2963 
z
" transform="scale(0.015625)"/>
       <path id="DejaVuSans-67" d="M 2906 1791 
Q 2906 2416 2648 2759 
Q 2391 3103 1925 3103 
Q 1463 3103 1205 2759 
Q 947 2416 947 1791 
Q 947 1169 1205 825 
Q 1463 481 1925 481 
Q 2391 481 2648 825 
Q 2906 1169 2906 1791 
z
M 3481 434 
Q 3481 -459 3084 -895 
Q 2688 -1331 1869 -1331 
Q 1566 -1331 1297 -1286 
Q 1028 -1241 775 -1147 
L 775 -588 
Q 1028 -725 1275 -790 
Q 1522 -856 1778 -856 
Q 2344 -856 2625 -561 
Q 2906 -266 2906 331 
L 2906 616 
Q 2728 306 2450 153 
Q 2172 0 1784 0 
Q 1141 0 747 490 
Q 353 981 353 1791 
Q 353 2603 747 3093 
Q 1141 3584 1784 3584 
Q 2172 3584 2450 3431 
Q 2728 3278 2906 2969 
L 2906 3500 
L 3481 3500 
L 3481 434 
z
" transform="scale(0.015625)"/>
       <path id="DejaVuSans-79" d="M 2059 -325 
Q 1816 -950 1584 -1140 
Q 1353 -1331 966 -1331 
L 506 -1331 
L 506 -850 
L 844 -850 
Q 1081 -850 1212 -737 
Q 1344 -625 1503 -206 
L 1606 56 
L 191 3500 
L 800 3500 
L 1894 763 
L 2988 3500 
L 3597 3500 
L 2059 -325 
z
" transform="scale(0.015625)"/>
      </defs>
      <use xlink:href="#DejaVuSans-65"/>
      <use xlink:href="#DejaVuSans-6e" x="61.523438"/>
      <use xlink:href="#DejaVuSans-65" x="124.902344"/>
      <use xlink:href="#DejaVuSans-72" x="186.425781"/>
      <use xlink:href="#DejaVuSans-67" x="225.789062"/>
      <use xlink:href="#DejaVuSans-79" x="289.265625"/>
      <use xlink:href="#DejaVuSans-20" x="348.445312"/>
      <use xlink:href="#DejaVuSans-69" x="380.232422"/>
      <use xlink:href="#DejaVuSans-6e" x="408.015625"/>
      <use xlink:href="#DejaVuSans-20" x="471.394531"/>
      <use xlink:href="#DejaVuSans-61" x="503.181641"/>
      <use xlink:href="#DejaVuSans-2e" x="564.460938"/>
      <use xlink:href="#DejaVuSans-75" x="596.248047"/>
      <use xlink:href="#DejaVuSans-2e" x="659.626953"/>
     </g>
    </g>
   </g>
   <g id="line2d_14">
    <path d="M 71.12 53.993333 
L 72.40048 220.295407 
L 73.68096 267.014551 
L 74.961439 282.93471 
L 76.241919 261.02834 
L 78.802879 234.959425 
L 80.083358 234.800955 
L 81.363838 242.875999 
L 82.644318 232.317785 
L 83.924798 219.855428 
L 85.205277 231.935322 
L 86.485757 225.144407 
L 87.766237 232.55706 
L 89.046717 243.609181 
L 90.327196 234.407037 
L 91.607676 241.691838 
L 92.888156 238.908325 
L 94.168636 230.244557 
L 95.449115 214.457179 
L 96.729595 231.299656 
L 98.010075 229.026659 
L 99.290555 236.126238 
L 100.571034 251.383585 
L 101.851514 252.123334 
L 103.131994 236.718593 
L 104.412474 234.156985 
L 105.692954 248.305314 
L 106.973433 243.338723 
L 108.253913 229.321294 
L 109.534393 234.796124 
L 110.814873 248.006453 
L 112.095352 259.636287 
L 113.375832 248.131974 
L 114.656312 229.3467 
L 115.936792 237.702998 
L 117.217271 237.378999 
L 118.497751 246.519723 
L 119.778231 257.621452 
L 121.058711 245.273419 
L 122.33919 253.454196 
L 123.61967 237.749236 
L 124.90015 219.395783 
L 126.18063 255.250571 
L 127.461109 238.115306 
L 128.741589 239.060495 
L 130.022069 257.031887 
L 131.302549 239.403149 
L 132.583028 228.040192 
L 133.863508 259.224611 
L 135.143988 273.760232 
L 136.424468 255.13265 
L 137.704948 222.371217 
L 140.265907 248.336287 
L 141.546387 246.523882 
L 142.826867 243.808001 
L 144.107346 236.865837 
L 145.387826 244.952724 
L 146.668306 242.035003 
L 147.948786 250.48647 
L 149.229265 256.957079 
L 150.509745 257.90909 
L 151.790225 239.152669 
L 153.070705 245.969816 
L 154.351184 241.302381 
L 155.631664 234.37908 
L 156.912144 246.751955 
L 158.192624 264.69513 
L 159.473103 255.06679 
L 160.753583 238.75876 
L 162.034063 236.766045 
L 163.314543 228.575759 
L 164.595022 245.545402 
L 165.875502 239.584978 
L 167.155982 240.260473 
L 168.436462 239.722594 
L 169.716942 225.839207 
L 170.997421 219.663066 
L 172.277901 239.797023 
L 173.558381 243.612988 
L 174.838861 250.901635 
L 176.11934 266.595219 
L 177.39982 262.801723 
L 178.6803 243.771601 
L 179.96078 237.114084 
L 181.241259 247.344301 
L 182.521739 250.941785 
L 183.802219 230.0328 
L 185.082699 242.236204 
L 186.363178 244.359439 
L 187.643658 256.752205 
L 188.924138 260.392322 
L 190.204618 244.731472 
L 191.485097 238.878753 
L 192.765577 246.695872 
L 194.046057 234.864912 
L 195.326537 217.871253 
L 196.607016 240.762899 
L 197.887496 252.834921 
L 199.167976 235.664988 
L 200.448456 229.081106 
L 201.728936 227.120618 
L 203.009415 259.31536 
L 204.289895 278.298211 
L 205.570375 274.003633 
L 206.850855 248.383167 
L 208.131334 236.399947 
L 209.411814 249.824487 
L 210.692294 240.794782 
L 211.972774 245.809265 
L 213.253253 249.392239 
L 214.533733 235.629464 
L 215.814213 235.463996 
L 217.094693 264.615215 
L 218.375172 252.740806 
L 219.655652 242.406806 
L 220.936132 261.817092 
L 222.216612 234.717339 
L 223.497091 214.043254 
L 224.777571 238.36816 
L 226.058051 254.357161 
L 227.338531 261.03465 
L 228.61901 251.345019 
L 229.89949 255.542872 
L 231.17997 250.497733 
L 232.46045 226.374491 
L 233.74093 220.893843 
L 235.021409 230.691296 
L 236.301889 244.561717 
L 237.582369 271.709383 
L 238.862849 268.123917 
L 240.143328 252.872023 
L 241.423808 244.213041 
L 242.704288 223.712899 
L 243.984768 236.841062 
L 245.265247 244.585016 
L 246.545727 242.256138 
L 247.826207 240.671707 
L 249.106687 234.393429 
L 250.387166 231.645446 
L 251.667646 257.782639 
L 252.948126 264.242225 
L 254.228606 254.360814 
L 255.509085 253.7575 
L 256.789565 242.97935 
L 258.070045 242.33948 
L 259.350525 231.662119 
L 260.631004 228.743543 
L 261.911484 212.679592 
L 263.191964 228.150906 
L 264.472444 261.616089 
L 265.752924 240.25026 
L 267.033403 204.04614 
L 268.313883 205.676205 
L 269.594363 237.949453 
L 270.874843 250.187581 
L 272.155322 247.533279 
L 273.435802 228.975659 
L 274.716282 208.300702 
L 275.996762 225.72036 
L 277.277241 248.155471 
L 278.557721 243.438462 
L 279.838201 239.847489 
L 281.118681 241.578485 
L 282.39916 242.869107 
L 283.67964 237.21401 
L 284.96012 243.717142 
L 286.2406 251.373692 
L 287.521079 246.352997 
L 288.801559 234.563119 
L 290.082039 230.477077 
L 291.362519 225.571033 
L 292.642999 222.370899 
L 293.923478 232.081655 
L 295.203958 232.181403 
L 296.484438 235.187619 
L 297.764918 247.015085 
L 299.045397 245.908361 
L 300.325877 224.911682 
L 301.606357 239.577704 
L 302.886837 230.561032 
L 304.167316 235.051368 
L 305.447796 241.27642 
L 306.728276 249.872441 
L 308.008756 254.827138 
L 309.289235 240.723671 
L 310.569715 229.056583 
L 311.850195 235.51576 
L 313.130675 222.177956 
L 314.411154 231.213392 
L 315.691634 238.773817 
L 316.972114 225.595082 
L 318.252594 231.872746 
L 319.533073 240.62296 
L 320.813553 246.464505 
L 322.094033 234.489686 
L 323.374513 232.496934 
L 324.654993 242.212428 
L 325.935472 231.225422 
L 327.215952 228.576428 
L 328.496432 247.625942 
L 329.776912 245.323208 
L 331.057391 221.347556 
L 332.337871 211.82327 
L 333.618351 218.769303 
L 334.898831 234.713742 
L 336.17931 245.79088 
L 337.45979 236.398267 
L 338.74027 236.475039 
L 340.02075 233.022475 
L 341.301229 239.085732 
L 342.581709 221.303949 
L 343.862189 225.773719 
L 345.142669 229.327629 
L 346.423148 238.445271 
L 347.703628 224.33452 
L 348.984108 214.584069 
L 350.264588 219.011217 
L 351.545067 247.342473 
L 352.825547 259.977575 
L 354.106027 257.074672 
L 355.386507 251.167062 
L 356.666987 234.120265 
L 357.947466 231.240551 
L 359.227946 204.098112 
L 360.508426 218.483891 
L 361.788906 228.671386 
L 364.349865 262.004022 
L 365.630345 257.704654 
L 366.910825 241.878644 
L 368.191304 236.457439 
L 369.471784 242.03363 
L 370.752264 243.366743 
L 372.032744 246.03992 
L 373.313223 237.74029 
L 374.593703 236.316537 
L 375.874183 225.780577 
L 377.154663 222.936438 
L 378.435142 234.477593 
L 382.276582 257.241668 
L 383.557061 252.683632 
L 384.837541 250.756029 
L 386.118021 258.9779 
L 387.398501 251.41191 
L 388.678981 234.430166 
L 389.95946 219.842965 
L 391.23994 238.717831 
L 392.52042 240.102692 
L 393.8009 221.233629 
L 395.081379 246.600544 
L 396.361859 250.414229 
L 397.642339 238.206307 
L 398.922819 239.453081 
L 400.203298 223.870317 
L 401.483778 236.095101 
L 402.764258 259.252554 
L 404.044738 244.357343 
L 405.325217 240.67804 
L 406.605697 245.723156 
L 407.886177 238.558217 
L 409.166657 216.967749 
L 410.447136 239.155038 
L 411.727616 266.884629 
L 413.008096 257.105955 
L 414.288576 230.581754 
L 415.569055 224.853284 
L 416.849535 238.018948 
L 418.130015 248.029578 
L 419.410495 245.644633 
L 420.690975 227.232931 
L 421.971454 219.815425 
L 423.251934 230.652713 
L 424.532414 232.236776 
L 425.812894 244.825791 
L 427.093373 246.561158 
L 429.654333 222.576561 
L 430.934813 220.872522 
L 432.215292 235.569377 
L 433.495772 238.638151 
L 434.776252 226.217149 
L 436.056732 219.517808 
L 437.337211 225.643676 
L 438.617691 243.456174 
L 439.898171 236.203472 
L 441.178651 239.995825 
L 442.45913 251.284316 
L 443.73961 248.15817 
L 445.02009 227.879719 
L 446.30057 235.307791 
L 447.581049 248.487999 
L 448.861529 247.112834 
L 450.142009 244.658901 
L 451.422489 249.601076 
L 452.702969 237.632964 
L 453.983448 230.686044 
L 455.263928 248.288372 
L 456.544408 237.930755 
L 457.824888 234.494307 
L 459.105367 249.540876 
L 460.385847 242.678952 
L 461.666327 239.334708 
L 462.946807 228.059852 
L 464.227286 233.87904 
L 465.507766 234.808702 
L 466.788246 256.514107 
L 468.068726 251.111814 
L 469.349205 232.32429 
L 470.629685 229.752713 
L 471.910165 251.259624 
L 473.190645 240.719795 
L 474.471124 221.525965 
L 475.751604 237.820872 
L 477.032084 262.566695 
L 478.312564 262.906405 
L 479.593043 248.414789 
L 480.873523 243.42553 
L 482.154003 240.503069 
L 483.434483 240.924244 
L 484.714963 240.938901 
L 485.995442 213.754552 
L 487.275922 238.073951 
L 488.556402 235.422986 
L 489.836882 243.386988 
L 491.117361 262.49228 
L 492.397841 263.847618 
L 493.678321 260.075809 
L 494.958801 249.352898 
L 496.23928 241.265475 
L 497.51976 244.372892 
L 498.80024 246.472927 
L 500.08072 254.185181 
L 501.361199 245.359364 
L 502.641679 239.741783 
L 503.922159 257.135057 
L 505.202639 253.832935 
L 506.483118 254.973865 
L 507.763598 261.13055 
L 510.324558 243.148829 
L 511.605037 260.634 
L 512.885517 262.139222 
L 514.165997 249.602571 
L 515.446477 253.24111 
L 516.726957 259.207181 
L 518.007436 267.222055 
L 519.287916 250.097022 
L 520.568396 240.149613 
L 521.848876 260.347393 
L 523.129355 269.975197 
L 524.409835 257.300096 
L 525.690315 264.277117 
L 528.251274 232.882484 
L 529.531754 263.203212 
L 530.812234 268.32226 
L 532.092714 263.691176 
L 533.373193 262.278991 
L 534.653673 262.763609 
L 535.934153 261.138858 
L 537.214633 254.303701 
L 538.495112 267.468291 
L 539.775592 263.874869 
L 541.056072 249.050413 
L 542.336552 265.814418 
L 543.617031 272.196899 
L 544.897511 271.269384 
L 546.177991 244.1468 
L 547.458471 236.335263 
L 548.738951 251.675102 
L 550.01943 257.730855 
L 551.29991 249.272526 
L 552.58039 260.109498 
L 553.86087 260.797476 
L 555.141349 271.629149 
L 556.421829 275.04423 
L 557.702309 279.956521 
L 560.263268 254.784154 
L 561.543748 238.797288 
L 562.824228 247.432459 
L 564.104708 254.228707 
L 565.385187 268.152174 
L 566.665667 265.535844 
L 567.946147 241.227889 
L 569.226627 244.039819 
L 570.507106 260.906606 
L 571.787586 261.173855 
L 573.068066 252.674675 
L 574.348546 230.499179 
L 575.629025 225.537886 
L 576.909505 229.520559 
L 578.189985 261.789368 
L 579.470465 259.889108 
L 580.750945 254.792052 
L 582.031424 244.062536 
L 583.311904 239.584104 
L 584.592384 251.548827 
L 585.872864 256.959207 
L 587.153343 254.188094 
L 588.433823 255.840061 
L 589.714303 255.311863 
L 590.994783 257.712974 
L 592.275262 252.971487 
L 593.555742 262.292845 
L 594.836222 255.92026 
L 596.116702 262.215822 
L 597.397181 271.415502 
L 598.677661 261.513869 
L 599.958141 235.856004 
L 601.238621 246.087254 
L 602.5191 246.812172 
L 603.79958 251.933056 
L 605.08006 258.769418 
L 606.36054 279.804988 
L 607.641019 274.817002 
L 608.921499 274.566618 
L 610.201979 285.768087 
L 611.482459 281.462755 
L 612.762939 266.518537 
L 614.043418 266.303732 
L 615.323898 271.902051 
L 616.604378 272.361793 
L 617.884858 277.490429 
L 619.165337 281.982092 
L 620.445817 279.177949 
L 621.726297 258.753169 
L 623.006777 220.350574 
L 624.287256 250.831357 
L 625.567736 275.13655 
L 626.848216 272.686057 
L 628.128696 259.20084 
L 629.409175 257.052611 
L 630.689655 268.713331 
L 631.970135 256.965264 
L 633.250615 260.050876 
L 634.531094 255.675936 
L 635.811574 245.778082 
L 637.092054 262.533329 
L 638.372534 266.371998 
L 639.653013 275.27047 
L 642.213973 252.320562 
L 643.494453 260.747376 
L 644.774933 261.334164 
L 646.055412 259.267268 
L 647.335892 264.670855 
L 648.616372 267.113071 
L 649.896852 256.174213 
L 651.177331 251.238828 
L 652.457811 243.0621 
L 653.738291 242.526951 
L 655.018771 259.078692 
L 656.29925 264.271994 
L 658.86021 282.832935 
L 660.14069 274.190685 
L 661.421169 256.197161 
L 662.701649 275.544182 
L 663.982129 275.94566 
L 665.262609 280.004755 
L 666.543088 289.126667 
L 667.823568 285.642418 
L 669.104048 285.101617 
L 670.384528 270.442421 
L 671.665007 263.487693 
L 672.945487 261.288544 
L 674.225967 262.179657 
L 675.506447 269.104093 
L 676.786927 269.970735 
L 678.067406 267.0148 
L 679.347886 243.960194 
L 680.628366 273.067571 
L 681.908846 284.989977 
L 683.189325 274.520986 
L 684.469805 269.180727 
L 685.750285 272.851498 
L 687.030765 282.61058 
L 688.311244 275.956397 
L 689.591724 259.386086 
L 690.872204 262.613349 
L 692.152684 280.542699 
L 693.433163 283.489701 
L 694.713643 273.856202 
L 695.994123 255.431182 
L 697.274603 238.719913 
L 698.555082 244.708638 
L 699.835562 231.857419 
L 701.116042 245.84328 
L 702.396522 256.822094 
L 703.677001 251.416853 
L 704.957481 229.48506 
L 706.237961 246.584953 
L 707.518441 256.000287 
L 708.798921 255.563464 
L 711.35988 260.684857 
L 712.64036 249.82671 
L 713.92084 233.349442 
L 715.201319 251.472289 
L 716.481799 265.385391 
L 717.762279 277.619103 
L 720.323238 255.254732 
L 721.603718 263.841857 
L 722.884198 269.472314 
L 724.164678 268.105521 
L 725.445157 260.80227 
L 726.725637 257.351297 
L 728.006117 262.555172 
L 729.286597 264.562843 
L 731.847556 256.79549 
L 734.408516 240.796873 
L 735.688996 254.304047 
L 736.969475 253.754571 
L 738.249955 251.666993 
L 739.530435 253.915464 
L 740.810915 254.503632 
L 742.091394 256.091643 
L 743.371874 260.435604 
L 744.652354 260.75762 
L 745.932834 241.58649 
L 747.213313 243.030378 
L 748.493793 254.132082 
L 749.774273 243.887202 
L 751.054753 247.46366 
L 752.335232 240.643028 
L 753.615712 259.00516 
L 754.896192 261.806776 
L 756.176672 258.404649 
L 757.457151 249.526235 
L 758.737631 243.399916 
L 760.018111 229.252525 
L 761.298591 240.693861 
L 762.57907 255.265969 
L 763.85955 258.440779 
L 765.14003 254.232619 
L 766.42051 249.531071 
L 767.70099 245.659008 
L 768.981469 249.348146 
L 770.261949 263.644666 
L 771.542429 263.663931 
L 772.822909 254.451466 
L 774.103388 252.805103 
L 775.383868 248.179555 
L 776.664348 241.269001 
L 777.944828 251.719739 
L 779.225307 248.328694 
L 780.505787 244.545473 
L 781.786267 249.798588 
L 783.066747 243.660187 
L 784.347226 248.047381 
L 785.627706 253.16421 
L 788.188666 248.840897 
L 789.469145 250.888528 
L 790.749625 250.640997 
L 792.030105 223.774408 
L 793.310585 249.235719 
L 794.591064 245.153167 
L 795.871544 259.081168 
L 797.152024 229.386117 
L 798.432504 215.432255 
L 799.712984 231.733346 
L 800.993463 231.48749 
L 802.273943 238.986393 
L 803.554423 243.182711 
L 804.834903 244.800929 
L 806.115382 249.267605 
L 807.395862 247.83011 
L 808.676342 256.262615 
L 809.956822 248.547003 
L 811.237301 235.773116 
L 812.517781 245.566289 
L 813.798261 232.635196 
L 815.078741 239.469938 
L 816.35922 251.921745 
L 817.6397 254.404785 
L 818.92018 243.825718 
L 820.20066 243.735105 
L 821.481139 248.295175 
L 822.761619 247.136189 
L 824.042099 242.570325 
L 825.322579 227.062735 
L 826.603058 241.843152 
L 827.883538 263.881026 
L 829.164018 242.292241 
L 830.444498 236.009181 
L 831.724978 258.867952 
L 833.005457 254.984294 
L 834.285937 252.514404 
L 835.566417 253.662772 
L 836.846897 246.612616 
L 838.127376 238.906512 
L 839.407856 249.546528 
L 840.688336 245.421233 
L 841.968816 255.099236 
L 843.249295 253.688265 
L 844.529775 255.704318 
L 845.810255 253.669553 
L 847.090735 247.810721 
L 848.371214 251.308281 
L 849.651694 242.854841 
L 850.932174 229.070555 
L 852.212654 258.681331 
L 853.493133 252.009502 
L 854.773613 250.547573 
L 856.054093 256.306673 
L 857.334573 236.985388 
L 858.615052 228.094293 
L 859.895532 251.59967 
L 861.176012 252.366721 
L 862.456492 252.764828 
L 863.736972 258.003504 
L 865.017451 252.13619 
L 866.297931 247.072976 
L 867.578411 262.642497 
L 870.13937 234.478359 
L 871.41985 253.540195 
L 872.70033 232.258952 
L 873.98081 218.341722 
L 875.261289 253.295984 
L 876.541769 251.490549 
L 877.822249 256.799012 
L 879.102729 245.783706 
L 880.383208 241.854034 
L 881.663688 263.829078 
L 882.944168 277.360236 
L 885.505127 237.415388 
L 886.785607 245.579517 
L 888.066087 238.179228 
L 889.346567 249.164254 
L 890.627046 253.243935 
L 891.907526 242.425936 
L 893.188006 245.528002 
L 894.468486 256.368629 
L 895.748966 257.730801 
L 897.029445 255.816003 
L 898.309925 255.018452 
L 899.590405 252.92448 
L 900.870885 253.092796 
L 902.151364 259.186522 
L 903.431844 257.39789 
L 904.712324 253.663347 
L 905.992804 260.936009 
L 907.273283 252.398271 
L 908.553763 237.45297 
L 909.834243 227.106324 
L 911.114723 241.483955 
L 912.395202 232.173459 
L 913.675682 231.928038 
L 914.956162 239.408199 
L 916.236642 245.021659 
L 917.517121 245.587657 
L 918.797601 243.549849 
L 920.078081 244.921668 
L 921.358561 232.393113 
L 922.63904 238.593562 
L 923.91952 239.207601 
L 923.91952 239.207601 
" clip-path="url(#p0c46a2aad9)" style="fill: none; stroke: #1f77b4; stroke-width: 1.5; stroke-linecap: square"/>
   </g>
   <g id="line2d_15">
    <path d="M 71.12 247.071104 
L 925.2 247.071104 
" clip-path="url(#p0c46a2aad9)" style="fill: none; stroke: #ff0000; stroke-opacity: 0.3; stroke-width: 1.5; stroke-linecap: square"/>
   </g>
   <g id="patch_3">
    <path d="M 71.12 312.64 
L 71.12 30.48 
" style="fill: none; stroke: #000000; stroke-width: 0.8; stroke-linejoin: miter; stroke-linecap: square"/>
   </g>
   <g id="patch_4">
    <path d="M 925.2 312.64 
L 925.2 30.48 
" style="fill: none; stroke: #000000; stroke-width: 0.8; stroke-linejoin: miter; stroke-linecap: square"/>
   </g>
   <g id="patch_5">
    <path d="M 71.12 312.64 
L 925.2 312.64 
" style="fill: none; stroke: #000000; stroke-width: 0.8; stroke-linejoin: miter; stroke-linecap: square"/>
   </g>
   <g id="patch_6">
    <path d="M 71.12 30.48 
L 925.2 30.48 
" style="fill: none; stroke: #000000; stroke-width: 0.8; stroke-linejoin: miter; stroke-linecap: square"/>
   </g>
   <g id="text_16">
    <!-- Energy -->
    <g transform="translate(467.9092 24.48) scale(0.1728 -0.1728)">
     <defs>
      <path id="DejaVuSans-45" d="M 628 4666 
L 3578 4666 
L 3578 4134 
L 1259 4134 
L 1259 2753 
L 3481 2753 
L 3481 2222 
L 1259 2222 
L 1259 531 
L 3634 531 
L 3634 0 
L 628 0 
L 628 4666 
z
" transform="scale(0.015625)"/>
     </defs>
     <use xlink:href="#DejaVuSans-45"/>
     <use xlink:href="#DejaVuSans-6e" x="63.183594"/>
     <use xlink:href="#DejaVuSans-65" x="126.5625"/>
     <use xlink:href="#DejaVuSans-72" x="188.085938"/>
     <use xlink:href="#DejaVuSans-67" x="227.449219"/>
     <use xlink:href="#DejaVuSans-79" x="290.925781"/>
    </g>
   </g>
  </g>
  <g id="axes_2">
   <g id="patch_7">
    <path d="M 71.12 667.24 
L 467.19 667.24 
L 467.19 385.08 
L 71.12 385.08 
z
" style="fill: #ffffff"/>
   </g>
   <g id="matplotlib.axis_3">
    <g id="xtick_8">
     <g id="line2d_16">
      <g>
       <use xlink:href="#mb891e9f05e" x="71.12" y="667.24" style="stroke: #000000; stroke-width: 0.8"/>
      </g>
     </g>
     <g id="text_17">
      <!-- 0 -->
      <g transform="translate(66.539 685.18175) scale(0.144 -0.144)">
       <use xlink:href="#DejaVuSans-30"/>
      </g>
     </g>
    </g>
    <g id="xtick_9">
     <g id="line2d_17">
      <g>
       <use xlink:href="#mb891e9f05e" x="130.50081" y="667.24" style="stroke: #000000; stroke-width: 0.8"/>
      </g>
     </g>
     <g id="text_18">
      <!-- 1 -->
      <g transform="translate(125.91981 685.18175) scale(0.144 -0.144)">
       <use xlink:href="#DejaVuSans-31"/>
      </g>
     </g>
    </g>
    <g id="xtick_10">
     <g id="line2d_18">
      <g>
       <use xlink:href="#mb891e9f05e" x="189.881619" y="667.24" style="stroke: #000000; stroke-width: 0.8"/>
      </g>
     </g>
     <g id="text_19">
      <!-- 2 -->
      <g transform="translate(185.300619 685.18175) scale(0.144 -0.144)">
       <use xlink:href="#DejaVuSans-32"/>
      </g>
     </g>
    </g>
    <g id="xtick_11">
     <g id="line2d_19">
      <g>
       <use xlink:href="#mb891e9f05e" x="249.262429" y="667.24" style="stroke: #000000; stroke-width: 0.8"/>
      </g>
     </g>
     <g id="text_20">
      <!-- 3 -->
      <g transform="translate(244.681429 685.18175) scale(0.144 -0.144)">
       <use xlink:href="#DejaVuSans-33"/>
      </g>
     </g>
    </g>
    <g id="xtick_12">
     <g id="line2d_20">
      <g>
       <use xlink:href="#mb891e9f05e" x="308.643238" y="667.24" style="stroke: #000000; stroke-width: 0.8"/>
      </g>
     </g>
     <g id="text_21">
      <!-- 4 -->
      <g transform="translate(304.062238 685.18175) scale(0.144 -0.144)">
       <use xlink:href="#DejaVuSans-34"/>
      </g>
     </g>
    </g>
    <g id="xtick_13">
     <g id="line2d_21">
      <g>
       <use xlink:href="#mb891e9f05e" x="368.024048" y="667.24" style="stroke: #000000; stroke-width: 0.8"/>
      </g>
     </g>
     <g id="text_22">
      <!-- 5 -->
      <g transform="translate(363.443048 685.18175) scale(0.144 -0.144)">
       <use xlink:href="#DejaVuSans-35"/>
      </g>
     </g>
    </g>
    <g id="xtick_14">
     <g id="line2d_22">
      <g>
       <use xlink:href="#mb891e9f05e" x="427.404858" y="667.24" style="stroke: #000000; stroke-width: 0.8"/>
      </g>
     </g>
     <g id="text_23">
      <!-- 6 -->
      <g transform="translate(422.823858 685.18175) scale(0.144 -0.144)">
       <use xlink:href="#DejaVuSans-36"/>
      </g>
     </g>
    </g>
    <g id="text_24">
     <!-- time in a.u. -->
     <g transform="translate(220.00555 705.3066) scale(0.1728 -0.1728)">
      <use xlink:href="#DejaVuSans-74"/>
      <use xlink:href="#DejaVuSans-69" x="39.208984"/>
      <use xlink:href="#DejaVuSans-6d" x="66.992188"/>
      <use xlink:href="#DejaVuSans-65" x="164.404297"/>
      <use xlink:href="#DejaVuSans-20" x="225.927734"/>
      <use xlink:href="#DejaVuSans-69" x="257.714844"/>
      <use xlink:href="#DejaVuSans-6e" x="285.498047"/>
      <use xlink:href="#DejaVuSans-20" x="348.876953"/>
      <use xlink:href="#DejaVuSans-61" x="380.664062"/>
      <use xlink:href="#DejaVuSans-2e" x="441.943359"/>
      <use xlink:href="#DejaVuSans-75" x="473.730469"/>
      <use xlink:href="#DejaVuSans-2e" x="537.109375"/>
     </g>
    </g>
   </g>
   <g id="matplotlib.axis_4">
    <g id="ytick_7">
     <g id="line2d_23">
      <g>
       <use xlink:href="#m9d88d260cc" x="71.12" y="660.405133" style="stroke: #000000; stroke-width: 0.8"/>
      </g>
     </g>
     <g id="text_25">
      <!-- 0.00 -->
      <g transform="translate(32.0575 665.876008) scale(0.144 -0.144)">
       <use xlink:href="#DejaVuSans-30"/>
       <use xlink:href="#DejaVuSans-2e" x="63.623047"/>
       <use xlink:href="#DejaVuSans-30" x="95.410156"/>
       <use xlink:href="#DejaVuSans-30" x="159.033203"/>
      </g>
     </g>
    </g>
    <g id="ytick_8">
     <g id="line2d_24">
      <g>
       <use xlink:href="#m9d88d260cc" x="71.12" y="621.449509" style="stroke: #000000; stroke-width: 0.8"/>
      </g>
     </g>
     <g id="text_26">
      <!-- 0.25 -->
      <g transform="translate(32.0575 626.920384) scale(0.144 -0.144)">
       <use xlink:href="#DejaVuSans-30"/>
       <use xlink:href="#DejaVuSans-2e" x="63.623047"/>
       <use xlink:href="#DejaVuSans-32" x="95.410156"/>
       <use xlink:href="#DejaVuSans-35" x="159.033203"/>
      </g>
     </g>
    </g>
    <g id="ytick_9">
     <g id="line2d_25">
      <g>
       <use xlink:href="#m9d88d260cc" x="71.12" y="582.493886" style="stroke: #000000; stroke-width: 0.8"/>
      </g>
     </g>
     <g id="text_27">
      <!-- 0.50 -->
      <g transform="translate(32.0575 587.964761) scale(0.144 -0.144)">
       <use xlink:href="#DejaVuSans-30"/>
       <use xlink:href="#DejaVuSans-2e" x="63.623047"/>
       <use xlink:href="#DejaVuSans-35" x="95.410156"/>
       <use xlink:href="#DejaVuSans-30" x="159.033203"/>
      </g>
     </g>
    </g>
    <g id="ytick_10">
     <g id="line2d_26">
      <g>
       <use xlink:href="#m9d88d260cc" x="71.12" y="543.538262" style="stroke: #000000; stroke-width: 0.8"/>
      </g>
     </g>
     <g id="text_28">
      <!-- 0.75 -->
      <g transform="translate(32.0575 549.009137) scale(0.144 -0.144)">
       <defs>
        <path id="DejaVuSans-37" d="M 525 4666 
L 3525 4666 
L 3525 4397 
L 1831 0 
L 1172 0 
L 2766 4134 
L 525 4134 
L 525 4666 
z
" transform="scale(0.015625)"/>
       </defs>
       <use xlink:href="#DejaVuSans-30"/>
       <use xlink:href="#DejaVuSans-2e" x="63.623047"/>
       <use xlink:href="#DejaVuSans-37" x="95.410156"/>
       <use xlink:href="#DejaVuSans-35" x="159.033203"/>
      </g>
     </g>
    </g>
    <g id="ytick_11">
     <g id="line2d_27">
      <g>
       <use xlink:href="#m9d88d260cc" x="71.12" y="504.582639" style="stroke: #000000; stroke-width: 0.8"/>
      </g>
     </g>
     <g id="text_29">
      <!-- 1.00 -->
      <g transform="translate(32.0575 510.053514) scale(0.144 -0.144)">
       <use xlink:href="#DejaVuSans-31"/>
       <use xlink:href="#DejaVuSans-2e" x="63.623047"/>
       <use xlink:href="#DejaVuSans-30" x="95.410156"/>
       <use xlink:href="#DejaVuSans-30" x="159.033203"/>
      </g>
     </g>
    </g>
    <g id="ytick_12">
     <g id="line2d_28">
      <g>
       <use xlink:href="#m9d88d260cc" x="71.12" y="465.627015" style="stroke: #000000; stroke-width: 0.8"/>
      </g>
     </g>
     <g id="text_30">
      <!-- 1.25 -->
      <g transform="translate(32.0575 471.09789) scale(0.144 -0.144)">
       <use xlink:href="#DejaVuSans-31"/>
       <use xlink:href="#DejaVuSans-2e" x="63.623047"/>
       <use xlink:href="#DejaVuSans-32" x="95.410156"/>
       <use xlink:href="#DejaVuSans-35" x="159.033203"/>
      </g>
     </g>
    </g>
    <g id="ytick_13">
     <g id="line2d_29">
      <g>
       <use xlink:href="#m9d88d260cc" x="71.12" y="426.671392" style="stroke: #000000; stroke-width: 0.8"/>
      </g>
     </g>
     <g id="text_31">
      <!-- 1.50 -->
      <g transform="translate(32.0575 432.142267) scale(0.144 -0.144)">
       <use xlink:href="#DejaVuSans-31"/>
       <use xlink:href="#DejaVuSans-2e" x="63.623047"/>
       <use xlink:href="#DejaVuSans-35" x="95.410156"/>
       <use xlink:href="#DejaVuSans-30" x="159.033203"/>
      </g>
     </g>
    </g>
    <g id="ytick_14">
     <g id="line2d_30">
      <g>
       <use xlink:href="#m9d88d260cc" x="71.12" y="387.715768" style="stroke: #000000; stroke-width: 0.8"/>
      </g>
     </g>
     <g id="text_32">
      <!-- 1.75 -->
      <g transform="translate(32.0575 393.186643) scale(0.144 -0.144)">
       <use xlink:href="#DejaVuSans-31"/>
       <use xlink:href="#DejaVuSans-2e" x="63.623047"/>
       <use xlink:href="#DejaVuSans-37" x="95.410156"/>
       <use xlink:href="#DejaVuSans-35" x="159.033203"/>
      </g>
     </g>
    </g>
    <g id="text_33">
     <!-- pressure in a.u. -->
     <g transform="translate(24.4638 593.09975) rotate(-90) scale(0.1728 -0.1728)">
      <defs>
       <path id="DejaVuSans-70" d="M 1159 525 
L 1159 -1331 
L 581 -1331 
L 581 3500 
L 1159 3500 
L 1159 2969 
Q 1341 3281 1617 3432 
Q 1894 3584 2278 3584 
Q 2916 3584 3314 3078 
Q 3713 2572 3713 1747 
Q 3713 922 3314 415 
Q 2916 -91 2278 -91 
Q 1894 -91 1617 61 
Q 1341 213 1159 525 
z
M 3116 1747 
Q 3116 2381 2855 2742 
Q 2594 3103 2138 3103 
Q 1681 3103 1420 2742 
Q 1159 2381 1159 1747 
Q 1159 1113 1420 752 
Q 1681 391 2138 391 
Q 2594 391 2855 752 
Q 3116 1113 3116 1747 
z
" transform="scale(0.015625)"/>
       <path id="DejaVuSans-73" d="M 2834 3397 
L 2834 2853 
Q 2591 2978 2328 3040 
Q 2066 3103 1784 3103 
Q 1356 3103 1142 2972 
Q 928 2841 928 2578 
Q 928 2378 1081 2264 
Q 1234 2150 1697 2047 
L 1894 2003 
Q 2506 1872 2764 1633 
Q 3022 1394 3022 966 
Q 3022 478 2636 193 
Q 2250 -91 1575 -91 
Q 1294 -91 989 -36 
Q 684 19 347 128 
L 347 722 
Q 666 556 975 473 
Q 1284 391 1588 391 
Q 1994 391 2212 530 
Q 2431 669 2431 922 
Q 2431 1156 2273 1281 
Q 2116 1406 1581 1522 
L 1381 1569 
Q 847 1681 609 1914 
Q 372 2147 372 2553 
Q 372 3047 722 3315 
Q 1072 3584 1716 3584 
Q 2034 3584 2315 3537 
Q 2597 3491 2834 3397 
z
" transform="scale(0.015625)"/>
      </defs>
      <use xlink:href="#DejaVuSans-70"/>
      <use xlink:href="#DejaVuSans-72" x="63.476562"/>
      <use xlink:href="#DejaVuSans-65" x="102.339844"/>
      <use xlink:href="#DejaVuSans-73" x="163.863281"/>
      <use xlink:href="#DejaVuSans-73" x="215.962891"/>
      <use xlink:href="#DejaVuSans-75" x="268.0625"/>
      <use xlink:href="#DejaVuSans-72" x="331.441406"/>
      <use xlink:href="#DejaVuSans-65" x="370.304688"/>
      <use xlink:href="#DejaVuSans-20" x="431.828125"/>
      <use xlink:href="#DejaVuSans-69" x="463.615234"/>
      <use xlink:href="#DejaVuSans-6e" x="491.398438"/>
      <use xlink:href="#DejaVuSans-20" x="554.777344"/>
      <use xlink:href="#DejaVuSans-61" x="586.564453"/>
      <use xlink:href="#DejaVuSans-2e" x="647.84375"/>
      <use xlink:href="#DejaVuSans-75" x="679.630859"/>
      <use xlink:href="#DejaVuSans-2e" x="743.009766"/>
     </g>
    </g>
   </g>
   <g id="line2d_31">
    <path d="M 71.12 408.593333 
L 71.713808 566.574173 
L 72.307616 641.719582 
L 72.901424 633.285477 
L 73.495232 620.867486 
L 74.08904 598.291744 
L 74.682849 593.164088 
L 75.276657 600.523029 
L 75.870465 578.341326 
L 76.464273 549.872875 
L 77.058081 562.978552 
L 77.651889 550.254771 
L 78.245697 556.886097 
L 78.839505 572.21184 
L 79.433313 557.627642 
L 80.027121 563.740304 
L 80.62093 554.060483 
L 81.214738 535.441392 
L 81.808546 504.977084 
L 82.402354 532.072206 
L 82.996162 537.928197 
L 83.58997 559.502267 
L 84.183778 593.718732 
L 84.777586 598.854476 
L 85.371394 571.663303 
L 85.965202 562.156518 
L 86.55901 582.241909 
L 87.152819 572.797146 
L 87.746627 545.626381 
L 88.340435 551.90481 
L 89.528051 598.291786 
L 90.121859 580.236476 
L 90.715667 547.128389 
L 91.309475 563.763098 
L 91.903283 575.512889 
L 93.0909 631.274961 
L 93.684708 614.862812 
L 94.278516 622.364607 
L 94.872324 592.509362 
L 95.466132 555.385695 
L 96.05994 610.80675 
L 96.653748 585.981768 
L 97.247556 580.718325 
L 97.841364 605.402418 
L 98.435172 574.389125 
L 99.028981 551.316759 
L 99.622789 600.985516 
L 100.216597 625.687666 
L 100.810405 590.628569 
L 101.404213 527.14166 
L 101.998021 539.974297 
L 102.591829 564.07814 
L 103.185637 563.352489 
L 103.779445 558.227472 
L 104.373253 549.426498 
L 104.967061 568.861547 
L 105.56087 573.060268 
L 106.154678 594.090769 
L 106.748486 610.586343 
L 107.342294 614.586781 
L 107.936102 583.445595 
L 108.52991 591.030111 
L 109.123718 582.172111 
L 109.717526 570.697988 
L 110.311334 593.300379 
L 110.905142 625.733925 
L 111.498951 609.239148 
L 112.092759 573.40379 
L 112.686567 561.058591 
L 113.280375 543.819941 
L 113.874183 570.00604 
L 114.467991 562.975083 
L 115.061799 562.801536 
L 115.655607 558.548787 
L 116.249415 531.889134 
L 116.843223 518.468961 
L 117.437031 556.057159 
L 118.03084 576.708123 
L 118.624648 601.708346 
L 119.218456 636.98048 
L 119.812264 634.876713 
L 120.406072 599.869657 
L 120.99988 581.202088 
L 121.593688 593.864737 
L 122.187496 602.951316 
L 122.781304 571.964226 
L 123.375112 594.539576 
L 123.968921 604.397153 
L 124.562729 625.328662 
L 125.156537 629.074083 
L 125.750345 596.936748 
L 126.344153 575.833681 
L 126.937961 577.278307 
L 127.531769 549.487465 
L 128.125577 512.964206 
L 128.719385 543.471973 
L 129.313193 562.107669 
L 129.907001 531.259485 
L 130.50081 520.587401 
L 131.094618 527.971514 
L 131.688426 596.907927 
L 132.282234 643.726667 
L 132.876042 640.266023 
L 133.46985 590.529639 
L 134.063658 558.404117 
L 134.657466 573.392043 
L 135.251274 557.18655 
L 135.845082 560.103535 
L 136.438891 563.766979 
L 137.032699 543.924228 
L 137.626507 547.81475 
L 138.220315 604.714608 
L 138.814123 598.314697 
L 139.407931 584.349203 
L 140.001739 613.837109 
L 141.189355 525.365567 
L 142.376972 600.099212 
L 142.97078 618.484045 
L 143.564588 605.308998 
L 144.158396 606.152367 
L 144.752204 586.511677 
L 145.346012 534.684822 
L 145.93982 518.108676 
L 146.533628 535.165204 
L 147.127436 568.05931 
L 147.721244 622.09401 
L 148.315052 623.146757 
L 148.908861 594.559716 
L 149.502669 574.784952 
L 150.096477 537.58782 
L 150.690285 556.592103 
L 151.284093 571.018557 
L 152.471709 562.151486 
L 153.065517 549.604395 
L 153.659325 548.161798 
L 154.253133 596.392096 
L 154.846942 614.650248 
L 155.44075 598.81167 
L 156.034558 593.255072 
L 156.628366 572.361167 
L 157.222174 569.810256 
L 157.815982 552.966915 
L 158.40979 548.429745 
L 159.003598 527.660682 
L 159.597406 556.915396 
L 160.191214 614.2068 
L 160.785022 577.513852 
L 161.378831 509.660574 
L 161.972639 509.628199 
L 162.566447 570.471245 
L 163.160255 600.340832 
L 163.754063 597.429078 
L 164.941679 526.037903 
L 165.535487 555.811722 
L 166.129295 600.261914 
L 166.723103 600.26916 
L 167.316912 598.375937 
L 168.504528 612.808285 
L 169.098336 608.738511 
L 170.285952 635.593931 
L 170.87976 622.970231 
L 171.473568 592.890126 
L 173.254993 537.082933 
L 173.848801 543.836479 
L 174.442609 539.693939 
L 175.036417 541.618355 
L 175.630225 559.670212 
L 176.224033 559.596727 
L 176.817841 523.568375 
L 177.411649 546.180384 
L 178.005457 536.442976 
L 178.599265 545.686301 
L 179.193073 562.080761 
L 179.786882 584.205559 
L 180.38069 598.572216 
L 181.568306 563.415121 
L 182.162114 572.289659 
L 182.755922 553.137299 
L 183.943538 585.977469 
L 184.537346 571.34018 
L 185.131154 586.412923 
L 185.724963 605.414973 
L 186.318771 615.74551 
L 186.912579 592.641985 
L 187.506387 582.31467 
L 188.100195 592.63388 
L 188.694003 572.691498 
L 189.287811 563.613505 
L 189.881619 589.163095 
L 190.475427 580.591818 
L 191.069235 534.377022 
L 191.663043 516.418854 
L 192.256852 533.603729 
L 192.85066 568.235092 
L 193.444468 593.28991 
L 194.038276 580.081548 
L 194.632084 577.90764 
L 195.225892 569.466569 
L 195.8197 577.472302 
L 196.413508 545.736313 
L 197.007316 547.542482 
L 197.601124 552.485394 
L 198.194933 567.834124 
L 198.788741 548.13855 
L 199.382549 534.835821 
L 199.976357 546.115115 
L 200.570165 603.709329 
L 201.163973 635.888222 
L 201.757781 632.346072 
L 202.351589 614.203378 
L 202.945397 572.983396 
L 203.539205 557.01782 
L 204.133013 507.302228 
L 204.726822 528.972278 
L 205.32063 556.742656 
L 206.508246 632.149241 
L 207.102054 627.108321 
L 207.695862 595.47489 
L 208.28967 578.261619 
L 208.883478 581.610649 
L 209.477286 581.289378 
L 210.071094 583.741671 
L 210.664903 568.99263 
L 211.258711 564.797851 
L 211.852519 546.707915 
L 212.446327 543.049116 
L 213.633943 586.512157 
L 214.821559 621.858809 
L 216.009175 608.199499 
L 216.602984 616.063723 
L 217.196792 597.065929 
L 218.384408 526.123698 
L 218.978216 554.437973 
L 219.572024 562.046967 
L 220.165832 534.26814 
L 220.75964 576.388477 
L 221.353448 590.7407 
L 221.947256 573.12516 
L 222.541064 574.137024 
L 223.134873 551.939937 
L 223.728681 572.303474 
L 224.322489 614.036529 
L 224.916297 592.240738 
L 225.510105 580.52537 
L 226.103913 581.46348 
L 226.697721 563.585554 
L 227.291529 523.102296 
L 227.885337 557.670331 
L 228.479145 607.672273 
L 229.072954 591.553124 
L 229.666762 541.553783 
L 230.26057 527.583753 
L 231.448186 578.073827 
L 232.041994 580.075867 
L 232.635802 552.935616 
L 233.22961 540.78682 
L 233.823418 562.013736 
L 234.417226 573.177054 
L 235.011034 600.057961 
L 235.604843 606.289385 
L 236.792459 565.357364 
L 237.386267 564.616623 
L 237.980075 591.427766 
L 238.573883 598.071192 
L 239.167691 574.629782 
L 239.761499 558.608684 
L 240.355307 566.918738 
L 240.949115 599.191073 
L 241.542924 592.407407 
L 242.136732 598.559144 
L 242.73054 615.705943 
L 243.324348 609.021613 
L 243.918156 571.650903 
L 244.511964 579.736092 
L 245.105772 602.886656 
L 245.69958 603.8226 
L 246.293388 598.731663 
L 246.887196 602.173214 
L 248.074813 557.741766 
L 248.668621 577.753862 
L 249.262429 556.975276 
L 249.856237 544.803004 
L 250.450045 565.704125 
L 251.043853 555.063613 
L 251.637661 548.498028 
L 252.231469 531.840526 
L 252.825277 543.19402 
L 253.419085 548.751743 
L 254.012894 590.354695 
L 254.606702 589.390223 
L 255.20051 560.898033 
L 255.794318 555.677716 
L 256.388126 591.022536 
L 256.981934 576.771102 
L 257.575742 544.391855 
L 258.16955 570.411768 
L 258.763358 614.310372 
L 259.357166 616.004346 
L 259.950975 585.708541 
L 260.544783 567.023033 
L 261.138591 555.533186 
L 261.732399 551.143981 
L 262.326207 549.277751 
L 262.920015 507.153976 
L 263.513823 548.42739 
L 264.107631 555.439147 
L 264.701439 580.125201 
L 265.295247 624.275356 
L 265.889055 636.443125 
L 266.482864 631.89101 
L 267.67048 593.271037 
L 268.858096 590.969379 
L 269.451904 598.295576 
L 270.045712 580.570871 
L 270.63952 566.819764 
L 271.233328 591.22901 
L 271.827136 586.258536 
L 272.420945 584.955615 
L 273.014753 590.663409 
L 274.202369 556.741723 
L 274.796177 586.725938 
L 275.389985 592.689277 
L 275.983793 570.268109 
L 276.577601 572.361825 
L 277.171409 581.735649 
L 277.765217 594.445306 
L 278.359025 565.24471 
L 278.952834 545.487465 
L 279.546642 577.919473 
L 280.14045 597.395327 
L 280.734258 577.105694 
L 281.328066 583.664769 
L 282.515682 530.465766 
L 283.10949 584.43555 
L 283.703298 602.956381 
L 284.297106 599.370148 
L 284.890915 598.428376 
L 285.484723 600.050902 
L 286.078531 598.155863 
L 286.672339 586.004485 
L 287.266147 604.774906 
L 287.859955 598.001804 
L 288.453763 568.090667 
L 289.047571 589.393354 
L 289.641379 596.733513 
L 290.235187 587.103307 
L 290.828996 533.914412 
L 291.422804 512.042463 
L 292.016612 531.74774 
L 292.61042 541.910805 
L 293.204228 527.139704 
L 293.798036 543.005749 
L 294.391844 544.712997 
L 294.985652 566.546602 
L 295.57946 582.280484 
L 296.173268 601.246969 
L 297.360885 575.181196 
L 297.954693 554.39749 
L 299.142309 591.973688 
L 299.736117 619.882207 
L 300.329925 617.709102 
L 300.923733 578.130426 
L 301.517541 580.68127 
L 302.111349 608.381507 
L 302.705157 607.828904 
L 303.298966 588.121609 
L 303.892774 543.622146 
L 304.486582 532.265867 
L 305.08039 546.709565 
L 305.674198 613.454677 
L 306.268006 624.749685 
L 306.861814 620.583782 
L 307.455622 602.888111 
L 308.04943 593.768714 
L 308.643238 612.773992 
L 309.237046 622.100352 
L 309.830855 613.425713 
L 310.424663 607.672611 
L 311.018471 595.660355 
L 311.612279 587.919964 
L 312.206087 569.462984 
L 312.799895 575.769619 
L 313.393703 560.809465 
L 313.987511 565.467343 
L 314.581319 575.829006 
L 315.175127 554.928726 
L 315.768936 506.095076 
L 316.362744 518.608928 
L 316.956552 524.353181 
L 317.55036 540.301251 
L 318.144168 560.446539 
L 318.737976 604.285653 
L 319.331784 605.668693 
L 319.925592 609.432752 
L 320.5194 629.573693 
L 321.113208 622.623401 
L 321.707016 592.835994 
L 322.300825 583.415761 
L 322.894633 584.837378 
L 323.488441 578.814541 
L 324.676057 581.48292 
L 325.269865 568.156603 
L 325.863673 528.087221 
L 326.457481 461.986789 
L 327.645097 573.835975 
L 328.238906 585.249283 
L 328.832714 572.526408 
L 329.426522 571.045877 
L 330.02033 591.937766 
L 330.614138 573.794733 
L 331.207946 577.243344 
L 331.801754 573.521001 
L 332.395562 560.69559 
L 332.98937 592.832122 
L 333.583178 606.010966 
L 334.176987 622.264188 
L 335.364603 586.257749 
L 335.958411 604.806892 
L 336.552219 614.068359 
L 337.146027 616.565987 
L 337.739835 628.10502 
L 338.333643 631.505928 
L 338.927451 608.160786 
L 340.115067 572.52348 
L 340.708876 568.757977 
L 341.302684 595.760006 
L 341.896492 606.40569 
L 342.4903 621.097879 
L 343.084108 632.64819 
L 343.677916 613.756901 
L 344.271724 576.553709 
L 344.865532 603.085595 
L 345.45934 606.670308 
L 346.053148 613.992404 
L 346.646957 629.088729 
L 347.834573 612.880058 
L 348.428381 581.237096 
L 349.022189 561.565399 
L 349.615997 555.353103 
L 350.209805 557.644573 
L 350.803613 571.571765 
L 351.397421 573.160074 
L 351.991229 565.966433 
L 352.585037 526.762882 
L 353.178846 574.67016 
L 353.772654 601.162933 
L 354.366462 585.630249 
L 354.96027 576.242096 
L 355.554078 583.885493 
L 356.147886 605.79658 
L 356.741694 603.036875 
L 357.335502 582.614333 
L 357.92931 594.060758 
L 358.523118 630.380657 
L 359.116927 638.023557 
L 359.710735 614.859721 
L 360.898351 529.492745 
L 361.492159 532.916134 
L 362.085967 513.453367 
L 363.273583 561.623469 
L 363.867391 556.824127 
L 364.461199 522.089036 
L 365.055007 554.597194 
L 365.648816 580.851818 
L 366.836432 593.258473 
L 367.43024 595.309822 
L 368.024048 576.108766 
L 368.617856 547.106666 
L 369.805472 607.28353 
L 370.39928 631.17411 
L 370.993088 613.396605 
L 371.586897 590.278152 
L 372.774513 608.798368 
L 373.368321 605.979352 
L 373.962129 593.273656 
L 374.555937 589.022863 
L 375.149745 601.62182 
L 375.743553 609.388431 
L 376.337361 604.501071 
L 376.931169 596.955242 
L 378.118786 570.577697 
L 378.712594 597.020616 
L 379.306402 603.621617 
L 379.90021 603.288878 
L 380.494018 607.646716 
L 381.087826 608.682285 
L 381.681634 610.086084 
L 382.275442 613.582256 
L 382.86925 608.364935 
L 383.463058 569.445978 
L 384.056867 562.504837 
L 384.650675 576.860638 
L 385.244483 561.524492 
L 385.838291 569.584914 
L 386.432099 564.556692 
L 387.025907 599.748741 
L 387.619715 607.694624 
L 388.213523 597.383087 
L 388.807331 572.75582 
L 389.401139 552.759656 
L 389.994948 523.447544 
L 390.588756 542.088252 
L 391.182564 573.952292 
L 391.776372 588.215749 
L 392.37018 587.995617 
L 393.557796 580.064787 
L 394.151604 587.317468 
L 394.745412 611.567952 
L 395.33922 613.195333 
L 395.933028 596.643759 
L 396.526837 592.054363 
L 397.120645 586.025971 
L 397.714453 577.980912 
L 398.308261 600.399744 
L 398.902069 602.862563 
L 399.495877 601.083395 
L 400.089685 614.00335 
L 400.683493 609.563835 
L 401.277301 621.29127 
L 401.871109 635.303017 
L 402.464918 635.075863 
L 403.058726 630.76666 
L 403.652534 629.094704 
L 404.246342 624.467247 
L 404.84015 571.690184 
L 405.433958 602.792209 
L 406.027766 591.764043 
L 406.621574 603.142281 
L 407.215382 547.517295 
L 407.80919 514.113004 
L 408.402999 536.134755 
L 408.996807 542.335195 
L 410.184423 580.248725 
L 411.372039 603.633691 
L 411.965847 603.871895 
L 412.559655 617.075345 
L 413.153463 604.903667 
L 413.747271 579.500359 
L 414.341079 586.437668 
L 414.934888 560.899658 
L 415.528696 567.000215 
L 416.122504 586.721734 
L 416.716312 590.787232 
L 417.31012 572.823383 
L 417.903928 571.250901 
L 418.497736 580.016944 
L 419.091544 578.623594 
L 419.685352 568.825281 
L 420.27916 540.348658 
L 420.872969 561.455384 
L 421.466777 597.546267 
L 422.060585 562.47498 
L 422.654393 545.716452 
L 423.248201 579.928279 
L 424.435817 570.339089 
L 425.029625 573.484695 
L 425.623433 565.220276 
L 426.217241 553.127301 
L 426.811049 569.946801 
L 427.404858 564.644751 
L 427.998666 580.136392 
L 428.592474 577.806897 
L 429.186282 578.327425 
L 429.78009 572.865031 
L 430.373898 561.462989 
L 430.967706 566.193358 
L 431.561514 556.759272 
L 432.155322 540.508751 
L 432.74913 596.412006 
L 433.936747 600.077123 
L 434.530555 612.966666 
L 435.124363 586.428091 
L 435.718171 572.236442 
L 436.311979 612.036844 
L 436.905787 617.952959 
L 437.499595 617.558134 
L 438.093403 622.399901 
L 439.281019 593.585746 
L 439.874828 609.855617 
L 440.468636 579.316866 
L 441.062444 541.161371 
L 441.656252 556.276656 
L 442.25006 520.562177 
L 442.843868 499.102802 
L 443.437676 562.353205 
L 444.625292 576.319943 
L 445.2191 557.816867 
L 445.812909 551.97659 
L 446.406717 590.088498 
L 447.000525 614.864817 
L 447.594333 581.883795 
L 448.188141 540.54166 
L 448.781949 549.155893 
L 449.375757 536.90059 
L 449.969565 554.532319 
L 450.563373 565.005678 
L 451.157181 551.154875 
L 451.75099 560.721415 
L 452.344798 585.813776 
L 452.938606 594.579021 
L 453.532414 593.752802 
L 454.126222 592.520553 
L 454.72003 589.773936 
L 455.313838 591.732705 
L 455.907646 604.513167 
L 456.501454 605.265391 
L 457.095262 599.957855 
L 457.68907 609.750305 
L 458.282879 591.795994 
L 458.876687 561.202901 
L 459.470495 539.195627 
L 460.064303 564.154881 
L 460.658111 557.851904 
L 461.251919 564.738533 
L 462.439535 600.696286 
L 463.033343 608.138668 
L 463.627151 608.555965 
L 464.22096 612.917368 
L 464.814768 592.186273 
L 465.408576 600.578785 
L 466.002384 603.809541 
L 466.596192 610.765891 
L 466.596192 610.765891 
" clip-path="url(#p0f5aaefa4e)" style="fill: none; stroke: #1f77b4; stroke-width: 1.5; stroke-linecap: square"/>
   </g>
   <g id="line2d_32">
    <path d="M 71.12 578.818066 
L 467.19 578.818066 
" clip-path="url(#p0f5aaefa4e)" style="fill: none; stroke: #ff0000; stroke-opacity: 0.3; stroke-width: 1.5; stroke-linecap: square"/>
   </g>
   <g id="patch_8">
    <path d="M 71.12 667.24 
L 71.12 385.08 
" style="fill: none; stroke: #000000; stroke-width: 0.8; stroke-linejoin: miter; stroke-linecap: square"/>
   </g>
   <g id="patch_9">
    <path d="M 467.19 667.24 
L 467.19 385.08 
" style="fill: none; stroke: #000000; stroke-width: 0.8; stroke-linejoin: miter; stroke-linecap: square"/>
   </g>
   <g id="patch_10">
    <path d="M 71.12 667.24 
L 467.19 667.24 
" style="fill: none; stroke: #000000; stroke-width: 0.8; stroke-linejoin: miter; stroke-linecap: square"/>
   </g>
   <g id="patch_11">
    <path d="M 71.12 385.08 
L 467.19 385.08 
" style="fill: none; stroke: #000000; stroke-width: 0.8; stroke-linejoin: miter; stroke-linecap: square"/>
   </g>
   <g id="text_34">
    <!-- Pressure -->
    <g transform="translate(232.27165 379.08) scale(0.1728 -0.1728)">
     <defs>
      <path id="DejaVuSans-50" d="M 1259 4147 
L 1259 2394 
L 2053 2394 
Q 2494 2394 2734 2622 
Q 2975 2850 2975 3272 
Q 2975 3691 2734 3919 
Q 2494 4147 2053 4147 
L 1259 4147 
z
M 628 4666 
L 2053 4666 
Q 2838 4666 3239 4311 
Q 3641 3956 3641 3272 
Q 3641 2581 3239 2228 
Q 2838 1875 2053 1875 
L 1259 1875 
L 1259 0 
L 628 0 
L 628 4666 
z
" transform="scale(0.015625)"/>
     </defs>
     <use xlink:href="#DejaVuSans-50"/>
     <use xlink:href="#DejaVuSans-72" x="58.552734"/>
     <use xlink:href="#DejaVuSans-65" x="97.416016"/>
     <use xlink:href="#DejaVuSans-73" x="158.939453"/>
     <use xlink:href="#DejaVuSans-73" x="211.039062"/>
     <use xlink:href="#DejaVuSans-75" x="263.138672"/>
     <use xlink:href="#DejaVuSans-72" x="326.517578"/>
     <use xlink:href="#DejaVuSans-65" x="365.380859"/>
    </g>
   </g>
  </g>
  <g id="axes_3">
   <g id="patch_12">
    <path d="M 529.13 667.24 
L 925.2 667.24 
L 925.2 385.08 
L 529.13 385.08 
z
" style="fill: #ffffff"/>
   </g>
   <g id="matplotlib.axis_5">
    <g id="xtick_15">
     <g id="line2d_33">
      <g>
       <use xlink:href="#mb891e9f05e" x="529.13" y="667.24" style="stroke: #000000; stroke-width: 0.8"/>
      </g>
     </g>
     <g id="text_35">
      <!-- 0 -->
      <g transform="translate(524.549 685.18175) scale(0.144 -0.144)">
       <use xlink:href="#DejaVuSans-30"/>
      </g>
     </g>
    </g>
    <g id="xtick_16">
     <g id="line2d_34">
      <g>
       <use xlink:href="#mb891e9f05e" x="588.51081" y="667.24" style="stroke: #000000; stroke-width: 0.8"/>
      </g>
     </g>
     <g id="text_36">
      <!-- 1 -->
      <g transform="translate(583.92981 685.18175) scale(0.144 -0.144)">
       <use xlink:href="#DejaVuSans-31"/>
      </g>
     </g>
    </g>
    <g id="xtick_17">
     <g id="line2d_35">
      <g>
       <use xlink:href="#mb891e9f05e" x="647.891619" y="667.24" style="stroke: #000000; stroke-width: 0.8"/>
      </g>
     </g>
     <g id="text_37">
      <!-- 2 -->
      <g transform="translate(643.310619 685.18175) scale(0.144 -0.144)">
       <use xlink:href="#DejaVuSans-32"/>
      </g>
     </g>
    </g>
    <g id="xtick_18">
     <g id="line2d_36">
      <g>
       <use xlink:href="#mb891e9f05e" x="707.272429" y="667.24" style="stroke: #000000; stroke-width: 0.8"/>
      </g>
     </g>
     <g id="text_38">
      <!-- 3 -->
      <g transform="translate(702.691429 685.18175) scale(0.144 -0.144)">
       <use xlink:href="#DejaVuSans-33"/>
      </g>
     </g>
    </g>
    <g id="xtick_19">
     <g id="line2d_37">
      <g>
       <use xlink:href="#mb891e9f05e" x="766.653238" y="667.24" style="stroke: #000000; stroke-width: 0.8"/>
      </g>
     </g>
     <g id="text_39">
      <!-- 4 -->
      <g transform="translate(762.072238 685.18175) scale(0.144 -0.144)">
       <use xlink:href="#DejaVuSans-34"/>
      </g>
     </g>
    </g>
    <g id="xtick_20">
     <g id="line2d_38">
      <g>
       <use xlink:href="#mb891e9f05e" x="826.034048" y="667.24" style="stroke: #000000; stroke-width: 0.8"/>
      </g>
     </g>
     <g id="text_40">
      <!-- 5 -->
      <g transform="translate(821.453048 685.18175) scale(0.144 -0.144)">
       <use xlink:href="#DejaVuSans-35"/>
      </g>
     </g>
    </g>
    <g id="xtick_21">
     <g id="line2d_39">
      <g>
       <use xlink:href="#mb891e9f05e" x="885.414858" y="667.24" style="stroke: #000000; stroke-width: 0.8"/>
      </g>
     </g>
     <g id="text_41">
      <!-- 6 -->
      <g transform="translate(880.833858 685.18175) scale(0.144 -0.144)">
       <use xlink:href="#DejaVuSans-36"/>
      </g>
     </g>
    </g>
    <g id="text_42">
     <!-- time in a.u. -->
     <g transform="translate(678.01555 705.3066) scale(0.1728 -0.1728)">
      <use xlink:href="#DejaVuSans-74"/>
      <use xlink:href="#DejaVuSans-69" x="39.208984"/>
      <use xlink:href="#DejaVuSans-6d" x="66.992188"/>
      <use xlink:href="#DejaVuSans-65" x="164.404297"/>
      <use xlink:href="#DejaVuSans-20" x="225.927734"/>
      <use xlink:href="#DejaVuSans-69" x="257.714844"/>
      <use xlink:href="#DejaVuSans-6e" x="285.498047"/>
      <use xlink:href="#DejaVuSans-20" x="348.876953"/>
      <use xlink:href="#DejaVuSans-61" x="380.664062"/>
      <use xlink:href="#DejaVuSans-2e" x="441.943359"/>
      <use xlink:href="#DejaVuSans-75" x="473.730469"/>
      <use xlink:href="#DejaVuSans-2e" x="537.109375"/>
     </g>
    </g>
   </g>
   <g id="matplotlib.axis_6">
    <g id="ytick_15">
     <g id="line2d_40">
      <g>
       <use xlink:href="#m9d88d260cc" x="529.13" y="648.680061" style="stroke: #000000; stroke-width: 0.8"/>
      </g>
     </g>
     <g id="text_43">
      <!-- 1.8 -->
      <g transform="translate(499.2295 654.150936) scale(0.144 -0.144)">
       <use xlink:href="#DejaVuSans-31"/>
       <use xlink:href="#DejaVuSans-2e" x="63.623047"/>
       <use xlink:href="#DejaVuSans-38" x="95.410156"/>
      </g>
     </g>
    </g>
    <g id="ytick_16">
     <g id="line2d_41">
      <g>
       <use xlink:href="#m9d88d260cc" x="529.13" y="599.248635" style="stroke: #000000; stroke-width: 0.8"/>
      </g>
     </g>
     <g id="text_44">
      <!-- 2.0 -->
      <g transform="translate(499.2295 604.71951) scale(0.144 -0.144)">
       <use xlink:href="#DejaVuSans-32"/>
       <use xlink:href="#DejaVuSans-2e" x="63.623047"/>
       <use xlink:href="#DejaVuSans-30" x="95.410156"/>
      </g>
     </g>
    </g>
    <g id="ytick_17">
     <g id="line2d_42">
      <g>
       <use xlink:href="#m9d88d260cc" x="529.13" y="549.817209" style="stroke: #000000; stroke-width: 0.8"/>
      </g>
     </g>
     <g id="text_45">
      <!-- 2.2 -->
      <g transform="translate(499.2295 555.288084) scale(0.144 -0.144)">
       <use xlink:href="#DejaVuSans-32"/>
       <use xlink:href="#DejaVuSans-2e" x="63.623047"/>
       <use xlink:href="#DejaVuSans-32" x="95.410156"/>
      </g>
     </g>
    </g>
    <g id="ytick_18">
     <g id="line2d_43">
      <g>
       <use xlink:href="#m9d88d260cc" x="529.13" y="500.385783" style="stroke: #000000; stroke-width: 0.8"/>
      </g>
     </g>
     <g id="text_46">
      <!-- 2.4 -->
      <g transform="translate(499.2295 505.856658) scale(0.144 -0.144)">
       <use xlink:href="#DejaVuSans-32"/>
       <use xlink:href="#DejaVuSans-2e" x="63.623047"/>
       <use xlink:href="#DejaVuSans-34" x="95.410156"/>
      </g>
     </g>
    </g>
    <g id="ytick_19">
     <g id="line2d_44">
      <g>
       <use xlink:href="#m9d88d260cc" x="529.13" y="450.954357" style="stroke: #000000; stroke-width: 0.8"/>
      </g>
     </g>
     <g id="text_47">
      <!-- 2.6 -->
      <g transform="translate(499.2295 456.425232) scale(0.144 -0.144)">
       <use xlink:href="#DejaVuSans-32"/>
       <use xlink:href="#DejaVuSans-2e" x="63.623047"/>
       <use xlink:href="#DejaVuSans-36" x="95.410156"/>
      </g>
     </g>
    </g>
    <g id="ytick_20">
     <g id="line2d_45">
      <g>
       <use xlink:href="#m9d88d260cc" x="529.13" y="401.522931" style="stroke: #000000; stroke-width: 0.8"/>
      </g>
     </g>
     <g id="text_48">
      <!-- 2.8 -->
      <g transform="translate(499.2295 406.993806) scale(0.144 -0.144)">
       <use xlink:href="#DejaVuSans-32"/>
       <use xlink:href="#DejaVuSans-2e" x="63.623047"/>
       <use xlink:href="#DejaVuSans-38" x="95.410156"/>
      </g>
     </g>
    </g>
    <g id="text_49">
     <!-- temperature in a.u. -->
     <g transform="translate(491.6358 610.09355) rotate(-90) scale(0.1728 -0.1728)">
      <use xlink:href="#DejaVuSans-74"/>
      <use xlink:href="#DejaVuSans-65" x="39.208984"/>
      <use xlink:href="#DejaVuSans-6d" x="100.732422"/>
      <use xlink:href="#DejaVuSans-70" x="198.144531"/>
      <use xlink:href="#DejaVuSans-65" x="261.621094"/>
      <use xlink:href="#DejaVuSans-72" x="323.144531"/>
      <use xlink:href="#DejaVuSans-61" x="364.257812"/>
      <use xlink:href="#DejaVuSans-74" x="425.537109"/>
      <use xlink:href="#DejaVuSans-75" x="464.746094"/>
      <use xlink:href="#DejaVuSans-72" x="528.125"/>
      <use xlink:href="#DejaVuSans-65" x="566.988281"/>
      <use xlink:href="#DejaVuSans-20" x="628.511719"/>
      <use xlink:href="#DejaVuSans-69" x="660.298828"/>
      <use xlink:href="#DejaVuSans-6e" x="688.082031"/>
      <use xlink:href="#DejaVuSans-20" x="751.460938"/>
      <use xlink:href="#DejaVuSans-61" x="783.248047"/>
      <use xlink:href="#DejaVuSans-2e" x="844.527344"/>
      <use xlink:href="#DejaVuSans-75" x="876.314453"/>
      <use xlink:href="#DejaVuSans-2e" x="939.693359"/>
     </g>
    </g>
   </g>
   <g id="line2d_46">
    <path d="M 529.13 408.593333 
L 529.723808 546.433491 
L 530.317616 580.790872 
L 530.911424 624.381189 
L 531.505232 613.240132 
L 532.09904 614.640713 
L 532.692849 599.562488 
L 533.286657 590.104845 
L 533.880465 610.751616 
L 534.474273 613.96955 
L 535.068081 585.15455 
L 535.661889 606.944902 
L 536.255697 592.031024 
L 536.849505 586.810466 
L 537.443313 608.831952 
L 538.037121 591.265953 
L 538.63093 603.272898 
L 539.224738 607.533683 
L 539.818546 617.95087 
L 540.412354 579.679489 
L 541.006162 601.506467 
L 542.193778 581.704733 
L 543.381394 616.600611 
L 543.975202 602.409013 
L 544.56901 583.331344 
L 545.162819 604.664205 
L 545.756627 615.362609 
L 546.350435 592.874468 
L 546.944243 584.347847 
L 547.538051 585.968791 
L 548.131859 611.945745 
L 548.725667 621.125299 
L 549.319475 589.30196 
L 549.913283 599.741155 
L 550.507091 589.296235 
L 551.1009 585.947426 
L 551.694708 613.930236 
L 552.288516 590.150414 
L 552.882324 615.814633 
L 553.476132 621.41955 
L 554.06994 557.82845 
L 554.663748 618.666323 
L 555.851364 578.356094 
L 556.445172 619.114778 
L 557.038981 612.708385 
L 557.632789 563.765356 
L 558.226597 582.952178 
L 558.820405 619.645409 
L 559.414213 636.818791 
L 560.008021 584.98246 
L 560.601829 584.121033 
L 561.195637 601.294367 
L 561.789445 602.173859 
L 562.383253 607.392627 
L 562.977061 589.68218 
L 563.57087 603.101008 
L 564.164678 589.267847 
L 564.758486 592.077819 
L 565.352294 597.756583 
L 565.946102 621.106817 
L 566.53991 591.130976 
L 567.133718 604.67206 
L 567.727526 607.041874 
L 568.321334 585.321518 
L 568.915142 578.863084 
L 569.508951 609.835305 
L 570.102759 618.167047 
L 570.696567 601.125326 
L 571.290375 609.105574 
L 571.884183 579.65872 
L 572.477991 606.586307 
L 573.071799 598.269564 
L 573.665607 599.664806 
L 574.259415 614.6707 
L 574.853223 606.665984 
L 575.447031 576.19664 
L 576.04084 594.68855 
L 576.634648 591.24733 
L 577.228456 581.406276 
L 577.822264 603.404395 
L 578.416072 620.868709 
L 579.00988 606.936904 
L 579.603688 588.036873 
L 580.197496 594.184037 
L 580.791304 623.860327 
L 581.385112 584.8245 
L 581.978921 597.143876 
L 582.572729 585.255188 
L 583.166537 594.908529 
L 583.760345 617.035247 
L 584.354153 606.137743 
L 584.947961 590.271433 
L 585.541769 612.354828 
L 586.135577 619.255285 
L 586.729385 573.200953 
L 587.323193 585.045908 
L 587.917001 619.239067 
L 588.51081 606.16934 
L 589.104618 601.966598 
L 589.698426 562.53918 
L 590.292234 577.756089 
L 591.47985 628.118934 
L 592.073658 613.462546 
L 592.667466 583.880772 
L 593.261274 609.57811 
L 593.855082 593.418317 
L 594.448891 595.098927 
L 595.042699 614.411349 
L 595.636507 600.35778 
L 596.230315 565.764688 
L 596.824123 612.180655 
L 597.417931 611.873707 
L 598.011739 576.858369 
L 598.605547 629.870624 
L 599.199355 623.151098 
L 599.793163 571.157792 
L 600.98078 591.677313 
L 601.574588 610.340158 
L 602.168396 594.333487 
L 602.762204 605.57158 
L 603.356012 626.863569 
L 603.94982 604.557923 
L 604.543628 588.107337 
L 605.137436 583.515519 
L 605.731244 568.34592 
L 606.325052 603.063659 
L 606.918861 617.339436 
L 607.512669 608.173783 
L 608.106477 623.000992 
L 608.700285 584.331783 
L 609.294093 590.415002 
L 609.887901 602.127543 
L 610.481709 600.602963 
L 611.075517 606.946342 
L 611.669325 602.678603 
L 612.263133 568.977554 
L 613.45075 610.795919 
L 614.044558 599.516991 
L 614.638366 611.828382 
L 615.232174 599.79389 
L 615.825982 612.159661 
L 616.41979 602.104673 
L 617.013598 616.831451 
L 617.607406 582.422922 
L 618.201214 561.027942 
L 618.795022 623.369996 
L 619.388831 640.481829 
L 620.576447 562.153385 
L 621.170255 585.580509 
L 622.357871 620.103689 
L 622.951679 622.972227 
L 623.545487 579.312255 
L 624.139295 573.553246 
L 624.733103 604.725824 
L 625.326912 603.26675 
L 625.92072 597.327503 
L 626.514528 597.580708 
L 627.108336 605.746678 
L 627.702144 591.94784 
L 628.295952 590.655597 
L 628.88976 604.755977 
L 629.483568 612.830153 
L 630.077376 603.654101 
L 630.671184 604.793111 
L 631.264993 603.408323 
L 631.858801 587.81654 
L 632.452609 599.248722 
L 633.046417 596.302453 
L 633.640225 586.015523 
L 634.234033 599.367075 
L 634.827841 624.271986 
L 635.421649 581.837734 
L 636.015457 609.563976 
L 636.609265 594.197315 
L 637.203073 592.284396 
L 637.796882 589.331963 
L 638.39069 594.358243 
L 638.984498 614.996779 
L 639.578306 612.097504 
L 640.172114 591.551118 
L 640.765922 614.61345 
L 641.35973 589.170395 
L 641.953538 590.382788 
L 642.547346 614.592884 
L 643.141154 591.716412 
L 643.734963 589.494181 
L 644.328771 592.543688 
L 644.922579 612.901152 
L 646.110195 588.232401 
L 646.704003 611.517707 
L 647.297811 602.46478 
L 647.891619 577.754248 
L 649.079235 626.702784 
L 650.266852 591.217983 
L 650.86066 581.382332 
L 651.454468 586.228869 
L 652.048276 610.33363 
L 652.642084 599.236029 
L 653.235892 603.64678 
L 653.8297 591.171152 
L 654.423508 620.164202 
L 655.017316 593.882767 
L 655.611124 595.530088 
L 656.204933 589.06208 
L 656.798741 615.406634 
L 657.392549 609.430998 
L 657.986357 594.752586 
L 658.580165 566.81203 
L 659.767781 602.766212 
L 660.361589 605.616163 
L 660.955397 619.374825 
L 661.549205 601.048905 
L 662.143013 631.203502 
L 662.736822 582.777549 
L 663.33063 587.508085 
L 663.924438 580.67823 
L 664.518246 580.190476 
L 665.112054 604.080728 
L 665.705862 617.24355 
L 666.893478 592.828089 
L 667.487286 597.853453 
L 668.081094 596.306108 
L 668.674903 608.888538 
L 669.268711 600.386758 
L 669.862519 611.378911 
L 670.456327 602.445682 
L 671.050135 586.125415 
L 671.643943 590.569606 
L 672.237751 591.046922 
L 672.831559 590.310949 
L 673.425367 604.269158 
L 674.019175 601.561251 
L 674.612984 590.028026 
L 675.206792 607.777619 
L 675.8006 617.911498 
L 676.394408 616.762598 
L 676.988216 577.707844 
L 677.582024 596.789213 
L 678.175832 621.64621 
L 678.76964 570.480674 
L 679.957256 614.110983 
L 680.551064 597.690918 
L 681.144873 616.085956 
L 681.738681 585.802678 
L 682.332489 572.474991 
L 682.926297 616.289147 
L 683.520105 603.61661 
L 684.113913 593.644076 
L 684.707721 606.720597 
L 685.301529 624.241014 
L 685.895337 574.295647 
L 686.489145 567.523485 
L 687.082954 610.498357 
L 687.676762 629.298154 
L 688.864378 584.595447 
L 689.458186 587.665652 
L 690.051994 602.006614 
L 690.645802 620.097108 
L 691.23961 607.711658 
L 691.833418 586.589953 
L 692.427226 597.752269 
L 693.021034 584.968903 
L 693.614843 597.263899 
L 694.208651 612.893879 
L 694.802459 612.607024 
L 695.396267 601.359977 
L 695.990075 582.625424 
L 696.583883 595.674153 
L 697.177691 613.318874 
L 697.771499 606.662624 
L 698.959115 578.738683 
L 699.552924 607.576309 
L 700.146732 594.79735 
L 700.74054 586.722368 
L 701.334348 602.323152 
L 701.928156 622.596657 
L 702.521964 590.730913 
L 703.115772 584.300006 
L 703.70958 600.621144 
L 704.303388 602.296759 
L 704.897196 593.792111 
L 705.491004 612.503852 
L 706.084813 607.499265 
L 706.678621 579.016397 
L 707.272429 610.902687 
L 707.866237 603.606153 
L 708.460045 582.019003 
L 709.053853 606.931814 
L 709.647661 602.969329 
L 710.241469 612.516458 
L 710.835277 591.661954 
L 711.429085 599.066992 
L 712.022894 574.340787 
L 712.616702 605.215895 
L 713.21051 620.312114 
L 713.804318 602.928829 
L 714.398126 574.670051 
L 714.991934 610.696881 
L 715.585742 621.278153 
L 716.17955 580.893052 
L 716.773358 571.126441 
L 717.367166 598.618506 
L 717.960975 615.778158 
L 718.554783 605.22749 
L 719.148591 602.518381 
L 719.742399 598.968538 
L 720.336207 598.037276 
L 720.930015 631.422557 
L 721.523823 571.254837 
L 722.117631 602.232294 
L 723.305247 577.450493 
L 723.899055 597.730708 
L 724.492864 603.660155 
L 725.086672 611.264991 
L 725.68048 608.571867 
L 726.274288 595.675271 
L 726.868096 596.987776 
L 727.461904 590.499116 
L 728.055712 608.983607 
L 728.64952 605.924399 
L 729.243328 579.392643 
L 729.837136 602.966515 
L 730.430945 598.03557 
L 731.024753 592.123241 
L 731.618561 609.621794 
L 732.212369 609.610777 
L 732.806177 579.348174 
L 733.993793 613.624074 
L 734.587601 594.923144 
L 735.181409 592.978206 
L 735.775217 589.682631 
L 736.369025 618.571263 
L 736.962834 611.001681 
L 737.556642 576.228777 
L 738.15045 587.988046 
L 738.744258 614.203276 
L 739.338066 591.360817 
L 739.931874 616.055603 
L 740.525682 617.913172 
L 741.11949 564.573893 
L 741.713298 593.550301 
L 742.307106 604.668406 
L 742.900915 600.561394 
L 743.494723 598.734656 
L 744.088531 600.79973 
L 744.682339 607.585279 
L 745.276147 584.205634 
L 745.869955 602.703059 
L 746.463763 616.661717 
L 747.057571 580.018244 
L 747.651379 592.215241 
L 748.245187 600.565839 
L 748.838996 630.115965 
L 750.026612 582.022656 
L 750.62042 592.063639 
L 751.214228 609.443821 
L 751.808036 586.170452 
L 752.401844 598.959418 
L 752.995652 586.583485 
L 753.58946 595.587566 
L 754.183268 593.560215 
L 754.777076 614.027377 
L 755.370885 612.553926 
L 755.964693 618.130574 
L 756.558501 589.173073 
L 757.152309 591.765205 
L 757.746117 583.23756 
L 758.339925 602.480002 
L 758.933733 627.041903 
L 759.527541 595.490233 
L 760.121349 580.115258 
L 760.715157 599.17048 
L 761.308966 608.252377 
L 761.902774 625.166028 
L 762.496582 604.159042 
L 763.09039 595.360185 
L 763.684198 562.230046 
L 764.278006 601.51432 
L 764.871814 604.900493 
L 765.465622 611.356127 
L 766.05943 604.602051 
L 766.653238 585.643581 
L 767.247046 593.007507 
L 767.840855 602.600822 
L 768.434663 597.161752 
L 769.028471 600.107516 
L 769.622279 596.11682 
L 770.216087 605.164453 
L 770.809895 588.53643 
L 771.403703 606.508008 
L 771.997511 592.119749 
L 772.591319 588.931393 
L 773.778936 629.087814 
L 774.372744 587.299362 
L 774.966552 598.804519 
L 775.56036 592.826535 
L 776.154168 592.005584 
L 776.747976 575.034086 
L 777.341784 604.829264 
L 777.935592 599.781745 
L 778.5294 586.610818 
L 779.123208 603.873321 
L 779.717016 616.266285 
L 780.310825 599.70482 
L 780.904633 592.742894 
L 781.498441 598.753714 
L 782.092249 593.547002 
L 782.686057 594.117322 
L 783.279865 603.054391 
L 783.873673 621.1074 
L 784.467481 643.726667 
L 785.061289 564.441899 
L 785.655097 572.285524 
L 786.248906 601.70367 
L 786.842714 613.707477 
L 787.436522 602.632552 
L 788.03033 585.220009 
L 788.624138 612.852666 
L 789.217946 595.945319 
L 790.405562 611.034378 
L 790.99937 579.831027 
L 791.593178 595.243933 
L 792.186987 589.017371 
L 792.780795 612.289555 
L 793.374603 612.233016 
L 793.968411 589.626625 
L 794.562219 598.455379 
L 795.156027 601.682481 
L 795.749835 593.272884 
L 796.343643 596.227125 
L 796.937451 611.907209 
L 797.531259 604.976067 
L 798.125067 608.166258 
L 798.718876 600.076459 
L 799.312684 580.288692 
L 799.906492 593.353795 
L 800.5003 588.51216 
L 801.094108 589.243891 
L 801.687916 608.362884 
L 802.281724 620.487586 
L 802.875532 576.926839 
L 803.46934 598.828941 
L 804.063148 594.789107 
L 804.656957 588.616163 
L 805.250765 603.666644 
L 805.844573 599.633375 
L 806.438381 615.864758 
L 807.032189 607.182534 
L 807.625997 601.53764 
L 808.219805 598.853476 
L 808.813613 591.168177 
L 809.407421 598.423558 
L 810.001229 601.719102 
L 810.595037 626.454076 
L 811.188846 565.924851 
L 811.782654 585.644001 
L 812.376462 611.281278 
L 812.97027 604.748477 
L 813.564078 595.439154 
L 814.157886 588.096336 
L 814.751694 606.567855 
L 815.345502 618.058984 
L 815.93931 595.829049 
L 816.533118 578.829689 
L 817.720735 610.213347 
L 818.314543 619.785233 
L 818.908351 619.150386 
L 819.502159 591.719483 
L 820.095967 614.094841 
L 820.689775 583.528347 
L 821.283583 587.117391 
L 821.877391 604.31301 
L 822.471199 624.84399 
L 823.065007 579.888519 
L 823.658816 588.571419 
L 824.252624 599.332559 
L 824.846432 596.48542 
L 825.44024 596.722419 
L 826.034048 610.797487 
L 826.627856 618.436946 
L 827.221664 578.372411 
L 827.815472 583.710091 
L 828.40928 585.284087 
L 829.003088 611.625538 
L 829.596897 612.172398 
L 830.190705 589.550764 
L 830.784513 592.827305 
L 831.972129 607.553939 
L 832.565937 603.157726 
L 833.159745 593.36262 
L 833.753553 596.884881 
L 834.347361 603.890208 
L 834.941169 603.643583 
L 835.534978 607.989354 
L 836.128786 608.809502 
L 836.722594 583.578625 
L 837.316402 599.921651 
L 837.91021 601.738456 
L 838.504018 596.555252 
L 839.097826 598.525955 
L 839.691634 597.458062 
L 840.285442 594.630456 
L 840.87925 598.557491 
L 841.473058 621.049226 
L 842.066867 597.96234 
L 842.660675 586.260372 
L 843.254483 611.163023 
L 843.848291 594.635944 
L 844.442099 607.705193 
L 845.035907 578.006988 
L 845.629715 596.207859 
L 846.817331 609.5959 
L 847.411139 605.701844 
L 848.004948 615.73707 
L 848.598756 586.174276 
L 849.192564 582.671838 
L 849.786372 595.6005 
L 850.38018 603.840358 
L 850.973988 604.944515 
L 851.567796 603.592161 
L 852.161604 594.943027 
L 852.755412 583.136044 
L 853.34922 598.870114 
L 853.943028 609.886951 
L 854.536837 601.487172 
L 855.130645 603.995122 
L 855.724453 607.3767 
L 856.318261 587.303286 
L 856.912069 602.906139 
L 857.505877 603.846689 
L 858.099685 592.970361 
L 858.693493 606.303633 
L 859.287301 594.28433 
L 859.881109 593.4549 
L 860.474918 601.701008 
L 861.068726 601.60614 
L 861.662534 597.424055 
L 862.256342 597.797289 
L 862.85015 631.991712 
L 863.443958 569.407038 
L 864.037766 604.373943 
L 864.631574 583.439887 
L 865.225382 632.581368 
L 865.81919 615.141114 
L 866.412999 580.950581 
L 867.006807 599.465073 
L 867.600615 590.85696 
L 868.194423 594.518296 
L 868.788231 597.077583 
L 869.382039 594.04369 
L 869.975847 601.132323 
L 870.569655 590.008046 
L 871.163463 607.416535 
L 871.757271 614.261094 
L 872.351079 587.853176 
L 872.944888 613.809085 
L 873.538696 591.555362 
L 874.132504 585.33224 
L 874.726312 596.243791 
L 875.32012 611.131297 
L 875.913928 599.608105 
L 876.507736 593.758754 
L 877.101544 600.86079 
L 877.695352 604.462371 
L 878.28916 616.919071 
L 878.882969 582.629502 
L 879.476777 573.85498 
L 880.070585 623.435547 
L 880.664393 606.987891 
L 881.258201 572.89656 
L 881.852009 603.713343 
L 882.445817 602.188886 
L 883.039625 598.37049 
L 883.633433 606.994418 
L 884.227241 607.977271 
L 884.821049 586.576047 
L 885.414858 604.446637 
L 886.008666 588.05528 
L 886.602474 601.091074 
L 887.196282 596.893852 
L 888.383898 606.187825 
L 888.977706 595.625495 
L 889.571514 608.032675 
L 890.165322 615.65919 
L 890.75913 565.171777 
L 891.352939 606.810923 
L 891.946747 601.354318 
L 892.540555 592.444138 
L 893.134363 620.52707 
L 893.728171 610.042293 
L 894.321979 572.270906 
L 894.915787 598.305881 
L 895.509595 598.966984 
L 896.103403 593.407713 
L 896.697211 605.584056 
L 897.291019 605.498275 
L 897.884828 581.502584 
L 898.478636 614.52183 
L 899.072444 616.196884 
L 899.666252 578.454289 
L 900.26006 622.347109 
L 900.853868 615.408353 
L 901.447676 559.030509 
L 902.041484 601.301435 
L 902.635292 593.243039 
L 903.2291 611.713556 
L 903.822909 603.833304 
L 904.416717 574.369146 
L 905.010525 583.771056 
L 905.604333 621.045389 
L 906.198141 623.506967 
L 906.791949 588.904444 
L 907.385757 607.996135 
L 907.979565 586.895285 
L 908.573373 594.192083 
L 909.167181 611.711431 
L 909.76099 595.770605 
L 910.354798 586.853155 
L 910.948606 597.685468 
L 911.542414 601.433679 
L 912.136222 600.147101 
L 912.73003 601.556447 
L 913.323838 599.19068 
L 913.917646 592.446281 
L 914.511454 601.12164 
L 915.105262 603.737124 
L 915.69907 590.77418 
L 916.292879 609.02761 
L 916.886687 615.78844 
L 917.480495 611.94182 
L 918.074303 582.346418 
L 918.668111 609.836787 
L 919.855727 590.639566 
L 920.449535 592.835968 
L 921.043343 598.516481 
L 921.637151 601.970894 
L 922.23096 597.056735 
L 922.824768 613.890674 
L 923.418576 592.058602 
L 924.012384 598.446328 
L 924.606192 595.982028 
L 924.606192 595.982028 
" clip-path="url(#pc6a8ca0ea7)" style="fill: none; stroke: #1f77b4; stroke-width: 1.5; stroke-linecap: square"/>
   </g>
   <g id="line2d_47">
    <path d="M 529.13 598.925174 
L 925.2 598.925174 
" clip-path="url(#pc6a8ca0ea7)" style="fill: none; stroke: #ff0000; stroke-opacity: 0.3; stroke-width: 1.5; stroke-linecap: square"/>
   </g>
   <g id="patch_13">
    <path d="M 529.13 667.24 
L 529.13 385.08 
" style="fill: none; stroke: #000000; stroke-width: 0.8; stroke-linejoin: miter; stroke-linecap: square"/>
   </g>
   <g id="patch_14">
    <path d="M 925.2 667.24 
L 925.2 385.08 
" style="fill: none; stroke: #000000; stroke-width: 0.8; stroke-linejoin: miter; stroke-linecap: square"/>
   </g>
   <g id="patch_15">
    <path d="M 529.13 667.24 
L 925.2 667.24 
" style="fill: none; stroke: #000000; stroke-width: 0.8; stroke-linejoin: miter; stroke-linecap: square"/>
   </g>
   <g id="patch_16">
    <path d="M 529.13 385.08 
L 925.2 385.08 
" style="fill: none; stroke: #000000; stroke-width: 0.8; stroke-linejoin: miter; stroke-linecap: square"/>
   </g>
   <g id="text_50">
    <!-- Temperature -->
    <g transform="translate(672.44005 379.08) scale(0.1728 -0.1728)">
     <defs>
      <path id="DejaVuSans-54" d="M -19 4666 
L 3928 4666 
L 3928 4134 
L 2272 4134 
L 2272 0 
L 1638 0 
L 1638 4134 
L -19 4134 
L -19 4666 
z
" transform="scale(0.015625)"/>
     </defs>
     <use xlink:href="#DejaVuSans-54"/>
     <use xlink:href="#DejaVuSans-65" x="44.083984"/>
     <use xlink:href="#DejaVuSans-6d" x="105.607422"/>
     <use xlink:href="#DejaVuSans-70" x="203.019531"/>
     <use xlink:href="#DejaVuSans-65" x="266.496094"/>
     <use xlink:href="#DejaVuSans-72" x="328.019531"/>
     <use xlink:href="#DejaVuSans-61" x="369.132812"/>
     <use xlink:href="#DejaVuSans-74" x="430.412109"/>
     <use xlink:href="#DejaVuSans-75" x="469.621094"/>
     <use xlink:href="#DejaVuSans-72" x="533"/>
     <use xlink:href="#DejaVuSans-65" x="571.863281"/>
    </g>
   </g>
  </g>
 </g>
 <defs>
  <clipPath id="p0c46a2aad9">
   <rect x="71.12" y="30.48" width="854.08" height="282.16"/>
  </clipPath>
  <clipPath id="p0f5aaefa4e">
   <rect x="71.12" y="385.08" width="396.07" height="282.16"/>
  </clipPath>
  <clipPath id="pc6a8ca0ea7">
   <rect x="529.13" y="385.08" width="396.07" height="282.16"/>
  </clipPath>
 </defs>
</svg>
