<?xml version="1.0" encoding="utf-8" standalone="no"?>
<!DOCTYPE svg PUBLIC "-//W3C//DTD SVG 1.1//EN"
  "http://www.w3.org/Graphics/SVG/1.1/DTD/svg11.dtd">
<svg xmlns:xlink="http://www.w3.org/1999/xlink" width="936pt" height="720pt" viewBox="0 0 936 720" xmlns="http://www.w3.org/2000/svg" version="1.1">
 <metadata>
  <rdf:RDF xmlns:dc="http://purl.org/dc/elements/1.1/" xmlns:cc="http://creativecommons.org/ns#" xmlns:rdf="http://www.w3.org/1999/02/22-rdf-syntax-ns#">
   <cc:Work>
    <dc:type rdf:resource="http://purl.org/dc/dcmitype/StillImage"/>
    <dc:date>2024-12-09T06:51:18.813759</dc:date>
    <dc:format>image/svg+xml</dc:format>
    <dc:creator>
     <cc:Agent>
      <dc:title>Matplotlib v3.8.0, https://matplotlib.org/</dc:title>
     </cc:Agent>
    </dc:creator>
   </cc:Work>
  </rdf:RDF>
 </metadata>
 <defs>
  <style type="text/css">*{stroke-linejoin: round; stroke-linecap: butt}</style>
 </defs>
 <g id="figure_1">
  <g id="patch_1">
   <path d="M 0 720 
L 936 720 
L 936 0 
L 0 0 
z
" style="fill: #ffffff"/>
  </g>
  <g id="axes_1">
   <g id="patch_2">
    <path d="M 66.62 312.64 
L 925.2 312.64 
L 925.2 30.48 
L 66.62 30.48 
z
" style="fill: #ffffff"/>
   </g>
   <g id="matplotlib.axis_1">
    <g id="xtick_1">
     <g id="line2d_1">
      <defs>
       <path id="m7bab1ea55d" d="M 0 0 
L 0 3.5 
" style="stroke: #000000; stroke-width: 0.8"/>
      </defs>
      <g>
       <use xlink:href="#m7bab1ea55d" x="66.62" y="312.64" style="stroke: #000000; stroke-width: 0.8"/>
      </g>
     </g>
     <g id="text_1">
      <!-- 0 -->
      <g transform="translate(62.039 330.58175) scale(0.144 -0.144)">
       <defs>
        <path id="DejaVuSans-30" d="M 2034 4250 
Q 1547 4250 1301 3770 
Q 1056 3291 1056 2328 
Q 1056 1369 1301 889 
Q 1547 409 2034 409 
Q 2525 409 2770 889 
Q 3016 1369 3016 2328 
Q 3016 3291 2770 3770 
Q 2525 4250 2034 4250 
z
M 2034 4750 
Q 2819 4750 3233 4129 
Q 3647 3509 3647 2328 
Q 3647 1150 3233 529 
Q 2819 -91 2034 -91 
Q 1250 -91 836 529 
Q 422 1150 422 2328 
Q 422 3509 836 4129 
Q 1250 4750 2034 4750 
z
" transform="scale(0.015625)"/>
       </defs>
       <use xlink:href="#DejaVuSans-30"/>
      </g>
     </g>
    </g>
    <g id="xtick_2">
     <g id="line2d_2">
      <g>
       <use xlink:href="#m7bab1ea55d" x="195.342639" y="312.64" style="stroke: #000000; stroke-width: 0.8"/>
      </g>
     </g>
     <g id="text_2">
      <!-- 1 -->
      <g transform="translate(190.761639 330.58175) scale(0.144 -0.144)">
       <defs>
        <path id="DejaVuSans-31" d="M 794 531 
L 1825 531 
L 1825 4091 
L 703 3866 
L 703 4441 
L 1819 4666 
L 2450 4666 
L 2450 531 
L 3481 531 
L 3481 0 
L 794 0 
L 794 531 
z
" transform="scale(0.015625)"/>
       </defs>
       <use xlink:href="#DejaVuSans-31"/>
      </g>
     </g>
    </g>
    <g id="xtick_3">
     <g id="line2d_3">
      <g>
       <use xlink:href="#m7bab1ea55d" x="324.065277" y="312.64" style="stroke: #000000; stroke-width: 0.8"/>
      </g>
     </g>
     <g id="text_3">
      <!-- 2 -->
      <g transform="translate(319.484277 330.58175) scale(0.144 -0.144)">
       <defs>
        <path id="DejaVuSans-32" d="M 1228 531 
L 3431 531 
L 3431 0 
L 469 0 
L 469 531 
Q 828 903 1448 1529 
Q 2069 2156 2228 2338 
Q 2531 2678 2651 2914 
Q 2772 3150 2772 3378 
Q 2772 3750 2511 3984 
Q 2250 4219 1831 4219 
Q 1534 4219 1204 4116 
Q 875 4013 500 3803 
L 500 4441 
Q 881 4594 1212 4672 
Q 1544 4750 1819 4750 
Q 2544 4750 2975 4387 
Q 3406 4025 3406 3419 
Q 3406 3131 3298 2873 
Q 3191 2616 2906 2266 
Q 2828 2175 2409 1742 
Q 1991 1309 1228 531 
z
" transform="scale(0.015625)"/>
       </defs>
       <use xlink:href="#DejaVuSans-32"/>
      </g>
     </g>
    </g>
    <g id="xtick_4">
     <g id="line2d_4">
      <g>
       <use xlink:href="#m7bab1ea55d" x="452.787916" y="312.64" style="stroke: #000000; stroke-width: 0.8"/>
      </g>
     </g>
     <g id="text_4">
      <!-- 3 -->
      <g transform="translate(448.206916 330.58175) scale(0.144 -0.144)">
       <defs>
        <path id="DejaVuSans-33" d="M 2597 2516 
Q 3050 2419 3304 2112 
Q 3559 1806 3559 1356 
Q 3559 666 3084 287 
Q 2609 -91 1734 -91 
Q 1441 -91 1130 -33 
Q 819 25 488 141 
L 488 750 
Q 750 597 1062 519 
Q 1375 441 1716 441 
Q 2309 441 2620 675 
Q 2931 909 2931 1356 
Q 2931 1769 2642 2001 
Q 2353 2234 1838 2234 
L 1294 2234 
L 1294 2753 
L 1863 2753 
Q 2328 2753 2575 2939 
Q 2822 3125 2822 3475 
Q 2822 3834 2567 4026 
Q 2313 4219 1838 4219 
Q 1578 4219 1281 4162 
Q 984 4106 628 3988 
L 628 4550 
Q 988 4650 1302 4700 
Q 1616 4750 1894 4750 
Q 2613 4750 3031 4423 
Q 3450 4097 3450 3541 
Q 3450 3153 3228 2886 
Q 3006 2619 2597 2516 
z
" transform="scale(0.015625)"/>
       </defs>
       <use xlink:href="#DejaVuSans-33"/>
      </g>
     </g>
    </g>
    <g id="xtick_5">
     <g id="line2d_5">
      <g>
       <use xlink:href="#m7bab1ea55d" x="581.510555" y="312.64" style="stroke: #000000; stroke-width: 0.8"/>
      </g>
     </g>
     <g id="text_5">
      <!-- 4 -->
      <g transform="translate(576.929555 330.58175) scale(0.144 -0.144)">
       <defs>
        <path id="DejaVuSans-34" d="M 2419 4116 
L 825 1625 
L 2419 1625 
L 2419 4116 
z
M 2253 4666 
L 3047 4666 
L 3047 1625 
L 3713 1625 
L 3713 1100 
L 3047 1100 
L 3047 0 
L 2419 0 
L 2419 1100 
L 313 1100 
L 313 1709 
L 2253 4666 
z
" transform="scale(0.015625)"/>
       </defs>
       <use xlink:href="#DejaVuSans-34"/>
      </g>
     </g>
    </g>
    <g id="xtick_6">
     <g id="line2d_6">
      <g>
       <use xlink:href="#m7bab1ea55d" x="710.233193" y="312.64" style="stroke: #000000; stroke-width: 0.8"/>
      </g>
     </g>
     <g id="text_6">
      <!-- 5 -->
      <g transform="translate(705.652193 330.58175) scale(0.144 -0.144)">
       <defs>
        <path id="DejaVuSans-35" d="M 691 4666 
L 3169 4666 
L 3169 4134 
L 1269 4134 
L 1269 2991 
Q 1406 3038 1543 3061 
Q 1681 3084 1819 3084 
Q 2600 3084 3056 2656 
Q 3513 2228 3513 1497 
Q 3513 744 3044 326 
Q 2575 -91 1722 -91 
Q 1428 -91 1123 -41 
Q 819 9 494 109 
L 494 744 
Q 775 591 1075 516 
Q 1375 441 1709 441 
Q 2250 441 2565 725 
Q 2881 1009 2881 1497 
Q 2881 1984 2565 2268 
Q 2250 2553 1709 2553 
Q 1456 2553 1204 2497 
Q 953 2441 691 2322 
L 691 4666 
z
" transform="scale(0.015625)"/>
       </defs>
       <use xlink:href="#DejaVuSans-35"/>
      </g>
     </g>
    </g>
    <g id="xtick_7">
     <g id="line2d_7">
      <g>
       <use xlink:href="#m7bab1ea55d" x="838.955832" y="312.64" style="stroke: #000000; stroke-width: 0.8"/>
      </g>
     </g>
     <g id="text_7">
      <!-- 6 -->
      <g transform="translate(834.374832 330.58175) scale(0.144 -0.144)">
       <defs>
        <path id="DejaVuSans-36" d="M 2113 2584 
Q 1688 2584 1439 2293 
Q 1191 2003 1191 1497 
Q 1191 994 1439 701 
Q 1688 409 2113 409 
Q 2538 409 2786 701 
Q 3034 994 3034 1497 
Q 3034 2003 2786 2293 
Q 2538 2584 2113 2584 
z
M 3366 4563 
L 3366 3988 
Q 3128 4100 2886 4159 
Q 2644 4219 2406 4219 
Q 1781 4219 1451 3797 
Q 1122 3375 1075 2522 
Q 1259 2794 1537 2939 
Q 1816 3084 2150 3084 
Q 2853 3084 3261 2657 
Q 3669 2231 3669 1497 
Q 3669 778 3244 343 
Q 2819 -91 2113 -91 
Q 1303 -91 875 529 
Q 447 1150 447 2328 
Q 447 3434 972 4092 
Q 1497 4750 2381 4750 
Q 2619 4750 2861 4703 
Q 3103 4656 3366 4563 
z
" transform="scale(0.015625)"/>
       </defs>
       <use xlink:href="#DejaVuSans-36"/>
      </g>
     </g>
    </g>
    <g id="text_8">
     <!-- time in a.u. -->
     <g transform="translate(446.76055 350.7066) scale(0.1728 -0.1728)">
      <defs>
       <path id="DejaVuSans-74" d="M 1172 4494 
L 1172 3500 
L 2356 3500 
L 2356 3053 
L 1172 3053 
L 1172 1153 
Q 1172 725 1289 603 
Q 1406 481 1766 481 
L 2356 481 
L 2356 0 
L 1766 0 
Q 1100 0 847 248 
Q 594 497 594 1153 
L 594 3053 
L 172 3053 
L 172 3500 
L 594 3500 
L 594 4494 
L 1172 4494 
z
" transform="scale(0.015625)"/>
       <path id="DejaVuSans-69" d="M 603 3500 
L 1178 3500 
L 1178 0 
L 603 0 
L 603 3500 
z
M 603 4863 
L 1178 4863 
L 1178 4134 
L 603 4134 
L 603 4863 
z
" transform="scale(0.015625)"/>
       <path id="DejaVuSans-6d" d="M 3328 2828 
Q 3544 3216 3844 3400 
Q 4144 3584 4550 3584 
Q 5097 3584 5394 3201 
Q 5691 2819 5691 2113 
L 5691 0 
L 5113 0 
L 5113 2094 
Q 5113 2597 4934 2840 
Q 4756 3084 4391 3084 
Q 3944 3084 3684 2787 
Q 3425 2491 3425 1978 
L 3425 0 
L 2847 0 
L 2847 2094 
Q 2847 2600 2669 2842 
Q 2491 3084 2119 3084 
Q 1678 3084 1418 2786 
Q 1159 2488 1159 1978 
L 1159 0 
L 581 0 
L 581 3500 
L 1159 3500 
L 1159 2956 
Q 1356 3278 1631 3431 
Q 1906 3584 2284 3584 
Q 2666 3584 2933 3390 
Q 3200 3197 3328 2828 
z
" transform="scale(0.015625)"/>
       <path id="DejaVuSans-65" d="M 3597 1894 
L 3597 1613 
L 953 1613 
Q 991 1019 1311 708 
Q 1631 397 2203 397 
Q 2534 397 2845 478 
Q 3156 559 3463 722 
L 3463 178 
Q 3153 47 2828 -22 
Q 2503 -91 2169 -91 
Q 1331 -91 842 396 
Q 353 884 353 1716 
Q 353 2575 817 3079 
Q 1281 3584 2069 3584 
Q 2775 3584 3186 3129 
Q 3597 2675 3597 1894 
z
M 3022 2063 
Q 3016 2534 2758 2815 
Q 2500 3097 2075 3097 
Q 1594 3097 1305 2825 
Q 1016 2553 972 2059 
L 3022 2063 
z
" transform="scale(0.015625)"/>
       <path id="DejaVuSans-20" transform="scale(0.015625)"/>
       <path id="DejaVuSans-6e" d="M 3513 2113 
L 3513 0 
L 2938 0 
L 2938 2094 
Q 2938 2591 2744 2837 
Q 2550 3084 2163 3084 
Q 1697 3084 1428 2787 
Q 1159 2491 1159 1978 
L 1159 0 
L 581 0 
L 581 3500 
L 1159 3500 
L 1159 2956 
Q 1366 3272 1645 3428 
Q 1925 3584 2291 3584 
Q 2894 3584 3203 3211 
Q 3513 2838 3513 2113 
z
" transform="scale(0.015625)"/>
       <path id="DejaVuSans-61" d="M 2194 1759 
Q 1497 1759 1228 1600 
Q 959 1441 959 1056 
Q 959 750 1161 570 
Q 1363 391 1709 391 
Q 2188 391 2477 730 
Q 2766 1069 2766 1631 
L 2766 1759 
L 2194 1759 
z
M 3341 1997 
L 3341 0 
L 2766 0 
L 2766 531 
Q 2569 213 2275 61 
Q 1981 -91 1556 -91 
Q 1019 -91 701 211 
Q 384 513 384 1019 
Q 384 1609 779 1909 
Q 1175 2209 1959 2209 
L 2766 2209 
L 2766 2266 
Q 2766 2663 2505 2880 
Q 2244 3097 1772 3097 
Q 1472 3097 1187 3025 
Q 903 2953 641 2809 
L 641 3341 
Q 956 3463 1253 3523 
Q 1550 3584 1831 3584 
Q 2591 3584 2966 3190 
Q 3341 2797 3341 1997 
z
" transform="scale(0.015625)"/>
       <path id="DejaVuSans-2e" d="M 684 794 
L 1344 794 
L 1344 0 
L 684 0 
L 684 794 
z
" transform="scale(0.015625)"/>
       <path id="DejaVuSans-75" d="M 544 1381 
L 544 3500 
L 1119 3500 
L 1119 1403 
Q 1119 906 1312 657 
Q 1506 409 1894 409 
Q 2359 409 2629 706 
Q 2900 1003 2900 1516 
L 2900 3500 
L 3475 3500 
L 3475 0 
L 2900 0 
L 2900 538 
Q 2691 219 2414 64 
Q 2138 -91 1772 -91 
Q 1169 -91 856 284 
Q 544 659 544 1381 
z
M 1991 3584 
L 1991 3584 
z
" transform="scale(0.015625)"/>
      </defs>
      <use xlink:href="#DejaVuSans-74"/>
      <use xlink:href="#DejaVuSans-69" x="39.208984"/>
      <use xlink:href="#DejaVuSans-6d" x="66.992188"/>
      <use xlink:href="#DejaVuSans-65" x="164.404297"/>
      <use xlink:href="#DejaVuSans-20" x="225.927734"/>
      <use xlink:href="#DejaVuSans-69" x="257.714844"/>
      <use xlink:href="#DejaVuSans-6e" x="285.498047"/>
      <use xlink:href="#DejaVuSans-20" x="348.876953"/>
      <use xlink:href="#DejaVuSans-61" x="380.664062"/>
      <use xlink:href="#DejaVuSans-2e" x="441.943359"/>
      <use xlink:href="#DejaVuSans-75" x="473.730469"/>
      <use xlink:href="#DejaVuSans-2e" x="537.109375"/>
     </g>
    </g>
   </g>
   <g id="matplotlib.axis_2">
    <g id="ytick_1">
     <g id="line2d_8">
      <defs>
       <path id="mda3f8b6958" d="M 0 0 
L -3.5 0 
" style="stroke: #000000; stroke-width: 0.8"/>
      </defs>
      <g>
       <use xlink:href="#mda3f8b6958" x="66.62" y="297.251423" style="stroke: #000000; stroke-width: 0.8"/>
      </g>
     </g>
     <g id="text_9">
      <!-- 0 -->
      <g transform="translate(50.458 302.722298) scale(0.144 -0.144)">
       <use xlink:href="#DejaVuSans-30"/>
      </g>
     </g>
    </g>
    <g id="ytick_2">
     <g id="line2d_9">
      <g>
       <use xlink:href="#mda3f8b6958" x="66.62" y="260.542847" style="stroke: #000000; stroke-width: 0.8"/>
      </g>
     </g>
     <g id="text_10">
      <!-- 20 -->
      <g transform="translate(41.296 266.013722) scale(0.144 -0.144)">
       <use xlink:href="#DejaVuSans-32"/>
       <use xlink:href="#DejaVuSans-30" x="63.623047"/>
      </g>
     </g>
    </g>
    <g id="ytick_3">
     <g id="line2d_10">
      <g>
       <use xlink:href="#mda3f8b6958" x="66.62" y="223.83427" style="stroke: #000000; stroke-width: 0.8"/>
      </g>
     </g>
     <g id="text_11">
      <!-- 40 -->
      <g transform="translate(41.296 229.305145) scale(0.144 -0.144)">
       <use xlink:href="#DejaVuSans-34"/>
       <use xlink:href="#DejaVuSans-30" x="63.623047"/>
      </g>
     </g>
    </g>
    <g id="ytick_4">
     <g id="line2d_11">
      <g>
       <use xlink:href="#mda3f8b6958" x="66.62" y="187.125694" style="stroke: #000000; stroke-width: 0.8"/>
      </g>
     </g>
     <g id="text_12">
      <!-- 60 -->
      <g transform="translate(41.296 192.596569) scale(0.144 -0.144)">
       <use xlink:href="#DejaVuSans-36"/>
       <use xlink:href="#DejaVuSans-30" x="63.623047"/>
      </g>
     </g>
    </g>
    <g id="ytick_5">
     <g id="line2d_12">
      <g>
       <use xlink:href="#mda3f8b6958" x="66.62" y="150.417118" style="stroke: #000000; stroke-width: 0.8"/>
      </g>
     </g>
     <g id="text_13">
      <!-- 80 -->
      <g transform="translate(41.296 155.887993) scale(0.144 -0.144)">
       <defs>
        <path id="DejaVuSans-38" d="M 2034 2216 
Q 1584 2216 1326 1975 
Q 1069 1734 1069 1313 
Q 1069 891 1326 650 
Q 1584 409 2034 409 
Q 2484 409 2743 651 
Q 3003 894 3003 1313 
Q 3003 1734 2745 1975 
Q 2488 2216 2034 2216 
z
M 1403 2484 
Q 997 2584 770 2862 
Q 544 3141 544 3541 
Q 544 4100 942 4425 
Q 1341 4750 2034 4750 
Q 2731 4750 3128 4425 
Q 3525 4100 3525 3541 
Q 3525 3141 3298 2862 
Q 3072 2584 2669 2484 
Q 3125 2378 3379 2068 
Q 3634 1759 3634 1313 
Q 3634 634 3220 271 
Q 2806 -91 2034 -91 
Q 1263 -91 848 271 
Q 434 634 434 1313 
Q 434 1759 690 2068 
Q 947 2378 1403 2484 
z
M 1172 3481 
Q 1172 3119 1398 2916 
Q 1625 2713 2034 2713 
Q 2441 2713 2670 2916 
Q 2900 3119 2900 3481 
Q 2900 3844 2670 4047 
Q 2441 4250 2034 4250 
Q 1625 4250 1398 4047 
Q 1172 3844 1172 3481 
z
" transform="scale(0.015625)"/>
       </defs>
       <use xlink:href="#DejaVuSans-38"/>
       <use xlink:href="#DejaVuSans-30" x="63.623047"/>
      </g>
     </g>
    </g>
    <g id="ytick_6">
     <g id="line2d_13">
      <g>
       <use xlink:href="#mda3f8b6958" x="66.62" y="113.708541" style="stroke: #000000; stroke-width: 0.8"/>
      </g>
     </g>
     <g id="text_14">
      <!-- 100 -->
      <g transform="translate(32.134 119.179416) scale(0.144 -0.144)">
       <use xlink:href="#DejaVuSans-31"/>
       <use xlink:href="#DejaVuSans-30" x="63.623047"/>
       <use xlink:href="#DejaVuSans-30" x="127.246094"/>
      </g>
     </g>
    </g>
    <g id="ytick_7">
     <g id="line2d_14">
      <g>
       <use xlink:href="#mda3f8b6958" x="66.62" y="76.999965" style="stroke: #000000; stroke-width: 0.8"/>
      </g>
     </g>
     <g id="text_15">
      <!-- 120 -->
      <g transform="translate(32.134 82.47084) scale(0.144 -0.144)">
       <use xlink:href="#DejaVuSans-31"/>
       <use xlink:href="#DejaVuSans-32" x="63.623047"/>
       <use xlink:href="#DejaVuSans-30" x="127.246094"/>
      </g>
     </g>
    </g>
    <g id="ytick_8">
     <g id="line2d_15">
      <g>
       <use xlink:href="#mda3f8b6958" x="66.62" y="40.291389" style="stroke: #000000; stroke-width: 0.8"/>
      </g>
     </g>
     <g id="text_16">
      <!-- 140 -->
      <g transform="translate(32.134 45.762264) scale(0.144 -0.144)">
       <use xlink:href="#DejaVuSans-31"/>
       <use xlink:href="#DejaVuSans-34" x="63.623047"/>
       <use xlink:href="#DejaVuSans-30" x="127.246094"/>
      </g>
     </g>
    </g>
    <g id="text_17">
     <!-- (avg. M=4) energy in a.u. -->
     <g transform="translate(24.5403 282.3626) rotate(-90) scale(0.1728 -0.1728)">
      <defs>
       <path id="DejaVuSans-28" d="M 1984 4856 
Q 1566 4138 1362 3434 
Q 1159 2731 1159 2009 
Q 1159 1288 1364 580 
Q 1569 -128 1984 -844 
L 1484 -844 
Q 1016 -109 783 600 
Q 550 1309 550 2009 
Q 550 2706 781 3412 
Q 1013 4119 1484 4856 
L 1984 4856 
z
" transform="scale(0.015625)"/>
       <path id="DejaVuSans-76" d="M 191 3500 
L 800 3500 
L 1894 563 
L 2988 3500 
L 3597 3500 
L 2284 0 
L 1503 0 
L 191 3500 
z
" transform="scale(0.015625)"/>
       <path id="DejaVuSans-67" d="M 2906 1791 
Q 2906 2416 2648 2759 
Q 2391 3103 1925 3103 
Q 1463 3103 1205 2759 
Q 947 2416 947 1791 
Q 947 1169 1205 825 
Q 1463 481 1925 481 
Q 2391 481 2648 825 
Q 2906 1169 2906 1791 
z
M 3481 434 
Q 3481 -459 3084 -895 
Q 2688 -1331 1869 -1331 
Q 1566 -1331 1297 -1286 
Q 1028 -1241 775 -1147 
L 775 -588 
Q 1028 -725 1275 -790 
Q 1522 -856 1778 -856 
Q 2344 -856 2625 -561 
Q 2906 -266 2906 331 
L 2906 616 
Q 2728 306 2450 153 
Q 2172 0 1784 0 
Q 1141 0 747 490 
Q 353 981 353 1791 
Q 353 2603 747 3093 
Q 1141 3584 1784 3584 
Q 2172 3584 2450 3431 
Q 2728 3278 2906 2969 
L 2906 3500 
L 3481 3500 
L 3481 434 
z
" transform="scale(0.015625)"/>
       <path id="DejaVuSans-4d" d="M 628 4666 
L 1569 4666 
L 2759 1491 
L 3956 4666 
L 4897 4666 
L 4897 0 
L 4281 0 
L 4281 4097 
L 3078 897 
L 2444 897 
L 1241 4097 
L 1241 0 
L 628 0 
L 628 4666 
z
" transform="scale(0.015625)"/>
       <path id="DejaVuSans-3d" d="M 678 2906 
L 4684 2906 
L 4684 2381 
L 678 2381 
L 678 2906 
z
M 678 1631 
L 4684 1631 
L 4684 1100 
L 678 1100 
L 678 1631 
z
" transform="scale(0.015625)"/>
       <path id="DejaVuSans-29" d="M 513 4856 
L 1013 4856 
Q 1481 4119 1714 3412 
Q 1947 2706 1947 2009 
Q 1947 1309 1714 600 
Q 1481 -109 1013 -844 
L 513 -844 
Q 928 -128 1133 580 
Q 1338 1288 1338 2009 
Q 1338 2731 1133 3434 
Q 928 4138 513 4856 
z
" transform="scale(0.015625)"/>
       <path id="DejaVuSans-72" d="M 2631 2963 
Q 2534 3019 2420 3045 
Q 2306 3072 2169 3072 
Q 1681 3072 1420 2755 
Q 1159 2438 1159 1844 
L 1159 0 
L 581 0 
L 581 3500 
L 1159 3500 
L 1159 2956 
Q 1341 3275 1631 3429 
Q 1922 3584 2338 3584 
Q 2397 3584 2469 3576 
Q 2541 3569 2628 3553 
L 2631 2963 
z
" transform="scale(0.015625)"/>
       <path id="DejaVuSans-79" d="M 2059 -325 
Q 1816 -950 1584 -1140 
Q 1353 -1331 966 -1331 
L 506 -1331 
L 506 -850 
L 844 -850 
Q 1081 -850 1212 -737 
Q 1344 -625 1503 -206 
L 1606 56 
L 191 3500 
L 800 3500 
L 1894 763 
L 2988 3500 
L 3597 3500 
L 2059 -325 
z
" transform="scale(0.015625)"/>
      </defs>
      <use xlink:href="#DejaVuSans-28"/>
      <use xlink:href="#DejaVuSans-61" x="39.013672"/>
      <use xlink:href="#DejaVuSans-76" x="100.292969"/>
      <use xlink:href="#DejaVuSans-67" x="159.472656"/>
      <use xlink:href="#DejaVuSans-2e" x="222.949219"/>
      <use xlink:href="#DejaVuSans-20" x="254.736328"/>
      <use xlink:href="#DejaVuSans-4d" x="286.523438"/>
      <use xlink:href="#DejaVuSans-3d" x="372.802734"/>
      <use xlink:href="#DejaVuSans-34" x="456.591797"/>
      <use xlink:href="#DejaVuSans-29" x="520.214844"/>
      <use xlink:href="#DejaVuSans-20" x="559.228516"/>
      <use xlink:href="#DejaVuSans-65" x="591.015625"/>
      <use xlink:href="#DejaVuSans-6e" x="652.539062"/>
      <use xlink:href="#DejaVuSans-65" x="715.917969"/>
      <use xlink:href="#DejaVuSans-72" x="777.441406"/>
      <use xlink:href="#DejaVuSans-67" x="816.804688"/>
      <use xlink:href="#DejaVuSans-79" x="880.28125"/>
      <use xlink:href="#DejaVuSans-20" x="939.460938"/>
      <use xlink:href="#DejaVuSans-69" x="971.248047"/>
      <use xlink:href="#DejaVuSans-6e" x="999.03125"/>
      <use xlink:href="#DejaVuSans-20" x="1062.410156"/>
      <use xlink:href="#DejaVuSans-61" x="1094.197266"/>
      <use xlink:href="#DejaVuSans-2e" x="1155.476562"/>
      <use xlink:href="#DejaVuSans-75" x="1187.263672"/>
      <use xlink:href="#DejaVuSans-2e" x="1250.642578"/>
     </g>
    </g>
   </g>
   <g id="line2d_16">
    <path d="M 71.768906 239.227664 
L 73.056132 263.66899 
L 74.343358 268.076126 
L 75.630585 263.970975 
L 76.917811 257.902212 
L 78.205037 253.070835 
L 79.492264 249.096475 
L 80.77949 246.651852 
L 82.066717 245.605192 
L 83.353943 245.172273 
L 84.641169 244.078122 
L 85.928396 243.558527 
L 87.215622 244.241704 
L 88.502849 243.845049 
L 89.790075 242.882376 
L 91.077301 242.171467 
L 92.364528 242.568262 
L 93.651754 244.516526 
L 94.938981 247.542372 
L 96.226207 249.231857 
L 97.513433 249.847208 
L 98.80066 250.109506 
L 100.087886 251.901264 
L 101.375112 253.455174 
L 102.662339 253.335968 
L 103.949565 252.589586 
L 106.524018 250.192958 
L 107.811244 251.131056 
L 109.098471 253.850916 
L 110.385697 255.383613 
L 112.96015 256.989403 
L 114.247376 257.789865 
L 115.534603 259.396461 
L 116.821829 261.968277 
L 118.109055 262.404568 
L 119.396282 261.068164 
L 120.683508 258.373427 
L 124.545187 254.5457 
L 125.832414 253.671755 
L 128.406867 249.984699 
L 129.694093 250.629195 
L 130.981319 253.158736 
L 132.268546 254.287695 
L 133.555772 254.500434 
L 134.842999 255.02696 
L 136.130225 254.776053 
L 137.417451 254.838572 
L 138.704678 255.128288 
L 141.27913 254.601731 
L 143.853583 254.545455 
L 145.14081 253.845832 
L 146.428036 254.252258 
L 147.715262 254.370369 
L 149.002489 254.625965 
L 150.289715 255.756099 
L 151.576942 256.606755 
L 152.864168 256.815025 
L 154.151394 257.46958 
L 155.438621 257.951893 
L 156.725847 257.565889 
L 159.3003 258.946985 
L 160.587526 257.889092 
L 161.874753 255.97713 
L 163.161979 254.728712 
L 164.449205 253.872313 
L 165.736432 253.463784 
L 167.023658 253.842883 
L 169.598111 255.247738 
L 170.885337 256.102807 
L 174.747016 260.853145 
L 176.034243 260.769683 
L 178.608696 258.155658 
L 179.895922 257.253939 
L 182.470375 256.460992 
L 183.757601 256.462583 
L 185.044828 256.902684 
L 186.332054 257.86052 
L 187.61928 257.656189 
L 188.906507 257.296204 
L 190.193733 257.976049 
L 194.055412 260.734877 
L 195.342639 260.923063 
L 196.629865 261.526953 
L 197.917091 263.446217 
L 199.204318 265.00249 
L 200.491544 265.042442 
L 201.778771 264.538085 
L 203.065997 264.776377 
L 204.353223 265.357872 
L 205.64045 265.78223 
L 206.927676 266.960109 
L 208.214903 268.330568 
L 210.789355 271.782113 
L 212.076582 272.708591 
L 214.651034 273.337875 
L 215.938261 273.674551 
L 217.225487 273.259313 
L 218.512714 273.1633 
L 219.79994 272.860957 
L 221.087166 272.173957 
L 222.374393 271.23764 
L 223.661619 269.646343 
L 224.948846 268.268304 
L 227.523298 267.613023 
L 228.810525 265.768712 
L 230.097751 263.463022 
L 231.384978 262.630522 
L 232.672204 263.427237 
L 233.95943 264.400663 
L 235.246657 264.273968 
L 236.533883 263.500566 
L 237.821109 263.143961 
L 240.395562 264.515794 
L 241.682789 264.986424 
L 242.970015 264.255633 
L 244.257241 262.779299 
L 245.544468 262.992158 
L 248.118921 265.072367 
L 250.693373 268.214667 
L 251.9806 268.077485 
L 253.267826 268.308181 
L 254.555052 270.085053 
L 255.842279 270.760134 
L 257.129505 269.89855 
L 258.416732 269.170813 
L 259.703958 268.098693 
L 260.991184 267.516824 
L 263.565637 268.973933 
L 264.852864 269.189295 
L 266.14009 269.572989 
L 268.714543 273.125985 
L 270.001769 274.029156 
L 271.288996 274.469487 
L 272.576222 274.007781 
L 273.863448 271.773269 
L 275.150675 270.644409 
L 276.437901 269.721209 
L 277.725127 268.416048 
L 279.012354 267.564241 
L 280.29958 268.502749 
L 281.586807 269.865229 
L 282.874033 269.768981 
L 284.161259 270.376209 
L 286.735712 270.210592 
L 288.022939 269.021353 
L 291.884618 258.955384 
L 293.171844 257.577493 
L 294.45907 257.52962 
L 295.746297 256.624048 
L 297.033523 255.282417 
L 298.32075 253.753652 
L 299.607976 253.900975 
L 300.895202 254.796699 
L 302.182429 256.367783 
L 303.469655 258.941767 
L 304.756882 260.618118 
L 306.044108 261.430954 
L 307.331334 261.455521 
L 308.618561 262.945769 
L 309.905787 263.93358 
L 312.48024 262.496151 
L 313.767466 260.3509 
L 315.054693 259.036196 
L 316.341919 258.697597 
L 317.629145 259.436009 
L 318.916372 260.448339 
L 321.490825 263.93469 
L 322.778051 263.729016 
L 324.065277 262.374834 
L 325.352504 261.836399 
L 326.63973 262.339837 
L 327.926957 263.294316 
L 329.214183 263.523142 
L 331.788636 262.918324 
L 334.363088 264.42209 
L 335.650315 262.684498 
L 336.937541 260.725147 
L 338.224768 259.427382 
L 339.511994 258.64349 
L 340.79922 257.280442 
L 342.086447 256.408574 
L 343.373673 256.570164 
L 344.6609 258.29821 
L 345.948126 260.666254 
L 347.235352 261.919026 
L 348.522579 262.266814 
L 349.809805 262.776523 
L 351.097031 264.590607 
L 352.384258 264.827521 
L 353.671484 263.138008 
L 354.958711 260.786673 
L 356.245937 259.450287 
L 357.533163 259.930244 
L 358.82039 259.289611 
L 361.394843 256.436533 
L 362.682069 255.973408 
L 363.969295 257.195465 
L 365.256522 258.821404 
L 366.543748 259.166865 
L 367.830975 257.153095 
L 370.405427 254.715507 
L 371.692654 254.508073 
L 372.97988 255.800826 
L 374.267106 256.041886 
L 375.554333 255.385307 
L 376.841559 255.318055 
L 379.416012 258.083092 
L 380.703238 260.073061 
L 381.990465 260.985729 
L 383.277691 260.313855 
L 384.564918 260.418757 
L 385.852144 261.296745 
L 387.13937 261.812162 
L 388.426597 262.032162 
L 389.713823 262.611832 
L 391.001049 263.687587 
L 392.288276 264.136383 
L 396.149955 267.096773 
L 397.437181 268.747501 
L 398.724408 270.148997 
L 400.011634 271.158824 
L 401.298861 270.989949 
L 405.16054 269.804526 
L 406.447766 269.796196 
L 407.734993 270.272524 
L 409.022219 270.583488 
L 411.596672 268.91855 
L 412.883898 269.408986 
L 414.171124 269.12551 
L 415.458351 268.247171 
L 416.745577 267.53386 
L 418.032804 266.961283 
L 419.32003 266.842582 
L 420.607256 267.743612 
L 421.894483 267.92989 
L 423.181709 266.806981 
L 425.756162 267.341486 
L 427.043388 266.924516 
L 429.617841 265.084068 
L 430.905067 263.414325 
L 432.192294 262.925793 
L 433.47952 262.611688 
L 434.766747 262.555123 
L 436.053973 262.956248 
L 438.628426 264.246313 
L 439.915652 264.293545 
L 441.202879 265.745504 
L 443.777331 269.320265 
L 445.064558 269.355679 
L 447.63901 269.91166 
L 448.926237 269.704068 
L 450.213463 269.04945 
L 451.50069 267.884461 
L 452.787916 267.927211 
L 454.075142 268.139637 
L 455.362369 268.173908 
L 456.649595 266.584999 
L 457.936822 265.346946 
L 459.224048 265.683226 
L 460.511274 266.450189 
L 461.798501 266.444615 
L 463.085727 265.191628 
L 464.372954 264.518227 
L 465.66018 264.84876 
L 466.947406 266.026063 
L 468.234633 266.349035 
L 470.809085 264.492386 
L 472.096312 264.097792 
L 473.383538 264.000993 
L 474.670765 263.574605 
L 475.957991 262.906882 
L 477.245217 262.703156 
L 478.532444 263.189829 
L 479.81967 264.208479 
L 481.106897 264.937264 
L 482.394123 265.276305 
L 483.681349 264.227205 
L 484.968576 264.021643 
L 486.255802 264.644246 
L 487.543028 265.465415 
L 488.830255 265.753191 
L 490.117481 265.001689 
L 491.404708 265.093619 
L 492.691934 265.502071 
L 493.97916 266.668927 
L 497.84084 268.454029 
L 499.128066 269.375182 
L 500.415292 269.449598 
L 501.702519 268.124868 
L 502.989745 267.955406 
L 504.276972 268.730601 
L 505.564198 268.809527 
L 506.851424 267.848242 
L 508.138651 266.22375 
L 509.425877 264.813185 
L 510.713103 265.166242 
L 512.00033 266.016567 
L 514.574783 264.613763 
L 515.862009 263.23247 
L 517.149235 261.53419 
L 518.436462 259.402357 
L 522.298141 255.327266 
L 524.872594 254.764372 
L 526.15982 255.274566 
L 527.447046 256.095847 
L 528.734273 256.76169 
L 530.021499 256.579265 
L 531.308726 256.510995 
L 533.883178 257.993948 
L 535.170405 257.30645 
L 536.457631 256.288445 
L 537.744858 255.45412 
L 540.31931 255.157574 
L 541.606537 254.425142 
L 545.468216 256.535877 
L 548.042669 257.091091 
L 549.329895 258.087002 
L 550.617121 259.461983 
L 551.904348 261.401396 
L 553.191574 261.893471 
L 554.478801 262.129728 
L 555.766027 262.714275 
L 557.053253 263.833276 
L 558.34048 265.179237 
L 559.627706 265.348818 
L 562.202159 263.93767 
L 563.489385 263.517172 
L 564.776612 262.712896 
L 566.063838 261.757797 
L 567.351064 260.368006 
L 568.638291 259.747659 
L 569.925517 260.081541 
L 572.49997 262.651712 
L 573.787196 262.049642 
L 575.074423 260.930421 
L 576.361649 261.111804 
L 577.648876 262.480134 
L 582.797781 263.519628 
L 584.085007 264.654147 
L 585.372234 266.681699 
L 586.65946 267.050332 
L 587.946687 265.696778 
L 589.233913 265.13288 
L 590.521139 265.252054 
L 591.808366 264.580774 
L 593.095592 263.314463 
L 595.670045 263.355244 
L 596.957271 263.778686 
L 598.244498 265.611265 
L 599.531724 267.10087 
L 600.818951 268.119602 
L 602.106177 268.641537 
L 603.393403 268.928653 
L 604.68063 268.528238 
L 605.967856 268.246344 
L 608.542309 269.920566 
L 609.829535 269.641877 
L 611.116762 268.894529 
L 612.403988 269.721344 
L 613.691214 271.140558 
L 614.978441 271.692705 
L 616.265667 271.106319 
L 618.84012 267.603826 
L 620.127346 267.068831 
L 621.414573 265.838524 
L 622.701799 264.232259 
L 623.989025 264.234573 
L 625.276252 265.166224 
L 626.563478 266.830122 
L 627.850705 268.227927 
L 629.137931 268.654563 
L 630.425157 267.266458 
L 631.712384 266.477314 
L 632.99961 266.845847 
L 635.574063 265.71586 
L 636.861289 266.077279 
L 638.148516 267.227507 
L 639.435742 267.885286 
L 640.722969 268.928399 
L 642.010195 271.11781 
L 643.297421 271.575163 
L 645.871874 270.153054 
L 647.1591 269.599056 
L 648.446327 269.473808 
L 649.733553 270.801666 
L 651.02078 273.185545 
L 653.595232 274.089485 
L 654.882459 274.38361 
L 656.169685 273.99783 
L 657.456912 272.867573 
L 658.744138 270.90234 
L 661.318591 265.718308 
L 662.605817 264.701266 
L 663.893043 264.220993 
L 665.18027 264.387079 
L 666.467496 263.969611 
L 669.041949 260.602043 
L 670.329175 259.934885 
L 671.616402 259.107851 
L 674.190855 253.561149 
L 675.478081 250.616768 
L 676.765307 248.339036 
L 678.052534 247.544796 
L 679.33976 247.909088 
L 680.626987 247.552756 
L 681.914213 246.412405 
L 683.201439 245.106995 
L 684.488666 244.929632 
L 685.775892 246.156987 
L 687.063118 246.915638 
L 688.350345 246.678445 
L 689.637571 246.939457 
L 690.924798 248.014946 
L 692.212024 249.447711 
L 693.49925 251.347099 
L 694.786477 251.709725 
L 696.073703 251.709543 
L 697.36093 252.665902 
L 698.648156 254.489253 
L 699.935382 254.705859 
L 701.222609 253.579535 
L 702.509835 253.505091 
L 703.797061 253.98307 
L 706.371514 256.388751 
L 707.658741 257.172924 
L 708.945967 257.497193 
L 710.233193 258.060755 
L 711.52042 259.264396 
L 712.807646 260.251767 
L 714.094873 261.59045 
L 715.382099 262.529189 
L 716.669325 262.298142 
L 717.956552 261.579783 
L 719.243778 261.080195 
L 720.531004 261.606458 
L 721.818231 262.299757 
L 723.105457 262.125448 
L 724.392684 261.59111 
L 725.67991 262.160253 
L 726.967136 263.933952 
L 728.254363 266.143288 
L 729.541589 267.970996 
L 730.828816 268.392738 
L 732.116042 268.129098 
L 733.403268 268.813544 
L 734.690495 269.783125 
L 735.977721 269.340312 
L 737.264948 267.776625 
L 738.552174 266.00602 
L 739.8394 265.555577 
L 741.126627 266.363979 
L 742.413853 267.350425 
L 743.701079 266.614195 
L 744.988306 265.717253 
L 746.275532 265.261282 
L 747.562759 266.74455 
L 748.849985 268.449326 
L 750.137211 268.996402 
L 752.711664 268.236928 
L 753.998891 268.581031 
L 755.286117 268.410832 
L 756.573343 267.997664 
L 757.86057 266.096234 
L 761.722249 258.880022 
L 763.009475 257.698543 
L 764.296702 257.286643 
L 765.583928 257.668834 
L 766.871154 258.244185 
L 768.158381 258.319789 
L 769.445607 258.282597 
L 770.732834 259.178709 
L 772.02006 259.916849 
L 775.881739 260.366658 
L 777.168966 260.689242 
L 778.456192 261.526923 
L 779.743418 263.122932 
L 781.030645 263.655956 
L 782.317871 262.697607 
L 783.605097 261.408114 
L 784.892324 261.123297 
L 786.17955 261.759265 
L 787.466777 261.65313 
L 788.754003 260.554997 
L 790.041229 258.903228 
L 791.328456 258.337879 
L 793.902909 261.588372 
L 795.190135 261.430843 
L 797.764588 260.302546 
L 799.051814 260.253537 
L 800.33904 261.107551 
L 801.626267 261.602921 
L 802.913493 260.717058 
L 804.20072 260.296338 
L 805.487946 260.783184 
L 806.775172 260.440474 
L 808.062399 259.782747 
L 809.349625 259.46835 
L 810.636852 258.555353 
L 811.924078 257.146701 
L 813.211304 256.507215 
L 814.498531 256.198603 
L 815.785757 255.475674 
L 817.072984 254.426078 
L 818.36021 254.092053 
L 820.934663 256.272069 
L 822.221889 256.947772 
L 823.509115 257.771454 
L 826.083568 260.550667 
L 828.658021 262.593369 
L 829.945247 262.058093 
L 831.232474 260.80041 
L 833.806927 261.337119 
L 835.094153 259.617121 
L 836.381379 259.482758 
L 837.668606 261.292786 
L 838.955832 263.608331 
L 841.530285 267.528578 
L 842.817511 268.678788 
L 844.104738 269.115814 
L 845.391964 270.833741 
L 846.67919 271.415727 
L 847.966417 270.618102 
L 849.253643 269.212416 
L 850.54087 268.614201 
L 854.402549 269.505308 
L 855.689775 269.146064 
L 856.977001 268.224506 
L 858.264228 267.453982 
L 859.551454 266.360097 
L 860.838681 264.863093 
L 862.125907 263.678317 
L 863.413133 262.682325 
L 864.70036 262.154691 
L 865.987586 262.025634 
L 867.274813 261.084014 
L 868.562039 259.937396 
L 869.849265 260.966968 
L 871.136492 261.602782 
L 873.710945 259.917613 
L 874.998171 258.642042 
L 876.285397 257.986259 
L 877.572624 259.020961 
L 878.85985 260.898765 
L 881.434303 260.327735 
L 882.721529 261.496257 
L 884.008756 262.974711 
L 885.295982 265.172651 
L 886.583208 267.66259 
L 887.870435 269.157701 
L 889.157661 268.563755 
L 890.444888 267.181131 
L 893.01934 266.433432 
L 895.593793 264.520945 
L 896.881019 262.776597 
L 898.168246 261.559144 
L 900.742699 260.929678 
L 903.317151 255.160104 
L 905.891604 252.749875 
L 907.178831 251.154997 
L 909.753283 247.180271 
L 911.04051 246.383892 
L 912.327736 247.666108 
L 913.614963 249.535745 
L 914.902189 249.996477 
L 917.476642 249.691384 
L 918.763868 249.956325 
L 918.763868 249.956325 
" clip-path="url(#pc6604cb190)" style="fill: none; stroke: #1f77b4; stroke-width: 1.5; stroke-linecap: square"/>
   </g>
   <g id="line2d_17">
    <path d="M 66.62 261.475862 
L 925.2 261.475862 
" clip-path="url(#pc6604cb190)" style="fill: none; stroke: #ff0000; stroke-opacity: 0.3; stroke-width: 1.5; stroke-linecap: square"/>
   </g>
   <g id="patch_3">
    <path d="M 66.62 312.64 
L 66.62 30.48 
" style="fill: none; stroke: #000000; stroke-width: 0.8; stroke-linejoin: miter; stroke-linecap: square"/>
   </g>
   <g id="patch_4">
    <path d="M 925.2 312.64 
L 925.2 30.48 
" style="fill: none; stroke: #000000; stroke-width: 0.8; stroke-linejoin: miter; stroke-linecap: square"/>
   </g>
   <g id="patch_5">
    <path d="M 66.62 312.64 
L 925.2 312.64 
" style="fill: none; stroke: #000000; stroke-width: 0.8; stroke-linejoin: miter; stroke-linecap: square"/>
   </g>
   <g id="patch_6">
    <path d="M 66.62 30.48 
L 925.2 30.48 
" style="fill: none; stroke: #000000; stroke-width: 0.8; stroke-linejoin: miter; stroke-linecap: square"/>
   </g>
   <g id="text_18">
    <!-- Energy -->
    <g transform="translate(465.6592 24.48) scale(0.1728 -0.1728)">
     <defs>
      <path id="DejaVuSans-45" d="M 628 4666 
L 3578 4666 
L 3578 4134 
L 1259 4134 
L 1259 2753 
L 3481 2753 
L 3481 2222 
L 1259 2222 
L 1259 531 
L 3634 531 
L 3634 0 
L 628 0 
L 628 4666 
z
" transform="scale(0.015625)"/>
     </defs>
     <use xlink:href="#DejaVuSans-45"/>
     <use xlink:href="#DejaVuSans-6e" x="63.183594"/>
     <use xlink:href="#DejaVuSans-65" x="126.5625"/>
     <use xlink:href="#DejaVuSans-72" x="188.085938"/>
     <use xlink:href="#DejaVuSans-67" x="227.449219"/>
     <use xlink:href="#DejaVuSans-79" x="290.925781"/>
    </g>
   </g>
  </g>
  <g id="axes_2">
   <g id="patch_7">
    <path d="M 66.62 667.24 
L 464.94 667.24 
L 464.94 385.08 
L 66.62 385.08 
z
" style="fill: #ffffff"/>
   </g>
   <g id="matplotlib.axis_3">
    <g id="xtick_8">
     <g id="line2d_18">
      <g>
       <use xlink:href="#m7bab1ea55d" x="66.62" y="667.24" style="stroke: #000000; stroke-width: 0.8"/>
      </g>
     </g>
     <g id="text_19">
      <!-- 0 -->
      <g transform="translate(62.039 685.18175) scale(0.144 -0.144)">
       <use xlink:href="#DejaVuSans-30"/>
      </g>
     </g>
    </g>
    <g id="xtick_9">
     <g id="line2d_19">
      <g>
       <use xlink:href="#m7bab1ea55d" x="126.338141" y="667.24" style="stroke: #000000; stroke-width: 0.8"/>
      </g>
     </g>
     <g id="text_20">
      <!-- 1 -->
      <g transform="translate(121.757141 685.18175) scale(0.144 -0.144)">
       <use xlink:href="#DejaVuSans-31"/>
      </g>
     </g>
    </g>
    <g id="xtick_10">
     <g id="line2d_20">
      <g>
       <use xlink:href="#m7bab1ea55d" x="186.056282" y="667.24" style="stroke: #000000; stroke-width: 0.8"/>
      </g>
     </g>
     <g id="text_21">
      <!-- 2 -->
      <g transform="translate(181.475282 685.18175) scale(0.144 -0.144)">
       <use xlink:href="#DejaVuSans-32"/>
      </g>
     </g>
    </g>
    <g id="xtick_11">
     <g id="line2d_21">
      <g>
       <use xlink:href="#m7bab1ea55d" x="245.774423" y="667.24" style="stroke: #000000; stroke-width: 0.8"/>
      </g>
     </g>
     <g id="text_22">
      <!-- 3 -->
      <g transform="translate(241.193423 685.18175) scale(0.144 -0.144)">
       <use xlink:href="#DejaVuSans-33"/>
      </g>
     </g>
    </g>
    <g id="xtick_12">
     <g id="line2d_22">
      <g>
       <use xlink:href="#m7bab1ea55d" x="305.492564" y="667.24" style="stroke: #000000; stroke-width: 0.8"/>
      </g>
     </g>
     <g id="text_23">
      <!-- 4 -->
      <g transform="translate(300.911564 685.18175) scale(0.144 -0.144)">
       <use xlink:href="#DejaVuSans-34"/>
      </g>
     </g>
    </g>
    <g id="xtick_13">
     <g id="line2d_23">
      <g>
       <use xlink:href="#m7bab1ea55d" x="365.210705" y="667.24" style="stroke: #000000; stroke-width: 0.8"/>
      </g>
     </g>
     <g id="text_24">
      <!-- 5 -->
      <g transform="translate(360.629705 685.18175) scale(0.144 -0.144)">
       <use xlink:href="#DejaVuSans-35"/>
      </g>
     </g>
    </g>
    <g id="xtick_14">
     <g id="line2d_24">
      <g>
       <use xlink:href="#m7bab1ea55d" x="424.928846" y="667.24" style="stroke: #000000; stroke-width: 0.8"/>
      </g>
     </g>
     <g id="text_25">
      <!-- 6 -->
      <g transform="translate(420.347846 685.18175) scale(0.144 -0.144)">
       <use xlink:href="#DejaVuSans-36"/>
      </g>
     </g>
    </g>
    <g id="text_26">
     <!-- time in a.u. -->
     <g transform="translate(216.63055 705.3066) scale(0.1728 -0.1728)">
      <use xlink:href="#DejaVuSans-74"/>
      <use xlink:href="#DejaVuSans-69" x="39.208984"/>
      <use xlink:href="#DejaVuSans-6d" x="66.992188"/>
      <use xlink:href="#DejaVuSans-65" x="164.404297"/>
      <use xlink:href="#DejaVuSans-20" x="225.927734"/>
      <use xlink:href="#DejaVuSans-69" x="257.714844"/>
      <use xlink:href="#DejaVuSans-6e" x="285.498047"/>
      <use xlink:href="#DejaVuSans-20" x="348.876953"/>
      <use xlink:href="#DejaVuSans-61" x="380.664062"/>
      <use xlink:href="#DejaVuSans-2e" x="441.943359"/>
      <use xlink:href="#DejaVuSans-75" x="473.730469"/>
      <use xlink:href="#DejaVuSans-2e" x="537.109375"/>
     </g>
    </g>
   </g>
   <g id="matplotlib.axis_4">
    <g id="ytick_9">
     <g id="line2d_25">
      <g>
       <use xlink:href="#mda3f8b6958" x="66.62" y="622.841924" style="stroke: #000000; stroke-width: 0.8"/>
      </g>
     </g>
     <g id="text_27">
      <!-- 0.0 -->
      <g transform="translate(36.7195 628.312799) scale(0.144 -0.144)">
       <use xlink:href="#DejaVuSans-30"/>
       <use xlink:href="#DejaVuSans-2e" x="63.623047"/>
       <use xlink:href="#DejaVuSans-30" x="95.410156"/>
      </g>
     </g>
    </g>
    <g id="ytick_10">
     <g id="line2d_26">
      <g>
       <use xlink:href="#mda3f8b6958" x="66.62" y="567.792107" style="stroke: #000000; stroke-width: 0.8"/>
      </g>
     </g>
     <g id="text_28">
      <!-- 0.5 -->
      <g transform="translate(36.7195 573.262982) scale(0.144 -0.144)">
       <use xlink:href="#DejaVuSans-30"/>
       <use xlink:href="#DejaVuSans-2e" x="63.623047"/>
       <use xlink:href="#DejaVuSans-35" x="95.410156"/>
      </g>
     </g>
    </g>
    <g id="ytick_11">
     <g id="line2d_27">
      <g>
       <use xlink:href="#mda3f8b6958" x="66.62" y="512.74229" style="stroke: #000000; stroke-width: 0.8"/>
      </g>
     </g>
     <g id="text_29">
      <!-- 1.0 -->
      <g transform="translate(36.7195 518.213165) scale(0.144 -0.144)">
       <use xlink:href="#DejaVuSans-31"/>
       <use xlink:href="#DejaVuSans-2e" x="63.623047"/>
       <use xlink:href="#DejaVuSans-30" x="95.410156"/>
      </g>
     </g>
    </g>
    <g id="ytick_12">
     <g id="line2d_28">
      <g>
       <use xlink:href="#mda3f8b6958" x="66.62" y="457.692474" style="stroke: #000000; stroke-width: 0.8"/>
      </g>
     </g>
     <g id="text_30">
      <!-- 1.5 -->
      <g transform="translate(36.7195 463.163349) scale(0.144 -0.144)">
       <use xlink:href="#DejaVuSans-31"/>
       <use xlink:href="#DejaVuSans-2e" x="63.623047"/>
       <use xlink:href="#DejaVuSans-35" x="95.410156"/>
      </g>
     </g>
    </g>
    <g id="ytick_13">
     <g id="line2d_29">
      <g>
       <use xlink:href="#mda3f8b6958" x="66.62" y="402.642657" style="stroke: #000000; stroke-width: 0.8"/>
      </g>
     </g>
     <g id="text_31">
      <!-- 2.0 -->
      <g transform="translate(36.7195 408.113532) scale(0.144 -0.144)">
       <use xlink:href="#DejaVuSans-32"/>
       <use xlink:href="#DejaVuSans-2e" x="63.623047"/>
       <use xlink:href="#DejaVuSans-30" x="95.410156"/>
      </g>
     </g>
    </g>
    <g id="text_32">
     <!-- (avg. M=4) pressure in a.u. -->
     <g transform="translate(29.1258 644.16485) rotate(-90) scale(0.1728 -0.1728)">
      <defs>
       <path id="DejaVuSans-70" d="M 1159 525 
L 1159 -1331 
L 581 -1331 
L 581 3500 
L 1159 3500 
L 1159 2969 
Q 1341 3281 1617 3432 
Q 1894 3584 2278 3584 
Q 2916 3584 3314 3078 
Q 3713 2572 3713 1747 
Q 3713 922 3314 415 
Q 2916 -91 2278 -91 
Q 1894 -91 1617 61 
Q 1341 213 1159 525 
z
M 3116 1747 
Q 3116 2381 2855 2742 
Q 2594 3103 2138 3103 
Q 1681 3103 1420 2742 
Q 1159 2381 1159 1747 
Q 1159 1113 1420 752 
Q 1681 391 2138 391 
Q 2594 391 2855 752 
Q 3116 1113 3116 1747 
z
" transform="scale(0.015625)"/>
       <path id="DejaVuSans-73" d="M 2834 3397 
L 2834 2853 
Q 2591 2978 2328 3040 
Q 2066 3103 1784 3103 
Q 1356 3103 1142 2972 
Q 928 2841 928 2578 
Q 928 2378 1081 2264 
Q 1234 2150 1697 2047 
L 1894 2003 
Q 2506 1872 2764 1633 
Q 3022 1394 3022 966 
Q 3022 478 2636 193 
Q 2250 -91 1575 -91 
Q 1294 -91 989 -36 
Q 684 19 347 128 
L 347 722 
Q 666 556 975 473 
Q 1284 391 1588 391 
Q 1994 391 2212 530 
Q 2431 669 2431 922 
Q 2431 1156 2273 1281 
Q 2116 1406 1581 1522 
L 1381 1569 
Q 847 1681 609 1914 
Q 372 2147 372 2553 
Q 372 3047 722 3315 
Q 1072 3584 1716 3584 
Q 2034 3584 2315 3537 
Q 2597 3491 2834 3397 
z
" transform="scale(0.015625)"/>
      </defs>
      <use xlink:href="#DejaVuSans-28"/>
      <use xlink:href="#DejaVuSans-61" x="39.013672"/>
      <use xlink:href="#DejaVuSans-76" x="100.292969"/>
      <use xlink:href="#DejaVuSans-67" x="159.472656"/>
      <use xlink:href="#DejaVuSans-2e" x="222.949219"/>
      <use xlink:href="#DejaVuSans-20" x="254.736328"/>
      <use xlink:href="#DejaVuSans-4d" x="286.523438"/>
      <use xlink:href="#DejaVuSans-3d" x="372.802734"/>
      <use xlink:href="#DejaVuSans-34" x="456.591797"/>
      <use xlink:href="#DejaVuSans-29" x="520.214844"/>
      <use xlink:href="#DejaVuSans-20" x="559.228516"/>
      <use xlink:href="#DejaVuSans-70" x="591.015625"/>
      <use xlink:href="#DejaVuSans-72" x="654.492188"/>
      <use xlink:href="#DejaVuSans-65" x="693.355469"/>
      <use xlink:href="#DejaVuSans-73" x="754.878906"/>
      <use xlink:href="#DejaVuSans-73" x="806.978516"/>
      <use xlink:href="#DejaVuSans-75" x="859.078125"/>
      <use xlink:href="#DejaVuSans-72" x="922.457031"/>
      <use xlink:href="#DejaVuSans-65" x="961.320312"/>
      <use xlink:href="#DejaVuSans-20" x="1022.84375"/>
      <use xlink:href="#DejaVuSans-69" x="1054.630859"/>
      <use xlink:href="#DejaVuSans-6e" x="1082.414062"/>
      <use xlink:href="#DejaVuSans-20" x="1145.792969"/>
      <use xlink:href="#DejaVuSans-61" x="1177.580078"/>
      <use xlink:href="#DejaVuSans-2e" x="1238.859375"/>
      <use xlink:href="#DejaVuSans-75" x="1270.646484"/>
      <use xlink:href="#DejaVuSans-2e" x="1334.025391"/>
     </g>
    </g>
   </g>
   <g id="line2d_30">
    <path d="M 69.008726 593.053735 
L 69.605907 618.809112 
L 70.203088 626.065781 
L 70.80027 625.810483 
L 71.397451 624.31492 
L 71.994633 622.288034 
L 72.591814 621.231584 
L 73.786177 621.318654 
L 74.98054 617.57577 
L 75.577721 616.426714 
L 76.174903 613.077407 
L 77.369265 603.472472 
L 77.966447 600.659291 
L 78.563628 600.627556 
L 79.16081 602.650419 
L 79.757991 603.138676 
L 80.355172 602.176735 
L 80.952354 600.792597 
L 82.146717 602.232093 
L 82.743898 600.386494 
L 84.535442 591.947628 
L 85.132624 593.719644 
L 86.326987 603.948261 
L 88.118531 615.901803 
L 89.312894 626.062291 
L 89.910075 626.929479 
L 90.507256 623.441526 
L 91.701619 610.44774 
L 93.493163 593.249473 
L 94.090345 587.676504 
L 94.687526 583.229302 
L 95.284708 584.032139 
L 96.47907 594.069302 
L 98.867796 608.993021 
L 99.464978 612.093978 
L 100.062159 613.470069 
L 100.65934 613.64405 
L 101.256522 612.871598 
L 101.853703 610.98532 
L 102.450885 607.222001 
L 104.242429 598.704558 
L 105.436792 596.073179 
L 106.033973 594.162899 
L 106.631154 593.280594 
L 107.228336 592.79234 
L 107.825517 591.67368 
L 108.422699 592.447897 
L 109.01988 594.008972 
L 109.617061 593.56081 
L 110.214243 592.271593 
L 110.811424 592.50593 
L 111.408606 594.126657 
L 112.005787 596.901749 
L 113.797331 608.400713 
L 114.991694 614.176299 
L 115.588876 616.043706 
L 116.186057 616.507194 
L 116.783238 613.637318 
L 119.171964 591.735823 
L 119.769145 588.389317 
L 120.366327 586.581546 
L 120.963508 586.480394 
L 121.56069 588.122219 
L 122.157871 589.179182 
L 122.755052 590.864259 
L 123.352234 594.810771 
L 125.143778 609.718218 
L 126.338141 616.050778 
L 126.935322 620.202074 
L 127.532504 623.099281 
L 128.129685 622.932302 
L 129.324048 619.407488 
L 129.921229 617.988546 
L 130.518411 616.141973 
L 131.115592 615.181766 
L 131.712774 614.460884 
L 132.907136 613.475746 
L 133.504318 611.553782 
L 134.698681 606.29121 
L 135.893043 602.692579 
L 136.490225 602.167627 
L 137.087406 602.413201 
L 137.684588 603.007787 
L 138.281769 603.944349 
L 138.878951 604.524536 
L 139.476132 605.742723 
L 140.670495 610.822427 
L 141.267676 610.337694 
L 141.864858 608.352104 
L 142.462039 607.888666 
L 143.656402 610.778288 
L 144.253583 609.802241 
L 145.447946 604.476693 
L 146.642309 601.358962 
L 147.23949 599.113001 
L 147.836672 595.135114 
L 148.433853 590.289478 
L 149.031034 588.373325 
L 149.628216 588.639004 
L 150.225397 590.069302 
L 151.41976 596.685124 
L 152.016942 598.507072 
L 152.614123 601.011117 
L 153.211304 605.895477 
L 153.808486 609.380671 
L 154.405667 610.280946 
L 155.002849 610.764299 
L 156.197211 609.915022 
L 156.794393 610.616261 
L 157.391574 610.705429 
L 157.988756 609.166337 
L 158.585937 607.022184 
L 159.183118 606.39136 
L 159.7803 605.22008 
L 160.377481 602.701535 
L 160.974663 599.286698 
L 161.571844 594.683222 
L 162.169025 588.005593 
L 162.766207 583.715793 
L 163.363388 581.315432 
L 163.96057 580.111914 
L 164.557751 581.155756 
L 165.154933 586.022564 
L 165.752114 592.547335 
L 168.14084 611.816029 
L 168.738021 613.274562 
L 169.335202 610.760274 
L 170.529565 604.363723 
L 171.126747 604.24102 
L 171.723928 606.344086 
L 172.321109 607.191016 
L 172.918291 606.840825 
L 173.515472 605.766419 
L 174.112654 606.72614 
L 174.709835 608.838353 
L 175.307016 611.854965 
L 175.904198 615.831859 
L 176.501379 617.80785 
L 177.098561 617.50115 
L 177.695742 615.140757 
L 178.292924 613.997162 
L 178.890105 611.692479 
L 180.084468 600.413241 
L 180.681649 592.882078 
L 181.278831 587.383797 
L 181.876012 584.856514 
L 182.473193 585.668131 
L 183.070375 588.486059 
L 184.264738 598.931951 
L 184.861919 602.003881 
L 185.4591 603.315122 
L 186.056282 605.647084 
L 187.250645 613.355021 
L 187.847826 615.609007 
L 188.445007 616.038228 
L 189.042189 615.491268 
L 189.63937 615.102937 
L 190.236552 613.467474 
L 192.625277 589.017114 
L 193.222459 585.166525 
L 193.81964 583.453241 
L 194.416822 584.783974 
L 195.014003 589.737002 
L 196.208366 602.363012 
L 197.99991 614.829553 
L 198.597091 616.565076 
L 199.194273 614.607615 
L 199.791454 611.026171 
L 200.388636 608.582736 
L 200.985817 608.672012 
L 201.582999 607.181018 
L 202.777361 601.147369 
L 203.374543 599.597826 
L 203.971724 600.837561 
L 204.568906 602.94392 
L 205.166087 603.194867 
L 205.763268 599.820373 
L 206.957631 595.061777 
L 207.554813 594.863525 
L 208.151994 597.381941 
L 208.749175 598.888728 
L 209.346357 599.157939 
L 209.943538 600.229466 
L 211.137901 606.653845 
L 211.735082 610.196405 
L 212.332264 611.45815 
L 213.526627 608.013268 
L 214.123808 607.187267 
L 214.72099 605.582381 
L 215.915352 600.997325 
L 216.512534 599.546926 
L 217.109715 597.547571 
L 217.706897 596.742868 
L 218.304078 596.749058 
L 218.901259 597.603734 
L 220.692804 604.781456 
L 221.289985 605.218137 
L 221.887166 605.057728 
L 223.678711 603.498641 
L 224.873073 603.893534 
L 226.067436 601.70961 
L 226.664618 602.626101 
L 227.261799 602.589593 
L 228.456162 600.821212 
L 229.053343 600.391126 
L 229.650525 600.70945 
L 230.247706 602.550241 
L 230.844888 603.705787 
L 231.442069 603.264692 
L 232.636432 606.800095 
L 233.233613 607.648322 
L 233.830795 607.38875 
L 234.427976 606.890739 
L 235.025157 605.081615 
L 235.622339 604.655046 
L 236.21952 604.496221 
L 236.816702 604.697833 
L 237.413883 605.591253 
L 239.205427 609.580569 
L 240.996972 619.843077 
L 241.594153 619.619154 
L 242.191334 618.453745 
L 242.788516 616.372917 
L 243.385697 612.801346 
L 243.982879 607.910015 
L 244.58006 601.979993 
L 245.177241 598.017626 
L 245.774423 595.065023 
L 246.371604 592.751645 
L 246.968786 589.105521 
L 247.565967 586.644896 
L 248.163148 587.208893 
L 248.76033 589.188979 
L 249.357511 590.560039 
L 249.954693 590.314906 
L 250.551874 591.107835 
L 251.149055 593.85373 
L 251.746237 598.304833 
L 252.343418 601.894071 
L 253.537781 605.397945 
L 255.329325 612.660243 
L 256.523688 615.13012 
L 257.718051 618.270901 
L 258.315232 618.599872 
L 258.912414 617.507532 
L 259.509595 613.790271 
L 260.106777 610.800073 
L 260.703958 609.152511 
L 261.301139 608.150784 
L 261.898321 606.869265 
L 262.495502 604.613985 
L 263.092684 604.043568 
L 263.689865 604.5604 
L 264.287046 606.551187 
L 264.884228 608.02252 
L 266.078591 610.229202 
L 266.675772 611.177029 
L 267.272954 610.532853 
L 267.870135 607.622644 
L 268.467316 606.247707 
L 269.064498 606.588446 
L 269.661679 606.337773 
L 270.258861 604.816452 
L 270.856042 602.696682 
L 271.453223 601.405895 
L 272.050405 603.148296 
L 272.647586 606.17491 
L 273.244768 607.189793 
L 273.841949 607.564575 
L 274.43913 606.645294 
L 275.036312 604.936708 
L 275.633493 602.497089 
L 276.827856 600.166055 
L 277.425037 599.965868 
L 278.022219 601.575503 
L 278.6194 603.518029 
L 280.410945 613.26355 
L 281.008126 614.333745 
L 281.605307 614.832723 
L 282.202489 615.674289 
L 282.79967 615.781028 
L 283.396852 613.130923 
L 284.591214 605.801635 
L 285.188396 603.507462 
L 286.382759 600.071233 
L 286.97994 600.991339 
L 287.577121 602.685681 
L 288.174303 604.856215 
L 289.368666 608.291284 
L 290.563028 614.635503 
L 291.16021 618.525004 
L 291.757391 619.946066 
L 292.951754 620.909611 
L 293.548936 621.739741 
L 294.146117 622.273029 
L 294.743298 620.411764 
L 295.937661 612.254661 
L 297.729205 599.327253 
L 298.326387 595.059874 
L 298.923568 592.868579 
L 299.52075 593.183961 
L 300.715112 598.689961 
L 301.312294 599.218525 
L 301.909475 599.005301 
L 302.506657 600.740066 
L 303.103838 604.356072 
L 303.701019 606.36072 
L 305.492564 610.493684 
L 306.089745 612.752602 
L 306.686927 615.889911 
L 307.284108 616.254592 
L 308.478471 611.166063 
L 309.075652 609.570216 
L 309.672834 606.765033 
L 310.270015 602.862335 
L 311.464378 598.351168 
L 312.061559 596.644595 
L 312.658741 596.94425 
L 313.255922 596.913103 
L 313.853103 596.153299 
L 315.644648 591.513469 
L 316.241829 591.282263 
L 316.83901 594.05032 
L 318.033373 601.649882 
L 318.630555 605.079996 
L 319.824918 617.062254 
L 320.422099 621.029297 
L 321.01928 621.891802 
L 321.616462 619.588665 
L 322.213643 616.394103 
L 322.810825 614.165937 
L 324.005187 608.109467 
L 324.602369 608.388134 
L 325.19955 611.231395 
L 326.393913 620.206019 
L 326.991094 622.738799 
L 328.185457 621.324182 
L 328.782639 621.475956 
L 329.37982 619.637442 
L 329.977001 617.062616 
L 330.574183 615.189283 
L 331.171364 614.054399 
L 332.365727 610.197165 
L 332.962909 609.738755 
L 333.56009 606.897011 
L 334.754453 597.98585 
L 335.351634 594.778866 
L 335.948816 593.378852 
L 336.545997 595.235089 
L 337.143178 599.645267 
L 338.337541 603.885851 
L 338.934723 605.290334 
L 339.531904 605.29089 
L 340.129085 603.841473 
L 341.92063 596.131236 
L 342.517811 597.789877 
L 343.114993 601.66866 
L 344.309355 612.643827 
L 344.906537 615.997984 
L 345.503718 618.654017 
L 346.1009 621.861418 
L 346.698081 623.738569 
L 347.295262 621.742527 
L 349.086807 611.798671 
L 349.683988 611.332422 
L 350.281169 612.624292 
L 350.878351 612.725879 
L 351.475532 611.215762 
L 352.072714 608.979741 
L 352.669895 607.973302 
L 353.267076 608.727924 
L 353.864258 608.628366 
L 354.461439 606.893575 
L 355.058621 605.849945 
L 355.655802 606.323519 
L 356.252984 607.662629 
L 356.850165 609.868706 
L 357.447346 610.119218 
L 358.044528 609.804535 
L 358.641709 610.841908 
L 359.238891 613.064092 
L 359.836072 612.84519 
L 360.433253 610.228868 
L 361.030435 608.845207 
L 361.627616 608.507144 
L 362.821979 610.459204 
L 363.41916 610.932479 
L 364.016342 610.708661 
L 364.613523 610.727869 
L 365.210705 611.664372 
L 366.405067 612.911469 
L 367.002249 612.505522 
L 367.59943 609.818479 
L 368.793793 602.326063 
L 369.390975 600.46042 
L 369.988156 599.372932 
L 371.182519 596.223087 
L 371.7797 597.369837 
L 372.376882 601.445925 
L 373.571244 612.338971 
L 374.168426 615.411152 
L 374.765607 616.893828 
L 375.362789 618.932051 
L 375.95997 620.439847 
L 376.557151 618.674947 
L 377.154333 613.930637 
L 377.751514 608.099808 
L 378.348696 603.974996 
L 378.945877 601.730094 
L 379.543058 599.959859 
L 380.737421 592.454563 
L 381.334603 590.896374 
L 381.931784 593.815039 
L 383.126147 602.999122 
L 384.32051 610.888997 
L 384.917691 616.187205 
L 385.514873 620.360193 
L 386.112054 623.091358 
L 386.709235 622.395102 
L 387.306417 619.571024 
L 388.50078 612.192312 
L 389.097961 610.14469 
L 389.695142 609.550818 
L 390.292324 610.399246 
L 390.889505 611.68877 
L 391.486687 612.223738 
L 392.083868 612.260197 
L 392.681049 613.223251 
L 393.278231 613.650648 
L 393.875412 612.743231 
L 395.666957 608.636473 
L 396.264138 608.226015 
L 396.861319 608.773706 
L 397.458501 607.616532 
L 398.652864 600.101819 
L 399.250045 598.077069 
L 399.847226 598.128789 
L 400.444408 597.809821 
L 401.638771 595.421607 
L 402.235952 596.618151 
L 403.430315 607.257734 
L 404.027496 610.037722 
L 404.624678 611.501079 
L 405.221859 612.499934 
L 405.81904 613.913934 
L 406.416222 616.340429 
L 407.013403 617.954522 
L 408.207766 616.454147 
L 408.804948 616.819887 
L 409.402129 615.99475 
L 409.99931 614.482838 
L 410.596492 613.321408 
L 411.193673 611.439503 
L 411.790855 609.068337 
L 412.388036 608.150175 
L 414.17958 608.653788 
L 414.776762 610.328245 
L 415.971124 618.677289 
L 416.568306 621.796717 
L 417.165487 624.054076 
L 417.762669 625.873069 
L 418.35985 625.959358 
L 418.957031 623.822517 
L 419.554213 619.633033 
L 420.151394 611.787531 
L 420.748576 602.003701 
L 422.54012 580.426615 
L 423.137301 576.29721 
L 423.734483 576.886484 
L 424.331664 580.161123 
L 424.928846 584.359886 
L 426.123208 593.950777 
L 426.72039 597.726389 
L 427.914753 608.349709 
L 428.511934 611.319113 
L 429.109115 613.456083 
L 429.706297 616.710821 
L 430.90066 625.018936 
L 431.497841 627.517753 
L 432.095022 627.702661 
L 432.692204 625.567179 
L 433.289385 622.396705 
L 433.886567 618.035244 
L 435.08093 607.97408 
L 435.678111 603.811741 
L 436.275292 600.788086 
L 436.872474 598.921551 
L 438.066837 594.48475 
L 438.664018 595.425174 
L 439.261199 595.763856 
L 440.455562 590.545082 
L 441.052744 586.992568 
L 441.649925 584.28957 
L 442.247106 583.81951 
L 442.844288 584.681099 
L 444.038651 581.223756 
L 444.635832 582.417513 
L 445.233013 584.984573 
L 445.830195 589.103093 
L 446.427376 594.051706 
L 447.024558 597.843586 
L 447.621739 598.577448 
L 448.218921 597.909031 
L 448.816102 598.580948 
L 449.413283 599.53381 
L 450.010465 600.108495 
L 450.607646 601.240615 
L 451.204828 601.990317 
L 451.802009 604.023424 
L 452.996372 611.306852 
L 453.593553 611.119035 
L 454.190735 610.004928 
L 454.787916 610.591461 
L 455.385097 610.712031 
L 455.982279 609.491625 
L 457.176642 605.040066 
L 457.773823 604.92231 
L 458.371004 608.342204 
L 458.968186 613.065831 
L 459.565367 615.78318 
L 460.162549 617.168598 
L 461.356912 618.357325 
L 461.954093 618.467559 
L 461.954093 618.467559 
" clip-path="url(#p60ed19de9a)" style="fill: none; stroke: #1f77b4; stroke-width: 1.5; stroke-linecap: square"/>
   </g>
   <g id="line2d_31">
    <path d="M 66.62 605.550279 
L 464.94 605.550279 
" clip-path="url(#p60ed19de9a)" style="fill: none; stroke: #ff0000; stroke-opacity: 0.3; stroke-width: 1.5; stroke-linecap: square"/>
   </g>
   <g id="patch_8">
    <path d="M 66.62 667.24 
L 66.62 385.08 
" style="fill: none; stroke: #000000; stroke-width: 0.8; stroke-linejoin: miter; stroke-linecap: square"/>
   </g>
   <g id="patch_9">
    <path d="M 464.94 667.24 
L 464.94 385.08 
" style="fill: none; stroke: #000000; stroke-width: 0.8; stroke-linejoin: miter; stroke-linecap: square"/>
   </g>
   <g id="patch_10">
    <path d="M 66.62 667.24 
L 464.94 667.24 
" style="fill: none; stroke: #000000; stroke-width: 0.8; stroke-linejoin: miter; stroke-linecap: square"/>
   </g>
   <g id="patch_11">
    <path d="M 66.62 385.08 
L 464.94 385.08 
" style="fill: none; stroke: #000000; stroke-width: 0.8; stroke-linejoin: miter; stroke-linecap: square"/>
   </g>
   <g id="text_33">
    <!-- Pressure -->
    <g transform="translate(228.89665 379.08) scale(0.1728 -0.1728)">
     <defs>
      <path id="DejaVuSans-50" d="M 1259 4147 
L 1259 2394 
L 2053 2394 
Q 2494 2394 2734 2622 
Q 2975 2850 2975 3272 
Q 2975 3691 2734 3919 
Q 2494 4147 2053 4147 
L 1259 4147 
z
M 628 4666 
L 2053 4666 
Q 2838 4666 3239 4311 
Q 3641 3956 3641 3272 
Q 3641 2581 3239 2228 
Q 2838 1875 2053 1875 
L 1259 1875 
L 1259 0 
L 628 0 
L 628 4666 
z
" transform="scale(0.015625)"/>
     </defs>
     <use xlink:href="#DejaVuSans-50"/>
     <use xlink:href="#DejaVuSans-72" x="58.552734"/>
     <use xlink:href="#DejaVuSans-65" x="97.416016"/>
     <use xlink:href="#DejaVuSans-73" x="158.939453"/>
     <use xlink:href="#DejaVuSans-73" x="211.039062"/>
     <use xlink:href="#DejaVuSans-75" x="263.138672"/>
     <use xlink:href="#DejaVuSans-72" x="326.517578"/>
     <use xlink:href="#DejaVuSans-65" x="365.380859"/>
    </g>
   </g>
  </g>
  <g id="axes_3">
   <g id="patch_12">
    <path d="M 526.88 667.24 
L 925.2 667.24 
L 925.2 385.08 
L 526.88 385.08 
z
" style="fill: #ffffff"/>
   </g>
   <g id="matplotlib.axis_5">
    <g id="xtick_15">
     <g id="line2d_32">
      <g>
       <use xlink:href="#m7bab1ea55d" x="526.88" y="667.24" style="stroke: #000000; stroke-width: 0.8"/>
      </g>
     </g>
     <g id="text_34">
      <!-- 0 -->
      <g transform="translate(522.299 685.18175) scale(0.144 -0.144)">
       <use xlink:href="#DejaVuSans-30"/>
      </g>
     </g>
    </g>
    <g id="xtick_16">
     <g id="line2d_33">
      <g>
       <use xlink:href="#m7bab1ea55d" x="586.598141" y="667.24" style="stroke: #000000; stroke-width: 0.8"/>
      </g>
     </g>
     <g id="text_35">
      <!-- 1 -->
      <g transform="translate(582.017141 685.18175) scale(0.144 -0.144)">
       <use xlink:href="#DejaVuSans-31"/>
      </g>
     </g>
    </g>
    <g id="xtick_17">
     <g id="line2d_34">
      <g>
       <use xlink:href="#m7bab1ea55d" x="646.316282" y="667.24" style="stroke: #000000; stroke-width: 0.8"/>
      </g>
     </g>
     <g id="text_36">
      <!-- 2 -->
      <g transform="translate(641.735282 685.18175) scale(0.144 -0.144)">
       <use xlink:href="#DejaVuSans-32"/>
      </g>
     </g>
    </g>
    <g id="xtick_18">
     <g id="line2d_35">
      <g>
       <use xlink:href="#m7bab1ea55d" x="706.034423" y="667.24" style="stroke: #000000; stroke-width: 0.8"/>
      </g>
     </g>
     <g id="text_37">
      <!-- 3 -->
      <g transform="translate(701.453423 685.18175) scale(0.144 -0.144)">
       <use xlink:href="#DejaVuSans-33"/>
      </g>
     </g>
    </g>
    <g id="xtick_19">
     <g id="line2d_36">
      <g>
       <use xlink:href="#m7bab1ea55d" x="765.752564" y="667.24" style="stroke: #000000; stroke-width: 0.8"/>
      </g>
     </g>
     <g id="text_38">
      <!-- 4 -->
      <g transform="translate(761.171564 685.18175) scale(0.144 -0.144)">
       <use xlink:href="#DejaVuSans-34"/>
      </g>
     </g>
    </g>
    <g id="xtick_20">
     <g id="line2d_37">
      <g>
       <use xlink:href="#m7bab1ea55d" x="825.470705" y="667.24" style="stroke: #000000; stroke-width: 0.8"/>
      </g>
     </g>
     <g id="text_39">
      <!-- 5 -->
      <g transform="translate(820.889705 685.18175) scale(0.144 -0.144)">
       <use xlink:href="#DejaVuSans-35"/>
      </g>
     </g>
    </g>
    <g id="xtick_21">
     <g id="line2d_38">
      <g>
       <use xlink:href="#m7bab1ea55d" x="885.188846" y="667.24" style="stroke: #000000; stroke-width: 0.8"/>
      </g>
     </g>
     <g id="text_40">
      <!-- 6 -->
      <g transform="translate(880.607846 685.18175) scale(0.144 -0.144)">
       <use xlink:href="#DejaVuSans-36"/>
      </g>
     </g>
    </g>
    <g id="text_41">
     <!-- time in a.u. -->
     <g transform="translate(676.89055 705.3066) scale(0.1728 -0.1728)">
      <use xlink:href="#DejaVuSans-74"/>
      <use xlink:href="#DejaVuSans-69" x="39.208984"/>
      <use xlink:href="#DejaVuSans-6d" x="66.992188"/>
      <use xlink:href="#DejaVuSans-65" x="164.404297"/>
      <use xlink:href="#DejaVuSans-20" x="225.927734"/>
      <use xlink:href="#DejaVuSans-69" x="257.714844"/>
      <use xlink:href="#DejaVuSans-6e" x="285.498047"/>
      <use xlink:href="#DejaVuSans-20" x="348.876953"/>
      <use xlink:href="#DejaVuSans-61" x="380.664062"/>
      <use xlink:href="#DejaVuSans-2e" x="441.943359"/>
      <use xlink:href="#DejaVuSans-75" x="473.730469"/>
      <use xlink:href="#DejaVuSans-2e" x="537.109375"/>
     </g>
    </g>
   </g>
   <g id="matplotlib.axis_6">
    <g id="ytick_14">
     <g id="line2d_39">
      <g>
       <use xlink:href="#mda3f8b6958" x="526.88" y="620.759836" style="stroke: #000000; stroke-width: 0.8"/>
      </g>
     </g>
     <g id="text_42">
      <!-- 1.0 -->
      <g transform="translate(496.9795 626.230711) scale(0.144 -0.144)">
       <use xlink:href="#DejaVuSans-31"/>
       <use xlink:href="#DejaVuSans-2e" x="63.623047"/>
       <use xlink:href="#DejaVuSans-30" x="95.410156"/>
      </g>
     </g>
    </g>
    <g id="ytick_15">
     <g id="line2d_40">
      <g>
       <use xlink:href="#mda3f8b6958" x="526.88" y="570.832959" style="stroke: #000000; stroke-width: 0.8"/>
      </g>
     </g>
     <g id="text_43">
      <!-- 1.2 -->
      <g transform="translate(496.9795 576.303834) scale(0.144 -0.144)">
       <use xlink:href="#DejaVuSans-31"/>
       <use xlink:href="#DejaVuSans-2e" x="63.623047"/>
       <use xlink:href="#DejaVuSans-32" x="95.410156"/>
      </g>
     </g>
    </g>
    <g id="ytick_16">
     <g id="line2d_41">
      <g>
       <use xlink:href="#mda3f8b6958" x="526.88" y="520.906082" style="stroke: #000000; stroke-width: 0.8"/>
      </g>
     </g>
     <g id="text_44">
      <!-- 1.4 -->
      <g transform="translate(496.9795 526.376957) scale(0.144 -0.144)">
       <use xlink:href="#DejaVuSans-31"/>
       <use xlink:href="#DejaVuSans-2e" x="63.623047"/>
       <use xlink:href="#DejaVuSans-34" x="95.410156"/>
      </g>
     </g>
    </g>
    <g id="ytick_17">
     <g id="line2d_42">
      <g>
       <use xlink:href="#mda3f8b6958" x="526.88" y="470.979205" style="stroke: #000000; stroke-width: 0.8"/>
      </g>
     </g>
     <g id="text_45">
      <!-- 1.6 -->
      <g transform="translate(496.9795 476.45008) scale(0.144 -0.144)">
       <use xlink:href="#DejaVuSans-31"/>
       <use xlink:href="#DejaVuSans-2e" x="63.623047"/>
       <use xlink:href="#DejaVuSans-36" x="95.410156"/>
      </g>
     </g>
    </g>
    <g id="ytick_18">
     <g id="line2d_43">
      <g>
       <use xlink:href="#mda3f8b6958" x="526.88" y="421.052328" style="stroke: #000000; stroke-width: 0.8"/>
      </g>
     </g>
     <g id="text_46">
      <!-- 1.8 -->
      <g transform="translate(496.9795 426.523203) scale(0.144 -0.144)">
       <use xlink:href="#DejaVuSans-31"/>
       <use xlink:href="#DejaVuSans-2e" x="63.623047"/>
       <use xlink:href="#DejaVuSans-38" x="95.410156"/>
      </g>
     </g>
    </g>
    <g id="text_47">
     <!-- (avg. M=4) temperature in a.u. -->
     <g transform="translate(489.3858 661.15865) rotate(-90) scale(0.1728 -0.1728)">
      <use xlink:href="#DejaVuSans-28"/>
      <use xlink:href="#DejaVuSans-61" x="39.013672"/>
      <use xlink:href="#DejaVuSans-76" x="100.292969"/>
      <use xlink:href="#DejaVuSans-67" x="159.472656"/>
      <use xlink:href="#DejaVuSans-2e" x="222.949219"/>
      <use xlink:href="#DejaVuSans-20" x="254.736328"/>
      <use xlink:href="#DejaVuSans-4d" x="286.523438"/>
      <use xlink:href="#DejaVuSans-3d" x="372.802734"/>
      <use xlink:href="#DejaVuSans-34" x="456.591797"/>
      <use xlink:href="#DejaVuSans-29" x="520.214844"/>
      <use xlink:href="#DejaVuSans-20" x="559.228516"/>
      <use xlink:href="#DejaVuSans-74" x="591.015625"/>
      <use xlink:href="#DejaVuSans-65" x="630.224609"/>
      <use xlink:href="#DejaVuSans-6d" x="691.748047"/>
      <use xlink:href="#DejaVuSans-70" x="789.160156"/>
      <use xlink:href="#DejaVuSans-65" x="852.636719"/>
      <use xlink:href="#DejaVuSans-72" x="914.160156"/>
      <use xlink:href="#DejaVuSans-61" x="955.273438"/>
      <use xlink:href="#DejaVuSans-74" x="1016.552734"/>
      <use xlink:href="#DejaVuSans-75" x="1055.761719"/>
      <use xlink:href="#DejaVuSans-72" x="1119.140625"/>
      <use xlink:href="#DejaVuSans-65" x="1158.003906"/>
      <use xlink:href="#DejaVuSans-20" x="1219.527344"/>
      <use xlink:href="#DejaVuSans-69" x="1251.314453"/>
      <use xlink:href="#DejaVuSans-6e" x="1279.097656"/>
      <use xlink:href="#DejaVuSans-20" x="1342.476562"/>
      <use xlink:href="#DejaVuSans-61" x="1374.263672"/>
      <use xlink:href="#DejaVuSans-2e" x="1435.542969"/>
      <use xlink:href="#DejaVuSans-75" x="1467.330078"/>
      <use xlink:href="#DejaVuSans-2e" x="1530.708984"/>
     </g>
    </g>
   </g>
   <g id="line2d_44">
    <path d="M 529.268726 587.322876 
L 529.865907 614.71647 
L 530.463088 626.291764 
L 531.06027 629.025136 
L 531.657451 627.31828 
L 532.254633 626.167327 
L 533.448996 622.209097 
L 534.046177 621.338529 
L 534.643358 622.2428 
L 535.24054 621.509341 
L 535.837721 619.832529 
L 536.434903 621.318449 
L 537.032084 622.067423 
L 537.629265 621.733673 
L 538.226447 620.216187 
L 538.823628 618.140678 
L 539.42081 616.631965 
L 540.017991 618.467252 
L 540.615172 619.877109 
L 541.212354 620.411061 
L 541.809535 618.343811 
L 542.406717 618.626319 
L 543.003898 620.93049 
L 543.601079 621.789156 
L 544.198261 622.352939 
L 544.795442 622.405836 
L 545.989805 617.045162 
L 546.586987 618.661669 
L 547.184168 619.759548 
L 547.781349 619.564925 
L 548.378531 619.64669 
L 548.975712 618.608956 
L 549.572894 617.235705 
L 550.170075 620.195609 
L 551.364438 624.4667 
L 551.961619 622.548312 
L 552.558801 622.559991 
L 553.155982 622.433127 
L 553.753163 621.958872 
L 554.350345 623.149985 
L 554.947526 623.35318 
L 555.544708 619.932712 
L 556.141889 617.304647 
L 556.73907 619.18232 
L 557.336252 620.488847 
L 557.933433 620.012712 
L 558.530615 621.095506 
L 559.724978 620.354068 
L 560.322159 621.116236 
L 560.91934 621.108433 
L 561.516522 620.840547 
L 562.113703 620.765512 
L 562.710885 621.74083 
L 563.308066 620.206369 
L 563.905247 620.597396 
L 564.502429 620.435531 
L 565.09961 619.23139 
L 565.696792 619.597932 
L 566.293973 620.478077 
L 566.891154 619.878465 
L 567.488336 620.081782 
L 568.085517 621.290251 
L 568.682699 619.912235 
L 569.27988 619.731823 
L 569.877061 622.18016 
L 570.474243 623.363332 
L 571.071424 622.449038 
L 572.265787 621.309981 
L 572.862969 620.236661 
L 573.46015 619.79059 
L 574.057331 619.800833 
L 574.654513 619.601809 
L 575.251694 618.520564 
L 576.446057 618.712139 
L 577.043238 620.881542 
L 577.64042 622.561722 
L 578.237601 622.527709 
L 579.431964 621.366079 
L 580.029145 621.260438 
L 581.223508 620.191113 
L 581.82069 619.430941 
L 582.417871 621.020932 
L 583.015052 621.249194 
L 583.612234 619.820589 
L 584.209415 619.451202 
L 584.806597 619.357648 
L 585.403778 619.651481 
L 586.00096 620.464455 
L 586.598141 619.943481 
L 587.195322 618.148973 
L 587.792504 618.635703 
L 588.389685 620.693666 
L 588.986867 621.45375 
L 589.584048 620.448147 
L 590.181229 619.961314 
L 590.778411 620.205525 
L 591.375592 619.159615 
L 591.972774 618.90961 
L 592.569955 618.484349 
L 593.167136 618.361362 
L 593.764318 619.505999 
L 594.361499 620.38532 
L 595.555862 620.293038 
L 596.153043 621.331627 
L 596.750225 620.888039 
L 597.347406 621.163612 
L 597.944588 621.700776 
L 598.541769 622.017533 
L 599.138951 622.913187 
L 599.736132 622.626863 
L 600.333313 621.176239 
L 600.930495 621.225956 
L 601.527676 623.246029 
L 602.124858 623.889662 
L 603.31922 619.68563 
L 603.916402 619.428486 
L 604.513583 620.930638 
L 605.110765 621.815092 
L 605.707946 621.26861 
L 606.305127 619.81817 
L 606.902309 619.862737 
L 607.49949 620.143263 
L 608.096672 621.748334 
L 608.693853 622.800726 
L 609.291034 620.47883 
L 609.888216 619.393083 
L 610.485397 619.286491 
L 611.082579 618.544447 
L 611.67976 618.69403 
L 612.276942 620.912992 
L 612.874123 620.459591 
L 613.471304 618.334895 
L 614.068486 619.819075 
L 614.665667 621.948823 
L 615.262849 621.736045 
L 615.86003 622.209861 
L 616.457211 621.555164 
L 617.054393 619.821701 
L 617.651574 619.718076 
L 618.248756 620.44568 
L 618.845937 620.268093 
L 619.443118 618.206595 
L 620.0403 618.485314 
L 620.637481 619.543435 
L 621.234663 620.207988 
L 621.831844 621.358929 
L 622.429025 623.825398 
L 623.026207 622.305145 
L 623.623388 622.00304 
L 624.22057 622.51358 
L 624.817751 621.917478 
L 625.414933 619.493117 
L 626.012114 618.855662 
L 626.609295 620.916897 
L 627.206477 619.902966 
L 627.803658 620.854842 
L 628.40084 620.913081 
L 628.998021 622.370455 
L 629.595202 625.356619 
L 630.192384 625.406252 
L 630.789565 625.218917 
L 631.386747 622.637242 
L 631.983928 620.820406 
L 632.581109 621.987815 
L 633.178291 622.576643 
L 633.775472 622.855538 
L 634.372654 620.542463 
L 635.567016 618.632935 
L 636.164198 617.260477 
L 637.955742 620.734712 
L 638.552924 618.734642 
L 639.150105 619.385278 
L 639.747286 621.722279 
L 640.344468 621.758038 
L 640.941649 623.68191 
L 642.136012 621.229194 
L 642.733193 619.736314 
L 643.330375 619.373198 
L 643.927556 618.447071 
L 644.524738 618.349306 
L 645.121919 621.020853 
L 645.7191 622.600021 
L 646.316282 621.494816 
L 646.913463 620.085377 
L 647.510645 619.456389 
L 648.705007 621.211678 
L 649.302189 621.112098 
L 649.89937 619.774572 
L 650.496552 619.714312 
L 651.093733 623.12661 
L 651.690915 623.434123 
L 652.885277 621.814652 
L 653.482459 622.624716 
L 654.07964 621.937592 
L 654.676822 620.537903 
L 655.274003 618.422083 
L 655.871184 617.529153 
L 657.065547 620.263084 
L 657.662729 620.101906 
L 658.25991 618.284189 
L 658.857091 620.427448 
L 659.454273 623.066238 
L 660.051454 623.951112 
L 660.648636 622.617389 
L 661.245817 620.099752 
L 661.842999 621.633901 
L 662.44018 622.663632 
L 663.037361 622.719062 
L 663.634543 621.40842 
L 664.231724 619.093792 
L 664.828906 618.571946 
L 665.426087 620.252075 
L 666.023268 623.514152 
L 666.62045 622.375863 
L 667.217631 622.467027 
L 667.814813 621.070001 
L 668.411994 618.991237 
L 669.606357 621.625055 
L 670.203538 620.86233 
L 670.80072 618.963117 
L 671.397901 618.783324 
L 671.995082 618.049351 
L 672.592264 619.492397 
L 673.189445 621.681742 
L 674.383808 619.573405 
L 675.578171 620.463236 
L 676.175352 620.00585 
L 676.772534 619.28338 
L 677.369715 620.168493 
L 677.966897 619.42544 
L 679.161259 619.398653 
L 679.758441 618.497586 
L 680.952804 619.363241 
L 681.549985 620.988678 
L 682.147166 621.296373 
L 682.744348 621.379254 
L 683.341529 621.210499 
L 683.938711 620.774695 
L 684.535892 620.130376 
L 685.133073 620.334596 
L 685.730255 621.906574 
L 686.327436 621.907575 
L 686.924618 620.085729 
L 687.521799 621.137962 
L 688.118981 621.955483 
L 689.313343 621.519165 
L 689.910525 620.930576 
L 690.507706 619.546761 
L 691.104888 620.455688 
L 691.702069 622.302997 
L 692.29925 620.415556 
L 692.896432 620.374062 
L 694.090795 622.07093 
L 694.687976 621.939533 
L 695.285157 623.06285 
L 695.882339 621.416449 
L 696.47952 621.188646 
L 697.076702 620.837488 
L 697.673883 620.2119 
L 698.271064 619.86266 
L 698.868246 619.885455 
L 699.465427 620.718009 
L 700.062609 618.746771 
L 701.256972 618.228863 
L 701.854153 620.729101 
L 702.451334 620.38753 
L 703.048516 620.397269 
L 704.84006 622.375878 
L 705.437241 620.699477 
L 706.034423 620.50183 
L 706.631604 620.690746 
L 707.228786 622.921202 
L 707.825967 622.458761 
L 708.423148 620.314026 
L 709.02033 619.732293 
L 709.617511 620.740149 
L 710.214693 622.460748 
L 710.811874 621.666908 
L 712.006237 619.144427 
L 712.603418 620.293625 
L 713.2006 622.05668 
L 713.797781 621.962338 
L 714.394963 621.294826 
L 714.992144 620.883159 
L 716.186507 621.668667 
L 716.783688 621.034307 
L 717.978051 619.369965 
L 719.172414 620.274694 
L 719.769595 622.201265 
L 720.963958 619.92115 
L 721.561139 619.660125 
L 722.158321 620.339665 
L 722.755502 621.802536 
L 723.352684 620.613564 
L 723.949865 620.223186 
L 724.547046 619.156987 
L 725.144228 619.908963 
L 725.741409 620.06946 
L 726.338591 619.873671 
L 726.935772 619.522491 
L 727.532954 620.627105 
L 728.130135 622.570231 
L 729.324498 619.71031 
L 729.921679 620.652457 
L 730.518861 622.060811 
L 731.116042 622.947651 
L 731.713223 622.683802 
L 732.310405 620.312434 
L 732.907586 619.582105 
L 733.504768 621.647005 
L 734.101949 621.791772 
L 734.69913 622.655588 
L 735.296312 623.052124 
L 735.893493 623.681511 
L 736.490675 622.62971 
L 737.087856 622.790108 
L 737.685037 622.391199 
L 738.282219 621.047323 
L 738.8794 621.214959 
L 739.476582 620.054947 
L 740.073763 619.652208 
L 740.670945 619.830106 
L 741.268126 620.999735 
L 741.865307 620.852593 
L 742.462489 619.774812 
L 743.05967 619.730165 
L 743.656852 621.708306 
L 744.254033 622.139117 
L 744.851214 621.911092 
L 745.448396 620.963673 
L 746.045577 620.964712 
L 746.642759 621.790334 
L 747.23994 619.840935 
L 747.837121 619.855048 
L 748.434303 619.699296 
L 749.031484 620.426485 
L 749.628666 620.331294 
L 750.225847 619.381574 
L 750.823028 618.913989 
L 751.42021 618.092866 
L 752.017391 620.083366 
L 752.614573 620.436872 
L 753.211754 619.958315 
L 753.808936 619.254353 
L 754.406117 618.927961 
L 755.003298 620.530403 
L 755.60048 621.699653 
L 756.197661 621.758824 
L 756.794843 621.333849 
L 757.392024 621.87161 
L 757.989205 622.051815 
L 758.586387 622.655898 
L 759.183568 621.609606 
L 760.377931 618.998199 
L 760.975112 619.037834 
L 761.572294 621.565526 
L 762.169475 622.277959 
L 763.363838 618.877976 
L 763.961019 620.405085 
L 764.558201 620.498509 
L 765.155382 620.271801 
L 765.752564 620.417692 
L 766.946927 618.002152 
L 768.141289 622.609151 
L 769.335652 620.609873 
L 770.530015 622.513876 
L 771.127196 620.661308 
L 771.724378 620.79145 
L 772.321559 620.209634 
L 772.918741 618.263774 
L 774.113103 619.37091 
L 774.710285 620.063498 
L 775.307466 620.36463 
L 775.904648 621.292974 
L 776.501829 621.15278 
L 777.09901 619.593841 
L 777.696192 619.654322 
L 778.293373 621.10615 
L 778.890555 621.786552 
L 779.487736 619.64448 
L 780.084918 618.819817 
L 780.682099 620.010329 
L 781.876462 623.254512 
L 782.473643 623.035484 
L 783.070825 621.491826 
L 783.668006 622.415246 
L 784.265187 622.955539 
L 784.862369 620.750167 
L 786.056732 618.502177 
L 786.653913 618.867347 
L 787.251094 620.183742 
L 787.848276 622.665111 
L 788.445457 621.837597 
L 789.042639 620.241883 
L 789.63982 621.555256 
L 790.237001 621.490309 
L 791.431364 619.195992 
L 792.028546 619.821355 
L 792.625727 619.351348 
L 793.222909 617.789714 
L 793.82009 620.133017 
L 794.417271 621.774526 
L 795.014453 621.711568 
L 795.611634 621.503575 
L 796.208816 620.919838 
L 796.805997 618.992549 
L 797.403178 617.479302 
L 798.00036 620.124654 
L 798.597541 620.179059 
L 799.194723 620.354526 
L 800.389085 622.300061 
L 800.986267 623.432827 
L 801.583448 624.314955 
L 802.18063 624.246848 
L 802.777811 622.120604 
L 803.374993 621.414026 
L 803.972174 620.52938 
L 804.569355 621.307355 
L 805.166537 623.004973 
L 805.763718 623.089505 
L 806.3609 621.694124 
L 806.958081 621.866624 
L 807.555262 624.426002 
L 808.152444 624.658571 
L 808.749625 624.770499 
L 809.346807 623.861179 
L 809.943988 621.863417 
L 810.541169 620.259525 
L 811.735532 622.292836 
L 812.332714 622.531862 
L 812.929895 621.018888 
L 813.527076 619.083831 
L 814.124258 619.727799 
L 814.721439 621.100243 
L 815.318621 620.415538 
L 815.915802 619.290166 
L 816.512984 618.844086 
L 817.110165 618.159242 
L 817.707346 620.257604 
L 818.304528 620.760869 
L 819.498891 618.25898 
L 820.693253 622.305325 
L 821.290435 620.851632 
L 821.887616 620.123173 
L 822.484798 619.08869 
L 823.081979 619.159713 
L 824.276342 620.313457 
L 824.873523 620.007306 
L 825.470705 619.107607 
L 826.067886 619.428103 
L 826.665067 618.944237 
L 827.262249 619.479971 
L 827.85943 621.084732 
L 828.456612 621.729206 
L 829.053793 621.45633 
L 829.650975 620.056218 
L 830.248156 619.818393 
L 830.845337 620.980265 
L 831.442519 621.484404 
L 832.636882 618.335864 
L 833.234063 617.760795 
L 833.831244 618.259055 
L 834.428426 620.163397 
L 835.025607 621.12241 
L 835.622789 619.846112 
L 836.21997 619.445676 
L 837.414333 622.917291 
L 838.011514 623.218247 
L 839.205877 619.707959 
L 839.803058 619.397858 
L 840.40024 621.798025 
L 840.997421 621.955665 
L 841.594603 621.40155 
L 842.191784 618.711378 
L 842.788966 618.39056 
L 843.386147 620.006748 
L 843.983328 621.228973 
L 844.58051 621.304567 
L 845.177691 620.249511 
L 845.774873 621.005599 
L 846.372054 621.311257 
L 846.969235 623.34995 
L 847.566417 624.115852 
L 848.163598 624.388339 
L 848.76078 623.595057 
L 849.955142 621.326234 
L 850.552324 620.247271 
L 851.149505 619.979618 
L 851.746687 620.64275 
L 852.343868 620.828033 
L 852.941049 619.552554 
L 853.538231 619.752181 
L 854.135412 620.570037 
L 854.732594 620.518329 
L 855.329775 620.599753 
L 855.926957 620.311262 
L 856.524138 619.647883 
L 857.121319 618.594548 
L 857.718501 620.026575 
L 858.315682 622.061188 
L 858.912864 622.512892 
L 860.107226 619.893092 
L 860.704408 620.899851 
L 861.301589 622.234039 
L 861.898771 622.985029 
L 862.495952 621.541696 
L 863.093133 618.497537 
L 863.690315 618.592029 
L 864.287496 620.967464 
L 864.884678 621.535078 
L 865.481859 621.510791 
L 866.07904 620.8385 
L 866.676222 619.610608 
L 867.273403 620.067968 
L 867.870585 621.949443 
L 868.467766 621.354913 
L 869.064948 620.092622 
L 869.662129 621.216575 
L 870.25931 621.675677 
L 870.856492 621.192361 
L 872.050855 622.685169 
L 872.648036 621.641119 
L 873.245217 621.176012 
L 874.43958 622.176108 
L 875.036762 621.220918 
L 875.633943 619.298402 
L 876.231124 619.24286 
L 876.828306 619.832818 
L 877.425487 619.650092 
L 878.022669 618.770189 
L 878.61985 618.973864 
L 879.217031 619.350058 
L 879.814213 619.437424 
L 880.411394 621.492542 
L 881.008576 622.525857 
L 881.605757 620.469783 
L 882.202939 620.323761 
L 882.80012 623.108 
L 883.397301 620.968506 
L 883.994483 618.296436 
L 884.591664 617.604202 
L 885.188846 618.112747 
L 885.786027 618.037572 
L 886.98039 620.199979 
L 887.577571 618.408395 
L 888.174753 619.94578 
L 888.771934 621.82131 
L 889.369115 622.655228 
L 890.563478 620.320834 
L 891.16066 620.272255 
L 891.757841 620.468249 
L 892.952204 622.027646 
L 893.549385 621.82013 
L 894.743748 622.80813 
L 895.34093 622.373595 
L 895.938111 622.125379 
L 897.132474 620.944499 
L 897.729655 622.01884 
L 898.326837 622.355309 
L 898.924018 619.377495 
L 899.521199 619.881343 
L 900.118381 621.999467 
L 900.715562 621.836266 
L 901.312744 622.509501 
L 901.909925 621.64488 
L 902.507106 619.39006 
L 903.104288 618.177826 
L 903.701469 621.135962 
L 904.298651 621.158407 
L 904.895832 619.158264 
L 905.493013 618.72859 
L 906.090195 617.758666 
L 906.687376 617.38616 
L 907.284558 618.707989 
L 907.881739 621.551004 
L 908.478921 622.663288 
L 909.076102 621.250405 
L 909.673283 621.273742 
L 910.270465 622.074595 
L 910.867646 622.035931 
L 911.464828 623.120876 
L 912.062009 622.410194 
L 912.65919 621.161978 
L 913.256372 621.191068 
L 913.853553 624.603771 
L 914.450735 624.764358 
L 915.047916 622.443283 
L 915.645097 622.349488 
L 916.83946 623.505063 
L 917.436642 623.41265 
L 918.033823 621.850934 
L 918.631004 619.02778 
L 919.228186 618.200824 
L 919.825367 620.128121 
L 920.422549 620.881097 
L 921.01973 621.036216 
L 921.616912 620.396359 
L 922.214093 619.991609 
L 922.214093 619.991609 
" clip-path="url(#p9b857fede3)" style="fill: none; stroke: #1f77b4; stroke-width: 1.5; stroke-linecap: square"/>
   </g>
   <g id="line2d_45">
    <path d="M 526.88 620.363048 
L 925.2 620.363048 
" clip-path="url(#p9b857fede3)" style="fill: none; stroke: #ff0000; stroke-opacity: 0.3; stroke-width: 1.5; stroke-linecap: square"/>
   </g>
   <g id="patch_13">
    <path d="M 526.88 667.24 
L 526.88 385.08 
" style="fill: none; stroke: #000000; stroke-width: 0.8; stroke-linejoin: miter; stroke-linecap: square"/>
   </g>
   <g id="patch_14">
    <path d="M 925.2 667.24 
L 925.2 385.08 
" style="fill: none; stroke: #000000; stroke-width: 0.8; stroke-linejoin: miter; stroke-linecap: square"/>
   </g>
   <g id="patch_15">
    <path d="M 526.88 667.24 
L 925.2 667.24 
" style="fill: none; stroke: #000000; stroke-width: 0.8; stroke-linejoin: miter; stroke-linecap: square"/>
   </g>
   <g id="patch_16">
    <path d="M 526.88 385.08 
L 925.2 385.08 
" style="fill: none; stroke: #000000; stroke-width: 0.8; stroke-linejoin: miter; stroke-linecap: square"/>
   </g>
   <g id="text_48">
    <!-- Temperature -->
    <g transform="translate(671.31505 379.08) scale(0.1728 -0.1728)">
     <defs>
      <path id="DejaVuSans-54" d="M -19 4666 
L 3928 4666 
L 3928 4134 
L 2272 4134 
L 2272 0 
L 1638 0 
L 1638 4134 
L -19 4134 
L -19 4666 
z
" transform="scale(0.015625)"/>
     </defs>
     <use xlink:href="#DejaVuSans-54"/>
     <use xlink:href="#DejaVuSans-65" x="44.083984"/>
     <use xlink:href="#DejaVuSans-6d" x="105.607422"/>
     <use xlink:href="#DejaVuSans-70" x="203.019531"/>
     <use xlink:href="#DejaVuSans-65" x="266.496094"/>
     <use xlink:href="#DejaVuSans-72" x="328.019531"/>
     <use xlink:href="#DejaVuSans-61" x="369.132812"/>
     <use xlink:href="#DejaVuSans-74" x="430.412109"/>
     <use xlink:href="#DejaVuSans-75" x="469.621094"/>
     <use xlink:href="#DejaVuSans-72" x="533"/>
     <use xlink:href="#DejaVuSans-65" x="571.863281"/>
    </g>
   </g>
  </g>
 </g>
 <defs>
  <clipPath id="pc6604cb190">
   <rect x="66.62" y="30.48" width="858.58" height="282.16"/>
  </clipPath>
  <clipPath id="p60ed19de9a">
   <rect x="66.62" y="385.08" width="398.32" height="282.16"/>
  </clipPath>
  <clipPath id="p9b857fede3">
   <rect x="526.88" y="385.08" width="398.32" height="282.16"/>
  </clipPath>
 </defs>
</svg>
