<?xml version="1.0" encoding="utf-8" standalone="no"?>
<!DOCTYPE svg PUBLIC "-//W3C//DTD SVG 1.1//EN"
  "http://www.w3.org/Graphics/SVG/1.1/DTD/svg11.dtd">
<svg xmlns:xlink="http://www.w3.org/1999/xlink" width="936pt" height="720pt" viewBox="0 0 936 720" xmlns="http://www.w3.org/2000/svg" version="1.1">
 <metadata>
  <rdf:RDF xmlns:dc="http://purl.org/dc/elements/1.1/" xmlns:cc="http://creativecommons.org/ns#" xmlns:rdf="http://www.w3.org/1999/02/22-rdf-syntax-ns#">
   <cc:Work>
    <dc:type rdf:resource="http://purl.org/dc/dcmitype/StillImage"/>
    <dc:date>2024-12-09T07:09:09.659722</dc:date>
    <dc:format>image/svg+xml</dc:format>
    <dc:creator>
     <cc:Agent>
      <dc:title>Matplotlib v3.8.0, https://matplotlib.org/</dc:title>
     </cc:Agent>
    </dc:creator>
   </cc:Work>
  </rdf:RDF>
 </metadata>
 <defs>
  <style type="text/css">*{stroke-linejoin: round; stroke-linecap: butt}</style>
 </defs>
 <g id="figure_1">
  <g id="patch_1">
   <path d="M 0 720 
L 936 720 
L 936 0 
L 0 0 
z
" style="fill: #ffffff"/>
  </g>
  <g id="axes_1">
   <g id="patch_2">
    <path d="M 71.12 312.64 
L 925.2 312.64 
L 925.2 30.48 
L 71.12 30.48 
z
" style="fill: #ffffff"/>
   </g>
   <g id="matplotlib.axis_1">
    <g id="xtick_1">
     <g id="line2d_1">
      <defs>
       <path id="m9d37dbc770" d="M 0 0 
L 0 3.5 
" style="stroke: #000000; stroke-width: 0.8"/>
      </defs>
      <g>
       <use xlink:href="#m9d37dbc770" x="71.12" y="312.64" style="stroke: #000000; stroke-width: 0.8"/>
      </g>
     </g>
     <g id="text_1">
      <!-- 0 -->
      <g transform="translate(66.539 330.58175) scale(0.144 -0.144)">
       <defs>
        <path id="DejaVuSans-30" d="M 2034 4250 
Q 1547 4250 1301 3770 
Q 1056 3291 1056 2328 
Q 1056 1369 1301 889 
Q 1547 409 2034 409 
Q 2525 409 2770 889 
Q 3016 1369 3016 2328 
Q 3016 3291 2770 3770 
Q 2525 4250 2034 4250 
z
M 2034 4750 
Q 2819 4750 3233 4129 
Q 3647 3509 3647 2328 
Q 3647 1150 3233 529 
Q 2819 -91 2034 -91 
Q 1250 -91 836 529 
Q 422 1150 422 2328 
Q 422 3509 836 4129 
Q 1250 4750 2034 4750 
z
" transform="scale(0.015625)"/>
       </defs>
       <use xlink:href="#DejaVuSans-30"/>
      </g>
     </g>
    </g>
    <g id="xtick_2">
     <g id="line2d_2">
      <g>
       <use xlink:href="#m9d37dbc770" x="199.167976" y="312.64" style="stroke: #000000; stroke-width: 0.8"/>
      </g>
     </g>
     <g id="text_2">
      <!-- 1 -->
      <g transform="translate(194.586976 330.58175) scale(0.144 -0.144)">
       <defs>
        <path id="DejaVuSans-31" d="M 794 531 
L 1825 531 
L 1825 4091 
L 703 3866 
L 703 4441 
L 1819 4666 
L 2450 4666 
L 2450 531 
L 3481 531 
L 3481 0 
L 794 0 
L 794 531 
z
" transform="scale(0.015625)"/>
       </defs>
       <use xlink:href="#DejaVuSans-31"/>
      </g>
     </g>
    </g>
    <g id="xtick_3">
     <g id="line2d_3">
      <g>
       <use xlink:href="#m9d37dbc770" x="327.215952" y="312.64" style="stroke: #000000; stroke-width: 0.8"/>
      </g>
     </g>
     <g id="text_3">
      <!-- 2 -->
      <g transform="translate(322.634952 330.58175) scale(0.144 -0.144)">
       <defs>
        <path id="DejaVuSans-32" d="M 1228 531 
L 3431 531 
L 3431 0 
L 469 0 
L 469 531 
Q 828 903 1448 1529 
Q 2069 2156 2228 2338 
Q 2531 2678 2651 2914 
Q 2772 3150 2772 3378 
Q 2772 3750 2511 3984 
Q 2250 4219 1831 4219 
Q 1534 4219 1204 4116 
Q 875 4013 500 3803 
L 500 4441 
Q 881 4594 1212 4672 
Q 1544 4750 1819 4750 
Q 2544 4750 2975 4387 
Q 3406 4025 3406 3419 
Q 3406 3131 3298 2873 
Q 3191 2616 2906 2266 
Q 2828 2175 2409 1742 
Q 1991 1309 1228 531 
z
" transform="scale(0.015625)"/>
       </defs>
       <use xlink:href="#DejaVuSans-32"/>
      </g>
     </g>
    </g>
    <g id="xtick_4">
     <g id="line2d_4">
      <g>
       <use xlink:href="#m9d37dbc770" x="455.263928" y="312.64" style="stroke: #000000; stroke-width: 0.8"/>
      </g>
     </g>
     <g id="text_4">
      <!-- 3 -->
      <g transform="translate(450.682928 330.58175) scale(0.144 -0.144)">
       <defs>
        <path id="DejaVuSans-33" d="M 2597 2516 
Q 3050 2419 3304 2112 
Q 3559 1806 3559 1356 
Q 3559 666 3084 287 
Q 2609 -91 1734 -91 
Q 1441 -91 1130 -33 
Q 819 25 488 141 
L 488 750 
Q 750 597 1062 519 
Q 1375 441 1716 441 
Q 2309 441 2620 675 
Q 2931 909 2931 1356 
Q 2931 1769 2642 2001 
Q 2353 2234 1838 2234 
L 1294 2234 
L 1294 2753 
L 1863 2753 
Q 2328 2753 2575 2939 
Q 2822 3125 2822 3475 
Q 2822 3834 2567 4026 
Q 2313 4219 1838 4219 
Q 1578 4219 1281 4162 
Q 984 4106 628 3988 
L 628 4550 
Q 988 4650 1302 4700 
Q 1616 4750 1894 4750 
Q 2613 4750 3031 4423 
Q 3450 4097 3450 3541 
Q 3450 3153 3228 2886 
Q 3006 2619 2597 2516 
z
" transform="scale(0.015625)"/>
       </defs>
       <use xlink:href="#DejaVuSans-33"/>
      </g>
     </g>
    </g>
    <g id="xtick_5">
     <g id="line2d_5">
      <g>
       <use xlink:href="#m9d37dbc770" x="583.311904" y="312.64" style="stroke: #000000; stroke-width: 0.8"/>
      </g>
     </g>
     <g id="text_5">
      <!-- 4 -->
      <g transform="translate(578.730904 330.58175) scale(0.144 -0.144)">
       <defs>
        <path id="DejaVuSans-34" d="M 2419 4116 
L 825 1625 
L 2419 1625 
L 2419 4116 
z
M 2253 4666 
L 3047 4666 
L 3047 1625 
L 3713 1625 
L 3713 1100 
L 3047 1100 
L 3047 0 
L 2419 0 
L 2419 1100 
L 313 1100 
L 313 1709 
L 2253 4666 
z
" transform="scale(0.015625)"/>
       </defs>
       <use xlink:href="#DejaVuSans-34"/>
      </g>
     </g>
    </g>
    <g id="xtick_6">
     <g id="line2d_6">
      <g>
       <use xlink:href="#m9d37dbc770" x="711.35988" y="312.64" style="stroke: #000000; stroke-width: 0.8"/>
      </g>
     </g>
     <g id="text_6">
      <!-- 5 -->
      <g transform="translate(706.77888 330.58175) scale(0.144 -0.144)">
       <defs>
        <path id="DejaVuSans-35" d="M 691 4666 
L 3169 4666 
L 3169 4134 
L 1269 4134 
L 1269 2991 
Q 1406 3038 1543 3061 
Q 1681 3084 1819 3084 
Q 2600 3084 3056 2656 
Q 3513 2228 3513 1497 
Q 3513 744 3044 326 
Q 2575 -91 1722 -91 
Q 1428 -91 1123 -41 
Q 819 9 494 109 
L 494 744 
Q 775 591 1075 516 
Q 1375 441 1709 441 
Q 2250 441 2565 725 
Q 2881 1009 2881 1497 
Q 2881 1984 2565 2268 
Q 2250 2553 1709 2553 
Q 1456 2553 1204 2497 
Q 953 2441 691 2322 
L 691 4666 
z
" transform="scale(0.015625)"/>
       </defs>
       <use xlink:href="#DejaVuSans-35"/>
      </g>
     </g>
    </g>
    <g id="xtick_7">
     <g id="line2d_7">
      <g>
       <use xlink:href="#m9d37dbc770" x="839.407856" y="312.64" style="stroke: #000000; stroke-width: 0.8"/>
      </g>
     </g>
     <g id="text_7">
      <!-- 6 -->
      <g transform="translate(834.826856 330.58175) scale(0.144 -0.144)">
       <defs>
        <path id="DejaVuSans-36" d="M 2113 2584 
Q 1688 2584 1439 2293 
Q 1191 2003 1191 1497 
Q 1191 994 1439 701 
Q 1688 409 2113 409 
Q 2538 409 2786 701 
Q 3034 994 3034 1497 
Q 3034 2003 2786 2293 
Q 2538 2584 2113 2584 
z
M 3366 4563 
L 3366 3988 
Q 3128 4100 2886 4159 
Q 2644 4219 2406 4219 
Q 1781 4219 1451 3797 
Q 1122 3375 1075 2522 
Q 1259 2794 1537 2939 
Q 1816 3084 2150 3084 
Q 2853 3084 3261 2657 
Q 3669 2231 3669 1497 
Q 3669 778 3244 343 
Q 2819 -91 2113 -91 
Q 1303 -91 875 529 
Q 447 1150 447 2328 
Q 447 3434 972 4092 
Q 1497 4750 2381 4750 
Q 2619 4750 2861 4703 
Q 3103 4656 3366 4563 
z
" transform="scale(0.015625)"/>
       </defs>
       <use xlink:href="#DejaVuSans-36"/>
      </g>
     </g>
    </g>
    <g id="text_8">
     <!-- time in a.u. -->
     <g transform="translate(449.01055 350.7066) scale(0.1728 -0.1728)">
      <defs>
       <path id="DejaVuSans-74" d="M 1172 4494 
L 1172 3500 
L 2356 3500 
L 2356 3053 
L 1172 3053 
L 1172 1153 
Q 1172 725 1289 603 
Q 1406 481 1766 481 
L 2356 481 
L 2356 0 
L 1766 0 
Q 1100 0 847 248 
Q 594 497 594 1153 
L 594 3053 
L 172 3053 
L 172 3500 
L 594 3500 
L 594 4494 
L 1172 4494 
z
" transform="scale(0.015625)"/>
       <path id="DejaVuSans-69" d="M 603 3500 
L 1178 3500 
L 1178 0 
L 603 0 
L 603 3500 
z
M 603 4863 
L 1178 4863 
L 1178 4134 
L 603 4134 
L 603 4863 
z
" transform="scale(0.015625)"/>
       <path id="DejaVuSans-6d" d="M 3328 2828 
Q 3544 3216 3844 3400 
Q 4144 3584 4550 3584 
Q 5097 3584 5394 3201 
Q 5691 2819 5691 2113 
L 5691 0 
L 5113 0 
L 5113 2094 
Q 5113 2597 4934 2840 
Q 4756 3084 4391 3084 
Q 3944 3084 3684 2787 
Q 3425 2491 3425 1978 
L 3425 0 
L 2847 0 
L 2847 2094 
Q 2847 2600 2669 2842 
Q 2491 3084 2119 3084 
Q 1678 3084 1418 2786 
Q 1159 2488 1159 1978 
L 1159 0 
L 581 0 
L 581 3500 
L 1159 3500 
L 1159 2956 
Q 1356 3278 1631 3431 
Q 1906 3584 2284 3584 
Q 2666 3584 2933 3390 
Q 3200 3197 3328 2828 
z
" transform="scale(0.015625)"/>
       <path id="DejaVuSans-65" d="M 3597 1894 
L 3597 1613 
L 953 1613 
Q 991 1019 1311 708 
Q 1631 397 2203 397 
Q 2534 397 2845 478 
Q 3156 559 3463 722 
L 3463 178 
Q 3153 47 2828 -22 
Q 2503 -91 2169 -91 
Q 1331 -91 842 396 
Q 353 884 353 1716 
Q 353 2575 817 3079 
Q 1281 3584 2069 3584 
Q 2775 3584 3186 3129 
Q 3597 2675 3597 1894 
z
M 3022 2063 
Q 3016 2534 2758 2815 
Q 2500 3097 2075 3097 
Q 1594 3097 1305 2825 
Q 1016 2553 972 2059 
L 3022 2063 
z
" transform="scale(0.015625)"/>
       <path id="DejaVuSans-20" transform="scale(0.015625)"/>
       <path id="DejaVuSans-6e" d="M 3513 2113 
L 3513 0 
L 2938 0 
L 2938 2094 
Q 2938 2591 2744 2837 
Q 2550 3084 2163 3084 
Q 1697 3084 1428 2787 
Q 1159 2491 1159 1978 
L 1159 0 
L 581 0 
L 581 3500 
L 1159 3500 
L 1159 2956 
Q 1366 3272 1645 3428 
Q 1925 3584 2291 3584 
Q 2894 3584 3203 3211 
Q 3513 2838 3513 2113 
z
" transform="scale(0.015625)"/>
       <path id="DejaVuSans-61" d="M 2194 1759 
Q 1497 1759 1228 1600 
Q 959 1441 959 1056 
Q 959 750 1161 570 
Q 1363 391 1709 391 
Q 2188 391 2477 730 
Q 2766 1069 2766 1631 
L 2766 1759 
L 2194 1759 
z
M 3341 1997 
L 3341 0 
L 2766 0 
L 2766 531 
Q 2569 213 2275 61 
Q 1981 -91 1556 -91 
Q 1019 -91 701 211 
Q 384 513 384 1019 
Q 384 1609 779 1909 
Q 1175 2209 1959 2209 
L 2766 2209 
L 2766 2266 
Q 2766 2663 2505 2880 
Q 2244 3097 1772 3097 
Q 1472 3097 1187 3025 
Q 903 2953 641 2809 
L 641 3341 
Q 956 3463 1253 3523 
Q 1550 3584 1831 3584 
Q 2591 3584 2966 3190 
Q 3341 2797 3341 1997 
z
" transform="scale(0.015625)"/>
       <path id="DejaVuSans-2e" d="M 684 794 
L 1344 794 
L 1344 0 
L 684 0 
L 684 794 
z
" transform="scale(0.015625)"/>
       <path id="DejaVuSans-75" d="M 544 1381 
L 544 3500 
L 1119 3500 
L 1119 1403 
Q 1119 906 1312 657 
Q 1506 409 1894 409 
Q 2359 409 2629 706 
Q 2900 1003 2900 1516 
L 2900 3500 
L 3475 3500 
L 3475 0 
L 2900 0 
L 2900 538 
Q 2691 219 2414 64 
Q 2138 -91 1772 -91 
Q 1169 -91 856 284 
Q 544 659 544 1381 
z
M 1991 3584 
L 1991 3584 
z
" transform="scale(0.015625)"/>
      </defs>
      <use xlink:href="#DejaVuSans-74"/>
      <use xlink:href="#DejaVuSans-69" x="39.208984"/>
      <use xlink:href="#DejaVuSans-6d" x="66.992188"/>
      <use xlink:href="#DejaVuSans-65" x="164.404297"/>
      <use xlink:href="#DejaVuSans-20" x="225.927734"/>
      <use xlink:href="#DejaVuSans-69" x="257.714844"/>
      <use xlink:href="#DejaVuSans-6e" x="285.498047"/>
      <use xlink:href="#DejaVuSans-20" x="348.876953"/>
      <use xlink:href="#DejaVuSans-61" x="380.664062"/>
      <use xlink:href="#DejaVuSans-2e" x="441.943359"/>
      <use xlink:href="#DejaVuSans-75" x="473.730469"/>
      <use xlink:href="#DejaVuSans-2e" x="537.109375"/>
     </g>
    </g>
   </g>
   <g id="matplotlib.axis_2">
    <g id="ytick_1">
     <g id="line2d_8">
      <defs>
       <path id="m18f2aca431" d="M 0 0 
L -3.5 0 
" style="stroke: #000000; stroke-width: 0.8"/>
      </defs>
      <g>
       <use xlink:href="#m18f2aca431" x="71.12" y="281.486727" style="stroke: #000000; stroke-width: 0.8"/>
      </g>
     </g>
     <g id="text_9">
      <!-- 120 -->
      <g transform="translate(36.634 286.957602) scale(0.144 -0.144)">
       <use xlink:href="#DejaVuSans-31"/>
       <use xlink:href="#DejaVuSans-32" x="63.623047"/>
       <use xlink:href="#DejaVuSans-30" x="127.246094"/>
      </g>
     </g>
    </g>
    <g id="ytick_2">
     <g id="line2d_9">
      <g>
       <use xlink:href="#m18f2aca431" x="71.12" y="237.881693" style="stroke: #000000; stroke-width: 0.8"/>
      </g>
     </g>
     <g id="text_10">
      <!-- 140 -->
      <g transform="translate(36.634 243.352568) scale(0.144 -0.144)">
       <use xlink:href="#DejaVuSans-31"/>
       <use xlink:href="#DejaVuSans-34" x="63.623047"/>
       <use xlink:href="#DejaVuSans-30" x="127.246094"/>
      </g>
     </g>
    </g>
    <g id="ytick_3">
     <g id="line2d_10">
      <g>
       <use xlink:href="#m18f2aca431" x="71.12" y="194.276659" style="stroke: #000000; stroke-width: 0.8"/>
      </g>
     </g>
     <g id="text_11">
      <!-- 160 -->
      <g transform="translate(36.634 199.747534) scale(0.144 -0.144)">
       <use xlink:href="#DejaVuSans-31"/>
       <use xlink:href="#DejaVuSans-36" x="63.623047"/>
       <use xlink:href="#DejaVuSans-30" x="127.246094"/>
      </g>
     </g>
    </g>
    <g id="ytick_4">
     <g id="line2d_11">
      <g>
       <use xlink:href="#m18f2aca431" x="71.12" y="150.671625" style="stroke: #000000; stroke-width: 0.8"/>
      </g>
     </g>
     <g id="text_12">
      <!-- 180 -->
      <g transform="translate(36.634 156.1425) scale(0.144 -0.144)">
       <defs>
        <path id="DejaVuSans-38" d="M 2034 2216 
Q 1584 2216 1326 1975 
Q 1069 1734 1069 1313 
Q 1069 891 1326 650 
Q 1584 409 2034 409 
Q 2484 409 2743 651 
Q 3003 894 3003 1313 
Q 3003 1734 2745 1975 
Q 2488 2216 2034 2216 
z
M 1403 2484 
Q 997 2584 770 2862 
Q 544 3141 544 3541 
Q 544 4100 942 4425 
Q 1341 4750 2034 4750 
Q 2731 4750 3128 4425 
Q 3525 4100 3525 3541 
Q 3525 3141 3298 2862 
Q 3072 2584 2669 2484 
Q 3125 2378 3379 2068 
Q 3634 1759 3634 1313 
Q 3634 634 3220 271 
Q 2806 -91 2034 -91 
Q 1263 -91 848 271 
Q 434 634 434 1313 
Q 434 1759 690 2068 
Q 947 2378 1403 2484 
z
M 1172 3481 
Q 1172 3119 1398 2916 
Q 1625 2713 2034 2713 
Q 2441 2713 2670 2916 
Q 2900 3119 2900 3481 
Q 2900 3844 2670 4047 
Q 2441 4250 2034 4250 
Q 1625 4250 1398 4047 
Q 1172 3844 1172 3481 
z
" transform="scale(0.015625)"/>
       </defs>
       <use xlink:href="#DejaVuSans-31"/>
       <use xlink:href="#DejaVuSans-38" x="63.623047"/>
       <use xlink:href="#DejaVuSans-30" x="127.246094"/>
      </g>
     </g>
    </g>
    <g id="ytick_5">
     <g id="line2d_12">
      <g>
       <use xlink:href="#m18f2aca431" x="71.12" y="107.066591" style="stroke: #000000; stroke-width: 0.8"/>
      </g>
     </g>
     <g id="text_13">
      <!-- 200 -->
      <g transform="translate(36.634 112.537466) scale(0.144 -0.144)">
       <use xlink:href="#DejaVuSans-32"/>
       <use xlink:href="#DejaVuSans-30" x="63.623047"/>
       <use xlink:href="#DejaVuSans-30" x="127.246094"/>
      </g>
     </g>
    </g>
    <g id="ytick_6">
     <g id="line2d_13">
      <g>
       <use xlink:href="#m18f2aca431" x="71.12" y="63.461557" style="stroke: #000000; stroke-width: 0.8"/>
      </g>
     </g>
     <g id="text_14">
      <!-- 220 -->
      <g transform="translate(36.634 68.932432) scale(0.144 -0.144)">
       <use xlink:href="#DejaVuSans-32"/>
       <use xlink:href="#DejaVuSans-32" x="63.623047"/>
       <use xlink:href="#DejaVuSans-30" x="127.246094"/>
      </g>
     </g>
    </g>
    <g id="text_15">
     <!-- (avg. M=4) energy in a.u. -->
     <g transform="translate(29.0403 282.3626) rotate(-90) scale(0.1728 -0.1728)">
      <defs>
       <path id="DejaVuSans-28" d="M 1984 4856 
Q 1566 4138 1362 3434 
Q 1159 2731 1159 2009 
Q 1159 1288 1364 580 
Q 1569 -128 1984 -844 
L 1484 -844 
Q 1016 -109 783 600 
Q 550 1309 550 2009 
Q 550 2706 781 3412 
Q 1013 4119 1484 4856 
L 1984 4856 
z
" transform="scale(0.015625)"/>
       <path id="DejaVuSans-76" d="M 191 3500 
L 800 3500 
L 1894 563 
L 2988 3500 
L 3597 3500 
L 2284 0 
L 1503 0 
L 191 3500 
z
" transform="scale(0.015625)"/>
       <path id="DejaVuSans-67" d="M 2906 1791 
Q 2906 2416 2648 2759 
Q 2391 3103 1925 3103 
Q 1463 3103 1205 2759 
Q 947 2416 947 1791 
Q 947 1169 1205 825 
Q 1463 481 1925 481 
Q 2391 481 2648 825 
Q 2906 1169 2906 1791 
z
M 3481 434 
Q 3481 -459 3084 -895 
Q 2688 -1331 1869 -1331 
Q 1566 -1331 1297 -1286 
Q 1028 -1241 775 -1147 
L 775 -588 
Q 1028 -725 1275 -790 
Q 1522 -856 1778 -856 
Q 2344 -856 2625 -561 
Q 2906 -266 2906 331 
L 2906 616 
Q 2728 306 2450 153 
Q 2172 0 1784 0 
Q 1141 0 747 490 
Q 353 981 353 1791 
Q 353 2603 747 3093 
Q 1141 3584 1784 3584 
Q 2172 3584 2450 3431 
Q 2728 3278 2906 2969 
L 2906 3500 
L 3481 3500 
L 3481 434 
z
" transform="scale(0.015625)"/>
       <path id="DejaVuSans-4d" d="M 628 4666 
L 1569 4666 
L 2759 1491 
L 3956 4666 
L 4897 4666 
L 4897 0 
L 4281 0 
L 4281 4097 
L 3078 897 
L 2444 897 
L 1241 4097 
L 1241 0 
L 628 0 
L 628 4666 
z
" transform="scale(0.015625)"/>
       <path id="DejaVuSans-3d" d="M 678 2906 
L 4684 2906 
L 4684 2381 
L 678 2381 
L 678 2906 
z
M 678 1631 
L 4684 1631 
L 4684 1100 
L 678 1100 
L 678 1631 
z
" transform="scale(0.015625)"/>
       <path id="DejaVuSans-29" d="M 513 4856 
L 1013 4856 
Q 1481 4119 1714 3412 
Q 1947 2706 1947 2009 
Q 1947 1309 1714 600 
Q 1481 -109 1013 -844 
L 513 -844 
Q 928 -128 1133 580 
Q 1338 1288 1338 2009 
Q 1338 2731 1133 3434 
Q 928 4138 513 4856 
z
" transform="scale(0.015625)"/>
       <path id="DejaVuSans-72" d="M 2631 2963 
Q 2534 3019 2420 3045 
Q 2306 3072 2169 3072 
Q 1681 3072 1420 2755 
Q 1159 2438 1159 1844 
L 1159 0 
L 581 0 
L 581 3500 
L 1159 3500 
L 1159 2956 
Q 1341 3275 1631 3429 
Q 1922 3584 2338 3584 
Q 2397 3584 2469 3576 
Q 2541 3569 2628 3553 
L 2631 2963 
z
" transform="scale(0.015625)"/>
       <path id="DejaVuSans-79" d="M 2059 -325 
Q 1816 -950 1584 -1140 
Q 1353 -1331 966 -1331 
L 506 -1331 
L 506 -850 
L 844 -850 
Q 1081 -850 1212 -737 
Q 1344 -625 1503 -206 
L 1606 56 
L 191 3500 
L 800 3500 
L 1894 763 
L 2988 3500 
L 3597 3500 
L 2059 -325 
z
" transform="scale(0.015625)"/>
      </defs>
      <use xlink:href="#DejaVuSans-28"/>
      <use xlink:href="#DejaVuSans-61" x="39.013672"/>
      <use xlink:href="#DejaVuSans-76" x="100.292969"/>
      <use xlink:href="#DejaVuSans-67" x="159.472656"/>
      <use xlink:href="#DejaVuSans-2e" x="222.949219"/>
      <use xlink:href="#DejaVuSans-20" x="254.736328"/>
      <use xlink:href="#DejaVuSans-4d" x="286.523438"/>
      <use xlink:href="#DejaVuSans-3d" x="372.802734"/>
      <use xlink:href="#DejaVuSans-34" x="456.591797"/>
      <use xlink:href="#DejaVuSans-29" x="520.214844"/>
      <use xlink:href="#DejaVuSans-20" x="559.228516"/>
      <use xlink:href="#DejaVuSans-65" x="591.015625"/>
      <use xlink:href="#DejaVuSans-6e" x="652.539062"/>
      <use xlink:href="#DejaVuSans-65" x="715.917969"/>
      <use xlink:href="#DejaVuSans-72" x="777.441406"/>
      <use xlink:href="#DejaVuSans-67" x="816.804688"/>
      <use xlink:href="#DejaVuSans-79" x="880.28125"/>
      <use xlink:href="#DejaVuSans-20" x="939.460938"/>
      <use xlink:href="#DejaVuSans-69" x="971.248047"/>
      <use xlink:href="#DejaVuSans-6e" x="999.03125"/>
      <use xlink:href="#DejaVuSans-20" x="1062.410156"/>
      <use xlink:href="#DejaVuSans-61" x="1094.197266"/>
      <use xlink:href="#DejaVuSans-2e" x="1155.476562"/>
      <use xlink:href="#DejaVuSans-75" x="1187.263672"/>
      <use xlink:href="#DejaVuSans-2e" x="1250.642578"/>
     </g>
    </g>
   </g>
   <g id="line2d_14">
    <path d="M 76.241919 225.427263 
L 77.522399 249.037596 
L 78.802879 250.540393 
L 81.363838 238.270579 
L 82.644318 233.785088 
L 83.924798 231.805798 
L 85.205277 232.887017 
L 87.766237 232.689757 
L 89.046717 233.513575 
L 90.327196 234.812216 
L 91.607676 232.627448 
L 92.888156 233.396854 
L 94.168636 232.955554 
L 95.449115 232.020186 
L 96.729595 234.142255 
L 98.010075 235.446192 
L 99.290555 235.172475 
L 100.571034 235.661529 
L 101.851514 239.892546 
L 103.131994 241.397429 
L 104.412474 241.434258 
L 105.692954 241.267994 
L 106.973433 240.845853 
L 108.253913 241.784972 
L 109.534393 243.211644 
L 110.814873 242.610359 
L 112.095352 241.285069 
L 113.375832 240.540104 
L 114.656312 242.689907 
L 115.936792 245.543073 
L 117.217271 245.201444 
L 118.497751 244.428683 
L 121.058711 241.886976 
L 122.33919 244.080422 
L 123.61967 244.172461 
L 124.90015 243.240057 
L 126.18063 243.166362 
L 127.461109 242.432578 
L 128.741589 239.255827 
L 130.022069 241.940249 
L 131.302549 248.735805 
L 132.583028 248.721065 
L 133.863508 246.753054 
L 135.143988 246.266588 
L 136.424468 245.179638 
L 137.704948 246.06973 
L 138.985427 248.040706 
L 140.265907 245.245859 
L 141.546387 241.644921 
L 142.826867 240.007715 
L 144.107346 243.522121 
L 145.387826 246.245661 
L 146.668306 247.442261 
L 147.948786 246.520859 
L 149.229265 246.791086 
L 150.509745 247.345654 
L 151.790225 246.023949 
L 153.070705 246.613568 
L 154.351184 248.38965 
L 155.631664 248.153364 
L 156.912144 245.759573 
L 158.192624 245.461245 
L 159.473103 243.286988 
L 160.753583 243.817365 
L 162.034063 244.468102 
L 163.314543 243.656667 
L 164.595022 240.5351 
L 165.875502 236.881652 
L 167.155982 234.494691 
L 168.436462 234.873563 
L 169.716942 236.753217 
L 170.997421 237.422746 
L 172.277901 240.799026 
L 173.558381 243.616682 
L 174.838861 244.122808 
L 176.11934 245.532167 
L 177.39982 248.992322 
L 178.6803 250.385417 
L 179.96078 248.687893 
L 181.241259 247.604714 
L 182.521739 244.825242 
L 183.802219 244.069052 
L 185.082699 246.146642 
L 186.363178 247.098816 
L 187.643658 246.040623 
L 188.924138 245.509883 
L 190.204618 246.113897 
L 191.485097 243.068279 
L 194.046057 242.129051 
L 195.326537 239.038134 
L 196.607016 237.081838 
L 197.887496 235.612071 
L 199.167976 237.189507 
L 200.448456 242.61867 
L 201.728936 249.635217 
L 203.009415 250.587751 
L 204.289895 248.533379 
L 205.570375 250.303316 
L 206.850855 251.767526 
L 208.131334 254.103607 
L 209.411814 252.863216 
L 210.692294 247.529623 
L 211.972774 242.712168 
L 214.533733 246.783782 
L 215.814213 245.856572 
L 217.094693 248.48436 
L 218.375172 247.09787 
L 219.655652 242.679247 
L 220.936132 243.021583 
L 222.216612 245.383229 
L 223.497091 244.935658 
L 224.777571 244.761185 
L 226.058051 246.403193 
L 227.338531 244.988274 
L 228.61901 243.945418 
L 229.89949 244.801741 
L 231.17997 243.842133 
L 232.46045 242.617703 
L 233.74093 243.952044 
L 235.021409 246.049406 
L 236.301889 245.71555 
L 237.582369 244.929964 
L 238.862849 244.597265 
L 240.143328 246.590667 
L 241.423808 248.327382 
L 242.704288 248.039185 
L 245.265247 239.943164 
L 246.545727 237.289842 
L 247.826207 238.986042 
L 249.106687 244.052208 
L 250.387166 246.242177 
L 251.667646 247.388737 
L 252.948126 247.479139 
L 254.228606 247.68761 
L 256.789565 246.983459 
L 258.070045 241.345578 
L 259.350525 236.834163 
L 260.631004 237.741072 
L 261.911484 236.052667 
L 264.472444 226.603107 
L 265.752924 227.389024 
L 267.033403 230.069528 
L 268.313883 234.426239 
L 269.594363 234.529333 
L 270.874843 227.86491 
L 272.155322 226.048672 
L 273.435802 231.562339 
L 274.716282 236.282621 
L 275.996762 236.519875 
L 277.277241 235.443738 
L 278.557721 234.860717 
L 279.838201 235.890511 
L 281.118681 240.317566 
L 282.39916 243.524232 
L 283.67964 243.298923 
L 286.2406 241.018204 
L 287.521079 239.017272 
L 288.801559 236.454996 
L 290.082039 235.813452 
L 291.362519 234.371484 
L 292.642999 232.348225 
L 293.923478 232.430986 
L 295.203958 233.849142 
L 296.484438 233.153467 
L 297.764918 234.904301 
L 299.045397 235.928068 
L 300.325877 236.299282 
L 301.606357 237.436159 
L 302.886837 239.271762 
L 304.167316 240.248268 
L 305.447796 239.600182 
L 306.728276 240.118295 
L 308.008756 239.610552 
L 309.289235 238.562667 
L 310.569715 238.08292 
L 311.850195 237.770095 
L 314.411154 231.866126 
L 315.691634 231.853537 
L 316.972114 234.029527 
L 318.252594 233.901268 
L 320.813553 236.56602 
L 322.094033 235.62247 
L 323.374513 235.995139 
L 324.654993 237.964288 
L 325.935472 238.551819 
L 327.215952 235.4122 
L 328.496432 232.578898 
L 329.776912 230.862945 
L 331.057391 229.925609 
L 332.337871 231.746291 
L 333.618351 232.724021 
L 336.17931 229.792566 
L 337.45979 232.009838 
L 338.74027 233.194923 
L 340.02075 234.070475 
L 341.301229 233.397211 
L 342.581709 232.47901 
L 343.862189 230.971042 
L 345.142669 228.23467 
L 346.423148 226.483263 
L 347.703628 227.515356 
L 348.984108 232.349559 
L 350.264588 236.262178 
L 351.545067 238.992107 
L 352.825547 238.451482 
L 354.106027 239.314736 
L 355.386507 238.003991 
L 356.666987 237.938075 
L 357.947466 235.604189 
L 359.227946 233.759879 
L 360.508426 234.376048 
L 361.788906 235.193247 
L 363.069385 236.163045 
L 364.349865 236.815156 
L 365.630345 241.557095 
L 366.910825 244.667452 
L 368.191304 246.838519 
L 369.471784 245.903168 
L 370.752264 242.692232 
L 372.032744 238.701723 
L 373.313223 236.333947 
L 374.593703 236.086466 
L 375.874183 236.099214 
L 377.154663 236.849619 
L 378.435142 238.249837 
L 380.996102 241.922691 
L 382.276582 246.072357 
L 383.557061 249.631791 
L 384.837541 249.625863 
L 386.118021 246.839282 
L 387.398501 245.507763 
L 388.678981 243.365391 
L 389.95946 239.43414 
L 391.23994 238.914705 
L 392.52042 237.844246 
L 393.8009 236.193545 
L 395.081379 236.82141 
L 396.361859 237.324829 
L 397.642339 236.996987 
L 398.922819 239.39072 
L 400.203298 242.281184 
L 401.483778 241.540871 
L 402.764258 240.954487 
L 404.044738 240.998476 
L 405.325217 238.18781 
L 406.605697 240.0984 
L 407.886177 243.947091 
L 409.166657 243.678766 
L 410.447136 241.956817 
L 411.727616 239.978723 
L 413.008096 239.015697 
L 414.288576 240.199617 
L 415.569055 243.784227 
L 416.849535 242.293964 
L 418.130015 236.410314 
L 419.410495 233.103658 
L 420.690975 233.310536 
L 421.971454 235.807099 
L 423.251934 236.874876 
L 424.532414 235.184859 
L 425.812894 232.30135 
L 427.093373 231.506299 
L 428.373853 233.475543 
L 429.654333 234.473722 
L 430.934813 233.721269 
L 432.215292 230.557771 
L 433.495772 227.943086 
L 434.776252 229.061427 
L 436.056732 230.764791 
L 437.337211 233.155204 
L 438.617691 235.119571 
L 439.898171 236.309574 
L 441.178651 236.517395 
L 442.45913 238.491143 
L 443.73961 241.346683 
L 445.02009 241.803766 
L 447.581049 244.061351 
L 448.861529 242.354932 
L 450.142009 240.170916 
L 451.422489 242.721998 
L 452.702969 243.049868 
L 453.983448 241.300657 
L 455.263928 241.604162 
L 456.544408 241.356668 
L 459.105367 238.876733 
L 460.385847 239.275858 
L 461.666327 237.590899 
L 462.946807 239.913818 
L 464.227286 241.991006 
L 465.507766 239.838933 
L 466.788246 238.223153 
L 469.349205 241.296261 
L 470.629685 239.752126 
L 471.910165 240.128648 
L 473.190645 240.885221 
L 474.471124 242.359545 
L 475.751604 244.370857 
L 477.032084 246.079959 
L 478.312564 244.73539 
L 479.593043 244.760946 
L 480.873523 247.187563 
L 483.434483 241.11768 
L 484.714963 237.682253 
L 485.995442 237.053778 
L 487.275922 239.437121 
L 488.556402 242.35519 
L 489.836882 244.749136 
L 491.117361 245.800885 
L 492.397841 249.239751 
L 493.678321 250.027118 
L 496.23928 252.758135 
L 497.51976 250.61652 
L 498.80024 247.603291 
L 500.08072 247.235697 
L 501.361199 247.795702 
L 502.641679 249.50925 
L 503.922159 251.603958 
L 505.202639 252.269641 
L 506.483118 250.890097 
L 507.763598 252.799427 
L 509.044078 255.599107 
L 510.324558 254.657546 
L 511.605037 254.583568 
L 512.885517 255.112732 
L 514.165997 255.874171 
L 515.446477 255.661499 
L 516.726957 255.286597 
L 518.007436 255.250771 
L 520.568396 257.192458 
L 521.848876 258.571959 
L 523.129355 257.268063 
L 524.409835 252.975617 
L 525.690315 254.61389 
L 526.970795 258.135471 
L 528.251274 258.553444 
L 529.531754 257.591418 
L 530.812234 258.274357 
L 532.092714 257.882075 
L 533.373193 258.573036 
L 534.653673 262.896262 
L 535.934153 262.980219 
L 537.214633 260.571238 
L 538.495112 260.836644 
L 539.775592 262.076382 
L 541.056072 263.139604 
L 544.897511 256.795393 
L 546.177991 256.027392 
L 547.458471 256.055156 
L 548.738951 255.342041 
L 550.01943 253.917113 
L 551.29991 253.962084 
L 552.58039 257.824262 
L 553.86087 263.27692 
L 555.141349 265.194119 
L 556.421829 264.825781 
L 557.702309 263.516376 
L 558.982789 261.931746 
L 560.263268 261.11065 
L 561.543748 260.676028 
L 562.824228 259.48748 
L 564.104708 254.646401 
L 565.385187 251.774792 
L 566.665667 252.540098 
L 567.946147 255.337169 
L 569.226627 255.992446 
L 570.507106 253.026255 
L 571.787586 247.699469 
L 573.068066 243.197558 
L 574.348546 245.767743 
L 575.629025 247.748905 
L 576.909505 246.984585 
L 578.189985 244.84567 
L 579.470465 243.209349 
L 580.750945 245.840555 
L 582.031424 249.76822 
L 583.311904 252.851662 
L 584.592384 252.107999 
L 585.872864 251.535843 
L 587.153343 251.900958 
L 588.433823 253.014577 
L 589.714303 255.85317 
L 592.275262 257.056676 
L 593.555742 259.210102 
L 594.836222 259.919328 
L 596.116702 257.487345 
L 597.397181 256.03413 
L 598.677661 255.264216 
L 599.958141 253.969242 
L 601.238621 254.325387 
L 602.5191 256.524033 
L 603.79958 256.94922 
L 605.08006 258.580814 
L 606.36054 264.819824 
L 607.641019 269.241762 
L 608.921499 271.705058 
L 611.482459 275.142971 
L 612.762939 274.212572 
L 614.043418 274.54675 
L 615.323898 275.473685 
L 616.604378 274.649917 
L 617.884858 271.811219 
L 619.165337 266.040224 
L 620.445817 264.106177 
L 621.726297 264.510489 
L 623.006777 264.551022 
L 624.287256 262.264824 
L 625.567736 259.148639 
L 626.848216 257.840561 
L 628.128696 257.617073 
L 629.409175 262.579611 
L 630.689655 263.185183 
L 631.970135 259.515375 
L 633.250615 258.246284 
L 634.531094 259.142678 
L 635.811574 261.419911 
L 638.372534 260.193475 
L 639.653013 260.280538 
L 640.933493 260.987816 
L 642.213973 262.673964 
L 643.494453 262.941155 
L 644.774933 263.033789 
L 646.055412 260.646757 
L 647.335892 259.108292 
L 648.616372 257.950984 
L 649.896852 255.673431 
L 651.177331 255.391497 
L 652.457811 256.017088 
L 653.738291 257.168208 
L 655.018771 259.133191 
L 656.29925 261.38525 
L 657.57973 262.005042 
L 660.14069 270.242641 
L 661.421169 272.858399 
L 662.701649 275.965233 
L 663.982129 277.435558 
L 665.262609 277.719143 
L 666.543088 277.25061 
L 667.823568 278.161926 
L 670.384528 274.659221 
L 671.665007 273.296639 
L 674.225967 268.573695 
L 675.506447 263.431017 
L 676.786927 263.759161 
L 678.067406 266.446946 
L 679.347886 268.101002 
L 680.628366 268.976135 
L 681.908846 269.444561 
L 683.189325 271.024541 
L 684.469805 272.142241 
L 685.750285 274.070478 
L 687.030765 272.7637 
L 688.311244 272.20779 
L 689.591724 273.32888 
L 690.872204 273.913314 
L 692.152684 271.735775 
L 693.433163 266.249441 
L 694.713643 262.343471 
L 695.994123 258.902388 
L 697.274603 256.806129 
L 698.555082 253.841054 
L 699.835562 249.831948 
L 701.116042 244.285555 
L 702.396522 243.179776 
L 703.677001 245.339823 
L 704.957481 246.696676 
L 706.237961 249.984064 
L 707.518441 251.839261 
L 708.798921 250.964838 
L 710.0794 248.706412 
L 711.35988 251.454816 
L 712.64036 253.80487 
L 713.92084 256.507222 
L 715.201319 257.874719 
L 716.481799 257.511995 
L 717.762279 257.90662 
L 719.042759 260.36232 
L 720.323238 264.70683 
L 721.603718 265.873078 
L 722.884198 264.868816 
L 724.164678 262.985825 
L 725.445157 262.743251 
L 726.725637 263.406481 
L 728.006117 262.525685 
L 729.286597 259.940735 
L 730.567076 256.527154 
L 731.847556 255.714876 
L 733.128036 255.265285 
L 735.688996 252.573341 
L 736.969475 251.816223 
L 738.249955 251.728242 
L 739.530435 253.183603 
L 740.810915 255.678697 
L 742.091394 254.089002 
L 743.371874 252.748478 
L 744.652354 253.056614 
L 745.932834 251.803081 
L 747.213313 250.923085 
L 748.493793 248.992008 
L 749.774273 248.813202 
L 751.054753 248.944347 
L 752.335232 251.046617 
L 753.615712 251.858599 
L 754.896192 250.517078 
L 756.176672 248.687744 
L 757.457151 247.841519 
L 758.737631 249.669386 
L 760.018111 249.598839 
L 761.298591 248.652069 
L 762.57907 247.542872 
L 763.85955 247.059468 
L 765.14003 247.802997 
L 766.42051 252.102015 
L 767.70099 254.973274 
L 768.981469 254.871461 
L 771.542429 253.410368 
L 772.822909 252.37761 
L 774.103388 253.135201 
L 775.383868 253.007769 
L 776.664348 250.62037 
L 777.944828 248.887202 
L 779.225307 247.538292 
L 780.505787 246.943577 
L 781.786267 247.566659 
L 783.066747 248.779733 
L 784.347226 248.419878 
L 785.627706 248.739858 
L 786.908186 249.501798 
L 788.188666 246.248776 
L 789.469145 246.945717 
L 790.749625 246.58394 
L 792.030105 247.32356 
L 793.310585 244.625125 
L 794.591064 240.449045 
L 797.152024 235.660459 
L 798.432504 237.561957 
L 799.712984 236.805331 
L 800.993463 236.761301 
L 802.273943 235.534606 
L 803.554423 237.840105 
L 804.834903 242.9439 
L 806.115382 245.045607 
L 807.395862 245.58131 
L 808.676342 246.403797 
L 809.956822 245.085358 
L 811.237301 244.418984 
L 812.517781 244.750751 
L 813.798261 245.572586 
L 815.078741 244.017974 
L 816.35922 243.416486 
L 817.6397 244.981744 
L 818.92018 245.177981 
L 820.20066 246.419873 
L 821.481139 244.868972 
L 822.761619 243.609148 
L 824.042099 244.793678 
L 825.322579 244.601994 
L 826.603058 243.636253 
L 827.883538 244.95785 
L 829.164018 245.938863 
L 830.444498 247.181873 
L 831.724978 250.506878 
L 833.005457 251.103061 
L 834.285937 247.981246 
L 835.566417 248.888032 
L 836.846897 250.064539 
L 838.127376 249.593449 
L 839.407856 249.431446 
L 840.688336 249.830185 
L 841.968816 249.831033 
L 843.249295 249.980796 
L 844.529775 251.531017 
L 845.810255 250.694556 
L 847.090735 248.650721 
L 848.371214 249.098483 
L 849.651694 248.888638 
L 850.932174 248.244045 
L 852.212654 248.573685 
L 853.493133 247.220518 
L 854.773613 244.31877 
L 856.054093 245.411873 
L 857.334573 248.323894 
L 858.615052 247.584331 
L 859.895532 248.333581 
L 861.176012 248.532158 
L 862.456492 247.377946 
L 863.736972 250.585085 
L 865.017451 253.167783 
L 866.297931 251.027619 
L 867.578411 251.174303 
L 868.858891 248.611069 
L 870.13937 243.653346 
L 871.41985 243.79832 
L 872.70033 244.350517 
L 873.98081 243.620081 
L 875.261289 243.24856 
L 876.541769 244.170519 
L 877.822249 245.456629 
L 879.102729 251.09429 
L 880.383208 256.061237 
L 881.663688 254.076163 
L 882.944168 253.337284 
L 884.224648 251.009811 
L 885.505127 251.432379 
L 886.785607 252.856117 
L 888.066087 250.180724 
L 889.346567 246.201695 
L 890.627046 245.988111 
L 891.907526 248.527538 
L 893.188006 249.807098 
L 894.468486 251.912001 
L 895.748966 252.38203 
L 897.029445 252.363137 
L 898.309925 254.458211 
L 899.590405 255.941947 
L 900.870885 255.603786 
L 902.151364 256.004437 
L 903.431844 255.577221 
L 904.712324 253.381536 
L 905.992804 250.154266 
L 907.273283 248.703161 
L 909.834243 242.142797 
L 911.114723 240.360903 
L 912.395202 238.371609 
L 913.675682 237.520283 
L 914.956162 238.282392 
L 916.236642 240.50931 
L 917.517121 239.372955 
L 918.797601 240.175468 
L 918.797601 240.175468 
" clip-path="url(#p9b2f09362f)" style="fill: none; stroke: #1f77b4; stroke-width: 1.5; stroke-linecap: square"/>
   </g>
   <g id="line2d_15">
    <path d="M 71.12 247.071104 
L 925.2 247.071104 
" clip-path="url(#p9b2f09362f)" style="fill: none; stroke: #ff0000; stroke-opacity: 0.3; stroke-width: 1.5; stroke-linecap: square"/>
   </g>
   <g id="patch_3">
    <path d="M 71.12 312.64 
L 71.12 30.48 
" style="fill: none; stroke: #000000; stroke-width: 0.8; stroke-linejoin: miter; stroke-linecap: square"/>
   </g>
   <g id="patch_4">
    <path d="M 925.2 312.64 
L 925.2 30.48 
" style="fill: none; stroke: #000000; stroke-width: 0.8; stroke-linejoin: miter; stroke-linecap: square"/>
   </g>
   <g id="patch_5">
    <path d="M 71.12 312.64 
L 925.2 312.64 
" style="fill: none; stroke: #000000; stroke-width: 0.8; stroke-linejoin: miter; stroke-linecap: square"/>
   </g>
   <g id="patch_6">
    <path d="M 71.12 30.48 
L 925.2 30.48 
" style="fill: none; stroke: #000000; stroke-width: 0.8; stroke-linejoin: miter; stroke-linecap: square"/>
   </g>
   <g id="text_16">
    <!-- Energy -->
    <g transform="translate(467.9092 24.48) scale(0.1728 -0.1728)">
     <defs>
      <path id="DejaVuSans-45" d="M 628 4666 
L 3578 4666 
L 3578 4134 
L 1259 4134 
L 1259 2753 
L 3481 2753 
L 3481 2222 
L 1259 2222 
L 1259 531 
L 3634 531 
L 3634 0 
L 628 0 
L 628 4666 
z
" transform="scale(0.015625)"/>
     </defs>
     <use xlink:href="#DejaVuSans-45"/>
     <use xlink:href="#DejaVuSans-6e" x="63.183594"/>
     <use xlink:href="#DejaVuSans-65" x="126.5625"/>
     <use xlink:href="#DejaVuSans-72" x="188.085938"/>
     <use xlink:href="#DejaVuSans-67" x="227.449219"/>
     <use xlink:href="#DejaVuSans-79" x="290.925781"/>
    </g>
   </g>
  </g>
  <g id="axes_2">
   <g id="patch_7">
    <path d="M 71.12 667.24 
L 467.19 667.24 
L 467.19 385.08 
L 71.12 385.08 
z
" style="fill: #ffffff"/>
   </g>
   <g id="matplotlib.axis_3">
    <g id="xtick_8">
     <g id="line2d_16">
      <g>
       <use xlink:href="#m9d37dbc770" x="71.12" y="667.24" style="stroke: #000000; stroke-width: 0.8"/>
      </g>
     </g>
     <g id="text_17">
      <!-- 0 -->
      <g transform="translate(66.539 685.18175) scale(0.144 -0.144)">
       <use xlink:href="#DejaVuSans-30"/>
      </g>
     </g>
    </g>
    <g id="xtick_9">
     <g id="line2d_17">
      <g>
       <use xlink:href="#m9d37dbc770" x="130.50081" y="667.24" style="stroke: #000000; stroke-width: 0.8"/>
      </g>
     </g>
     <g id="text_18">
      <!-- 1 -->
      <g transform="translate(125.91981 685.18175) scale(0.144 -0.144)">
       <use xlink:href="#DejaVuSans-31"/>
      </g>
     </g>
    </g>
    <g id="xtick_10">
     <g id="line2d_18">
      <g>
       <use xlink:href="#m9d37dbc770" x="189.881619" y="667.24" style="stroke: #000000; stroke-width: 0.8"/>
      </g>
     </g>
     <g id="text_19">
      <!-- 2 -->
      <g transform="translate(185.300619 685.18175) scale(0.144 -0.144)">
       <use xlink:href="#DejaVuSans-32"/>
      </g>
     </g>
    </g>
    <g id="xtick_11">
     <g id="line2d_19">
      <g>
       <use xlink:href="#m9d37dbc770" x="249.262429" y="667.24" style="stroke: #000000; stroke-width: 0.8"/>
      </g>
     </g>
     <g id="text_20">
      <!-- 3 -->
      <g transform="translate(244.681429 685.18175) scale(0.144 -0.144)">
       <use xlink:href="#DejaVuSans-33"/>
      </g>
     </g>
    </g>
    <g id="xtick_12">
     <g id="line2d_20">
      <g>
       <use xlink:href="#m9d37dbc770" x="308.643238" y="667.24" style="stroke: #000000; stroke-width: 0.8"/>
      </g>
     </g>
     <g id="text_21">
      <!-- 4 -->
      <g transform="translate(304.062238 685.18175) scale(0.144 -0.144)">
       <use xlink:href="#DejaVuSans-34"/>
      </g>
     </g>
    </g>
    <g id="xtick_13">
     <g id="line2d_21">
      <g>
       <use xlink:href="#m9d37dbc770" x="368.024048" y="667.24" style="stroke: #000000; stroke-width: 0.8"/>
      </g>
     </g>
     <g id="text_22">
      <!-- 5 -->
      <g transform="translate(363.443048 685.18175) scale(0.144 -0.144)">
       <use xlink:href="#DejaVuSans-35"/>
      </g>
     </g>
    </g>
    <g id="xtick_14">
     <g id="line2d_22">
      <g>
       <use xlink:href="#m9d37dbc770" x="427.404858" y="667.24" style="stroke: #000000; stroke-width: 0.8"/>
      </g>
     </g>
     <g id="text_23">
      <!-- 6 -->
      <g transform="translate(422.823858 685.18175) scale(0.144 -0.144)">
       <use xlink:href="#DejaVuSans-36"/>
      </g>
     </g>
    </g>
    <g id="text_24">
     <!-- time in a.u. -->
     <g transform="translate(220.00555 705.3066) scale(0.1728 -0.1728)">
      <use xlink:href="#DejaVuSans-74"/>
      <use xlink:href="#DejaVuSans-69" x="39.208984"/>
      <use xlink:href="#DejaVuSans-6d" x="66.992188"/>
      <use xlink:href="#DejaVuSans-65" x="164.404297"/>
      <use xlink:href="#DejaVuSans-20" x="225.927734"/>
      <use xlink:href="#DejaVuSans-69" x="257.714844"/>
      <use xlink:href="#DejaVuSans-6e" x="285.498047"/>
      <use xlink:href="#DejaVuSans-20" x="348.876953"/>
      <use xlink:href="#DejaVuSans-61" x="380.664062"/>
      <use xlink:href="#DejaVuSans-2e" x="441.943359"/>
      <use xlink:href="#DejaVuSans-75" x="473.730469"/>
      <use xlink:href="#DejaVuSans-2e" x="537.109375"/>
     </g>
    </g>
   </g>
   <g id="matplotlib.axis_4">
    <g id="ytick_7">
     <g id="line2d_23">
      <g>
       <use xlink:href="#m18f2aca431" x="71.12" y="660.405133" style="stroke: #000000; stroke-width: 0.8"/>
      </g>
     </g>
     <g id="text_25">
      <!-- 0.00 -->
      <g transform="translate(32.0575 665.876008) scale(0.144 -0.144)">
       <use xlink:href="#DejaVuSans-30"/>
       <use xlink:href="#DejaVuSans-2e" x="63.623047"/>
       <use xlink:href="#DejaVuSans-30" x="95.410156"/>
       <use xlink:href="#DejaVuSans-30" x="159.033203"/>
      </g>
     </g>
    </g>
    <g id="ytick_8">
     <g id="line2d_24">
      <g>
       <use xlink:href="#m18f2aca431" x="71.12" y="621.449509" style="stroke: #000000; stroke-width: 0.8"/>
      </g>
     </g>
     <g id="text_26">
      <!-- 0.25 -->
      <g transform="translate(32.0575 626.920384) scale(0.144 -0.144)">
       <use xlink:href="#DejaVuSans-30"/>
       <use xlink:href="#DejaVuSans-2e" x="63.623047"/>
       <use xlink:href="#DejaVuSans-32" x="95.410156"/>
       <use xlink:href="#DejaVuSans-35" x="159.033203"/>
      </g>
     </g>
    </g>
    <g id="ytick_9">
     <g id="line2d_25">
      <g>
       <use xlink:href="#m18f2aca431" x="71.12" y="582.493886" style="stroke: #000000; stroke-width: 0.8"/>
      </g>
     </g>
     <g id="text_27">
      <!-- 0.50 -->
      <g transform="translate(32.0575 587.964761) scale(0.144 -0.144)">
       <use xlink:href="#DejaVuSans-30"/>
       <use xlink:href="#DejaVuSans-2e" x="63.623047"/>
       <use xlink:href="#DejaVuSans-35" x="95.410156"/>
       <use xlink:href="#DejaVuSans-30" x="159.033203"/>
      </g>
     </g>
    </g>
    <g id="ytick_10">
     <g id="line2d_26">
      <g>
       <use xlink:href="#m18f2aca431" x="71.12" y="543.538262" style="stroke: #000000; stroke-width: 0.8"/>
      </g>
     </g>
     <g id="text_28">
      <!-- 0.75 -->
      <g transform="translate(32.0575 549.009137) scale(0.144 -0.144)">
       <defs>
        <path id="DejaVuSans-37" d="M 525 4666 
L 3525 4666 
L 3525 4397 
L 1831 0 
L 1172 0 
L 2766 4134 
L 525 4134 
L 525 4666 
z
" transform="scale(0.015625)"/>
       </defs>
       <use xlink:href="#DejaVuSans-30"/>
       <use xlink:href="#DejaVuSans-2e" x="63.623047"/>
       <use xlink:href="#DejaVuSans-37" x="95.410156"/>
       <use xlink:href="#DejaVuSans-35" x="159.033203"/>
      </g>
     </g>
    </g>
    <g id="ytick_11">
     <g id="line2d_27">
      <g>
       <use xlink:href="#m18f2aca431" x="71.12" y="504.582639" style="stroke: #000000; stroke-width: 0.8"/>
      </g>
     </g>
     <g id="text_29">
      <!-- 1.00 -->
      <g transform="translate(32.0575 510.053514) scale(0.144 -0.144)">
       <use xlink:href="#DejaVuSans-31"/>
       <use xlink:href="#DejaVuSans-2e" x="63.623047"/>
       <use xlink:href="#DejaVuSans-30" x="95.410156"/>
       <use xlink:href="#DejaVuSans-30" x="159.033203"/>
      </g>
     </g>
    </g>
    <g id="ytick_12">
     <g id="line2d_28">
      <g>
       <use xlink:href="#m18f2aca431" x="71.12" y="465.627015" style="stroke: #000000; stroke-width: 0.8"/>
      </g>
     </g>
     <g id="text_30">
      <!-- 1.25 -->
      <g transform="translate(32.0575 471.09789) scale(0.144 -0.144)">
       <use xlink:href="#DejaVuSans-31"/>
       <use xlink:href="#DejaVuSans-2e" x="63.623047"/>
       <use xlink:href="#DejaVuSans-32" x="95.410156"/>
       <use xlink:href="#DejaVuSans-35" x="159.033203"/>
      </g>
     </g>
    </g>
    <g id="ytick_13">
     <g id="line2d_29">
      <g>
       <use xlink:href="#m18f2aca431" x="71.12" y="426.671392" style="stroke: #000000; stroke-width: 0.8"/>
      </g>
     </g>
     <g id="text_31">
      <!-- 1.50 -->
      <g transform="translate(32.0575 432.142267) scale(0.144 -0.144)">
       <use xlink:href="#DejaVuSans-31"/>
       <use xlink:href="#DejaVuSans-2e" x="63.623047"/>
       <use xlink:href="#DejaVuSans-35" x="95.410156"/>
       <use xlink:href="#DejaVuSans-30" x="159.033203"/>
      </g>
     </g>
    </g>
    <g id="ytick_14">
     <g id="line2d_30">
      <g>
       <use xlink:href="#m18f2aca431" x="71.12" y="387.715768" style="stroke: #000000; stroke-width: 0.8"/>
      </g>
     </g>
     <g id="text_32">
      <!-- 1.75 -->
      <g transform="translate(32.0575 393.186643) scale(0.144 -0.144)">
       <use xlink:href="#DejaVuSans-31"/>
       <use xlink:href="#DejaVuSans-2e" x="63.623047"/>
       <use xlink:href="#DejaVuSans-37" x="95.410156"/>
       <use xlink:href="#DejaVuSans-35" x="159.033203"/>
      </g>
     </g>
    </g>
    <g id="text_33">
     <!-- (avg. M=4) pressure in a.u. -->
     <g transform="translate(24.4638 644.16485) rotate(-90) scale(0.1728 -0.1728)">
      <defs>
       <path id="DejaVuSans-70" d="M 1159 525 
L 1159 -1331 
L 581 -1331 
L 581 3500 
L 1159 3500 
L 1159 2969 
Q 1341 3281 1617 3432 
Q 1894 3584 2278 3584 
Q 2916 3584 3314 3078 
Q 3713 2572 3713 1747 
Q 3713 922 3314 415 
Q 2916 -91 2278 -91 
Q 1894 -91 1617 61 
Q 1341 213 1159 525 
z
M 3116 1747 
Q 3116 2381 2855 2742 
Q 2594 3103 2138 3103 
Q 1681 3103 1420 2742 
Q 1159 2381 1159 1747 
Q 1159 1113 1420 752 
Q 1681 391 2138 391 
Q 2594 391 2855 752 
Q 3116 1113 3116 1747 
z
" transform="scale(0.015625)"/>
       <path id="DejaVuSans-73" d="M 2834 3397 
L 2834 2853 
Q 2591 2978 2328 3040 
Q 2066 3103 1784 3103 
Q 1356 3103 1142 2972 
Q 928 2841 928 2578 
Q 928 2378 1081 2264 
Q 1234 2150 1697 2047 
L 1894 2003 
Q 2506 1872 2764 1633 
Q 3022 1394 3022 966 
Q 3022 478 2636 193 
Q 2250 -91 1575 -91 
Q 1294 -91 989 -36 
Q 684 19 347 128 
L 347 722 
Q 666 556 975 473 
Q 1284 391 1588 391 
Q 1994 391 2212 530 
Q 2431 669 2431 922 
Q 2431 1156 2273 1281 
Q 2116 1406 1581 1522 
L 1381 1569 
Q 847 1681 609 1914 
Q 372 2147 372 2553 
Q 372 3047 722 3315 
Q 1072 3584 1716 3584 
Q 2034 3584 2315 3537 
Q 2597 3491 2834 3397 
z
" transform="scale(0.015625)"/>
      </defs>
      <use xlink:href="#DejaVuSans-28"/>
      <use xlink:href="#DejaVuSans-61" x="39.013672"/>
      <use xlink:href="#DejaVuSans-76" x="100.292969"/>
      <use xlink:href="#DejaVuSans-67" x="159.472656"/>
      <use xlink:href="#DejaVuSans-2e" x="222.949219"/>
      <use xlink:href="#DejaVuSans-20" x="254.736328"/>
      <use xlink:href="#DejaVuSans-4d" x="286.523438"/>
      <use xlink:href="#DejaVuSans-3d" x="372.802734"/>
      <use xlink:href="#DejaVuSans-34" x="456.591797"/>
      <use xlink:href="#DejaVuSans-29" x="520.214844"/>
      <use xlink:href="#DejaVuSans-20" x="559.228516"/>
      <use xlink:href="#DejaVuSans-70" x="591.015625"/>
      <use xlink:href="#DejaVuSans-72" x="654.492188"/>
      <use xlink:href="#DejaVuSans-65" x="693.355469"/>
      <use xlink:href="#DejaVuSans-73" x="754.878906"/>
      <use xlink:href="#DejaVuSans-73" x="806.978516"/>
      <use xlink:href="#DejaVuSans-75" x="859.078125"/>
      <use xlink:href="#DejaVuSans-72" x="922.457031"/>
      <use xlink:href="#DejaVuSans-65" x="961.320312"/>
      <use xlink:href="#DejaVuSans-20" x="1022.84375"/>
      <use xlink:href="#DejaVuSans-69" x="1054.630859"/>
      <use xlink:href="#DejaVuSans-6e" x="1082.414062"/>
      <use xlink:href="#DejaVuSans-20" x="1145.792969"/>
      <use xlink:href="#DejaVuSans-61" x="1177.580078"/>
      <use xlink:href="#DejaVuSans-2e" x="1238.859375"/>
      <use xlink:href="#DejaVuSans-75" x="1270.646484"/>
      <use xlink:href="#DejaVuSans-2e" x="1334.025391"/>
     </g>
    </g>
   </g>
   <g id="line2d_31">
    <path d="M 73.495232 582.877364 
L 74.08904 604.095863 
L 74.682849 602.008201 
L 76.464273 573.78906 
L 77.058081 570.529072 
L 78.245697 561.489176 
L 78.839505 558.454071 
L 79.433313 556.650135 
L 80.027121 549.399952 
L 81.214738 544.757394 
L 81.808546 543.168697 
L 82.996162 552.069355 
L 83.58997 554.269707 
L 84.183778 557.609098 
L 84.777586 567.267201 
L 85.371394 572.357819 
L 85.965202 573.320092 
L 86.55901 572.370409 
L 87.152819 570.185292 
L 87.746627 570.114956 
L 88.340435 571.186602 
L 88.934243 569.308086 
L 89.528051 566.998235 
L 90.121859 567.337703 
L 90.715667 574.435573 
L 91.309475 584.356842 
L 91.903283 589.184969 
L 92.497091 592.194072 
L 93.0909 593.728183 
L 93.684708 594.760346 
L 94.278516 600.640803 
L 94.872324 601.949412 
L 95.466132 599.238035 
L 96.05994 596.003967 
L 96.653748 590.944756 
L 97.247556 582.063775 
L 97.841364 583.123294 
L 98.435172 591.911041 
L 99.028981 589.388768 
L 99.622789 582.033755 
L 100.810405 571.775216 
L 101.404213 570.395637 
L 101.998021 571.259476 
L 103.185637 557.711334 
L 103.779445 555.515296 
L 104.967061 572.710441 
L 105.56087 579.024021 
L 106.154678 581.535659 
L 107.342294 589.729191 
L 107.936102 589.958746 
L 108.52991 592.48876 
L 109.123718 596.444154 
L 109.717526 596.275755 
L 110.311334 591.127881 
L 110.905142 588.329505 
L 111.498951 582.428234 
L 112.092759 580.907475 
L 112.686567 579.942112 
L 113.280375 576.129757 
L 115.061799 551.196009 
L 115.655607 550.57083 
L 116.843223 558.644641 
L 118.03084 576.904713 
L 118.624648 582.069822 
L 119.218456 588.233941 
L 119.812264 597.658413 
L 120.406072 603.520183 
L 120.99988 602.927195 
L 121.593688 602.031099 
L 122.187496 597.958183 
L 122.781304 596.764677 
L 123.375112 600.41523 
L 123.968921 602.382063 
L 124.562729 600.128181 
L 125.750345 594.10946 
L 126.344153 583.912538 
L 127.531769 568.394267 
L 128.125577 556.167442 
L 128.719385 546.623773 
L 129.313193 540.641003 
L 129.907001 543.094705 
L 130.50081 554.874605 
L 131.094618 570.787332 
L 131.688426 576.66954 
L 132.282234 576.206597 
L 133.46985 586.04806 
L 134.063658 590.064562 
L 134.657466 585.921944 
L 135.845082 561.89023 
L 136.438891 563.663351 
L 137.032699 568.652174 
L 137.626507 570.021819 
L 138.220315 577.103139 
L 138.814123 577.982031 
L 139.407931 573.181854 
L 140.001739 575.765438 
L 140.595547 582.300996 
L 141.189355 584.022176 
L 141.783163 584.896463 
L 142.376972 587.621859 
L 143.564588 580.149949 
L 144.158396 579.242837 
L 145.346012 571.559387 
L 145.93982 572.010633 
L 146.533628 574.240353 
L 147.721244 571.325431 
L 148.315052 571.688306 
L 149.502669 580.980403 
L 150.096477 580.821491 
L 150.690285 573.328675 
L 151.284093 564.13588 
L 151.877901 558.33614 
L 152.471709 561.037033 
L 153.065517 570.669836 
L 153.659325 575.947282 
L 154.253133 578.726847 
L 154.846942 579.423492 
L 155.44075 580.380838 
L 156.034558 580.801153 
L 156.628366 580.834646 
L 157.815982 565.026363 
L 158.40979 566.950754 
L 159.003598 564.983102 
L 160.191214 549.62277 
L 160.785022 551.810812 
L 161.378831 558.299698 
L 161.972639 567.020747 
L 162.566447 567.795625 
L 163.160255 556.774513 
L 163.754063 554.061747 
L 164.941679 576.717034 
L 165.535487 580.205121 
L 166.129295 580.861625 
L 166.723103 582.784026 
L 167.316912 588.487037 
L 168.504528 610.503559 
L 169.098336 613.342099 
L 169.692144 612.419719 
L 170.285952 609.306804 
L 170.87976 602.831601 
L 172.661184 574.916437 
L 173.254993 563.16949 
L 173.848801 555.256988 
L 174.442609 551.095313 
L 175.036417 544.857283 
L 175.630225 543.905926 
L 176.224033 543.825931 
L 176.817841 544.057159 
L 177.411649 546.855511 
L 178.599265 557.041662 
L 179.193073 559.746206 
L 179.786882 564.727049 
L 180.38069 567.990708 
L 180.974498 570.077499 
L 182.162114 575.905615 
L 183.34973 572.777531 
L 183.943538 575.800269 
L 184.537346 582.341567 
L 185.131154 584.885608 
L 186.318771 591.560199 
L 186.912579 589.899452 
L 187.506387 588.933618 
L 188.100195 589.27739 
L 188.694003 586.174495 
L 189.881619 566.475543 
L 190.475427 560.386675 
L 191.069235 557.336827 
L 191.663043 559.911628 
L 192.256852 561.970134 
L 193.444468 559.172545 
L 194.038276 564.559456 
L 194.632084 568.224138 
L 195.225892 569.966482 
L 195.8197 567.99777 
L 196.413508 564.815797 
L 197.007316 560.822922 
L 197.601124 555.438945 
L 198.194933 552.520013 
L 198.788741 555.799641 
L 199.976357 577.669078 
L 200.570165 585.383826 
L 201.163973 586.027485 
L 201.757781 587.137394 
L 202.351589 583.695695 
L 202.945397 581.55284 
L 204.133013 570.692318 
L 204.726822 570.667714 
L 205.32063 572.280832 
L 206.508246 577.747743 
L 207.102054 587.036296 
L 207.695862 593.575934 
L 208.28967 596.95081 
L 208.883478 593.57855 
L 209.477286 585.159626 
L 210.071094 575.109575 
L 210.664903 568.556353 
L 211.258711 567.047735 
L 211.852519 567.660424 
L 212.446327 570.64692 
L 213.040135 575.411562 
L 214.227751 586.579652 
L 214.821559 595.249128 
L 215.415367 602.00123 
L 216.009175 601.17478 
L 218.384408 569.723376 
L 218.978216 565.746998 
L 220.165832 559.589024 
L 220.75964 561.408518 
L 221.353448 564.635547 
L 221.947256 566.868735 
L 223.134873 580.614005 
L 223.728681 581.131117 
L 224.916297 578.779013 
L 225.510105 572.399672 
L 226.103913 573.115971 
L 226.697721 577.537071 
L 227.291529 574.726646 
L 228.479145 561.773074 
L 229.072954 558.16548 
L 229.666762 559.976515 
L 230.26057 567.098211 
L 230.854378 566.506372 
L 231.448186 558.14569 
L 232.041994 554.453267 
L 232.635802 558.406175 
L 233.22961 567.465451 
L 233.823418 574.176283 
L 234.417226 575.163519 
L 235.011034 573.323706 
L 235.604843 574.783832 
L 236.198651 581.11395 
L 236.792459 585.621132 
L 237.386267 585.802723 
L 238.573883 575.700233 
L 239.167691 577.352653 
L 239.761499 580.733908 
L 240.355307 584.976723 
L 240.949115 588.011495 
L 241.542924 589.380298 
L 242.136732 589.007938 
L 242.73054 591.648864 
L 243.324348 596.144854 
L 243.918156 596.723795 
L 244.511964 597.514327 
L 245.105772 597.966086 
L 245.69958 593.251815 
L 246.293388 586.841835 
L 246.887196 587.604704 
L 247.481004 584.759602 
L 248.074813 577.499146 
L 249.262429 567.27583 
L 250.450045 554.797525 
L 251.043853 552.979057 
L 251.637661 549.353792 
L 252.231469 553.526219 
L 252.825277 559.099621 
L 253.419085 558.49886 
L 254.012894 558.575623 
L 255.20051 569.507508 
L 255.794318 569.657238 
L 256.981934 575.359201 
L 258.16955 581.78728 
L 258.763358 583.205444 
L 259.357166 578.769275 
L 259.950975 575.565885 
L 260.544783 576.176622 
L 262.326207 552.463376 
L 262.920015 551.765458 
L 263.513823 558.921998 
L 264.701439 579.129119 
L 265.295247 587.004461 
L 265.889055 597.769094 
L 267.076672 607.677588 
L 267.67048 609.948885 
L 268.264288 604.485824 
L 268.858096 595.782904 
L 269.451904 590.700154 
L 270.045712 587.44741 
L 270.63952 586.407983 
L 271.233328 586.22027 
L 271.827136 583.913403 
L 272.420945 578.719172 
L 273.014753 579.488555 
L 273.608561 582.722244 
L 274.202369 580.102132 
L 274.796177 578.365043 
L 275.389985 577.962547 
L 275.983793 578.435284 
L 276.577601 577.526567 
L 277.171409 576.119785 
L 277.765217 575.018977 
L 278.359025 575.607233 
L 278.952834 576.461931 
L 279.546642 577.874799 
L 280.14045 574.811139 
L 280.734258 566.813696 
L 281.328066 569.212551 
L 281.921874 576.396166 
L 282.515682 579.0775 
L 283.10949 579.206631 
L 283.703298 582.074782 
L 284.297106 583.886169 
L 284.890915 587.483434 
L 285.484723 596.772076 
L 286.078531 598.467858 
L 286.672339 594.109644 
L 287.266147 592.862545 
L 287.859955 592.650687 
L 288.453763 591.032238 
L 289.641379 573.756803 
L 290.235187 564.628408 
L 290.828996 557.617033 
L 292.016612 546.699712 
L 292.61042 540.197147 
L 293.204228 537.627559 
L 293.798036 543.673318 
L 294.391844 554.823881 
L 294.985652 561.990234 
L 296.173268 569.556256 
L 296.767076 573.364255 
L 298.548501 590.367369 
L 299.142309 587.477801 
L 299.736117 586.42814 
L 300.329925 590.578179 
L 300.923733 597.257106 
L 301.517541 599.088589 
L 302.111349 593.044646 
L 302.705157 582.092604 
L 303.298966 573.217662 
L 303.892774 577.633193 
L 304.486582 583.141745 
L 305.08039 584.667029 
L 305.674198 584.04943 
L 306.268006 584.755318 
L 306.861814 593.399299 
L 307.455622 604.62861 
L 308.04943 612.968128 
L 308.643238 612.24537 
L 309.830855 604.526226 
L 310.424663 600.348086 
L 311.018471 598.098199 
L 313.393703 573.230933 
L 313.987511 562.035273 
L 314.581319 553.371393 
L 315.175127 547.732668 
L 315.768936 543.299122 
L 316.362744 543.253756 
L 316.956552 548.106045 
L 317.55036 551.836006 
L 318.144168 558.649009 
L 319.331784 587.085646 
L 319.925592 595.645997 
L 320.5194 601.035311 
L 321.113208 604.084166 
L 322.894633 594.21394 
L 323.488441 586.536803 
L 324.082249 574.719781 
L 324.676057 558.36363 
L 325.269865 550.102594 
L 325.863673 548.727419 
L 326.457481 549.531761 
L 327.051289 548.581584 
L 327.645097 547.276954 
L 328.238906 550.249599 
L 328.832714 555.963038 
L 329.426522 570.370107 
L 330.02033 577.394299 
L 330.614138 575.75175 
L 331.207946 576.699605 
L 331.801754 580.885175 
L 332.395562 587.287464 
L 333.583178 590.341321 
L 334.176987 593.786764 
L 334.770795 598.855184 
L 335.364603 605.838983 
L 335.958411 610.248096 
L 336.552219 613.434966 
L 338.333643 608.344634 
L 338.927451 603.83852 
L 339.521259 601.549975 
L 340.115067 600.279938 
L 340.708876 599.404046 
L 341.302684 599.546828 
L 341.896492 600.246343 
L 342.4903 598.437979 
L 343.084108 602.258243 
L 343.677916 606.997285 
L 344.271724 609.276334 
L 344.865532 612.111714 
L 345.45934 612.064722 
L 346.053148 609.593706 
L 346.646957 605.52873 
L 347.240765 603.655192 
L 349.615997 579.266751 
L 350.209805 572.422313 
L 350.803613 561.657666 
L 351.397421 560.836799 
L 351.991229 565.78649 
L 352.585037 569.571134 
L 353.178846 571.895824 
L 353.772654 573.43504 
L 354.96027 582.148408 
L 355.554078 589.12984 
L 356.147886 591.553664 
L 356.741694 595.20588 
L 357.335502 601.755043 
L 357.92931 606.582247 
L 358.523118 604.985255 
L 360.304543 578.037063 
L 360.898351 571.005941 
L 362.085967 552.261364 
L 362.679775 540.665028 
L 363.273583 538.600982 
L 364.461199 551.840305 
L 365.055007 561.815944 
L 365.648816 569.003198 
L 366.242624 570.81386 
L 366.836432 569.599178 
L 368.617856 589.419504 
L 369.211664 592.660123 
L 369.805472 592.287583 
L 370.39928 592.889228 
L 370.993088 596.975428 
L 371.586897 604.334514 
L 372.180705 606.288344 
L 372.774513 604.005761 
L 373.368321 600.311725 
L 373.962129 599.810703 
L 374.555937 601.588568 
L 375.149745 601.1926 
L 375.743553 597.972675 
L 376.337361 593.547468 
L 376.931169 594.015838 
L 377.524978 595.840682 
L 378.118786 596.049064 
L 378.712594 595.83135 
L 379.306402 596.354002 
L 379.90021 597.995357 
L 380.494018 601.813269 
L 381.087826 606.536673 
L 381.681634 603.089844 
L 382.275442 597.950246 
L 382.86925 594.646716 
L 384.650675 578.303093 
L 385.244483 576.573903 
L 385.838291 576.490115 
L 386.432099 579.982253 
L 387.025907 581.263626 
L 387.619715 578.251003 
L 388.213523 573.491385 
L 388.807331 570.054302 
L 389.401139 571.228752 
L 389.994948 569.787128 
L 390.588756 567.324752 
L 391.182564 565.615102 
L 391.776372 566.528723 
L 392.37018 570.84845 
L 392.963988 581.863501 
L 393.557796 590.751886 
L 394.151604 593.588319 
L 394.745412 594.068146 
L 395.33922 593.82194 
L 395.933028 593.106318 
L 396.526837 595.648188 
L 397.120645 597.591325 
L 397.714453 596.280755 
L 398.308261 596.381757 
L 398.902069 597.996767 
L 399.495877 601.65138 
L 400.683493 614.94788 
L 401.871109 622.022762 
L 402.464918 624.945743 
L 403.058726 619.656598 
L 403.652534 618.810144 
L 404.84015 611.099149 
L 405.433958 600.154328 
L 406.027766 585.572621 
L 407.215382 563.686121 
L 407.80919 562.550167 
L 408.402999 559.732231 
L 409.590615 559.822671 
L 410.184423 566.866996 
L 410.778231 579.737289 
L 411.372039 588.333403 
L 411.965847 592.979048 
L 412.559655 595.958438 
L 413.153463 593.539804 
L 413.747271 590.415312 
L 414.341079 588.301318 
L 414.934888 586.665735 
L 415.528696 581.13424 
L 416.122504 576.927644 
L 416.716312 576.992217 
L 417.31012 576.015458 
L 417.903928 577.00616 
L 419.091544 570.516422 
L 419.685352 571.361302 
L 420.27916 570.067751 
L 420.872969 566.875945 
L 421.466777 566.864862 
L 422.060585 566.404194 
L 422.654393 566.59342 
L 423.248201 570.735425 
L 423.842009 571.206036 
L 424.435817 565.653665 
L 425.029625 566.587643 
L 425.623433 568.953681 
L 426.217241 568.979695 
L 426.811049 569.338275 
L 427.404858 570.336817 
L 427.998666 570.259359 
L 428.592474 569.789698 
L 429.186282 571.422956 
L 429.78009 569.774514 
L 430.373898 566.757514 
L 430.967706 568.791966 
L 432.155322 574.047871 
L 432.74913 579.060575 
L 433.342939 582.181213 
L 433.936747 582.936599 
L 434.530555 589.846295 
L 435.124363 599.526821 
L 436.311979 605.20702 
L 436.905787 606.304394 
L 437.499595 603.881779 
L 438.093403 606.81022 
L 438.687211 607.695273 
L 439.874828 591.126301 
L 440.468636 579.001806 
L 441.062444 563.589669 
L 441.656252 557.776805 
L 442.25006 554.713398 
L 442.843868 550.521439 
L 443.437676 547.833939 
L 444.031484 549.185841 
L 444.625292 553.412322 
L 445.812909 575.547776 
L 447.000525 570.331008 
L 447.594333 565.403589 
L 448.188141 564.99302 
L 448.781949 566.621656 
L 449.375757 561.754954 
L 449.969565 554.987028 
L 450.563373 555.478276 
L 452.344798 574.760055 
L 452.938606 579.165257 
L 453.532414 582.506135 
L 454.72003 594.743919 
L 455.907646 598.408339 
L 456.501454 598.163738 
L 457.095262 594.249032 
L 457.68907 587.926743 
L 458.282879 584.479515 
L 459.470495 573.581 
L 460.064303 571.626666 
L 460.658111 570.494913 
L 461.251919 572.537748 
L 461.845727 578.456881 
L 462.439535 587.672098 
L 463.033343 591.176022 
L 464.22096 601.400758 
L 464.22096 601.400758 
" clip-path="url(#pcc7497b909)" style="fill: none; stroke: #1f77b4; stroke-width: 1.5; stroke-linecap: square"/>
   </g>
   <g id="line2d_32">
    <path d="M 71.12 578.818066 
L 467.19 578.818066 
" clip-path="url(#pcc7497b909)" style="fill: none; stroke: #ff0000; stroke-opacity: 0.3; stroke-width: 1.5; stroke-linecap: square"/>
   </g>
   <g id="patch_8">
    <path d="M 71.12 667.24 
L 71.12 385.08 
" style="fill: none; stroke: #000000; stroke-width: 0.8; stroke-linejoin: miter; stroke-linecap: square"/>
   </g>
   <g id="patch_9">
    <path d="M 467.19 667.24 
L 467.19 385.08 
" style="fill: none; stroke: #000000; stroke-width: 0.8; stroke-linejoin: miter; stroke-linecap: square"/>
   </g>
   <g id="patch_10">
    <path d="M 71.12 667.24 
L 467.19 667.24 
" style="fill: none; stroke: #000000; stroke-width: 0.8; stroke-linejoin: miter; stroke-linecap: square"/>
   </g>
   <g id="patch_11">
    <path d="M 71.12 385.08 
L 467.19 385.08 
" style="fill: none; stroke: #000000; stroke-width: 0.8; stroke-linejoin: miter; stroke-linecap: square"/>
   </g>
   <g id="text_34">
    <!-- Pressure -->
    <g transform="translate(232.27165 379.08) scale(0.1728 -0.1728)">
     <defs>
      <path id="DejaVuSans-50" d="M 1259 4147 
L 1259 2394 
L 2053 2394 
Q 2494 2394 2734 2622 
Q 2975 2850 2975 3272 
Q 2975 3691 2734 3919 
Q 2494 4147 2053 4147 
L 1259 4147 
z
M 628 4666 
L 2053 4666 
Q 2838 4666 3239 4311 
Q 3641 3956 3641 3272 
Q 3641 2581 3239 2228 
Q 2838 1875 2053 1875 
L 1259 1875 
L 1259 0 
L 628 0 
L 628 4666 
z
" transform="scale(0.015625)"/>
     </defs>
     <use xlink:href="#DejaVuSans-50"/>
     <use xlink:href="#DejaVuSans-72" x="58.552734"/>
     <use xlink:href="#DejaVuSans-65" x="97.416016"/>
     <use xlink:href="#DejaVuSans-73" x="158.939453"/>
     <use xlink:href="#DejaVuSans-73" x="211.039062"/>
     <use xlink:href="#DejaVuSans-75" x="263.138672"/>
     <use xlink:href="#DejaVuSans-72" x="326.517578"/>
     <use xlink:href="#DejaVuSans-65" x="365.380859"/>
    </g>
   </g>
  </g>
  <g id="axes_3">
   <g id="patch_12">
    <path d="M 529.13 667.24 
L 925.2 667.24 
L 925.2 385.08 
L 529.13 385.08 
z
" style="fill: #ffffff"/>
   </g>
   <g id="matplotlib.axis_5">
    <g id="xtick_15">
     <g id="line2d_33">
      <g>
       <use xlink:href="#m9d37dbc770" x="529.13" y="667.24" style="stroke: #000000; stroke-width: 0.8"/>
      </g>
     </g>
     <g id="text_35">
      <!-- 0 -->
      <g transform="translate(524.549 685.18175) scale(0.144 -0.144)">
       <use xlink:href="#DejaVuSans-30"/>
      </g>
     </g>
    </g>
    <g id="xtick_16">
     <g id="line2d_34">
      <g>
       <use xlink:href="#m9d37dbc770" x="588.51081" y="667.24" style="stroke: #000000; stroke-width: 0.8"/>
      </g>
     </g>
     <g id="text_36">
      <!-- 1 -->
      <g transform="translate(583.92981 685.18175) scale(0.144 -0.144)">
       <use xlink:href="#DejaVuSans-31"/>
      </g>
     </g>
    </g>
    <g id="xtick_17">
     <g id="line2d_35">
      <g>
       <use xlink:href="#m9d37dbc770" x="647.891619" y="667.24" style="stroke: #000000; stroke-width: 0.8"/>
      </g>
     </g>
     <g id="text_37">
      <!-- 2 -->
      <g transform="translate(643.310619 685.18175) scale(0.144 -0.144)">
       <use xlink:href="#DejaVuSans-32"/>
      </g>
     </g>
    </g>
    <g id="xtick_18">
     <g id="line2d_36">
      <g>
       <use xlink:href="#m9d37dbc770" x="707.272429" y="667.24" style="stroke: #000000; stroke-width: 0.8"/>
      </g>
     </g>
     <g id="text_38">
      <!-- 3 -->
      <g transform="translate(702.691429 685.18175) scale(0.144 -0.144)">
       <use xlink:href="#DejaVuSans-33"/>
      </g>
     </g>
    </g>
    <g id="xtick_19">
     <g id="line2d_37">
      <g>
       <use xlink:href="#m9d37dbc770" x="766.653238" y="667.24" style="stroke: #000000; stroke-width: 0.8"/>
      </g>
     </g>
     <g id="text_39">
      <!-- 4 -->
      <g transform="translate(762.072238 685.18175) scale(0.144 -0.144)">
       <use xlink:href="#DejaVuSans-34"/>
      </g>
     </g>
    </g>
    <g id="xtick_20">
     <g id="line2d_38">
      <g>
       <use xlink:href="#m9d37dbc770" x="826.034048" y="667.24" style="stroke: #000000; stroke-width: 0.8"/>
      </g>
     </g>
     <g id="text_40">
      <!-- 5 -->
      <g transform="translate(821.453048 685.18175) scale(0.144 -0.144)">
       <use xlink:href="#DejaVuSans-35"/>
      </g>
     </g>
    </g>
    <g id="xtick_21">
     <g id="line2d_39">
      <g>
       <use xlink:href="#m9d37dbc770" x="885.414858" y="667.24" style="stroke: #000000; stroke-width: 0.8"/>
      </g>
     </g>
     <g id="text_41">
      <!-- 6 -->
      <g transform="translate(880.833858 685.18175) scale(0.144 -0.144)">
       <use xlink:href="#DejaVuSans-36"/>
      </g>
     </g>
    </g>
    <g id="text_42">
     <!-- time in a.u. -->
     <g transform="translate(678.01555 705.3066) scale(0.1728 -0.1728)">
      <use xlink:href="#DejaVuSans-74"/>
      <use xlink:href="#DejaVuSans-69" x="39.208984"/>
      <use xlink:href="#DejaVuSans-6d" x="66.992188"/>
      <use xlink:href="#DejaVuSans-65" x="164.404297"/>
      <use xlink:href="#DejaVuSans-20" x="225.927734"/>
      <use xlink:href="#DejaVuSans-69" x="257.714844"/>
      <use xlink:href="#DejaVuSans-6e" x="285.498047"/>
      <use xlink:href="#DejaVuSans-20" x="348.876953"/>
      <use xlink:href="#DejaVuSans-61" x="380.664062"/>
      <use xlink:href="#DejaVuSans-2e" x="441.943359"/>
      <use xlink:href="#DejaVuSans-75" x="473.730469"/>
      <use xlink:href="#DejaVuSans-2e" x="537.109375"/>
     </g>
    </g>
   </g>
   <g id="matplotlib.axis_6">
    <g id="ytick_15">
     <g id="line2d_40">
      <g>
       <use xlink:href="#m18f2aca431" x="529.13" y="648.680061" style="stroke: #000000; stroke-width: 0.8"/>
      </g>
     </g>
     <g id="text_43">
      <!-- 1.8 -->
      <g transform="translate(499.2295 654.150936) scale(0.144 -0.144)">
       <use xlink:href="#DejaVuSans-31"/>
       <use xlink:href="#DejaVuSans-2e" x="63.623047"/>
       <use xlink:href="#DejaVuSans-38" x="95.410156"/>
      </g>
     </g>
    </g>
    <g id="ytick_16">
     <g id="line2d_41">
      <g>
       <use xlink:href="#m18f2aca431" x="529.13" y="599.248635" style="stroke: #000000; stroke-width: 0.8"/>
      </g>
     </g>
     <g id="text_44">
      <!-- 2.0 -->
      <g transform="translate(499.2295 604.71951) scale(0.144 -0.144)">
       <use xlink:href="#DejaVuSans-32"/>
       <use xlink:href="#DejaVuSans-2e" x="63.623047"/>
       <use xlink:href="#DejaVuSans-30" x="95.410156"/>
      </g>
     </g>
    </g>
    <g id="ytick_17">
     <g id="line2d_42">
      <g>
       <use xlink:href="#m18f2aca431" x="529.13" y="549.817209" style="stroke: #000000; stroke-width: 0.8"/>
      </g>
     </g>
     <g id="text_45">
      <!-- 2.2 -->
      <g transform="translate(499.2295 555.288084) scale(0.144 -0.144)">
       <use xlink:href="#DejaVuSans-32"/>
       <use xlink:href="#DejaVuSans-2e" x="63.623047"/>
       <use xlink:href="#DejaVuSans-32" x="95.410156"/>
      </g>
     </g>
    </g>
    <g id="ytick_18">
     <g id="line2d_43">
      <g>
       <use xlink:href="#m18f2aca431" x="529.13" y="500.385783" style="stroke: #000000; stroke-width: 0.8"/>
      </g>
     </g>
     <g id="text_46">
      <!-- 2.4 -->
      <g transform="translate(499.2295 505.856658) scale(0.144 -0.144)">
       <use xlink:href="#DejaVuSans-32"/>
       <use xlink:href="#DejaVuSans-2e" x="63.623047"/>
       <use xlink:href="#DejaVuSans-34" x="95.410156"/>
      </g>
     </g>
    </g>
    <g id="ytick_19">
     <g id="line2d_44">
      <g>
       <use xlink:href="#m18f2aca431" x="529.13" y="450.954357" style="stroke: #000000; stroke-width: 0.8"/>
      </g>
     </g>
     <g id="text_47">
      <!-- 2.6 -->
      <g transform="translate(499.2295 456.425232) scale(0.144 -0.144)">
       <use xlink:href="#DejaVuSans-32"/>
       <use xlink:href="#DejaVuSans-2e" x="63.623047"/>
       <use xlink:href="#DejaVuSans-36" x="95.410156"/>
      </g>
     </g>
    </g>
    <g id="ytick_20">
     <g id="line2d_45">
      <g>
       <use xlink:href="#m18f2aca431" x="529.13" y="401.522931" style="stroke: #000000; stroke-width: 0.8"/>
      </g>
     </g>
     <g id="text_48">
      <!-- 2.8 -->
      <g transform="translate(499.2295 406.993806) scale(0.144 -0.144)">
       <use xlink:href="#DejaVuSans-32"/>
       <use xlink:href="#DejaVuSans-2e" x="63.623047"/>
       <use xlink:href="#DejaVuSans-38" x="95.410156"/>
      </g>
     </g>
    </g>
    <g id="text_49">
     <!-- (avg. M=4) temperature in a.u. -->
     <g transform="translate(491.6358 661.15865) rotate(-90) scale(0.1728 -0.1728)">
      <use xlink:href="#DejaVuSans-28"/>
      <use xlink:href="#DejaVuSans-61" x="39.013672"/>
      <use xlink:href="#DejaVuSans-76" x="100.292969"/>
      <use xlink:href="#DejaVuSans-67" x="159.472656"/>
      <use xlink:href="#DejaVuSans-2e" x="222.949219"/>
      <use xlink:href="#DejaVuSans-20" x="254.736328"/>
      <use xlink:href="#DejaVuSans-4d" x="286.523438"/>
      <use xlink:href="#DejaVuSans-3d" x="372.802734"/>
      <use xlink:href="#DejaVuSans-34" x="456.591797"/>
      <use xlink:href="#DejaVuSans-29" x="520.214844"/>
      <use xlink:href="#DejaVuSans-20" x="559.228516"/>
      <use xlink:href="#DejaVuSans-74" x="591.015625"/>
      <use xlink:href="#DejaVuSans-65" x="630.224609"/>
      <use xlink:href="#DejaVuSans-6d" x="691.748047"/>
      <use xlink:href="#DejaVuSans-70" x="789.160156"/>
      <use xlink:href="#DejaVuSans-65" x="852.636719"/>
      <use xlink:href="#DejaVuSans-72" x="914.160156"/>
      <use xlink:href="#DejaVuSans-61" x="955.273438"/>
      <use xlink:href="#DejaVuSans-74" x="1016.552734"/>
      <use xlink:href="#DejaVuSans-75" x="1055.761719"/>
      <use xlink:href="#DejaVuSans-72" x="1119.140625"/>
      <use xlink:href="#DejaVuSans-65" x="1158.003906"/>
      <use xlink:href="#DejaVuSans-20" x="1219.527344"/>
      <use xlink:href="#DejaVuSans-69" x="1251.314453"/>
      <use xlink:href="#DejaVuSans-6e" x="1279.097656"/>
      <use xlink:href="#DejaVuSans-20" x="1342.476562"/>
      <use xlink:href="#DejaVuSans-61" x="1374.263672"/>
      <use xlink:href="#DejaVuSans-2e" x="1435.542969"/>
      <use xlink:href="#DejaVuSans-75" x="1467.330078"/>
      <use xlink:href="#DejaVuSans-2e" x="1530.708984"/>
     </g>
    </g>
   </g>
   <g id="line2d_46">
    <path d="M 531.505232 572.218383 
L 532.09904 597.488168 
L 532.692849 605.930176 
L 533.286657 606.475635 
L 533.880465 604.2961 
L 534.474273 601.644961 
L 535.068081 598.16618 
L 535.661889 599.324863 
L 536.255697 599.470002 
L 537.443313 597.730679 
L 538.037121 601.830218 
L 538.63093 598.422042 
L 539.224738 599.606472 
L 539.818546 600.211547 
L 540.412354 596.820645 
L 541.006162 597.6945 
L 541.59997 599.360464 
L 542.193778 598.71988 
L 542.787586 594.392439 
L 543.381394 597.515529 
L 543.975202 599.247547 
L 544.56901 599.400472 
L 545.162819 599.730861 
L 545.756627 598.194861 
L 546.350435 597.613003 
L 546.944243 599.952538 
L 547.538051 600.698865 
L 548.131859 600.083484 
L 548.725667 596.825187 
L 549.319475 595.959307 
L 549.913283 599.657106 
L 551.1009 600.66342 
L 551.694708 600.700201 
L 552.288516 596.766013 
L 552.882324 599.131659 
L 553.476132 600.312073 
L 554.06994 599.363157 
L 554.663748 600.011224 
L 555.257556 602.830971 
L 555.851364 596.324811 
L 556.445172 591.51639 
L 557.038981 599.243509 
L 557.632789 601.512568 
L 558.226597 599.792931 
L 558.820405 600.513549 
L 559.414213 598.285997 
L 560.008021 596.969182 
L 560.601829 602.42259 
L 561.195637 603.263841 
L 561.789445 601.195791 
L 562.383253 595.251923 
L 562.977061 596.138842 
L 563.57087 597.843286 
L 564.164678 600.319842 
L 564.758486 598.939482 
L 565.352294 598.599411 
L 565.946102 600.769373 
L 566.53991 598.546937 
L 567.133718 597.246341 
L 568.321334 602.017335 
L 568.915142 599.519649 
L 569.508951 601.766474 
L 570.102759 598.639806 
L 570.696567 598.58286 
L 571.290375 600.201366 
L 571.884183 602.801581 
L 572.477991 603.406006 
L 573.071799 601.968373 
L 573.665607 598.852287 
L 574.259415 597.050159 
L 574.853223 598.498735 
L 575.447031 595.351231 
L 576.04084 595.993085 
L 576.634648 598.643573 
L 577.228456 597.676849 
L 577.822264 595.34821 
L 578.416072 597.596634 
L 579.00988 601.243106 
L 579.603688 600.440253 
L 580.197496 602.407453 
L 580.791304 600.138802 
L 581.385112 596.893779 
L 581.978921 598.156072 
L 582.572729 600.418681 
L 583.166537 599.929605 
L 583.760345 598.491418 
L 584.354153 602.795266 
L 584.947961 599.802401 
L 585.541769 599.776241 
L 586.135577 602.817558 
L 586.729385 601.459319 
L 587.323193 600.937926 
L 587.917001 597.471395 
L 588.51081 593.146552 
L 589.104618 591.229567 
L 589.698426 598.094315 
L 590.292234 601.646395 
L 590.886042 597.226608 
L 591.47985 597.652704 
L 592.073658 596.584169 
L 593.261274 605.236045 
L 593.855082 604.790842 
L 594.448891 596.996561 
L 595.042699 596.836325 
L 595.636507 600.335442 
L 596.230315 596.245474 
L 596.824123 600.802012 
L 597.417931 604.308534 
L 598.011739 598.901839 
L 598.605547 596.526646 
L 599.199355 599.765725 
L 599.793163 599.535662 
L 600.386972 597.343135 
L 600.98078 600.932286 
L 601.574588 600.556404 
L 602.168396 598.232258 
L 602.762204 600.350951 
L 603.356012 600.620861 
L 603.94982 597.704437 
L 604.543628 596.794874 
L 605.137436 599.670618 
L 605.731244 599.995893 
L 606.325052 599.513071 
L 606.918861 596.984804 
L 607.512669 597.273262 
L 608.106477 599.599765 
L 608.700285 603.631895 
L 609.294093 604.117231 
L 609.887901 602.284626 
L 610.481709 597.385098 
L 611.075517 593.472179 
L 611.669325 596.780196 
L 612.856942 599.13055 
L 613.45075 599.029416 
L 614.044558 599.681081 
L 614.638366 599.609339 
L 615.232174 605.591076 
L 615.825982 604.431736 
L 616.41979 598.210739 
L 617.013598 601.192365 
L 617.607406 604.774046 
L 618.201214 604.507257 
L 618.795022 598.256472 
L 619.982639 594.364375 
L 620.576447 599.074471 
L 621.170255 606.817506 
L 621.764063 601.310289 
L 622.357871 592.944216 
L 622.951679 593.827496 
L 623.545487 598.966667 
L 624.139295 600.435041 
L 624.733103 599.855275 
L 625.326912 598.060649 
L 625.92072 594.182601 
L 626.514528 595.600518 
L 627.108336 599.50086 
L 627.702144 600.513901 
L 628.295952 600.56232 
L 629.483568 602.223973 
L 630.077376 599.982705 
L 630.671184 600.895316 
L 631.264993 601.601173 
L 631.858801 599.258616 
L 632.452609 597.575731 
L 633.046417 600.152967 
L 633.640225 597.283545 
L 634.827841 598.850598 
L 636.015457 597.108746 
L 636.609265 598.151586 
L 637.203073 600.105299 
L 637.796882 598.583489 
L 638.39069 599.797662 
L 638.984498 600.428846 
L 639.578306 599.800481 
L 640.172114 599.56278 
L 640.765922 602.720395 
L 641.35973 602.390166 
L 641.953538 599.202342 
L 642.547346 596.758114 
L 643.141154 599.426869 
L 643.734963 597.79681 
L 644.328771 597.679561 
L 644.922579 600.321426 
L 646.110195 597.060143 
L 646.704003 598.602829 
L 647.297811 602.872716 
L 647.891619 602.467291 
L 648.485427 601.172916 
L 649.079235 600.316657 
L 649.673043 597.155552 
L 650.266852 598.139158 
L 650.86066 600.824381 
L 651.454468 601.050769 
L 652.048276 596.609315 
L 652.642084 597.922622 
L 653.235892 598.25572 
L 653.8297 600.024189 
L 654.423508 600.378341 
L 655.017316 601.012466 
L 655.611124 602.286837 
L 656.204933 601.175063 
L 656.798741 598.130173 
L 657.392549 593.711691 
L 658.580165 596.082881 
L 659.173973 599.871974 
L 659.767781 598.077258 
L 660.361589 600.798821 
L 660.955397 599.301941 
L 661.549205 601.888948 
L 662.143013 601.371684 
L 662.736822 598.549717 
L 663.924438 598.091378 
L 664.518246 598.634716 
L 665.112054 593.83779 
L 665.705862 595.722278 
L 666.29967 596.822031 
L 666.893478 600.348319 
L 667.487286 602.872854 
L 668.081094 603.785127 
L 668.674903 601.935394 
L 669.268711 599.526619 
L 669.862519 599.244309 
L 671.050135 597.644098 
L 671.643943 597.066675 
L 672.237751 597.213487 
L 672.831559 594.544626 
L 673.425367 595.211118 
L 674.612984 602.458503 
L 675.206792 600.791118 
L 675.8006 601.600901 
L 676.394408 603.773032 
L 676.988216 599.88796 
L 677.582024 600.432662 
L 678.175832 601.224332 
L 678.76964 598.69676 
L 679.363448 598.61218 
L 679.957256 599.624034 
L 680.551064 596.584756 
L 681.144873 595.915123 
L 681.738681 600.057115 
L 682.332489 599.96442 
L 682.926297 599.040621 
L 683.520105 602.359383 
L 684.113913 597.135595 
L 684.707721 594.850696 
L 685.301529 599.603616 
L 685.895337 601.229742 
L 686.489145 601.471973 
L 687.082954 600.340895 
L 688.27057 595.179726 
L 689.458186 605.928431 
L 690.051994 602.93988 
L 690.645802 598.996645 
L 691.23961 596.423451 
L 691.833418 598.007007 
L 692.427226 601.160535 
L 693.021034 602.485587 
L 693.614843 600.143445 
L 694.208651 597.007666 
L 694.802459 598.143191 
L 695.396267 600.089017 
L 695.990075 602.800732 
L 696.583883 602.24107 
L 697.177691 597.971671 
L 697.771499 597.342831 
L 698.365307 596.522503 
L 698.959115 597.034621 
L 699.552924 597.865746 
L 700.146732 599.025469 
L 700.74054 597.034005 
L 701.334348 595.97318 
L 701.928156 598.708488 
L 702.521964 598.048544 
L 703.115772 597.922889 
L 703.70958 601.145574 
L 704.303388 601.792588 
L 704.897196 596.345056 
L 706.084813 601.279796 
L 706.678621 598.954528 
L 707.272429 599.53391 
L 707.866237 600.681062 
L 708.460045 600.682638 
L 709.053853 598.702974 
L 709.647661 601.209299 
L 710.241469 596.639061 
L 710.835277 596.840279 
L 711.429085 601.626918 
L 712.022894 601.126545 
L 712.616702 597.589135 
L 713.21051 597.361688 
L 713.804318 601.063713 
L 714.398126 598.79197 
L 714.991934 598.390177 
L 715.585742 597.565503 
L 716.17955 596.998759 
L 716.773358 597.286092 
L 717.367166 600.767133 
L 717.960975 599.30109 
L 718.554783 596.39598 
L 719.148591 602.712168 
L 719.742399 602.728218 
L 720.336207 603.179941 
L 721.523823 596.499108 
L 722.117631 595.900649 
L 722.711439 596.487101 
L 723.305247 598.140566 
L 723.899055 595.284229 
L 724.492864 598.336784 
L 725.086672 597.681219 
L 725.68048 597.730047 
L 726.274288 601.671686 
L 726.868096 602.695898 
L 727.461904 599.662459 
L 728.055712 598.625149 
L 728.64952 597.308112 
L 729.243328 596.864108 
L 729.837136 598.443361 
L 730.430945 600.832318 
L 731.024753 597.127889 
L 731.618561 596.048045 
L 732.212369 600.326974 
L 732.806177 599.321552 
L 733.399985 598.689382 
L 733.993793 598.384306 
L 734.587601 599.502989 
L 735.181409 599.676852 
L 735.775217 599.286928 
L 736.369025 598.124728 
L 736.962834 598.197128 
L 737.556642 597.751837 
L 738.15045 600.636512 
L 738.744258 604.165329 
L 739.338066 597.415658 
L 739.931874 595.234236 
L 740.525682 598.789189 
L 741.11949 600.360858 
L 741.713298 598.42728 
L 742.307106 599.607144 
L 742.900915 598.548354 
L 743.494723 594.334912 
L 744.088531 599.101057 
L 744.682339 601.989984 
L 745.276147 598.908714 
L 745.869955 597.865445 
L 746.463763 598.094343 
L 747.057571 601.758872 
L 747.651379 601.772372 
L 748.245187 601.499499 
L 748.838996 600.169572 
L 749.432804 599.267335 
L 750.62042 600.879383 
L 751.214228 599.131589 
L 751.808036 594.815539 
L 752.401844 593.048906 
L 752.995652 597.049497 
L 753.58946 599.610782 
L 754.183268 600.696627 
L 754.777076 601.071954 
L 755.370885 600.172678 
L 755.964693 599.754437 
L 756.558501 600.615991 
L 757.152309 604.801202 
L 757.746117 602.484059 
L 758.339925 598.429226 
L 758.933733 596.059214 
L 759.527541 598.444127 
L 760.121349 602.61923 
L 760.715157 605.234415 
L 761.308966 604.344438 
L 761.902774 596.242956 
L 762.496582 596.995967 
L 763.09039 600.094122 
L 763.684198 601.617327 
L 764.278006 601.161037 
L 764.871814 596.220731 
L 765.465622 594.826789 
L 766.05943 595.731868 
L 766.653238 600.098332 
L 767.247046 599.922481 
L 767.840855 598.824522 
L 768.434663 598.050563 
L 769.028471 596.04236 
L 769.622279 598.650414 
L 770.216087 598.539444 
L 770.809895 596.830765 
L 771.403703 598.411507 
L 771.997511 602.034044 
L 772.591319 600.931862 
L 773.185127 600.13687 
L 773.778936 600.673133 
L 774.966552 596.724622 
L 775.56036 598.711856 
L 776.154168 597.458614 
L 776.747976 592.148989 
L 777.935592 596.403455 
L 778.5294 597.26324 
L 779.123208 597.355404 
L 779.717016 600.320358 
L 780.310825 598.910075 
L 780.904633 598.202022 
L 782.092249 602.411728 
L 782.686057 605.844276 
L 783.279865 601.436411 
L 783.873673 598.87924 
L 784.467481 599.247984 
L 785.061289 601.768044 
L 785.655097 602.832447 
L 786.248906 600.60315 
L 786.842714 599.571308 
L 787.436522 593.59864 
L 788.624138 603.340334 
L 789.811754 598.298311 
L 790.405562 596.596413 
L 790.99937 599.980106 
L 791.593178 599.90265 
L 792.780795 598.466411 
L 793.374603 597.297424 
L 793.968411 598.977656 
L 794.562219 599.100555 
L 795.156027 601.961784 
L 795.749835 601.047598 
L 796.343643 600.539254 
L 796.937451 601.845483 
L 797.531259 599.574647 
L 798.125067 598.533561 
L 798.718876 597.938471 
L 799.312684 597.065566 
L 799.906492 596.622526 
L 800.5003 598.561466 
L 801.094108 594.656538 
L 801.687916 594.500599 
L 802.281724 596.31315 
L 802.875532 595.720946 
L 803.46934 597.615257 
L 804.063148 598.913942 
L 804.656957 599.851677 
L 805.250765 598.188545 
L 805.844573 601.264895 
L 806.438381 601.267962 
L 807.032189 600.815346 
L 807.625997 602.04127 
L 808.219805 601.797827 
L 808.813613 605.150415 
L 809.407421 598.907927 
L 810.001229 596.21561 
L 810.595037 597.433565 
L 811.188846 598.17044 
L 811.782654 598.704312 
L 812.376462 597.413409 
L 812.97027 598.019503 
L 813.564078 596.970117 
L 814.157886 600.708142 
L 814.751694 599.856353 
L 815.345502 597.943576 
L 815.93931 598.626685 
L 816.533118 601.669945 
L 817.126927 605.551701 
L 817.720735 603.695655 
L 818.314543 603.200137 
L 818.908351 601.662549 
L 820.095967 603.740255 
L 820.689775 605.569085 
L 821.283583 600.581996 
L 821.877391 596.759625 
L 822.471199 597.711259 
L 823.065007 595.510082 
L 823.658816 597.159341 
L 824.252624 600.119353 
L 824.846432 601.884845 
L 825.44024 596.075897 
L 826.034048 596.553594 
L 826.627856 596.142677 
L 827.221664 597.6793 
L 827.815472 599.640172 
L 828.40928 598.743715 
L 829.596897 594.287716 
L 830.190705 597.935407 
L 830.784513 600.366362 
L 831.378321 601.376178 
L 831.972129 599.533596 
L 832.565937 598.498322 
L 833.753553 602.155181 
L 834.347361 603.161477 
L 834.941169 600.164562 
L 835.534978 599.760053 
L 836.128786 600.807032 
L 836.722594 600.765829 
L 837.91021 599.322107 
L 838.504018 597.652245 
L 839.097826 596.370743 
L 839.691634 601.054569 
L 840.285442 600.809655 
L 840.87925 598.874894 
L 841.473058 600.700866 
L 842.066867 600.214614 
L 842.660675 601.495506 
L 843.254483 599.417572 
L 843.848291 599.123868 
L 844.442099 596.870556 
L 845.035907 598.324751 
L 845.629715 600.754935 
L 846.223523 601.326691 
L 846.817331 600.268982 
L 847.411139 597.139813 
L 848.004948 599.339002 
L 848.598756 600.293064 
L 849.192564 600.533287 
L 849.786372 599.78282 
L 850.38018 598.437968 
L 850.973988 594.36284 
L 851.567796 595.94982 
L 852.161604 599.351709 
L 852.755412 600.087543 
L 853.34922 600.106888 
L 853.943028 600.410911 
L 854.536837 598.374802 
L 855.130645 599.370191 
L 855.724453 601.959022 
L 856.318261 601.221553 
L 856.912069 600.773638 
L 857.505877 599.873282 
L 858.099685 598.555755 
L 858.693493 597.846293 
L 859.287301 599.63415 
L 860.474918 598.192715 
L 861.068726 603.070383 
L 861.662534 598.458309 
L 862.256342 599.719511 
L 862.85015 598.467634 
L 863.443958 602.327679 
L 864.037766 604.019551 
L 864.631574 601.960366 
L 865.225382 602.168839 
L 865.81919 597.026995 
L 866.412999 600.165903 
L 867.006807 599.253858 
L 867.600615 600.579333 
L 868.194423 596.648202 
L 868.788231 593.506569 
L 869.382039 596.814813 
L 869.975847 598.664316 
L 870.569655 598.288843 
L 871.163463 600.700191 
L 871.757271 600.009914 
L 872.351079 598.920983 
L 872.944888 598.309916 
L 873.538696 600.950322 
L 874.132504 599.974269 
L 874.726312 597.411476 
L 875.32012 599.037428 
L 875.913928 597.869089 
L 876.507736 601.039552 
L 877.101544 600.70171 
L 877.695352 597.903109 
L 878.28916 599.44114 
L 878.882969 600.363613 
L 879.476777 597.755839 
L 880.070585 598.112408 
L 880.664393 597.828222 
L 881.258201 595.50965 
L 881.852009 598.555264 
L 882.445817 602.820551 
L 883.039625 598.213113 
L 883.633433 597.895456 
L 884.227241 599.790296 
L 884.821049 599.462513 
L 885.414858 598.800634 
L 886.008666 599.152683 
L 886.602474 599.051859 
L 887.196282 597.507887 
L 887.79009 600.189966 
L 888.383898 601.591535 
L 888.977706 598.731097 
L 890.165322 600.003637 
L 890.75913 598.910793 
L 891.946747 602.505298 
L 892.540555 598.035077 
L 893.134363 595.865913 
L 893.728171 600.090314 
L 894.321979 598.414913 
L 894.915787 598.94363 
L 895.509595 600.575397 
L 896.103403 595.697337 
L 896.697211 596.257279 
L 897.291019 601.748026 
L 897.884828 599.266577 
L 899.072444 604.939173 
L 899.666252 599.119979 
L 900.26006 598.595374 
L 900.853868 600.062931 
L 901.447676 599.711897 
L 902.041484 598.166449 
L 902.635292 597.655806 
L 903.2291 592.8338 
L 903.822909 593.538429 
L 904.416717 601.597987 
L 905.010525 600.048363 
L 905.604333 601.892499 
L 906.198141 598.790216 
L 906.791949 597.585063 
L 907.385757 602.252849 
L 907.979565 603.752792 
L 908.573373 599.478763 
L 909.167181 596.251076 
L 909.76099 597.81723 
L 910.354798 596.836101 
L 910.948606 598.668746 
L 911.542414 599.293571 
L 912.136222 596.885427 
L 912.73003 597.554306 
L 913.323838 599.664803 
L 913.917646 598.800892 
L 914.511454 599.750133 
L 915.105262 601.7053 
L 915.69907 603.003472 
L 916.292879 600.897939 
L 916.886687 603.071752 
L 917.480495 602.878242 
L 918.074303 601.241047 
L 918.668111 601.498771 
L 919.261919 600.18488 
L 920.449535 596.597051 
L 921.043343 600.540083 
L 921.637151 598.31781 
L 922.23096 598.176906 
L 922.23096 598.176906 
" clip-path="url(#p7e7beb6c20)" style="fill: none; stroke: #1f77b4; stroke-width: 1.5; stroke-linecap: square"/>
   </g>
   <g id="line2d_47">
    <path d="M 529.13 598.925174 
L 925.2 598.925174 
" clip-path="url(#p7e7beb6c20)" style="fill: none; stroke: #ff0000; stroke-opacity: 0.3; stroke-width: 1.5; stroke-linecap: square"/>
   </g>
   <g id="patch_13">
    <path d="M 529.13 667.24 
L 529.13 385.08 
" style="fill: none; stroke: #000000; stroke-width: 0.8; stroke-linejoin: miter; stroke-linecap: square"/>
   </g>
   <g id="patch_14">
    <path d="M 925.2 667.24 
L 925.2 385.08 
" style="fill: none; stroke: #000000; stroke-width: 0.8; stroke-linejoin: miter; stroke-linecap: square"/>
   </g>
   <g id="patch_15">
    <path d="M 529.13 667.24 
L 925.2 667.24 
" style="fill: none; stroke: #000000; stroke-width: 0.8; stroke-linejoin: miter; stroke-linecap: square"/>
   </g>
   <g id="patch_16">
    <path d="M 529.13 385.08 
L 925.2 385.08 
" style="fill: none; stroke: #000000; stroke-width: 0.8; stroke-linejoin: miter; stroke-linecap: square"/>
   </g>
   <g id="text_50">
    <!-- Temperature -->
    <g transform="translate(672.44005 379.08) scale(0.1728 -0.1728)">
     <defs>
      <path id="DejaVuSans-54" d="M -19 4666 
L 3928 4666 
L 3928 4134 
L 2272 4134 
L 2272 0 
L 1638 0 
L 1638 4134 
L -19 4134 
L -19 4666 
z
" transform="scale(0.015625)"/>
     </defs>
     <use xlink:href="#DejaVuSans-54"/>
     <use xlink:href="#DejaVuSans-65" x="44.083984"/>
     <use xlink:href="#DejaVuSans-6d" x="105.607422"/>
     <use xlink:href="#DejaVuSans-70" x="203.019531"/>
     <use xlink:href="#DejaVuSans-65" x="266.496094"/>
     <use xlink:href="#DejaVuSans-72" x="328.019531"/>
     <use xlink:href="#DejaVuSans-61" x="369.132812"/>
     <use xlink:href="#DejaVuSans-74" x="430.412109"/>
     <use xlink:href="#DejaVuSans-75" x="469.621094"/>
     <use xlink:href="#DejaVuSans-72" x="533"/>
     <use xlink:href="#DejaVuSans-65" x="571.863281"/>
    </g>
   </g>
  </g>
 </g>
 <defs>
  <clipPath id="p9b2f09362f">
   <rect x="71.12" y="30.48" width="854.08" height="282.16"/>
  </clipPath>
  <clipPath id="pcc7497b909">
   <rect x="71.12" y="385.08" width="396.07" height="282.16"/>
  </clipPath>
  <clipPath id="p7e7beb6c20">
   <rect x="529.13" y="385.08" width="396.07" height="282.16"/>
  </clipPath>
 </defs>
</svg>
